G04 EAGLE Gerber RS-274X export*
G75*
%MOMM*%
%FSLAX34Y34*%
%LPD*%
%INSolderpaste Top*%
%IPPOS*%
%AMOC8*
5,1,8,0,0,1.08239X$1,22.5*%
G01*
%ADD10C,0.234000*%
%ADD11C,0.300000*%
%ADD12R,0.600000X0.600000*%
%ADD13R,1.800000X1.000000*%
%ADD14R,0.250000X0.600000*%
%ADD15R,0.700000X0.750000*%
%ADD16R,0.200000X0.200000*%
%ADD17R,0.240000X0.850000*%
%ADD18R,0.850000X0.240000*%
%ADD19R,2.000000X0.800000*%


D10*
X37761Y67750D03*
X37761Y74250D03*
X44261Y67750D03*
X44261Y74250D03*
X37761Y80750D03*
X37761Y87250D03*
X44261Y80750D03*
X44261Y87250D03*
X37761Y93750D03*
X37761Y100250D03*
X44261Y93750D03*
X44261Y100250D03*
X37761Y106750D03*
X37761Y113250D03*
X44261Y106750D03*
X44261Y113250D03*
X37761Y119750D03*
X44261Y119750D03*
X37761Y126250D03*
X37761Y132750D03*
X44261Y126250D03*
X44261Y132750D03*
X37761Y139250D03*
X37761Y145750D03*
X44261Y139250D03*
X44261Y145750D03*
X37761Y152250D03*
X44261Y152250D03*
X50761Y67750D03*
X57261Y67750D03*
X63761Y67750D03*
X70261Y67750D03*
X76761Y67750D03*
X83261Y67750D03*
X89761Y67750D03*
X96261Y67750D03*
X102761Y67750D03*
X109261Y67750D03*
X115761Y67750D03*
X122261Y67750D03*
X50761Y74250D03*
X57261Y74250D03*
X63761Y74250D03*
X70261Y74250D03*
X76761Y74250D03*
X83261Y74250D03*
X89761Y74250D03*
X96261Y74250D03*
X102761Y74250D03*
X109261Y74250D03*
X115761Y74250D03*
X122261Y74250D03*
X50761Y80750D03*
X57261Y80750D03*
X63761Y80750D03*
X70261Y80750D03*
X76761Y80750D03*
X83261Y80750D03*
X89761Y80750D03*
X96261Y80750D03*
X102761Y80750D03*
X109261Y80750D03*
X115761Y80750D03*
X122261Y80750D03*
X50761Y87250D03*
X57261Y87250D03*
X63761Y87250D03*
X70261Y87250D03*
X76761Y87250D03*
X83261Y87250D03*
X89761Y87250D03*
X96261Y87250D03*
X102761Y87250D03*
X109261Y87250D03*
X115761Y87250D03*
X122261Y87250D03*
X50761Y93750D03*
X57261Y93750D03*
X63761Y93750D03*
X70261Y93750D03*
X76761Y93750D03*
X83261Y93750D03*
X89761Y93750D03*
X96261Y93750D03*
X102761Y93750D03*
X109261Y93750D03*
X115761Y93750D03*
X122261Y93750D03*
X50761Y100250D03*
X57261Y100250D03*
X63761Y100250D03*
X70261Y100250D03*
X76761Y100250D03*
X83261Y100250D03*
X89761Y100250D03*
X96261Y100250D03*
X102761Y100250D03*
X109261Y100250D03*
X115761Y100250D03*
X122261Y100250D03*
X50761Y106750D03*
X57261Y106750D03*
X63761Y106750D03*
X70261Y106750D03*
X76761Y106750D03*
X83261Y106750D03*
X89761Y106750D03*
X96261Y106750D03*
X102761Y106750D03*
X109261Y106750D03*
X115761Y106750D03*
X122261Y106750D03*
X50761Y113250D03*
X57261Y113250D03*
X63761Y113250D03*
X70261Y113250D03*
X76761Y113250D03*
X83261Y113250D03*
X89761Y113250D03*
X96261Y113250D03*
X102761Y113250D03*
X109261Y113250D03*
X115761Y113250D03*
X122261Y113250D03*
X50761Y119750D03*
X57261Y119750D03*
X63761Y119750D03*
X70261Y119750D03*
X76761Y119750D03*
X83261Y119750D03*
X89761Y119750D03*
X96261Y119750D03*
X102761Y119750D03*
X109261Y119750D03*
X115761Y119750D03*
X122261Y119750D03*
X50761Y126250D03*
X57261Y126250D03*
X63761Y126250D03*
X70261Y126250D03*
X76761Y126250D03*
X83261Y126250D03*
X89761Y126250D03*
X96261Y126250D03*
X102761Y126250D03*
X109261Y126250D03*
X115761Y126250D03*
X122261Y126250D03*
X50761Y132750D03*
X57261Y132750D03*
X63761Y132750D03*
X70261Y132750D03*
X76761Y132750D03*
X83261Y132750D03*
X89761Y132750D03*
X96261Y132750D03*
X102761Y132750D03*
X109261Y132750D03*
X115761Y132750D03*
X122261Y132750D03*
X50761Y139250D03*
X57261Y139250D03*
X63761Y139250D03*
X70261Y139250D03*
X76761Y139250D03*
X83261Y139250D03*
X89761Y139250D03*
X96261Y139250D03*
X102761Y139250D03*
X109261Y139250D03*
X115761Y139250D03*
X122261Y139250D03*
X50761Y145750D03*
X57261Y145750D03*
X63761Y145750D03*
X70261Y145750D03*
X76761Y145750D03*
X83261Y145750D03*
X89761Y145750D03*
X96261Y145750D03*
X102761Y145750D03*
X109261Y145750D03*
X115761Y145750D03*
X122261Y145750D03*
X50761Y152250D03*
X57261Y152250D03*
X63761Y152250D03*
X70261Y152250D03*
X76761Y152250D03*
X83261Y152250D03*
X89761Y152250D03*
X96261Y152250D03*
X102761Y152250D03*
X109261Y152250D03*
X115761Y152250D03*
X122261Y152250D03*
D11*
X194741Y206500D02*
X194741Y213500D01*
X194741Y206500D02*
X187741Y206500D01*
X187741Y213500D01*
X194741Y213500D01*
X194741Y209350D02*
X187741Y209350D01*
X187741Y212200D02*
X194741Y212200D01*
X212281Y213500D02*
X212281Y206500D01*
X205281Y206500D01*
X205281Y213500D01*
X212281Y213500D01*
X212281Y209350D02*
X205281Y209350D01*
X205281Y212200D02*
X212281Y212200D01*
D12*
X210011Y105000D03*
X210011Y95000D03*
D13*
X176011Y152500D03*
X176011Y127500D03*
D14*
X156091Y85150D03*
X151091Y85150D03*
X146091Y85150D03*
X141091Y85150D03*
X146091Y58650D03*
X141091Y58650D03*
X151091Y58650D03*
X156091Y58650D03*
D12*
X190011Y155000D03*
X190011Y145000D03*
X190011Y125000D03*
X190011Y135000D03*
X138011Y145000D03*
X138011Y135000D03*
X146011Y120000D03*
X156011Y120000D03*
X146011Y159000D03*
X156011Y159000D03*
D15*
X146011Y133250D03*
X146011Y146750D03*
X156011Y146750D03*
X156011Y133250D03*
D12*
X10011Y185000D03*
X10011Y175000D03*
X182811Y101600D03*
X172811Y101600D03*
X182811Y114300D03*
X172811Y114300D03*
D16*
X44011Y186000D03*
X44011Y194000D03*
X36011Y194000D03*
X36011Y186000D03*
D17*
X47561Y175000D03*
X42561Y175000D03*
X37561Y175000D03*
X32561Y175000D03*
D18*
X55011Y197550D03*
X55011Y192550D03*
X55011Y187550D03*
X55011Y182550D03*
D17*
X32461Y205000D03*
X37461Y205000D03*
X42461Y205000D03*
X47461Y205000D03*
D18*
X25011Y197550D03*
X25011Y192550D03*
X25011Y187550D03*
X25011Y182550D03*
D12*
X115011Y210000D03*
X105011Y210000D03*
D11*
X85281Y206500D02*
X85281Y213500D01*
X92281Y213500D01*
X92281Y206500D01*
X85281Y206500D01*
X85281Y209350D02*
X92281Y209350D01*
X92281Y212200D02*
X85281Y212200D01*
X67741Y213500D02*
X67741Y206500D01*
X67741Y213500D02*
X74741Y213500D01*
X74741Y206500D01*
X67741Y206500D01*
X67741Y209350D02*
X74741Y209350D01*
X74741Y212200D02*
X67741Y212200D01*
D12*
X10011Y195000D03*
X10011Y205000D03*
D19*
X175011Y64000D03*
X175011Y82000D03*
D10*
X262830Y67750D03*
X262830Y74250D03*
X269330Y67750D03*
X269330Y74250D03*
X262830Y80750D03*
X262830Y87250D03*
X269330Y80750D03*
X269330Y87250D03*
X262830Y93750D03*
X262830Y100250D03*
X269330Y93750D03*
X269330Y100250D03*
X262830Y106750D03*
X262830Y113250D03*
X269330Y106750D03*
X269330Y113250D03*
X262830Y119750D03*
X269330Y119750D03*
X262830Y126250D03*
X262830Y132750D03*
X269330Y126250D03*
X269330Y132750D03*
X262830Y139250D03*
X262830Y145750D03*
X269330Y139250D03*
X269330Y145750D03*
X262830Y152250D03*
X269330Y152250D03*
X275830Y67750D03*
X282330Y67750D03*
X288830Y67750D03*
X295330Y67750D03*
X301830Y67750D03*
X308330Y67750D03*
X314830Y67750D03*
X321330Y67750D03*
X327830Y67750D03*
X334330Y67750D03*
X340830Y67750D03*
X347330Y67750D03*
X275830Y74250D03*
X282330Y74250D03*
X288830Y74250D03*
X295330Y74250D03*
X301830Y74250D03*
X308330Y74250D03*
X314830Y74250D03*
X321330Y74250D03*
X327830Y74250D03*
X334330Y74250D03*
X340830Y74250D03*
X347330Y74250D03*
X275830Y80750D03*
X282330Y80750D03*
X288830Y80750D03*
X295330Y80750D03*
X301830Y80750D03*
X308330Y80750D03*
X314830Y80750D03*
X321330Y80750D03*
X327830Y80750D03*
X334330Y80750D03*
X340830Y80750D03*
X347330Y80750D03*
X275830Y87250D03*
X282330Y87250D03*
X288830Y87250D03*
X295330Y87250D03*
X301830Y87250D03*
X308330Y87250D03*
X314830Y87250D03*
X321330Y87250D03*
X327830Y87250D03*
X334330Y87250D03*
X340830Y87250D03*
X347330Y87250D03*
X275830Y93750D03*
X282330Y93750D03*
X288830Y93750D03*
X295330Y93750D03*
X301830Y93750D03*
X308330Y93750D03*
X314830Y93750D03*
X321330Y93750D03*
X327830Y93750D03*
X334330Y93750D03*
X340830Y93750D03*
X347330Y93750D03*
X275830Y100250D03*
X282330Y100250D03*
X288830Y100250D03*
X295330Y100250D03*
X301830Y100250D03*
X308330Y100250D03*
X314830Y100250D03*
X321330Y100250D03*
X327830Y100250D03*
X334330Y100250D03*
X340830Y100250D03*
X347330Y100250D03*
X275830Y106750D03*
X282330Y106750D03*
X288830Y106750D03*
X295330Y106750D03*
X301830Y106750D03*
X308330Y106750D03*
X314830Y106750D03*
X321330Y106750D03*
X327830Y106750D03*
X334330Y106750D03*
X340830Y106750D03*
X347330Y106750D03*
X275830Y113250D03*
X282330Y113250D03*
X288830Y113250D03*
X295330Y113250D03*
X301830Y113250D03*
X308330Y113250D03*
X314830Y113250D03*
X321330Y113250D03*
X327830Y113250D03*
X334330Y113250D03*
X340830Y113250D03*
X347330Y113250D03*
X275830Y119750D03*
X282330Y119750D03*
X288830Y119750D03*
X295330Y119750D03*
X301830Y119750D03*
X308330Y119750D03*
X314830Y119750D03*
X321330Y119750D03*
X327830Y119750D03*
X334330Y119750D03*
X340830Y119750D03*
X347330Y119750D03*
X275830Y126250D03*
X282330Y126250D03*
X288830Y126250D03*
X295330Y126250D03*
X301830Y126250D03*
X308330Y126250D03*
X314830Y126250D03*
X321330Y126250D03*
X327830Y126250D03*
X334330Y126250D03*
X340830Y126250D03*
X347330Y126250D03*
X275830Y132750D03*
X282330Y132750D03*
X288830Y132750D03*
X295330Y132750D03*
X301830Y132750D03*
X308330Y132750D03*
X314830Y132750D03*
X321330Y132750D03*
X327830Y132750D03*
X334330Y132750D03*
X340830Y132750D03*
X347330Y132750D03*
X275830Y139250D03*
X282330Y139250D03*
X288830Y139250D03*
X295330Y139250D03*
X301830Y139250D03*
X308330Y139250D03*
X314830Y139250D03*
X321330Y139250D03*
X327830Y139250D03*
X334330Y139250D03*
X340830Y139250D03*
X347330Y139250D03*
X275830Y145750D03*
X282330Y145750D03*
X288830Y145750D03*
X295330Y145750D03*
X301830Y145750D03*
X308330Y145750D03*
X314830Y145750D03*
X321330Y145750D03*
X327830Y145750D03*
X334330Y145750D03*
X340830Y145750D03*
X347330Y145750D03*
X275830Y152250D03*
X282330Y152250D03*
X288830Y152250D03*
X295330Y152250D03*
X301830Y152250D03*
X308330Y152250D03*
X314830Y152250D03*
X321330Y152250D03*
X327830Y152250D03*
X334330Y152250D03*
X340830Y152250D03*
X347330Y152250D03*
D11*
X419810Y206500D02*
X419810Y213500D01*
X419810Y206500D02*
X412810Y206500D01*
X412810Y213500D01*
X419810Y213500D01*
X419810Y209350D02*
X412810Y209350D01*
X412810Y212200D02*
X419810Y212200D01*
X437350Y213500D02*
X437350Y206500D01*
X430350Y206500D01*
X430350Y213500D01*
X437350Y213500D01*
X437350Y209350D02*
X430350Y209350D01*
X430350Y212200D02*
X437350Y212200D01*
D12*
X435080Y105000D03*
X435080Y95000D03*
D13*
X401080Y152500D03*
X401080Y127500D03*
D14*
X381160Y85150D03*
X376160Y85150D03*
X371160Y85150D03*
X366160Y85150D03*
X371160Y58650D03*
X366160Y58650D03*
X376160Y58650D03*
X381160Y58650D03*
D12*
X415080Y155000D03*
X415080Y145000D03*
X415080Y125000D03*
X415080Y135000D03*
X363080Y145000D03*
X363080Y135000D03*
X371080Y120000D03*
X381080Y120000D03*
X371080Y159000D03*
X381080Y159000D03*
D15*
X371080Y133250D03*
X371080Y146750D03*
X381080Y146750D03*
X381080Y133250D03*
D12*
X235080Y185000D03*
X235080Y175000D03*
X407880Y101600D03*
X397880Y101600D03*
X407880Y114300D03*
X397880Y114300D03*
D16*
X269080Y186000D03*
X269080Y194000D03*
X261080Y194000D03*
X261080Y186000D03*
D17*
X272630Y175000D03*
X267630Y175000D03*
X262630Y175000D03*
X257630Y175000D03*
D18*
X280080Y197550D03*
X280080Y192550D03*
X280080Y187550D03*
X280080Y182550D03*
D17*
X257530Y205000D03*
X262530Y205000D03*
X267530Y205000D03*
X272530Y205000D03*
D18*
X250080Y197550D03*
X250080Y192550D03*
X250080Y187550D03*
X250080Y182550D03*
D12*
X340080Y210000D03*
X330080Y210000D03*
D11*
X310350Y206500D02*
X310350Y213500D01*
X317350Y213500D01*
X317350Y206500D01*
X310350Y206500D01*
X310350Y209350D02*
X317350Y209350D01*
X317350Y212200D02*
X310350Y212200D01*
X292810Y213500D02*
X292810Y206500D01*
X292810Y213500D02*
X299810Y213500D01*
X299810Y206500D01*
X292810Y206500D01*
X292810Y209350D02*
X299810Y209350D01*
X299810Y212200D02*
X292810Y212200D01*
D12*
X235080Y195000D03*
X235080Y205000D03*
D19*
X400080Y64000D03*
X400080Y82000D03*
D10*
X487925Y67750D03*
X487925Y74250D03*
X494425Y67750D03*
X494425Y74250D03*
X487925Y80750D03*
X487925Y87250D03*
X494425Y80750D03*
X494425Y87250D03*
X487925Y93750D03*
X487925Y100250D03*
X494425Y93750D03*
X494425Y100250D03*
X487925Y106750D03*
X487925Y113250D03*
X494425Y106750D03*
X494425Y113250D03*
X487925Y119750D03*
X494425Y119750D03*
X487925Y126250D03*
X487925Y132750D03*
X494425Y126250D03*
X494425Y132750D03*
X487925Y139250D03*
X487925Y145750D03*
X494425Y139250D03*
X494425Y145750D03*
X487925Y152250D03*
X494425Y152250D03*
X500925Y67750D03*
X507425Y67750D03*
X513925Y67750D03*
X520425Y67750D03*
X526925Y67750D03*
X533425Y67750D03*
X539925Y67750D03*
X546425Y67750D03*
X552925Y67750D03*
X559425Y67750D03*
X565925Y67750D03*
X572425Y67750D03*
X500925Y74250D03*
X507425Y74250D03*
X513925Y74250D03*
X520425Y74250D03*
X526925Y74250D03*
X533425Y74250D03*
X539925Y74250D03*
X546425Y74250D03*
X552925Y74250D03*
X559425Y74250D03*
X565925Y74250D03*
X572425Y74250D03*
X500925Y80750D03*
X507425Y80750D03*
X513925Y80750D03*
X520425Y80750D03*
X526925Y80750D03*
X533425Y80750D03*
X539925Y80750D03*
X546425Y80750D03*
X552925Y80750D03*
X559425Y80750D03*
X565925Y80750D03*
X572425Y80750D03*
X500925Y87250D03*
X507425Y87250D03*
X513925Y87250D03*
X520425Y87250D03*
X526925Y87250D03*
X533425Y87250D03*
X539925Y87250D03*
X546425Y87250D03*
X552925Y87250D03*
X559425Y87250D03*
X565925Y87250D03*
X572425Y87250D03*
X500925Y93750D03*
X507425Y93750D03*
X513925Y93750D03*
X520425Y93750D03*
X526925Y93750D03*
X533425Y93750D03*
X539925Y93750D03*
X546425Y93750D03*
X552925Y93750D03*
X559425Y93750D03*
X565925Y93750D03*
X572425Y93750D03*
X500925Y100250D03*
X507425Y100250D03*
X513925Y100250D03*
X520425Y100250D03*
X526925Y100250D03*
X533425Y100250D03*
X539925Y100250D03*
X546425Y100250D03*
X552925Y100250D03*
X559425Y100250D03*
X565925Y100250D03*
X572425Y100250D03*
X500925Y106750D03*
X507425Y106750D03*
X513925Y106750D03*
X520425Y106750D03*
X526925Y106750D03*
X533425Y106750D03*
X539925Y106750D03*
X546425Y106750D03*
X552925Y106750D03*
X559425Y106750D03*
X565925Y106750D03*
X572425Y106750D03*
X500925Y113250D03*
X507425Y113250D03*
X513925Y113250D03*
X520425Y113250D03*
X526925Y113250D03*
X533425Y113250D03*
X539925Y113250D03*
X546425Y113250D03*
X552925Y113250D03*
X559425Y113250D03*
X565925Y113250D03*
X572425Y113250D03*
X500925Y119750D03*
X507425Y119750D03*
X513925Y119750D03*
X520425Y119750D03*
X526925Y119750D03*
X533425Y119750D03*
X539925Y119750D03*
X546425Y119750D03*
X552925Y119750D03*
X559425Y119750D03*
X565925Y119750D03*
X572425Y119750D03*
X500925Y126250D03*
X507425Y126250D03*
X513925Y126250D03*
X520425Y126250D03*
X526925Y126250D03*
X533425Y126250D03*
X539925Y126250D03*
X546425Y126250D03*
X552925Y126250D03*
X559425Y126250D03*
X565925Y126250D03*
X572425Y126250D03*
X500925Y132750D03*
X507425Y132750D03*
X513925Y132750D03*
X520425Y132750D03*
X526925Y132750D03*
X533425Y132750D03*
X539925Y132750D03*
X546425Y132750D03*
X552925Y132750D03*
X559425Y132750D03*
X565925Y132750D03*
X572425Y132750D03*
X500925Y139250D03*
X507425Y139250D03*
X513925Y139250D03*
X520425Y139250D03*
X526925Y139250D03*
X533425Y139250D03*
X539925Y139250D03*
X546425Y139250D03*
X552925Y139250D03*
X559425Y139250D03*
X565925Y139250D03*
X572425Y139250D03*
X500925Y145750D03*
X507425Y145750D03*
X513925Y145750D03*
X520425Y145750D03*
X526925Y145750D03*
X533425Y145750D03*
X539925Y145750D03*
X546425Y145750D03*
X552925Y145750D03*
X559425Y145750D03*
X565925Y145750D03*
X572425Y145750D03*
X500925Y152250D03*
X507425Y152250D03*
X513925Y152250D03*
X520425Y152250D03*
X526925Y152250D03*
X533425Y152250D03*
X539925Y152250D03*
X546425Y152250D03*
X552925Y152250D03*
X559425Y152250D03*
X565925Y152250D03*
X572425Y152250D03*
D11*
X644905Y206500D02*
X644905Y213500D01*
X644905Y206500D02*
X637905Y206500D01*
X637905Y213500D01*
X644905Y213500D01*
X644905Y209350D02*
X637905Y209350D01*
X637905Y212200D02*
X644905Y212200D01*
X662445Y213500D02*
X662445Y206500D01*
X655445Y206500D01*
X655445Y213500D01*
X662445Y213500D01*
X662445Y209350D02*
X655445Y209350D01*
X655445Y212200D02*
X662445Y212200D01*
D12*
X660175Y105000D03*
X660175Y95000D03*
D13*
X626175Y152500D03*
X626175Y127500D03*
D14*
X606255Y85150D03*
X601255Y85150D03*
X596255Y85150D03*
X591255Y85150D03*
X596255Y58650D03*
X591255Y58650D03*
X601255Y58650D03*
X606255Y58650D03*
D12*
X640175Y155000D03*
X640175Y145000D03*
X640175Y125000D03*
X640175Y135000D03*
X588175Y145000D03*
X588175Y135000D03*
X596175Y120000D03*
X606175Y120000D03*
X596175Y159000D03*
X606175Y159000D03*
D15*
X596175Y133250D03*
X596175Y146750D03*
X606175Y146750D03*
X606175Y133250D03*
D12*
X460175Y185000D03*
X460175Y175000D03*
X632975Y101600D03*
X622975Y101600D03*
X632975Y114300D03*
X622975Y114300D03*
D16*
X494175Y186000D03*
X494175Y194000D03*
X486175Y194000D03*
X486175Y186000D03*
D17*
X497725Y175000D03*
X492725Y175000D03*
X487725Y175000D03*
X482725Y175000D03*
D18*
X505175Y197550D03*
X505175Y192550D03*
X505175Y187550D03*
X505175Y182550D03*
D17*
X482625Y205000D03*
X487625Y205000D03*
X492625Y205000D03*
X497625Y205000D03*
D18*
X475175Y197550D03*
X475175Y192550D03*
X475175Y187550D03*
X475175Y182550D03*
D12*
X565175Y210000D03*
X555175Y210000D03*
D11*
X535445Y206500D02*
X535445Y213500D01*
X542445Y213500D01*
X542445Y206500D01*
X535445Y206500D01*
X535445Y209350D02*
X542445Y209350D01*
X542445Y212200D02*
X535445Y212200D01*
X517905Y213500D02*
X517905Y206500D01*
X517905Y213500D02*
X524905Y213500D01*
X524905Y206500D01*
X517905Y206500D01*
X517905Y209350D02*
X524905Y209350D01*
X524905Y212200D02*
X517905Y212200D01*
D12*
X460175Y195000D03*
X460175Y205000D03*
D19*
X625175Y64000D03*
X625175Y82000D03*
D10*
X712994Y67750D03*
X712994Y74250D03*
X719494Y67750D03*
X719494Y74250D03*
X712994Y80750D03*
X712994Y87250D03*
X719494Y80750D03*
X719494Y87250D03*
X712994Y93750D03*
X712994Y100250D03*
X719494Y93750D03*
X719494Y100250D03*
X712994Y106750D03*
X712994Y113250D03*
X719494Y106750D03*
X719494Y113250D03*
X712994Y119750D03*
X719494Y119750D03*
X712994Y126250D03*
X712994Y132750D03*
X719494Y126250D03*
X719494Y132750D03*
X712994Y139250D03*
X712994Y145750D03*
X719494Y139250D03*
X719494Y145750D03*
X712994Y152250D03*
X719494Y152250D03*
X725994Y67750D03*
X732494Y67750D03*
X738994Y67750D03*
X745494Y67750D03*
X751994Y67750D03*
X758494Y67750D03*
X764994Y67750D03*
X771494Y67750D03*
X777994Y67750D03*
X784494Y67750D03*
X790994Y67750D03*
X797494Y67750D03*
X725994Y74250D03*
X732494Y74250D03*
X738994Y74250D03*
X745494Y74250D03*
X751994Y74250D03*
X758494Y74250D03*
X764994Y74250D03*
X771494Y74250D03*
X777994Y74250D03*
X784494Y74250D03*
X790994Y74250D03*
X797494Y74250D03*
X725994Y80750D03*
X732494Y80750D03*
X738994Y80750D03*
X745494Y80750D03*
X751994Y80750D03*
X758494Y80750D03*
X764994Y80750D03*
X771494Y80750D03*
X777994Y80750D03*
X784494Y80750D03*
X790994Y80750D03*
X797494Y80750D03*
X725994Y87250D03*
X732494Y87250D03*
X738994Y87250D03*
X745494Y87250D03*
X751994Y87250D03*
X758494Y87250D03*
X764994Y87250D03*
X771494Y87250D03*
X777994Y87250D03*
X784494Y87250D03*
X790994Y87250D03*
X797494Y87250D03*
X725994Y93750D03*
X732494Y93750D03*
X738994Y93750D03*
X745494Y93750D03*
X751994Y93750D03*
X758494Y93750D03*
X764994Y93750D03*
X771494Y93750D03*
X777994Y93750D03*
X784494Y93750D03*
X790994Y93750D03*
X797494Y93750D03*
X725994Y100250D03*
X732494Y100250D03*
X738994Y100250D03*
X745494Y100250D03*
X751994Y100250D03*
X758494Y100250D03*
X764994Y100250D03*
X771494Y100250D03*
X777994Y100250D03*
X784494Y100250D03*
X790994Y100250D03*
X797494Y100250D03*
X725994Y106750D03*
X732494Y106750D03*
X738994Y106750D03*
X745494Y106750D03*
X751994Y106750D03*
X758494Y106750D03*
X764994Y106750D03*
X771494Y106750D03*
X777994Y106750D03*
X784494Y106750D03*
X790994Y106750D03*
X797494Y106750D03*
X725994Y113250D03*
X732494Y113250D03*
X738994Y113250D03*
X745494Y113250D03*
X751994Y113250D03*
X758494Y113250D03*
X764994Y113250D03*
X771494Y113250D03*
X777994Y113250D03*
X784494Y113250D03*
X790994Y113250D03*
X797494Y113250D03*
X725994Y119750D03*
X732494Y119750D03*
X738994Y119750D03*
X745494Y119750D03*
X751994Y119750D03*
X758494Y119750D03*
X764994Y119750D03*
X771494Y119750D03*
X777994Y119750D03*
X784494Y119750D03*
X790994Y119750D03*
X797494Y119750D03*
X725994Y126250D03*
X732494Y126250D03*
X738994Y126250D03*
X745494Y126250D03*
X751994Y126250D03*
X758494Y126250D03*
X764994Y126250D03*
X771494Y126250D03*
X777994Y126250D03*
X784494Y126250D03*
X790994Y126250D03*
X797494Y126250D03*
X725994Y132750D03*
X732494Y132750D03*
X738994Y132750D03*
X745494Y132750D03*
X751994Y132750D03*
X758494Y132750D03*
X764994Y132750D03*
X771494Y132750D03*
X777994Y132750D03*
X784494Y132750D03*
X790994Y132750D03*
X797494Y132750D03*
X725994Y139250D03*
X732494Y139250D03*
X738994Y139250D03*
X745494Y139250D03*
X751994Y139250D03*
X758494Y139250D03*
X764994Y139250D03*
X771494Y139250D03*
X777994Y139250D03*
X784494Y139250D03*
X790994Y139250D03*
X797494Y139250D03*
X725994Y145750D03*
X732494Y145750D03*
X738994Y145750D03*
X745494Y145750D03*
X751994Y145750D03*
X758494Y145750D03*
X764994Y145750D03*
X771494Y145750D03*
X777994Y145750D03*
X784494Y145750D03*
X790994Y145750D03*
X797494Y145750D03*
X725994Y152250D03*
X732494Y152250D03*
X738994Y152250D03*
X745494Y152250D03*
X751994Y152250D03*
X758494Y152250D03*
X764994Y152250D03*
X771494Y152250D03*
X777994Y152250D03*
X784494Y152250D03*
X790994Y152250D03*
X797494Y152250D03*
D11*
X869974Y206500D02*
X869974Y213500D01*
X869974Y206500D02*
X862974Y206500D01*
X862974Y213500D01*
X869974Y213500D01*
X869974Y209350D02*
X862974Y209350D01*
X862974Y212200D02*
X869974Y212200D01*
X887514Y213500D02*
X887514Y206500D01*
X880514Y206500D01*
X880514Y213500D01*
X887514Y213500D01*
X887514Y209350D02*
X880514Y209350D01*
X880514Y212200D02*
X887514Y212200D01*
D12*
X885244Y105000D03*
X885244Y95000D03*
D13*
X851244Y152500D03*
X851244Y127500D03*
D14*
X831324Y85150D03*
X826324Y85150D03*
X821324Y85150D03*
X816324Y85150D03*
X821324Y58650D03*
X816324Y58650D03*
X826324Y58650D03*
X831324Y58650D03*
D12*
X865244Y155000D03*
X865244Y145000D03*
X865244Y125000D03*
X865244Y135000D03*
X813244Y145000D03*
X813244Y135000D03*
X821244Y120000D03*
X831244Y120000D03*
X821244Y159000D03*
X831244Y159000D03*
D15*
X821244Y133250D03*
X821244Y146750D03*
X831244Y146750D03*
X831244Y133250D03*
D12*
X685244Y185000D03*
X685244Y175000D03*
X858044Y101600D03*
X848044Y101600D03*
X858044Y114300D03*
X848044Y114300D03*
D16*
X719244Y186000D03*
X719244Y194000D03*
X711244Y194000D03*
X711244Y186000D03*
D17*
X722794Y175000D03*
X717794Y175000D03*
X712794Y175000D03*
X707794Y175000D03*
D18*
X730244Y197550D03*
X730244Y192550D03*
X730244Y187550D03*
X730244Y182550D03*
D17*
X707694Y205000D03*
X712694Y205000D03*
X717694Y205000D03*
X722694Y205000D03*
D18*
X700244Y197550D03*
X700244Y192550D03*
X700244Y187550D03*
X700244Y182550D03*
D12*
X790244Y210000D03*
X780244Y210000D03*
D11*
X760514Y206500D02*
X760514Y213500D01*
X767514Y213500D01*
X767514Y206500D01*
X760514Y206500D01*
X760514Y209350D02*
X767514Y209350D01*
X767514Y212200D02*
X760514Y212200D01*
X742974Y213500D02*
X742974Y206500D01*
X742974Y213500D02*
X749974Y213500D01*
X749974Y206500D01*
X742974Y206500D01*
X742974Y209350D02*
X749974Y209350D01*
X749974Y212200D02*
X742974Y212200D01*
D12*
X685244Y195000D03*
X685244Y205000D03*
D19*
X850244Y64000D03*
X850244Y82000D03*
D10*
X938089Y67750D03*
X938089Y74250D03*
X944589Y67750D03*
X944589Y74250D03*
X938089Y80750D03*
X938089Y87250D03*
X944589Y80750D03*
X944589Y87250D03*
X938089Y93750D03*
X938089Y100250D03*
X944589Y93750D03*
X944589Y100250D03*
X938089Y106750D03*
X938089Y113250D03*
X944589Y106750D03*
X944589Y113250D03*
X938089Y119750D03*
X944589Y119750D03*
X938089Y126250D03*
X938089Y132750D03*
X944589Y126250D03*
X944589Y132750D03*
X938089Y139250D03*
X938089Y145750D03*
X944589Y139250D03*
X944589Y145750D03*
X938089Y152250D03*
X944589Y152250D03*
X951089Y67750D03*
X957589Y67750D03*
X964089Y67750D03*
X970589Y67750D03*
X977089Y67750D03*
X983589Y67750D03*
X990089Y67750D03*
X996589Y67750D03*
X1003089Y67750D03*
X1009589Y67750D03*
X1016089Y67750D03*
X1022589Y67750D03*
X951089Y74250D03*
X957589Y74250D03*
X964089Y74250D03*
X970589Y74250D03*
X977089Y74250D03*
X983589Y74250D03*
X990089Y74250D03*
X996589Y74250D03*
X1003089Y74250D03*
X1009589Y74250D03*
X1016089Y74250D03*
X1022589Y74250D03*
X951089Y80750D03*
X957589Y80750D03*
X964089Y80750D03*
X970589Y80750D03*
X977089Y80750D03*
X983589Y80750D03*
X990089Y80750D03*
X996589Y80750D03*
X1003089Y80750D03*
X1009589Y80750D03*
X1016089Y80750D03*
X1022589Y80750D03*
X951089Y87250D03*
X957589Y87250D03*
X964089Y87250D03*
X970589Y87250D03*
X977089Y87250D03*
X983589Y87250D03*
X990089Y87250D03*
X996589Y87250D03*
X1003089Y87250D03*
X1009589Y87250D03*
X1016089Y87250D03*
X1022589Y87250D03*
X951089Y93750D03*
X957589Y93750D03*
X964089Y93750D03*
X970589Y93750D03*
X977089Y93750D03*
X983589Y93750D03*
X990089Y93750D03*
X996589Y93750D03*
X1003089Y93750D03*
X1009589Y93750D03*
X1016089Y93750D03*
X1022589Y93750D03*
X951089Y100250D03*
X957589Y100250D03*
X964089Y100250D03*
X970589Y100250D03*
X977089Y100250D03*
X983589Y100250D03*
X990089Y100250D03*
X996589Y100250D03*
X1003089Y100250D03*
X1009589Y100250D03*
X1016089Y100250D03*
X1022589Y100250D03*
X951089Y106750D03*
X957589Y106750D03*
X964089Y106750D03*
X970589Y106750D03*
X977089Y106750D03*
X983589Y106750D03*
X990089Y106750D03*
X996589Y106750D03*
X1003089Y106750D03*
X1009589Y106750D03*
X1016089Y106750D03*
X1022589Y106750D03*
X951089Y113250D03*
X957589Y113250D03*
X964089Y113250D03*
X970589Y113250D03*
X977089Y113250D03*
X983589Y113250D03*
X990089Y113250D03*
X996589Y113250D03*
X1003089Y113250D03*
X1009589Y113250D03*
X1016089Y113250D03*
X1022589Y113250D03*
X951089Y119750D03*
X957589Y119750D03*
X964089Y119750D03*
X970589Y119750D03*
X977089Y119750D03*
X983589Y119750D03*
X990089Y119750D03*
X996589Y119750D03*
X1003089Y119750D03*
X1009589Y119750D03*
X1016089Y119750D03*
X1022589Y119750D03*
X951089Y126250D03*
X957589Y126250D03*
X964089Y126250D03*
X970589Y126250D03*
X977089Y126250D03*
X983589Y126250D03*
X990089Y126250D03*
X996589Y126250D03*
X1003089Y126250D03*
X1009589Y126250D03*
X1016089Y126250D03*
X1022589Y126250D03*
X951089Y132750D03*
X957589Y132750D03*
X964089Y132750D03*
X970589Y132750D03*
X977089Y132750D03*
X983589Y132750D03*
X990089Y132750D03*
X996589Y132750D03*
X1003089Y132750D03*
X1009589Y132750D03*
X1016089Y132750D03*
X1022589Y132750D03*
X951089Y139250D03*
X957589Y139250D03*
X964089Y139250D03*
X970589Y139250D03*
X977089Y139250D03*
X983589Y139250D03*
X990089Y139250D03*
X996589Y139250D03*
X1003089Y139250D03*
X1009589Y139250D03*
X1016089Y139250D03*
X1022589Y139250D03*
X951089Y145750D03*
X957589Y145750D03*
X964089Y145750D03*
X970589Y145750D03*
X977089Y145750D03*
X983589Y145750D03*
X990089Y145750D03*
X996589Y145750D03*
X1003089Y145750D03*
X1009589Y145750D03*
X1016089Y145750D03*
X1022589Y145750D03*
X951089Y152250D03*
X957589Y152250D03*
X964089Y152250D03*
X970589Y152250D03*
X977089Y152250D03*
X983589Y152250D03*
X990089Y152250D03*
X996589Y152250D03*
X1003089Y152250D03*
X1009589Y152250D03*
X1016089Y152250D03*
X1022589Y152250D03*
D11*
X1095069Y206500D02*
X1095069Y213500D01*
X1095069Y206500D02*
X1088069Y206500D01*
X1088069Y213500D01*
X1095069Y213500D01*
X1095069Y209350D02*
X1088069Y209350D01*
X1088069Y212200D02*
X1095069Y212200D01*
X1112609Y213500D02*
X1112609Y206500D01*
X1105609Y206500D01*
X1105609Y213500D01*
X1112609Y213500D01*
X1112609Y209350D02*
X1105609Y209350D01*
X1105609Y212200D02*
X1112609Y212200D01*
D12*
X1110339Y105000D03*
X1110339Y95000D03*
D13*
X1076339Y152500D03*
X1076339Y127500D03*
D14*
X1056419Y85150D03*
X1051419Y85150D03*
X1046419Y85150D03*
X1041419Y85150D03*
X1046419Y58650D03*
X1041419Y58650D03*
X1051419Y58650D03*
X1056419Y58650D03*
D12*
X1090339Y155000D03*
X1090339Y145000D03*
X1090339Y125000D03*
X1090339Y135000D03*
X1038339Y145000D03*
X1038339Y135000D03*
X1046339Y120000D03*
X1056339Y120000D03*
X1046339Y159000D03*
X1056339Y159000D03*
D15*
X1046339Y133250D03*
X1046339Y146750D03*
X1056339Y146750D03*
X1056339Y133250D03*
D12*
X910339Y185000D03*
X910339Y175000D03*
X1083139Y101600D03*
X1073139Y101600D03*
X1083139Y114300D03*
X1073139Y114300D03*
D16*
X944339Y186000D03*
X944339Y194000D03*
X936339Y194000D03*
X936339Y186000D03*
D17*
X947889Y175000D03*
X942889Y175000D03*
X937889Y175000D03*
X932889Y175000D03*
D18*
X955339Y197550D03*
X955339Y192550D03*
X955339Y187550D03*
X955339Y182550D03*
D17*
X932789Y205000D03*
X937789Y205000D03*
X942789Y205000D03*
X947789Y205000D03*
D18*
X925339Y197550D03*
X925339Y192550D03*
X925339Y187550D03*
X925339Y182550D03*
D12*
X1015339Y210000D03*
X1005339Y210000D03*
D11*
X985609Y206500D02*
X985609Y213500D01*
X992609Y213500D01*
X992609Y206500D01*
X985609Y206500D01*
X985609Y209350D02*
X992609Y209350D01*
X992609Y212200D02*
X985609Y212200D01*
X968069Y213500D02*
X968069Y206500D01*
X968069Y213500D02*
X975069Y213500D01*
X975069Y206500D01*
X968069Y206500D01*
X968069Y209350D02*
X975069Y209350D01*
X975069Y212200D02*
X968069Y212200D01*
D12*
X910339Y195000D03*
X910339Y205000D03*
D19*
X1075339Y64000D03*
X1075339Y82000D03*
D10*
X1163158Y67750D03*
X1163158Y74250D03*
X1169658Y67750D03*
X1169658Y74250D03*
X1163158Y80750D03*
X1163158Y87250D03*
X1169658Y80750D03*
X1169658Y87250D03*
X1163158Y93750D03*
X1163158Y100250D03*
X1169658Y93750D03*
X1169658Y100250D03*
X1163158Y106750D03*
X1163158Y113250D03*
X1169658Y106750D03*
X1169658Y113250D03*
X1163158Y119750D03*
X1169658Y119750D03*
X1163158Y126250D03*
X1163158Y132750D03*
X1169658Y126250D03*
X1169658Y132750D03*
X1163158Y139250D03*
X1163158Y145750D03*
X1169658Y139250D03*
X1169658Y145750D03*
X1163158Y152250D03*
X1169658Y152250D03*
X1176158Y67750D03*
X1182658Y67750D03*
X1189158Y67750D03*
X1195658Y67750D03*
X1202158Y67750D03*
X1208658Y67750D03*
X1215158Y67750D03*
X1221658Y67750D03*
X1228158Y67750D03*
X1234658Y67750D03*
X1241158Y67750D03*
X1247658Y67750D03*
X1176158Y74250D03*
X1182658Y74250D03*
X1189158Y74250D03*
X1195658Y74250D03*
X1202158Y74250D03*
X1208658Y74250D03*
X1215158Y74250D03*
X1221658Y74250D03*
X1228158Y74250D03*
X1234658Y74250D03*
X1241158Y74250D03*
X1247658Y74250D03*
X1176158Y80750D03*
X1182658Y80750D03*
X1189158Y80750D03*
X1195658Y80750D03*
X1202158Y80750D03*
X1208658Y80750D03*
X1215158Y80750D03*
X1221658Y80750D03*
X1228158Y80750D03*
X1234658Y80750D03*
X1241158Y80750D03*
X1247658Y80750D03*
X1176158Y87250D03*
X1182658Y87250D03*
X1189158Y87250D03*
X1195658Y87250D03*
X1202158Y87250D03*
X1208658Y87250D03*
X1215158Y87250D03*
X1221658Y87250D03*
X1228158Y87250D03*
X1234658Y87250D03*
X1241158Y87250D03*
X1247658Y87250D03*
X1176158Y93750D03*
X1182658Y93750D03*
X1189158Y93750D03*
X1195658Y93750D03*
X1202158Y93750D03*
X1208658Y93750D03*
X1215158Y93750D03*
X1221658Y93750D03*
X1228158Y93750D03*
X1234658Y93750D03*
X1241158Y93750D03*
X1247658Y93750D03*
X1176158Y100250D03*
X1182658Y100250D03*
X1189158Y100250D03*
X1195658Y100250D03*
X1202158Y100250D03*
X1208658Y100250D03*
X1215158Y100250D03*
X1221658Y100250D03*
X1228158Y100250D03*
X1234658Y100250D03*
X1241158Y100250D03*
X1247658Y100250D03*
X1176158Y106750D03*
X1182658Y106750D03*
X1189158Y106750D03*
X1195658Y106750D03*
X1202158Y106750D03*
X1208658Y106750D03*
X1215158Y106750D03*
X1221658Y106750D03*
X1228158Y106750D03*
X1234658Y106750D03*
X1241158Y106750D03*
X1247658Y106750D03*
X1176158Y113250D03*
X1182658Y113250D03*
X1189158Y113250D03*
X1195658Y113250D03*
X1202158Y113250D03*
X1208658Y113250D03*
X1215158Y113250D03*
X1221658Y113250D03*
X1228158Y113250D03*
X1234658Y113250D03*
X1241158Y113250D03*
X1247658Y113250D03*
X1176158Y119750D03*
X1182658Y119750D03*
X1189158Y119750D03*
X1195658Y119750D03*
X1202158Y119750D03*
X1208658Y119750D03*
X1215158Y119750D03*
X1221658Y119750D03*
X1228158Y119750D03*
X1234658Y119750D03*
X1241158Y119750D03*
X1247658Y119750D03*
X1176158Y126250D03*
X1182658Y126250D03*
X1189158Y126250D03*
X1195658Y126250D03*
X1202158Y126250D03*
X1208658Y126250D03*
X1215158Y126250D03*
X1221658Y126250D03*
X1228158Y126250D03*
X1234658Y126250D03*
X1241158Y126250D03*
X1247658Y126250D03*
X1176158Y132750D03*
X1182658Y132750D03*
X1189158Y132750D03*
X1195658Y132750D03*
X1202158Y132750D03*
X1208658Y132750D03*
X1215158Y132750D03*
X1221658Y132750D03*
X1228158Y132750D03*
X1234658Y132750D03*
X1241158Y132750D03*
X1247658Y132750D03*
X1176158Y139250D03*
X1182658Y139250D03*
X1189158Y139250D03*
X1195658Y139250D03*
X1202158Y139250D03*
X1208658Y139250D03*
X1215158Y139250D03*
X1221658Y139250D03*
X1228158Y139250D03*
X1234658Y139250D03*
X1241158Y139250D03*
X1247658Y139250D03*
X1176158Y145750D03*
X1182658Y145750D03*
X1189158Y145750D03*
X1195658Y145750D03*
X1202158Y145750D03*
X1208658Y145750D03*
X1215158Y145750D03*
X1221658Y145750D03*
X1228158Y145750D03*
X1234658Y145750D03*
X1241158Y145750D03*
X1247658Y145750D03*
X1176158Y152250D03*
X1182658Y152250D03*
X1189158Y152250D03*
X1195658Y152250D03*
X1202158Y152250D03*
X1208658Y152250D03*
X1215158Y152250D03*
X1221658Y152250D03*
X1228158Y152250D03*
X1234658Y152250D03*
X1241158Y152250D03*
X1247658Y152250D03*
D11*
X1320138Y206500D02*
X1320138Y213500D01*
X1320138Y206500D02*
X1313138Y206500D01*
X1313138Y213500D01*
X1320138Y213500D01*
X1320138Y209350D02*
X1313138Y209350D01*
X1313138Y212200D02*
X1320138Y212200D01*
X1337678Y213500D02*
X1337678Y206500D01*
X1330678Y206500D01*
X1330678Y213500D01*
X1337678Y213500D01*
X1337678Y209350D02*
X1330678Y209350D01*
X1330678Y212200D02*
X1337678Y212200D01*
D12*
X1335408Y105000D03*
X1335408Y95000D03*
D13*
X1301408Y152500D03*
X1301408Y127500D03*
D14*
X1281488Y85150D03*
X1276488Y85150D03*
X1271488Y85150D03*
X1266488Y85150D03*
X1271488Y58650D03*
X1266488Y58650D03*
X1276488Y58650D03*
X1281488Y58650D03*
D12*
X1315408Y155000D03*
X1315408Y145000D03*
X1315408Y125000D03*
X1315408Y135000D03*
X1263408Y145000D03*
X1263408Y135000D03*
X1271408Y120000D03*
X1281408Y120000D03*
X1271408Y159000D03*
X1281408Y159000D03*
D15*
X1271408Y133250D03*
X1271408Y146750D03*
X1281408Y146750D03*
X1281408Y133250D03*
D12*
X1135408Y185000D03*
X1135408Y175000D03*
X1308208Y101600D03*
X1298208Y101600D03*
X1308208Y114300D03*
X1298208Y114300D03*
D16*
X1169408Y186000D03*
X1169408Y194000D03*
X1161408Y194000D03*
X1161408Y186000D03*
D17*
X1172958Y175000D03*
X1167958Y175000D03*
X1162958Y175000D03*
X1157958Y175000D03*
D18*
X1180408Y197550D03*
X1180408Y192550D03*
X1180408Y187550D03*
X1180408Y182550D03*
D17*
X1157858Y205000D03*
X1162858Y205000D03*
X1167858Y205000D03*
X1172858Y205000D03*
D18*
X1150408Y197550D03*
X1150408Y192550D03*
X1150408Y187550D03*
X1150408Y182550D03*
D12*
X1240408Y210000D03*
X1230408Y210000D03*
D11*
X1210678Y206500D02*
X1210678Y213500D01*
X1217678Y213500D01*
X1217678Y206500D01*
X1210678Y206500D01*
X1210678Y209350D02*
X1217678Y209350D01*
X1217678Y212200D02*
X1210678Y212200D01*
X1193138Y213500D02*
X1193138Y206500D01*
X1193138Y213500D02*
X1200138Y213500D01*
X1200138Y206500D01*
X1193138Y206500D01*
X1193138Y209350D02*
X1200138Y209350D01*
X1200138Y212200D02*
X1193138Y212200D01*
D12*
X1135408Y195000D03*
X1135408Y205000D03*
D19*
X1300408Y64000D03*
X1300408Y82000D03*
D10*
X1388253Y67750D03*
X1388253Y74250D03*
X1394753Y67750D03*
X1394753Y74250D03*
X1388253Y80750D03*
X1388253Y87250D03*
X1394753Y80750D03*
X1394753Y87250D03*
X1388253Y93750D03*
X1388253Y100250D03*
X1394753Y93750D03*
X1394753Y100250D03*
X1388253Y106750D03*
X1388253Y113250D03*
X1394753Y106750D03*
X1394753Y113250D03*
X1388253Y119750D03*
X1394753Y119750D03*
X1388253Y126250D03*
X1388253Y132750D03*
X1394753Y126250D03*
X1394753Y132750D03*
X1388253Y139250D03*
X1388253Y145750D03*
X1394753Y139250D03*
X1394753Y145750D03*
X1388253Y152250D03*
X1394753Y152250D03*
X1401253Y67750D03*
X1407753Y67750D03*
X1414253Y67750D03*
X1420753Y67750D03*
X1427253Y67750D03*
X1433753Y67750D03*
X1440253Y67750D03*
X1446753Y67750D03*
X1453253Y67750D03*
X1459753Y67750D03*
X1466253Y67750D03*
X1472753Y67750D03*
X1401253Y74250D03*
X1407753Y74250D03*
X1414253Y74250D03*
X1420753Y74250D03*
X1427253Y74250D03*
X1433753Y74250D03*
X1440253Y74250D03*
X1446753Y74250D03*
X1453253Y74250D03*
X1459753Y74250D03*
X1466253Y74250D03*
X1472753Y74250D03*
X1401253Y80750D03*
X1407753Y80750D03*
X1414253Y80750D03*
X1420753Y80750D03*
X1427253Y80750D03*
X1433753Y80750D03*
X1440253Y80750D03*
X1446753Y80750D03*
X1453253Y80750D03*
X1459753Y80750D03*
X1466253Y80750D03*
X1472753Y80750D03*
X1401253Y87250D03*
X1407753Y87250D03*
X1414253Y87250D03*
X1420753Y87250D03*
X1427253Y87250D03*
X1433753Y87250D03*
X1440253Y87250D03*
X1446753Y87250D03*
X1453253Y87250D03*
X1459753Y87250D03*
X1466253Y87250D03*
X1472753Y87250D03*
X1401253Y93750D03*
X1407753Y93750D03*
X1414253Y93750D03*
X1420753Y93750D03*
X1427253Y93750D03*
X1433753Y93750D03*
X1440253Y93750D03*
X1446753Y93750D03*
X1453253Y93750D03*
X1459753Y93750D03*
X1466253Y93750D03*
X1472753Y93750D03*
X1401253Y100250D03*
X1407753Y100250D03*
X1414253Y100250D03*
X1420753Y100250D03*
X1427253Y100250D03*
X1433753Y100250D03*
X1440253Y100250D03*
X1446753Y100250D03*
X1453253Y100250D03*
X1459753Y100250D03*
X1466253Y100250D03*
X1472753Y100250D03*
X1401253Y106750D03*
X1407753Y106750D03*
X1414253Y106750D03*
X1420753Y106750D03*
X1427253Y106750D03*
X1433753Y106750D03*
X1440253Y106750D03*
X1446753Y106750D03*
X1453253Y106750D03*
X1459753Y106750D03*
X1466253Y106750D03*
X1472753Y106750D03*
X1401253Y113250D03*
X1407753Y113250D03*
X1414253Y113250D03*
X1420753Y113250D03*
X1427253Y113250D03*
X1433753Y113250D03*
X1440253Y113250D03*
X1446753Y113250D03*
X1453253Y113250D03*
X1459753Y113250D03*
X1466253Y113250D03*
X1472753Y113250D03*
X1401253Y119750D03*
X1407753Y119750D03*
X1414253Y119750D03*
X1420753Y119750D03*
X1427253Y119750D03*
X1433753Y119750D03*
X1440253Y119750D03*
X1446753Y119750D03*
X1453253Y119750D03*
X1459753Y119750D03*
X1466253Y119750D03*
X1472753Y119750D03*
X1401253Y126250D03*
X1407753Y126250D03*
X1414253Y126250D03*
X1420753Y126250D03*
X1427253Y126250D03*
X1433753Y126250D03*
X1440253Y126250D03*
X1446753Y126250D03*
X1453253Y126250D03*
X1459753Y126250D03*
X1466253Y126250D03*
X1472753Y126250D03*
X1401253Y132750D03*
X1407753Y132750D03*
X1414253Y132750D03*
X1420753Y132750D03*
X1427253Y132750D03*
X1433753Y132750D03*
X1440253Y132750D03*
X1446753Y132750D03*
X1453253Y132750D03*
X1459753Y132750D03*
X1466253Y132750D03*
X1472753Y132750D03*
X1401253Y139250D03*
X1407753Y139250D03*
X1414253Y139250D03*
X1420753Y139250D03*
X1427253Y139250D03*
X1433753Y139250D03*
X1440253Y139250D03*
X1446753Y139250D03*
X1453253Y139250D03*
X1459753Y139250D03*
X1466253Y139250D03*
X1472753Y139250D03*
X1401253Y145750D03*
X1407753Y145750D03*
X1414253Y145750D03*
X1420753Y145750D03*
X1427253Y145750D03*
X1433753Y145750D03*
X1440253Y145750D03*
X1446753Y145750D03*
X1453253Y145750D03*
X1459753Y145750D03*
X1466253Y145750D03*
X1472753Y145750D03*
X1401253Y152250D03*
X1407753Y152250D03*
X1414253Y152250D03*
X1420753Y152250D03*
X1427253Y152250D03*
X1433753Y152250D03*
X1440253Y152250D03*
X1446753Y152250D03*
X1453253Y152250D03*
X1459753Y152250D03*
X1466253Y152250D03*
X1472753Y152250D03*
D11*
X1545233Y206500D02*
X1545233Y213500D01*
X1545233Y206500D02*
X1538233Y206500D01*
X1538233Y213500D01*
X1545233Y213500D01*
X1545233Y209350D02*
X1538233Y209350D01*
X1538233Y212200D02*
X1545233Y212200D01*
X1562773Y213500D02*
X1562773Y206500D01*
X1555773Y206500D01*
X1555773Y213500D01*
X1562773Y213500D01*
X1562773Y209350D02*
X1555773Y209350D01*
X1555773Y212200D02*
X1562773Y212200D01*
D12*
X1560503Y105000D03*
X1560503Y95000D03*
D13*
X1526503Y152500D03*
X1526503Y127500D03*
D14*
X1506583Y85150D03*
X1501583Y85150D03*
X1496583Y85150D03*
X1491583Y85150D03*
X1496583Y58650D03*
X1491583Y58650D03*
X1501583Y58650D03*
X1506583Y58650D03*
D12*
X1540503Y155000D03*
X1540503Y145000D03*
X1540503Y125000D03*
X1540503Y135000D03*
X1488503Y145000D03*
X1488503Y135000D03*
X1496503Y120000D03*
X1506503Y120000D03*
X1496503Y159000D03*
X1506503Y159000D03*
D15*
X1496503Y133250D03*
X1496503Y146750D03*
X1506503Y146750D03*
X1506503Y133250D03*
D12*
X1360503Y185000D03*
X1360503Y175000D03*
X1533303Y101600D03*
X1523303Y101600D03*
X1533303Y114300D03*
X1523303Y114300D03*
D16*
X1394503Y186000D03*
X1394503Y194000D03*
X1386503Y194000D03*
X1386503Y186000D03*
D17*
X1398053Y175000D03*
X1393053Y175000D03*
X1388053Y175000D03*
X1383053Y175000D03*
D18*
X1405503Y197550D03*
X1405503Y192550D03*
X1405503Y187550D03*
X1405503Y182550D03*
D17*
X1382953Y205000D03*
X1387953Y205000D03*
X1392953Y205000D03*
X1397953Y205000D03*
D18*
X1375503Y197550D03*
X1375503Y192550D03*
X1375503Y187550D03*
X1375503Y182550D03*
D12*
X1465503Y210000D03*
X1455503Y210000D03*
D11*
X1435773Y206500D02*
X1435773Y213500D01*
X1442773Y213500D01*
X1442773Y206500D01*
X1435773Y206500D01*
X1435773Y209350D02*
X1442773Y209350D01*
X1442773Y212200D02*
X1435773Y212200D01*
X1418233Y213500D02*
X1418233Y206500D01*
X1418233Y213500D02*
X1425233Y213500D01*
X1425233Y206500D01*
X1418233Y206500D01*
X1418233Y209350D02*
X1425233Y209350D01*
X1425233Y212200D02*
X1418233Y212200D01*
D12*
X1360503Y195000D03*
X1360503Y205000D03*
D19*
X1525503Y64000D03*
X1525503Y82000D03*
D10*
X1613323Y67750D03*
X1613323Y74250D03*
X1619823Y67750D03*
X1619823Y74250D03*
X1613323Y80750D03*
X1613323Y87250D03*
X1619823Y80750D03*
X1619823Y87250D03*
X1613323Y93750D03*
X1613323Y100250D03*
X1619823Y93750D03*
X1619823Y100250D03*
X1613323Y106750D03*
X1613323Y113250D03*
X1619823Y106750D03*
X1619823Y113250D03*
X1613323Y119750D03*
X1619823Y119750D03*
X1613323Y126250D03*
X1613323Y132750D03*
X1619823Y126250D03*
X1619823Y132750D03*
X1613323Y139250D03*
X1613323Y145750D03*
X1619823Y139250D03*
X1619823Y145750D03*
X1613323Y152250D03*
X1619823Y152250D03*
X1626323Y67750D03*
X1632823Y67750D03*
X1639323Y67750D03*
X1645823Y67750D03*
X1652323Y67750D03*
X1658823Y67750D03*
X1665323Y67750D03*
X1671823Y67750D03*
X1678323Y67750D03*
X1684823Y67750D03*
X1691323Y67750D03*
X1697823Y67750D03*
X1626323Y74250D03*
X1632823Y74250D03*
X1639323Y74250D03*
X1645823Y74250D03*
X1652323Y74250D03*
X1658823Y74250D03*
X1665323Y74250D03*
X1671823Y74250D03*
X1678323Y74250D03*
X1684823Y74250D03*
X1691323Y74250D03*
X1697823Y74250D03*
X1626323Y80750D03*
X1632823Y80750D03*
X1639323Y80750D03*
X1645823Y80750D03*
X1652323Y80750D03*
X1658823Y80750D03*
X1665323Y80750D03*
X1671823Y80750D03*
X1678323Y80750D03*
X1684823Y80750D03*
X1691323Y80750D03*
X1697823Y80750D03*
X1626323Y87250D03*
X1632823Y87250D03*
X1639323Y87250D03*
X1645823Y87250D03*
X1652323Y87250D03*
X1658823Y87250D03*
X1665323Y87250D03*
X1671823Y87250D03*
X1678323Y87250D03*
X1684823Y87250D03*
X1691323Y87250D03*
X1697823Y87250D03*
X1626323Y93750D03*
X1632823Y93750D03*
X1639323Y93750D03*
X1645823Y93750D03*
X1652323Y93750D03*
X1658823Y93750D03*
X1665323Y93750D03*
X1671823Y93750D03*
X1678323Y93750D03*
X1684823Y93750D03*
X1691323Y93750D03*
X1697823Y93750D03*
X1626323Y100250D03*
X1632823Y100250D03*
X1639323Y100250D03*
X1645823Y100250D03*
X1652323Y100250D03*
X1658823Y100250D03*
X1665323Y100250D03*
X1671823Y100250D03*
X1678323Y100250D03*
X1684823Y100250D03*
X1691323Y100250D03*
X1697823Y100250D03*
X1626323Y106750D03*
X1632823Y106750D03*
X1639323Y106750D03*
X1645823Y106750D03*
X1652323Y106750D03*
X1658823Y106750D03*
X1665323Y106750D03*
X1671823Y106750D03*
X1678323Y106750D03*
X1684823Y106750D03*
X1691323Y106750D03*
X1697823Y106750D03*
X1626323Y113250D03*
X1632823Y113250D03*
X1639323Y113250D03*
X1645823Y113250D03*
X1652323Y113250D03*
X1658823Y113250D03*
X1665323Y113250D03*
X1671823Y113250D03*
X1678323Y113250D03*
X1684823Y113250D03*
X1691323Y113250D03*
X1697823Y113250D03*
X1626323Y119750D03*
X1632823Y119750D03*
X1639323Y119750D03*
X1645823Y119750D03*
X1652323Y119750D03*
X1658823Y119750D03*
X1665323Y119750D03*
X1671823Y119750D03*
X1678323Y119750D03*
X1684823Y119750D03*
X1691323Y119750D03*
X1697823Y119750D03*
X1626323Y126250D03*
X1632823Y126250D03*
X1639323Y126250D03*
X1645823Y126250D03*
X1652323Y126250D03*
X1658823Y126250D03*
X1665323Y126250D03*
X1671823Y126250D03*
X1678323Y126250D03*
X1684823Y126250D03*
X1691323Y126250D03*
X1697823Y126250D03*
X1626323Y132750D03*
X1632823Y132750D03*
X1639323Y132750D03*
X1645823Y132750D03*
X1652323Y132750D03*
X1658823Y132750D03*
X1665323Y132750D03*
X1671823Y132750D03*
X1678323Y132750D03*
X1684823Y132750D03*
X1691323Y132750D03*
X1697823Y132750D03*
X1626323Y139250D03*
X1632823Y139250D03*
X1639323Y139250D03*
X1645823Y139250D03*
X1652323Y139250D03*
X1658823Y139250D03*
X1665323Y139250D03*
X1671823Y139250D03*
X1678323Y139250D03*
X1684823Y139250D03*
X1691323Y139250D03*
X1697823Y139250D03*
X1626323Y145750D03*
X1632823Y145750D03*
X1639323Y145750D03*
X1645823Y145750D03*
X1652323Y145750D03*
X1658823Y145750D03*
X1665323Y145750D03*
X1671823Y145750D03*
X1678323Y145750D03*
X1684823Y145750D03*
X1691323Y145750D03*
X1697823Y145750D03*
X1626323Y152250D03*
X1632823Y152250D03*
X1639323Y152250D03*
X1645823Y152250D03*
X1652323Y152250D03*
X1658823Y152250D03*
X1665323Y152250D03*
X1671823Y152250D03*
X1678323Y152250D03*
X1684823Y152250D03*
X1691323Y152250D03*
X1697823Y152250D03*
D11*
X1770303Y206500D02*
X1770303Y213500D01*
X1770303Y206500D02*
X1763303Y206500D01*
X1763303Y213500D01*
X1770303Y213500D01*
X1770303Y209350D02*
X1763303Y209350D01*
X1763303Y212200D02*
X1770303Y212200D01*
X1787843Y213500D02*
X1787843Y206500D01*
X1780843Y206500D01*
X1780843Y213500D01*
X1787843Y213500D01*
X1787843Y209350D02*
X1780843Y209350D01*
X1780843Y212200D02*
X1787843Y212200D01*
D12*
X1785573Y105000D03*
X1785573Y95000D03*
D13*
X1751573Y152500D03*
X1751573Y127500D03*
D14*
X1731653Y85150D03*
X1726653Y85150D03*
X1721653Y85150D03*
X1716653Y85150D03*
X1721653Y58650D03*
X1716653Y58650D03*
X1726653Y58650D03*
X1731653Y58650D03*
D12*
X1765573Y155000D03*
X1765573Y145000D03*
X1765573Y125000D03*
X1765573Y135000D03*
X1713573Y145000D03*
X1713573Y135000D03*
X1721573Y120000D03*
X1731573Y120000D03*
X1721573Y159000D03*
X1731573Y159000D03*
D15*
X1721573Y133250D03*
X1721573Y146750D03*
X1731573Y146750D03*
X1731573Y133250D03*
D12*
X1585573Y185000D03*
X1585573Y175000D03*
X1758373Y101600D03*
X1748373Y101600D03*
X1758373Y114300D03*
X1748373Y114300D03*
D16*
X1619573Y186000D03*
X1619573Y194000D03*
X1611573Y194000D03*
X1611573Y186000D03*
D17*
X1623123Y175000D03*
X1618123Y175000D03*
X1613123Y175000D03*
X1608123Y175000D03*
D18*
X1630573Y197550D03*
X1630573Y192550D03*
X1630573Y187550D03*
X1630573Y182550D03*
D17*
X1608023Y205000D03*
X1613023Y205000D03*
X1618023Y205000D03*
X1623023Y205000D03*
D18*
X1600573Y197550D03*
X1600573Y192550D03*
X1600573Y187550D03*
X1600573Y182550D03*
D12*
X1690573Y210000D03*
X1680573Y210000D03*
D11*
X1660843Y206500D02*
X1660843Y213500D01*
X1667843Y213500D01*
X1667843Y206500D01*
X1660843Y206500D01*
X1660843Y209350D02*
X1667843Y209350D01*
X1667843Y212200D02*
X1660843Y212200D01*
X1643303Y213500D02*
X1643303Y206500D01*
X1643303Y213500D02*
X1650303Y213500D01*
X1650303Y206500D01*
X1643303Y206500D01*
X1643303Y209350D02*
X1650303Y209350D01*
X1650303Y212200D02*
X1643303Y212200D01*
D12*
X1585573Y195000D03*
X1585573Y205000D03*
D19*
X1750573Y64000D03*
X1750573Y82000D03*
D10*
X182229Y630750D03*
X182229Y624250D03*
X175729Y630750D03*
X175729Y624250D03*
X182229Y617750D03*
X182229Y611250D03*
X175729Y617750D03*
X175729Y611250D03*
X182229Y604750D03*
X182229Y598250D03*
X175729Y604750D03*
X175729Y598250D03*
X182229Y591750D03*
X182229Y585250D03*
X175729Y591750D03*
X175729Y585250D03*
X182229Y578750D03*
X175729Y578750D03*
X182229Y572250D03*
X182229Y565750D03*
X175729Y572250D03*
X175729Y565750D03*
X182229Y559250D03*
X182229Y552750D03*
X175729Y559250D03*
X175729Y552750D03*
X182229Y546250D03*
X175729Y546250D03*
X169229Y630750D03*
X162729Y630750D03*
X156229Y630750D03*
X149729Y630750D03*
X143229Y630750D03*
X136729Y630750D03*
X130229Y630750D03*
X123729Y630750D03*
X117229Y630750D03*
X110729Y630750D03*
X104229Y630750D03*
X97729Y630750D03*
X169229Y624250D03*
X162729Y624250D03*
X156229Y624250D03*
X149729Y624250D03*
X143229Y624250D03*
X136729Y624250D03*
X130229Y624250D03*
X123729Y624250D03*
X117229Y624250D03*
X110729Y624250D03*
X104229Y624250D03*
X97729Y624250D03*
X169229Y617750D03*
X162729Y617750D03*
X156229Y617750D03*
X149729Y617750D03*
X143229Y617750D03*
X136729Y617750D03*
X130229Y617750D03*
X123729Y617750D03*
X117229Y617750D03*
X110729Y617750D03*
X104229Y617750D03*
X97729Y617750D03*
X169229Y611250D03*
X162729Y611250D03*
X156229Y611250D03*
X149729Y611250D03*
X143229Y611250D03*
X136729Y611250D03*
X130229Y611250D03*
X123729Y611250D03*
X117229Y611250D03*
X110729Y611250D03*
X104229Y611250D03*
X97729Y611250D03*
X169229Y604750D03*
X162729Y604750D03*
X156229Y604750D03*
X149729Y604750D03*
X143229Y604750D03*
X136729Y604750D03*
X130229Y604750D03*
X123729Y604750D03*
X117229Y604750D03*
X110729Y604750D03*
X104229Y604750D03*
X97729Y604750D03*
X169229Y598250D03*
X162729Y598250D03*
X156229Y598250D03*
X149729Y598250D03*
X143229Y598250D03*
X136729Y598250D03*
X130229Y598250D03*
X123729Y598250D03*
X117229Y598250D03*
X110729Y598250D03*
X104229Y598250D03*
X97729Y598250D03*
X169229Y591750D03*
X162729Y591750D03*
X156229Y591750D03*
X149729Y591750D03*
X143229Y591750D03*
X136729Y591750D03*
X130229Y591750D03*
X123729Y591750D03*
X117229Y591750D03*
X110729Y591750D03*
X104229Y591750D03*
X97729Y591750D03*
X169229Y585250D03*
X162729Y585250D03*
X156229Y585250D03*
X149729Y585250D03*
X143229Y585250D03*
X136729Y585250D03*
X130229Y585250D03*
X123729Y585250D03*
X117229Y585250D03*
X110729Y585250D03*
X104229Y585250D03*
X97729Y585250D03*
X169229Y578750D03*
X162729Y578750D03*
X156229Y578750D03*
X149729Y578750D03*
X143229Y578750D03*
X136729Y578750D03*
X130229Y578750D03*
X123729Y578750D03*
X117229Y578750D03*
X110729Y578750D03*
X104229Y578750D03*
X97729Y578750D03*
X169229Y572250D03*
X162729Y572250D03*
X156229Y572250D03*
X149729Y572250D03*
X143229Y572250D03*
X136729Y572250D03*
X130229Y572250D03*
X123729Y572250D03*
X117229Y572250D03*
X110729Y572250D03*
X104229Y572250D03*
X97729Y572250D03*
X169229Y565750D03*
X162729Y565750D03*
X156229Y565750D03*
X149729Y565750D03*
X143229Y565750D03*
X136729Y565750D03*
X130229Y565750D03*
X123729Y565750D03*
X117229Y565750D03*
X110729Y565750D03*
X104229Y565750D03*
X97729Y565750D03*
X169229Y559250D03*
X162729Y559250D03*
X156229Y559250D03*
X149729Y559250D03*
X143229Y559250D03*
X136729Y559250D03*
X130229Y559250D03*
X123729Y559250D03*
X117229Y559250D03*
X110729Y559250D03*
X104229Y559250D03*
X97729Y559250D03*
X169229Y552750D03*
X162729Y552750D03*
X156229Y552750D03*
X149729Y552750D03*
X143229Y552750D03*
X136729Y552750D03*
X130229Y552750D03*
X123729Y552750D03*
X117229Y552750D03*
X110729Y552750D03*
X104229Y552750D03*
X97729Y552750D03*
X169229Y546250D03*
X162729Y546250D03*
X156229Y546250D03*
X149729Y546250D03*
X143229Y546250D03*
X136729Y546250D03*
X130229Y546250D03*
X123729Y546250D03*
X117229Y546250D03*
X110729Y546250D03*
X104229Y546250D03*
X97729Y546250D03*
D11*
X25249Y492000D02*
X25249Y485000D01*
X25249Y492000D02*
X32249Y492000D01*
X32249Y485000D01*
X25249Y485000D01*
X25249Y487850D02*
X32249Y487850D01*
X32249Y490700D02*
X25249Y490700D01*
X7709Y492000D02*
X7709Y485000D01*
X7709Y492000D02*
X14709Y492000D01*
X14709Y485000D01*
X7709Y485000D01*
X7709Y487850D02*
X14709Y487850D01*
X14709Y490700D02*
X7709Y490700D01*
D12*
X9979Y593500D03*
X9979Y603500D03*
D13*
X43979Y546000D03*
X43979Y571000D03*
D14*
X63899Y613350D03*
X68899Y613350D03*
X73899Y613350D03*
X78899Y613350D03*
X73899Y639850D03*
X78899Y639850D03*
X68899Y639850D03*
X63899Y639850D03*
D12*
X29979Y543500D03*
X29979Y553500D03*
X29979Y573500D03*
X29979Y563500D03*
X81979Y553500D03*
X81979Y563500D03*
X73979Y578500D03*
X63979Y578500D03*
X73979Y539500D03*
X63979Y539500D03*
D15*
X73979Y565250D03*
X73979Y551750D03*
X63979Y551750D03*
X63979Y565250D03*
D12*
X209979Y513500D03*
X209979Y523500D03*
X37179Y596900D03*
X47179Y596900D03*
X37179Y584200D03*
X47179Y584200D03*
D16*
X175979Y512500D03*
X175979Y504500D03*
X183979Y504500D03*
X183979Y512500D03*
D17*
X172429Y523500D03*
X177429Y523500D03*
X182429Y523500D03*
X187429Y523500D03*
D18*
X164979Y500950D03*
X164979Y505950D03*
X164979Y510950D03*
X164979Y515950D03*
D17*
X187529Y493500D03*
X182529Y493500D03*
X177529Y493500D03*
X172529Y493500D03*
D18*
X194979Y500950D03*
X194979Y505950D03*
X194979Y510950D03*
X194979Y515950D03*
D12*
X104979Y488500D03*
X114979Y488500D03*
D11*
X134709Y492000D02*
X134709Y485000D01*
X127709Y485000D01*
X127709Y492000D01*
X134709Y492000D01*
X134709Y487850D02*
X127709Y487850D01*
X127709Y490700D02*
X134709Y490700D01*
X152249Y492000D02*
X152249Y485000D01*
X145249Y485000D01*
X145249Y492000D01*
X152249Y492000D01*
X152249Y487850D02*
X145249Y487850D01*
X145249Y490700D02*
X152249Y490700D01*
D12*
X209979Y503500D03*
X209979Y493500D03*
D19*
X44979Y634500D03*
X44979Y616500D03*
D10*
X407324Y630750D03*
X407324Y624250D03*
X400824Y630750D03*
X400824Y624250D03*
X407324Y617750D03*
X407324Y611250D03*
X400824Y617750D03*
X400824Y611250D03*
X407324Y604750D03*
X407324Y598250D03*
X400824Y604750D03*
X400824Y598250D03*
X407324Y591750D03*
X407324Y585250D03*
X400824Y591750D03*
X400824Y585250D03*
X407324Y578750D03*
X400824Y578750D03*
X407324Y572250D03*
X407324Y565750D03*
X400824Y572250D03*
X400824Y565750D03*
X407324Y559250D03*
X407324Y552750D03*
X400824Y559250D03*
X400824Y552750D03*
X407324Y546250D03*
X400824Y546250D03*
X394324Y630750D03*
X387824Y630750D03*
X381324Y630750D03*
X374824Y630750D03*
X368324Y630750D03*
X361824Y630750D03*
X355324Y630750D03*
X348824Y630750D03*
X342324Y630750D03*
X335824Y630750D03*
X329324Y630750D03*
X322824Y630750D03*
X394324Y624250D03*
X387824Y624250D03*
X381324Y624250D03*
X374824Y624250D03*
X368324Y624250D03*
X361824Y624250D03*
X355324Y624250D03*
X348824Y624250D03*
X342324Y624250D03*
X335824Y624250D03*
X329324Y624250D03*
X322824Y624250D03*
X394324Y617750D03*
X387824Y617750D03*
X381324Y617750D03*
X374824Y617750D03*
X368324Y617750D03*
X361824Y617750D03*
X355324Y617750D03*
X348824Y617750D03*
X342324Y617750D03*
X335824Y617750D03*
X329324Y617750D03*
X322824Y617750D03*
X394324Y611250D03*
X387824Y611250D03*
X381324Y611250D03*
X374824Y611250D03*
X368324Y611250D03*
X361824Y611250D03*
X355324Y611250D03*
X348824Y611250D03*
X342324Y611250D03*
X335824Y611250D03*
X329324Y611250D03*
X322824Y611250D03*
X394324Y604750D03*
X387824Y604750D03*
X381324Y604750D03*
X374824Y604750D03*
X368324Y604750D03*
X361824Y604750D03*
X355324Y604750D03*
X348824Y604750D03*
X342324Y604750D03*
X335824Y604750D03*
X329324Y604750D03*
X322824Y604750D03*
X394324Y598250D03*
X387824Y598250D03*
X381324Y598250D03*
X374824Y598250D03*
X368324Y598250D03*
X361824Y598250D03*
X355324Y598250D03*
X348824Y598250D03*
X342324Y598250D03*
X335824Y598250D03*
X329324Y598250D03*
X322824Y598250D03*
X394324Y591750D03*
X387824Y591750D03*
X381324Y591750D03*
X374824Y591750D03*
X368324Y591750D03*
X361824Y591750D03*
X355324Y591750D03*
X348824Y591750D03*
X342324Y591750D03*
X335824Y591750D03*
X329324Y591750D03*
X322824Y591750D03*
X394324Y585250D03*
X387824Y585250D03*
X381324Y585250D03*
X374824Y585250D03*
X368324Y585250D03*
X361824Y585250D03*
X355324Y585250D03*
X348824Y585250D03*
X342324Y585250D03*
X335824Y585250D03*
X329324Y585250D03*
X322824Y585250D03*
X394324Y578750D03*
X387824Y578750D03*
X381324Y578750D03*
X374824Y578750D03*
X368324Y578750D03*
X361824Y578750D03*
X355324Y578750D03*
X348824Y578750D03*
X342324Y578750D03*
X335824Y578750D03*
X329324Y578750D03*
X322824Y578750D03*
X394324Y572250D03*
X387824Y572250D03*
X381324Y572250D03*
X374824Y572250D03*
X368324Y572250D03*
X361824Y572250D03*
X355324Y572250D03*
X348824Y572250D03*
X342324Y572250D03*
X335824Y572250D03*
X329324Y572250D03*
X322824Y572250D03*
X394324Y565750D03*
X387824Y565750D03*
X381324Y565750D03*
X374824Y565750D03*
X368324Y565750D03*
X361824Y565750D03*
X355324Y565750D03*
X348824Y565750D03*
X342324Y565750D03*
X335824Y565750D03*
X329324Y565750D03*
X322824Y565750D03*
X394324Y559250D03*
X387824Y559250D03*
X381324Y559250D03*
X374824Y559250D03*
X368324Y559250D03*
X361824Y559250D03*
X355324Y559250D03*
X348824Y559250D03*
X342324Y559250D03*
X335824Y559250D03*
X329324Y559250D03*
X322824Y559250D03*
X394324Y552750D03*
X387824Y552750D03*
X381324Y552750D03*
X374824Y552750D03*
X368324Y552750D03*
X361824Y552750D03*
X355324Y552750D03*
X348824Y552750D03*
X342324Y552750D03*
X335824Y552750D03*
X329324Y552750D03*
X322824Y552750D03*
X394324Y546250D03*
X387824Y546250D03*
X381324Y546250D03*
X374824Y546250D03*
X368324Y546250D03*
X361824Y546250D03*
X355324Y546250D03*
X348824Y546250D03*
X342324Y546250D03*
X335824Y546250D03*
X329324Y546250D03*
X322824Y546250D03*
D11*
X250344Y492000D02*
X250344Y485000D01*
X250344Y492000D02*
X257344Y492000D01*
X257344Y485000D01*
X250344Y485000D01*
X250344Y487850D02*
X257344Y487850D01*
X257344Y490700D02*
X250344Y490700D01*
X232804Y492000D02*
X232804Y485000D01*
X232804Y492000D02*
X239804Y492000D01*
X239804Y485000D01*
X232804Y485000D01*
X232804Y487850D02*
X239804Y487850D01*
X239804Y490700D02*
X232804Y490700D01*
D12*
X235074Y593500D03*
X235074Y603500D03*
D13*
X269074Y546000D03*
X269074Y571000D03*
D14*
X288994Y613350D03*
X293994Y613350D03*
X298994Y613350D03*
X303994Y613350D03*
X298994Y639850D03*
X303994Y639850D03*
X293994Y639850D03*
X288994Y639850D03*
D12*
X255074Y543500D03*
X255074Y553500D03*
X255074Y573500D03*
X255074Y563500D03*
X307074Y553500D03*
X307074Y563500D03*
X299074Y578500D03*
X289074Y578500D03*
X299074Y539500D03*
X289074Y539500D03*
D15*
X299074Y565250D03*
X299074Y551750D03*
X289074Y551750D03*
X289074Y565250D03*
D12*
X435074Y513500D03*
X435074Y523500D03*
X262274Y596900D03*
X272274Y596900D03*
X262274Y584200D03*
X272274Y584200D03*
D16*
X401074Y512500D03*
X401074Y504500D03*
X409074Y504500D03*
X409074Y512500D03*
D17*
X397524Y523500D03*
X402524Y523500D03*
X407524Y523500D03*
X412524Y523500D03*
D18*
X390074Y500950D03*
X390074Y505950D03*
X390074Y510950D03*
X390074Y515950D03*
D17*
X412624Y493500D03*
X407624Y493500D03*
X402624Y493500D03*
X397624Y493500D03*
D18*
X420074Y500950D03*
X420074Y505950D03*
X420074Y510950D03*
X420074Y515950D03*
D12*
X330074Y488500D03*
X340074Y488500D03*
D11*
X359804Y492000D02*
X359804Y485000D01*
X352804Y485000D01*
X352804Y492000D01*
X359804Y492000D01*
X359804Y487850D02*
X352804Y487850D01*
X352804Y490700D02*
X359804Y490700D01*
X377344Y492000D02*
X377344Y485000D01*
X370344Y485000D01*
X370344Y492000D01*
X377344Y492000D01*
X377344Y487850D02*
X370344Y487850D01*
X370344Y490700D02*
X377344Y490700D01*
D12*
X435074Y503500D03*
X435074Y493500D03*
D19*
X270074Y634500D03*
X270074Y616500D03*
D10*
X632393Y630750D03*
X632393Y624250D03*
X625893Y630750D03*
X625893Y624250D03*
X632393Y617750D03*
X632393Y611250D03*
X625893Y617750D03*
X625893Y611250D03*
X632393Y604750D03*
X632393Y598250D03*
X625893Y604750D03*
X625893Y598250D03*
X632393Y591750D03*
X632393Y585250D03*
X625893Y591750D03*
X625893Y585250D03*
X632393Y578750D03*
X625893Y578750D03*
X632393Y572250D03*
X632393Y565750D03*
X625893Y572250D03*
X625893Y565750D03*
X632393Y559250D03*
X632393Y552750D03*
X625893Y559250D03*
X625893Y552750D03*
X632393Y546250D03*
X625893Y546250D03*
X619393Y630750D03*
X612893Y630750D03*
X606393Y630750D03*
X599893Y630750D03*
X593393Y630750D03*
X586893Y630750D03*
X580393Y630750D03*
X573893Y630750D03*
X567393Y630750D03*
X560893Y630750D03*
X554393Y630750D03*
X547893Y630750D03*
X619393Y624250D03*
X612893Y624250D03*
X606393Y624250D03*
X599893Y624250D03*
X593393Y624250D03*
X586893Y624250D03*
X580393Y624250D03*
X573893Y624250D03*
X567393Y624250D03*
X560893Y624250D03*
X554393Y624250D03*
X547893Y624250D03*
X619393Y617750D03*
X612893Y617750D03*
X606393Y617750D03*
X599893Y617750D03*
X593393Y617750D03*
X586893Y617750D03*
X580393Y617750D03*
X573893Y617750D03*
X567393Y617750D03*
X560893Y617750D03*
X554393Y617750D03*
X547893Y617750D03*
X619393Y611250D03*
X612893Y611250D03*
X606393Y611250D03*
X599893Y611250D03*
X593393Y611250D03*
X586893Y611250D03*
X580393Y611250D03*
X573893Y611250D03*
X567393Y611250D03*
X560893Y611250D03*
X554393Y611250D03*
X547893Y611250D03*
X619393Y604750D03*
X612893Y604750D03*
X606393Y604750D03*
X599893Y604750D03*
X593393Y604750D03*
X586893Y604750D03*
X580393Y604750D03*
X573893Y604750D03*
X567393Y604750D03*
X560893Y604750D03*
X554393Y604750D03*
X547893Y604750D03*
X619393Y598250D03*
X612893Y598250D03*
X606393Y598250D03*
X599893Y598250D03*
X593393Y598250D03*
X586893Y598250D03*
X580393Y598250D03*
X573893Y598250D03*
X567393Y598250D03*
X560893Y598250D03*
X554393Y598250D03*
X547893Y598250D03*
X619393Y591750D03*
X612893Y591750D03*
X606393Y591750D03*
X599893Y591750D03*
X593393Y591750D03*
X586893Y591750D03*
X580393Y591750D03*
X573893Y591750D03*
X567393Y591750D03*
X560893Y591750D03*
X554393Y591750D03*
X547893Y591750D03*
X619393Y585250D03*
X612893Y585250D03*
X606393Y585250D03*
X599893Y585250D03*
X593393Y585250D03*
X586893Y585250D03*
X580393Y585250D03*
X573893Y585250D03*
X567393Y585250D03*
X560893Y585250D03*
X554393Y585250D03*
X547893Y585250D03*
X619393Y578750D03*
X612893Y578750D03*
X606393Y578750D03*
X599893Y578750D03*
X593393Y578750D03*
X586893Y578750D03*
X580393Y578750D03*
X573893Y578750D03*
X567393Y578750D03*
X560893Y578750D03*
X554393Y578750D03*
X547893Y578750D03*
X619393Y572250D03*
X612893Y572250D03*
X606393Y572250D03*
X599893Y572250D03*
X593393Y572250D03*
X586893Y572250D03*
X580393Y572250D03*
X573893Y572250D03*
X567393Y572250D03*
X560893Y572250D03*
X554393Y572250D03*
X547893Y572250D03*
X619393Y565750D03*
X612893Y565750D03*
X606393Y565750D03*
X599893Y565750D03*
X593393Y565750D03*
X586893Y565750D03*
X580393Y565750D03*
X573893Y565750D03*
X567393Y565750D03*
X560893Y565750D03*
X554393Y565750D03*
X547893Y565750D03*
X619393Y559250D03*
X612893Y559250D03*
X606393Y559250D03*
X599893Y559250D03*
X593393Y559250D03*
X586893Y559250D03*
X580393Y559250D03*
X573893Y559250D03*
X567393Y559250D03*
X560893Y559250D03*
X554393Y559250D03*
X547893Y559250D03*
X619393Y552750D03*
X612893Y552750D03*
X606393Y552750D03*
X599893Y552750D03*
X593393Y552750D03*
X586893Y552750D03*
X580393Y552750D03*
X573893Y552750D03*
X567393Y552750D03*
X560893Y552750D03*
X554393Y552750D03*
X547893Y552750D03*
X619393Y546250D03*
X612893Y546250D03*
X606393Y546250D03*
X599893Y546250D03*
X593393Y546250D03*
X586893Y546250D03*
X580393Y546250D03*
X573893Y546250D03*
X567393Y546250D03*
X560893Y546250D03*
X554393Y546250D03*
X547893Y546250D03*
D11*
X475413Y492000D02*
X475413Y485000D01*
X475413Y492000D02*
X482413Y492000D01*
X482413Y485000D01*
X475413Y485000D01*
X475413Y487850D02*
X482413Y487850D01*
X482413Y490700D02*
X475413Y490700D01*
X457873Y492000D02*
X457873Y485000D01*
X457873Y492000D02*
X464873Y492000D01*
X464873Y485000D01*
X457873Y485000D01*
X457873Y487850D02*
X464873Y487850D01*
X464873Y490700D02*
X457873Y490700D01*
D12*
X460143Y593500D03*
X460143Y603500D03*
D13*
X494143Y546000D03*
X494143Y571000D03*
D14*
X514063Y613350D03*
X519063Y613350D03*
X524063Y613350D03*
X529063Y613350D03*
X524063Y639850D03*
X529063Y639850D03*
X519063Y639850D03*
X514063Y639850D03*
D12*
X480143Y543500D03*
X480143Y553500D03*
X480143Y573500D03*
X480143Y563500D03*
X532143Y553500D03*
X532143Y563500D03*
X524143Y578500D03*
X514143Y578500D03*
X524143Y539500D03*
X514143Y539500D03*
D15*
X524143Y565250D03*
X524143Y551750D03*
X514143Y551750D03*
X514143Y565250D03*
D12*
X660143Y513500D03*
X660143Y523500D03*
X487343Y596900D03*
X497343Y596900D03*
X487343Y584200D03*
X497343Y584200D03*
D16*
X626143Y512500D03*
X626143Y504500D03*
X634143Y504500D03*
X634143Y512500D03*
D17*
X622593Y523500D03*
X627593Y523500D03*
X632593Y523500D03*
X637593Y523500D03*
D18*
X615143Y500950D03*
X615143Y505950D03*
X615143Y510950D03*
X615143Y515950D03*
D17*
X637693Y493500D03*
X632693Y493500D03*
X627693Y493500D03*
X622693Y493500D03*
D18*
X645143Y500950D03*
X645143Y505950D03*
X645143Y510950D03*
X645143Y515950D03*
D12*
X555143Y488500D03*
X565143Y488500D03*
D11*
X584873Y492000D02*
X584873Y485000D01*
X577873Y485000D01*
X577873Y492000D01*
X584873Y492000D01*
X584873Y487850D02*
X577873Y487850D01*
X577873Y490700D02*
X584873Y490700D01*
X602413Y492000D02*
X602413Y485000D01*
X595413Y485000D01*
X595413Y492000D01*
X602413Y492000D01*
X602413Y487850D02*
X595413Y487850D01*
X595413Y490700D02*
X602413Y490700D01*
D12*
X660143Y503500D03*
X660143Y493500D03*
D19*
X495143Y634500D03*
X495143Y616500D03*
D10*
X857488Y630750D03*
X857488Y624250D03*
X850988Y630750D03*
X850988Y624250D03*
X857488Y617750D03*
X857488Y611250D03*
X850988Y617750D03*
X850988Y611250D03*
X857488Y604750D03*
X857488Y598250D03*
X850988Y604750D03*
X850988Y598250D03*
X857488Y591750D03*
X857488Y585250D03*
X850988Y591750D03*
X850988Y585250D03*
X857488Y578750D03*
X850988Y578750D03*
X857488Y572250D03*
X857488Y565750D03*
X850988Y572250D03*
X850988Y565750D03*
X857488Y559250D03*
X857488Y552750D03*
X850988Y559250D03*
X850988Y552750D03*
X857488Y546250D03*
X850988Y546250D03*
X844488Y630750D03*
X837988Y630750D03*
X831488Y630750D03*
X824988Y630750D03*
X818488Y630750D03*
X811988Y630750D03*
X805488Y630750D03*
X798988Y630750D03*
X792488Y630750D03*
X785988Y630750D03*
X779488Y630750D03*
X772988Y630750D03*
X844488Y624250D03*
X837988Y624250D03*
X831488Y624250D03*
X824988Y624250D03*
X818488Y624250D03*
X811988Y624250D03*
X805488Y624250D03*
X798988Y624250D03*
X792488Y624250D03*
X785988Y624250D03*
X779488Y624250D03*
X772988Y624250D03*
X844488Y617750D03*
X837988Y617750D03*
X831488Y617750D03*
X824988Y617750D03*
X818488Y617750D03*
X811988Y617750D03*
X805488Y617750D03*
X798988Y617750D03*
X792488Y617750D03*
X785988Y617750D03*
X779488Y617750D03*
X772988Y617750D03*
X844488Y611250D03*
X837988Y611250D03*
X831488Y611250D03*
X824988Y611250D03*
X818488Y611250D03*
X811988Y611250D03*
X805488Y611250D03*
X798988Y611250D03*
X792488Y611250D03*
X785988Y611250D03*
X779488Y611250D03*
X772988Y611250D03*
X844488Y604750D03*
X837988Y604750D03*
X831488Y604750D03*
X824988Y604750D03*
X818488Y604750D03*
X811988Y604750D03*
X805488Y604750D03*
X798988Y604750D03*
X792488Y604750D03*
X785988Y604750D03*
X779488Y604750D03*
X772988Y604750D03*
X844488Y598250D03*
X837988Y598250D03*
X831488Y598250D03*
X824988Y598250D03*
X818488Y598250D03*
X811988Y598250D03*
X805488Y598250D03*
X798988Y598250D03*
X792488Y598250D03*
X785988Y598250D03*
X779488Y598250D03*
X772988Y598250D03*
X844488Y591750D03*
X837988Y591750D03*
X831488Y591750D03*
X824988Y591750D03*
X818488Y591750D03*
X811988Y591750D03*
X805488Y591750D03*
X798988Y591750D03*
X792488Y591750D03*
X785988Y591750D03*
X779488Y591750D03*
X772988Y591750D03*
X844488Y585250D03*
X837988Y585250D03*
X831488Y585250D03*
X824988Y585250D03*
X818488Y585250D03*
X811988Y585250D03*
X805488Y585250D03*
X798988Y585250D03*
X792488Y585250D03*
X785988Y585250D03*
X779488Y585250D03*
X772988Y585250D03*
X844488Y578750D03*
X837988Y578750D03*
X831488Y578750D03*
X824988Y578750D03*
X818488Y578750D03*
X811988Y578750D03*
X805488Y578750D03*
X798988Y578750D03*
X792488Y578750D03*
X785988Y578750D03*
X779488Y578750D03*
X772988Y578750D03*
X844488Y572250D03*
X837988Y572250D03*
X831488Y572250D03*
X824988Y572250D03*
X818488Y572250D03*
X811988Y572250D03*
X805488Y572250D03*
X798988Y572250D03*
X792488Y572250D03*
X785988Y572250D03*
X779488Y572250D03*
X772988Y572250D03*
X844488Y565750D03*
X837988Y565750D03*
X831488Y565750D03*
X824988Y565750D03*
X818488Y565750D03*
X811988Y565750D03*
X805488Y565750D03*
X798988Y565750D03*
X792488Y565750D03*
X785988Y565750D03*
X779488Y565750D03*
X772988Y565750D03*
X844488Y559250D03*
X837988Y559250D03*
X831488Y559250D03*
X824988Y559250D03*
X818488Y559250D03*
X811988Y559250D03*
X805488Y559250D03*
X798988Y559250D03*
X792488Y559250D03*
X785988Y559250D03*
X779488Y559250D03*
X772988Y559250D03*
X844488Y552750D03*
X837988Y552750D03*
X831488Y552750D03*
X824988Y552750D03*
X818488Y552750D03*
X811988Y552750D03*
X805488Y552750D03*
X798988Y552750D03*
X792488Y552750D03*
X785988Y552750D03*
X779488Y552750D03*
X772988Y552750D03*
X844488Y546250D03*
X837988Y546250D03*
X831488Y546250D03*
X824988Y546250D03*
X818488Y546250D03*
X811988Y546250D03*
X805488Y546250D03*
X798988Y546250D03*
X792488Y546250D03*
X785988Y546250D03*
X779488Y546250D03*
X772988Y546250D03*
D11*
X700508Y492000D02*
X700508Y485000D01*
X700508Y492000D02*
X707508Y492000D01*
X707508Y485000D01*
X700508Y485000D01*
X700508Y487850D02*
X707508Y487850D01*
X707508Y490700D02*
X700508Y490700D01*
X682968Y492000D02*
X682968Y485000D01*
X682968Y492000D02*
X689968Y492000D01*
X689968Y485000D01*
X682968Y485000D01*
X682968Y487850D02*
X689968Y487850D01*
X689968Y490700D02*
X682968Y490700D01*
D12*
X685238Y593500D03*
X685238Y603500D03*
D13*
X719238Y546000D03*
X719238Y571000D03*
D14*
X739158Y613350D03*
X744158Y613350D03*
X749158Y613350D03*
X754158Y613350D03*
X749158Y639850D03*
X754158Y639850D03*
X744158Y639850D03*
X739158Y639850D03*
D12*
X705238Y543500D03*
X705238Y553500D03*
X705238Y573500D03*
X705238Y563500D03*
X757238Y553500D03*
X757238Y563500D03*
X749238Y578500D03*
X739238Y578500D03*
X749238Y539500D03*
X739238Y539500D03*
D15*
X749238Y565250D03*
X749238Y551750D03*
X739238Y551750D03*
X739238Y565250D03*
D12*
X885238Y513500D03*
X885238Y523500D03*
X712438Y596900D03*
X722438Y596900D03*
X712438Y584200D03*
X722438Y584200D03*
D16*
X851238Y512500D03*
X851238Y504500D03*
X859238Y504500D03*
X859238Y512500D03*
D17*
X847688Y523500D03*
X852688Y523500D03*
X857688Y523500D03*
X862688Y523500D03*
D18*
X840238Y500950D03*
X840238Y505950D03*
X840238Y510950D03*
X840238Y515950D03*
D17*
X862788Y493500D03*
X857788Y493500D03*
X852788Y493500D03*
X847788Y493500D03*
D18*
X870238Y500950D03*
X870238Y505950D03*
X870238Y510950D03*
X870238Y515950D03*
D12*
X780238Y488500D03*
X790238Y488500D03*
D11*
X809968Y492000D02*
X809968Y485000D01*
X802968Y485000D01*
X802968Y492000D01*
X809968Y492000D01*
X809968Y487850D02*
X802968Y487850D01*
X802968Y490700D02*
X809968Y490700D01*
X827508Y492000D02*
X827508Y485000D01*
X820508Y485000D01*
X820508Y492000D01*
X827508Y492000D01*
X827508Y487850D02*
X820508Y487850D01*
X820508Y490700D02*
X827508Y490700D01*
D12*
X885238Y503500D03*
X885238Y493500D03*
D19*
X720238Y634500D03*
X720238Y616500D03*
D10*
X1082557Y630750D03*
X1082557Y624250D03*
X1076057Y630750D03*
X1076057Y624250D03*
X1082557Y617750D03*
X1082557Y611250D03*
X1076057Y617750D03*
X1076057Y611250D03*
X1082557Y604750D03*
X1082557Y598250D03*
X1076057Y604750D03*
X1076057Y598250D03*
X1082557Y591750D03*
X1082557Y585250D03*
X1076057Y591750D03*
X1076057Y585250D03*
X1082557Y578750D03*
X1076057Y578750D03*
X1082557Y572250D03*
X1082557Y565750D03*
X1076057Y572250D03*
X1076057Y565750D03*
X1082557Y559250D03*
X1082557Y552750D03*
X1076057Y559250D03*
X1076057Y552750D03*
X1082557Y546250D03*
X1076057Y546250D03*
X1069557Y630750D03*
X1063057Y630750D03*
X1056557Y630750D03*
X1050057Y630750D03*
X1043557Y630750D03*
X1037057Y630750D03*
X1030557Y630750D03*
X1024057Y630750D03*
X1017557Y630750D03*
X1011057Y630750D03*
X1004557Y630750D03*
X998057Y630750D03*
X1069557Y624250D03*
X1063057Y624250D03*
X1056557Y624250D03*
X1050057Y624250D03*
X1043557Y624250D03*
X1037057Y624250D03*
X1030557Y624250D03*
X1024057Y624250D03*
X1017557Y624250D03*
X1011057Y624250D03*
X1004557Y624250D03*
X998057Y624250D03*
X1069557Y617750D03*
X1063057Y617750D03*
X1056557Y617750D03*
X1050057Y617750D03*
X1043557Y617750D03*
X1037057Y617750D03*
X1030557Y617750D03*
X1024057Y617750D03*
X1017557Y617750D03*
X1011057Y617750D03*
X1004557Y617750D03*
X998057Y617750D03*
X1069557Y611250D03*
X1063057Y611250D03*
X1056557Y611250D03*
X1050057Y611250D03*
X1043557Y611250D03*
X1037057Y611250D03*
X1030557Y611250D03*
X1024057Y611250D03*
X1017557Y611250D03*
X1011057Y611250D03*
X1004557Y611250D03*
X998057Y611250D03*
X1069557Y604750D03*
X1063057Y604750D03*
X1056557Y604750D03*
X1050057Y604750D03*
X1043557Y604750D03*
X1037057Y604750D03*
X1030557Y604750D03*
X1024057Y604750D03*
X1017557Y604750D03*
X1011057Y604750D03*
X1004557Y604750D03*
X998057Y604750D03*
X1069557Y598250D03*
X1063057Y598250D03*
X1056557Y598250D03*
X1050057Y598250D03*
X1043557Y598250D03*
X1037057Y598250D03*
X1030557Y598250D03*
X1024057Y598250D03*
X1017557Y598250D03*
X1011057Y598250D03*
X1004557Y598250D03*
X998057Y598250D03*
X1069557Y591750D03*
X1063057Y591750D03*
X1056557Y591750D03*
X1050057Y591750D03*
X1043557Y591750D03*
X1037057Y591750D03*
X1030557Y591750D03*
X1024057Y591750D03*
X1017557Y591750D03*
X1011057Y591750D03*
X1004557Y591750D03*
X998057Y591750D03*
X1069557Y585250D03*
X1063057Y585250D03*
X1056557Y585250D03*
X1050057Y585250D03*
X1043557Y585250D03*
X1037057Y585250D03*
X1030557Y585250D03*
X1024057Y585250D03*
X1017557Y585250D03*
X1011057Y585250D03*
X1004557Y585250D03*
X998057Y585250D03*
X1069557Y578750D03*
X1063057Y578750D03*
X1056557Y578750D03*
X1050057Y578750D03*
X1043557Y578750D03*
X1037057Y578750D03*
X1030557Y578750D03*
X1024057Y578750D03*
X1017557Y578750D03*
X1011057Y578750D03*
X1004557Y578750D03*
X998057Y578750D03*
X1069557Y572250D03*
X1063057Y572250D03*
X1056557Y572250D03*
X1050057Y572250D03*
X1043557Y572250D03*
X1037057Y572250D03*
X1030557Y572250D03*
X1024057Y572250D03*
X1017557Y572250D03*
X1011057Y572250D03*
X1004557Y572250D03*
X998057Y572250D03*
X1069557Y565750D03*
X1063057Y565750D03*
X1056557Y565750D03*
X1050057Y565750D03*
X1043557Y565750D03*
X1037057Y565750D03*
X1030557Y565750D03*
X1024057Y565750D03*
X1017557Y565750D03*
X1011057Y565750D03*
X1004557Y565750D03*
X998057Y565750D03*
X1069557Y559250D03*
X1063057Y559250D03*
X1056557Y559250D03*
X1050057Y559250D03*
X1043557Y559250D03*
X1037057Y559250D03*
X1030557Y559250D03*
X1024057Y559250D03*
X1017557Y559250D03*
X1011057Y559250D03*
X1004557Y559250D03*
X998057Y559250D03*
X1069557Y552750D03*
X1063057Y552750D03*
X1056557Y552750D03*
X1050057Y552750D03*
X1043557Y552750D03*
X1037057Y552750D03*
X1030557Y552750D03*
X1024057Y552750D03*
X1017557Y552750D03*
X1011057Y552750D03*
X1004557Y552750D03*
X998057Y552750D03*
X1069557Y546250D03*
X1063057Y546250D03*
X1056557Y546250D03*
X1050057Y546250D03*
X1043557Y546250D03*
X1037057Y546250D03*
X1030557Y546250D03*
X1024057Y546250D03*
X1017557Y546250D03*
X1011057Y546250D03*
X1004557Y546250D03*
X998057Y546250D03*
D11*
X925577Y492000D02*
X925577Y485000D01*
X925577Y492000D02*
X932577Y492000D01*
X932577Y485000D01*
X925577Y485000D01*
X925577Y487850D02*
X932577Y487850D01*
X932577Y490700D02*
X925577Y490700D01*
X908037Y492000D02*
X908037Y485000D01*
X908037Y492000D02*
X915037Y492000D01*
X915037Y485000D01*
X908037Y485000D01*
X908037Y487850D02*
X915037Y487850D01*
X915037Y490700D02*
X908037Y490700D01*
D12*
X910307Y593500D03*
X910307Y603500D03*
D13*
X944307Y546000D03*
X944307Y571000D03*
D14*
X964227Y613350D03*
X969227Y613350D03*
X974227Y613350D03*
X979227Y613350D03*
X974227Y639850D03*
X979227Y639850D03*
X969227Y639850D03*
X964227Y639850D03*
D12*
X930307Y543500D03*
X930307Y553500D03*
X930307Y573500D03*
X930307Y563500D03*
X982307Y553500D03*
X982307Y563500D03*
X974307Y578500D03*
X964307Y578500D03*
X974307Y539500D03*
X964307Y539500D03*
D15*
X974307Y565250D03*
X974307Y551750D03*
X964307Y551750D03*
X964307Y565250D03*
D12*
X1110307Y513500D03*
X1110307Y523500D03*
X937507Y596900D03*
X947507Y596900D03*
X937507Y584200D03*
X947507Y584200D03*
D16*
X1076307Y512500D03*
X1076307Y504500D03*
X1084307Y504500D03*
X1084307Y512500D03*
D17*
X1072757Y523500D03*
X1077757Y523500D03*
X1082757Y523500D03*
X1087757Y523500D03*
D18*
X1065307Y500950D03*
X1065307Y505950D03*
X1065307Y510950D03*
X1065307Y515950D03*
D17*
X1087857Y493500D03*
X1082857Y493500D03*
X1077857Y493500D03*
X1072857Y493500D03*
D18*
X1095307Y500950D03*
X1095307Y505950D03*
X1095307Y510950D03*
X1095307Y515950D03*
D12*
X1005307Y488500D03*
X1015307Y488500D03*
D11*
X1035037Y492000D02*
X1035037Y485000D01*
X1028037Y485000D01*
X1028037Y492000D01*
X1035037Y492000D01*
X1035037Y487850D02*
X1028037Y487850D01*
X1028037Y490700D02*
X1035037Y490700D01*
X1052577Y492000D02*
X1052577Y485000D01*
X1045577Y485000D01*
X1045577Y492000D01*
X1052577Y492000D01*
X1052577Y487850D02*
X1045577Y487850D01*
X1045577Y490700D02*
X1052577Y490700D01*
D12*
X1110307Y503500D03*
X1110307Y493500D03*
D19*
X945307Y634500D03*
X945307Y616500D03*
D10*
X1307652Y630750D03*
X1307652Y624250D03*
X1301152Y630750D03*
X1301152Y624250D03*
X1307652Y617750D03*
X1307652Y611250D03*
X1301152Y617750D03*
X1301152Y611250D03*
X1307652Y604750D03*
X1307652Y598250D03*
X1301152Y604750D03*
X1301152Y598250D03*
X1307652Y591750D03*
X1307652Y585250D03*
X1301152Y591750D03*
X1301152Y585250D03*
X1307652Y578750D03*
X1301152Y578750D03*
X1307652Y572250D03*
X1307652Y565750D03*
X1301152Y572250D03*
X1301152Y565750D03*
X1307652Y559250D03*
X1307652Y552750D03*
X1301152Y559250D03*
X1301152Y552750D03*
X1307652Y546250D03*
X1301152Y546250D03*
X1294652Y630750D03*
X1288152Y630750D03*
X1281652Y630750D03*
X1275152Y630750D03*
X1268652Y630750D03*
X1262152Y630750D03*
X1255652Y630750D03*
X1249152Y630750D03*
X1242652Y630750D03*
X1236152Y630750D03*
X1229652Y630750D03*
X1223152Y630750D03*
X1294652Y624250D03*
X1288152Y624250D03*
X1281652Y624250D03*
X1275152Y624250D03*
X1268652Y624250D03*
X1262152Y624250D03*
X1255652Y624250D03*
X1249152Y624250D03*
X1242652Y624250D03*
X1236152Y624250D03*
X1229652Y624250D03*
X1223152Y624250D03*
X1294652Y617750D03*
X1288152Y617750D03*
X1281652Y617750D03*
X1275152Y617750D03*
X1268652Y617750D03*
X1262152Y617750D03*
X1255652Y617750D03*
X1249152Y617750D03*
X1242652Y617750D03*
X1236152Y617750D03*
X1229652Y617750D03*
X1223152Y617750D03*
X1294652Y611250D03*
X1288152Y611250D03*
X1281652Y611250D03*
X1275152Y611250D03*
X1268652Y611250D03*
X1262152Y611250D03*
X1255652Y611250D03*
X1249152Y611250D03*
X1242652Y611250D03*
X1236152Y611250D03*
X1229652Y611250D03*
X1223152Y611250D03*
X1294652Y604750D03*
X1288152Y604750D03*
X1281652Y604750D03*
X1275152Y604750D03*
X1268652Y604750D03*
X1262152Y604750D03*
X1255652Y604750D03*
X1249152Y604750D03*
X1242652Y604750D03*
X1236152Y604750D03*
X1229652Y604750D03*
X1223152Y604750D03*
X1294652Y598250D03*
X1288152Y598250D03*
X1281652Y598250D03*
X1275152Y598250D03*
X1268652Y598250D03*
X1262152Y598250D03*
X1255652Y598250D03*
X1249152Y598250D03*
X1242652Y598250D03*
X1236152Y598250D03*
X1229652Y598250D03*
X1223152Y598250D03*
X1294652Y591750D03*
X1288152Y591750D03*
X1281652Y591750D03*
X1275152Y591750D03*
X1268652Y591750D03*
X1262152Y591750D03*
X1255652Y591750D03*
X1249152Y591750D03*
X1242652Y591750D03*
X1236152Y591750D03*
X1229652Y591750D03*
X1223152Y591750D03*
X1294652Y585250D03*
X1288152Y585250D03*
X1281652Y585250D03*
X1275152Y585250D03*
X1268652Y585250D03*
X1262152Y585250D03*
X1255652Y585250D03*
X1249152Y585250D03*
X1242652Y585250D03*
X1236152Y585250D03*
X1229652Y585250D03*
X1223152Y585250D03*
X1294652Y578750D03*
X1288152Y578750D03*
X1281652Y578750D03*
X1275152Y578750D03*
X1268652Y578750D03*
X1262152Y578750D03*
X1255652Y578750D03*
X1249152Y578750D03*
X1242652Y578750D03*
X1236152Y578750D03*
X1229652Y578750D03*
X1223152Y578750D03*
X1294652Y572250D03*
X1288152Y572250D03*
X1281652Y572250D03*
X1275152Y572250D03*
X1268652Y572250D03*
X1262152Y572250D03*
X1255652Y572250D03*
X1249152Y572250D03*
X1242652Y572250D03*
X1236152Y572250D03*
X1229652Y572250D03*
X1223152Y572250D03*
X1294652Y565750D03*
X1288152Y565750D03*
X1281652Y565750D03*
X1275152Y565750D03*
X1268652Y565750D03*
X1262152Y565750D03*
X1255652Y565750D03*
X1249152Y565750D03*
X1242652Y565750D03*
X1236152Y565750D03*
X1229652Y565750D03*
X1223152Y565750D03*
X1294652Y559250D03*
X1288152Y559250D03*
X1281652Y559250D03*
X1275152Y559250D03*
X1268652Y559250D03*
X1262152Y559250D03*
X1255652Y559250D03*
X1249152Y559250D03*
X1242652Y559250D03*
X1236152Y559250D03*
X1229652Y559250D03*
X1223152Y559250D03*
X1294652Y552750D03*
X1288152Y552750D03*
X1281652Y552750D03*
X1275152Y552750D03*
X1268652Y552750D03*
X1262152Y552750D03*
X1255652Y552750D03*
X1249152Y552750D03*
X1242652Y552750D03*
X1236152Y552750D03*
X1229652Y552750D03*
X1223152Y552750D03*
X1294652Y546250D03*
X1288152Y546250D03*
X1281652Y546250D03*
X1275152Y546250D03*
X1268652Y546250D03*
X1262152Y546250D03*
X1255652Y546250D03*
X1249152Y546250D03*
X1242652Y546250D03*
X1236152Y546250D03*
X1229652Y546250D03*
X1223152Y546250D03*
D11*
X1150672Y492000D02*
X1150672Y485000D01*
X1150672Y492000D02*
X1157672Y492000D01*
X1157672Y485000D01*
X1150672Y485000D01*
X1150672Y487850D02*
X1157672Y487850D01*
X1157672Y490700D02*
X1150672Y490700D01*
X1133132Y492000D02*
X1133132Y485000D01*
X1133132Y492000D02*
X1140132Y492000D01*
X1140132Y485000D01*
X1133132Y485000D01*
X1133132Y487850D02*
X1140132Y487850D01*
X1140132Y490700D02*
X1133132Y490700D01*
D12*
X1135402Y593500D03*
X1135402Y603500D03*
D13*
X1169402Y546000D03*
X1169402Y571000D03*
D14*
X1189322Y613350D03*
X1194322Y613350D03*
X1199322Y613350D03*
X1204322Y613350D03*
X1199322Y639850D03*
X1204322Y639850D03*
X1194322Y639850D03*
X1189322Y639850D03*
D12*
X1155402Y543500D03*
X1155402Y553500D03*
X1155402Y573500D03*
X1155402Y563500D03*
X1207402Y553500D03*
X1207402Y563500D03*
X1199402Y578500D03*
X1189402Y578500D03*
X1199402Y539500D03*
X1189402Y539500D03*
D15*
X1199402Y565250D03*
X1199402Y551750D03*
X1189402Y551750D03*
X1189402Y565250D03*
D12*
X1335402Y513500D03*
X1335402Y523500D03*
X1162602Y596900D03*
X1172602Y596900D03*
X1162602Y584200D03*
X1172602Y584200D03*
D16*
X1301402Y512500D03*
X1301402Y504500D03*
X1309402Y504500D03*
X1309402Y512500D03*
D17*
X1297852Y523500D03*
X1302852Y523500D03*
X1307852Y523500D03*
X1312852Y523500D03*
D18*
X1290402Y500950D03*
X1290402Y505950D03*
X1290402Y510950D03*
X1290402Y515950D03*
D17*
X1312952Y493500D03*
X1307952Y493500D03*
X1302952Y493500D03*
X1297952Y493500D03*
D18*
X1320402Y500950D03*
X1320402Y505950D03*
X1320402Y510950D03*
X1320402Y515950D03*
D12*
X1230402Y488500D03*
X1240402Y488500D03*
D11*
X1260132Y492000D02*
X1260132Y485000D01*
X1253132Y485000D01*
X1253132Y492000D01*
X1260132Y492000D01*
X1260132Y487850D02*
X1253132Y487850D01*
X1253132Y490700D02*
X1260132Y490700D01*
X1277672Y492000D02*
X1277672Y485000D01*
X1270672Y485000D01*
X1270672Y492000D01*
X1277672Y492000D01*
X1277672Y487850D02*
X1270672Y487850D01*
X1270672Y490700D02*
X1277672Y490700D01*
D12*
X1335402Y503500D03*
X1335402Y493500D03*
D19*
X1170402Y634500D03*
X1170402Y616500D03*
D10*
X1532721Y630750D03*
X1532721Y624250D03*
X1526221Y630750D03*
X1526221Y624250D03*
X1532721Y617750D03*
X1532721Y611250D03*
X1526221Y617750D03*
X1526221Y611250D03*
X1532721Y604750D03*
X1532721Y598250D03*
X1526221Y604750D03*
X1526221Y598250D03*
X1532721Y591750D03*
X1532721Y585250D03*
X1526221Y591750D03*
X1526221Y585250D03*
X1532721Y578750D03*
X1526221Y578750D03*
X1532721Y572250D03*
X1532721Y565750D03*
X1526221Y572250D03*
X1526221Y565750D03*
X1532721Y559250D03*
X1532721Y552750D03*
X1526221Y559250D03*
X1526221Y552750D03*
X1532721Y546250D03*
X1526221Y546250D03*
X1519721Y630750D03*
X1513221Y630750D03*
X1506721Y630750D03*
X1500221Y630750D03*
X1493721Y630750D03*
X1487221Y630750D03*
X1480721Y630750D03*
X1474221Y630750D03*
X1467721Y630750D03*
X1461221Y630750D03*
X1454721Y630750D03*
X1448221Y630750D03*
X1519721Y624250D03*
X1513221Y624250D03*
X1506721Y624250D03*
X1500221Y624250D03*
X1493721Y624250D03*
X1487221Y624250D03*
X1480721Y624250D03*
X1474221Y624250D03*
X1467721Y624250D03*
X1461221Y624250D03*
X1454721Y624250D03*
X1448221Y624250D03*
X1519721Y617750D03*
X1513221Y617750D03*
X1506721Y617750D03*
X1500221Y617750D03*
X1493721Y617750D03*
X1487221Y617750D03*
X1480721Y617750D03*
X1474221Y617750D03*
X1467721Y617750D03*
X1461221Y617750D03*
X1454721Y617750D03*
X1448221Y617750D03*
X1519721Y611250D03*
X1513221Y611250D03*
X1506721Y611250D03*
X1500221Y611250D03*
X1493721Y611250D03*
X1487221Y611250D03*
X1480721Y611250D03*
X1474221Y611250D03*
X1467721Y611250D03*
X1461221Y611250D03*
X1454721Y611250D03*
X1448221Y611250D03*
X1519721Y604750D03*
X1513221Y604750D03*
X1506721Y604750D03*
X1500221Y604750D03*
X1493721Y604750D03*
X1487221Y604750D03*
X1480721Y604750D03*
X1474221Y604750D03*
X1467721Y604750D03*
X1461221Y604750D03*
X1454721Y604750D03*
X1448221Y604750D03*
X1519721Y598250D03*
X1513221Y598250D03*
X1506721Y598250D03*
X1500221Y598250D03*
X1493721Y598250D03*
X1487221Y598250D03*
X1480721Y598250D03*
X1474221Y598250D03*
X1467721Y598250D03*
X1461221Y598250D03*
X1454721Y598250D03*
X1448221Y598250D03*
X1519721Y591750D03*
X1513221Y591750D03*
X1506721Y591750D03*
X1500221Y591750D03*
X1493721Y591750D03*
X1487221Y591750D03*
X1480721Y591750D03*
X1474221Y591750D03*
X1467721Y591750D03*
X1461221Y591750D03*
X1454721Y591750D03*
X1448221Y591750D03*
X1519721Y585250D03*
X1513221Y585250D03*
X1506721Y585250D03*
X1500221Y585250D03*
X1493721Y585250D03*
X1487221Y585250D03*
X1480721Y585250D03*
X1474221Y585250D03*
X1467721Y585250D03*
X1461221Y585250D03*
X1454721Y585250D03*
X1448221Y585250D03*
X1519721Y578750D03*
X1513221Y578750D03*
X1506721Y578750D03*
X1500221Y578750D03*
X1493721Y578750D03*
X1487221Y578750D03*
X1480721Y578750D03*
X1474221Y578750D03*
X1467721Y578750D03*
X1461221Y578750D03*
X1454721Y578750D03*
X1448221Y578750D03*
X1519721Y572250D03*
X1513221Y572250D03*
X1506721Y572250D03*
X1500221Y572250D03*
X1493721Y572250D03*
X1487221Y572250D03*
X1480721Y572250D03*
X1474221Y572250D03*
X1467721Y572250D03*
X1461221Y572250D03*
X1454721Y572250D03*
X1448221Y572250D03*
X1519721Y565750D03*
X1513221Y565750D03*
X1506721Y565750D03*
X1500221Y565750D03*
X1493721Y565750D03*
X1487221Y565750D03*
X1480721Y565750D03*
X1474221Y565750D03*
X1467721Y565750D03*
X1461221Y565750D03*
X1454721Y565750D03*
X1448221Y565750D03*
X1519721Y559250D03*
X1513221Y559250D03*
X1506721Y559250D03*
X1500221Y559250D03*
X1493721Y559250D03*
X1487221Y559250D03*
X1480721Y559250D03*
X1474221Y559250D03*
X1467721Y559250D03*
X1461221Y559250D03*
X1454721Y559250D03*
X1448221Y559250D03*
X1519721Y552750D03*
X1513221Y552750D03*
X1506721Y552750D03*
X1500221Y552750D03*
X1493721Y552750D03*
X1487221Y552750D03*
X1480721Y552750D03*
X1474221Y552750D03*
X1467721Y552750D03*
X1461221Y552750D03*
X1454721Y552750D03*
X1448221Y552750D03*
X1519721Y546250D03*
X1513221Y546250D03*
X1506721Y546250D03*
X1500221Y546250D03*
X1493721Y546250D03*
X1487221Y546250D03*
X1480721Y546250D03*
X1474221Y546250D03*
X1467721Y546250D03*
X1461221Y546250D03*
X1454721Y546250D03*
X1448221Y546250D03*
D11*
X1375741Y492000D02*
X1375741Y485000D01*
X1375741Y492000D02*
X1382741Y492000D01*
X1382741Y485000D01*
X1375741Y485000D01*
X1375741Y487850D02*
X1382741Y487850D01*
X1382741Y490700D02*
X1375741Y490700D01*
X1358201Y492000D02*
X1358201Y485000D01*
X1358201Y492000D02*
X1365201Y492000D01*
X1365201Y485000D01*
X1358201Y485000D01*
X1358201Y487850D02*
X1365201Y487850D01*
X1365201Y490700D02*
X1358201Y490700D01*
D12*
X1360471Y593500D03*
X1360471Y603500D03*
D13*
X1394471Y546000D03*
X1394471Y571000D03*
D14*
X1414391Y613350D03*
X1419391Y613350D03*
X1424391Y613350D03*
X1429391Y613350D03*
X1424391Y639850D03*
X1429391Y639850D03*
X1419391Y639850D03*
X1414391Y639850D03*
D12*
X1380471Y543500D03*
X1380471Y553500D03*
X1380471Y573500D03*
X1380471Y563500D03*
X1432471Y553500D03*
X1432471Y563500D03*
X1424471Y578500D03*
X1414471Y578500D03*
X1424471Y539500D03*
X1414471Y539500D03*
D15*
X1424471Y565250D03*
X1424471Y551750D03*
X1414471Y551750D03*
X1414471Y565250D03*
D12*
X1560471Y513500D03*
X1560471Y523500D03*
X1387671Y596900D03*
X1397671Y596900D03*
X1387671Y584200D03*
X1397671Y584200D03*
D16*
X1526471Y512500D03*
X1526471Y504500D03*
X1534471Y504500D03*
X1534471Y512500D03*
D17*
X1522921Y523500D03*
X1527921Y523500D03*
X1532921Y523500D03*
X1537921Y523500D03*
D18*
X1515471Y500950D03*
X1515471Y505950D03*
X1515471Y510950D03*
X1515471Y515950D03*
D17*
X1538021Y493500D03*
X1533021Y493500D03*
X1528021Y493500D03*
X1523021Y493500D03*
D18*
X1545471Y500950D03*
X1545471Y505950D03*
X1545471Y510950D03*
X1545471Y515950D03*
D12*
X1455471Y488500D03*
X1465471Y488500D03*
D11*
X1485201Y492000D02*
X1485201Y485000D01*
X1478201Y485000D01*
X1478201Y492000D01*
X1485201Y492000D01*
X1485201Y487850D02*
X1478201Y487850D01*
X1478201Y490700D02*
X1485201Y490700D01*
X1502741Y492000D02*
X1502741Y485000D01*
X1495741Y485000D01*
X1495741Y492000D01*
X1502741Y492000D01*
X1502741Y487850D02*
X1495741Y487850D01*
X1495741Y490700D02*
X1502741Y490700D01*
D12*
X1560471Y503500D03*
X1560471Y493500D03*
D19*
X1395471Y634500D03*
X1395471Y616500D03*
D10*
X1757791Y630750D03*
X1757791Y624250D03*
X1751291Y630750D03*
X1751291Y624250D03*
X1757791Y617750D03*
X1757791Y611250D03*
X1751291Y617750D03*
X1751291Y611250D03*
X1757791Y604750D03*
X1757791Y598250D03*
X1751291Y604750D03*
X1751291Y598250D03*
X1757791Y591750D03*
X1757791Y585250D03*
X1751291Y591750D03*
X1751291Y585250D03*
X1757791Y578750D03*
X1751291Y578750D03*
X1757791Y572250D03*
X1757791Y565750D03*
X1751291Y572250D03*
X1751291Y565750D03*
X1757791Y559250D03*
X1757791Y552750D03*
X1751291Y559250D03*
X1751291Y552750D03*
X1757791Y546250D03*
X1751291Y546250D03*
X1744791Y630750D03*
X1738291Y630750D03*
X1731791Y630750D03*
X1725291Y630750D03*
X1718791Y630750D03*
X1712291Y630750D03*
X1705791Y630750D03*
X1699291Y630750D03*
X1692791Y630750D03*
X1686291Y630750D03*
X1679791Y630750D03*
X1673291Y630750D03*
X1744791Y624250D03*
X1738291Y624250D03*
X1731791Y624250D03*
X1725291Y624250D03*
X1718791Y624250D03*
X1712291Y624250D03*
X1705791Y624250D03*
X1699291Y624250D03*
X1692791Y624250D03*
X1686291Y624250D03*
X1679791Y624250D03*
X1673291Y624250D03*
X1744791Y617750D03*
X1738291Y617750D03*
X1731791Y617750D03*
X1725291Y617750D03*
X1718791Y617750D03*
X1712291Y617750D03*
X1705791Y617750D03*
X1699291Y617750D03*
X1692791Y617750D03*
X1686291Y617750D03*
X1679791Y617750D03*
X1673291Y617750D03*
X1744791Y611250D03*
X1738291Y611250D03*
X1731791Y611250D03*
X1725291Y611250D03*
X1718791Y611250D03*
X1712291Y611250D03*
X1705791Y611250D03*
X1699291Y611250D03*
X1692791Y611250D03*
X1686291Y611250D03*
X1679791Y611250D03*
X1673291Y611250D03*
X1744791Y604750D03*
X1738291Y604750D03*
X1731791Y604750D03*
X1725291Y604750D03*
X1718791Y604750D03*
X1712291Y604750D03*
X1705791Y604750D03*
X1699291Y604750D03*
X1692791Y604750D03*
X1686291Y604750D03*
X1679791Y604750D03*
X1673291Y604750D03*
X1744791Y598250D03*
X1738291Y598250D03*
X1731791Y598250D03*
X1725291Y598250D03*
X1718791Y598250D03*
X1712291Y598250D03*
X1705791Y598250D03*
X1699291Y598250D03*
X1692791Y598250D03*
X1686291Y598250D03*
X1679791Y598250D03*
X1673291Y598250D03*
X1744791Y591750D03*
X1738291Y591750D03*
X1731791Y591750D03*
X1725291Y591750D03*
X1718791Y591750D03*
X1712291Y591750D03*
X1705791Y591750D03*
X1699291Y591750D03*
X1692791Y591750D03*
X1686291Y591750D03*
X1679791Y591750D03*
X1673291Y591750D03*
X1744791Y585250D03*
X1738291Y585250D03*
X1731791Y585250D03*
X1725291Y585250D03*
X1718791Y585250D03*
X1712291Y585250D03*
X1705791Y585250D03*
X1699291Y585250D03*
X1692791Y585250D03*
X1686291Y585250D03*
X1679791Y585250D03*
X1673291Y585250D03*
X1744791Y578750D03*
X1738291Y578750D03*
X1731791Y578750D03*
X1725291Y578750D03*
X1718791Y578750D03*
X1712291Y578750D03*
X1705791Y578750D03*
X1699291Y578750D03*
X1692791Y578750D03*
X1686291Y578750D03*
X1679791Y578750D03*
X1673291Y578750D03*
X1744791Y572250D03*
X1738291Y572250D03*
X1731791Y572250D03*
X1725291Y572250D03*
X1718791Y572250D03*
X1712291Y572250D03*
X1705791Y572250D03*
X1699291Y572250D03*
X1692791Y572250D03*
X1686291Y572250D03*
X1679791Y572250D03*
X1673291Y572250D03*
X1744791Y565750D03*
X1738291Y565750D03*
X1731791Y565750D03*
X1725291Y565750D03*
X1718791Y565750D03*
X1712291Y565750D03*
X1705791Y565750D03*
X1699291Y565750D03*
X1692791Y565750D03*
X1686291Y565750D03*
X1679791Y565750D03*
X1673291Y565750D03*
X1744791Y559250D03*
X1738291Y559250D03*
X1731791Y559250D03*
X1725291Y559250D03*
X1718791Y559250D03*
X1712291Y559250D03*
X1705791Y559250D03*
X1699291Y559250D03*
X1692791Y559250D03*
X1686291Y559250D03*
X1679791Y559250D03*
X1673291Y559250D03*
X1744791Y552750D03*
X1738291Y552750D03*
X1731791Y552750D03*
X1725291Y552750D03*
X1718791Y552750D03*
X1712291Y552750D03*
X1705791Y552750D03*
X1699291Y552750D03*
X1692791Y552750D03*
X1686291Y552750D03*
X1679791Y552750D03*
X1673291Y552750D03*
X1744791Y546250D03*
X1738291Y546250D03*
X1731791Y546250D03*
X1725291Y546250D03*
X1718791Y546250D03*
X1712291Y546250D03*
X1705791Y546250D03*
X1699291Y546250D03*
X1692791Y546250D03*
X1686291Y546250D03*
X1679791Y546250D03*
X1673291Y546250D03*
D11*
X1600811Y492000D02*
X1600811Y485000D01*
X1600811Y492000D02*
X1607811Y492000D01*
X1607811Y485000D01*
X1600811Y485000D01*
X1600811Y487850D02*
X1607811Y487850D01*
X1607811Y490700D02*
X1600811Y490700D01*
X1583271Y492000D02*
X1583271Y485000D01*
X1583271Y492000D02*
X1590271Y492000D01*
X1590271Y485000D01*
X1583271Y485000D01*
X1583271Y487850D02*
X1590271Y487850D01*
X1590271Y490700D02*
X1583271Y490700D01*
D12*
X1585541Y593500D03*
X1585541Y603500D03*
D13*
X1619541Y546000D03*
X1619541Y571000D03*
D14*
X1639461Y613350D03*
X1644461Y613350D03*
X1649461Y613350D03*
X1654461Y613350D03*
X1649461Y639850D03*
X1654461Y639850D03*
X1644461Y639850D03*
X1639461Y639850D03*
D12*
X1605541Y543500D03*
X1605541Y553500D03*
X1605541Y573500D03*
X1605541Y563500D03*
X1657541Y553500D03*
X1657541Y563500D03*
X1649541Y578500D03*
X1639541Y578500D03*
X1649541Y539500D03*
X1639541Y539500D03*
D15*
X1649541Y565250D03*
X1649541Y551750D03*
X1639541Y551750D03*
X1639541Y565250D03*
D12*
X1785541Y513500D03*
X1785541Y523500D03*
X1612741Y596900D03*
X1622741Y596900D03*
X1612741Y584200D03*
X1622741Y584200D03*
D16*
X1751541Y512500D03*
X1751541Y504500D03*
X1759541Y504500D03*
X1759541Y512500D03*
D17*
X1747991Y523500D03*
X1752991Y523500D03*
X1757991Y523500D03*
X1762991Y523500D03*
D18*
X1740541Y500950D03*
X1740541Y505950D03*
X1740541Y510950D03*
X1740541Y515950D03*
D17*
X1763091Y493500D03*
X1758091Y493500D03*
X1753091Y493500D03*
X1748091Y493500D03*
D18*
X1770541Y500950D03*
X1770541Y505950D03*
X1770541Y510950D03*
X1770541Y515950D03*
D12*
X1680541Y488500D03*
X1690541Y488500D03*
D11*
X1710271Y492000D02*
X1710271Y485000D01*
X1703271Y485000D01*
X1703271Y492000D01*
X1710271Y492000D01*
X1710271Y487850D02*
X1703271Y487850D01*
X1703271Y490700D02*
X1710271Y490700D01*
X1727811Y492000D02*
X1727811Y485000D01*
X1720811Y485000D01*
X1720811Y492000D01*
X1727811Y492000D01*
X1727811Y487850D02*
X1720811Y487850D01*
X1720811Y490700D02*
X1727811Y490700D01*
D12*
X1785541Y503500D03*
X1785541Y493500D03*
D19*
X1620541Y634500D03*
X1620541Y616500D03*
M02*
