G04 EAGLE Gerber RS-274X export*
G75*
%MOMM*%
%FSLAX34Y34*%
%LPD*%
%INSoldermask Top*%
%IPPOS*%
%AMOC8*
5,1,8,0,0,1.08239X$1,22.5*%
G01*
%ADD10C,0.437200*%
%ADD11C,0.505344*%
%ADD12R,0.803200X0.803200*%
%ADD13R,2.003200X1.203200*%
%ADD14R,0.453200X0.803200*%
%ADD15R,0.903200X0.953200*%
%ADD16C,0.838200*%
%ADD17R,0.493200X1.103200*%
%ADD18R,1.103200X0.493200*%
%ADD19R,1.803200X1.803200*%
%ADD20R,2.203200X1.003200*%
%ADD21R,0.553200X1.653200*%
%ADD22C,5.703200*%
%ADD23C,1.203200*%
%ADD24C,1.270000*%
%ADD25C,1.703200*%


D10*
X37761Y67750D03*
X37761Y74250D03*
X44261Y67750D03*
X44261Y74250D03*
X37761Y80750D03*
X37761Y87250D03*
X44261Y80750D03*
X44261Y87250D03*
X37761Y93750D03*
X37761Y100250D03*
X44261Y93750D03*
X44261Y100250D03*
X37761Y106750D03*
X37761Y113250D03*
X44261Y106750D03*
X44261Y113250D03*
X37761Y119750D03*
X44261Y119750D03*
X37761Y126250D03*
X37761Y132750D03*
X44261Y126250D03*
X44261Y132750D03*
X37761Y139250D03*
X37761Y145750D03*
X44261Y139250D03*
X44261Y145750D03*
X37761Y152250D03*
X44261Y152250D03*
X50761Y67750D03*
X57261Y67750D03*
X63761Y67750D03*
X70261Y67750D03*
X76761Y67750D03*
X83261Y67750D03*
X89761Y67750D03*
X96261Y67750D03*
X102761Y67750D03*
X109261Y67750D03*
X115761Y67750D03*
X122261Y67750D03*
X50761Y74250D03*
X57261Y74250D03*
X63761Y74250D03*
X70261Y74250D03*
X76761Y74250D03*
X83261Y74250D03*
X89761Y74250D03*
X96261Y74250D03*
X102761Y74250D03*
X109261Y74250D03*
X115761Y74250D03*
X122261Y74250D03*
X50761Y80750D03*
X57261Y80750D03*
X63761Y80750D03*
X70261Y80750D03*
X76761Y80750D03*
X83261Y80750D03*
X89761Y80750D03*
X96261Y80750D03*
X102761Y80750D03*
X109261Y80750D03*
X115761Y80750D03*
X122261Y80750D03*
X50761Y87250D03*
X57261Y87250D03*
X63761Y87250D03*
X70261Y87250D03*
X76761Y87250D03*
X83261Y87250D03*
X89761Y87250D03*
X96261Y87250D03*
X102761Y87250D03*
X109261Y87250D03*
X115761Y87250D03*
X122261Y87250D03*
X50761Y93750D03*
X57261Y93750D03*
X63761Y93750D03*
X70261Y93750D03*
X76761Y93750D03*
X83261Y93750D03*
X89761Y93750D03*
X96261Y93750D03*
X102761Y93750D03*
X109261Y93750D03*
X115761Y93750D03*
X122261Y93750D03*
X50761Y100250D03*
X57261Y100250D03*
X63761Y100250D03*
X70261Y100250D03*
X76761Y100250D03*
X83261Y100250D03*
X89761Y100250D03*
X96261Y100250D03*
X102761Y100250D03*
X109261Y100250D03*
X115761Y100250D03*
X122261Y100250D03*
X50761Y106750D03*
X57261Y106750D03*
X63761Y106750D03*
X70261Y106750D03*
X76761Y106750D03*
X83261Y106750D03*
X89761Y106750D03*
X96261Y106750D03*
X102761Y106750D03*
X109261Y106750D03*
X115761Y106750D03*
X122261Y106750D03*
X50761Y113250D03*
X57261Y113250D03*
X63761Y113250D03*
X70261Y113250D03*
X76761Y113250D03*
X83261Y113250D03*
X89761Y113250D03*
X96261Y113250D03*
X102761Y113250D03*
X109261Y113250D03*
X115761Y113250D03*
X122261Y113250D03*
X50761Y119750D03*
X57261Y119750D03*
X63761Y119750D03*
X70261Y119750D03*
X76761Y119750D03*
X83261Y119750D03*
X89761Y119750D03*
X96261Y119750D03*
X102761Y119750D03*
X109261Y119750D03*
X115761Y119750D03*
X122261Y119750D03*
X50761Y126250D03*
X57261Y126250D03*
X63761Y126250D03*
X70261Y126250D03*
X76761Y126250D03*
X83261Y126250D03*
X89761Y126250D03*
X96261Y126250D03*
X102761Y126250D03*
X109261Y126250D03*
X115761Y126250D03*
X122261Y126250D03*
X50761Y132750D03*
X57261Y132750D03*
X63761Y132750D03*
X70261Y132750D03*
X76761Y132750D03*
X83261Y132750D03*
X89761Y132750D03*
X96261Y132750D03*
X102761Y132750D03*
X109261Y132750D03*
X115761Y132750D03*
X122261Y132750D03*
X50761Y139250D03*
X57261Y139250D03*
X63761Y139250D03*
X70261Y139250D03*
X76761Y139250D03*
X83261Y139250D03*
X89761Y139250D03*
X96261Y139250D03*
X102761Y139250D03*
X109261Y139250D03*
X115761Y139250D03*
X122261Y139250D03*
X50761Y145750D03*
X57261Y145750D03*
X63761Y145750D03*
X70261Y145750D03*
X76761Y145750D03*
X83261Y145750D03*
X89761Y145750D03*
X96261Y145750D03*
X102761Y145750D03*
X109261Y145750D03*
X115761Y145750D03*
X122261Y145750D03*
X50761Y152250D03*
X57261Y152250D03*
X63761Y152250D03*
X70261Y152250D03*
X76761Y152250D03*
X83261Y152250D03*
X89761Y152250D03*
X96261Y152250D03*
X102761Y152250D03*
X109261Y152250D03*
X115761Y152250D03*
X122261Y152250D03*
D11*
X194731Y206510D02*
X194731Y213490D01*
X194731Y206510D02*
X187751Y206510D01*
X187751Y213490D01*
X194731Y213490D01*
X194731Y211310D02*
X187751Y211310D01*
X212271Y213490D02*
X212271Y206510D01*
X205291Y206510D01*
X205291Y213490D01*
X212271Y213490D01*
X212271Y211310D02*
X205291Y211310D01*
D12*
X210011Y105000D03*
X210011Y95000D03*
D13*
X176011Y152500D03*
X176011Y127500D03*
D14*
X156091Y85150D03*
X151091Y85150D03*
X146091Y85150D03*
X141091Y85150D03*
X146091Y58650D03*
X141091Y58650D03*
X151091Y58650D03*
X156091Y58650D03*
D12*
X190011Y155000D03*
X190011Y145000D03*
X190011Y125000D03*
X190011Y135000D03*
X138011Y145000D03*
X138011Y135000D03*
X146011Y120000D03*
X156011Y120000D03*
X146011Y159000D03*
X156011Y159000D03*
D15*
X146011Y133250D03*
X146011Y146750D03*
X156011Y146750D03*
X156011Y133250D03*
D12*
X10011Y185000D03*
X10011Y175000D03*
X182811Y101600D03*
X172811Y101600D03*
X182811Y114300D03*
X172811Y114300D03*
D16*
X210011Y50000D03*
X23011Y213000D03*
D17*
X32511Y175000D03*
X37511Y175000D03*
X42511Y175000D03*
X47511Y175000D03*
D18*
X55011Y182500D03*
X55011Y187500D03*
X55011Y192500D03*
X55011Y197500D03*
D17*
X47511Y205000D03*
X42511Y205000D03*
X37511Y205000D03*
X32511Y205000D03*
D18*
X25011Y197650D03*
X25011Y192500D03*
X25011Y187500D03*
X25011Y182500D03*
D19*
X40011Y190000D03*
D12*
X115011Y210000D03*
X105011Y210000D03*
D11*
X85291Y206510D02*
X85291Y213490D01*
X92271Y213490D01*
X92271Y206510D01*
X85291Y206510D01*
X85291Y211310D02*
X92271Y211310D01*
X67751Y213490D02*
X67751Y206510D01*
X67751Y213490D02*
X74731Y213490D01*
X74731Y206510D01*
X67751Y206510D01*
X67751Y211310D02*
X74731Y211310D01*
D12*
X10011Y195000D03*
X10011Y205000D03*
D20*
X175011Y64000D03*
X175011Y82000D03*
D21*
X202511Y12750D03*
X197511Y12750D03*
X192511Y12750D03*
X187511Y12750D03*
X182511Y12750D03*
X177511Y12750D03*
X172511Y12750D03*
X167511Y12750D03*
X162511Y12750D03*
X157511Y12750D03*
X152511Y12750D03*
X147511Y12750D03*
X122511Y12750D03*
X117511Y12750D03*
X112511Y12750D03*
X107511Y12750D03*
X102511Y12750D03*
X97511Y12750D03*
X92511Y12750D03*
X87511Y12750D03*
X82511Y12750D03*
X77511Y12750D03*
X72511Y12750D03*
X67511Y12750D03*
X62511Y12750D03*
X57511Y12750D03*
X52511Y12750D03*
X47511Y12750D03*
X42511Y12750D03*
X37511Y12750D03*
X32511Y12750D03*
X27511Y12750D03*
X22511Y12750D03*
X17511Y12750D03*
D22*
X150011Y220000D03*
D10*
X262830Y67750D03*
X262830Y74250D03*
X269330Y67750D03*
X269330Y74250D03*
X262830Y80750D03*
X262830Y87250D03*
X269330Y80750D03*
X269330Y87250D03*
X262830Y93750D03*
X262830Y100250D03*
X269330Y93750D03*
X269330Y100250D03*
X262830Y106750D03*
X262830Y113250D03*
X269330Y106750D03*
X269330Y113250D03*
X262830Y119750D03*
X269330Y119750D03*
X262830Y126250D03*
X262830Y132750D03*
X269330Y126250D03*
X269330Y132750D03*
X262830Y139250D03*
X262830Y145750D03*
X269330Y139250D03*
X269330Y145750D03*
X262830Y152250D03*
X269330Y152250D03*
X275830Y67750D03*
X282330Y67750D03*
X288830Y67750D03*
X295330Y67750D03*
X301830Y67750D03*
X308330Y67750D03*
X314830Y67750D03*
X321330Y67750D03*
X327830Y67750D03*
X334330Y67750D03*
X340830Y67750D03*
X347330Y67750D03*
X275830Y74250D03*
X282330Y74250D03*
X288830Y74250D03*
X295330Y74250D03*
X301830Y74250D03*
X308330Y74250D03*
X314830Y74250D03*
X321330Y74250D03*
X327830Y74250D03*
X334330Y74250D03*
X340830Y74250D03*
X347330Y74250D03*
X275830Y80750D03*
X282330Y80750D03*
X288830Y80750D03*
X295330Y80750D03*
X301830Y80750D03*
X308330Y80750D03*
X314830Y80750D03*
X321330Y80750D03*
X327830Y80750D03*
X334330Y80750D03*
X340830Y80750D03*
X347330Y80750D03*
X275830Y87250D03*
X282330Y87250D03*
X288830Y87250D03*
X295330Y87250D03*
X301830Y87250D03*
X308330Y87250D03*
X314830Y87250D03*
X321330Y87250D03*
X327830Y87250D03*
X334330Y87250D03*
X340830Y87250D03*
X347330Y87250D03*
X275830Y93750D03*
X282330Y93750D03*
X288830Y93750D03*
X295330Y93750D03*
X301830Y93750D03*
X308330Y93750D03*
X314830Y93750D03*
X321330Y93750D03*
X327830Y93750D03*
X334330Y93750D03*
X340830Y93750D03*
X347330Y93750D03*
X275830Y100250D03*
X282330Y100250D03*
X288830Y100250D03*
X295330Y100250D03*
X301830Y100250D03*
X308330Y100250D03*
X314830Y100250D03*
X321330Y100250D03*
X327830Y100250D03*
X334330Y100250D03*
X340830Y100250D03*
X347330Y100250D03*
X275830Y106750D03*
X282330Y106750D03*
X288830Y106750D03*
X295330Y106750D03*
X301830Y106750D03*
X308330Y106750D03*
X314830Y106750D03*
X321330Y106750D03*
X327830Y106750D03*
X334330Y106750D03*
X340830Y106750D03*
X347330Y106750D03*
X275830Y113250D03*
X282330Y113250D03*
X288830Y113250D03*
X295330Y113250D03*
X301830Y113250D03*
X308330Y113250D03*
X314830Y113250D03*
X321330Y113250D03*
X327830Y113250D03*
X334330Y113250D03*
X340830Y113250D03*
X347330Y113250D03*
X275830Y119750D03*
X282330Y119750D03*
X288830Y119750D03*
X295330Y119750D03*
X301830Y119750D03*
X308330Y119750D03*
X314830Y119750D03*
X321330Y119750D03*
X327830Y119750D03*
X334330Y119750D03*
X340830Y119750D03*
X347330Y119750D03*
X275830Y126250D03*
X282330Y126250D03*
X288830Y126250D03*
X295330Y126250D03*
X301830Y126250D03*
X308330Y126250D03*
X314830Y126250D03*
X321330Y126250D03*
X327830Y126250D03*
X334330Y126250D03*
X340830Y126250D03*
X347330Y126250D03*
X275830Y132750D03*
X282330Y132750D03*
X288830Y132750D03*
X295330Y132750D03*
X301830Y132750D03*
X308330Y132750D03*
X314830Y132750D03*
X321330Y132750D03*
X327830Y132750D03*
X334330Y132750D03*
X340830Y132750D03*
X347330Y132750D03*
X275830Y139250D03*
X282330Y139250D03*
X288830Y139250D03*
X295330Y139250D03*
X301830Y139250D03*
X308330Y139250D03*
X314830Y139250D03*
X321330Y139250D03*
X327830Y139250D03*
X334330Y139250D03*
X340830Y139250D03*
X347330Y139250D03*
X275830Y145750D03*
X282330Y145750D03*
X288830Y145750D03*
X295330Y145750D03*
X301830Y145750D03*
X308330Y145750D03*
X314830Y145750D03*
X321330Y145750D03*
X327830Y145750D03*
X334330Y145750D03*
X340830Y145750D03*
X347330Y145750D03*
X275830Y152250D03*
X282330Y152250D03*
X288830Y152250D03*
X295330Y152250D03*
X301830Y152250D03*
X308330Y152250D03*
X314830Y152250D03*
X321330Y152250D03*
X327830Y152250D03*
X334330Y152250D03*
X340830Y152250D03*
X347330Y152250D03*
D11*
X419800Y206510D02*
X419800Y213490D01*
X419800Y206510D02*
X412820Y206510D01*
X412820Y213490D01*
X419800Y213490D01*
X419800Y211310D02*
X412820Y211310D01*
X437340Y213490D02*
X437340Y206510D01*
X430360Y206510D01*
X430360Y213490D01*
X437340Y213490D01*
X437340Y211310D02*
X430360Y211310D01*
D12*
X435080Y105000D03*
X435080Y95000D03*
D13*
X401080Y152500D03*
X401080Y127500D03*
D14*
X381160Y85150D03*
X376160Y85150D03*
X371160Y85150D03*
X366160Y85150D03*
X371160Y58650D03*
X366160Y58650D03*
X376160Y58650D03*
X381160Y58650D03*
D12*
X415080Y155000D03*
X415080Y145000D03*
X415080Y125000D03*
X415080Y135000D03*
X363080Y145000D03*
X363080Y135000D03*
X371080Y120000D03*
X381080Y120000D03*
X371080Y159000D03*
X381080Y159000D03*
D15*
X371080Y133250D03*
X371080Y146750D03*
X381080Y146750D03*
X381080Y133250D03*
D12*
X235080Y185000D03*
X235080Y175000D03*
X407880Y101600D03*
X397880Y101600D03*
X407880Y114300D03*
X397880Y114300D03*
D16*
X435080Y50000D03*
X248080Y213000D03*
D17*
X257580Y175000D03*
X262580Y175000D03*
X267580Y175000D03*
X272580Y175000D03*
D18*
X280080Y182500D03*
X280080Y187500D03*
X280080Y192500D03*
X280080Y197500D03*
D17*
X272580Y205000D03*
X267580Y205000D03*
X262580Y205000D03*
X257580Y205000D03*
D18*
X250080Y197650D03*
X250080Y192500D03*
X250080Y187500D03*
X250080Y182500D03*
D19*
X265080Y190000D03*
D12*
X340080Y210000D03*
X330080Y210000D03*
D11*
X310360Y206510D02*
X310360Y213490D01*
X317340Y213490D01*
X317340Y206510D01*
X310360Y206510D01*
X310360Y211310D02*
X317340Y211310D01*
X292820Y213490D02*
X292820Y206510D01*
X292820Y213490D02*
X299800Y213490D01*
X299800Y206510D01*
X292820Y206510D01*
X292820Y211310D02*
X299800Y211310D01*
D12*
X235080Y195000D03*
X235080Y205000D03*
D20*
X400080Y64000D03*
X400080Y82000D03*
D21*
X427580Y12750D03*
X422580Y12750D03*
X417580Y12750D03*
X412580Y12750D03*
X407580Y12750D03*
X402580Y12750D03*
X397580Y12750D03*
X392580Y12750D03*
X387580Y12750D03*
X382580Y12750D03*
X377580Y12750D03*
X372580Y12750D03*
X347580Y12750D03*
X342580Y12750D03*
X337580Y12750D03*
X332580Y12750D03*
X327580Y12750D03*
X322580Y12750D03*
X317580Y12750D03*
X312580Y12750D03*
X307580Y12750D03*
X302580Y12750D03*
X297580Y12750D03*
X292580Y12750D03*
X287580Y12750D03*
X282580Y12750D03*
X277580Y12750D03*
X272580Y12750D03*
X267580Y12750D03*
X262580Y12750D03*
X257580Y12750D03*
X252580Y12750D03*
X247580Y12750D03*
X242580Y12750D03*
D22*
X375080Y220000D03*
D10*
X487925Y67750D03*
X487925Y74250D03*
X494425Y67750D03*
X494425Y74250D03*
X487925Y80750D03*
X487925Y87250D03*
X494425Y80750D03*
X494425Y87250D03*
X487925Y93750D03*
X487925Y100250D03*
X494425Y93750D03*
X494425Y100250D03*
X487925Y106750D03*
X487925Y113250D03*
X494425Y106750D03*
X494425Y113250D03*
X487925Y119750D03*
X494425Y119750D03*
X487925Y126250D03*
X487925Y132750D03*
X494425Y126250D03*
X494425Y132750D03*
X487925Y139250D03*
X487925Y145750D03*
X494425Y139250D03*
X494425Y145750D03*
X487925Y152250D03*
X494425Y152250D03*
X500925Y67750D03*
X507425Y67750D03*
X513925Y67750D03*
X520425Y67750D03*
X526925Y67750D03*
X533425Y67750D03*
X539925Y67750D03*
X546425Y67750D03*
X552925Y67750D03*
X559425Y67750D03*
X565925Y67750D03*
X572425Y67750D03*
X500925Y74250D03*
X507425Y74250D03*
X513925Y74250D03*
X520425Y74250D03*
X526925Y74250D03*
X533425Y74250D03*
X539925Y74250D03*
X546425Y74250D03*
X552925Y74250D03*
X559425Y74250D03*
X565925Y74250D03*
X572425Y74250D03*
X500925Y80750D03*
X507425Y80750D03*
X513925Y80750D03*
X520425Y80750D03*
X526925Y80750D03*
X533425Y80750D03*
X539925Y80750D03*
X546425Y80750D03*
X552925Y80750D03*
X559425Y80750D03*
X565925Y80750D03*
X572425Y80750D03*
X500925Y87250D03*
X507425Y87250D03*
X513925Y87250D03*
X520425Y87250D03*
X526925Y87250D03*
X533425Y87250D03*
X539925Y87250D03*
X546425Y87250D03*
X552925Y87250D03*
X559425Y87250D03*
X565925Y87250D03*
X572425Y87250D03*
X500925Y93750D03*
X507425Y93750D03*
X513925Y93750D03*
X520425Y93750D03*
X526925Y93750D03*
X533425Y93750D03*
X539925Y93750D03*
X546425Y93750D03*
X552925Y93750D03*
X559425Y93750D03*
X565925Y93750D03*
X572425Y93750D03*
X500925Y100250D03*
X507425Y100250D03*
X513925Y100250D03*
X520425Y100250D03*
X526925Y100250D03*
X533425Y100250D03*
X539925Y100250D03*
X546425Y100250D03*
X552925Y100250D03*
X559425Y100250D03*
X565925Y100250D03*
X572425Y100250D03*
X500925Y106750D03*
X507425Y106750D03*
X513925Y106750D03*
X520425Y106750D03*
X526925Y106750D03*
X533425Y106750D03*
X539925Y106750D03*
X546425Y106750D03*
X552925Y106750D03*
X559425Y106750D03*
X565925Y106750D03*
X572425Y106750D03*
X500925Y113250D03*
X507425Y113250D03*
X513925Y113250D03*
X520425Y113250D03*
X526925Y113250D03*
X533425Y113250D03*
X539925Y113250D03*
X546425Y113250D03*
X552925Y113250D03*
X559425Y113250D03*
X565925Y113250D03*
X572425Y113250D03*
X500925Y119750D03*
X507425Y119750D03*
X513925Y119750D03*
X520425Y119750D03*
X526925Y119750D03*
X533425Y119750D03*
X539925Y119750D03*
X546425Y119750D03*
X552925Y119750D03*
X559425Y119750D03*
X565925Y119750D03*
X572425Y119750D03*
X500925Y126250D03*
X507425Y126250D03*
X513925Y126250D03*
X520425Y126250D03*
X526925Y126250D03*
X533425Y126250D03*
X539925Y126250D03*
X546425Y126250D03*
X552925Y126250D03*
X559425Y126250D03*
X565925Y126250D03*
X572425Y126250D03*
X500925Y132750D03*
X507425Y132750D03*
X513925Y132750D03*
X520425Y132750D03*
X526925Y132750D03*
X533425Y132750D03*
X539925Y132750D03*
X546425Y132750D03*
X552925Y132750D03*
X559425Y132750D03*
X565925Y132750D03*
X572425Y132750D03*
X500925Y139250D03*
X507425Y139250D03*
X513925Y139250D03*
X520425Y139250D03*
X526925Y139250D03*
X533425Y139250D03*
X539925Y139250D03*
X546425Y139250D03*
X552925Y139250D03*
X559425Y139250D03*
X565925Y139250D03*
X572425Y139250D03*
X500925Y145750D03*
X507425Y145750D03*
X513925Y145750D03*
X520425Y145750D03*
X526925Y145750D03*
X533425Y145750D03*
X539925Y145750D03*
X546425Y145750D03*
X552925Y145750D03*
X559425Y145750D03*
X565925Y145750D03*
X572425Y145750D03*
X500925Y152250D03*
X507425Y152250D03*
X513925Y152250D03*
X520425Y152250D03*
X526925Y152250D03*
X533425Y152250D03*
X539925Y152250D03*
X546425Y152250D03*
X552925Y152250D03*
X559425Y152250D03*
X565925Y152250D03*
X572425Y152250D03*
D11*
X644895Y206510D02*
X644895Y213490D01*
X644895Y206510D02*
X637915Y206510D01*
X637915Y213490D01*
X644895Y213490D01*
X644895Y211310D02*
X637915Y211310D01*
X662435Y213490D02*
X662435Y206510D01*
X655455Y206510D01*
X655455Y213490D01*
X662435Y213490D01*
X662435Y211310D02*
X655455Y211310D01*
D12*
X660175Y105000D03*
X660175Y95000D03*
D13*
X626175Y152500D03*
X626175Y127500D03*
D14*
X606255Y85150D03*
X601255Y85150D03*
X596255Y85150D03*
X591255Y85150D03*
X596255Y58650D03*
X591255Y58650D03*
X601255Y58650D03*
X606255Y58650D03*
D12*
X640175Y155000D03*
X640175Y145000D03*
X640175Y125000D03*
X640175Y135000D03*
X588175Y145000D03*
X588175Y135000D03*
X596175Y120000D03*
X606175Y120000D03*
X596175Y159000D03*
X606175Y159000D03*
D15*
X596175Y133250D03*
X596175Y146750D03*
X606175Y146750D03*
X606175Y133250D03*
D12*
X460175Y185000D03*
X460175Y175000D03*
X632975Y101600D03*
X622975Y101600D03*
X632975Y114300D03*
X622975Y114300D03*
D16*
X660175Y50000D03*
X473175Y213000D03*
D17*
X482675Y175000D03*
X487675Y175000D03*
X492675Y175000D03*
X497675Y175000D03*
D18*
X505175Y182500D03*
X505175Y187500D03*
X505175Y192500D03*
X505175Y197500D03*
D17*
X497675Y205000D03*
X492675Y205000D03*
X487675Y205000D03*
X482675Y205000D03*
D18*
X475175Y197650D03*
X475175Y192500D03*
X475175Y187500D03*
X475175Y182500D03*
D19*
X490175Y190000D03*
D12*
X565175Y210000D03*
X555175Y210000D03*
D11*
X535455Y206510D02*
X535455Y213490D01*
X542435Y213490D01*
X542435Y206510D01*
X535455Y206510D01*
X535455Y211310D02*
X542435Y211310D01*
X517915Y213490D02*
X517915Y206510D01*
X517915Y213490D02*
X524895Y213490D01*
X524895Y206510D01*
X517915Y206510D01*
X517915Y211310D02*
X524895Y211310D01*
D12*
X460175Y195000D03*
X460175Y205000D03*
D20*
X625175Y64000D03*
X625175Y82000D03*
D21*
X652675Y12750D03*
X647675Y12750D03*
X642675Y12750D03*
X637675Y12750D03*
X632675Y12750D03*
X627675Y12750D03*
X622675Y12750D03*
X617675Y12750D03*
X612675Y12750D03*
X607675Y12750D03*
X602675Y12750D03*
X597675Y12750D03*
X572675Y12750D03*
X567675Y12750D03*
X562675Y12750D03*
X557675Y12750D03*
X552675Y12750D03*
X547675Y12750D03*
X542675Y12750D03*
X537675Y12750D03*
X532675Y12750D03*
X527675Y12750D03*
X522675Y12750D03*
X517675Y12750D03*
X512675Y12750D03*
X507675Y12750D03*
X502675Y12750D03*
X497675Y12750D03*
X492675Y12750D03*
X487675Y12750D03*
X482675Y12750D03*
X477675Y12750D03*
X472675Y12750D03*
X467675Y12750D03*
D22*
X600175Y220000D03*
D10*
X712994Y67750D03*
X712994Y74250D03*
X719494Y67750D03*
X719494Y74250D03*
X712994Y80750D03*
X712994Y87250D03*
X719494Y80750D03*
X719494Y87250D03*
X712994Y93750D03*
X712994Y100250D03*
X719494Y93750D03*
X719494Y100250D03*
X712994Y106750D03*
X712994Y113250D03*
X719494Y106750D03*
X719494Y113250D03*
X712994Y119750D03*
X719494Y119750D03*
X712994Y126250D03*
X712994Y132750D03*
X719494Y126250D03*
X719494Y132750D03*
X712994Y139250D03*
X712994Y145750D03*
X719494Y139250D03*
X719494Y145750D03*
X712994Y152250D03*
X719494Y152250D03*
X725994Y67750D03*
X732494Y67750D03*
X738994Y67750D03*
X745494Y67750D03*
X751994Y67750D03*
X758494Y67750D03*
X764994Y67750D03*
X771494Y67750D03*
X777994Y67750D03*
X784494Y67750D03*
X790994Y67750D03*
X797494Y67750D03*
X725994Y74250D03*
X732494Y74250D03*
X738994Y74250D03*
X745494Y74250D03*
X751994Y74250D03*
X758494Y74250D03*
X764994Y74250D03*
X771494Y74250D03*
X777994Y74250D03*
X784494Y74250D03*
X790994Y74250D03*
X797494Y74250D03*
X725994Y80750D03*
X732494Y80750D03*
X738994Y80750D03*
X745494Y80750D03*
X751994Y80750D03*
X758494Y80750D03*
X764994Y80750D03*
X771494Y80750D03*
X777994Y80750D03*
X784494Y80750D03*
X790994Y80750D03*
X797494Y80750D03*
X725994Y87250D03*
X732494Y87250D03*
X738994Y87250D03*
X745494Y87250D03*
X751994Y87250D03*
X758494Y87250D03*
X764994Y87250D03*
X771494Y87250D03*
X777994Y87250D03*
X784494Y87250D03*
X790994Y87250D03*
X797494Y87250D03*
X725994Y93750D03*
X732494Y93750D03*
X738994Y93750D03*
X745494Y93750D03*
X751994Y93750D03*
X758494Y93750D03*
X764994Y93750D03*
X771494Y93750D03*
X777994Y93750D03*
X784494Y93750D03*
X790994Y93750D03*
X797494Y93750D03*
X725994Y100250D03*
X732494Y100250D03*
X738994Y100250D03*
X745494Y100250D03*
X751994Y100250D03*
X758494Y100250D03*
X764994Y100250D03*
X771494Y100250D03*
X777994Y100250D03*
X784494Y100250D03*
X790994Y100250D03*
X797494Y100250D03*
X725994Y106750D03*
X732494Y106750D03*
X738994Y106750D03*
X745494Y106750D03*
X751994Y106750D03*
X758494Y106750D03*
X764994Y106750D03*
X771494Y106750D03*
X777994Y106750D03*
X784494Y106750D03*
X790994Y106750D03*
X797494Y106750D03*
X725994Y113250D03*
X732494Y113250D03*
X738994Y113250D03*
X745494Y113250D03*
X751994Y113250D03*
X758494Y113250D03*
X764994Y113250D03*
X771494Y113250D03*
X777994Y113250D03*
X784494Y113250D03*
X790994Y113250D03*
X797494Y113250D03*
X725994Y119750D03*
X732494Y119750D03*
X738994Y119750D03*
X745494Y119750D03*
X751994Y119750D03*
X758494Y119750D03*
X764994Y119750D03*
X771494Y119750D03*
X777994Y119750D03*
X784494Y119750D03*
X790994Y119750D03*
X797494Y119750D03*
X725994Y126250D03*
X732494Y126250D03*
X738994Y126250D03*
X745494Y126250D03*
X751994Y126250D03*
X758494Y126250D03*
X764994Y126250D03*
X771494Y126250D03*
X777994Y126250D03*
X784494Y126250D03*
X790994Y126250D03*
X797494Y126250D03*
X725994Y132750D03*
X732494Y132750D03*
X738994Y132750D03*
X745494Y132750D03*
X751994Y132750D03*
X758494Y132750D03*
X764994Y132750D03*
X771494Y132750D03*
X777994Y132750D03*
X784494Y132750D03*
X790994Y132750D03*
X797494Y132750D03*
X725994Y139250D03*
X732494Y139250D03*
X738994Y139250D03*
X745494Y139250D03*
X751994Y139250D03*
X758494Y139250D03*
X764994Y139250D03*
X771494Y139250D03*
X777994Y139250D03*
X784494Y139250D03*
X790994Y139250D03*
X797494Y139250D03*
X725994Y145750D03*
X732494Y145750D03*
X738994Y145750D03*
X745494Y145750D03*
X751994Y145750D03*
X758494Y145750D03*
X764994Y145750D03*
X771494Y145750D03*
X777994Y145750D03*
X784494Y145750D03*
X790994Y145750D03*
X797494Y145750D03*
X725994Y152250D03*
X732494Y152250D03*
X738994Y152250D03*
X745494Y152250D03*
X751994Y152250D03*
X758494Y152250D03*
X764994Y152250D03*
X771494Y152250D03*
X777994Y152250D03*
X784494Y152250D03*
X790994Y152250D03*
X797494Y152250D03*
D11*
X869964Y206510D02*
X869964Y213490D01*
X869964Y206510D02*
X862984Y206510D01*
X862984Y213490D01*
X869964Y213490D01*
X869964Y211310D02*
X862984Y211310D01*
X887504Y213490D02*
X887504Y206510D01*
X880524Y206510D01*
X880524Y213490D01*
X887504Y213490D01*
X887504Y211310D02*
X880524Y211310D01*
D12*
X885244Y105000D03*
X885244Y95000D03*
D13*
X851244Y152500D03*
X851244Y127500D03*
D14*
X831324Y85150D03*
X826324Y85150D03*
X821324Y85150D03*
X816324Y85150D03*
X821324Y58650D03*
X816324Y58650D03*
X826324Y58650D03*
X831324Y58650D03*
D12*
X865244Y155000D03*
X865244Y145000D03*
X865244Y125000D03*
X865244Y135000D03*
X813244Y145000D03*
X813244Y135000D03*
X821244Y120000D03*
X831244Y120000D03*
X821244Y159000D03*
X831244Y159000D03*
D15*
X821244Y133250D03*
X821244Y146750D03*
X831244Y146750D03*
X831244Y133250D03*
D12*
X685244Y185000D03*
X685244Y175000D03*
X858044Y101600D03*
X848044Y101600D03*
X858044Y114300D03*
X848044Y114300D03*
D16*
X885244Y50000D03*
X698244Y213000D03*
D17*
X707744Y175000D03*
X712744Y175000D03*
X717744Y175000D03*
X722744Y175000D03*
D18*
X730244Y182500D03*
X730244Y187500D03*
X730244Y192500D03*
X730244Y197500D03*
D17*
X722744Y205000D03*
X717744Y205000D03*
X712744Y205000D03*
X707744Y205000D03*
D18*
X700244Y197650D03*
X700244Y192500D03*
X700244Y187500D03*
X700244Y182500D03*
D19*
X715244Y190000D03*
D12*
X790244Y210000D03*
X780244Y210000D03*
D11*
X760524Y206510D02*
X760524Y213490D01*
X767504Y213490D01*
X767504Y206510D01*
X760524Y206510D01*
X760524Y211310D02*
X767504Y211310D01*
X742984Y213490D02*
X742984Y206510D01*
X742984Y213490D02*
X749964Y213490D01*
X749964Y206510D01*
X742984Y206510D01*
X742984Y211310D02*
X749964Y211310D01*
D12*
X685244Y195000D03*
X685244Y205000D03*
D20*
X850244Y64000D03*
X850244Y82000D03*
D21*
X877744Y12750D03*
X872744Y12750D03*
X867744Y12750D03*
X862744Y12750D03*
X857744Y12750D03*
X852744Y12750D03*
X847744Y12750D03*
X842744Y12750D03*
X837744Y12750D03*
X832744Y12750D03*
X827744Y12750D03*
X822744Y12750D03*
X797744Y12750D03*
X792744Y12750D03*
X787744Y12750D03*
X782744Y12750D03*
X777744Y12750D03*
X772744Y12750D03*
X767744Y12750D03*
X762744Y12750D03*
X757744Y12750D03*
X752744Y12750D03*
X747744Y12750D03*
X742744Y12750D03*
X737744Y12750D03*
X732744Y12750D03*
X727744Y12750D03*
X722744Y12750D03*
X717744Y12750D03*
X712744Y12750D03*
X707744Y12750D03*
X702744Y12750D03*
X697744Y12750D03*
X692744Y12750D03*
D22*
X825244Y220000D03*
D10*
X938089Y67750D03*
X938089Y74250D03*
X944589Y67750D03*
X944589Y74250D03*
X938089Y80750D03*
X938089Y87250D03*
X944589Y80750D03*
X944589Y87250D03*
X938089Y93750D03*
X938089Y100250D03*
X944589Y93750D03*
X944589Y100250D03*
X938089Y106750D03*
X938089Y113250D03*
X944589Y106750D03*
X944589Y113250D03*
X938089Y119750D03*
X944589Y119750D03*
X938089Y126250D03*
X938089Y132750D03*
X944589Y126250D03*
X944589Y132750D03*
X938089Y139250D03*
X938089Y145750D03*
X944589Y139250D03*
X944589Y145750D03*
X938089Y152250D03*
X944589Y152250D03*
X951089Y67750D03*
X957589Y67750D03*
X964089Y67750D03*
X970589Y67750D03*
X977089Y67750D03*
X983589Y67750D03*
X990089Y67750D03*
X996589Y67750D03*
X1003089Y67750D03*
X1009589Y67750D03*
X1016089Y67750D03*
X1022589Y67750D03*
X951089Y74250D03*
X957589Y74250D03*
X964089Y74250D03*
X970589Y74250D03*
X977089Y74250D03*
X983589Y74250D03*
X990089Y74250D03*
X996589Y74250D03*
X1003089Y74250D03*
X1009589Y74250D03*
X1016089Y74250D03*
X1022589Y74250D03*
X951089Y80750D03*
X957589Y80750D03*
X964089Y80750D03*
X970589Y80750D03*
X977089Y80750D03*
X983589Y80750D03*
X990089Y80750D03*
X996589Y80750D03*
X1003089Y80750D03*
X1009589Y80750D03*
X1016089Y80750D03*
X1022589Y80750D03*
X951089Y87250D03*
X957589Y87250D03*
X964089Y87250D03*
X970589Y87250D03*
X977089Y87250D03*
X983589Y87250D03*
X990089Y87250D03*
X996589Y87250D03*
X1003089Y87250D03*
X1009589Y87250D03*
X1016089Y87250D03*
X1022589Y87250D03*
X951089Y93750D03*
X957589Y93750D03*
X964089Y93750D03*
X970589Y93750D03*
X977089Y93750D03*
X983589Y93750D03*
X990089Y93750D03*
X996589Y93750D03*
X1003089Y93750D03*
X1009589Y93750D03*
X1016089Y93750D03*
X1022589Y93750D03*
X951089Y100250D03*
X957589Y100250D03*
X964089Y100250D03*
X970589Y100250D03*
X977089Y100250D03*
X983589Y100250D03*
X990089Y100250D03*
X996589Y100250D03*
X1003089Y100250D03*
X1009589Y100250D03*
X1016089Y100250D03*
X1022589Y100250D03*
X951089Y106750D03*
X957589Y106750D03*
X964089Y106750D03*
X970589Y106750D03*
X977089Y106750D03*
X983589Y106750D03*
X990089Y106750D03*
X996589Y106750D03*
X1003089Y106750D03*
X1009589Y106750D03*
X1016089Y106750D03*
X1022589Y106750D03*
X951089Y113250D03*
X957589Y113250D03*
X964089Y113250D03*
X970589Y113250D03*
X977089Y113250D03*
X983589Y113250D03*
X990089Y113250D03*
X996589Y113250D03*
X1003089Y113250D03*
X1009589Y113250D03*
X1016089Y113250D03*
X1022589Y113250D03*
X951089Y119750D03*
X957589Y119750D03*
X964089Y119750D03*
X970589Y119750D03*
X977089Y119750D03*
X983589Y119750D03*
X990089Y119750D03*
X996589Y119750D03*
X1003089Y119750D03*
X1009589Y119750D03*
X1016089Y119750D03*
X1022589Y119750D03*
X951089Y126250D03*
X957589Y126250D03*
X964089Y126250D03*
X970589Y126250D03*
X977089Y126250D03*
X983589Y126250D03*
X990089Y126250D03*
X996589Y126250D03*
X1003089Y126250D03*
X1009589Y126250D03*
X1016089Y126250D03*
X1022589Y126250D03*
X951089Y132750D03*
X957589Y132750D03*
X964089Y132750D03*
X970589Y132750D03*
X977089Y132750D03*
X983589Y132750D03*
X990089Y132750D03*
X996589Y132750D03*
X1003089Y132750D03*
X1009589Y132750D03*
X1016089Y132750D03*
X1022589Y132750D03*
X951089Y139250D03*
X957589Y139250D03*
X964089Y139250D03*
X970589Y139250D03*
X977089Y139250D03*
X983589Y139250D03*
X990089Y139250D03*
X996589Y139250D03*
X1003089Y139250D03*
X1009589Y139250D03*
X1016089Y139250D03*
X1022589Y139250D03*
X951089Y145750D03*
X957589Y145750D03*
X964089Y145750D03*
X970589Y145750D03*
X977089Y145750D03*
X983589Y145750D03*
X990089Y145750D03*
X996589Y145750D03*
X1003089Y145750D03*
X1009589Y145750D03*
X1016089Y145750D03*
X1022589Y145750D03*
X951089Y152250D03*
X957589Y152250D03*
X964089Y152250D03*
X970589Y152250D03*
X977089Y152250D03*
X983589Y152250D03*
X990089Y152250D03*
X996589Y152250D03*
X1003089Y152250D03*
X1009589Y152250D03*
X1016089Y152250D03*
X1022589Y152250D03*
D11*
X1095059Y206510D02*
X1095059Y213490D01*
X1095059Y206510D02*
X1088079Y206510D01*
X1088079Y213490D01*
X1095059Y213490D01*
X1095059Y211310D02*
X1088079Y211310D01*
X1112599Y213490D02*
X1112599Y206510D01*
X1105619Y206510D01*
X1105619Y213490D01*
X1112599Y213490D01*
X1112599Y211310D02*
X1105619Y211310D01*
D12*
X1110339Y105000D03*
X1110339Y95000D03*
D13*
X1076339Y152500D03*
X1076339Y127500D03*
D14*
X1056419Y85150D03*
X1051419Y85150D03*
X1046419Y85150D03*
X1041419Y85150D03*
X1046419Y58650D03*
X1041419Y58650D03*
X1051419Y58650D03*
X1056419Y58650D03*
D12*
X1090339Y155000D03*
X1090339Y145000D03*
X1090339Y125000D03*
X1090339Y135000D03*
X1038339Y145000D03*
X1038339Y135000D03*
X1046339Y120000D03*
X1056339Y120000D03*
X1046339Y159000D03*
X1056339Y159000D03*
D15*
X1046339Y133250D03*
X1046339Y146750D03*
X1056339Y146750D03*
X1056339Y133250D03*
D12*
X910339Y185000D03*
X910339Y175000D03*
X1083139Y101600D03*
X1073139Y101600D03*
X1083139Y114300D03*
X1073139Y114300D03*
D16*
X1110339Y50000D03*
X923339Y213000D03*
D17*
X932839Y175000D03*
X937839Y175000D03*
X942839Y175000D03*
X947839Y175000D03*
D18*
X955339Y182500D03*
X955339Y187500D03*
X955339Y192500D03*
X955339Y197500D03*
D17*
X947839Y205000D03*
X942839Y205000D03*
X937839Y205000D03*
X932839Y205000D03*
D18*
X925339Y197650D03*
X925339Y192500D03*
X925339Y187500D03*
X925339Y182500D03*
D19*
X940339Y190000D03*
D12*
X1015339Y210000D03*
X1005339Y210000D03*
D11*
X985619Y206510D02*
X985619Y213490D01*
X992599Y213490D01*
X992599Y206510D01*
X985619Y206510D01*
X985619Y211310D02*
X992599Y211310D01*
X968079Y213490D02*
X968079Y206510D01*
X968079Y213490D02*
X975059Y213490D01*
X975059Y206510D01*
X968079Y206510D01*
X968079Y211310D02*
X975059Y211310D01*
D12*
X910339Y195000D03*
X910339Y205000D03*
D20*
X1075339Y64000D03*
X1075339Y82000D03*
D21*
X1102839Y12750D03*
X1097839Y12750D03*
X1092839Y12750D03*
X1087839Y12750D03*
X1082839Y12750D03*
X1077839Y12750D03*
X1072839Y12750D03*
X1067839Y12750D03*
X1062839Y12750D03*
X1057839Y12750D03*
X1052839Y12750D03*
X1047839Y12750D03*
X1022839Y12750D03*
X1017839Y12750D03*
X1012839Y12750D03*
X1007839Y12750D03*
X1002839Y12750D03*
X997839Y12750D03*
X992839Y12750D03*
X987839Y12750D03*
X982839Y12750D03*
X977839Y12750D03*
X972839Y12750D03*
X967839Y12750D03*
X962839Y12750D03*
X957839Y12750D03*
X952839Y12750D03*
X947839Y12750D03*
X942839Y12750D03*
X937839Y12750D03*
X932839Y12750D03*
X927839Y12750D03*
X922839Y12750D03*
X917839Y12750D03*
D22*
X1050339Y220000D03*
D10*
X1163158Y67750D03*
X1163158Y74250D03*
X1169658Y67750D03*
X1169658Y74250D03*
X1163158Y80750D03*
X1163158Y87250D03*
X1169658Y80750D03*
X1169658Y87250D03*
X1163158Y93750D03*
X1163158Y100250D03*
X1169658Y93750D03*
X1169658Y100250D03*
X1163158Y106750D03*
X1163158Y113250D03*
X1169658Y106750D03*
X1169658Y113250D03*
X1163158Y119750D03*
X1169658Y119750D03*
X1163158Y126250D03*
X1163158Y132750D03*
X1169658Y126250D03*
X1169658Y132750D03*
X1163158Y139250D03*
X1163158Y145750D03*
X1169658Y139250D03*
X1169658Y145750D03*
X1163158Y152250D03*
X1169658Y152250D03*
X1176158Y67750D03*
X1182658Y67750D03*
X1189158Y67750D03*
X1195658Y67750D03*
X1202158Y67750D03*
X1208658Y67750D03*
X1215158Y67750D03*
X1221658Y67750D03*
X1228158Y67750D03*
X1234658Y67750D03*
X1241158Y67750D03*
X1247658Y67750D03*
X1176158Y74250D03*
X1182658Y74250D03*
X1189158Y74250D03*
X1195658Y74250D03*
X1202158Y74250D03*
X1208658Y74250D03*
X1215158Y74250D03*
X1221658Y74250D03*
X1228158Y74250D03*
X1234658Y74250D03*
X1241158Y74250D03*
X1247658Y74250D03*
X1176158Y80750D03*
X1182658Y80750D03*
X1189158Y80750D03*
X1195658Y80750D03*
X1202158Y80750D03*
X1208658Y80750D03*
X1215158Y80750D03*
X1221658Y80750D03*
X1228158Y80750D03*
X1234658Y80750D03*
X1241158Y80750D03*
X1247658Y80750D03*
X1176158Y87250D03*
X1182658Y87250D03*
X1189158Y87250D03*
X1195658Y87250D03*
X1202158Y87250D03*
X1208658Y87250D03*
X1215158Y87250D03*
X1221658Y87250D03*
X1228158Y87250D03*
X1234658Y87250D03*
X1241158Y87250D03*
X1247658Y87250D03*
X1176158Y93750D03*
X1182658Y93750D03*
X1189158Y93750D03*
X1195658Y93750D03*
X1202158Y93750D03*
X1208658Y93750D03*
X1215158Y93750D03*
X1221658Y93750D03*
X1228158Y93750D03*
X1234658Y93750D03*
X1241158Y93750D03*
X1247658Y93750D03*
X1176158Y100250D03*
X1182658Y100250D03*
X1189158Y100250D03*
X1195658Y100250D03*
X1202158Y100250D03*
X1208658Y100250D03*
X1215158Y100250D03*
X1221658Y100250D03*
X1228158Y100250D03*
X1234658Y100250D03*
X1241158Y100250D03*
X1247658Y100250D03*
X1176158Y106750D03*
X1182658Y106750D03*
X1189158Y106750D03*
X1195658Y106750D03*
X1202158Y106750D03*
X1208658Y106750D03*
X1215158Y106750D03*
X1221658Y106750D03*
X1228158Y106750D03*
X1234658Y106750D03*
X1241158Y106750D03*
X1247658Y106750D03*
X1176158Y113250D03*
X1182658Y113250D03*
X1189158Y113250D03*
X1195658Y113250D03*
X1202158Y113250D03*
X1208658Y113250D03*
X1215158Y113250D03*
X1221658Y113250D03*
X1228158Y113250D03*
X1234658Y113250D03*
X1241158Y113250D03*
X1247658Y113250D03*
X1176158Y119750D03*
X1182658Y119750D03*
X1189158Y119750D03*
X1195658Y119750D03*
X1202158Y119750D03*
X1208658Y119750D03*
X1215158Y119750D03*
X1221658Y119750D03*
X1228158Y119750D03*
X1234658Y119750D03*
X1241158Y119750D03*
X1247658Y119750D03*
X1176158Y126250D03*
X1182658Y126250D03*
X1189158Y126250D03*
X1195658Y126250D03*
X1202158Y126250D03*
X1208658Y126250D03*
X1215158Y126250D03*
X1221658Y126250D03*
X1228158Y126250D03*
X1234658Y126250D03*
X1241158Y126250D03*
X1247658Y126250D03*
X1176158Y132750D03*
X1182658Y132750D03*
X1189158Y132750D03*
X1195658Y132750D03*
X1202158Y132750D03*
X1208658Y132750D03*
X1215158Y132750D03*
X1221658Y132750D03*
X1228158Y132750D03*
X1234658Y132750D03*
X1241158Y132750D03*
X1247658Y132750D03*
X1176158Y139250D03*
X1182658Y139250D03*
X1189158Y139250D03*
X1195658Y139250D03*
X1202158Y139250D03*
X1208658Y139250D03*
X1215158Y139250D03*
X1221658Y139250D03*
X1228158Y139250D03*
X1234658Y139250D03*
X1241158Y139250D03*
X1247658Y139250D03*
X1176158Y145750D03*
X1182658Y145750D03*
X1189158Y145750D03*
X1195658Y145750D03*
X1202158Y145750D03*
X1208658Y145750D03*
X1215158Y145750D03*
X1221658Y145750D03*
X1228158Y145750D03*
X1234658Y145750D03*
X1241158Y145750D03*
X1247658Y145750D03*
X1176158Y152250D03*
X1182658Y152250D03*
X1189158Y152250D03*
X1195658Y152250D03*
X1202158Y152250D03*
X1208658Y152250D03*
X1215158Y152250D03*
X1221658Y152250D03*
X1228158Y152250D03*
X1234658Y152250D03*
X1241158Y152250D03*
X1247658Y152250D03*
D11*
X1320128Y206510D02*
X1320128Y213490D01*
X1320128Y206510D02*
X1313148Y206510D01*
X1313148Y213490D01*
X1320128Y213490D01*
X1320128Y211310D02*
X1313148Y211310D01*
X1337668Y213490D02*
X1337668Y206510D01*
X1330688Y206510D01*
X1330688Y213490D01*
X1337668Y213490D01*
X1337668Y211310D02*
X1330688Y211310D01*
D12*
X1335408Y105000D03*
X1335408Y95000D03*
D13*
X1301408Y152500D03*
X1301408Y127500D03*
D14*
X1281488Y85150D03*
X1276488Y85150D03*
X1271488Y85150D03*
X1266488Y85150D03*
X1271488Y58650D03*
X1266488Y58650D03*
X1276488Y58650D03*
X1281488Y58650D03*
D12*
X1315408Y155000D03*
X1315408Y145000D03*
X1315408Y125000D03*
X1315408Y135000D03*
X1263408Y145000D03*
X1263408Y135000D03*
X1271408Y120000D03*
X1281408Y120000D03*
X1271408Y159000D03*
X1281408Y159000D03*
D15*
X1271408Y133250D03*
X1271408Y146750D03*
X1281408Y146750D03*
X1281408Y133250D03*
D12*
X1135408Y185000D03*
X1135408Y175000D03*
X1308208Y101600D03*
X1298208Y101600D03*
X1308208Y114300D03*
X1298208Y114300D03*
D16*
X1335408Y50000D03*
X1148408Y213000D03*
D17*
X1157908Y175000D03*
X1162908Y175000D03*
X1167908Y175000D03*
X1172908Y175000D03*
D18*
X1180408Y182500D03*
X1180408Y187500D03*
X1180408Y192500D03*
X1180408Y197500D03*
D17*
X1172908Y205000D03*
X1167908Y205000D03*
X1162908Y205000D03*
X1157908Y205000D03*
D18*
X1150408Y197650D03*
X1150408Y192500D03*
X1150408Y187500D03*
X1150408Y182500D03*
D19*
X1165408Y190000D03*
D12*
X1240408Y210000D03*
X1230408Y210000D03*
D11*
X1210688Y206510D02*
X1210688Y213490D01*
X1217668Y213490D01*
X1217668Y206510D01*
X1210688Y206510D01*
X1210688Y211310D02*
X1217668Y211310D01*
X1193148Y213490D02*
X1193148Y206510D01*
X1193148Y213490D02*
X1200128Y213490D01*
X1200128Y206510D01*
X1193148Y206510D01*
X1193148Y211310D02*
X1200128Y211310D01*
D12*
X1135408Y195000D03*
X1135408Y205000D03*
D20*
X1300408Y64000D03*
X1300408Y82000D03*
D21*
X1327908Y12750D03*
X1322908Y12750D03*
X1317908Y12750D03*
X1312908Y12750D03*
X1307908Y12750D03*
X1302908Y12750D03*
X1297908Y12750D03*
X1292908Y12750D03*
X1287908Y12750D03*
X1282908Y12750D03*
X1277908Y12750D03*
X1272908Y12750D03*
X1247908Y12750D03*
X1242908Y12750D03*
X1237908Y12750D03*
X1232908Y12750D03*
X1227908Y12750D03*
X1222908Y12750D03*
X1217908Y12750D03*
X1212908Y12750D03*
X1207908Y12750D03*
X1202908Y12750D03*
X1197908Y12750D03*
X1192908Y12750D03*
X1187908Y12750D03*
X1182908Y12750D03*
X1177908Y12750D03*
X1172908Y12750D03*
X1167908Y12750D03*
X1162908Y12750D03*
X1157908Y12750D03*
X1152908Y12750D03*
X1147908Y12750D03*
X1142908Y12750D03*
D22*
X1275408Y220000D03*
D10*
X1388253Y67750D03*
X1388253Y74250D03*
X1394753Y67750D03*
X1394753Y74250D03*
X1388253Y80750D03*
X1388253Y87250D03*
X1394753Y80750D03*
X1394753Y87250D03*
X1388253Y93750D03*
X1388253Y100250D03*
X1394753Y93750D03*
X1394753Y100250D03*
X1388253Y106750D03*
X1388253Y113250D03*
X1394753Y106750D03*
X1394753Y113250D03*
X1388253Y119750D03*
X1394753Y119750D03*
X1388253Y126250D03*
X1388253Y132750D03*
X1394753Y126250D03*
X1394753Y132750D03*
X1388253Y139250D03*
X1388253Y145750D03*
X1394753Y139250D03*
X1394753Y145750D03*
X1388253Y152250D03*
X1394753Y152250D03*
X1401253Y67750D03*
X1407753Y67750D03*
X1414253Y67750D03*
X1420753Y67750D03*
X1427253Y67750D03*
X1433753Y67750D03*
X1440253Y67750D03*
X1446753Y67750D03*
X1453253Y67750D03*
X1459753Y67750D03*
X1466253Y67750D03*
X1472753Y67750D03*
X1401253Y74250D03*
X1407753Y74250D03*
X1414253Y74250D03*
X1420753Y74250D03*
X1427253Y74250D03*
X1433753Y74250D03*
X1440253Y74250D03*
X1446753Y74250D03*
X1453253Y74250D03*
X1459753Y74250D03*
X1466253Y74250D03*
X1472753Y74250D03*
X1401253Y80750D03*
X1407753Y80750D03*
X1414253Y80750D03*
X1420753Y80750D03*
X1427253Y80750D03*
X1433753Y80750D03*
X1440253Y80750D03*
X1446753Y80750D03*
X1453253Y80750D03*
X1459753Y80750D03*
X1466253Y80750D03*
X1472753Y80750D03*
X1401253Y87250D03*
X1407753Y87250D03*
X1414253Y87250D03*
X1420753Y87250D03*
X1427253Y87250D03*
X1433753Y87250D03*
X1440253Y87250D03*
X1446753Y87250D03*
X1453253Y87250D03*
X1459753Y87250D03*
X1466253Y87250D03*
X1472753Y87250D03*
X1401253Y93750D03*
X1407753Y93750D03*
X1414253Y93750D03*
X1420753Y93750D03*
X1427253Y93750D03*
X1433753Y93750D03*
X1440253Y93750D03*
X1446753Y93750D03*
X1453253Y93750D03*
X1459753Y93750D03*
X1466253Y93750D03*
X1472753Y93750D03*
X1401253Y100250D03*
X1407753Y100250D03*
X1414253Y100250D03*
X1420753Y100250D03*
X1427253Y100250D03*
X1433753Y100250D03*
X1440253Y100250D03*
X1446753Y100250D03*
X1453253Y100250D03*
X1459753Y100250D03*
X1466253Y100250D03*
X1472753Y100250D03*
X1401253Y106750D03*
X1407753Y106750D03*
X1414253Y106750D03*
X1420753Y106750D03*
X1427253Y106750D03*
X1433753Y106750D03*
X1440253Y106750D03*
X1446753Y106750D03*
X1453253Y106750D03*
X1459753Y106750D03*
X1466253Y106750D03*
X1472753Y106750D03*
X1401253Y113250D03*
X1407753Y113250D03*
X1414253Y113250D03*
X1420753Y113250D03*
X1427253Y113250D03*
X1433753Y113250D03*
X1440253Y113250D03*
X1446753Y113250D03*
X1453253Y113250D03*
X1459753Y113250D03*
X1466253Y113250D03*
X1472753Y113250D03*
X1401253Y119750D03*
X1407753Y119750D03*
X1414253Y119750D03*
X1420753Y119750D03*
X1427253Y119750D03*
X1433753Y119750D03*
X1440253Y119750D03*
X1446753Y119750D03*
X1453253Y119750D03*
X1459753Y119750D03*
X1466253Y119750D03*
X1472753Y119750D03*
X1401253Y126250D03*
X1407753Y126250D03*
X1414253Y126250D03*
X1420753Y126250D03*
X1427253Y126250D03*
X1433753Y126250D03*
X1440253Y126250D03*
X1446753Y126250D03*
X1453253Y126250D03*
X1459753Y126250D03*
X1466253Y126250D03*
X1472753Y126250D03*
X1401253Y132750D03*
X1407753Y132750D03*
X1414253Y132750D03*
X1420753Y132750D03*
X1427253Y132750D03*
X1433753Y132750D03*
X1440253Y132750D03*
X1446753Y132750D03*
X1453253Y132750D03*
X1459753Y132750D03*
X1466253Y132750D03*
X1472753Y132750D03*
X1401253Y139250D03*
X1407753Y139250D03*
X1414253Y139250D03*
X1420753Y139250D03*
X1427253Y139250D03*
X1433753Y139250D03*
X1440253Y139250D03*
X1446753Y139250D03*
X1453253Y139250D03*
X1459753Y139250D03*
X1466253Y139250D03*
X1472753Y139250D03*
X1401253Y145750D03*
X1407753Y145750D03*
X1414253Y145750D03*
X1420753Y145750D03*
X1427253Y145750D03*
X1433753Y145750D03*
X1440253Y145750D03*
X1446753Y145750D03*
X1453253Y145750D03*
X1459753Y145750D03*
X1466253Y145750D03*
X1472753Y145750D03*
X1401253Y152250D03*
X1407753Y152250D03*
X1414253Y152250D03*
X1420753Y152250D03*
X1427253Y152250D03*
X1433753Y152250D03*
X1440253Y152250D03*
X1446753Y152250D03*
X1453253Y152250D03*
X1459753Y152250D03*
X1466253Y152250D03*
X1472753Y152250D03*
D11*
X1545223Y206510D02*
X1545223Y213490D01*
X1545223Y206510D02*
X1538243Y206510D01*
X1538243Y213490D01*
X1545223Y213490D01*
X1545223Y211310D02*
X1538243Y211310D01*
X1562763Y213490D02*
X1562763Y206510D01*
X1555783Y206510D01*
X1555783Y213490D01*
X1562763Y213490D01*
X1562763Y211310D02*
X1555783Y211310D01*
D12*
X1560503Y105000D03*
X1560503Y95000D03*
D13*
X1526503Y152500D03*
X1526503Y127500D03*
D14*
X1506583Y85150D03*
X1501583Y85150D03*
X1496583Y85150D03*
X1491583Y85150D03*
X1496583Y58650D03*
X1491583Y58650D03*
X1501583Y58650D03*
X1506583Y58650D03*
D12*
X1540503Y155000D03*
X1540503Y145000D03*
X1540503Y125000D03*
X1540503Y135000D03*
X1488503Y145000D03*
X1488503Y135000D03*
X1496503Y120000D03*
X1506503Y120000D03*
X1496503Y159000D03*
X1506503Y159000D03*
D15*
X1496503Y133250D03*
X1496503Y146750D03*
X1506503Y146750D03*
X1506503Y133250D03*
D12*
X1360503Y185000D03*
X1360503Y175000D03*
X1533303Y101600D03*
X1523303Y101600D03*
X1533303Y114300D03*
X1523303Y114300D03*
D16*
X1560503Y50000D03*
X1373503Y213000D03*
D17*
X1383003Y175000D03*
X1388003Y175000D03*
X1393003Y175000D03*
X1398003Y175000D03*
D18*
X1405503Y182500D03*
X1405503Y187500D03*
X1405503Y192500D03*
X1405503Y197500D03*
D17*
X1398003Y205000D03*
X1393003Y205000D03*
X1388003Y205000D03*
X1383003Y205000D03*
D18*
X1375503Y197650D03*
X1375503Y192500D03*
X1375503Y187500D03*
X1375503Y182500D03*
D19*
X1390503Y190000D03*
D12*
X1465503Y210000D03*
X1455503Y210000D03*
D11*
X1435783Y206510D02*
X1435783Y213490D01*
X1442763Y213490D01*
X1442763Y206510D01*
X1435783Y206510D01*
X1435783Y211310D02*
X1442763Y211310D01*
X1418243Y213490D02*
X1418243Y206510D01*
X1418243Y213490D02*
X1425223Y213490D01*
X1425223Y206510D01*
X1418243Y206510D01*
X1418243Y211310D02*
X1425223Y211310D01*
D12*
X1360503Y195000D03*
X1360503Y205000D03*
D20*
X1525503Y64000D03*
X1525503Y82000D03*
D21*
X1553003Y12750D03*
X1548003Y12750D03*
X1543003Y12750D03*
X1538003Y12750D03*
X1533003Y12750D03*
X1528003Y12750D03*
X1523003Y12750D03*
X1518003Y12750D03*
X1513003Y12750D03*
X1508003Y12750D03*
X1503003Y12750D03*
X1498003Y12750D03*
X1473003Y12750D03*
X1468003Y12750D03*
X1463003Y12750D03*
X1458003Y12750D03*
X1453003Y12750D03*
X1448003Y12750D03*
X1443003Y12750D03*
X1438003Y12750D03*
X1433003Y12750D03*
X1428003Y12750D03*
X1423003Y12750D03*
X1418003Y12750D03*
X1413003Y12750D03*
X1408003Y12750D03*
X1403003Y12750D03*
X1398003Y12750D03*
X1393003Y12750D03*
X1388003Y12750D03*
X1383003Y12750D03*
X1378003Y12750D03*
X1373003Y12750D03*
X1368003Y12750D03*
D22*
X1500503Y220000D03*
D10*
X1613323Y67750D03*
X1613323Y74250D03*
X1619823Y67750D03*
X1619823Y74250D03*
X1613323Y80750D03*
X1613323Y87250D03*
X1619823Y80750D03*
X1619823Y87250D03*
X1613323Y93750D03*
X1613323Y100250D03*
X1619823Y93750D03*
X1619823Y100250D03*
X1613323Y106750D03*
X1613323Y113250D03*
X1619823Y106750D03*
X1619823Y113250D03*
X1613323Y119750D03*
X1619823Y119750D03*
X1613323Y126250D03*
X1613323Y132750D03*
X1619823Y126250D03*
X1619823Y132750D03*
X1613323Y139250D03*
X1613323Y145750D03*
X1619823Y139250D03*
X1619823Y145750D03*
X1613323Y152250D03*
X1619823Y152250D03*
X1626323Y67750D03*
X1632823Y67750D03*
X1639323Y67750D03*
X1645823Y67750D03*
X1652323Y67750D03*
X1658823Y67750D03*
X1665323Y67750D03*
X1671823Y67750D03*
X1678323Y67750D03*
X1684823Y67750D03*
X1691323Y67750D03*
X1697823Y67750D03*
X1626323Y74250D03*
X1632823Y74250D03*
X1639323Y74250D03*
X1645823Y74250D03*
X1652323Y74250D03*
X1658823Y74250D03*
X1665323Y74250D03*
X1671823Y74250D03*
X1678323Y74250D03*
X1684823Y74250D03*
X1691323Y74250D03*
X1697823Y74250D03*
X1626323Y80750D03*
X1632823Y80750D03*
X1639323Y80750D03*
X1645823Y80750D03*
X1652323Y80750D03*
X1658823Y80750D03*
X1665323Y80750D03*
X1671823Y80750D03*
X1678323Y80750D03*
X1684823Y80750D03*
X1691323Y80750D03*
X1697823Y80750D03*
X1626323Y87250D03*
X1632823Y87250D03*
X1639323Y87250D03*
X1645823Y87250D03*
X1652323Y87250D03*
X1658823Y87250D03*
X1665323Y87250D03*
X1671823Y87250D03*
X1678323Y87250D03*
X1684823Y87250D03*
X1691323Y87250D03*
X1697823Y87250D03*
X1626323Y93750D03*
X1632823Y93750D03*
X1639323Y93750D03*
X1645823Y93750D03*
X1652323Y93750D03*
X1658823Y93750D03*
X1665323Y93750D03*
X1671823Y93750D03*
X1678323Y93750D03*
X1684823Y93750D03*
X1691323Y93750D03*
X1697823Y93750D03*
X1626323Y100250D03*
X1632823Y100250D03*
X1639323Y100250D03*
X1645823Y100250D03*
X1652323Y100250D03*
X1658823Y100250D03*
X1665323Y100250D03*
X1671823Y100250D03*
X1678323Y100250D03*
X1684823Y100250D03*
X1691323Y100250D03*
X1697823Y100250D03*
X1626323Y106750D03*
X1632823Y106750D03*
X1639323Y106750D03*
X1645823Y106750D03*
X1652323Y106750D03*
X1658823Y106750D03*
X1665323Y106750D03*
X1671823Y106750D03*
X1678323Y106750D03*
X1684823Y106750D03*
X1691323Y106750D03*
X1697823Y106750D03*
X1626323Y113250D03*
X1632823Y113250D03*
X1639323Y113250D03*
X1645823Y113250D03*
X1652323Y113250D03*
X1658823Y113250D03*
X1665323Y113250D03*
X1671823Y113250D03*
X1678323Y113250D03*
X1684823Y113250D03*
X1691323Y113250D03*
X1697823Y113250D03*
X1626323Y119750D03*
X1632823Y119750D03*
X1639323Y119750D03*
X1645823Y119750D03*
X1652323Y119750D03*
X1658823Y119750D03*
X1665323Y119750D03*
X1671823Y119750D03*
X1678323Y119750D03*
X1684823Y119750D03*
X1691323Y119750D03*
X1697823Y119750D03*
X1626323Y126250D03*
X1632823Y126250D03*
X1639323Y126250D03*
X1645823Y126250D03*
X1652323Y126250D03*
X1658823Y126250D03*
X1665323Y126250D03*
X1671823Y126250D03*
X1678323Y126250D03*
X1684823Y126250D03*
X1691323Y126250D03*
X1697823Y126250D03*
X1626323Y132750D03*
X1632823Y132750D03*
X1639323Y132750D03*
X1645823Y132750D03*
X1652323Y132750D03*
X1658823Y132750D03*
X1665323Y132750D03*
X1671823Y132750D03*
X1678323Y132750D03*
X1684823Y132750D03*
X1691323Y132750D03*
X1697823Y132750D03*
X1626323Y139250D03*
X1632823Y139250D03*
X1639323Y139250D03*
X1645823Y139250D03*
X1652323Y139250D03*
X1658823Y139250D03*
X1665323Y139250D03*
X1671823Y139250D03*
X1678323Y139250D03*
X1684823Y139250D03*
X1691323Y139250D03*
X1697823Y139250D03*
X1626323Y145750D03*
X1632823Y145750D03*
X1639323Y145750D03*
X1645823Y145750D03*
X1652323Y145750D03*
X1658823Y145750D03*
X1665323Y145750D03*
X1671823Y145750D03*
X1678323Y145750D03*
X1684823Y145750D03*
X1691323Y145750D03*
X1697823Y145750D03*
X1626323Y152250D03*
X1632823Y152250D03*
X1639323Y152250D03*
X1645823Y152250D03*
X1652323Y152250D03*
X1658823Y152250D03*
X1665323Y152250D03*
X1671823Y152250D03*
X1678323Y152250D03*
X1684823Y152250D03*
X1691323Y152250D03*
X1697823Y152250D03*
D11*
X1770293Y206510D02*
X1770293Y213490D01*
X1770293Y206510D02*
X1763313Y206510D01*
X1763313Y213490D01*
X1770293Y213490D01*
X1770293Y211310D02*
X1763313Y211310D01*
X1787833Y213490D02*
X1787833Y206510D01*
X1780853Y206510D01*
X1780853Y213490D01*
X1787833Y213490D01*
X1787833Y211310D02*
X1780853Y211310D01*
D12*
X1785573Y105000D03*
X1785573Y95000D03*
D13*
X1751573Y152500D03*
X1751573Y127500D03*
D14*
X1731653Y85150D03*
X1726653Y85150D03*
X1721653Y85150D03*
X1716653Y85150D03*
X1721653Y58650D03*
X1716653Y58650D03*
X1726653Y58650D03*
X1731653Y58650D03*
D12*
X1765573Y155000D03*
X1765573Y145000D03*
X1765573Y125000D03*
X1765573Y135000D03*
X1713573Y145000D03*
X1713573Y135000D03*
X1721573Y120000D03*
X1731573Y120000D03*
X1721573Y159000D03*
X1731573Y159000D03*
D15*
X1721573Y133250D03*
X1721573Y146750D03*
X1731573Y146750D03*
X1731573Y133250D03*
D12*
X1585573Y185000D03*
X1585573Y175000D03*
X1758373Y101600D03*
X1748373Y101600D03*
X1758373Y114300D03*
X1748373Y114300D03*
D16*
X1785573Y50000D03*
X1598573Y213000D03*
D17*
X1608073Y175000D03*
X1613073Y175000D03*
X1618073Y175000D03*
X1623073Y175000D03*
D18*
X1630573Y182500D03*
X1630573Y187500D03*
X1630573Y192500D03*
X1630573Y197500D03*
D17*
X1623073Y205000D03*
X1618073Y205000D03*
X1613073Y205000D03*
X1608073Y205000D03*
D18*
X1600573Y197650D03*
X1600573Y192500D03*
X1600573Y187500D03*
X1600573Y182500D03*
D19*
X1615573Y190000D03*
D12*
X1690573Y210000D03*
X1680573Y210000D03*
D11*
X1660853Y206510D02*
X1660853Y213490D01*
X1667833Y213490D01*
X1667833Y206510D01*
X1660853Y206510D01*
X1660853Y211310D02*
X1667833Y211310D01*
X1643313Y213490D02*
X1643313Y206510D01*
X1643313Y213490D02*
X1650293Y213490D01*
X1650293Y206510D01*
X1643313Y206510D01*
X1643313Y211310D02*
X1650293Y211310D01*
D12*
X1585573Y195000D03*
X1585573Y205000D03*
D20*
X1750573Y64000D03*
X1750573Y82000D03*
D21*
X1778073Y12750D03*
X1773073Y12750D03*
X1768073Y12750D03*
X1763073Y12750D03*
X1758073Y12750D03*
X1753073Y12750D03*
X1748073Y12750D03*
X1743073Y12750D03*
X1738073Y12750D03*
X1733073Y12750D03*
X1728073Y12750D03*
X1723073Y12750D03*
X1698073Y12750D03*
X1693073Y12750D03*
X1688073Y12750D03*
X1683073Y12750D03*
X1678073Y12750D03*
X1673073Y12750D03*
X1668073Y12750D03*
X1663073Y12750D03*
X1658073Y12750D03*
X1653073Y12750D03*
X1648073Y12750D03*
X1643073Y12750D03*
X1638073Y12750D03*
X1633073Y12750D03*
X1628073Y12750D03*
X1623073Y12750D03*
X1618073Y12750D03*
X1613073Y12750D03*
X1608073Y12750D03*
X1603073Y12750D03*
X1598073Y12750D03*
X1593073Y12750D03*
D22*
X1725573Y220000D03*
D10*
X182229Y630750D03*
X182229Y624250D03*
X175729Y630750D03*
X175729Y624250D03*
X182229Y617750D03*
X182229Y611250D03*
X175729Y617750D03*
X175729Y611250D03*
X182229Y604750D03*
X182229Y598250D03*
X175729Y604750D03*
X175729Y598250D03*
X182229Y591750D03*
X182229Y585250D03*
X175729Y591750D03*
X175729Y585250D03*
X182229Y578750D03*
X175729Y578750D03*
X182229Y572250D03*
X182229Y565750D03*
X175729Y572250D03*
X175729Y565750D03*
X182229Y559250D03*
X182229Y552750D03*
X175729Y559250D03*
X175729Y552750D03*
X182229Y546250D03*
X175729Y546250D03*
X169229Y630750D03*
X162729Y630750D03*
X156229Y630750D03*
X149729Y630750D03*
X143229Y630750D03*
X136729Y630750D03*
X130229Y630750D03*
X123729Y630750D03*
X117229Y630750D03*
X110729Y630750D03*
X104229Y630750D03*
X97729Y630750D03*
X169229Y624250D03*
X162729Y624250D03*
X156229Y624250D03*
X149729Y624250D03*
X143229Y624250D03*
X136729Y624250D03*
X130229Y624250D03*
X123729Y624250D03*
X117229Y624250D03*
X110729Y624250D03*
X104229Y624250D03*
X97729Y624250D03*
X169229Y617750D03*
X162729Y617750D03*
X156229Y617750D03*
X149729Y617750D03*
X143229Y617750D03*
X136729Y617750D03*
X130229Y617750D03*
X123729Y617750D03*
X117229Y617750D03*
X110729Y617750D03*
X104229Y617750D03*
X97729Y617750D03*
X169229Y611250D03*
X162729Y611250D03*
X156229Y611250D03*
X149729Y611250D03*
X143229Y611250D03*
X136729Y611250D03*
X130229Y611250D03*
X123729Y611250D03*
X117229Y611250D03*
X110729Y611250D03*
X104229Y611250D03*
X97729Y611250D03*
X169229Y604750D03*
X162729Y604750D03*
X156229Y604750D03*
X149729Y604750D03*
X143229Y604750D03*
X136729Y604750D03*
X130229Y604750D03*
X123729Y604750D03*
X117229Y604750D03*
X110729Y604750D03*
X104229Y604750D03*
X97729Y604750D03*
X169229Y598250D03*
X162729Y598250D03*
X156229Y598250D03*
X149729Y598250D03*
X143229Y598250D03*
X136729Y598250D03*
X130229Y598250D03*
X123729Y598250D03*
X117229Y598250D03*
X110729Y598250D03*
X104229Y598250D03*
X97729Y598250D03*
X169229Y591750D03*
X162729Y591750D03*
X156229Y591750D03*
X149729Y591750D03*
X143229Y591750D03*
X136729Y591750D03*
X130229Y591750D03*
X123729Y591750D03*
X117229Y591750D03*
X110729Y591750D03*
X104229Y591750D03*
X97729Y591750D03*
X169229Y585250D03*
X162729Y585250D03*
X156229Y585250D03*
X149729Y585250D03*
X143229Y585250D03*
X136729Y585250D03*
X130229Y585250D03*
X123729Y585250D03*
X117229Y585250D03*
X110729Y585250D03*
X104229Y585250D03*
X97729Y585250D03*
X169229Y578750D03*
X162729Y578750D03*
X156229Y578750D03*
X149729Y578750D03*
X143229Y578750D03*
X136729Y578750D03*
X130229Y578750D03*
X123729Y578750D03*
X117229Y578750D03*
X110729Y578750D03*
X104229Y578750D03*
X97729Y578750D03*
X169229Y572250D03*
X162729Y572250D03*
X156229Y572250D03*
X149729Y572250D03*
X143229Y572250D03*
X136729Y572250D03*
X130229Y572250D03*
X123729Y572250D03*
X117229Y572250D03*
X110729Y572250D03*
X104229Y572250D03*
X97729Y572250D03*
X169229Y565750D03*
X162729Y565750D03*
X156229Y565750D03*
X149729Y565750D03*
X143229Y565750D03*
X136729Y565750D03*
X130229Y565750D03*
X123729Y565750D03*
X117229Y565750D03*
X110729Y565750D03*
X104229Y565750D03*
X97729Y565750D03*
X169229Y559250D03*
X162729Y559250D03*
X156229Y559250D03*
X149729Y559250D03*
X143229Y559250D03*
X136729Y559250D03*
X130229Y559250D03*
X123729Y559250D03*
X117229Y559250D03*
X110729Y559250D03*
X104229Y559250D03*
X97729Y559250D03*
X169229Y552750D03*
X162729Y552750D03*
X156229Y552750D03*
X149729Y552750D03*
X143229Y552750D03*
X136729Y552750D03*
X130229Y552750D03*
X123729Y552750D03*
X117229Y552750D03*
X110729Y552750D03*
X104229Y552750D03*
X97729Y552750D03*
X169229Y546250D03*
X162729Y546250D03*
X156229Y546250D03*
X149729Y546250D03*
X143229Y546250D03*
X136729Y546250D03*
X130229Y546250D03*
X123729Y546250D03*
X117229Y546250D03*
X110729Y546250D03*
X104229Y546250D03*
X97729Y546250D03*
D11*
X25259Y491990D02*
X25259Y485010D01*
X25259Y491990D02*
X32239Y491990D01*
X32239Y485010D01*
X25259Y485010D01*
X25259Y489810D02*
X32239Y489810D01*
X7719Y491990D02*
X7719Y485010D01*
X7719Y491990D02*
X14699Y491990D01*
X14699Y485010D01*
X7719Y485010D01*
X7719Y489810D02*
X14699Y489810D01*
D12*
X9979Y593500D03*
X9979Y603500D03*
D13*
X43979Y546000D03*
X43979Y571000D03*
D14*
X63899Y613350D03*
X68899Y613350D03*
X73899Y613350D03*
X78899Y613350D03*
X73899Y639850D03*
X78899Y639850D03*
X68899Y639850D03*
X63899Y639850D03*
D12*
X29979Y543500D03*
X29979Y553500D03*
X29979Y573500D03*
X29979Y563500D03*
X81979Y553500D03*
X81979Y563500D03*
X73979Y578500D03*
X63979Y578500D03*
X73979Y539500D03*
X63979Y539500D03*
D15*
X73979Y565250D03*
X73979Y551750D03*
X63979Y551750D03*
X63979Y565250D03*
D12*
X209979Y513500D03*
X209979Y523500D03*
X37179Y596900D03*
X47179Y596900D03*
X37179Y584200D03*
X47179Y584200D03*
D16*
X9979Y648500D03*
X196979Y485500D03*
D17*
X187479Y523500D03*
X182479Y523500D03*
X177479Y523500D03*
X172479Y523500D03*
D18*
X164979Y516000D03*
X164979Y511000D03*
X164979Y506000D03*
X164979Y501000D03*
D17*
X172479Y493500D03*
X177479Y493500D03*
X182479Y493500D03*
X187479Y493500D03*
D18*
X194979Y500850D03*
X194979Y506000D03*
X194979Y511000D03*
X194979Y516000D03*
D19*
X179979Y508500D03*
D12*
X104979Y488500D03*
X114979Y488500D03*
D11*
X134699Y491990D02*
X134699Y485010D01*
X127719Y485010D01*
X127719Y491990D01*
X134699Y491990D01*
X134699Y489810D02*
X127719Y489810D01*
X152239Y491990D02*
X152239Y485010D01*
X145259Y485010D01*
X145259Y491990D01*
X152239Y491990D01*
X152239Y489810D02*
X145259Y489810D01*
D12*
X209979Y503500D03*
X209979Y493500D03*
D20*
X44979Y634500D03*
X44979Y616500D03*
D21*
X17479Y685750D03*
X22479Y685750D03*
X27479Y685750D03*
X32479Y685750D03*
X37479Y685750D03*
X42479Y685750D03*
X47479Y685750D03*
X52479Y685750D03*
X57479Y685750D03*
X62479Y685750D03*
X67479Y685750D03*
X72479Y685750D03*
X97479Y685750D03*
X102479Y685750D03*
X107479Y685750D03*
X112479Y685750D03*
X117479Y685750D03*
X122479Y685750D03*
X127479Y685750D03*
X132479Y685750D03*
X137479Y685750D03*
X142479Y685750D03*
X147479Y685750D03*
X152479Y685750D03*
X157479Y685750D03*
X162479Y685750D03*
X167479Y685750D03*
X172479Y685750D03*
X177479Y685750D03*
X182479Y685750D03*
X187479Y685750D03*
X192479Y685750D03*
X197479Y685750D03*
X202479Y685750D03*
D22*
X69979Y478500D03*
D10*
X407324Y630750D03*
X407324Y624250D03*
X400824Y630750D03*
X400824Y624250D03*
X407324Y617750D03*
X407324Y611250D03*
X400824Y617750D03*
X400824Y611250D03*
X407324Y604750D03*
X407324Y598250D03*
X400824Y604750D03*
X400824Y598250D03*
X407324Y591750D03*
X407324Y585250D03*
X400824Y591750D03*
X400824Y585250D03*
X407324Y578750D03*
X400824Y578750D03*
X407324Y572250D03*
X407324Y565750D03*
X400824Y572250D03*
X400824Y565750D03*
X407324Y559250D03*
X407324Y552750D03*
X400824Y559250D03*
X400824Y552750D03*
X407324Y546250D03*
X400824Y546250D03*
X394324Y630750D03*
X387824Y630750D03*
X381324Y630750D03*
X374824Y630750D03*
X368324Y630750D03*
X361824Y630750D03*
X355324Y630750D03*
X348824Y630750D03*
X342324Y630750D03*
X335824Y630750D03*
X329324Y630750D03*
X322824Y630750D03*
X394324Y624250D03*
X387824Y624250D03*
X381324Y624250D03*
X374824Y624250D03*
X368324Y624250D03*
X361824Y624250D03*
X355324Y624250D03*
X348824Y624250D03*
X342324Y624250D03*
X335824Y624250D03*
X329324Y624250D03*
X322824Y624250D03*
X394324Y617750D03*
X387824Y617750D03*
X381324Y617750D03*
X374824Y617750D03*
X368324Y617750D03*
X361824Y617750D03*
X355324Y617750D03*
X348824Y617750D03*
X342324Y617750D03*
X335824Y617750D03*
X329324Y617750D03*
X322824Y617750D03*
X394324Y611250D03*
X387824Y611250D03*
X381324Y611250D03*
X374824Y611250D03*
X368324Y611250D03*
X361824Y611250D03*
X355324Y611250D03*
X348824Y611250D03*
X342324Y611250D03*
X335824Y611250D03*
X329324Y611250D03*
X322824Y611250D03*
X394324Y604750D03*
X387824Y604750D03*
X381324Y604750D03*
X374824Y604750D03*
X368324Y604750D03*
X361824Y604750D03*
X355324Y604750D03*
X348824Y604750D03*
X342324Y604750D03*
X335824Y604750D03*
X329324Y604750D03*
X322824Y604750D03*
X394324Y598250D03*
X387824Y598250D03*
X381324Y598250D03*
X374824Y598250D03*
X368324Y598250D03*
X361824Y598250D03*
X355324Y598250D03*
X348824Y598250D03*
X342324Y598250D03*
X335824Y598250D03*
X329324Y598250D03*
X322824Y598250D03*
X394324Y591750D03*
X387824Y591750D03*
X381324Y591750D03*
X374824Y591750D03*
X368324Y591750D03*
X361824Y591750D03*
X355324Y591750D03*
X348824Y591750D03*
X342324Y591750D03*
X335824Y591750D03*
X329324Y591750D03*
X322824Y591750D03*
X394324Y585250D03*
X387824Y585250D03*
X381324Y585250D03*
X374824Y585250D03*
X368324Y585250D03*
X361824Y585250D03*
X355324Y585250D03*
X348824Y585250D03*
X342324Y585250D03*
X335824Y585250D03*
X329324Y585250D03*
X322824Y585250D03*
X394324Y578750D03*
X387824Y578750D03*
X381324Y578750D03*
X374824Y578750D03*
X368324Y578750D03*
X361824Y578750D03*
X355324Y578750D03*
X348824Y578750D03*
X342324Y578750D03*
X335824Y578750D03*
X329324Y578750D03*
X322824Y578750D03*
X394324Y572250D03*
X387824Y572250D03*
X381324Y572250D03*
X374824Y572250D03*
X368324Y572250D03*
X361824Y572250D03*
X355324Y572250D03*
X348824Y572250D03*
X342324Y572250D03*
X335824Y572250D03*
X329324Y572250D03*
X322824Y572250D03*
X394324Y565750D03*
X387824Y565750D03*
X381324Y565750D03*
X374824Y565750D03*
X368324Y565750D03*
X361824Y565750D03*
X355324Y565750D03*
X348824Y565750D03*
X342324Y565750D03*
X335824Y565750D03*
X329324Y565750D03*
X322824Y565750D03*
X394324Y559250D03*
X387824Y559250D03*
X381324Y559250D03*
X374824Y559250D03*
X368324Y559250D03*
X361824Y559250D03*
X355324Y559250D03*
X348824Y559250D03*
X342324Y559250D03*
X335824Y559250D03*
X329324Y559250D03*
X322824Y559250D03*
X394324Y552750D03*
X387824Y552750D03*
X381324Y552750D03*
X374824Y552750D03*
X368324Y552750D03*
X361824Y552750D03*
X355324Y552750D03*
X348824Y552750D03*
X342324Y552750D03*
X335824Y552750D03*
X329324Y552750D03*
X322824Y552750D03*
X394324Y546250D03*
X387824Y546250D03*
X381324Y546250D03*
X374824Y546250D03*
X368324Y546250D03*
X361824Y546250D03*
X355324Y546250D03*
X348824Y546250D03*
X342324Y546250D03*
X335824Y546250D03*
X329324Y546250D03*
X322824Y546250D03*
D11*
X250354Y491990D02*
X250354Y485010D01*
X250354Y491990D02*
X257334Y491990D01*
X257334Y485010D01*
X250354Y485010D01*
X250354Y489810D02*
X257334Y489810D01*
X232814Y491990D02*
X232814Y485010D01*
X232814Y491990D02*
X239794Y491990D01*
X239794Y485010D01*
X232814Y485010D01*
X232814Y489810D02*
X239794Y489810D01*
D12*
X235074Y593500D03*
X235074Y603500D03*
D13*
X269074Y546000D03*
X269074Y571000D03*
D14*
X288994Y613350D03*
X293994Y613350D03*
X298994Y613350D03*
X303994Y613350D03*
X298994Y639850D03*
X303994Y639850D03*
X293994Y639850D03*
X288994Y639850D03*
D12*
X255074Y543500D03*
X255074Y553500D03*
X255074Y573500D03*
X255074Y563500D03*
X307074Y553500D03*
X307074Y563500D03*
X299074Y578500D03*
X289074Y578500D03*
X299074Y539500D03*
X289074Y539500D03*
D15*
X299074Y565250D03*
X299074Y551750D03*
X289074Y551750D03*
X289074Y565250D03*
D12*
X435074Y513500D03*
X435074Y523500D03*
X262274Y596900D03*
X272274Y596900D03*
X262274Y584200D03*
X272274Y584200D03*
D16*
X235074Y648500D03*
X422074Y485500D03*
D17*
X412574Y523500D03*
X407574Y523500D03*
X402574Y523500D03*
X397574Y523500D03*
D18*
X390074Y516000D03*
X390074Y511000D03*
X390074Y506000D03*
X390074Y501000D03*
D17*
X397574Y493500D03*
X402574Y493500D03*
X407574Y493500D03*
X412574Y493500D03*
D18*
X420074Y500850D03*
X420074Y506000D03*
X420074Y511000D03*
X420074Y516000D03*
D19*
X405074Y508500D03*
D12*
X330074Y488500D03*
X340074Y488500D03*
D11*
X359794Y491990D02*
X359794Y485010D01*
X352814Y485010D01*
X352814Y491990D01*
X359794Y491990D01*
X359794Y489810D02*
X352814Y489810D01*
X377334Y491990D02*
X377334Y485010D01*
X370354Y485010D01*
X370354Y491990D01*
X377334Y491990D01*
X377334Y489810D02*
X370354Y489810D01*
D12*
X435074Y503500D03*
X435074Y493500D03*
D20*
X270074Y634500D03*
X270074Y616500D03*
D21*
X242574Y685750D03*
X247574Y685750D03*
X252574Y685750D03*
X257574Y685750D03*
X262574Y685750D03*
X267574Y685750D03*
X272574Y685750D03*
X277574Y685750D03*
X282574Y685750D03*
X287574Y685750D03*
X292574Y685750D03*
X297574Y685750D03*
X322574Y685750D03*
X327574Y685750D03*
X332574Y685750D03*
X337574Y685750D03*
X342574Y685750D03*
X347574Y685750D03*
X352574Y685750D03*
X357574Y685750D03*
X362574Y685750D03*
X367574Y685750D03*
X372574Y685750D03*
X377574Y685750D03*
X382574Y685750D03*
X387574Y685750D03*
X392574Y685750D03*
X397574Y685750D03*
X402574Y685750D03*
X407574Y685750D03*
X412574Y685750D03*
X417574Y685750D03*
X422574Y685750D03*
X427574Y685750D03*
D22*
X295074Y478500D03*
D10*
X632393Y630750D03*
X632393Y624250D03*
X625893Y630750D03*
X625893Y624250D03*
X632393Y617750D03*
X632393Y611250D03*
X625893Y617750D03*
X625893Y611250D03*
X632393Y604750D03*
X632393Y598250D03*
X625893Y604750D03*
X625893Y598250D03*
X632393Y591750D03*
X632393Y585250D03*
X625893Y591750D03*
X625893Y585250D03*
X632393Y578750D03*
X625893Y578750D03*
X632393Y572250D03*
X632393Y565750D03*
X625893Y572250D03*
X625893Y565750D03*
X632393Y559250D03*
X632393Y552750D03*
X625893Y559250D03*
X625893Y552750D03*
X632393Y546250D03*
X625893Y546250D03*
X619393Y630750D03*
X612893Y630750D03*
X606393Y630750D03*
X599893Y630750D03*
X593393Y630750D03*
X586893Y630750D03*
X580393Y630750D03*
X573893Y630750D03*
X567393Y630750D03*
X560893Y630750D03*
X554393Y630750D03*
X547893Y630750D03*
X619393Y624250D03*
X612893Y624250D03*
X606393Y624250D03*
X599893Y624250D03*
X593393Y624250D03*
X586893Y624250D03*
X580393Y624250D03*
X573893Y624250D03*
X567393Y624250D03*
X560893Y624250D03*
X554393Y624250D03*
X547893Y624250D03*
X619393Y617750D03*
X612893Y617750D03*
X606393Y617750D03*
X599893Y617750D03*
X593393Y617750D03*
X586893Y617750D03*
X580393Y617750D03*
X573893Y617750D03*
X567393Y617750D03*
X560893Y617750D03*
X554393Y617750D03*
X547893Y617750D03*
X619393Y611250D03*
X612893Y611250D03*
X606393Y611250D03*
X599893Y611250D03*
X593393Y611250D03*
X586893Y611250D03*
X580393Y611250D03*
X573893Y611250D03*
X567393Y611250D03*
X560893Y611250D03*
X554393Y611250D03*
X547893Y611250D03*
X619393Y604750D03*
X612893Y604750D03*
X606393Y604750D03*
X599893Y604750D03*
X593393Y604750D03*
X586893Y604750D03*
X580393Y604750D03*
X573893Y604750D03*
X567393Y604750D03*
X560893Y604750D03*
X554393Y604750D03*
X547893Y604750D03*
X619393Y598250D03*
X612893Y598250D03*
X606393Y598250D03*
X599893Y598250D03*
X593393Y598250D03*
X586893Y598250D03*
X580393Y598250D03*
X573893Y598250D03*
X567393Y598250D03*
X560893Y598250D03*
X554393Y598250D03*
X547893Y598250D03*
X619393Y591750D03*
X612893Y591750D03*
X606393Y591750D03*
X599893Y591750D03*
X593393Y591750D03*
X586893Y591750D03*
X580393Y591750D03*
X573893Y591750D03*
X567393Y591750D03*
X560893Y591750D03*
X554393Y591750D03*
X547893Y591750D03*
X619393Y585250D03*
X612893Y585250D03*
X606393Y585250D03*
X599893Y585250D03*
X593393Y585250D03*
X586893Y585250D03*
X580393Y585250D03*
X573893Y585250D03*
X567393Y585250D03*
X560893Y585250D03*
X554393Y585250D03*
X547893Y585250D03*
X619393Y578750D03*
X612893Y578750D03*
X606393Y578750D03*
X599893Y578750D03*
X593393Y578750D03*
X586893Y578750D03*
X580393Y578750D03*
X573893Y578750D03*
X567393Y578750D03*
X560893Y578750D03*
X554393Y578750D03*
X547893Y578750D03*
X619393Y572250D03*
X612893Y572250D03*
X606393Y572250D03*
X599893Y572250D03*
X593393Y572250D03*
X586893Y572250D03*
X580393Y572250D03*
X573893Y572250D03*
X567393Y572250D03*
X560893Y572250D03*
X554393Y572250D03*
X547893Y572250D03*
X619393Y565750D03*
X612893Y565750D03*
X606393Y565750D03*
X599893Y565750D03*
X593393Y565750D03*
X586893Y565750D03*
X580393Y565750D03*
X573893Y565750D03*
X567393Y565750D03*
X560893Y565750D03*
X554393Y565750D03*
X547893Y565750D03*
X619393Y559250D03*
X612893Y559250D03*
X606393Y559250D03*
X599893Y559250D03*
X593393Y559250D03*
X586893Y559250D03*
X580393Y559250D03*
X573893Y559250D03*
X567393Y559250D03*
X560893Y559250D03*
X554393Y559250D03*
X547893Y559250D03*
X619393Y552750D03*
X612893Y552750D03*
X606393Y552750D03*
X599893Y552750D03*
X593393Y552750D03*
X586893Y552750D03*
X580393Y552750D03*
X573893Y552750D03*
X567393Y552750D03*
X560893Y552750D03*
X554393Y552750D03*
X547893Y552750D03*
X619393Y546250D03*
X612893Y546250D03*
X606393Y546250D03*
X599893Y546250D03*
X593393Y546250D03*
X586893Y546250D03*
X580393Y546250D03*
X573893Y546250D03*
X567393Y546250D03*
X560893Y546250D03*
X554393Y546250D03*
X547893Y546250D03*
D11*
X475423Y491990D02*
X475423Y485010D01*
X475423Y491990D02*
X482403Y491990D01*
X482403Y485010D01*
X475423Y485010D01*
X475423Y489810D02*
X482403Y489810D01*
X457883Y491990D02*
X457883Y485010D01*
X457883Y491990D02*
X464863Y491990D01*
X464863Y485010D01*
X457883Y485010D01*
X457883Y489810D02*
X464863Y489810D01*
D12*
X460143Y593500D03*
X460143Y603500D03*
D13*
X494143Y546000D03*
X494143Y571000D03*
D14*
X514063Y613350D03*
X519063Y613350D03*
X524063Y613350D03*
X529063Y613350D03*
X524063Y639850D03*
X529063Y639850D03*
X519063Y639850D03*
X514063Y639850D03*
D12*
X480143Y543500D03*
X480143Y553500D03*
X480143Y573500D03*
X480143Y563500D03*
X532143Y553500D03*
X532143Y563500D03*
X524143Y578500D03*
X514143Y578500D03*
X524143Y539500D03*
X514143Y539500D03*
D15*
X524143Y565250D03*
X524143Y551750D03*
X514143Y551750D03*
X514143Y565250D03*
D12*
X660143Y513500D03*
X660143Y523500D03*
X487343Y596900D03*
X497343Y596900D03*
X487343Y584200D03*
X497343Y584200D03*
D16*
X460143Y648500D03*
X647143Y485500D03*
D17*
X637643Y523500D03*
X632643Y523500D03*
X627643Y523500D03*
X622643Y523500D03*
D18*
X615143Y516000D03*
X615143Y511000D03*
X615143Y506000D03*
X615143Y501000D03*
D17*
X622643Y493500D03*
X627643Y493500D03*
X632643Y493500D03*
X637643Y493500D03*
D18*
X645143Y500850D03*
X645143Y506000D03*
X645143Y511000D03*
X645143Y516000D03*
D19*
X630143Y508500D03*
D12*
X555143Y488500D03*
X565143Y488500D03*
D11*
X584863Y491990D02*
X584863Y485010D01*
X577883Y485010D01*
X577883Y491990D01*
X584863Y491990D01*
X584863Y489810D02*
X577883Y489810D01*
X602403Y491990D02*
X602403Y485010D01*
X595423Y485010D01*
X595423Y491990D01*
X602403Y491990D01*
X602403Y489810D02*
X595423Y489810D01*
D12*
X660143Y503500D03*
X660143Y493500D03*
D20*
X495143Y634500D03*
X495143Y616500D03*
D21*
X467643Y685750D03*
X472643Y685750D03*
X477643Y685750D03*
X482643Y685750D03*
X487643Y685750D03*
X492643Y685750D03*
X497643Y685750D03*
X502643Y685750D03*
X507643Y685750D03*
X512643Y685750D03*
X517643Y685750D03*
X522643Y685750D03*
X547643Y685750D03*
X552643Y685750D03*
X557643Y685750D03*
X562643Y685750D03*
X567643Y685750D03*
X572643Y685750D03*
X577643Y685750D03*
X582643Y685750D03*
X587643Y685750D03*
X592643Y685750D03*
X597643Y685750D03*
X602643Y685750D03*
X607643Y685750D03*
X612643Y685750D03*
X617643Y685750D03*
X622643Y685750D03*
X627643Y685750D03*
X632643Y685750D03*
X637643Y685750D03*
X642643Y685750D03*
X647643Y685750D03*
X652643Y685750D03*
D22*
X520143Y478500D03*
D10*
X857488Y630750D03*
X857488Y624250D03*
X850988Y630750D03*
X850988Y624250D03*
X857488Y617750D03*
X857488Y611250D03*
X850988Y617750D03*
X850988Y611250D03*
X857488Y604750D03*
X857488Y598250D03*
X850988Y604750D03*
X850988Y598250D03*
X857488Y591750D03*
X857488Y585250D03*
X850988Y591750D03*
X850988Y585250D03*
X857488Y578750D03*
X850988Y578750D03*
X857488Y572250D03*
X857488Y565750D03*
X850988Y572250D03*
X850988Y565750D03*
X857488Y559250D03*
X857488Y552750D03*
X850988Y559250D03*
X850988Y552750D03*
X857488Y546250D03*
X850988Y546250D03*
X844488Y630750D03*
X837988Y630750D03*
X831488Y630750D03*
X824988Y630750D03*
X818488Y630750D03*
X811988Y630750D03*
X805488Y630750D03*
X798988Y630750D03*
X792488Y630750D03*
X785988Y630750D03*
X779488Y630750D03*
X772988Y630750D03*
X844488Y624250D03*
X837988Y624250D03*
X831488Y624250D03*
X824988Y624250D03*
X818488Y624250D03*
X811988Y624250D03*
X805488Y624250D03*
X798988Y624250D03*
X792488Y624250D03*
X785988Y624250D03*
X779488Y624250D03*
X772988Y624250D03*
X844488Y617750D03*
X837988Y617750D03*
X831488Y617750D03*
X824988Y617750D03*
X818488Y617750D03*
X811988Y617750D03*
X805488Y617750D03*
X798988Y617750D03*
X792488Y617750D03*
X785988Y617750D03*
X779488Y617750D03*
X772988Y617750D03*
X844488Y611250D03*
X837988Y611250D03*
X831488Y611250D03*
X824988Y611250D03*
X818488Y611250D03*
X811988Y611250D03*
X805488Y611250D03*
X798988Y611250D03*
X792488Y611250D03*
X785988Y611250D03*
X779488Y611250D03*
X772988Y611250D03*
X844488Y604750D03*
X837988Y604750D03*
X831488Y604750D03*
X824988Y604750D03*
X818488Y604750D03*
X811988Y604750D03*
X805488Y604750D03*
X798988Y604750D03*
X792488Y604750D03*
X785988Y604750D03*
X779488Y604750D03*
X772988Y604750D03*
X844488Y598250D03*
X837988Y598250D03*
X831488Y598250D03*
X824988Y598250D03*
X818488Y598250D03*
X811988Y598250D03*
X805488Y598250D03*
X798988Y598250D03*
X792488Y598250D03*
X785988Y598250D03*
X779488Y598250D03*
X772988Y598250D03*
X844488Y591750D03*
X837988Y591750D03*
X831488Y591750D03*
X824988Y591750D03*
X818488Y591750D03*
X811988Y591750D03*
X805488Y591750D03*
X798988Y591750D03*
X792488Y591750D03*
X785988Y591750D03*
X779488Y591750D03*
X772988Y591750D03*
X844488Y585250D03*
X837988Y585250D03*
X831488Y585250D03*
X824988Y585250D03*
X818488Y585250D03*
X811988Y585250D03*
X805488Y585250D03*
X798988Y585250D03*
X792488Y585250D03*
X785988Y585250D03*
X779488Y585250D03*
X772988Y585250D03*
X844488Y578750D03*
X837988Y578750D03*
X831488Y578750D03*
X824988Y578750D03*
X818488Y578750D03*
X811988Y578750D03*
X805488Y578750D03*
X798988Y578750D03*
X792488Y578750D03*
X785988Y578750D03*
X779488Y578750D03*
X772988Y578750D03*
X844488Y572250D03*
X837988Y572250D03*
X831488Y572250D03*
X824988Y572250D03*
X818488Y572250D03*
X811988Y572250D03*
X805488Y572250D03*
X798988Y572250D03*
X792488Y572250D03*
X785988Y572250D03*
X779488Y572250D03*
X772988Y572250D03*
X844488Y565750D03*
X837988Y565750D03*
X831488Y565750D03*
X824988Y565750D03*
X818488Y565750D03*
X811988Y565750D03*
X805488Y565750D03*
X798988Y565750D03*
X792488Y565750D03*
X785988Y565750D03*
X779488Y565750D03*
X772988Y565750D03*
X844488Y559250D03*
X837988Y559250D03*
X831488Y559250D03*
X824988Y559250D03*
X818488Y559250D03*
X811988Y559250D03*
X805488Y559250D03*
X798988Y559250D03*
X792488Y559250D03*
X785988Y559250D03*
X779488Y559250D03*
X772988Y559250D03*
X844488Y552750D03*
X837988Y552750D03*
X831488Y552750D03*
X824988Y552750D03*
X818488Y552750D03*
X811988Y552750D03*
X805488Y552750D03*
X798988Y552750D03*
X792488Y552750D03*
X785988Y552750D03*
X779488Y552750D03*
X772988Y552750D03*
X844488Y546250D03*
X837988Y546250D03*
X831488Y546250D03*
X824988Y546250D03*
X818488Y546250D03*
X811988Y546250D03*
X805488Y546250D03*
X798988Y546250D03*
X792488Y546250D03*
X785988Y546250D03*
X779488Y546250D03*
X772988Y546250D03*
D11*
X700518Y491990D02*
X700518Y485010D01*
X700518Y491990D02*
X707498Y491990D01*
X707498Y485010D01*
X700518Y485010D01*
X700518Y489810D02*
X707498Y489810D01*
X682978Y491990D02*
X682978Y485010D01*
X682978Y491990D02*
X689958Y491990D01*
X689958Y485010D01*
X682978Y485010D01*
X682978Y489810D02*
X689958Y489810D01*
D12*
X685238Y593500D03*
X685238Y603500D03*
D13*
X719238Y546000D03*
X719238Y571000D03*
D14*
X739158Y613350D03*
X744158Y613350D03*
X749158Y613350D03*
X754158Y613350D03*
X749158Y639850D03*
X754158Y639850D03*
X744158Y639850D03*
X739158Y639850D03*
D12*
X705238Y543500D03*
X705238Y553500D03*
X705238Y573500D03*
X705238Y563500D03*
X757238Y553500D03*
X757238Y563500D03*
X749238Y578500D03*
X739238Y578500D03*
X749238Y539500D03*
X739238Y539500D03*
D15*
X749238Y565250D03*
X749238Y551750D03*
X739238Y551750D03*
X739238Y565250D03*
D12*
X885238Y513500D03*
X885238Y523500D03*
X712438Y596900D03*
X722438Y596900D03*
X712438Y584200D03*
X722438Y584200D03*
D16*
X685238Y648500D03*
X872238Y485500D03*
D17*
X862738Y523500D03*
X857738Y523500D03*
X852738Y523500D03*
X847738Y523500D03*
D18*
X840238Y516000D03*
X840238Y511000D03*
X840238Y506000D03*
X840238Y501000D03*
D17*
X847738Y493500D03*
X852738Y493500D03*
X857738Y493500D03*
X862738Y493500D03*
D18*
X870238Y500850D03*
X870238Y506000D03*
X870238Y511000D03*
X870238Y516000D03*
D19*
X855238Y508500D03*
D12*
X780238Y488500D03*
X790238Y488500D03*
D11*
X809958Y491990D02*
X809958Y485010D01*
X802978Y485010D01*
X802978Y491990D01*
X809958Y491990D01*
X809958Y489810D02*
X802978Y489810D01*
X827498Y491990D02*
X827498Y485010D01*
X820518Y485010D01*
X820518Y491990D01*
X827498Y491990D01*
X827498Y489810D02*
X820518Y489810D01*
D12*
X885238Y503500D03*
X885238Y493500D03*
D20*
X720238Y634500D03*
X720238Y616500D03*
D21*
X692738Y685750D03*
X697738Y685750D03*
X702738Y685750D03*
X707738Y685750D03*
X712738Y685750D03*
X717738Y685750D03*
X722738Y685750D03*
X727738Y685750D03*
X732738Y685750D03*
X737738Y685750D03*
X742738Y685750D03*
X747738Y685750D03*
X772738Y685750D03*
X777738Y685750D03*
X782738Y685750D03*
X787738Y685750D03*
X792738Y685750D03*
X797738Y685750D03*
X802738Y685750D03*
X807738Y685750D03*
X812738Y685750D03*
X817738Y685750D03*
X822738Y685750D03*
X827738Y685750D03*
X832738Y685750D03*
X837738Y685750D03*
X842738Y685750D03*
X847738Y685750D03*
X852738Y685750D03*
X857738Y685750D03*
X862738Y685750D03*
X867738Y685750D03*
X872738Y685750D03*
X877738Y685750D03*
D22*
X745238Y478500D03*
D10*
X1082557Y630750D03*
X1082557Y624250D03*
X1076057Y630750D03*
X1076057Y624250D03*
X1082557Y617750D03*
X1082557Y611250D03*
X1076057Y617750D03*
X1076057Y611250D03*
X1082557Y604750D03*
X1082557Y598250D03*
X1076057Y604750D03*
X1076057Y598250D03*
X1082557Y591750D03*
X1082557Y585250D03*
X1076057Y591750D03*
X1076057Y585250D03*
X1082557Y578750D03*
X1076057Y578750D03*
X1082557Y572250D03*
X1082557Y565750D03*
X1076057Y572250D03*
X1076057Y565750D03*
X1082557Y559250D03*
X1082557Y552750D03*
X1076057Y559250D03*
X1076057Y552750D03*
X1082557Y546250D03*
X1076057Y546250D03*
X1069557Y630750D03*
X1063057Y630750D03*
X1056557Y630750D03*
X1050057Y630750D03*
X1043557Y630750D03*
X1037057Y630750D03*
X1030557Y630750D03*
X1024057Y630750D03*
X1017557Y630750D03*
X1011057Y630750D03*
X1004557Y630750D03*
X998057Y630750D03*
X1069557Y624250D03*
X1063057Y624250D03*
X1056557Y624250D03*
X1050057Y624250D03*
X1043557Y624250D03*
X1037057Y624250D03*
X1030557Y624250D03*
X1024057Y624250D03*
X1017557Y624250D03*
X1011057Y624250D03*
X1004557Y624250D03*
X998057Y624250D03*
X1069557Y617750D03*
X1063057Y617750D03*
X1056557Y617750D03*
X1050057Y617750D03*
X1043557Y617750D03*
X1037057Y617750D03*
X1030557Y617750D03*
X1024057Y617750D03*
X1017557Y617750D03*
X1011057Y617750D03*
X1004557Y617750D03*
X998057Y617750D03*
X1069557Y611250D03*
X1063057Y611250D03*
X1056557Y611250D03*
X1050057Y611250D03*
X1043557Y611250D03*
X1037057Y611250D03*
X1030557Y611250D03*
X1024057Y611250D03*
X1017557Y611250D03*
X1011057Y611250D03*
X1004557Y611250D03*
X998057Y611250D03*
X1069557Y604750D03*
X1063057Y604750D03*
X1056557Y604750D03*
X1050057Y604750D03*
X1043557Y604750D03*
X1037057Y604750D03*
X1030557Y604750D03*
X1024057Y604750D03*
X1017557Y604750D03*
X1011057Y604750D03*
X1004557Y604750D03*
X998057Y604750D03*
X1069557Y598250D03*
X1063057Y598250D03*
X1056557Y598250D03*
X1050057Y598250D03*
X1043557Y598250D03*
X1037057Y598250D03*
X1030557Y598250D03*
X1024057Y598250D03*
X1017557Y598250D03*
X1011057Y598250D03*
X1004557Y598250D03*
X998057Y598250D03*
X1069557Y591750D03*
X1063057Y591750D03*
X1056557Y591750D03*
X1050057Y591750D03*
X1043557Y591750D03*
X1037057Y591750D03*
X1030557Y591750D03*
X1024057Y591750D03*
X1017557Y591750D03*
X1011057Y591750D03*
X1004557Y591750D03*
X998057Y591750D03*
X1069557Y585250D03*
X1063057Y585250D03*
X1056557Y585250D03*
X1050057Y585250D03*
X1043557Y585250D03*
X1037057Y585250D03*
X1030557Y585250D03*
X1024057Y585250D03*
X1017557Y585250D03*
X1011057Y585250D03*
X1004557Y585250D03*
X998057Y585250D03*
X1069557Y578750D03*
X1063057Y578750D03*
X1056557Y578750D03*
X1050057Y578750D03*
X1043557Y578750D03*
X1037057Y578750D03*
X1030557Y578750D03*
X1024057Y578750D03*
X1017557Y578750D03*
X1011057Y578750D03*
X1004557Y578750D03*
X998057Y578750D03*
X1069557Y572250D03*
X1063057Y572250D03*
X1056557Y572250D03*
X1050057Y572250D03*
X1043557Y572250D03*
X1037057Y572250D03*
X1030557Y572250D03*
X1024057Y572250D03*
X1017557Y572250D03*
X1011057Y572250D03*
X1004557Y572250D03*
X998057Y572250D03*
X1069557Y565750D03*
X1063057Y565750D03*
X1056557Y565750D03*
X1050057Y565750D03*
X1043557Y565750D03*
X1037057Y565750D03*
X1030557Y565750D03*
X1024057Y565750D03*
X1017557Y565750D03*
X1011057Y565750D03*
X1004557Y565750D03*
X998057Y565750D03*
X1069557Y559250D03*
X1063057Y559250D03*
X1056557Y559250D03*
X1050057Y559250D03*
X1043557Y559250D03*
X1037057Y559250D03*
X1030557Y559250D03*
X1024057Y559250D03*
X1017557Y559250D03*
X1011057Y559250D03*
X1004557Y559250D03*
X998057Y559250D03*
X1069557Y552750D03*
X1063057Y552750D03*
X1056557Y552750D03*
X1050057Y552750D03*
X1043557Y552750D03*
X1037057Y552750D03*
X1030557Y552750D03*
X1024057Y552750D03*
X1017557Y552750D03*
X1011057Y552750D03*
X1004557Y552750D03*
X998057Y552750D03*
X1069557Y546250D03*
X1063057Y546250D03*
X1056557Y546250D03*
X1050057Y546250D03*
X1043557Y546250D03*
X1037057Y546250D03*
X1030557Y546250D03*
X1024057Y546250D03*
X1017557Y546250D03*
X1011057Y546250D03*
X1004557Y546250D03*
X998057Y546250D03*
D11*
X925587Y491990D02*
X925587Y485010D01*
X925587Y491990D02*
X932567Y491990D01*
X932567Y485010D01*
X925587Y485010D01*
X925587Y489810D02*
X932567Y489810D01*
X908047Y491990D02*
X908047Y485010D01*
X908047Y491990D02*
X915027Y491990D01*
X915027Y485010D01*
X908047Y485010D01*
X908047Y489810D02*
X915027Y489810D01*
D12*
X910307Y593500D03*
X910307Y603500D03*
D13*
X944307Y546000D03*
X944307Y571000D03*
D14*
X964227Y613350D03*
X969227Y613350D03*
X974227Y613350D03*
X979227Y613350D03*
X974227Y639850D03*
X979227Y639850D03*
X969227Y639850D03*
X964227Y639850D03*
D12*
X930307Y543500D03*
X930307Y553500D03*
X930307Y573500D03*
X930307Y563500D03*
X982307Y553500D03*
X982307Y563500D03*
X974307Y578500D03*
X964307Y578500D03*
X974307Y539500D03*
X964307Y539500D03*
D15*
X974307Y565250D03*
X974307Y551750D03*
X964307Y551750D03*
X964307Y565250D03*
D12*
X1110307Y513500D03*
X1110307Y523500D03*
X937507Y596900D03*
X947507Y596900D03*
X937507Y584200D03*
X947507Y584200D03*
D16*
X910307Y648500D03*
X1097307Y485500D03*
D17*
X1087807Y523500D03*
X1082807Y523500D03*
X1077807Y523500D03*
X1072807Y523500D03*
D18*
X1065307Y516000D03*
X1065307Y511000D03*
X1065307Y506000D03*
X1065307Y501000D03*
D17*
X1072807Y493500D03*
X1077807Y493500D03*
X1082807Y493500D03*
X1087807Y493500D03*
D18*
X1095307Y500850D03*
X1095307Y506000D03*
X1095307Y511000D03*
X1095307Y516000D03*
D19*
X1080307Y508500D03*
D12*
X1005307Y488500D03*
X1015307Y488500D03*
D11*
X1035027Y491990D02*
X1035027Y485010D01*
X1028047Y485010D01*
X1028047Y491990D01*
X1035027Y491990D01*
X1035027Y489810D02*
X1028047Y489810D01*
X1052567Y491990D02*
X1052567Y485010D01*
X1045587Y485010D01*
X1045587Y491990D01*
X1052567Y491990D01*
X1052567Y489810D02*
X1045587Y489810D01*
D12*
X1110307Y503500D03*
X1110307Y493500D03*
D20*
X945307Y634500D03*
X945307Y616500D03*
D21*
X917807Y685750D03*
X922807Y685750D03*
X927807Y685750D03*
X932807Y685750D03*
X937807Y685750D03*
X942807Y685750D03*
X947807Y685750D03*
X952807Y685750D03*
X957807Y685750D03*
X962807Y685750D03*
X967807Y685750D03*
X972807Y685750D03*
X997807Y685750D03*
X1002807Y685750D03*
X1007807Y685750D03*
X1012807Y685750D03*
X1017807Y685750D03*
X1022807Y685750D03*
X1027807Y685750D03*
X1032807Y685750D03*
X1037807Y685750D03*
X1042807Y685750D03*
X1047807Y685750D03*
X1052807Y685750D03*
X1057807Y685750D03*
X1062807Y685750D03*
X1067807Y685750D03*
X1072807Y685750D03*
X1077807Y685750D03*
X1082807Y685750D03*
X1087807Y685750D03*
X1092807Y685750D03*
X1097807Y685750D03*
X1102807Y685750D03*
D22*
X970307Y478500D03*
D10*
X1307652Y630750D03*
X1307652Y624250D03*
X1301152Y630750D03*
X1301152Y624250D03*
X1307652Y617750D03*
X1307652Y611250D03*
X1301152Y617750D03*
X1301152Y611250D03*
X1307652Y604750D03*
X1307652Y598250D03*
X1301152Y604750D03*
X1301152Y598250D03*
X1307652Y591750D03*
X1307652Y585250D03*
X1301152Y591750D03*
X1301152Y585250D03*
X1307652Y578750D03*
X1301152Y578750D03*
X1307652Y572250D03*
X1307652Y565750D03*
X1301152Y572250D03*
X1301152Y565750D03*
X1307652Y559250D03*
X1307652Y552750D03*
X1301152Y559250D03*
X1301152Y552750D03*
X1307652Y546250D03*
X1301152Y546250D03*
X1294652Y630750D03*
X1288152Y630750D03*
X1281652Y630750D03*
X1275152Y630750D03*
X1268652Y630750D03*
X1262152Y630750D03*
X1255652Y630750D03*
X1249152Y630750D03*
X1242652Y630750D03*
X1236152Y630750D03*
X1229652Y630750D03*
X1223152Y630750D03*
X1294652Y624250D03*
X1288152Y624250D03*
X1281652Y624250D03*
X1275152Y624250D03*
X1268652Y624250D03*
X1262152Y624250D03*
X1255652Y624250D03*
X1249152Y624250D03*
X1242652Y624250D03*
X1236152Y624250D03*
X1229652Y624250D03*
X1223152Y624250D03*
X1294652Y617750D03*
X1288152Y617750D03*
X1281652Y617750D03*
X1275152Y617750D03*
X1268652Y617750D03*
X1262152Y617750D03*
X1255652Y617750D03*
X1249152Y617750D03*
X1242652Y617750D03*
X1236152Y617750D03*
X1229652Y617750D03*
X1223152Y617750D03*
X1294652Y611250D03*
X1288152Y611250D03*
X1281652Y611250D03*
X1275152Y611250D03*
X1268652Y611250D03*
X1262152Y611250D03*
X1255652Y611250D03*
X1249152Y611250D03*
X1242652Y611250D03*
X1236152Y611250D03*
X1229652Y611250D03*
X1223152Y611250D03*
X1294652Y604750D03*
X1288152Y604750D03*
X1281652Y604750D03*
X1275152Y604750D03*
X1268652Y604750D03*
X1262152Y604750D03*
X1255652Y604750D03*
X1249152Y604750D03*
X1242652Y604750D03*
X1236152Y604750D03*
X1229652Y604750D03*
X1223152Y604750D03*
X1294652Y598250D03*
X1288152Y598250D03*
X1281652Y598250D03*
X1275152Y598250D03*
X1268652Y598250D03*
X1262152Y598250D03*
X1255652Y598250D03*
X1249152Y598250D03*
X1242652Y598250D03*
X1236152Y598250D03*
X1229652Y598250D03*
X1223152Y598250D03*
X1294652Y591750D03*
X1288152Y591750D03*
X1281652Y591750D03*
X1275152Y591750D03*
X1268652Y591750D03*
X1262152Y591750D03*
X1255652Y591750D03*
X1249152Y591750D03*
X1242652Y591750D03*
X1236152Y591750D03*
X1229652Y591750D03*
X1223152Y591750D03*
X1294652Y585250D03*
X1288152Y585250D03*
X1281652Y585250D03*
X1275152Y585250D03*
X1268652Y585250D03*
X1262152Y585250D03*
X1255652Y585250D03*
X1249152Y585250D03*
X1242652Y585250D03*
X1236152Y585250D03*
X1229652Y585250D03*
X1223152Y585250D03*
X1294652Y578750D03*
X1288152Y578750D03*
X1281652Y578750D03*
X1275152Y578750D03*
X1268652Y578750D03*
X1262152Y578750D03*
X1255652Y578750D03*
X1249152Y578750D03*
X1242652Y578750D03*
X1236152Y578750D03*
X1229652Y578750D03*
X1223152Y578750D03*
X1294652Y572250D03*
X1288152Y572250D03*
X1281652Y572250D03*
X1275152Y572250D03*
X1268652Y572250D03*
X1262152Y572250D03*
X1255652Y572250D03*
X1249152Y572250D03*
X1242652Y572250D03*
X1236152Y572250D03*
X1229652Y572250D03*
X1223152Y572250D03*
X1294652Y565750D03*
X1288152Y565750D03*
X1281652Y565750D03*
X1275152Y565750D03*
X1268652Y565750D03*
X1262152Y565750D03*
X1255652Y565750D03*
X1249152Y565750D03*
X1242652Y565750D03*
X1236152Y565750D03*
X1229652Y565750D03*
X1223152Y565750D03*
X1294652Y559250D03*
X1288152Y559250D03*
X1281652Y559250D03*
X1275152Y559250D03*
X1268652Y559250D03*
X1262152Y559250D03*
X1255652Y559250D03*
X1249152Y559250D03*
X1242652Y559250D03*
X1236152Y559250D03*
X1229652Y559250D03*
X1223152Y559250D03*
X1294652Y552750D03*
X1288152Y552750D03*
X1281652Y552750D03*
X1275152Y552750D03*
X1268652Y552750D03*
X1262152Y552750D03*
X1255652Y552750D03*
X1249152Y552750D03*
X1242652Y552750D03*
X1236152Y552750D03*
X1229652Y552750D03*
X1223152Y552750D03*
X1294652Y546250D03*
X1288152Y546250D03*
X1281652Y546250D03*
X1275152Y546250D03*
X1268652Y546250D03*
X1262152Y546250D03*
X1255652Y546250D03*
X1249152Y546250D03*
X1242652Y546250D03*
X1236152Y546250D03*
X1229652Y546250D03*
X1223152Y546250D03*
D11*
X1150682Y491990D02*
X1150682Y485010D01*
X1150682Y491990D02*
X1157662Y491990D01*
X1157662Y485010D01*
X1150682Y485010D01*
X1150682Y489810D02*
X1157662Y489810D01*
X1133142Y491990D02*
X1133142Y485010D01*
X1133142Y491990D02*
X1140122Y491990D01*
X1140122Y485010D01*
X1133142Y485010D01*
X1133142Y489810D02*
X1140122Y489810D01*
D12*
X1135402Y593500D03*
X1135402Y603500D03*
D13*
X1169402Y546000D03*
X1169402Y571000D03*
D14*
X1189322Y613350D03*
X1194322Y613350D03*
X1199322Y613350D03*
X1204322Y613350D03*
X1199322Y639850D03*
X1204322Y639850D03*
X1194322Y639850D03*
X1189322Y639850D03*
D12*
X1155402Y543500D03*
X1155402Y553500D03*
X1155402Y573500D03*
X1155402Y563500D03*
X1207402Y553500D03*
X1207402Y563500D03*
X1199402Y578500D03*
X1189402Y578500D03*
X1199402Y539500D03*
X1189402Y539500D03*
D15*
X1199402Y565250D03*
X1199402Y551750D03*
X1189402Y551750D03*
X1189402Y565250D03*
D12*
X1335402Y513500D03*
X1335402Y523500D03*
X1162602Y596900D03*
X1172602Y596900D03*
X1162602Y584200D03*
X1172602Y584200D03*
D16*
X1135402Y648500D03*
X1322402Y485500D03*
D17*
X1312902Y523500D03*
X1307902Y523500D03*
X1302902Y523500D03*
X1297902Y523500D03*
D18*
X1290402Y516000D03*
X1290402Y511000D03*
X1290402Y506000D03*
X1290402Y501000D03*
D17*
X1297902Y493500D03*
X1302902Y493500D03*
X1307902Y493500D03*
X1312902Y493500D03*
D18*
X1320402Y500850D03*
X1320402Y506000D03*
X1320402Y511000D03*
X1320402Y516000D03*
D19*
X1305402Y508500D03*
D12*
X1230402Y488500D03*
X1240402Y488500D03*
D11*
X1260122Y491990D02*
X1260122Y485010D01*
X1253142Y485010D01*
X1253142Y491990D01*
X1260122Y491990D01*
X1260122Y489810D02*
X1253142Y489810D01*
X1277662Y491990D02*
X1277662Y485010D01*
X1270682Y485010D01*
X1270682Y491990D01*
X1277662Y491990D01*
X1277662Y489810D02*
X1270682Y489810D01*
D12*
X1335402Y503500D03*
X1335402Y493500D03*
D20*
X1170402Y634500D03*
X1170402Y616500D03*
D21*
X1142902Y685750D03*
X1147902Y685750D03*
X1152902Y685750D03*
X1157902Y685750D03*
X1162902Y685750D03*
X1167902Y685750D03*
X1172902Y685750D03*
X1177902Y685750D03*
X1182902Y685750D03*
X1187902Y685750D03*
X1192902Y685750D03*
X1197902Y685750D03*
X1222902Y685750D03*
X1227902Y685750D03*
X1232902Y685750D03*
X1237902Y685750D03*
X1242902Y685750D03*
X1247902Y685750D03*
X1252902Y685750D03*
X1257902Y685750D03*
X1262902Y685750D03*
X1267902Y685750D03*
X1272902Y685750D03*
X1277902Y685750D03*
X1282902Y685750D03*
X1287902Y685750D03*
X1292902Y685750D03*
X1297902Y685750D03*
X1302902Y685750D03*
X1307902Y685750D03*
X1312902Y685750D03*
X1317902Y685750D03*
X1322902Y685750D03*
X1327902Y685750D03*
D22*
X1195402Y478500D03*
D10*
X1532721Y630750D03*
X1532721Y624250D03*
X1526221Y630750D03*
X1526221Y624250D03*
X1532721Y617750D03*
X1532721Y611250D03*
X1526221Y617750D03*
X1526221Y611250D03*
X1532721Y604750D03*
X1532721Y598250D03*
X1526221Y604750D03*
X1526221Y598250D03*
X1532721Y591750D03*
X1532721Y585250D03*
X1526221Y591750D03*
X1526221Y585250D03*
X1532721Y578750D03*
X1526221Y578750D03*
X1532721Y572250D03*
X1532721Y565750D03*
X1526221Y572250D03*
X1526221Y565750D03*
X1532721Y559250D03*
X1532721Y552750D03*
X1526221Y559250D03*
X1526221Y552750D03*
X1532721Y546250D03*
X1526221Y546250D03*
X1519721Y630750D03*
X1513221Y630750D03*
X1506721Y630750D03*
X1500221Y630750D03*
X1493721Y630750D03*
X1487221Y630750D03*
X1480721Y630750D03*
X1474221Y630750D03*
X1467721Y630750D03*
X1461221Y630750D03*
X1454721Y630750D03*
X1448221Y630750D03*
X1519721Y624250D03*
X1513221Y624250D03*
X1506721Y624250D03*
X1500221Y624250D03*
X1493721Y624250D03*
X1487221Y624250D03*
X1480721Y624250D03*
X1474221Y624250D03*
X1467721Y624250D03*
X1461221Y624250D03*
X1454721Y624250D03*
X1448221Y624250D03*
X1519721Y617750D03*
X1513221Y617750D03*
X1506721Y617750D03*
X1500221Y617750D03*
X1493721Y617750D03*
X1487221Y617750D03*
X1480721Y617750D03*
X1474221Y617750D03*
X1467721Y617750D03*
X1461221Y617750D03*
X1454721Y617750D03*
X1448221Y617750D03*
X1519721Y611250D03*
X1513221Y611250D03*
X1506721Y611250D03*
X1500221Y611250D03*
X1493721Y611250D03*
X1487221Y611250D03*
X1480721Y611250D03*
X1474221Y611250D03*
X1467721Y611250D03*
X1461221Y611250D03*
X1454721Y611250D03*
X1448221Y611250D03*
X1519721Y604750D03*
X1513221Y604750D03*
X1506721Y604750D03*
X1500221Y604750D03*
X1493721Y604750D03*
X1487221Y604750D03*
X1480721Y604750D03*
X1474221Y604750D03*
X1467721Y604750D03*
X1461221Y604750D03*
X1454721Y604750D03*
X1448221Y604750D03*
X1519721Y598250D03*
X1513221Y598250D03*
X1506721Y598250D03*
X1500221Y598250D03*
X1493721Y598250D03*
X1487221Y598250D03*
X1480721Y598250D03*
X1474221Y598250D03*
X1467721Y598250D03*
X1461221Y598250D03*
X1454721Y598250D03*
X1448221Y598250D03*
X1519721Y591750D03*
X1513221Y591750D03*
X1506721Y591750D03*
X1500221Y591750D03*
X1493721Y591750D03*
X1487221Y591750D03*
X1480721Y591750D03*
X1474221Y591750D03*
X1467721Y591750D03*
X1461221Y591750D03*
X1454721Y591750D03*
X1448221Y591750D03*
X1519721Y585250D03*
X1513221Y585250D03*
X1506721Y585250D03*
X1500221Y585250D03*
X1493721Y585250D03*
X1487221Y585250D03*
X1480721Y585250D03*
X1474221Y585250D03*
X1467721Y585250D03*
X1461221Y585250D03*
X1454721Y585250D03*
X1448221Y585250D03*
X1519721Y578750D03*
X1513221Y578750D03*
X1506721Y578750D03*
X1500221Y578750D03*
X1493721Y578750D03*
X1487221Y578750D03*
X1480721Y578750D03*
X1474221Y578750D03*
X1467721Y578750D03*
X1461221Y578750D03*
X1454721Y578750D03*
X1448221Y578750D03*
X1519721Y572250D03*
X1513221Y572250D03*
X1506721Y572250D03*
X1500221Y572250D03*
X1493721Y572250D03*
X1487221Y572250D03*
X1480721Y572250D03*
X1474221Y572250D03*
X1467721Y572250D03*
X1461221Y572250D03*
X1454721Y572250D03*
X1448221Y572250D03*
X1519721Y565750D03*
X1513221Y565750D03*
X1506721Y565750D03*
X1500221Y565750D03*
X1493721Y565750D03*
X1487221Y565750D03*
X1480721Y565750D03*
X1474221Y565750D03*
X1467721Y565750D03*
X1461221Y565750D03*
X1454721Y565750D03*
X1448221Y565750D03*
X1519721Y559250D03*
X1513221Y559250D03*
X1506721Y559250D03*
X1500221Y559250D03*
X1493721Y559250D03*
X1487221Y559250D03*
X1480721Y559250D03*
X1474221Y559250D03*
X1467721Y559250D03*
X1461221Y559250D03*
X1454721Y559250D03*
X1448221Y559250D03*
X1519721Y552750D03*
X1513221Y552750D03*
X1506721Y552750D03*
X1500221Y552750D03*
X1493721Y552750D03*
X1487221Y552750D03*
X1480721Y552750D03*
X1474221Y552750D03*
X1467721Y552750D03*
X1461221Y552750D03*
X1454721Y552750D03*
X1448221Y552750D03*
X1519721Y546250D03*
X1513221Y546250D03*
X1506721Y546250D03*
X1500221Y546250D03*
X1493721Y546250D03*
X1487221Y546250D03*
X1480721Y546250D03*
X1474221Y546250D03*
X1467721Y546250D03*
X1461221Y546250D03*
X1454721Y546250D03*
X1448221Y546250D03*
D11*
X1375751Y491990D02*
X1375751Y485010D01*
X1375751Y491990D02*
X1382731Y491990D01*
X1382731Y485010D01*
X1375751Y485010D01*
X1375751Y489810D02*
X1382731Y489810D01*
X1358211Y491990D02*
X1358211Y485010D01*
X1358211Y491990D02*
X1365191Y491990D01*
X1365191Y485010D01*
X1358211Y485010D01*
X1358211Y489810D02*
X1365191Y489810D01*
D12*
X1360471Y593500D03*
X1360471Y603500D03*
D13*
X1394471Y546000D03*
X1394471Y571000D03*
D14*
X1414391Y613350D03*
X1419391Y613350D03*
X1424391Y613350D03*
X1429391Y613350D03*
X1424391Y639850D03*
X1429391Y639850D03*
X1419391Y639850D03*
X1414391Y639850D03*
D12*
X1380471Y543500D03*
X1380471Y553500D03*
X1380471Y573500D03*
X1380471Y563500D03*
X1432471Y553500D03*
X1432471Y563500D03*
X1424471Y578500D03*
X1414471Y578500D03*
X1424471Y539500D03*
X1414471Y539500D03*
D15*
X1424471Y565250D03*
X1424471Y551750D03*
X1414471Y551750D03*
X1414471Y565250D03*
D12*
X1560471Y513500D03*
X1560471Y523500D03*
X1387671Y596900D03*
X1397671Y596900D03*
X1387671Y584200D03*
X1397671Y584200D03*
D16*
X1360471Y648500D03*
X1547471Y485500D03*
D17*
X1537971Y523500D03*
X1532971Y523500D03*
X1527971Y523500D03*
X1522971Y523500D03*
D18*
X1515471Y516000D03*
X1515471Y511000D03*
X1515471Y506000D03*
X1515471Y501000D03*
D17*
X1522971Y493500D03*
X1527971Y493500D03*
X1532971Y493500D03*
X1537971Y493500D03*
D18*
X1545471Y500850D03*
X1545471Y506000D03*
X1545471Y511000D03*
X1545471Y516000D03*
D19*
X1530471Y508500D03*
D12*
X1455471Y488500D03*
X1465471Y488500D03*
D11*
X1485191Y491990D02*
X1485191Y485010D01*
X1478211Y485010D01*
X1478211Y491990D01*
X1485191Y491990D01*
X1485191Y489810D02*
X1478211Y489810D01*
X1502731Y491990D02*
X1502731Y485010D01*
X1495751Y485010D01*
X1495751Y491990D01*
X1502731Y491990D01*
X1502731Y489810D02*
X1495751Y489810D01*
D12*
X1560471Y503500D03*
X1560471Y493500D03*
D20*
X1395471Y634500D03*
X1395471Y616500D03*
D21*
X1367971Y685750D03*
X1372971Y685750D03*
X1377971Y685750D03*
X1382971Y685750D03*
X1387971Y685750D03*
X1392971Y685750D03*
X1397971Y685750D03*
X1402971Y685750D03*
X1407971Y685750D03*
X1412971Y685750D03*
X1417971Y685750D03*
X1422971Y685750D03*
X1447971Y685750D03*
X1452971Y685750D03*
X1457971Y685750D03*
X1462971Y685750D03*
X1467971Y685750D03*
X1472971Y685750D03*
X1477971Y685750D03*
X1482971Y685750D03*
X1487971Y685750D03*
X1492971Y685750D03*
X1497971Y685750D03*
X1502971Y685750D03*
X1507971Y685750D03*
X1512971Y685750D03*
X1517971Y685750D03*
X1522971Y685750D03*
X1527971Y685750D03*
X1532971Y685750D03*
X1537971Y685750D03*
X1542971Y685750D03*
X1547971Y685750D03*
X1552971Y685750D03*
D22*
X1420471Y478500D03*
D10*
X1757791Y630750D03*
X1757791Y624250D03*
X1751291Y630750D03*
X1751291Y624250D03*
X1757791Y617750D03*
X1757791Y611250D03*
X1751291Y617750D03*
X1751291Y611250D03*
X1757791Y604750D03*
X1757791Y598250D03*
X1751291Y604750D03*
X1751291Y598250D03*
X1757791Y591750D03*
X1757791Y585250D03*
X1751291Y591750D03*
X1751291Y585250D03*
X1757791Y578750D03*
X1751291Y578750D03*
X1757791Y572250D03*
X1757791Y565750D03*
X1751291Y572250D03*
X1751291Y565750D03*
X1757791Y559250D03*
X1757791Y552750D03*
X1751291Y559250D03*
X1751291Y552750D03*
X1757791Y546250D03*
X1751291Y546250D03*
X1744791Y630750D03*
X1738291Y630750D03*
X1731791Y630750D03*
X1725291Y630750D03*
X1718791Y630750D03*
X1712291Y630750D03*
X1705791Y630750D03*
X1699291Y630750D03*
X1692791Y630750D03*
X1686291Y630750D03*
X1679791Y630750D03*
X1673291Y630750D03*
X1744791Y624250D03*
X1738291Y624250D03*
X1731791Y624250D03*
X1725291Y624250D03*
X1718791Y624250D03*
X1712291Y624250D03*
X1705791Y624250D03*
X1699291Y624250D03*
X1692791Y624250D03*
X1686291Y624250D03*
X1679791Y624250D03*
X1673291Y624250D03*
X1744791Y617750D03*
X1738291Y617750D03*
X1731791Y617750D03*
X1725291Y617750D03*
X1718791Y617750D03*
X1712291Y617750D03*
X1705791Y617750D03*
X1699291Y617750D03*
X1692791Y617750D03*
X1686291Y617750D03*
X1679791Y617750D03*
X1673291Y617750D03*
X1744791Y611250D03*
X1738291Y611250D03*
X1731791Y611250D03*
X1725291Y611250D03*
X1718791Y611250D03*
X1712291Y611250D03*
X1705791Y611250D03*
X1699291Y611250D03*
X1692791Y611250D03*
X1686291Y611250D03*
X1679791Y611250D03*
X1673291Y611250D03*
X1744791Y604750D03*
X1738291Y604750D03*
X1731791Y604750D03*
X1725291Y604750D03*
X1718791Y604750D03*
X1712291Y604750D03*
X1705791Y604750D03*
X1699291Y604750D03*
X1692791Y604750D03*
X1686291Y604750D03*
X1679791Y604750D03*
X1673291Y604750D03*
X1744791Y598250D03*
X1738291Y598250D03*
X1731791Y598250D03*
X1725291Y598250D03*
X1718791Y598250D03*
X1712291Y598250D03*
X1705791Y598250D03*
X1699291Y598250D03*
X1692791Y598250D03*
X1686291Y598250D03*
X1679791Y598250D03*
X1673291Y598250D03*
X1744791Y591750D03*
X1738291Y591750D03*
X1731791Y591750D03*
X1725291Y591750D03*
X1718791Y591750D03*
X1712291Y591750D03*
X1705791Y591750D03*
X1699291Y591750D03*
X1692791Y591750D03*
X1686291Y591750D03*
X1679791Y591750D03*
X1673291Y591750D03*
X1744791Y585250D03*
X1738291Y585250D03*
X1731791Y585250D03*
X1725291Y585250D03*
X1718791Y585250D03*
X1712291Y585250D03*
X1705791Y585250D03*
X1699291Y585250D03*
X1692791Y585250D03*
X1686291Y585250D03*
X1679791Y585250D03*
X1673291Y585250D03*
X1744791Y578750D03*
X1738291Y578750D03*
X1731791Y578750D03*
X1725291Y578750D03*
X1718791Y578750D03*
X1712291Y578750D03*
X1705791Y578750D03*
X1699291Y578750D03*
X1692791Y578750D03*
X1686291Y578750D03*
X1679791Y578750D03*
X1673291Y578750D03*
X1744791Y572250D03*
X1738291Y572250D03*
X1731791Y572250D03*
X1725291Y572250D03*
X1718791Y572250D03*
X1712291Y572250D03*
X1705791Y572250D03*
X1699291Y572250D03*
X1692791Y572250D03*
X1686291Y572250D03*
X1679791Y572250D03*
X1673291Y572250D03*
X1744791Y565750D03*
X1738291Y565750D03*
X1731791Y565750D03*
X1725291Y565750D03*
X1718791Y565750D03*
X1712291Y565750D03*
X1705791Y565750D03*
X1699291Y565750D03*
X1692791Y565750D03*
X1686291Y565750D03*
X1679791Y565750D03*
X1673291Y565750D03*
X1744791Y559250D03*
X1738291Y559250D03*
X1731791Y559250D03*
X1725291Y559250D03*
X1718791Y559250D03*
X1712291Y559250D03*
X1705791Y559250D03*
X1699291Y559250D03*
X1692791Y559250D03*
X1686291Y559250D03*
X1679791Y559250D03*
X1673291Y559250D03*
X1744791Y552750D03*
X1738291Y552750D03*
X1731791Y552750D03*
X1725291Y552750D03*
X1718791Y552750D03*
X1712291Y552750D03*
X1705791Y552750D03*
X1699291Y552750D03*
X1692791Y552750D03*
X1686291Y552750D03*
X1679791Y552750D03*
X1673291Y552750D03*
X1744791Y546250D03*
X1738291Y546250D03*
X1731791Y546250D03*
X1725291Y546250D03*
X1718791Y546250D03*
X1712291Y546250D03*
X1705791Y546250D03*
X1699291Y546250D03*
X1692791Y546250D03*
X1686291Y546250D03*
X1679791Y546250D03*
X1673291Y546250D03*
D11*
X1600821Y491990D02*
X1600821Y485010D01*
X1600821Y491990D02*
X1607801Y491990D01*
X1607801Y485010D01*
X1600821Y485010D01*
X1600821Y489810D02*
X1607801Y489810D01*
X1583281Y491990D02*
X1583281Y485010D01*
X1583281Y491990D02*
X1590261Y491990D01*
X1590261Y485010D01*
X1583281Y485010D01*
X1583281Y489810D02*
X1590261Y489810D01*
D12*
X1585541Y593500D03*
X1585541Y603500D03*
D13*
X1619541Y546000D03*
X1619541Y571000D03*
D14*
X1639461Y613350D03*
X1644461Y613350D03*
X1649461Y613350D03*
X1654461Y613350D03*
X1649461Y639850D03*
X1654461Y639850D03*
X1644461Y639850D03*
X1639461Y639850D03*
D12*
X1605541Y543500D03*
X1605541Y553500D03*
X1605541Y573500D03*
X1605541Y563500D03*
X1657541Y553500D03*
X1657541Y563500D03*
X1649541Y578500D03*
X1639541Y578500D03*
X1649541Y539500D03*
X1639541Y539500D03*
D15*
X1649541Y565250D03*
X1649541Y551750D03*
X1639541Y551750D03*
X1639541Y565250D03*
D12*
X1785541Y513500D03*
X1785541Y523500D03*
X1612741Y596900D03*
X1622741Y596900D03*
X1612741Y584200D03*
X1622741Y584200D03*
D16*
X1585541Y648500D03*
X1772541Y485500D03*
D17*
X1763041Y523500D03*
X1758041Y523500D03*
X1753041Y523500D03*
X1748041Y523500D03*
D18*
X1740541Y516000D03*
X1740541Y511000D03*
X1740541Y506000D03*
X1740541Y501000D03*
D17*
X1748041Y493500D03*
X1753041Y493500D03*
X1758041Y493500D03*
X1763041Y493500D03*
D18*
X1770541Y500850D03*
X1770541Y506000D03*
X1770541Y511000D03*
X1770541Y516000D03*
D19*
X1755541Y508500D03*
D12*
X1680541Y488500D03*
X1690541Y488500D03*
D11*
X1710261Y491990D02*
X1710261Y485010D01*
X1703281Y485010D01*
X1703281Y491990D01*
X1710261Y491990D01*
X1710261Y489810D02*
X1703281Y489810D01*
X1727801Y491990D02*
X1727801Y485010D01*
X1720821Y485010D01*
X1720821Y491990D01*
X1727801Y491990D01*
X1727801Y489810D02*
X1720821Y489810D01*
D12*
X1785541Y503500D03*
X1785541Y493500D03*
D20*
X1620541Y634500D03*
X1620541Y616500D03*
D21*
X1593041Y685750D03*
X1598041Y685750D03*
X1603041Y685750D03*
X1608041Y685750D03*
X1613041Y685750D03*
X1618041Y685750D03*
X1623041Y685750D03*
X1628041Y685750D03*
X1633041Y685750D03*
X1638041Y685750D03*
X1643041Y685750D03*
X1648041Y685750D03*
X1673041Y685750D03*
X1678041Y685750D03*
X1683041Y685750D03*
X1688041Y685750D03*
X1693041Y685750D03*
X1698041Y685750D03*
X1703041Y685750D03*
X1708041Y685750D03*
X1713041Y685750D03*
X1718041Y685750D03*
X1723041Y685750D03*
X1728041Y685750D03*
X1733041Y685750D03*
X1738041Y685750D03*
X1743041Y685750D03*
X1748041Y685750D03*
X1753041Y685750D03*
X1758041Y685750D03*
X1763041Y685750D03*
X1768041Y685750D03*
X1773041Y685750D03*
X1778041Y685750D03*
D22*
X1645541Y478500D03*
D23*
X-26238Y635000D03*
X1821815Y635000D03*
D24*
X-35293Y68580D02*
X-35290Y68802D01*
X-35282Y69024D01*
X-35268Y69246D01*
X-35249Y69468D01*
X-35225Y69688D01*
X-35195Y69909D01*
X-35160Y70128D01*
X-35119Y70347D01*
X-35073Y70564D01*
X-35022Y70780D01*
X-34965Y70995D01*
X-34903Y71209D01*
X-34836Y71420D01*
X-34764Y71631D01*
X-34686Y71839D01*
X-34604Y72045D01*
X-34516Y72249D01*
X-34424Y72452D01*
X-34326Y72651D01*
X-34224Y72848D01*
X-34117Y73043D01*
X-34005Y73235D01*
X-33888Y73424D01*
X-33767Y73611D01*
X-33641Y73794D01*
X-33511Y73974D01*
X-33376Y74151D01*
X-33238Y74324D01*
X-33095Y74494D01*
X-32947Y74661D01*
X-32796Y74824D01*
X-32641Y74983D01*
X-32482Y75138D01*
X-32319Y75289D01*
X-32152Y75437D01*
X-31982Y75580D01*
X-31809Y75718D01*
X-31632Y75853D01*
X-31452Y75983D01*
X-31269Y76109D01*
X-31082Y76230D01*
X-30893Y76347D01*
X-30701Y76459D01*
X-30506Y76566D01*
X-30309Y76668D01*
X-30110Y76766D01*
X-29907Y76858D01*
X-29703Y76946D01*
X-29497Y77028D01*
X-29289Y77106D01*
X-29078Y77178D01*
X-28867Y77245D01*
X-28653Y77307D01*
X-28438Y77364D01*
X-28222Y77415D01*
X-28005Y77461D01*
X-27786Y77502D01*
X-27567Y77537D01*
X-27346Y77567D01*
X-27126Y77591D01*
X-26904Y77610D01*
X-26682Y77624D01*
X-26460Y77632D01*
X-26238Y77635D01*
X-26016Y77632D01*
X-25794Y77624D01*
X-25572Y77610D01*
X-25350Y77591D01*
X-25130Y77567D01*
X-24909Y77537D01*
X-24690Y77502D01*
X-24471Y77461D01*
X-24254Y77415D01*
X-24038Y77364D01*
X-23823Y77307D01*
X-23609Y77245D01*
X-23398Y77178D01*
X-23187Y77106D01*
X-22979Y77028D01*
X-22773Y76946D01*
X-22569Y76858D01*
X-22366Y76766D01*
X-22167Y76668D01*
X-21970Y76566D01*
X-21775Y76459D01*
X-21583Y76347D01*
X-21394Y76230D01*
X-21207Y76109D01*
X-21024Y75983D01*
X-20844Y75853D01*
X-20667Y75718D01*
X-20494Y75580D01*
X-20324Y75437D01*
X-20157Y75289D01*
X-19994Y75138D01*
X-19835Y74983D01*
X-19680Y74824D01*
X-19529Y74661D01*
X-19381Y74494D01*
X-19238Y74324D01*
X-19100Y74151D01*
X-18965Y73974D01*
X-18835Y73794D01*
X-18709Y73611D01*
X-18588Y73424D01*
X-18471Y73235D01*
X-18359Y73043D01*
X-18252Y72848D01*
X-18150Y72651D01*
X-18052Y72452D01*
X-17960Y72249D01*
X-17872Y72045D01*
X-17790Y71839D01*
X-17712Y71631D01*
X-17640Y71420D01*
X-17573Y71209D01*
X-17511Y70995D01*
X-17454Y70780D01*
X-17403Y70564D01*
X-17357Y70347D01*
X-17316Y70128D01*
X-17281Y69909D01*
X-17251Y69688D01*
X-17227Y69468D01*
X-17208Y69246D01*
X-17194Y69024D01*
X-17186Y68802D01*
X-17183Y68580D01*
X-17186Y68358D01*
X-17194Y68136D01*
X-17208Y67914D01*
X-17227Y67692D01*
X-17251Y67472D01*
X-17281Y67251D01*
X-17316Y67032D01*
X-17357Y66813D01*
X-17403Y66596D01*
X-17454Y66380D01*
X-17511Y66165D01*
X-17573Y65951D01*
X-17640Y65740D01*
X-17712Y65529D01*
X-17790Y65321D01*
X-17872Y65115D01*
X-17960Y64911D01*
X-18052Y64708D01*
X-18150Y64509D01*
X-18252Y64312D01*
X-18359Y64117D01*
X-18471Y63925D01*
X-18588Y63736D01*
X-18709Y63549D01*
X-18835Y63366D01*
X-18965Y63186D01*
X-19100Y63009D01*
X-19238Y62836D01*
X-19381Y62666D01*
X-19529Y62499D01*
X-19680Y62336D01*
X-19835Y62177D01*
X-19994Y62022D01*
X-20157Y61871D01*
X-20324Y61723D01*
X-20494Y61580D01*
X-20667Y61442D01*
X-20844Y61307D01*
X-21024Y61177D01*
X-21207Y61051D01*
X-21394Y60930D01*
X-21583Y60813D01*
X-21775Y60701D01*
X-21970Y60594D01*
X-22167Y60492D01*
X-22366Y60394D01*
X-22569Y60302D01*
X-22773Y60214D01*
X-22979Y60132D01*
X-23187Y60054D01*
X-23398Y59982D01*
X-23609Y59915D01*
X-23823Y59853D01*
X-24038Y59796D01*
X-24254Y59745D01*
X-24471Y59699D01*
X-24690Y59658D01*
X-24909Y59623D01*
X-25130Y59593D01*
X-25350Y59569D01*
X-25572Y59550D01*
X-25794Y59536D01*
X-26016Y59528D01*
X-26238Y59525D01*
X-26460Y59528D01*
X-26682Y59536D01*
X-26904Y59550D01*
X-27126Y59569D01*
X-27346Y59593D01*
X-27567Y59623D01*
X-27786Y59658D01*
X-28005Y59699D01*
X-28222Y59745D01*
X-28438Y59796D01*
X-28653Y59853D01*
X-28867Y59915D01*
X-29078Y59982D01*
X-29289Y60054D01*
X-29497Y60132D01*
X-29703Y60214D01*
X-29907Y60302D01*
X-30110Y60394D01*
X-30309Y60492D01*
X-30506Y60594D01*
X-30701Y60701D01*
X-30893Y60813D01*
X-31082Y60930D01*
X-31269Y61051D01*
X-31452Y61177D01*
X-31632Y61307D01*
X-31809Y61442D01*
X-31982Y61580D01*
X-32152Y61723D01*
X-32319Y61871D01*
X-32482Y62022D01*
X-32641Y62177D01*
X-32796Y62336D01*
X-32947Y62499D01*
X-33095Y62666D01*
X-33238Y62836D01*
X-33376Y63009D01*
X-33511Y63186D01*
X-33641Y63366D01*
X-33767Y63549D01*
X-33888Y63736D01*
X-34005Y63925D01*
X-34117Y64117D01*
X-34224Y64312D01*
X-34326Y64509D01*
X-34424Y64708D01*
X-34516Y64911D01*
X-34604Y65115D01*
X-34686Y65321D01*
X-34764Y65529D01*
X-34836Y65740D01*
X-34903Y65951D01*
X-34965Y66165D01*
X-35022Y66380D01*
X-35073Y66596D01*
X-35119Y66813D01*
X-35160Y67032D01*
X-35195Y67251D01*
X-35225Y67472D01*
X-35249Y67692D01*
X-35268Y67914D01*
X-35282Y68136D01*
X-35290Y68358D01*
X-35293Y68580D01*
D25*
X-26238Y68580D03*
M02*
