G04 EAGLE Gerber RS-274X export*
G75*
%MOMM*%
%FSLAX34Y34*%
%LPD*%
%INSoldermask Top*%
%IPPOS*%
%AMOC8*
5,1,8,0,0,1.08239X$1,22.5*%
G01*
%ADD10C,0.437200*%
%ADD11C,0.505344*%
%ADD12R,0.803200X0.803200*%
%ADD13R,2.003200X1.203200*%
%ADD14R,0.903200X0.953200*%
%ADD15C,0.838200*%
%ADD16R,0.493200X1.103200*%
%ADD17R,1.103200X0.493200*%
%ADD18R,1.803200X1.803200*%
%ADD19R,2.203200X1.003200*%
%ADD20R,0.553200X1.653200*%
%ADD21C,0.555600*%
%ADD22C,1.203200*%
%ADD23C,1.270000*%
%ADD24C,1.703200*%

G36*
X52496Y478151D02*
X52496Y478151D01*
X52503Y478150D01*
X52563Y478171D01*
X52624Y478188D01*
X52628Y478194D01*
X52635Y478196D01*
X52674Y478246D01*
X52716Y478294D01*
X52717Y478301D01*
X52721Y478306D01*
X52738Y478379D01*
X52952Y481097D01*
X53584Y483729D01*
X54620Y486230D01*
X56034Y488538D01*
X57792Y490596D01*
X59850Y492354D01*
X62158Y493768D01*
X64659Y494804D01*
X67291Y495436D01*
X69989Y495648D01*
X72688Y495436D01*
X75320Y494804D01*
X77821Y493768D01*
X80129Y492354D01*
X82187Y490596D01*
X83945Y488538D01*
X85359Y486230D01*
X86395Y483729D01*
X87027Y481097D01*
X87241Y478379D01*
X87244Y478372D01*
X87242Y478365D01*
X87268Y478307D01*
X87291Y478248D01*
X87296Y478244D01*
X87299Y478237D01*
X87352Y478202D01*
X87403Y478165D01*
X87410Y478164D01*
X87416Y478160D01*
X87489Y478149D01*
X97489Y478149D01*
X97514Y478156D01*
X97540Y478154D01*
X97580Y478176D01*
X97624Y478188D01*
X97641Y478208D01*
X97664Y478220D01*
X97686Y478260D01*
X97716Y478294D01*
X97719Y478319D01*
X97732Y478342D01*
X97738Y478416D01*
X97458Y482330D01*
X97455Y482339D01*
X97453Y482365D01*
X96619Y486199D01*
X96614Y486208D01*
X96609Y486233D01*
X95238Y489909D01*
X95232Y489917D01*
X95223Y489942D01*
X93343Y493385D01*
X93336Y493392D01*
X93323Y493415D01*
X90972Y496556D01*
X90964Y496562D01*
X90949Y496583D01*
X88174Y499358D01*
X88166Y499362D01*
X88147Y499381D01*
X85006Y501732D01*
X84997Y501736D01*
X84976Y501752D01*
X81533Y503632D01*
X81523Y503634D01*
X81500Y503647D01*
X77824Y505018D01*
X77815Y505019D01*
X77790Y505028D01*
X73956Y505862D01*
X73946Y505861D01*
X73921Y505867D01*
X70007Y506147D01*
X69998Y506145D01*
X69972Y506147D01*
X66058Y505867D01*
X66049Y505864D01*
X66023Y505862D01*
X62189Y505028D01*
X62180Y505023D01*
X62155Y505018D01*
X58478Y503647D01*
X58471Y503641D01*
X58446Y503632D01*
X55002Y501752D01*
X54996Y501745D01*
X54972Y501732D01*
X51831Y499381D01*
X51826Y499373D01*
X51805Y499358D01*
X49030Y496583D01*
X49025Y496575D01*
X49007Y496556D01*
X46655Y493415D01*
X46652Y493406D01*
X46636Y493385D01*
X44756Y489942D01*
X44754Y489932D01*
X44741Y489909D01*
X43370Y486233D01*
X43369Y486224D01*
X43360Y486199D01*
X42526Y482365D01*
X42526Y482355D01*
X42521Y482330D01*
X42241Y478416D01*
X42246Y478391D01*
X42242Y478365D01*
X42261Y478324D01*
X42270Y478280D01*
X42289Y478261D01*
X42299Y478237D01*
X42337Y478212D01*
X42369Y478180D01*
X42394Y478175D01*
X42416Y478160D01*
X42489Y478149D01*
X52489Y478149D01*
X52496Y478151D01*
G37*
G36*
X932505Y478151D02*
X932505Y478151D01*
X932512Y478150D01*
X932571Y478171D01*
X932632Y478188D01*
X932637Y478194D01*
X932644Y478196D01*
X932682Y478246D01*
X932724Y478294D01*
X932725Y478301D01*
X932729Y478306D01*
X932746Y478379D01*
X932960Y481097D01*
X933592Y483729D01*
X934628Y486230D01*
X936042Y488538D01*
X937800Y490596D01*
X939859Y492354D01*
X942166Y493768D01*
X944667Y494804D01*
X947299Y495436D01*
X949998Y495648D01*
X952696Y495436D01*
X955328Y494804D01*
X957829Y493768D01*
X960137Y492354D01*
X962195Y490596D01*
X963953Y488538D01*
X965368Y486230D01*
X966404Y483729D01*
X967035Y481097D01*
X967249Y478379D01*
X967252Y478372D01*
X967251Y478365D01*
X967277Y478307D01*
X967299Y478248D01*
X967305Y478244D01*
X967308Y478237D01*
X967360Y478202D01*
X967411Y478165D01*
X967418Y478164D01*
X967424Y478160D01*
X967498Y478149D01*
X977498Y478149D01*
X977523Y478156D01*
X977549Y478154D01*
X977589Y478176D01*
X977632Y478188D01*
X977649Y478208D01*
X977672Y478220D01*
X977694Y478260D01*
X977724Y478294D01*
X977728Y478319D01*
X977741Y478342D01*
X977746Y478416D01*
X977467Y482330D01*
X977463Y482339D01*
X977461Y482365D01*
X976627Y486199D01*
X976623Y486208D01*
X976617Y486233D01*
X975246Y489909D01*
X975240Y489917D01*
X975231Y489942D01*
X973351Y493385D01*
X973344Y493392D01*
X973332Y493415D01*
X970980Y496556D01*
X970973Y496562D01*
X970957Y496583D01*
X968183Y499358D01*
X968174Y499362D01*
X968156Y499381D01*
X965015Y501732D01*
X965006Y501736D01*
X964985Y501752D01*
X961541Y503632D01*
X961532Y503634D01*
X961509Y503647D01*
X957833Y505018D01*
X957823Y505019D01*
X957798Y505028D01*
X953964Y505862D01*
X953955Y505861D01*
X953929Y505867D01*
X950016Y506147D01*
X950006Y506145D01*
X949980Y506147D01*
X946066Y505867D01*
X946057Y505864D01*
X946031Y505862D01*
X942197Y505028D01*
X942189Y505023D01*
X942163Y505018D01*
X938487Y503647D01*
X938479Y503641D01*
X938454Y503632D01*
X935011Y501752D01*
X935004Y501745D01*
X934981Y501732D01*
X931840Y499381D01*
X931834Y499373D01*
X931813Y499358D01*
X929038Y496583D01*
X929034Y496575D01*
X929015Y496556D01*
X926664Y493415D01*
X926660Y493406D01*
X926645Y493385D01*
X924764Y489942D01*
X924762Y489932D01*
X924749Y489909D01*
X923378Y486233D01*
X923378Y486224D01*
X923368Y486199D01*
X922534Y482365D01*
X922535Y482355D01*
X922529Y482330D01*
X922249Y478416D01*
X922255Y478391D01*
X922251Y478365D01*
X922269Y478324D01*
X922279Y478280D01*
X922297Y478261D01*
X922308Y478237D01*
X922345Y478212D01*
X922377Y478180D01*
X922403Y478175D01*
X922424Y478160D01*
X922498Y478149D01*
X932498Y478149D01*
X932505Y478151D01*
G37*
G36*
X1372509Y478151D02*
X1372509Y478151D01*
X1372516Y478150D01*
X1372575Y478171D01*
X1372636Y478188D01*
X1372641Y478194D01*
X1372648Y478196D01*
X1372687Y478246D01*
X1372728Y478294D01*
X1372729Y478301D01*
X1372734Y478306D01*
X1372750Y478379D01*
X1372964Y481097D01*
X1373596Y483729D01*
X1374632Y486230D01*
X1376046Y488538D01*
X1377804Y490596D01*
X1379863Y492354D01*
X1382171Y493768D01*
X1384671Y494804D01*
X1387304Y495436D01*
X1390002Y495648D01*
X1392700Y495436D01*
X1395333Y494804D01*
X1397833Y493768D01*
X1400141Y492354D01*
X1402200Y490596D01*
X1403958Y488538D01*
X1405372Y486230D01*
X1406408Y483729D01*
X1407040Y481097D01*
X1407254Y478379D01*
X1407256Y478372D01*
X1407255Y478365D01*
X1407281Y478307D01*
X1407303Y478248D01*
X1407309Y478244D01*
X1407312Y478237D01*
X1407365Y478202D01*
X1407415Y478165D01*
X1407423Y478164D01*
X1407429Y478160D01*
X1407502Y478149D01*
X1417502Y478149D01*
X1417527Y478156D01*
X1417553Y478154D01*
X1417593Y478176D01*
X1417636Y478188D01*
X1417653Y478208D01*
X1417676Y478220D01*
X1417698Y478260D01*
X1417728Y478294D01*
X1417732Y478319D01*
X1417745Y478342D01*
X1417751Y478416D01*
X1417471Y482330D01*
X1417467Y482339D01*
X1417466Y482365D01*
X1416632Y486199D01*
X1416627Y486208D01*
X1416622Y486233D01*
X1415250Y489909D01*
X1415245Y489917D01*
X1415236Y489942D01*
X1413355Y493385D01*
X1413348Y493392D01*
X1413336Y493415D01*
X1410985Y496556D01*
X1410977Y496562D01*
X1410961Y496583D01*
X1408187Y499358D01*
X1408178Y499362D01*
X1408160Y499381D01*
X1405019Y501732D01*
X1405010Y501736D01*
X1404989Y501752D01*
X1401545Y503632D01*
X1401536Y503634D01*
X1401513Y503647D01*
X1397837Y505018D01*
X1397827Y505019D01*
X1397803Y505028D01*
X1393969Y505862D01*
X1393959Y505861D01*
X1393933Y505867D01*
X1390020Y506147D01*
X1390010Y506145D01*
X1389984Y506147D01*
X1386071Y505867D01*
X1386061Y505864D01*
X1386035Y505862D01*
X1382201Y505028D01*
X1382193Y505023D01*
X1382167Y505018D01*
X1378491Y503647D01*
X1378483Y503641D01*
X1378459Y503632D01*
X1375015Y501752D01*
X1375008Y501745D01*
X1374985Y501732D01*
X1371844Y499381D01*
X1371838Y499373D01*
X1371817Y499358D01*
X1369043Y496583D01*
X1369038Y496575D01*
X1369019Y496556D01*
X1366668Y493415D01*
X1366665Y493406D01*
X1366649Y493385D01*
X1364768Y489942D01*
X1364766Y489932D01*
X1364754Y489909D01*
X1363382Y486233D01*
X1363382Y486224D01*
X1363372Y486199D01*
X1362538Y482365D01*
X1362539Y482355D01*
X1362533Y482330D01*
X1362253Y478416D01*
X1362259Y478391D01*
X1362255Y478365D01*
X1362273Y478324D01*
X1362283Y478280D01*
X1362301Y478261D01*
X1362312Y478237D01*
X1362350Y478212D01*
X1362381Y478180D01*
X1362407Y478175D01*
X1362429Y478160D01*
X1362502Y478149D01*
X1372502Y478149D01*
X1372509Y478151D01*
G37*
G36*
X492501Y478151D02*
X492501Y478151D01*
X492508Y478150D01*
X492567Y478171D01*
X492628Y478188D01*
X492633Y478194D01*
X492639Y478196D01*
X492678Y478246D01*
X492720Y478294D01*
X492721Y478301D01*
X492725Y478306D01*
X492742Y478379D01*
X492956Y481097D01*
X493588Y483729D01*
X494624Y486230D01*
X496038Y488538D01*
X497796Y490596D01*
X499854Y492354D01*
X502162Y493768D01*
X504663Y494804D01*
X507295Y495436D01*
X509994Y495648D01*
X512692Y495436D01*
X515324Y494804D01*
X517825Y493768D01*
X520133Y492354D01*
X522191Y490596D01*
X523949Y488538D01*
X525363Y486230D01*
X526399Y483729D01*
X527031Y481097D01*
X527245Y478379D01*
X527248Y478372D01*
X527247Y478365D01*
X527272Y478307D01*
X527295Y478248D01*
X527301Y478244D01*
X527303Y478237D01*
X527356Y478202D01*
X527407Y478165D01*
X527414Y478164D01*
X527420Y478160D01*
X527494Y478149D01*
X537494Y478149D01*
X537519Y478156D01*
X537545Y478154D01*
X537584Y478176D01*
X537628Y478188D01*
X537645Y478208D01*
X537668Y478220D01*
X537690Y478260D01*
X537720Y478294D01*
X537724Y478319D01*
X537736Y478342D01*
X537742Y478416D01*
X537462Y482330D01*
X537459Y482339D01*
X537457Y482365D01*
X536623Y486199D01*
X536619Y486208D01*
X536613Y486233D01*
X535242Y489909D01*
X535236Y489917D01*
X535227Y489942D01*
X533347Y493385D01*
X533340Y493392D01*
X533328Y493415D01*
X530976Y496556D01*
X530969Y496562D01*
X530953Y496583D01*
X528179Y499358D01*
X528170Y499362D01*
X528152Y499381D01*
X525011Y501732D01*
X525002Y501736D01*
X524981Y501752D01*
X521537Y503632D01*
X521528Y503634D01*
X521505Y503647D01*
X517828Y505018D01*
X517819Y505019D01*
X517794Y505028D01*
X513960Y505862D01*
X513951Y505861D01*
X513925Y505867D01*
X510011Y506147D01*
X510002Y506145D01*
X509976Y506147D01*
X506062Y505867D01*
X506053Y505864D01*
X506027Y505862D01*
X502193Y505028D01*
X502184Y505023D01*
X502159Y505018D01*
X498483Y503647D01*
X498475Y503641D01*
X498450Y503632D01*
X495007Y501752D01*
X495000Y501745D01*
X494977Y501732D01*
X491836Y499381D01*
X491830Y499373D01*
X491809Y499358D01*
X489034Y496583D01*
X489030Y496575D01*
X489011Y496556D01*
X486660Y493415D01*
X486656Y493406D01*
X486640Y493385D01*
X484760Y489942D01*
X484758Y489932D01*
X484745Y489909D01*
X483374Y486233D01*
X483373Y486224D01*
X483364Y486199D01*
X482530Y482365D01*
X482531Y482355D01*
X482525Y482330D01*
X482245Y478416D01*
X482250Y478391D01*
X482247Y478365D01*
X482265Y478324D01*
X482275Y478280D01*
X482293Y478261D01*
X482303Y478237D01*
X482341Y478212D01*
X482373Y478180D01*
X482398Y478175D01*
X482420Y478160D01*
X482494Y478149D01*
X492494Y478149D01*
X492501Y478151D01*
G37*
G36*
X272511Y478151D02*
X272511Y478151D01*
X272518Y478150D01*
X272577Y478171D01*
X272638Y478188D01*
X272643Y478194D01*
X272650Y478196D01*
X272689Y478246D01*
X272730Y478294D01*
X272731Y478301D01*
X272736Y478306D01*
X272753Y478379D01*
X272967Y481097D01*
X273599Y483729D01*
X274634Y486230D01*
X276049Y488538D01*
X277807Y490596D01*
X279865Y492354D01*
X282173Y493768D01*
X284674Y494804D01*
X287306Y495436D01*
X290004Y495648D01*
X292703Y495436D01*
X295335Y494804D01*
X297836Y493768D01*
X300144Y492354D01*
X302202Y490596D01*
X303960Y488538D01*
X305374Y486230D01*
X306410Y483729D01*
X307042Y481097D01*
X307256Y478379D01*
X307258Y478372D01*
X307257Y478365D01*
X307283Y478307D01*
X307305Y478248D01*
X307311Y478244D01*
X307314Y478237D01*
X307367Y478202D01*
X307417Y478165D01*
X307425Y478164D01*
X307431Y478160D01*
X307504Y478149D01*
X317504Y478149D01*
X317529Y478156D01*
X317555Y478154D01*
X317595Y478176D01*
X317638Y478188D01*
X317656Y478208D01*
X317678Y478220D01*
X317701Y478260D01*
X317730Y478294D01*
X317734Y478319D01*
X317747Y478342D01*
X317753Y478416D01*
X317473Y482330D01*
X317470Y482339D01*
X317468Y482365D01*
X316634Y486199D01*
X316629Y486208D01*
X316624Y486233D01*
X315253Y489909D01*
X315247Y489917D01*
X315238Y489942D01*
X313357Y493385D01*
X313351Y493392D01*
X313338Y493415D01*
X310987Y496556D01*
X310979Y496562D01*
X310964Y496583D01*
X308189Y499358D01*
X308181Y499362D01*
X308162Y499381D01*
X305021Y501732D01*
X305012Y501736D01*
X304991Y501752D01*
X301548Y503632D01*
X301538Y503634D01*
X301515Y503647D01*
X297839Y505018D01*
X297829Y505019D01*
X297805Y505028D01*
X293971Y505862D01*
X293961Y505861D01*
X293936Y505867D01*
X290022Y506147D01*
X290013Y506145D01*
X289986Y506147D01*
X286073Y505867D01*
X286064Y505864D01*
X286038Y505862D01*
X282204Y505028D01*
X282195Y505023D01*
X282169Y505018D01*
X278493Y503647D01*
X278485Y503641D01*
X278461Y503632D01*
X275017Y501752D01*
X275010Y501745D01*
X274987Y501732D01*
X271846Y499381D01*
X271840Y499373D01*
X271819Y499358D01*
X269045Y496583D01*
X269040Y496575D01*
X269022Y496556D01*
X266670Y493415D01*
X266667Y493406D01*
X266651Y493385D01*
X264771Y489942D01*
X264769Y489932D01*
X264756Y489909D01*
X263385Y486233D01*
X263384Y486224D01*
X263375Y486199D01*
X262541Y482365D01*
X262541Y482355D01*
X262535Y482330D01*
X262256Y478416D01*
X262261Y478391D01*
X262257Y478365D01*
X262276Y478324D01*
X262285Y478280D01*
X262303Y478261D01*
X262314Y478237D01*
X262352Y478212D01*
X262384Y478180D01*
X262409Y478175D01*
X262431Y478160D01*
X262504Y478149D01*
X272504Y478149D01*
X272511Y478151D01*
G37*
G36*
X1152520Y478151D02*
X1152520Y478151D01*
X1152527Y478150D01*
X1152586Y478171D01*
X1152647Y478188D01*
X1152652Y478194D01*
X1152658Y478196D01*
X1152697Y478246D01*
X1152739Y478294D01*
X1152740Y478301D01*
X1152744Y478306D01*
X1152761Y478379D01*
X1152975Y481097D01*
X1153607Y483729D01*
X1154643Y486230D01*
X1156057Y488538D01*
X1157815Y490596D01*
X1159873Y492354D01*
X1162181Y493768D01*
X1164682Y494804D01*
X1167314Y495436D01*
X1170013Y495648D01*
X1172711Y495436D01*
X1175343Y494804D01*
X1177844Y493768D01*
X1180152Y492354D01*
X1182210Y490596D01*
X1183968Y488538D01*
X1185382Y486230D01*
X1186418Y483729D01*
X1187050Y481097D01*
X1187264Y478379D01*
X1187267Y478372D01*
X1187266Y478365D01*
X1187291Y478307D01*
X1187314Y478248D01*
X1187320Y478244D01*
X1187322Y478237D01*
X1187375Y478202D01*
X1187426Y478165D01*
X1187433Y478164D01*
X1187439Y478160D01*
X1187513Y478149D01*
X1197513Y478149D01*
X1197538Y478156D01*
X1197564Y478154D01*
X1197603Y478176D01*
X1197647Y478188D01*
X1197664Y478208D01*
X1197687Y478220D01*
X1197709Y478260D01*
X1197739Y478294D01*
X1197743Y478319D01*
X1197755Y478342D01*
X1197761Y478416D01*
X1197481Y482330D01*
X1197478Y482339D01*
X1197476Y482365D01*
X1196642Y486199D01*
X1196638Y486208D01*
X1196632Y486233D01*
X1195261Y489909D01*
X1195255Y489917D01*
X1195246Y489942D01*
X1193366Y493385D01*
X1193359Y493392D01*
X1193347Y493415D01*
X1190995Y496556D01*
X1190988Y496562D01*
X1190972Y496583D01*
X1188198Y499358D01*
X1188189Y499362D01*
X1188171Y499381D01*
X1185030Y501732D01*
X1185021Y501736D01*
X1185000Y501752D01*
X1181556Y503632D01*
X1181547Y503634D01*
X1181524Y503647D01*
X1177847Y505018D01*
X1177838Y505019D01*
X1177813Y505028D01*
X1173979Y505862D01*
X1173970Y505861D01*
X1173944Y505867D01*
X1170030Y506147D01*
X1170021Y506145D01*
X1169995Y506147D01*
X1166081Y505867D01*
X1166072Y505864D01*
X1166046Y505862D01*
X1162212Y505028D01*
X1162203Y505023D01*
X1162178Y505018D01*
X1158502Y503647D01*
X1158494Y503641D01*
X1158469Y503632D01*
X1155026Y501752D01*
X1155019Y501745D01*
X1154996Y501732D01*
X1151855Y499381D01*
X1151849Y499373D01*
X1151828Y499358D01*
X1149053Y496583D01*
X1149049Y496575D01*
X1149030Y496556D01*
X1146679Y493415D01*
X1146675Y493406D01*
X1146659Y493385D01*
X1144779Y489942D01*
X1144777Y489932D01*
X1144764Y489909D01*
X1143393Y486233D01*
X1143392Y486224D01*
X1143383Y486199D01*
X1142549Y482365D01*
X1142550Y482355D01*
X1142544Y482330D01*
X1142264Y478416D01*
X1142269Y478391D01*
X1142266Y478365D01*
X1142284Y478324D01*
X1142294Y478280D01*
X1142312Y478261D01*
X1142322Y478237D01*
X1142360Y478212D01*
X1142392Y478180D01*
X1142417Y478175D01*
X1142439Y478160D01*
X1142513Y478149D01*
X1152513Y478149D01*
X1152520Y478151D01*
G37*
G36*
X712515Y478151D02*
X712515Y478151D01*
X712522Y478150D01*
X712582Y478171D01*
X712643Y478188D01*
X712647Y478194D01*
X712654Y478196D01*
X712693Y478246D01*
X712735Y478294D01*
X712736Y478301D01*
X712740Y478306D01*
X712757Y478379D01*
X712971Y481097D01*
X713603Y483729D01*
X714639Y486230D01*
X716053Y488538D01*
X717811Y490596D01*
X719869Y492354D01*
X722177Y493768D01*
X724678Y494804D01*
X727310Y495436D01*
X730008Y495648D01*
X732707Y495436D01*
X735339Y494804D01*
X737840Y493768D01*
X740148Y492354D01*
X742206Y490596D01*
X743964Y488538D01*
X745378Y486230D01*
X746414Y483729D01*
X747046Y481097D01*
X747260Y478379D01*
X747263Y478372D01*
X747261Y478365D01*
X747287Y478307D01*
X747310Y478248D01*
X747315Y478244D01*
X747318Y478237D01*
X747371Y478202D01*
X747422Y478165D01*
X747429Y478164D01*
X747435Y478160D01*
X747508Y478149D01*
X757508Y478149D01*
X757533Y478156D01*
X757559Y478154D01*
X757599Y478176D01*
X757643Y478188D01*
X757660Y478208D01*
X757683Y478220D01*
X757705Y478260D01*
X757735Y478294D01*
X757738Y478319D01*
X757751Y478342D01*
X757757Y478416D01*
X757477Y482330D01*
X757474Y482339D01*
X757472Y482365D01*
X756638Y486199D01*
X756633Y486208D01*
X756628Y486233D01*
X755257Y489909D01*
X755251Y489917D01*
X755242Y489942D01*
X753362Y493385D01*
X753355Y493392D01*
X753342Y493415D01*
X750991Y496556D01*
X750983Y496562D01*
X750968Y496583D01*
X748193Y499358D01*
X748185Y499362D01*
X748166Y499381D01*
X745025Y501732D01*
X745016Y501736D01*
X744995Y501752D01*
X741552Y503632D01*
X741542Y503634D01*
X741519Y503647D01*
X737843Y505018D01*
X737834Y505019D01*
X737809Y505028D01*
X733975Y505862D01*
X733965Y505861D01*
X733940Y505867D01*
X730026Y506147D01*
X730017Y506145D01*
X729991Y506147D01*
X726077Y505867D01*
X726068Y505864D01*
X726042Y505862D01*
X722208Y505028D01*
X722199Y505023D01*
X722174Y505018D01*
X718497Y503647D01*
X718490Y503641D01*
X718465Y503632D01*
X715021Y501752D01*
X715015Y501745D01*
X714991Y501732D01*
X711850Y499381D01*
X711845Y499373D01*
X711824Y499358D01*
X709049Y496583D01*
X709044Y496575D01*
X709026Y496556D01*
X706674Y493415D01*
X706671Y493406D01*
X706655Y493385D01*
X704775Y489942D01*
X704773Y489932D01*
X704760Y489909D01*
X703389Y486233D01*
X703388Y486224D01*
X703379Y486199D01*
X702545Y482365D01*
X702545Y482355D01*
X702540Y482330D01*
X702260Y478416D01*
X702265Y478391D01*
X702261Y478365D01*
X702280Y478324D01*
X702289Y478280D01*
X702308Y478261D01*
X702318Y478237D01*
X702356Y478212D01*
X702388Y478180D01*
X702413Y478175D01*
X702435Y478160D01*
X702508Y478149D01*
X712508Y478149D01*
X712515Y478151D01*
G37*
G36*
X1592498Y478151D02*
X1592498Y478151D01*
X1592505Y478150D01*
X1592565Y478171D01*
X1592626Y478188D01*
X1592630Y478194D01*
X1592637Y478196D01*
X1592676Y478246D01*
X1592718Y478294D01*
X1592719Y478301D01*
X1592723Y478306D01*
X1592740Y478379D01*
X1592954Y481097D01*
X1593586Y483729D01*
X1594622Y486230D01*
X1596036Y488538D01*
X1597794Y490596D01*
X1599852Y492354D01*
X1602160Y493768D01*
X1604661Y494804D01*
X1607293Y495436D01*
X1609991Y495648D01*
X1612690Y495436D01*
X1615322Y494804D01*
X1617823Y493768D01*
X1620131Y492354D01*
X1622189Y490596D01*
X1623947Y488538D01*
X1625361Y486230D01*
X1626397Y483729D01*
X1627029Y481097D01*
X1627243Y478379D01*
X1627246Y478372D01*
X1627244Y478365D01*
X1627270Y478307D01*
X1627293Y478248D01*
X1627298Y478244D01*
X1627301Y478237D01*
X1627354Y478202D01*
X1627405Y478165D01*
X1627412Y478164D01*
X1627418Y478160D01*
X1627491Y478149D01*
X1637491Y478149D01*
X1637516Y478156D01*
X1637542Y478154D01*
X1637582Y478176D01*
X1637626Y478188D01*
X1637643Y478208D01*
X1637666Y478220D01*
X1637688Y478260D01*
X1637718Y478294D01*
X1637721Y478319D01*
X1637734Y478342D01*
X1637740Y478416D01*
X1637460Y482330D01*
X1637457Y482339D01*
X1637455Y482365D01*
X1636621Y486199D01*
X1636616Y486208D01*
X1636611Y486233D01*
X1635240Y489909D01*
X1635234Y489917D01*
X1635225Y489942D01*
X1633345Y493385D01*
X1633338Y493392D01*
X1633325Y493415D01*
X1630974Y496556D01*
X1630966Y496562D01*
X1630951Y496583D01*
X1628176Y499358D01*
X1628168Y499362D01*
X1628149Y499381D01*
X1625008Y501732D01*
X1624999Y501736D01*
X1624978Y501752D01*
X1621535Y503632D01*
X1621525Y503634D01*
X1621502Y503647D01*
X1617826Y505018D01*
X1617817Y505019D01*
X1617792Y505028D01*
X1613958Y505862D01*
X1613948Y505861D01*
X1613923Y505867D01*
X1610009Y506147D01*
X1610000Y506145D01*
X1609974Y506147D01*
X1606060Y505867D01*
X1606051Y505864D01*
X1606025Y505862D01*
X1602191Y505028D01*
X1602182Y505023D01*
X1602157Y505018D01*
X1598480Y503647D01*
X1598473Y503641D01*
X1598448Y503632D01*
X1595004Y501752D01*
X1594998Y501745D01*
X1594974Y501732D01*
X1591833Y499381D01*
X1591828Y499373D01*
X1591807Y499358D01*
X1589032Y496583D01*
X1589027Y496575D01*
X1589009Y496556D01*
X1586657Y493415D01*
X1586654Y493406D01*
X1586638Y493385D01*
X1584758Y489942D01*
X1584756Y489932D01*
X1584743Y489909D01*
X1583372Y486233D01*
X1583371Y486224D01*
X1583362Y486199D01*
X1582528Y482365D01*
X1582528Y482355D01*
X1582523Y482330D01*
X1582243Y478416D01*
X1582248Y478391D01*
X1582244Y478365D01*
X1582263Y478324D01*
X1582272Y478280D01*
X1582291Y478261D01*
X1582301Y478237D01*
X1582339Y478212D01*
X1582371Y478180D01*
X1582396Y478175D01*
X1582418Y478160D01*
X1582491Y478149D01*
X1592491Y478149D01*
X1592498Y478151D01*
G37*
G36*
X1693933Y192633D02*
X1693933Y192633D01*
X1693943Y192636D01*
X1693969Y192638D01*
X1697803Y193472D01*
X1697811Y193477D01*
X1697837Y193482D01*
X1701513Y194853D01*
X1701521Y194859D01*
X1701545Y194868D01*
X1704989Y196748D01*
X1704996Y196755D01*
X1705019Y196768D01*
X1708160Y199119D01*
X1708166Y199127D01*
X1708187Y199142D01*
X1710961Y201917D01*
X1710966Y201925D01*
X1710985Y201944D01*
X1713336Y205085D01*
X1713339Y205094D01*
X1713355Y205115D01*
X1715236Y208558D01*
X1715238Y208568D01*
X1715250Y208591D01*
X1716622Y212267D01*
X1716622Y212277D01*
X1716632Y212301D01*
X1717466Y216135D01*
X1717465Y216145D01*
X1717471Y216170D01*
X1717751Y220084D01*
X1717745Y220109D01*
X1717749Y220135D01*
X1717731Y220176D01*
X1717721Y220220D01*
X1717703Y220239D01*
X1717692Y220263D01*
X1717654Y220288D01*
X1717623Y220320D01*
X1717597Y220325D01*
X1717576Y220340D01*
X1717502Y220351D01*
X1707502Y220351D01*
X1707495Y220349D01*
X1707488Y220350D01*
X1707429Y220329D01*
X1707368Y220312D01*
X1707363Y220306D01*
X1707356Y220304D01*
X1707318Y220254D01*
X1707276Y220206D01*
X1707275Y220199D01*
X1707270Y220194D01*
X1707254Y220121D01*
X1707040Y217403D01*
X1706408Y214771D01*
X1705372Y212270D01*
X1703958Y209962D01*
X1702200Y207904D01*
X1700141Y206146D01*
X1697833Y204732D01*
X1695333Y203696D01*
X1692700Y203064D01*
X1690002Y202852D01*
X1687304Y203064D01*
X1684671Y203696D01*
X1682171Y204732D01*
X1679863Y206146D01*
X1677804Y207904D01*
X1676046Y209962D01*
X1674632Y212270D01*
X1673596Y214771D01*
X1672964Y217403D01*
X1672750Y220121D01*
X1672748Y220128D01*
X1672749Y220135D01*
X1672723Y220193D01*
X1672701Y220252D01*
X1672695Y220256D01*
X1672692Y220263D01*
X1672639Y220298D01*
X1672589Y220335D01*
X1672582Y220336D01*
X1672576Y220340D01*
X1672502Y220351D01*
X1662502Y220351D01*
X1662477Y220344D01*
X1662451Y220346D01*
X1662411Y220324D01*
X1662368Y220312D01*
X1662351Y220292D01*
X1662328Y220280D01*
X1662306Y220240D01*
X1662276Y220206D01*
X1662272Y220181D01*
X1662259Y220158D01*
X1662253Y220084D01*
X1662533Y216170D01*
X1662537Y216161D01*
X1662538Y216135D01*
X1663372Y212301D01*
X1663377Y212292D01*
X1663382Y212267D01*
X1664754Y208591D01*
X1664759Y208583D01*
X1664768Y208558D01*
X1666649Y205115D01*
X1666656Y205108D01*
X1666668Y205085D01*
X1669019Y201944D01*
X1669027Y201938D01*
X1669043Y201917D01*
X1671817Y199142D01*
X1671826Y199138D01*
X1671844Y199119D01*
X1674985Y196768D01*
X1674994Y196764D01*
X1675015Y196748D01*
X1678459Y194868D01*
X1678468Y194866D01*
X1678491Y194853D01*
X1682167Y193482D01*
X1682177Y193481D01*
X1682201Y193472D01*
X1686035Y192638D01*
X1686045Y192639D01*
X1686071Y192633D01*
X1689984Y192353D01*
X1689994Y192355D01*
X1690020Y192353D01*
X1693933Y192633D01*
G37*
G36*
X1033940Y192633D02*
X1033940Y192633D01*
X1033949Y192636D01*
X1033975Y192638D01*
X1037809Y193472D01*
X1037818Y193477D01*
X1037843Y193482D01*
X1041519Y194853D01*
X1041527Y194859D01*
X1041552Y194868D01*
X1044995Y196748D01*
X1045002Y196755D01*
X1045025Y196768D01*
X1048166Y199119D01*
X1048172Y199127D01*
X1048193Y199142D01*
X1050968Y201917D01*
X1050972Y201925D01*
X1050991Y201944D01*
X1053342Y205085D01*
X1053346Y205094D01*
X1053362Y205115D01*
X1055242Y208558D01*
X1055244Y208568D01*
X1055257Y208591D01*
X1056628Y212267D01*
X1056629Y212277D01*
X1056638Y212301D01*
X1057472Y216135D01*
X1057471Y216145D01*
X1057477Y216170D01*
X1057757Y220084D01*
X1057752Y220109D01*
X1057755Y220135D01*
X1057737Y220176D01*
X1057728Y220220D01*
X1057709Y220239D01*
X1057699Y220263D01*
X1057661Y220288D01*
X1057629Y220320D01*
X1057604Y220325D01*
X1057582Y220340D01*
X1057508Y220351D01*
X1047508Y220351D01*
X1047501Y220349D01*
X1047494Y220350D01*
X1047435Y220329D01*
X1047374Y220312D01*
X1047369Y220306D01*
X1047363Y220304D01*
X1047324Y220254D01*
X1047282Y220206D01*
X1047281Y220199D01*
X1047277Y220194D01*
X1047260Y220121D01*
X1047046Y217403D01*
X1046414Y214771D01*
X1045378Y212270D01*
X1043964Y209962D01*
X1042206Y207904D01*
X1040148Y206146D01*
X1037840Y204732D01*
X1035339Y203696D01*
X1032707Y203064D01*
X1030008Y202852D01*
X1027310Y203064D01*
X1024678Y203696D01*
X1022177Y204732D01*
X1019869Y206146D01*
X1017811Y207904D01*
X1016053Y209962D01*
X1014639Y212270D01*
X1013603Y214771D01*
X1012971Y217403D01*
X1012757Y220121D01*
X1012754Y220128D01*
X1012755Y220135D01*
X1012730Y220193D01*
X1012707Y220252D01*
X1012702Y220256D01*
X1012699Y220263D01*
X1012646Y220298D01*
X1012595Y220335D01*
X1012588Y220336D01*
X1012582Y220340D01*
X1012508Y220351D01*
X1002508Y220351D01*
X1002483Y220344D01*
X1002457Y220346D01*
X1002418Y220324D01*
X1002374Y220312D01*
X1002357Y220292D01*
X1002334Y220280D01*
X1002312Y220240D01*
X1002282Y220206D01*
X1002278Y220181D01*
X1002266Y220158D01*
X1002260Y220084D01*
X1002540Y216170D01*
X1002543Y216161D01*
X1002545Y216135D01*
X1003379Y212301D01*
X1003383Y212292D01*
X1003389Y212267D01*
X1004760Y208591D01*
X1004766Y208583D01*
X1004775Y208558D01*
X1006655Y205115D01*
X1006662Y205108D01*
X1006674Y205085D01*
X1009026Y201944D01*
X1009034Y201938D01*
X1009049Y201917D01*
X1011824Y199142D01*
X1011832Y199138D01*
X1011850Y199119D01*
X1014991Y196768D01*
X1015001Y196764D01*
X1015021Y196748D01*
X1018465Y194868D01*
X1018474Y194866D01*
X1018497Y194853D01*
X1022174Y193482D01*
X1022183Y193481D01*
X1022208Y193472D01*
X1026042Y192638D01*
X1026051Y192639D01*
X1026077Y192633D01*
X1029991Y192353D01*
X1030000Y192355D01*
X1030026Y192353D01*
X1033940Y192633D01*
G37*
G36*
X813925Y192633D02*
X813925Y192633D01*
X813934Y192636D01*
X813960Y192638D01*
X817794Y193472D01*
X817803Y193477D01*
X817828Y193482D01*
X821505Y194853D01*
X821512Y194859D01*
X821537Y194868D01*
X824981Y196748D01*
X824987Y196755D01*
X825011Y196768D01*
X828152Y199119D01*
X828157Y199127D01*
X828179Y199142D01*
X830953Y201917D01*
X830958Y201925D01*
X830976Y201944D01*
X833328Y205085D01*
X833331Y205094D01*
X833347Y205115D01*
X835227Y208558D01*
X835229Y208568D01*
X835242Y208591D01*
X836613Y212267D01*
X836614Y212277D01*
X836623Y212301D01*
X837457Y216135D01*
X837457Y216145D01*
X837462Y216170D01*
X837742Y220084D01*
X837737Y220109D01*
X837741Y220135D01*
X837722Y220176D01*
X837713Y220220D01*
X837694Y220239D01*
X837684Y220263D01*
X837646Y220288D01*
X837614Y220320D01*
X837589Y220325D01*
X837567Y220340D01*
X837494Y220351D01*
X827494Y220351D01*
X827487Y220349D01*
X827480Y220350D01*
X827420Y220329D01*
X827359Y220312D01*
X827355Y220306D01*
X827348Y220304D01*
X827309Y220254D01*
X827267Y220206D01*
X827266Y220199D01*
X827262Y220194D01*
X827245Y220121D01*
X827031Y217403D01*
X826399Y214771D01*
X825363Y212270D01*
X823949Y209962D01*
X822191Y207904D01*
X820133Y206146D01*
X817825Y204732D01*
X815324Y203696D01*
X812692Y203064D01*
X809994Y202852D01*
X807295Y203064D01*
X804663Y203696D01*
X802162Y204732D01*
X799854Y206146D01*
X797796Y207904D01*
X796038Y209962D01*
X794624Y212270D01*
X793588Y214771D01*
X792956Y217403D01*
X792742Y220121D01*
X792740Y220128D01*
X792741Y220135D01*
X792715Y220193D01*
X792692Y220252D01*
X792687Y220256D01*
X792684Y220263D01*
X792631Y220298D01*
X792580Y220335D01*
X792573Y220336D01*
X792567Y220340D01*
X792494Y220351D01*
X782494Y220351D01*
X782469Y220344D01*
X782443Y220346D01*
X782403Y220324D01*
X782359Y220312D01*
X782342Y220292D01*
X782319Y220280D01*
X782297Y220240D01*
X782267Y220206D01*
X782264Y220181D01*
X782251Y220158D01*
X782245Y220084D01*
X782525Y216170D01*
X782528Y216161D01*
X782530Y216135D01*
X783364Y212301D01*
X783369Y212292D01*
X783374Y212267D01*
X784745Y208591D01*
X784751Y208583D01*
X784760Y208558D01*
X786640Y205115D01*
X786647Y205108D01*
X786660Y205085D01*
X789011Y201944D01*
X789019Y201938D01*
X789034Y201917D01*
X791809Y199142D01*
X791817Y199138D01*
X791836Y199119D01*
X794977Y196768D01*
X794986Y196764D01*
X795007Y196748D01*
X798450Y194868D01*
X798460Y194866D01*
X798483Y194853D01*
X802159Y193482D01*
X802169Y193481D01*
X802193Y193472D01*
X806027Y192638D01*
X806037Y192639D01*
X806062Y192633D01*
X809976Y192353D01*
X809985Y192355D01*
X810011Y192353D01*
X813925Y192633D01*
G37*
G36*
X1253929Y192633D02*
X1253929Y192633D01*
X1253938Y192636D01*
X1253964Y192638D01*
X1257798Y193472D01*
X1257807Y193477D01*
X1257833Y193482D01*
X1261509Y194853D01*
X1261517Y194859D01*
X1261541Y194868D01*
X1264985Y196748D01*
X1264992Y196755D01*
X1265015Y196768D01*
X1268156Y199119D01*
X1268162Y199127D01*
X1268183Y199142D01*
X1270957Y201917D01*
X1270962Y201925D01*
X1270980Y201944D01*
X1273332Y205085D01*
X1273335Y205094D01*
X1273351Y205115D01*
X1275231Y208558D01*
X1275234Y208568D01*
X1275246Y208591D01*
X1276617Y212267D01*
X1276618Y212277D01*
X1276627Y212301D01*
X1277461Y216135D01*
X1277461Y216145D01*
X1277467Y216170D01*
X1277746Y220084D01*
X1277741Y220109D01*
X1277745Y220135D01*
X1277726Y220176D01*
X1277717Y220220D01*
X1277699Y220239D01*
X1277688Y220263D01*
X1277650Y220288D01*
X1277618Y220320D01*
X1277593Y220325D01*
X1277571Y220340D01*
X1277498Y220351D01*
X1267498Y220351D01*
X1267491Y220349D01*
X1267484Y220350D01*
X1267425Y220329D01*
X1267364Y220312D01*
X1267359Y220306D01*
X1267352Y220304D01*
X1267313Y220254D01*
X1267272Y220206D01*
X1267271Y220199D01*
X1267266Y220194D01*
X1267249Y220121D01*
X1267035Y217403D01*
X1266404Y214771D01*
X1265368Y212270D01*
X1263953Y209962D01*
X1262195Y207904D01*
X1260137Y206146D01*
X1257829Y204732D01*
X1255328Y203696D01*
X1252696Y203064D01*
X1249998Y202852D01*
X1247299Y203064D01*
X1244667Y203696D01*
X1242166Y204732D01*
X1239859Y206146D01*
X1237800Y207904D01*
X1236042Y209962D01*
X1234628Y212270D01*
X1233592Y214771D01*
X1232960Y217403D01*
X1232746Y220121D01*
X1232744Y220128D01*
X1232745Y220135D01*
X1232719Y220193D01*
X1232697Y220252D01*
X1232691Y220256D01*
X1232688Y220263D01*
X1232635Y220298D01*
X1232585Y220335D01*
X1232577Y220336D01*
X1232571Y220340D01*
X1232498Y220351D01*
X1222498Y220351D01*
X1222473Y220344D01*
X1222447Y220346D01*
X1222407Y220324D01*
X1222364Y220312D01*
X1222346Y220292D01*
X1222324Y220280D01*
X1222301Y220240D01*
X1222272Y220206D01*
X1222268Y220181D01*
X1222255Y220158D01*
X1222249Y220084D01*
X1222529Y216170D01*
X1222532Y216161D01*
X1222534Y216135D01*
X1223368Y212301D01*
X1223373Y212292D01*
X1223378Y212267D01*
X1224749Y208591D01*
X1224755Y208583D01*
X1224764Y208558D01*
X1226645Y205115D01*
X1226651Y205108D01*
X1226664Y205085D01*
X1229015Y201944D01*
X1229023Y201938D01*
X1229038Y201917D01*
X1231813Y199142D01*
X1231821Y199138D01*
X1231840Y199119D01*
X1234981Y196768D01*
X1234990Y196764D01*
X1235011Y196748D01*
X1238454Y194868D01*
X1238464Y194866D01*
X1238487Y194853D01*
X1242163Y193482D01*
X1242173Y193481D01*
X1242197Y193472D01*
X1246031Y192638D01*
X1246041Y192639D01*
X1246066Y192633D01*
X1249980Y192353D01*
X1249990Y192355D01*
X1250016Y192353D01*
X1253929Y192633D01*
G37*
G36*
X1473944Y192633D02*
X1473944Y192633D01*
X1473953Y192636D01*
X1473979Y192638D01*
X1477813Y193472D01*
X1477822Y193477D01*
X1477847Y193482D01*
X1481524Y194853D01*
X1481531Y194859D01*
X1481556Y194868D01*
X1485000Y196748D01*
X1485006Y196755D01*
X1485030Y196768D01*
X1488171Y199119D01*
X1488176Y199127D01*
X1488198Y199142D01*
X1490972Y201917D01*
X1490977Y201925D01*
X1490995Y201944D01*
X1493347Y205085D01*
X1493350Y205094D01*
X1493366Y205115D01*
X1495246Y208558D01*
X1495248Y208568D01*
X1495261Y208591D01*
X1496632Y212267D01*
X1496633Y212277D01*
X1496642Y212301D01*
X1497476Y216135D01*
X1497476Y216145D01*
X1497481Y216170D01*
X1497761Y220084D01*
X1497756Y220109D01*
X1497760Y220135D01*
X1497741Y220176D01*
X1497732Y220220D01*
X1497713Y220239D01*
X1497703Y220263D01*
X1497665Y220288D01*
X1497633Y220320D01*
X1497608Y220325D01*
X1497586Y220340D01*
X1497513Y220351D01*
X1487513Y220351D01*
X1487506Y220349D01*
X1487499Y220350D01*
X1487439Y220329D01*
X1487378Y220312D01*
X1487374Y220306D01*
X1487367Y220304D01*
X1487328Y220254D01*
X1487286Y220206D01*
X1487285Y220199D01*
X1487281Y220194D01*
X1487264Y220121D01*
X1487050Y217403D01*
X1486418Y214771D01*
X1485382Y212270D01*
X1483968Y209962D01*
X1482210Y207904D01*
X1480152Y206146D01*
X1477844Y204732D01*
X1475343Y203696D01*
X1472711Y203064D01*
X1470013Y202852D01*
X1467314Y203064D01*
X1464682Y203696D01*
X1462181Y204732D01*
X1459873Y206146D01*
X1457815Y207904D01*
X1456057Y209962D01*
X1454643Y212270D01*
X1453607Y214771D01*
X1452975Y217403D01*
X1452761Y220121D01*
X1452759Y220128D01*
X1452760Y220135D01*
X1452734Y220193D01*
X1452711Y220252D01*
X1452706Y220256D01*
X1452703Y220263D01*
X1452650Y220298D01*
X1452599Y220335D01*
X1452592Y220336D01*
X1452586Y220340D01*
X1452513Y220351D01*
X1442513Y220351D01*
X1442488Y220344D01*
X1442462Y220346D01*
X1442422Y220324D01*
X1442378Y220312D01*
X1442361Y220292D01*
X1442338Y220280D01*
X1442316Y220240D01*
X1442286Y220206D01*
X1442283Y220181D01*
X1442270Y220158D01*
X1442264Y220084D01*
X1442544Y216170D01*
X1442547Y216161D01*
X1442549Y216135D01*
X1443383Y212301D01*
X1443388Y212292D01*
X1443393Y212267D01*
X1444764Y208591D01*
X1444770Y208583D01*
X1444779Y208558D01*
X1446659Y205115D01*
X1446666Y205108D01*
X1446679Y205085D01*
X1449030Y201944D01*
X1449038Y201938D01*
X1449053Y201917D01*
X1451828Y199142D01*
X1451836Y199138D01*
X1451855Y199119D01*
X1454996Y196768D01*
X1455005Y196764D01*
X1455026Y196748D01*
X1458469Y194868D01*
X1458479Y194866D01*
X1458502Y194853D01*
X1462178Y193482D01*
X1462188Y193481D01*
X1462212Y193472D01*
X1466046Y192638D01*
X1466056Y192639D01*
X1466081Y192633D01*
X1469995Y192353D01*
X1470004Y192355D01*
X1470030Y192353D01*
X1473944Y192633D01*
G37*
G36*
X593936Y192633D02*
X593936Y192633D01*
X593945Y192636D01*
X593971Y192638D01*
X597805Y193472D01*
X597813Y193477D01*
X597839Y193482D01*
X601515Y194853D01*
X601523Y194859D01*
X601548Y194868D01*
X604991Y196748D01*
X604998Y196755D01*
X605021Y196768D01*
X608162Y199119D01*
X608168Y199127D01*
X608189Y199142D01*
X610964Y201917D01*
X610968Y201925D01*
X610987Y201944D01*
X613338Y205085D01*
X613342Y205094D01*
X613357Y205115D01*
X615238Y208558D01*
X615240Y208568D01*
X615253Y208591D01*
X616624Y212267D01*
X616624Y212277D01*
X616634Y212301D01*
X617468Y216135D01*
X617467Y216145D01*
X617473Y216170D01*
X617753Y220084D01*
X617747Y220109D01*
X617751Y220135D01*
X617733Y220176D01*
X617723Y220220D01*
X617705Y220239D01*
X617694Y220263D01*
X617657Y220288D01*
X617625Y220320D01*
X617599Y220325D01*
X617578Y220340D01*
X617504Y220351D01*
X607504Y220351D01*
X607497Y220349D01*
X607490Y220350D01*
X607431Y220329D01*
X607370Y220312D01*
X607365Y220306D01*
X607358Y220304D01*
X607320Y220254D01*
X607278Y220206D01*
X607277Y220199D01*
X607273Y220194D01*
X607256Y220121D01*
X607042Y217403D01*
X606410Y214771D01*
X605374Y212270D01*
X603960Y209962D01*
X602202Y207904D01*
X600144Y206146D01*
X597836Y204732D01*
X595335Y203696D01*
X592703Y203064D01*
X590004Y202852D01*
X587306Y203064D01*
X584674Y203696D01*
X582173Y204732D01*
X579865Y206146D01*
X577807Y207904D01*
X576049Y209962D01*
X574634Y212270D01*
X573599Y214771D01*
X572967Y217403D01*
X572753Y220121D01*
X572750Y220128D01*
X572751Y220135D01*
X572725Y220193D01*
X572703Y220252D01*
X572697Y220256D01*
X572694Y220263D01*
X572642Y220298D01*
X572591Y220335D01*
X572584Y220336D01*
X572578Y220340D01*
X572504Y220351D01*
X562504Y220351D01*
X562479Y220344D01*
X562453Y220346D01*
X562413Y220324D01*
X562370Y220312D01*
X562353Y220292D01*
X562330Y220280D01*
X562308Y220240D01*
X562278Y220206D01*
X562274Y220181D01*
X562261Y220158D01*
X562256Y220084D01*
X562535Y216170D01*
X562539Y216161D01*
X562541Y216135D01*
X563375Y212301D01*
X563379Y212292D01*
X563385Y212267D01*
X564756Y208591D01*
X564762Y208583D01*
X564771Y208558D01*
X566651Y205115D01*
X566658Y205108D01*
X566670Y205085D01*
X569022Y201944D01*
X569029Y201938D01*
X569045Y201917D01*
X571819Y199142D01*
X571828Y199138D01*
X571846Y199119D01*
X574987Y196768D01*
X574996Y196764D01*
X575017Y196748D01*
X578461Y194868D01*
X578470Y194866D01*
X578493Y194853D01*
X582169Y193482D01*
X582179Y193481D01*
X582204Y193472D01*
X586038Y192638D01*
X586047Y192639D01*
X586073Y192633D01*
X589986Y192353D01*
X589996Y192355D01*
X590022Y192353D01*
X593936Y192633D01*
G37*
G36*
X373921Y192633D02*
X373921Y192633D01*
X373930Y192636D01*
X373956Y192638D01*
X377790Y193472D01*
X377799Y193477D01*
X377824Y193482D01*
X381500Y194853D01*
X381508Y194859D01*
X381533Y194868D01*
X384976Y196748D01*
X384983Y196755D01*
X385006Y196768D01*
X388147Y199119D01*
X388153Y199127D01*
X388174Y199142D01*
X390949Y201917D01*
X390953Y201925D01*
X390972Y201944D01*
X393323Y205085D01*
X393327Y205094D01*
X393343Y205115D01*
X395223Y208558D01*
X395225Y208568D01*
X395238Y208591D01*
X396609Y212267D01*
X396610Y212277D01*
X396619Y212301D01*
X397453Y216135D01*
X397452Y216145D01*
X397458Y216170D01*
X397738Y220084D01*
X397733Y220109D01*
X397736Y220135D01*
X397718Y220176D01*
X397709Y220220D01*
X397690Y220239D01*
X397680Y220263D01*
X397642Y220288D01*
X397610Y220320D01*
X397585Y220325D01*
X397563Y220340D01*
X397489Y220351D01*
X387489Y220351D01*
X387482Y220349D01*
X387475Y220350D01*
X387416Y220329D01*
X387355Y220312D01*
X387350Y220306D01*
X387344Y220304D01*
X387305Y220254D01*
X387263Y220206D01*
X387262Y220199D01*
X387258Y220194D01*
X387241Y220121D01*
X387027Y217403D01*
X386395Y214771D01*
X385359Y212270D01*
X383945Y209962D01*
X382187Y207904D01*
X380129Y206146D01*
X377821Y204732D01*
X375320Y203696D01*
X372688Y203064D01*
X369989Y202852D01*
X367291Y203064D01*
X364659Y203696D01*
X362158Y204732D01*
X359850Y206146D01*
X357792Y207904D01*
X356034Y209962D01*
X354620Y212270D01*
X353584Y214771D01*
X352952Y217403D01*
X352738Y220121D01*
X352735Y220128D01*
X352736Y220135D01*
X352711Y220193D01*
X352688Y220252D01*
X352683Y220256D01*
X352680Y220263D01*
X352627Y220298D01*
X352576Y220335D01*
X352569Y220336D01*
X352563Y220340D01*
X352489Y220351D01*
X342489Y220351D01*
X342464Y220344D01*
X342438Y220346D01*
X342399Y220324D01*
X342355Y220312D01*
X342338Y220292D01*
X342315Y220280D01*
X342293Y220240D01*
X342263Y220206D01*
X342259Y220181D01*
X342247Y220158D01*
X342241Y220084D01*
X342521Y216170D01*
X342524Y216161D01*
X342526Y216135D01*
X343360Y212301D01*
X343364Y212292D01*
X343370Y212267D01*
X344741Y208591D01*
X344747Y208583D01*
X344756Y208558D01*
X346636Y205115D01*
X346643Y205108D01*
X346655Y205085D01*
X349007Y201944D01*
X349015Y201938D01*
X349030Y201917D01*
X351805Y199142D01*
X351813Y199138D01*
X351831Y199119D01*
X354972Y196768D01*
X354982Y196764D01*
X355002Y196748D01*
X358446Y194868D01*
X358455Y194866D01*
X358478Y194853D01*
X362155Y193482D01*
X362164Y193481D01*
X362189Y193472D01*
X366023Y192638D01*
X366032Y192639D01*
X366058Y192633D01*
X369972Y192353D01*
X369981Y192355D01*
X370007Y192353D01*
X373921Y192633D01*
G37*
G36*
X153931Y192633D02*
X153931Y192633D01*
X153941Y192636D01*
X153967Y192638D01*
X157801Y193472D01*
X157809Y193477D01*
X157835Y193482D01*
X161511Y194853D01*
X161519Y194859D01*
X161543Y194868D01*
X164987Y196748D01*
X164994Y196755D01*
X165017Y196768D01*
X168158Y199119D01*
X168164Y199127D01*
X168185Y199142D01*
X170959Y201917D01*
X170964Y201925D01*
X170983Y201944D01*
X173334Y205085D01*
X173337Y205094D01*
X173353Y205115D01*
X175234Y208558D01*
X175236Y208568D01*
X175248Y208591D01*
X176620Y212267D01*
X176620Y212277D01*
X176630Y212301D01*
X177464Y216135D01*
X177463Y216145D01*
X177469Y216170D01*
X177749Y220084D01*
X177743Y220109D01*
X177747Y220135D01*
X177729Y220176D01*
X177719Y220220D01*
X177701Y220239D01*
X177690Y220263D01*
X177652Y220288D01*
X177621Y220320D01*
X177595Y220325D01*
X177574Y220340D01*
X177500Y220351D01*
X167500Y220351D01*
X167493Y220349D01*
X167486Y220350D01*
X167427Y220329D01*
X167366Y220312D01*
X167361Y220306D01*
X167354Y220304D01*
X167316Y220254D01*
X167274Y220206D01*
X167273Y220199D01*
X167268Y220194D01*
X167252Y220121D01*
X167038Y217403D01*
X166406Y214771D01*
X165370Y212270D01*
X163956Y209962D01*
X162198Y207904D01*
X160139Y206146D01*
X157831Y204732D01*
X155331Y203696D01*
X152698Y203064D01*
X150000Y202852D01*
X147302Y203064D01*
X144669Y203696D01*
X142169Y204732D01*
X139861Y206146D01*
X137802Y207904D01*
X136044Y209962D01*
X134630Y212270D01*
X133594Y214771D01*
X132962Y217403D01*
X132748Y220121D01*
X132746Y220128D01*
X132747Y220135D01*
X132721Y220193D01*
X132699Y220252D01*
X132693Y220256D01*
X132690Y220263D01*
X132637Y220298D01*
X132587Y220335D01*
X132580Y220336D01*
X132574Y220340D01*
X132500Y220351D01*
X122500Y220351D01*
X122475Y220344D01*
X122449Y220346D01*
X122409Y220324D01*
X122366Y220312D01*
X122349Y220292D01*
X122326Y220280D01*
X122304Y220240D01*
X122274Y220206D01*
X122270Y220181D01*
X122257Y220158D01*
X122251Y220084D01*
X122531Y216170D01*
X122535Y216161D01*
X122536Y216135D01*
X123370Y212301D01*
X123375Y212292D01*
X123380Y212267D01*
X124752Y208591D01*
X124757Y208583D01*
X124766Y208558D01*
X126647Y205115D01*
X126654Y205108D01*
X126666Y205085D01*
X129017Y201944D01*
X129025Y201938D01*
X129041Y201917D01*
X131815Y199142D01*
X131824Y199138D01*
X131842Y199119D01*
X134983Y196768D01*
X134992Y196764D01*
X135013Y196748D01*
X138457Y194868D01*
X138466Y194866D01*
X138489Y194853D01*
X142165Y193482D01*
X142175Y193481D01*
X142199Y193472D01*
X146033Y192638D01*
X146043Y192639D01*
X146069Y192633D01*
X149982Y192353D01*
X149992Y192355D01*
X150018Y192353D01*
X153931Y192633D01*
G37*
D10*
X37750Y67752D03*
X37750Y74252D03*
X44250Y67752D03*
X44250Y74252D03*
X37750Y80752D03*
X37750Y87252D03*
X44250Y80752D03*
X44250Y87252D03*
X37750Y93752D03*
X37750Y100252D03*
X44250Y93752D03*
X44250Y100252D03*
X37750Y106752D03*
X37750Y113252D03*
X44250Y106752D03*
X44250Y113252D03*
X37750Y119752D03*
X44250Y119752D03*
X37750Y126252D03*
X37750Y132752D03*
X44250Y126252D03*
X44250Y132752D03*
X37750Y139252D03*
X37750Y145752D03*
X44250Y139252D03*
X44250Y145752D03*
X37750Y152252D03*
X44250Y152252D03*
X50750Y67752D03*
X57250Y67752D03*
X63750Y67752D03*
X70250Y67752D03*
X76750Y67752D03*
X83250Y67752D03*
X89750Y67752D03*
X96250Y67752D03*
X102750Y67752D03*
X109250Y67752D03*
X115750Y67752D03*
X122250Y67752D03*
X50750Y74252D03*
X57250Y74252D03*
X63750Y74252D03*
X70250Y74252D03*
X76750Y74252D03*
X83250Y74252D03*
X89750Y74252D03*
X96250Y74252D03*
X102750Y74252D03*
X109250Y74252D03*
X115750Y74252D03*
X122250Y74252D03*
X50750Y80752D03*
X57250Y80752D03*
X63750Y80752D03*
X70250Y80752D03*
X76750Y80752D03*
X83250Y80752D03*
X89750Y80752D03*
X96250Y80752D03*
X102750Y80752D03*
X109250Y80752D03*
X115750Y80752D03*
X122250Y80752D03*
X50750Y87252D03*
X57250Y87252D03*
X63750Y87252D03*
X70250Y87252D03*
X76750Y87252D03*
X83250Y87252D03*
X89750Y87252D03*
X96250Y87252D03*
X102750Y87252D03*
X109250Y87252D03*
X115750Y87252D03*
X122250Y87252D03*
X50750Y93752D03*
X57250Y93752D03*
X63750Y93752D03*
X70250Y93752D03*
X76750Y93752D03*
X83250Y93752D03*
X89750Y93752D03*
X96250Y93752D03*
X102750Y93752D03*
X109250Y93752D03*
X115750Y93752D03*
X122250Y93752D03*
X50750Y100252D03*
X57250Y100252D03*
X63750Y100252D03*
X70250Y100252D03*
X76750Y100252D03*
X83250Y100252D03*
X89750Y100252D03*
X96250Y100252D03*
X102750Y100252D03*
X109250Y100252D03*
X115750Y100252D03*
X122250Y100252D03*
X50750Y106752D03*
X57250Y106752D03*
X63750Y106752D03*
X70250Y106752D03*
X76750Y106752D03*
X83250Y106752D03*
X89750Y106752D03*
X96250Y106752D03*
X102750Y106752D03*
X109250Y106752D03*
X115750Y106752D03*
X122250Y106752D03*
X50750Y113252D03*
X57250Y113252D03*
X63750Y113252D03*
X70250Y113252D03*
X76750Y113252D03*
X83250Y113252D03*
X89750Y113252D03*
X96250Y113252D03*
X102750Y113252D03*
X109250Y113252D03*
X115750Y113252D03*
X122250Y113252D03*
X50750Y119752D03*
X57250Y119752D03*
X63750Y119752D03*
X70250Y119752D03*
X76750Y119752D03*
X83250Y119752D03*
X89750Y119752D03*
X96250Y119752D03*
X102750Y119752D03*
X109250Y119752D03*
X115750Y119752D03*
X122250Y119752D03*
X50750Y126252D03*
X57250Y126252D03*
X63750Y126252D03*
X70250Y126252D03*
X76750Y126252D03*
X83250Y126252D03*
X89750Y126252D03*
X96250Y126252D03*
X102750Y126252D03*
X109250Y126252D03*
X115750Y126252D03*
X122250Y126252D03*
X50750Y132752D03*
X57250Y132752D03*
X63750Y132752D03*
X70250Y132752D03*
X76750Y132752D03*
X83250Y132752D03*
X89750Y132752D03*
X96250Y132752D03*
X102750Y132752D03*
X109250Y132752D03*
X115750Y132752D03*
X122250Y132752D03*
X50750Y139252D03*
X57250Y139252D03*
X63750Y139252D03*
X70250Y139252D03*
X76750Y139252D03*
X83250Y139252D03*
X89750Y139252D03*
X96250Y139252D03*
X102750Y139252D03*
X109250Y139252D03*
X115750Y139252D03*
X122250Y139252D03*
X50750Y145752D03*
X57250Y145752D03*
X63750Y145752D03*
X70250Y145752D03*
X76750Y145752D03*
X83250Y145752D03*
X89750Y145752D03*
X96250Y145752D03*
X102750Y145752D03*
X109250Y145752D03*
X115750Y145752D03*
X122250Y145752D03*
X50750Y152252D03*
X57250Y152252D03*
X63750Y152252D03*
X70250Y152252D03*
X76750Y152252D03*
X83250Y152252D03*
X89750Y152252D03*
X96250Y152252D03*
X102750Y152252D03*
X109250Y152252D03*
X115750Y152252D03*
X122250Y152252D03*
D11*
X194720Y206512D02*
X194720Y213492D01*
X194720Y206512D02*
X187740Y206512D01*
X187740Y213492D01*
X194720Y213492D01*
X194720Y211312D02*
X187740Y211312D01*
X212260Y213492D02*
X212260Y206512D01*
X205280Y206512D01*
X205280Y213492D01*
X212260Y213492D01*
X212260Y211312D02*
X205280Y211312D01*
D12*
X210000Y105002D03*
X210000Y95002D03*
D13*
X176000Y152502D03*
X176000Y127502D03*
D12*
X190000Y155002D03*
X190000Y145002D03*
X190000Y125002D03*
X190000Y135002D03*
X136500Y145002D03*
X136500Y135002D03*
X146000Y120002D03*
X156000Y120002D03*
X146000Y159002D03*
X156000Y159002D03*
D14*
X146000Y133252D03*
X146000Y146752D03*
X156000Y146752D03*
X156000Y133252D03*
D12*
X10000Y185002D03*
X10000Y175002D03*
X182800Y101602D03*
X172800Y101602D03*
X182800Y114302D03*
X172800Y114302D03*
D15*
X213000Y59002D03*
X23000Y213002D03*
D16*
X32500Y175002D03*
X37500Y175002D03*
X42500Y175002D03*
X47500Y175002D03*
D17*
X55000Y182502D03*
X55000Y187502D03*
X55000Y192502D03*
X55000Y197502D03*
D16*
X47500Y205002D03*
X42500Y205002D03*
X37500Y205002D03*
X32500Y205002D03*
D17*
X25000Y197652D03*
X25000Y192502D03*
X25000Y187502D03*
X25000Y182502D03*
D18*
X40000Y190002D03*
D12*
X115000Y210002D03*
X105000Y210002D03*
D11*
X85280Y206512D02*
X85280Y213492D01*
X92260Y213492D01*
X92260Y206512D01*
X85280Y206512D01*
X85280Y211312D02*
X92260Y211312D01*
X67740Y213492D02*
X67740Y206512D01*
X67740Y213492D02*
X74720Y213492D01*
X74720Y206512D01*
X67740Y206512D01*
X67740Y211312D02*
X74720Y211312D01*
D12*
X10000Y195002D03*
X10000Y205002D03*
D19*
X162500Y64602D03*
X162500Y82602D03*
D20*
X202500Y12852D03*
X197500Y12852D03*
X192500Y12852D03*
X187500Y12852D03*
X182500Y12852D03*
X177500Y12852D03*
X172500Y12852D03*
X167500Y12852D03*
X162500Y12852D03*
X157500Y12852D03*
X152500Y12852D03*
X147500Y12852D03*
X122500Y12852D03*
X117500Y12852D03*
X112500Y12852D03*
X107500Y12852D03*
X102500Y12852D03*
X97500Y12852D03*
X92500Y12852D03*
X87500Y12852D03*
X82500Y12852D03*
X77500Y12852D03*
X72500Y12852D03*
X67500Y12852D03*
X62500Y12852D03*
X57500Y12852D03*
X52500Y12852D03*
X47500Y12852D03*
X42500Y12852D03*
X37500Y12852D03*
X32500Y12852D03*
X27500Y12852D03*
X22500Y12852D03*
X17500Y12852D03*
D21*
X129000Y210102D03*
X171000Y210102D03*
X150000Y197102D03*
D10*
X257739Y67752D03*
X257739Y74252D03*
X264239Y67752D03*
X264239Y74252D03*
X257739Y80752D03*
X257739Y87252D03*
X264239Y80752D03*
X264239Y87252D03*
X257739Y93752D03*
X257739Y100252D03*
X264239Y93752D03*
X264239Y100252D03*
X257739Y106752D03*
X257739Y113252D03*
X264239Y106752D03*
X264239Y113252D03*
X257739Y119752D03*
X264239Y119752D03*
X257739Y126252D03*
X257739Y132752D03*
X264239Y126252D03*
X264239Y132752D03*
X257739Y139252D03*
X257739Y145752D03*
X264239Y139252D03*
X264239Y145752D03*
X257739Y152252D03*
X264239Y152252D03*
X270739Y67752D03*
X277239Y67752D03*
X283739Y67752D03*
X290239Y67752D03*
X296739Y67752D03*
X303239Y67752D03*
X309739Y67752D03*
X316239Y67752D03*
X322739Y67752D03*
X329239Y67752D03*
X335739Y67752D03*
X342239Y67752D03*
X270739Y74252D03*
X277239Y74252D03*
X283739Y74252D03*
X290239Y74252D03*
X296739Y74252D03*
X303239Y74252D03*
X309739Y74252D03*
X316239Y74252D03*
X322739Y74252D03*
X329239Y74252D03*
X335739Y74252D03*
X342239Y74252D03*
X270739Y80752D03*
X277239Y80752D03*
X283739Y80752D03*
X290239Y80752D03*
X296739Y80752D03*
X303239Y80752D03*
X309739Y80752D03*
X316239Y80752D03*
X322739Y80752D03*
X329239Y80752D03*
X335739Y80752D03*
X342239Y80752D03*
X270739Y87252D03*
X277239Y87252D03*
X283739Y87252D03*
X290239Y87252D03*
X296739Y87252D03*
X303239Y87252D03*
X309739Y87252D03*
X316239Y87252D03*
X322739Y87252D03*
X329239Y87252D03*
X335739Y87252D03*
X342239Y87252D03*
X270739Y93752D03*
X277239Y93752D03*
X283739Y93752D03*
X290239Y93752D03*
X296739Y93752D03*
X303239Y93752D03*
X309739Y93752D03*
X316239Y93752D03*
X322739Y93752D03*
X329239Y93752D03*
X335739Y93752D03*
X342239Y93752D03*
X270739Y100252D03*
X277239Y100252D03*
X283739Y100252D03*
X290239Y100252D03*
X296739Y100252D03*
X303239Y100252D03*
X309739Y100252D03*
X316239Y100252D03*
X322739Y100252D03*
X329239Y100252D03*
X335739Y100252D03*
X342239Y100252D03*
X270739Y106752D03*
X277239Y106752D03*
X283739Y106752D03*
X290239Y106752D03*
X296739Y106752D03*
X303239Y106752D03*
X309739Y106752D03*
X316239Y106752D03*
X322739Y106752D03*
X329239Y106752D03*
X335739Y106752D03*
X342239Y106752D03*
X270739Y113252D03*
X277239Y113252D03*
X283739Y113252D03*
X290239Y113252D03*
X296739Y113252D03*
X303239Y113252D03*
X309739Y113252D03*
X316239Y113252D03*
X322739Y113252D03*
X329239Y113252D03*
X335739Y113252D03*
X342239Y113252D03*
X270739Y119752D03*
X277239Y119752D03*
X283739Y119752D03*
X290239Y119752D03*
X296739Y119752D03*
X303239Y119752D03*
X309739Y119752D03*
X316239Y119752D03*
X322739Y119752D03*
X329239Y119752D03*
X335739Y119752D03*
X342239Y119752D03*
X270739Y126252D03*
X277239Y126252D03*
X283739Y126252D03*
X290239Y126252D03*
X296739Y126252D03*
X303239Y126252D03*
X309739Y126252D03*
X316239Y126252D03*
X322739Y126252D03*
X329239Y126252D03*
X335739Y126252D03*
X342239Y126252D03*
X270739Y132752D03*
X277239Y132752D03*
X283739Y132752D03*
X290239Y132752D03*
X296739Y132752D03*
X303239Y132752D03*
X309739Y132752D03*
X316239Y132752D03*
X322739Y132752D03*
X329239Y132752D03*
X335739Y132752D03*
X342239Y132752D03*
X270739Y139252D03*
X277239Y139252D03*
X283739Y139252D03*
X290239Y139252D03*
X296739Y139252D03*
X303239Y139252D03*
X309739Y139252D03*
X316239Y139252D03*
X322739Y139252D03*
X329239Y139252D03*
X335739Y139252D03*
X342239Y139252D03*
X270739Y145752D03*
X277239Y145752D03*
X283739Y145752D03*
X290239Y145752D03*
X296739Y145752D03*
X303239Y145752D03*
X309739Y145752D03*
X316239Y145752D03*
X322739Y145752D03*
X329239Y145752D03*
X335739Y145752D03*
X342239Y145752D03*
X270739Y152252D03*
X277239Y152252D03*
X283739Y152252D03*
X290239Y152252D03*
X296739Y152252D03*
X303239Y152252D03*
X309739Y152252D03*
X316239Y152252D03*
X322739Y152252D03*
X329239Y152252D03*
X335739Y152252D03*
X342239Y152252D03*
D11*
X414709Y206512D02*
X414709Y213492D01*
X414709Y206512D02*
X407729Y206512D01*
X407729Y213492D01*
X414709Y213492D01*
X414709Y211312D02*
X407729Y211312D01*
X432249Y213492D02*
X432249Y206512D01*
X425269Y206512D01*
X425269Y213492D01*
X432249Y213492D01*
X432249Y211312D02*
X425269Y211312D01*
D12*
X429989Y105002D03*
X429989Y95002D03*
D13*
X395989Y152502D03*
X395989Y127502D03*
D12*
X409989Y155002D03*
X409989Y145002D03*
X409989Y125002D03*
X409989Y135002D03*
X356489Y145002D03*
X356489Y135002D03*
X365989Y120002D03*
X375989Y120002D03*
X365989Y159002D03*
X375989Y159002D03*
D14*
X365989Y133252D03*
X365989Y146752D03*
X375989Y146752D03*
X375989Y133252D03*
D12*
X229989Y185002D03*
X229989Y175002D03*
X402789Y101602D03*
X392789Y101602D03*
X402789Y114302D03*
X392789Y114302D03*
D15*
X432989Y59002D03*
X242989Y213002D03*
D16*
X252489Y175002D03*
X257489Y175002D03*
X262489Y175002D03*
X267489Y175002D03*
D17*
X274989Y182502D03*
X274989Y187502D03*
X274989Y192502D03*
X274989Y197502D03*
D16*
X267489Y205002D03*
X262489Y205002D03*
X257489Y205002D03*
X252489Y205002D03*
D17*
X244989Y197652D03*
X244989Y192502D03*
X244989Y187502D03*
X244989Y182502D03*
D18*
X259989Y190002D03*
D12*
X334989Y210002D03*
X324989Y210002D03*
D11*
X305269Y206512D02*
X305269Y213492D01*
X312249Y213492D01*
X312249Y206512D01*
X305269Y206512D01*
X305269Y211312D02*
X312249Y211312D01*
X287729Y213492D02*
X287729Y206512D01*
X287729Y213492D02*
X294709Y213492D01*
X294709Y206512D01*
X287729Y206512D01*
X287729Y211312D02*
X294709Y211312D01*
D12*
X229989Y195002D03*
X229989Y205002D03*
D19*
X382489Y64602D03*
X382489Y82602D03*
D20*
X422489Y12852D03*
X417489Y12852D03*
X412489Y12852D03*
X407489Y12852D03*
X402489Y12852D03*
X397489Y12852D03*
X392489Y12852D03*
X387489Y12852D03*
X382489Y12852D03*
X377489Y12852D03*
X372489Y12852D03*
X367489Y12852D03*
X342489Y12852D03*
X337489Y12852D03*
X332489Y12852D03*
X327489Y12852D03*
X322489Y12852D03*
X317489Y12852D03*
X312489Y12852D03*
X307489Y12852D03*
X302489Y12852D03*
X297489Y12852D03*
X292489Y12852D03*
X287489Y12852D03*
X282489Y12852D03*
X277489Y12852D03*
X272489Y12852D03*
X267489Y12852D03*
X262489Y12852D03*
X257489Y12852D03*
X252489Y12852D03*
X247489Y12852D03*
X242489Y12852D03*
X237489Y12852D03*
D21*
X348989Y210102D03*
X390989Y210102D03*
X369989Y197102D03*
D10*
X477754Y67752D03*
X477754Y74252D03*
X484254Y67752D03*
X484254Y74252D03*
X477754Y80752D03*
X477754Y87252D03*
X484254Y80752D03*
X484254Y87252D03*
X477754Y93752D03*
X477754Y100252D03*
X484254Y93752D03*
X484254Y100252D03*
X477754Y106752D03*
X477754Y113252D03*
X484254Y106752D03*
X484254Y113252D03*
X477754Y119752D03*
X484254Y119752D03*
X477754Y126252D03*
X477754Y132752D03*
X484254Y126252D03*
X484254Y132752D03*
X477754Y139252D03*
X477754Y145752D03*
X484254Y139252D03*
X484254Y145752D03*
X477754Y152252D03*
X484254Y152252D03*
X490754Y67752D03*
X497254Y67752D03*
X503754Y67752D03*
X510254Y67752D03*
X516754Y67752D03*
X523254Y67752D03*
X529754Y67752D03*
X536254Y67752D03*
X542754Y67752D03*
X549254Y67752D03*
X555754Y67752D03*
X562254Y67752D03*
X490754Y74252D03*
X497254Y74252D03*
X503754Y74252D03*
X510254Y74252D03*
X516754Y74252D03*
X523254Y74252D03*
X529754Y74252D03*
X536254Y74252D03*
X542754Y74252D03*
X549254Y74252D03*
X555754Y74252D03*
X562254Y74252D03*
X490754Y80752D03*
X497254Y80752D03*
X503754Y80752D03*
X510254Y80752D03*
X516754Y80752D03*
X523254Y80752D03*
X529754Y80752D03*
X536254Y80752D03*
X542754Y80752D03*
X549254Y80752D03*
X555754Y80752D03*
X562254Y80752D03*
X490754Y87252D03*
X497254Y87252D03*
X503754Y87252D03*
X510254Y87252D03*
X516754Y87252D03*
X523254Y87252D03*
X529754Y87252D03*
X536254Y87252D03*
X542754Y87252D03*
X549254Y87252D03*
X555754Y87252D03*
X562254Y87252D03*
X490754Y93752D03*
X497254Y93752D03*
X503754Y93752D03*
X510254Y93752D03*
X516754Y93752D03*
X523254Y93752D03*
X529754Y93752D03*
X536254Y93752D03*
X542754Y93752D03*
X549254Y93752D03*
X555754Y93752D03*
X562254Y93752D03*
X490754Y100252D03*
X497254Y100252D03*
X503754Y100252D03*
X510254Y100252D03*
X516754Y100252D03*
X523254Y100252D03*
X529754Y100252D03*
X536254Y100252D03*
X542754Y100252D03*
X549254Y100252D03*
X555754Y100252D03*
X562254Y100252D03*
X490754Y106752D03*
X497254Y106752D03*
X503754Y106752D03*
X510254Y106752D03*
X516754Y106752D03*
X523254Y106752D03*
X529754Y106752D03*
X536254Y106752D03*
X542754Y106752D03*
X549254Y106752D03*
X555754Y106752D03*
X562254Y106752D03*
X490754Y113252D03*
X497254Y113252D03*
X503754Y113252D03*
X510254Y113252D03*
X516754Y113252D03*
X523254Y113252D03*
X529754Y113252D03*
X536254Y113252D03*
X542754Y113252D03*
X549254Y113252D03*
X555754Y113252D03*
X562254Y113252D03*
X490754Y119752D03*
X497254Y119752D03*
X503754Y119752D03*
X510254Y119752D03*
X516754Y119752D03*
X523254Y119752D03*
X529754Y119752D03*
X536254Y119752D03*
X542754Y119752D03*
X549254Y119752D03*
X555754Y119752D03*
X562254Y119752D03*
X490754Y126252D03*
X497254Y126252D03*
X503754Y126252D03*
X510254Y126252D03*
X516754Y126252D03*
X523254Y126252D03*
X529754Y126252D03*
X536254Y126252D03*
X542754Y126252D03*
X549254Y126252D03*
X555754Y126252D03*
X562254Y126252D03*
X490754Y132752D03*
X497254Y132752D03*
X503754Y132752D03*
X510254Y132752D03*
X516754Y132752D03*
X523254Y132752D03*
X529754Y132752D03*
X536254Y132752D03*
X542754Y132752D03*
X549254Y132752D03*
X555754Y132752D03*
X562254Y132752D03*
X490754Y139252D03*
X497254Y139252D03*
X503754Y139252D03*
X510254Y139252D03*
X516754Y139252D03*
X523254Y139252D03*
X529754Y139252D03*
X536254Y139252D03*
X542754Y139252D03*
X549254Y139252D03*
X555754Y139252D03*
X562254Y139252D03*
X490754Y145752D03*
X497254Y145752D03*
X503754Y145752D03*
X510254Y145752D03*
X516754Y145752D03*
X523254Y145752D03*
X529754Y145752D03*
X536254Y145752D03*
X542754Y145752D03*
X549254Y145752D03*
X555754Y145752D03*
X562254Y145752D03*
X490754Y152252D03*
X497254Y152252D03*
X503754Y152252D03*
X510254Y152252D03*
X516754Y152252D03*
X523254Y152252D03*
X529754Y152252D03*
X536254Y152252D03*
X542754Y152252D03*
X549254Y152252D03*
X555754Y152252D03*
X562254Y152252D03*
D11*
X634724Y206512D02*
X634724Y213492D01*
X634724Y206512D02*
X627744Y206512D01*
X627744Y213492D01*
X634724Y213492D01*
X634724Y211312D02*
X627744Y211312D01*
X652264Y213492D02*
X652264Y206512D01*
X645284Y206512D01*
X645284Y213492D01*
X652264Y213492D01*
X652264Y211312D02*
X645284Y211312D01*
D12*
X650004Y105002D03*
X650004Y95002D03*
D13*
X616004Y152502D03*
X616004Y127502D03*
D12*
X630004Y155002D03*
X630004Y145002D03*
X630004Y125002D03*
X630004Y135002D03*
X576504Y145002D03*
X576504Y135002D03*
X586004Y120002D03*
X596004Y120002D03*
X586004Y159002D03*
X596004Y159002D03*
D14*
X586004Y133252D03*
X586004Y146752D03*
X596004Y146752D03*
X596004Y133252D03*
D12*
X450004Y185002D03*
X450004Y175002D03*
X622804Y101602D03*
X612804Y101602D03*
X622804Y114302D03*
X612804Y114302D03*
D15*
X653004Y59002D03*
X463004Y213002D03*
D16*
X472504Y175002D03*
X477504Y175002D03*
X482504Y175002D03*
X487504Y175002D03*
D17*
X495004Y182502D03*
X495004Y187502D03*
X495004Y192502D03*
X495004Y197502D03*
D16*
X487504Y205002D03*
X482504Y205002D03*
X477504Y205002D03*
X472504Y205002D03*
D17*
X465004Y197652D03*
X465004Y192502D03*
X465004Y187502D03*
X465004Y182502D03*
D18*
X480004Y190002D03*
D12*
X555004Y210002D03*
X545004Y210002D03*
D11*
X525284Y206512D02*
X525284Y213492D01*
X532264Y213492D01*
X532264Y206512D01*
X525284Y206512D01*
X525284Y211312D02*
X532264Y211312D01*
X507744Y213492D02*
X507744Y206512D01*
X507744Y213492D02*
X514724Y213492D01*
X514724Y206512D01*
X507744Y206512D01*
X507744Y211312D02*
X514724Y211312D01*
D12*
X450004Y195002D03*
X450004Y205002D03*
D19*
X602504Y64602D03*
X602504Y82602D03*
D20*
X642504Y12852D03*
X637504Y12852D03*
X632504Y12852D03*
X627504Y12852D03*
X622504Y12852D03*
X617504Y12852D03*
X612504Y12852D03*
X607504Y12852D03*
X602504Y12852D03*
X597504Y12852D03*
X592504Y12852D03*
X587504Y12852D03*
X562504Y12852D03*
X557504Y12852D03*
X552504Y12852D03*
X547504Y12852D03*
X542504Y12852D03*
X537504Y12852D03*
X532504Y12852D03*
X527504Y12852D03*
X522504Y12852D03*
X517504Y12852D03*
X512504Y12852D03*
X507504Y12852D03*
X502504Y12852D03*
X497504Y12852D03*
X492504Y12852D03*
X487504Y12852D03*
X482504Y12852D03*
X477504Y12852D03*
X472504Y12852D03*
X467504Y12852D03*
X462504Y12852D03*
X457504Y12852D03*
D21*
X569004Y210102D03*
X611004Y210102D03*
X590004Y197102D03*
D10*
X697744Y67752D03*
X697744Y74252D03*
X704244Y67752D03*
X704244Y74252D03*
X697744Y80752D03*
X697744Y87252D03*
X704244Y80752D03*
X704244Y87252D03*
X697744Y93752D03*
X697744Y100252D03*
X704244Y93752D03*
X704244Y100252D03*
X697744Y106752D03*
X697744Y113252D03*
X704244Y106752D03*
X704244Y113252D03*
X697744Y119752D03*
X704244Y119752D03*
X697744Y126252D03*
X697744Y132752D03*
X704244Y126252D03*
X704244Y132752D03*
X697744Y139252D03*
X697744Y145752D03*
X704244Y139252D03*
X704244Y145752D03*
X697744Y152252D03*
X704244Y152252D03*
X710744Y67752D03*
X717244Y67752D03*
X723744Y67752D03*
X730244Y67752D03*
X736744Y67752D03*
X743244Y67752D03*
X749744Y67752D03*
X756244Y67752D03*
X762744Y67752D03*
X769244Y67752D03*
X775744Y67752D03*
X782244Y67752D03*
X710744Y74252D03*
X717244Y74252D03*
X723744Y74252D03*
X730244Y74252D03*
X736744Y74252D03*
X743244Y74252D03*
X749744Y74252D03*
X756244Y74252D03*
X762744Y74252D03*
X769244Y74252D03*
X775744Y74252D03*
X782244Y74252D03*
X710744Y80752D03*
X717244Y80752D03*
X723744Y80752D03*
X730244Y80752D03*
X736744Y80752D03*
X743244Y80752D03*
X749744Y80752D03*
X756244Y80752D03*
X762744Y80752D03*
X769244Y80752D03*
X775744Y80752D03*
X782244Y80752D03*
X710744Y87252D03*
X717244Y87252D03*
X723744Y87252D03*
X730244Y87252D03*
X736744Y87252D03*
X743244Y87252D03*
X749744Y87252D03*
X756244Y87252D03*
X762744Y87252D03*
X769244Y87252D03*
X775744Y87252D03*
X782244Y87252D03*
X710744Y93752D03*
X717244Y93752D03*
X723744Y93752D03*
X730244Y93752D03*
X736744Y93752D03*
X743244Y93752D03*
X749744Y93752D03*
X756244Y93752D03*
X762744Y93752D03*
X769244Y93752D03*
X775744Y93752D03*
X782244Y93752D03*
X710744Y100252D03*
X717244Y100252D03*
X723744Y100252D03*
X730244Y100252D03*
X736744Y100252D03*
X743244Y100252D03*
X749744Y100252D03*
X756244Y100252D03*
X762744Y100252D03*
X769244Y100252D03*
X775744Y100252D03*
X782244Y100252D03*
X710744Y106752D03*
X717244Y106752D03*
X723744Y106752D03*
X730244Y106752D03*
X736744Y106752D03*
X743244Y106752D03*
X749744Y106752D03*
X756244Y106752D03*
X762744Y106752D03*
X769244Y106752D03*
X775744Y106752D03*
X782244Y106752D03*
X710744Y113252D03*
X717244Y113252D03*
X723744Y113252D03*
X730244Y113252D03*
X736744Y113252D03*
X743244Y113252D03*
X749744Y113252D03*
X756244Y113252D03*
X762744Y113252D03*
X769244Y113252D03*
X775744Y113252D03*
X782244Y113252D03*
X710744Y119752D03*
X717244Y119752D03*
X723744Y119752D03*
X730244Y119752D03*
X736744Y119752D03*
X743244Y119752D03*
X749744Y119752D03*
X756244Y119752D03*
X762744Y119752D03*
X769244Y119752D03*
X775744Y119752D03*
X782244Y119752D03*
X710744Y126252D03*
X717244Y126252D03*
X723744Y126252D03*
X730244Y126252D03*
X736744Y126252D03*
X743244Y126252D03*
X749744Y126252D03*
X756244Y126252D03*
X762744Y126252D03*
X769244Y126252D03*
X775744Y126252D03*
X782244Y126252D03*
X710744Y132752D03*
X717244Y132752D03*
X723744Y132752D03*
X730244Y132752D03*
X736744Y132752D03*
X743244Y132752D03*
X749744Y132752D03*
X756244Y132752D03*
X762744Y132752D03*
X769244Y132752D03*
X775744Y132752D03*
X782244Y132752D03*
X710744Y139252D03*
X717244Y139252D03*
X723744Y139252D03*
X730244Y139252D03*
X736744Y139252D03*
X743244Y139252D03*
X749744Y139252D03*
X756244Y139252D03*
X762744Y139252D03*
X769244Y139252D03*
X775744Y139252D03*
X782244Y139252D03*
X710744Y145752D03*
X717244Y145752D03*
X723744Y145752D03*
X730244Y145752D03*
X736744Y145752D03*
X743244Y145752D03*
X749744Y145752D03*
X756244Y145752D03*
X762744Y145752D03*
X769244Y145752D03*
X775744Y145752D03*
X782244Y145752D03*
X710744Y152252D03*
X717244Y152252D03*
X723744Y152252D03*
X730244Y152252D03*
X736744Y152252D03*
X743244Y152252D03*
X749744Y152252D03*
X756244Y152252D03*
X762744Y152252D03*
X769244Y152252D03*
X775744Y152252D03*
X782244Y152252D03*
D11*
X854714Y206512D02*
X854714Y213492D01*
X854714Y206512D02*
X847734Y206512D01*
X847734Y213492D01*
X854714Y213492D01*
X854714Y211312D02*
X847734Y211312D01*
X872254Y213492D02*
X872254Y206512D01*
X865274Y206512D01*
X865274Y213492D01*
X872254Y213492D01*
X872254Y211312D02*
X865274Y211312D01*
D12*
X869994Y105002D03*
X869994Y95002D03*
D13*
X835994Y152502D03*
X835994Y127502D03*
D12*
X849994Y155002D03*
X849994Y145002D03*
X849994Y125002D03*
X849994Y135002D03*
X796494Y145002D03*
X796494Y135002D03*
X805994Y120002D03*
X815994Y120002D03*
X805994Y159002D03*
X815994Y159002D03*
D14*
X805994Y133252D03*
X805994Y146752D03*
X815994Y146752D03*
X815994Y133252D03*
D12*
X669994Y185002D03*
X669994Y175002D03*
X842794Y101602D03*
X832794Y101602D03*
X842794Y114302D03*
X832794Y114302D03*
D15*
X872994Y59002D03*
X682994Y213002D03*
D16*
X692494Y175002D03*
X697494Y175002D03*
X702494Y175002D03*
X707494Y175002D03*
D17*
X714994Y182502D03*
X714994Y187502D03*
X714994Y192502D03*
X714994Y197502D03*
D16*
X707494Y205002D03*
X702494Y205002D03*
X697494Y205002D03*
X692494Y205002D03*
D17*
X684994Y197652D03*
X684994Y192502D03*
X684994Y187502D03*
X684994Y182502D03*
D18*
X699994Y190002D03*
D12*
X774994Y210002D03*
X764994Y210002D03*
D11*
X745274Y206512D02*
X745274Y213492D01*
X752254Y213492D01*
X752254Y206512D01*
X745274Y206512D01*
X745274Y211312D02*
X752254Y211312D01*
X727734Y213492D02*
X727734Y206512D01*
X727734Y213492D02*
X734714Y213492D01*
X734714Y206512D01*
X727734Y206512D01*
X727734Y211312D02*
X734714Y211312D01*
D12*
X669994Y195002D03*
X669994Y205002D03*
D19*
X822494Y64602D03*
X822494Y82602D03*
D20*
X862494Y12852D03*
X857494Y12852D03*
X852494Y12852D03*
X847494Y12852D03*
X842494Y12852D03*
X837494Y12852D03*
X832494Y12852D03*
X827494Y12852D03*
X822494Y12852D03*
X817494Y12852D03*
X812494Y12852D03*
X807494Y12852D03*
X782494Y12852D03*
X777494Y12852D03*
X772494Y12852D03*
X767494Y12852D03*
X762494Y12852D03*
X757494Y12852D03*
X752494Y12852D03*
X747494Y12852D03*
X742494Y12852D03*
X737494Y12852D03*
X732494Y12852D03*
X727494Y12852D03*
X722494Y12852D03*
X717494Y12852D03*
X712494Y12852D03*
X707494Y12852D03*
X702494Y12852D03*
X697494Y12852D03*
X692494Y12852D03*
X687494Y12852D03*
X682494Y12852D03*
X677494Y12852D03*
D21*
X788994Y210102D03*
X830994Y210102D03*
X809994Y197102D03*
D10*
X917758Y67752D03*
X917758Y74252D03*
X924258Y67752D03*
X924258Y74252D03*
X917758Y80752D03*
X917758Y87252D03*
X924258Y80752D03*
X924258Y87252D03*
X917758Y93752D03*
X917758Y100252D03*
X924258Y93752D03*
X924258Y100252D03*
X917758Y106752D03*
X917758Y113252D03*
X924258Y106752D03*
X924258Y113252D03*
X917758Y119752D03*
X924258Y119752D03*
X917758Y126252D03*
X917758Y132752D03*
X924258Y126252D03*
X924258Y132752D03*
X917758Y139252D03*
X917758Y145752D03*
X924258Y139252D03*
X924258Y145752D03*
X917758Y152252D03*
X924258Y152252D03*
X930758Y67752D03*
X937258Y67752D03*
X943758Y67752D03*
X950258Y67752D03*
X956758Y67752D03*
X963258Y67752D03*
X969758Y67752D03*
X976258Y67752D03*
X982758Y67752D03*
X989258Y67752D03*
X995758Y67752D03*
X1002258Y67752D03*
X930758Y74252D03*
X937258Y74252D03*
X943758Y74252D03*
X950258Y74252D03*
X956758Y74252D03*
X963258Y74252D03*
X969758Y74252D03*
X976258Y74252D03*
X982758Y74252D03*
X989258Y74252D03*
X995758Y74252D03*
X1002258Y74252D03*
X930758Y80752D03*
X937258Y80752D03*
X943758Y80752D03*
X950258Y80752D03*
X956758Y80752D03*
X963258Y80752D03*
X969758Y80752D03*
X976258Y80752D03*
X982758Y80752D03*
X989258Y80752D03*
X995758Y80752D03*
X1002258Y80752D03*
X930758Y87252D03*
X937258Y87252D03*
X943758Y87252D03*
X950258Y87252D03*
X956758Y87252D03*
X963258Y87252D03*
X969758Y87252D03*
X976258Y87252D03*
X982758Y87252D03*
X989258Y87252D03*
X995758Y87252D03*
X1002258Y87252D03*
X930758Y93752D03*
X937258Y93752D03*
X943758Y93752D03*
X950258Y93752D03*
X956758Y93752D03*
X963258Y93752D03*
X969758Y93752D03*
X976258Y93752D03*
X982758Y93752D03*
X989258Y93752D03*
X995758Y93752D03*
X1002258Y93752D03*
X930758Y100252D03*
X937258Y100252D03*
X943758Y100252D03*
X950258Y100252D03*
X956758Y100252D03*
X963258Y100252D03*
X969758Y100252D03*
X976258Y100252D03*
X982758Y100252D03*
X989258Y100252D03*
X995758Y100252D03*
X1002258Y100252D03*
X930758Y106752D03*
X937258Y106752D03*
X943758Y106752D03*
X950258Y106752D03*
X956758Y106752D03*
X963258Y106752D03*
X969758Y106752D03*
X976258Y106752D03*
X982758Y106752D03*
X989258Y106752D03*
X995758Y106752D03*
X1002258Y106752D03*
X930758Y113252D03*
X937258Y113252D03*
X943758Y113252D03*
X950258Y113252D03*
X956758Y113252D03*
X963258Y113252D03*
X969758Y113252D03*
X976258Y113252D03*
X982758Y113252D03*
X989258Y113252D03*
X995758Y113252D03*
X1002258Y113252D03*
X930758Y119752D03*
X937258Y119752D03*
X943758Y119752D03*
X950258Y119752D03*
X956758Y119752D03*
X963258Y119752D03*
X969758Y119752D03*
X976258Y119752D03*
X982758Y119752D03*
X989258Y119752D03*
X995758Y119752D03*
X1002258Y119752D03*
X930758Y126252D03*
X937258Y126252D03*
X943758Y126252D03*
X950258Y126252D03*
X956758Y126252D03*
X963258Y126252D03*
X969758Y126252D03*
X976258Y126252D03*
X982758Y126252D03*
X989258Y126252D03*
X995758Y126252D03*
X1002258Y126252D03*
X930758Y132752D03*
X937258Y132752D03*
X943758Y132752D03*
X950258Y132752D03*
X956758Y132752D03*
X963258Y132752D03*
X969758Y132752D03*
X976258Y132752D03*
X982758Y132752D03*
X989258Y132752D03*
X995758Y132752D03*
X1002258Y132752D03*
X930758Y139252D03*
X937258Y139252D03*
X943758Y139252D03*
X950258Y139252D03*
X956758Y139252D03*
X963258Y139252D03*
X969758Y139252D03*
X976258Y139252D03*
X982758Y139252D03*
X989258Y139252D03*
X995758Y139252D03*
X1002258Y139252D03*
X930758Y145752D03*
X937258Y145752D03*
X943758Y145752D03*
X950258Y145752D03*
X956758Y145752D03*
X963258Y145752D03*
X969758Y145752D03*
X976258Y145752D03*
X982758Y145752D03*
X989258Y145752D03*
X995758Y145752D03*
X1002258Y145752D03*
X930758Y152252D03*
X937258Y152252D03*
X943758Y152252D03*
X950258Y152252D03*
X956758Y152252D03*
X963258Y152252D03*
X969758Y152252D03*
X976258Y152252D03*
X982758Y152252D03*
X989258Y152252D03*
X995758Y152252D03*
X1002258Y152252D03*
D11*
X1074728Y206512D02*
X1074728Y213492D01*
X1074728Y206512D02*
X1067748Y206512D01*
X1067748Y213492D01*
X1074728Y213492D01*
X1074728Y211312D02*
X1067748Y211312D01*
X1092268Y213492D02*
X1092268Y206512D01*
X1085288Y206512D01*
X1085288Y213492D01*
X1092268Y213492D01*
X1092268Y211312D02*
X1085288Y211312D01*
D12*
X1090008Y105002D03*
X1090008Y95002D03*
D13*
X1056008Y152502D03*
X1056008Y127502D03*
D12*
X1070008Y155002D03*
X1070008Y145002D03*
X1070008Y125002D03*
X1070008Y135002D03*
X1016508Y145002D03*
X1016508Y135002D03*
X1026008Y120002D03*
X1036008Y120002D03*
X1026008Y159002D03*
X1036008Y159002D03*
D14*
X1026008Y133252D03*
X1026008Y146752D03*
X1036008Y146752D03*
X1036008Y133252D03*
D12*
X890008Y185002D03*
X890008Y175002D03*
X1062808Y101602D03*
X1052808Y101602D03*
X1062808Y114302D03*
X1052808Y114302D03*
D15*
X1093008Y59002D03*
X903008Y213002D03*
D16*
X912508Y175002D03*
X917508Y175002D03*
X922508Y175002D03*
X927508Y175002D03*
D17*
X935008Y182502D03*
X935008Y187502D03*
X935008Y192502D03*
X935008Y197502D03*
D16*
X927508Y205002D03*
X922508Y205002D03*
X917508Y205002D03*
X912508Y205002D03*
D17*
X905008Y197652D03*
X905008Y192502D03*
X905008Y187502D03*
X905008Y182502D03*
D18*
X920008Y190002D03*
D12*
X995008Y210002D03*
X985008Y210002D03*
D11*
X965288Y206512D02*
X965288Y213492D01*
X972268Y213492D01*
X972268Y206512D01*
X965288Y206512D01*
X965288Y211312D02*
X972268Y211312D01*
X947748Y213492D02*
X947748Y206512D01*
X947748Y213492D02*
X954728Y213492D01*
X954728Y206512D01*
X947748Y206512D01*
X947748Y211312D02*
X954728Y211312D01*
D12*
X890008Y195002D03*
X890008Y205002D03*
D19*
X1042508Y64602D03*
X1042508Y82602D03*
D20*
X1082508Y12852D03*
X1077508Y12852D03*
X1072508Y12852D03*
X1067508Y12852D03*
X1062508Y12852D03*
X1057508Y12852D03*
X1052508Y12852D03*
X1047508Y12852D03*
X1042508Y12852D03*
X1037508Y12852D03*
X1032508Y12852D03*
X1027508Y12852D03*
X1002508Y12852D03*
X997508Y12852D03*
X992508Y12852D03*
X987508Y12852D03*
X982508Y12852D03*
X977508Y12852D03*
X972508Y12852D03*
X967508Y12852D03*
X962508Y12852D03*
X957508Y12852D03*
X952508Y12852D03*
X947508Y12852D03*
X942508Y12852D03*
X937508Y12852D03*
X932508Y12852D03*
X927508Y12852D03*
X922508Y12852D03*
X917508Y12852D03*
X912508Y12852D03*
X907508Y12852D03*
X902508Y12852D03*
X897508Y12852D03*
D21*
X1009008Y210102D03*
X1051008Y210102D03*
X1030008Y197102D03*
D10*
X1137748Y67752D03*
X1137748Y74252D03*
X1144248Y67752D03*
X1144248Y74252D03*
X1137748Y80752D03*
X1137748Y87252D03*
X1144248Y80752D03*
X1144248Y87252D03*
X1137748Y93752D03*
X1137748Y100252D03*
X1144248Y93752D03*
X1144248Y100252D03*
X1137748Y106752D03*
X1137748Y113252D03*
X1144248Y106752D03*
X1144248Y113252D03*
X1137748Y119752D03*
X1144248Y119752D03*
X1137748Y126252D03*
X1137748Y132752D03*
X1144248Y126252D03*
X1144248Y132752D03*
X1137748Y139252D03*
X1137748Y145752D03*
X1144248Y139252D03*
X1144248Y145752D03*
X1137748Y152252D03*
X1144248Y152252D03*
X1150748Y67752D03*
X1157248Y67752D03*
X1163748Y67752D03*
X1170248Y67752D03*
X1176748Y67752D03*
X1183248Y67752D03*
X1189748Y67752D03*
X1196248Y67752D03*
X1202748Y67752D03*
X1209248Y67752D03*
X1215748Y67752D03*
X1222248Y67752D03*
X1150748Y74252D03*
X1157248Y74252D03*
X1163748Y74252D03*
X1170248Y74252D03*
X1176748Y74252D03*
X1183248Y74252D03*
X1189748Y74252D03*
X1196248Y74252D03*
X1202748Y74252D03*
X1209248Y74252D03*
X1215748Y74252D03*
X1222248Y74252D03*
X1150748Y80752D03*
X1157248Y80752D03*
X1163748Y80752D03*
X1170248Y80752D03*
X1176748Y80752D03*
X1183248Y80752D03*
X1189748Y80752D03*
X1196248Y80752D03*
X1202748Y80752D03*
X1209248Y80752D03*
X1215748Y80752D03*
X1222248Y80752D03*
X1150748Y87252D03*
X1157248Y87252D03*
X1163748Y87252D03*
X1170248Y87252D03*
X1176748Y87252D03*
X1183248Y87252D03*
X1189748Y87252D03*
X1196248Y87252D03*
X1202748Y87252D03*
X1209248Y87252D03*
X1215748Y87252D03*
X1222248Y87252D03*
X1150748Y93752D03*
X1157248Y93752D03*
X1163748Y93752D03*
X1170248Y93752D03*
X1176748Y93752D03*
X1183248Y93752D03*
X1189748Y93752D03*
X1196248Y93752D03*
X1202748Y93752D03*
X1209248Y93752D03*
X1215748Y93752D03*
X1222248Y93752D03*
X1150748Y100252D03*
X1157248Y100252D03*
X1163748Y100252D03*
X1170248Y100252D03*
X1176748Y100252D03*
X1183248Y100252D03*
X1189748Y100252D03*
X1196248Y100252D03*
X1202748Y100252D03*
X1209248Y100252D03*
X1215748Y100252D03*
X1222248Y100252D03*
X1150748Y106752D03*
X1157248Y106752D03*
X1163748Y106752D03*
X1170248Y106752D03*
X1176748Y106752D03*
X1183248Y106752D03*
X1189748Y106752D03*
X1196248Y106752D03*
X1202748Y106752D03*
X1209248Y106752D03*
X1215748Y106752D03*
X1222248Y106752D03*
X1150748Y113252D03*
X1157248Y113252D03*
X1163748Y113252D03*
X1170248Y113252D03*
X1176748Y113252D03*
X1183248Y113252D03*
X1189748Y113252D03*
X1196248Y113252D03*
X1202748Y113252D03*
X1209248Y113252D03*
X1215748Y113252D03*
X1222248Y113252D03*
X1150748Y119752D03*
X1157248Y119752D03*
X1163748Y119752D03*
X1170248Y119752D03*
X1176748Y119752D03*
X1183248Y119752D03*
X1189748Y119752D03*
X1196248Y119752D03*
X1202748Y119752D03*
X1209248Y119752D03*
X1215748Y119752D03*
X1222248Y119752D03*
X1150748Y126252D03*
X1157248Y126252D03*
X1163748Y126252D03*
X1170248Y126252D03*
X1176748Y126252D03*
X1183248Y126252D03*
X1189748Y126252D03*
X1196248Y126252D03*
X1202748Y126252D03*
X1209248Y126252D03*
X1215748Y126252D03*
X1222248Y126252D03*
X1150748Y132752D03*
X1157248Y132752D03*
X1163748Y132752D03*
X1170248Y132752D03*
X1176748Y132752D03*
X1183248Y132752D03*
X1189748Y132752D03*
X1196248Y132752D03*
X1202748Y132752D03*
X1209248Y132752D03*
X1215748Y132752D03*
X1222248Y132752D03*
X1150748Y139252D03*
X1157248Y139252D03*
X1163748Y139252D03*
X1170248Y139252D03*
X1176748Y139252D03*
X1183248Y139252D03*
X1189748Y139252D03*
X1196248Y139252D03*
X1202748Y139252D03*
X1209248Y139252D03*
X1215748Y139252D03*
X1222248Y139252D03*
X1150748Y145752D03*
X1157248Y145752D03*
X1163748Y145752D03*
X1170248Y145752D03*
X1176748Y145752D03*
X1183248Y145752D03*
X1189748Y145752D03*
X1196248Y145752D03*
X1202748Y145752D03*
X1209248Y145752D03*
X1215748Y145752D03*
X1222248Y145752D03*
X1150748Y152252D03*
X1157248Y152252D03*
X1163748Y152252D03*
X1170248Y152252D03*
X1176748Y152252D03*
X1183248Y152252D03*
X1189748Y152252D03*
X1196248Y152252D03*
X1202748Y152252D03*
X1209248Y152252D03*
X1215748Y152252D03*
X1222248Y152252D03*
D11*
X1294718Y206512D02*
X1294718Y213492D01*
X1294718Y206512D02*
X1287738Y206512D01*
X1287738Y213492D01*
X1294718Y213492D01*
X1294718Y211312D02*
X1287738Y211312D01*
X1312258Y213492D02*
X1312258Y206512D01*
X1305278Y206512D01*
X1305278Y213492D01*
X1312258Y213492D01*
X1312258Y211312D02*
X1305278Y211312D01*
D12*
X1309998Y105002D03*
X1309998Y95002D03*
D13*
X1275998Y152502D03*
X1275998Y127502D03*
D12*
X1289998Y155002D03*
X1289998Y145002D03*
X1289998Y125002D03*
X1289998Y135002D03*
X1236498Y145002D03*
X1236498Y135002D03*
X1245998Y120002D03*
X1255998Y120002D03*
X1245998Y159002D03*
X1255998Y159002D03*
D14*
X1245998Y133252D03*
X1245998Y146752D03*
X1255998Y146752D03*
X1255998Y133252D03*
D12*
X1109998Y185002D03*
X1109998Y175002D03*
X1282798Y101602D03*
X1272798Y101602D03*
X1282798Y114302D03*
X1272798Y114302D03*
D15*
X1312998Y59002D03*
X1122998Y213002D03*
D16*
X1132498Y175002D03*
X1137498Y175002D03*
X1142498Y175002D03*
X1147498Y175002D03*
D17*
X1154998Y182502D03*
X1154998Y187502D03*
X1154998Y192502D03*
X1154998Y197502D03*
D16*
X1147498Y205002D03*
X1142498Y205002D03*
X1137498Y205002D03*
X1132498Y205002D03*
D17*
X1124998Y197652D03*
X1124998Y192502D03*
X1124998Y187502D03*
X1124998Y182502D03*
D18*
X1139998Y190002D03*
D12*
X1214998Y210002D03*
X1204998Y210002D03*
D11*
X1185278Y206512D02*
X1185278Y213492D01*
X1192258Y213492D01*
X1192258Y206512D01*
X1185278Y206512D01*
X1185278Y211312D02*
X1192258Y211312D01*
X1167738Y213492D02*
X1167738Y206512D01*
X1167738Y213492D02*
X1174718Y213492D01*
X1174718Y206512D01*
X1167738Y206512D01*
X1167738Y211312D02*
X1174718Y211312D01*
D12*
X1109998Y195002D03*
X1109998Y205002D03*
D19*
X1262498Y64602D03*
X1262498Y82602D03*
D20*
X1302498Y12852D03*
X1297498Y12852D03*
X1292498Y12852D03*
X1287498Y12852D03*
X1282498Y12852D03*
X1277498Y12852D03*
X1272498Y12852D03*
X1267498Y12852D03*
X1262498Y12852D03*
X1257498Y12852D03*
X1252498Y12852D03*
X1247498Y12852D03*
X1222498Y12852D03*
X1217498Y12852D03*
X1212498Y12852D03*
X1207498Y12852D03*
X1202498Y12852D03*
X1197498Y12852D03*
X1192498Y12852D03*
X1187498Y12852D03*
X1182498Y12852D03*
X1177498Y12852D03*
X1172498Y12852D03*
X1167498Y12852D03*
X1162498Y12852D03*
X1157498Y12852D03*
X1152498Y12852D03*
X1147498Y12852D03*
X1142498Y12852D03*
X1137498Y12852D03*
X1132498Y12852D03*
X1127498Y12852D03*
X1122498Y12852D03*
X1117498Y12852D03*
D21*
X1228998Y210102D03*
X1270998Y210102D03*
X1249998Y197102D03*
D10*
X1357763Y67752D03*
X1357763Y74252D03*
X1364263Y67752D03*
X1364263Y74252D03*
X1357763Y80752D03*
X1357763Y87252D03*
X1364263Y80752D03*
X1364263Y87252D03*
X1357763Y93752D03*
X1357763Y100252D03*
X1364263Y93752D03*
X1364263Y100252D03*
X1357763Y106752D03*
X1357763Y113252D03*
X1364263Y106752D03*
X1364263Y113252D03*
X1357763Y119752D03*
X1364263Y119752D03*
X1357763Y126252D03*
X1357763Y132752D03*
X1364263Y126252D03*
X1364263Y132752D03*
X1357763Y139252D03*
X1357763Y145752D03*
X1364263Y139252D03*
X1364263Y145752D03*
X1357763Y152252D03*
X1364263Y152252D03*
X1370763Y67752D03*
X1377263Y67752D03*
X1383763Y67752D03*
X1390263Y67752D03*
X1396763Y67752D03*
X1403263Y67752D03*
X1409763Y67752D03*
X1416263Y67752D03*
X1422763Y67752D03*
X1429263Y67752D03*
X1435763Y67752D03*
X1442263Y67752D03*
X1370763Y74252D03*
X1377263Y74252D03*
X1383763Y74252D03*
X1390263Y74252D03*
X1396763Y74252D03*
X1403263Y74252D03*
X1409763Y74252D03*
X1416263Y74252D03*
X1422763Y74252D03*
X1429263Y74252D03*
X1435763Y74252D03*
X1442263Y74252D03*
X1370763Y80752D03*
X1377263Y80752D03*
X1383763Y80752D03*
X1390263Y80752D03*
X1396763Y80752D03*
X1403263Y80752D03*
X1409763Y80752D03*
X1416263Y80752D03*
X1422763Y80752D03*
X1429263Y80752D03*
X1435763Y80752D03*
X1442263Y80752D03*
X1370763Y87252D03*
X1377263Y87252D03*
X1383763Y87252D03*
X1390263Y87252D03*
X1396763Y87252D03*
X1403263Y87252D03*
X1409763Y87252D03*
X1416263Y87252D03*
X1422763Y87252D03*
X1429263Y87252D03*
X1435763Y87252D03*
X1442263Y87252D03*
X1370763Y93752D03*
X1377263Y93752D03*
X1383763Y93752D03*
X1390263Y93752D03*
X1396763Y93752D03*
X1403263Y93752D03*
X1409763Y93752D03*
X1416263Y93752D03*
X1422763Y93752D03*
X1429263Y93752D03*
X1435763Y93752D03*
X1442263Y93752D03*
X1370763Y100252D03*
X1377263Y100252D03*
X1383763Y100252D03*
X1390263Y100252D03*
X1396763Y100252D03*
X1403263Y100252D03*
X1409763Y100252D03*
X1416263Y100252D03*
X1422763Y100252D03*
X1429263Y100252D03*
X1435763Y100252D03*
X1442263Y100252D03*
X1370763Y106752D03*
X1377263Y106752D03*
X1383763Y106752D03*
X1390263Y106752D03*
X1396763Y106752D03*
X1403263Y106752D03*
X1409763Y106752D03*
X1416263Y106752D03*
X1422763Y106752D03*
X1429263Y106752D03*
X1435763Y106752D03*
X1442263Y106752D03*
X1370763Y113252D03*
X1377263Y113252D03*
X1383763Y113252D03*
X1390263Y113252D03*
X1396763Y113252D03*
X1403263Y113252D03*
X1409763Y113252D03*
X1416263Y113252D03*
X1422763Y113252D03*
X1429263Y113252D03*
X1435763Y113252D03*
X1442263Y113252D03*
X1370763Y119752D03*
X1377263Y119752D03*
X1383763Y119752D03*
X1390263Y119752D03*
X1396763Y119752D03*
X1403263Y119752D03*
X1409763Y119752D03*
X1416263Y119752D03*
X1422763Y119752D03*
X1429263Y119752D03*
X1435763Y119752D03*
X1442263Y119752D03*
X1370763Y126252D03*
X1377263Y126252D03*
X1383763Y126252D03*
X1390263Y126252D03*
X1396763Y126252D03*
X1403263Y126252D03*
X1409763Y126252D03*
X1416263Y126252D03*
X1422763Y126252D03*
X1429263Y126252D03*
X1435763Y126252D03*
X1442263Y126252D03*
X1370763Y132752D03*
X1377263Y132752D03*
X1383763Y132752D03*
X1390263Y132752D03*
X1396763Y132752D03*
X1403263Y132752D03*
X1409763Y132752D03*
X1416263Y132752D03*
X1422763Y132752D03*
X1429263Y132752D03*
X1435763Y132752D03*
X1442263Y132752D03*
X1370763Y139252D03*
X1377263Y139252D03*
X1383763Y139252D03*
X1390263Y139252D03*
X1396763Y139252D03*
X1403263Y139252D03*
X1409763Y139252D03*
X1416263Y139252D03*
X1422763Y139252D03*
X1429263Y139252D03*
X1435763Y139252D03*
X1442263Y139252D03*
X1370763Y145752D03*
X1377263Y145752D03*
X1383763Y145752D03*
X1390263Y145752D03*
X1396763Y145752D03*
X1403263Y145752D03*
X1409763Y145752D03*
X1416263Y145752D03*
X1422763Y145752D03*
X1429263Y145752D03*
X1435763Y145752D03*
X1442263Y145752D03*
X1370763Y152252D03*
X1377263Y152252D03*
X1383763Y152252D03*
X1390263Y152252D03*
X1396763Y152252D03*
X1403263Y152252D03*
X1409763Y152252D03*
X1416263Y152252D03*
X1422763Y152252D03*
X1429263Y152252D03*
X1435763Y152252D03*
X1442263Y152252D03*
D11*
X1514733Y206512D02*
X1514733Y213492D01*
X1514733Y206512D02*
X1507753Y206512D01*
X1507753Y213492D01*
X1514733Y213492D01*
X1514733Y211312D02*
X1507753Y211312D01*
X1532273Y213492D02*
X1532273Y206512D01*
X1525293Y206512D01*
X1525293Y213492D01*
X1532273Y213492D01*
X1532273Y211312D02*
X1525293Y211312D01*
D12*
X1530013Y105002D03*
X1530013Y95002D03*
D13*
X1496013Y152502D03*
X1496013Y127502D03*
D12*
X1510013Y155002D03*
X1510013Y145002D03*
X1510013Y125002D03*
X1510013Y135002D03*
X1456513Y145002D03*
X1456513Y135002D03*
X1466013Y120002D03*
X1476013Y120002D03*
X1466013Y159002D03*
X1476013Y159002D03*
D14*
X1466013Y133252D03*
X1466013Y146752D03*
X1476013Y146752D03*
X1476013Y133252D03*
D12*
X1330013Y185002D03*
X1330013Y175002D03*
X1502813Y101602D03*
X1492813Y101602D03*
X1502813Y114302D03*
X1492813Y114302D03*
D15*
X1533013Y59002D03*
X1343013Y213002D03*
D16*
X1352513Y175002D03*
X1357513Y175002D03*
X1362513Y175002D03*
X1367513Y175002D03*
D17*
X1375013Y182502D03*
X1375013Y187502D03*
X1375013Y192502D03*
X1375013Y197502D03*
D16*
X1367513Y205002D03*
X1362513Y205002D03*
X1357513Y205002D03*
X1352513Y205002D03*
D17*
X1345013Y197652D03*
X1345013Y192502D03*
X1345013Y187502D03*
X1345013Y182502D03*
D18*
X1360013Y190002D03*
D12*
X1435013Y210002D03*
X1425013Y210002D03*
D11*
X1405293Y206512D02*
X1405293Y213492D01*
X1412273Y213492D01*
X1412273Y206512D01*
X1405293Y206512D01*
X1405293Y211312D02*
X1412273Y211312D01*
X1387753Y213492D02*
X1387753Y206512D01*
X1387753Y213492D02*
X1394733Y213492D01*
X1394733Y206512D01*
X1387753Y206512D01*
X1387753Y211312D02*
X1394733Y211312D01*
D12*
X1330013Y195002D03*
X1330013Y205002D03*
D19*
X1482513Y64602D03*
X1482513Y82602D03*
D20*
X1522513Y12852D03*
X1517513Y12852D03*
X1512513Y12852D03*
X1507513Y12852D03*
X1502513Y12852D03*
X1497513Y12852D03*
X1492513Y12852D03*
X1487513Y12852D03*
X1482513Y12852D03*
X1477513Y12852D03*
X1472513Y12852D03*
X1467513Y12852D03*
X1442513Y12852D03*
X1437513Y12852D03*
X1432513Y12852D03*
X1427513Y12852D03*
X1422513Y12852D03*
X1417513Y12852D03*
X1412513Y12852D03*
X1407513Y12852D03*
X1402513Y12852D03*
X1397513Y12852D03*
X1392513Y12852D03*
X1387513Y12852D03*
X1382513Y12852D03*
X1377513Y12852D03*
X1372513Y12852D03*
X1367513Y12852D03*
X1362513Y12852D03*
X1357513Y12852D03*
X1352513Y12852D03*
X1347513Y12852D03*
X1342513Y12852D03*
X1337513Y12852D03*
D21*
X1449013Y210102D03*
X1491013Y210102D03*
X1470013Y197102D03*
D10*
X1577752Y67752D03*
X1577752Y74252D03*
X1584252Y67752D03*
X1584252Y74252D03*
X1577752Y80752D03*
X1577752Y87252D03*
X1584252Y80752D03*
X1584252Y87252D03*
X1577752Y93752D03*
X1577752Y100252D03*
X1584252Y93752D03*
X1584252Y100252D03*
X1577752Y106752D03*
X1577752Y113252D03*
X1584252Y106752D03*
X1584252Y113252D03*
X1577752Y119752D03*
X1584252Y119752D03*
X1577752Y126252D03*
X1577752Y132752D03*
X1584252Y126252D03*
X1584252Y132752D03*
X1577752Y139252D03*
X1577752Y145752D03*
X1584252Y139252D03*
X1584252Y145752D03*
X1577752Y152252D03*
X1584252Y152252D03*
X1590752Y67752D03*
X1597252Y67752D03*
X1603752Y67752D03*
X1610252Y67752D03*
X1616752Y67752D03*
X1623252Y67752D03*
X1629752Y67752D03*
X1636252Y67752D03*
X1642752Y67752D03*
X1649252Y67752D03*
X1655752Y67752D03*
X1662252Y67752D03*
X1590752Y74252D03*
X1597252Y74252D03*
X1603752Y74252D03*
X1610252Y74252D03*
X1616752Y74252D03*
X1623252Y74252D03*
X1629752Y74252D03*
X1636252Y74252D03*
X1642752Y74252D03*
X1649252Y74252D03*
X1655752Y74252D03*
X1662252Y74252D03*
X1590752Y80752D03*
X1597252Y80752D03*
X1603752Y80752D03*
X1610252Y80752D03*
X1616752Y80752D03*
X1623252Y80752D03*
X1629752Y80752D03*
X1636252Y80752D03*
X1642752Y80752D03*
X1649252Y80752D03*
X1655752Y80752D03*
X1662252Y80752D03*
X1590752Y87252D03*
X1597252Y87252D03*
X1603752Y87252D03*
X1610252Y87252D03*
X1616752Y87252D03*
X1623252Y87252D03*
X1629752Y87252D03*
X1636252Y87252D03*
X1642752Y87252D03*
X1649252Y87252D03*
X1655752Y87252D03*
X1662252Y87252D03*
X1590752Y93752D03*
X1597252Y93752D03*
X1603752Y93752D03*
X1610252Y93752D03*
X1616752Y93752D03*
X1623252Y93752D03*
X1629752Y93752D03*
X1636252Y93752D03*
X1642752Y93752D03*
X1649252Y93752D03*
X1655752Y93752D03*
X1662252Y93752D03*
X1590752Y100252D03*
X1597252Y100252D03*
X1603752Y100252D03*
X1610252Y100252D03*
X1616752Y100252D03*
X1623252Y100252D03*
X1629752Y100252D03*
X1636252Y100252D03*
X1642752Y100252D03*
X1649252Y100252D03*
X1655752Y100252D03*
X1662252Y100252D03*
X1590752Y106752D03*
X1597252Y106752D03*
X1603752Y106752D03*
X1610252Y106752D03*
X1616752Y106752D03*
X1623252Y106752D03*
X1629752Y106752D03*
X1636252Y106752D03*
X1642752Y106752D03*
X1649252Y106752D03*
X1655752Y106752D03*
X1662252Y106752D03*
X1590752Y113252D03*
X1597252Y113252D03*
X1603752Y113252D03*
X1610252Y113252D03*
X1616752Y113252D03*
X1623252Y113252D03*
X1629752Y113252D03*
X1636252Y113252D03*
X1642752Y113252D03*
X1649252Y113252D03*
X1655752Y113252D03*
X1662252Y113252D03*
X1590752Y119752D03*
X1597252Y119752D03*
X1603752Y119752D03*
X1610252Y119752D03*
X1616752Y119752D03*
X1623252Y119752D03*
X1629752Y119752D03*
X1636252Y119752D03*
X1642752Y119752D03*
X1649252Y119752D03*
X1655752Y119752D03*
X1662252Y119752D03*
X1590752Y126252D03*
X1597252Y126252D03*
X1603752Y126252D03*
X1610252Y126252D03*
X1616752Y126252D03*
X1623252Y126252D03*
X1629752Y126252D03*
X1636252Y126252D03*
X1642752Y126252D03*
X1649252Y126252D03*
X1655752Y126252D03*
X1662252Y126252D03*
X1590752Y132752D03*
X1597252Y132752D03*
X1603752Y132752D03*
X1610252Y132752D03*
X1616752Y132752D03*
X1623252Y132752D03*
X1629752Y132752D03*
X1636252Y132752D03*
X1642752Y132752D03*
X1649252Y132752D03*
X1655752Y132752D03*
X1662252Y132752D03*
X1590752Y139252D03*
X1597252Y139252D03*
X1603752Y139252D03*
X1610252Y139252D03*
X1616752Y139252D03*
X1623252Y139252D03*
X1629752Y139252D03*
X1636252Y139252D03*
X1642752Y139252D03*
X1649252Y139252D03*
X1655752Y139252D03*
X1662252Y139252D03*
X1590752Y145752D03*
X1597252Y145752D03*
X1603752Y145752D03*
X1610252Y145752D03*
X1616752Y145752D03*
X1623252Y145752D03*
X1629752Y145752D03*
X1636252Y145752D03*
X1642752Y145752D03*
X1649252Y145752D03*
X1655752Y145752D03*
X1662252Y145752D03*
X1590752Y152252D03*
X1597252Y152252D03*
X1603752Y152252D03*
X1610252Y152252D03*
X1616752Y152252D03*
X1623252Y152252D03*
X1629752Y152252D03*
X1636252Y152252D03*
X1642752Y152252D03*
X1649252Y152252D03*
X1655752Y152252D03*
X1662252Y152252D03*
D11*
X1734722Y206512D02*
X1734722Y213492D01*
X1734722Y206512D02*
X1727742Y206512D01*
X1727742Y213492D01*
X1734722Y213492D01*
X1734722Y211312D02*
X1727742Y211312D01*
X1752262Y213492D02*
X1752262Y206512D01*
X1745282Y206512D01*
X1745282Y213492D01*
X1752262Y213492D01*
X1752262Y211312D02*
X1745282Y211312D01*
D12*
X1750002Y105002D03*
X1750002Y95002D03*
D13*
X1716002Y152502D03*
X1716002Y127502D03*
D12*
X1730002Y155002D03*
X1730002Y145002D03*
X1730002Y125002D03*
X1730002Y135002D03*
X1676502Y145002D03*
X1676502Y135002D03*
X1686002Y120002D03*
X1696002Y120002D03*
X1686002Y159002D03*
X1696002Y159002D03*
D14*
X1686002Y133252D03*
X1686002Y146752D03*
X1696002Y146752D03*
X1696002Y133252D03*
D12*
X1550002Y185002D03*
X1550002Y175002D03*
X1722802Y101602D03*
X1712802Y101602D03*
X1722802Y114302D03*
X1712802Y114302D03*
D15*
X1753002Y59002D03*
X1563002Y213002D03*
D16*
X1572502Y175002D03*
X1577502Y175002D03*
X1582502Y175002D03*
X1587502Y175002D03*
D17*
X1595002Y182502D03*
X1595002Y187502D03*
X1595002Y192502D03*
X1595002Y197502D03*
D16*
X1587502Y205002D03*
X1582502Y205002D03*
X1577502Y205002D03*
X1572502Y205002D03*
D17*
X1565002Y197652D03*
X1565002Y192502D03*
X1565002Y187502D03*
X1565002Y182502D03*
D18*
X1580002Y190002D03*
D12*
X1655002Y210002D03*
X1645002Y210002D03*
D11*
X1625282Y206512D02*
X1625282Y213492D01*
X1632262Y213492D01*
X1632262Y206512D01*
X1625282Y206512D01*
X1625282Y211312D02*
X1632262Y211312D01*
X1607742Y213492D02*
X1607742Y206512D01*
X1607742Y213492D02*
X1614722Y213492D01*
X1614722Y206512D01*
X1607742Y206512D01*
X1607742Y211312D02*
X1614722Y211312D01*
D12*
X1550002Y195002D03*
X1550002Y205002D03*
D19*
X1702502Y64602D03*
X1702502Y82602D03*
D20*
X1742502Y12852D03*
X1737502Y12852D03*
X1732502Y12852D03*
X1727502Y12852D03*
X1722502Y12852D03*
X1717502Y12852D03*
X1712502Y12852D03*
X1707502Y12852D03*
X1702502Y12852D03*
X1697502Y12852D03*
X1692502Y12852D03*
X1687502Y12852D03*
X1662502Y12852D03*
X1657502Y12852D03*
X1652502Y12852D03*
X1647502Y12852D03*
X1642502Y12852D03*
X1637502Y12852D03*
X1632502Y12852D03*
X1627502Y12852D03*
X1622502Y12852D03*
X1617502Y12852D03*
X1612502Y12852D03*
X1607502Y12852D03*
X1602502Y12852D03*
X1597502Y12852D03*
X1592502Y12852D03*
X1587502Y12852D03*
X1582502Y12852D03*
X1577502Y12852D03*
X1572502Y12852D03*
X1567502Y12852D03*
X1562502Y12852D03*
X1557502Y12852D03*
D21*
X1669002Y210102D03*
X1711002Y210102D03*
X1690002Y197102D03*
D10*
X182239Y630748D03*
X182239Y624248D03*
X175739Y630748D03*
X175739Y624248D03*
X182239Y617748D03*
X182239Y611248D03*
X175739Y617748D03*
X175739Y611248D03*
X182239Y604748D03*
X182239Y598248D03*
X175739Y604748D03*
X175739Y598248D03*
X182239Y591748D03*
X182239Y585248D03*
X175739Y591748D03*
X175739Y585248D03*
X182239Y578748D03*
X175739Y578748D03*
X182239Y572248D03*
X182239Y565748D03*
X175739Y572248D03*
X175739Y565748D03*
X182239Y559248D03*
X182239Y552748D03*
X175739Y559248D03*
X175739Y552748D03*
X182239Y546248D03*
X175739Y546248D03*
X169239Y630748D03*
X162739Y630748D03*
X156239Y630748D03*
X149739Y630748D03*
X143239Y630748D03*
X136739Y630748D03*
X130239Y630748D03*
X123739Y630748D03*
X117239Y630748D03*
X110739Y630748D03*
X104239Y630748D03*
X97739Y630748D03*
X169239Y624248D03*
X162739Y624248D03*
X156239Y624248D03*
X149739Y624248D03*
X143239Y624248D03*
X136739Y624248D03*
X130239Y624248D03*
X123739Y624248D03*
X117239Y624248D03*
X110739Y624248D03*
X104239Y624248D03*
X97739Y624248D03*
X169239Y617748D03*
X162739Y617748D03*
X156239Y617748D03*
X149739Y617748D03*
X143239Y617748D03*
X136739Y617748D03*
X130239Y617748D03*
X123739Y617748D03*
X117239Y617748D03*
X110739Y617748D03*
X104239Y617748D03*
X97739Y617748D03*
X169239Y611248D03*
X162739Y611248D03*
X156239Y611248D03*
X149739Y611248D03*
X143239Y611248D03*
X136739Y611248D03*
X130239Y611248D03*
X123739Y611248D03*
X117239Y611248D03*
X110739Y611248D03*
X104239Y611248D03*
X97739Y611248D03*
X169239Y604748D03*
X162739Y604748D03*
X156239Y604748D03*
X149739Y604748D03*
X143239Y604748D03*
X136739Y604748D03*
X130239Y604748D03*
X123739Y604748D03*
X117239Y604748D03*
X110739Y604748D03*
X104239Y604748D03*
X97739Y604748D03*
X169239Y598248D03*
X162739Y598248D03*
X156239Y598248D03*
X149739Y598248D03*
X143239Y598248D03*
X136739Y598248D03*
X130239Y598248D03*
X123739Y598248D03*
X117239Y598248D03*
X110739Y598248D03*
X104239Y598248D03*
X97739Y598248D03*
X169239Y591748D03*
X162739Y591748D03*
X156239Y591748D03*
X149739Y591748D03*
X143239Y591748D03*
X136739Y591748D03*
X130239Y591748D03*
X123739Y591748D03*
X117239Y591748D03*
X110739Y591748D03*
X104239Y591748D03*
X97739Y591748D03*
X169239Y585248D03*
X162739Y585248D03*
X156239Y585248D03*
X149739Y585248D03*
X143239Y585248D03*
X136739Y585248D03*
X130239Y585248D03*
X123739Y585248D03*
X117239Y585248D03*
X110739Y585248D03*
X104239Y585248D03*
X97739Y585248D03*
X169239Y578748D03*
X162739Y578748D03*
X156239Y578748D03*
X149739Y578748D03*
X143239Y578748D03*
X136739Y578748D03*
X130239Y578748D03*
X123739Y578748D03*
X117239Y578748D03*
X110739Y578748D03*
X104239Y578748D03*
X97739Y578748D03*
X169239Y572248D03*
X162739Y572248D03*
X156239Y572248D03*
X149739Y572248D03*
X143239Y572248D03*
X136739Y572248D03*
X130239Y572248D03*
X123739Y572248D03*
X117239Y572248D03*
X110739Y572248D03*
X104239Y572248D03*
X97739Y572248D03*
X169239Y565748D03*
X162739Y565748D03*
X156239Y565748D03*
X149739Y565748D03*
X143239Y565748D03*
X136739Y565748D03*
X130239Y565748D03*
X123739Y565748D03*
X117239Y565748D03*
X110739Y565748D03*
X104239Y565748D03*
X97739Y565748D03*
X169239Y559248D03*
X162739Y559248D03*
X156239Y559248D03*
X149739Y559248D03*
X143239Y559248D03*
X136739Y559248D03*
X130239Y559248D03*
X123739Y559248D03*
X117239Y559248D03*
X110739Y559248D03*
X104239Y559248D03*
X97739Y559248D03*
X169239Y552748D03*
X162739Y552748D03*
X156239Y552748D03*
X149739Y552748D03*
X143239Y552748D03*
X136739Y552748D03*
X130239Y552748D03*
X123739Y552748D03*
X117239Y552748D03*
X110739Y552748D03*
X104239Y552748D03*
X97739Y552748D03*
X169239Y546248D03*
X162739Y546248D03*
X156239Y546248D03*
X149739Y546248D03*
X143239Y546248D03*
X136739Y546248D03*
X130239Y546248D03*
X123739Y546248D03*
X117239Y546248D03*
X110739Y546248D03*
X104239Y546248D03*
X97739Y546248D03*
D11*
X25269Y491988D02*
X25269Y485008D01*
X25269Y491988D02*
X32249Y491988D01*
X32249Y485008D01*
X25269Y485008D01*
X25269Y489808D02*
X32249Y489808D01*
X7729Y491988D02*
X7729Y485008D01*
X7729Y491988D02*
X14709Y491988D01*
X14709Y485008D01*
X7729Y485008D01*
X7729Y489808D02*
X14709Y489808D01*
D12*
X9989Y593498D03*
X9989Y603498D03*
D13*
X43989Y545998D03*
X43989Y570998D03*
D12*
X29989Y543498D03*
X29989Y553498D03*
X29989Y573498D03*
X29989Y563498D03*
X83489Y553498D03*
X83489Y563498D03*
X73989Y578498D03*
X63989Y578498D03*
X73989Y539498D03*
X63989Y539498D03*
D14*
X73989Y565248D03*
X73989Y551748D03*
X63989Y551748D03*
X63989Y565248D03*
D12*
X209989Y513498D03*
X209989Y523498D03*
X37189Y596898D03*
X47189Y596898D03*
X37189Y584198D03*
X47189Y584198D03*
D15*
X6989Y639498D03*
X196989Y485498D03*
D16*
X187489Y523498D03*
X182489Y523498D03*
X177489Y523498D03*
X172489Y523498D03*
D17*
X164989Y515998D03*
X164989Y510998D03*
X164989Y505998D03*
X164989Y500998D03*
D16*
X172489Y493498D03*
X177489Y493498D03*
X182489Y493498D03*
X187489Y493498D03*
D17*
X194989Y500848D03*
X194989Y505998D03*
X194989Y510998D03*
X194989Y515998D03*
D18*
X179989Y508498D03*
D12*
X104989Y488498D03*
X114989Y488498D03*
D11*
X134709Y491988D02*
X134709Y485008D01*
X127729Y485008D01*
X127729Y491988D01*
X134709Y491988D01*
X134709Y489808D02*
X127729Y489808D01*
X152249Y491988D02*
X152249Y485008D01*
X145269Y485008D01*
X145269Y491988D01*
X152249Y491988D01*
X152249Y489808D02*
X145269Y489808D01*
D12*
X209989Y503498D03*
X209989Y493498D03*
D19*
X57489Y633898D03*
X57489Y615898D03*
D20*
X17489Y685648D03*
X22489Y685648D03*
X27489Y685648D03*
X32489Y685648D03*
X37489Y685648D03*
X42489Y685648D03*
X47489Y685648D03*
X52489Y685648D03*
X57489Y685648D03*
X62489Y685648D03*
X67489Y685648D03*
X72489Y685648D03*
X97489Y685648D03*
X102489Y685648D03*
X107489Y685648D03*
X112489Y685648D03*
X117489Y685648D03*
X122489Y685648D03*
X127489Y685648D03*
X132489Y685648D03*
X137489Y685648D03*
X142489Y685648D03*
X147489Y685648D03*
X152489Y685648D03*
X157489Y685648D03*
X162489Y685648D03*
X167489Y685648D03*
X172489Y685648D03*
X177489Y685648D03*
X182489Y685648D03*
X187489Y685648D03*
X192489Y685648D03*
X197489Y685648D03*
X202489Y685648D03*
D21*
X90989Y488398D03*
X48989Y488398D03*
X69989Y501398D03*
D10*
X402254Y630748D03*
X402254Y624248D03*
X395754Y630748D03*
X395754Y624248D03*
X402254Y617748D03*
X402254Y611248D03*
X395754Y617748D03*
X395754Y611248D03*
X402254Y604748D03*
X402254Y598248D03*
X395754Y604748D03*
X395754Y598248D03*
X402254Y591748D03*
X402254Y585248D03*
X395754Y591748D03*
X395754Y585248D03*
X402254Y578748D03*
X395754Y578748D03*
X402254Y572248D03*
X402254Y565748D03*
X395754Y572248D03*
X395754Y565748D03*
X402254Y559248D03*
X402254Y552748D03*
X395754Y559248D03*
X395754Y552748D03*
X402254Y546248D03*
X395754Y546248D03*
X389254Y630748D03*
X382754Y630748D03*
X376254Y630748D03*
X369754Y630748D03*
X363254Y630748D03*
X356754Y630748D03*
X350254Y630748D03*
X343754Y630748D03*
X337254Y630748D03*
X330754Y630748D03*
X324254Y630748D03*
X317754Y630748D03*
X389254Y624248D03*
X382754Y624248D03*
X376254Y624248D03*
X369754Y624248D03*
X363254Y624248D03*
X356754Y624248D03*
X350254Y624248D03*
X343754Y624248D03*
X337254Y624248D03*
X330754Y624248D03*
X324254Y624248D03*
X317754Y624248D03*
X389254Y617748D03*
X382754Y617748D03*
X376254Y617748D03*
X369754Y617748D03*
X363254Y617748D03*
X356754Y617748D03*
X350254Y617748D03*
X343754Y617748D03*
X337254Y617748D03*
X330754Y617748D03*
X324254Y617748D03*
X317754Y617748D03*
X389254Y611248D03*
X382754Y611248D03*
X376254Y611248D03*
X369754Y611248D03*
X363254Y611248D03*
X356754Y611248D03*
X350254Y611248D03*
X343754Y611248D03*
X337254Y611248D03*
X330754Y611248D03*
X324254Y611248D03*
X317754Y611248D03*
X389254Y604748D03*
X382754Y604748D03*
X376254Y604748D03*
X369754Y604748D03*
X363254Y604748D03*
X356754Y604748D03*
X350254Y604748D03*
X343754Y604748D03*
X337254Y604748D03*
X330754Y604748D03*
X324254Y604748D03*
X317754Y604748D03*
X389254Y598248D03*
X382754Y598248D03*
X376254Y598248D03*
X369754Y598248D03*
X363254Y598248D03*
X356754Y598248D03*
X350254Y598248D03*
X343754Y598248D03*
X337254Y598248D03*
X330754Y598248D03*
X324254Y598248D03*
X317754Y598248D03*
X389254Y591748D03*
X382754Y591748D03*
X376254Y591748D03*
X369754Y591748D03*
X363254Y591748D03*
X356754Y591748D03*
X350254Y591748D03*
X343754Y591748D03*
X337254Y591748D03*
X330754Y591748D03*
X324254Y591748D03*
X317754Y591748D03*
X389254Y585248D03*
X382754Y585248D03*
X376254Y585248D03*
X369754Y585248D03*
X363254Y585248D03*
X356754Y585248D03*
X350254Y585248D03*
X343754Y585248D03*
X337254Y585248D03*
X330754Y585248D03*
X324254Y585248D03*
X317754Y585248D03*
X389254Y578748D03*
X382754Y578748D03*
X376254Y578748D03*
X369754Y578748D03*
X363254Y578748D03*
X356754Y578748D03*
X350254Y578748D03*
X343754Y578748D03*
X337254Y578748D03*
X330754Y578748D03*
X324254Y578748D03*
X317754Y578748D03*
X389254Y572248D03*
X382754Y572248D03*
X376254Y572248D03*
X369754Y572248D03*
X363254Y572248D03*
X356754Y572248D03*
X350254Y572248D03*
X343754Y572248D03*
X337254Y572248D03*
X330754Y572248D03*
X324254Y572248D03*
X317754Y572248D03*
X389254Y565748D03*
X382754Y565748D03*
X376254Y565748D03*
X369754Y565748D03*
X363254Y565748D03*
X356754Y565748D03*
X350254Y565748D03*
X343754Y565748D03*
X337254Y565748D03*
X330754Y565748D03*
X324254Y565748D03*
X317754Y565748D03*
X389254Y559248D03*
X382754Y559248D03*
X376254Y559248D03*
X369754Y559248D03*
X363254Y559248D03*
X356754Y559248D03*
X350254Y559248D03*
X343754Y559248D03*
X337254Y559248D03*
X330754Y559248D03*
X324254Y559248D03*
X317754Y559248D03*
X389254Y552748D03*
X382754Y552748D03*
X376254Y552748D03*
X369754Y552748D03*
X363254Y552748D03*
X356754Y552748D03*
X350254Y552748D03*
X343754Y552748D03*
X337254Y552748D03*
X330754Y552748D03*
X324254Y552748D03*
X317754Y552748D03*
X389254Y546248D03*
X382754Y546248D03*
X376254Y546248D03*
X369754Y546248D03*
X363254Y546248D03*
X356754Y546248D03*
X350254Y546248D03*
X343754Y546248D03*
X337254Y546248D03*
X330754Y546248D03*
X324254Y546248D03*
X317754Y546248D03*
D11*
X245284Y491988D02*
X245284Y485008D01*
X245284Y491988D02*
X252264Y491988D01*
X252264Y485008D01*
X245284Y485008D01*
X245284Y489808D02*
X252264Y489808D01*
X227744Y491988D02*
X227744Y485008D01*
X227744Y491988D02*
X234724Y491988D01*
X234724Y485008D01*
X227744Y485008D01*
X227744Y489808D02*
X234724Y489808D01*
D12*
X230004Y593498D03*
X230004Y603498D03*
D13*
X264004Y545998D03*
X264004Y570998D03*
D12*
X250004Y543498D03*
X250004Y553498D03*
X250004Y573498D03*
X250004Y563498D03*
X303504Y553498D03*
X303504Y563498D03*
X294004Y578498D03*
X284004Y578498D03*
X294004Y539498D03*
X284004Y539498D03*
D14*
X294004Y565248D03*
X294004Y551748D03*
X284004Y551748D03*
X284004Y565248D03*
D12*
X430004Y513498D03*
X430004Y523498D03*
X257204Y596898D03*
X267204Y596898D03*
X257204Y584198D03*
X267204Y584198D03*
D15*
X227004Y639498D03*
X417004Y485498D03*
D16*
X407504Y523498D03*
X402504Y523498D03*
X397504Y523498D03*
X392504Y523498D03*
D17*
X385004Y515998D03*
X385004Y510998D03*
X385004Y505998D03*
X385004Y500998D03*
D16*
X392504Y493498D03*
X397504Y493498D03*
X402504Y493498D03*
X407504Y493498D03*
D17*
X415004Y500848D03*
X415004Y505998D03*
X415004Y510998D03*
X415004Y515998D03*
D18*
X400004Y508498D03*
D12*
X325004Y488498D03*
X335004Y488498D03*
D11*
X354724Y491988D02*
X354724Y485008D01*
X347744Y485008D01*
X347744Y491988D01*
X354724Y491988D01*
X354724Y489808D02*
X347744Y489808D01*
X372264Y491988D02*
X372264Y485008D01*
X365284Y485008D01*
X365284Y491988D01*
X372264Y491988D01*
X372264Y489808D02*
X365284Y489808D01*
D12*
X430004Y503498D03*
X430004Y493498D03*
D19*
X277504Y633898D03*
X277504Y615898D03*
D20*
X237504Y685648D03*
X242504Y685648D03*
X247504Y685648D03*
X252504Y685648D03*
X257504Y685648D03*
X262504Y685648D03*
X267504Y685648D03*
X272504Y685648D03*
X277504Y685648D03*
X282504Y685648D03*
X287504Y685648D03*
X292504Y685648D03*
X317504Y685648D03*
X322504Y685648D03*
X327504Y685648D03*
X332504Y685648D03*
X337504Y685648D03*
X342504Y685648D03*
X347504Y685648D03*
X352504Y685648D03*
X357504Y685648D03*
X362504Y685648D03*
X367504Y685648D03*
X372504Y685648D03*
X377504Y685648D03*
X382504Y685648D03*
X387504Y685648D03*
X392504Y685648D03*
X397504Y685648D03*
X402504Y685648D03*
X407504Y685648D03*
X412504Y685648D03*
X417504Y685648D03*
X422504Y685648D03*
D21*
X311004Y488398D03*
X269004Y488398D03*
X290004Y501398D03*
D10*
X622244Y630748D03*
X622244Y624248D03*
X615744Y630748D03*
X615744Y624248D03*
X622244Y617748D03*
X622244Y611248D03*
X615744Y617748D03*
X615744Y611248D03*
X622244Y604748D03*
X622244Y598248D03*
X615744Y604748D03*
X615744Y598248D03*
X622244Y591748D03*
X622244Y585248D03*
X615744Y591748D03*
X615744Y585248D03*
X622244Y578748D03*
X615744Y578748D03*
X622244Y572248D03*
X622244Y565748D03*
X615744Y572248D03*
X615744Y565748D03*
X622244Y559248D03*
X622244Y552748D03*
X615744Y559248D03*
X615744Y552748D03*
X622244Y546248D03*
X615744Y546248D03*
X609244Y630748D03*
X602744Y630748D03*
X596244Y630748D03*
X589744Y630748D03*
X583244Y630748D03*
X576744Y630748D03*
X570244Y630748D03*
X563744Y630748D03*
X557244Y630748D03*
X550744Y630748D03*
X544244Y630748D03*
X537744Y630748D03*
X609244Y624248D03*
X602744Y624248D03*
X596244Y624248D03*
X589744Y624248D03*
X583244Y624248D03*
X576744Y624248D03*
X570244Y624248D03*
X563744Y624248D03*
X557244Y624248D03*
X550744Y624248D03*
X544244Y624248D03*
X537744Y624248D03*
X609244Y617748D03*
X602744Y617748D03*
X596244Y617748D03*
X589744Y617748D03*
X583244Y617748D03*
X576744Y617748D03*
X570244Y617748D03*
X563744Y617748D03*
X557244Y617748D03*
X550744Y617748D03*
X544244Y617748D03*
X537744Y617748D03*
X609244Y611248D03*
X602744Y611248D03*
X596244Y611248D03*
X589744Y611248D03*
X583244Y611248D03*
X576744Y611248D03*
X570244Y611248D03*
X563744Y611248D03*
X557244Y611248D03*
X550744Y611248D03*
X544244Y611248D03*
X537744Y611248D03*
X609244Y604748D03*
X602744Y604748D03*
X596244Y604748D03*
X589744Y604748D03*
X583244Y604748D03*
X576744Y604748D03*
X570244Y604748D03*
X563744Y604748D03*
X557244Y604748D03*
X550744Y604748D03*
X544244Y604748D03*
X537744Y604748D03*
X609244Y598248D03*
X602744Y598248D03*
X596244Y598248D03*
X589744Y598248D03*
X583244Y598248D03*
X576744Y598248D03*
X570244Y598248D03*
X563744Y598248D03*
X557244Y598248D03*
X550744Y598248D03*
X544244Y598248D03*
X537744Y598248D03*
X609244Y591748D03*
X602744Y591748D03*
X596244Y591748D03*
X589744Y591748D03*
X583244Y591748D03*
X576744Y591748D03*
X570244Y591748D03*
X563744Y591748D03*
X557244Y591748D03*
X550744Y591748D03*
X544244Y591748D03*
X537744Y591748D03*
X609244Y585248D03*
X602744Y585248D03*
X596244Y585248D03*
X589744Y585248D03*
X583244Y585248D03*
X576744Y585248D03*
X570244Y585248D03*
X563744Y585248D03*
X557244Y585248D03*
X550744Y585248D03*
X544244Y585248D03*
X537744Y585248D03*
X609244Y578748D03*
X602744Y578748D03*
X596244Y578748D03*
X589744Y578748D03*
X583244Y578748D03*
X576744Y578748D03*
X570244Y578748D03*
X563744Y578748D03*
X557244Y578748D03*
X550744Y578748D03*
X544244Y578748D03*
X537744Y578748D03*
X609244Y572248D03*
X602744Y572248D03*
X596244Y572248D03*
X589744Y572248D03*
X583244Y572248D03*
X576744Y572248D03*
X570244Y572248D03*
X563744Y572248D03*
X557244Y572248D03*
X550744Y572248D03*
X544244Y572248D03*
X537744Y572248D03*
X609244Y565748D03*
X602744Y565748D03*
X596244Y565748D03*
X589744Y565748D03*
X583244Y565748D03*
X576744Y565748D03*
X570244Y565748D03*
X563744Y565748D03*
X557244Y565748D03*
X550744Y565748D03*
X544244Y565748D03*
X537744Y565748D03*
X609244Y559248D03*
X602744Y559248D03*
X596244Y559248D03*
X589744Y559248D03*
X583244Y559248D03*
X576744Y559248D03*
X570244Y559248D03*
X563744Y559248D03*
X557244Y559248D03*
X550744Y559248D03*
X544244Y559248D03*
X537744Y559248D03*
X609244Y552748D03*
X602744Y552748D03*
X596244Y552748D03*
X589744Y552748D03*
X583244Y552748D03*
X576744Y552748D03*
X570244Y552748D03*
X563744Y552748D03*
X557244Y552748D03*
X550744Y552748D03*
X544244Y552748D03*
X537744Y552748D03*
X609244Y546248D03*
X602744Y546248D03*
X596244Y546248D03*
X589744Y546248D03*
X583244Y546248D03*
X576744Y546248D03*
X570244Y546248D03*
X563744Y546248D03*
X557244Y546248D03*
X550744Y546248D03*
X544244Y546248D03*
X537744Y546248D03*
D11*
X465274Y491988D02*
X465274Y485008D01*
X465274Y491988D02*
X472254Y491988D01*
X472254Y485008D01*
X465274Y485008D01*
X465274Y489808D02*
X472254Y489808D01*
X447734Y491988D02*
X447734Y485008D01*
X447734Y491988D02*
X454714Y491988D01*
X454714Y485008D01*
X447734Y485008D01*
X447734Y489808D02*
X454714Y489808D01*
D12*
X449994Y593498D03*
X449994Y603498D03*
D13*
X483994Y545998D03*
X483994Y570998D03*
D12*
X469994Y543498D03*
X469994Y553498D03*
X469994Y573498D03*
X469994Y563498D03*
X523494Y553498D03*
X523494Y563498D03*
X513994Y578498D03*
X503994Y578498D03*
X513994Y539498D03*
X503994Y539498D03*
D14*
X513994Y565248D03*
X513994Y551748D03*
X503994Y551748D03*
X503994Y565248D03*
D12*
X649994Y513498D03*
X649994Y523498D03*
X477194Y596898D03*
X487194Y596898D03*
X477194Y584198D03*
X487194Y584198D03*
D15*
X446994Y639498D03*
X636994Y485498D03*
D16*
X627494Y523498D03*
X622494Y523498D03*
X617494Y523498D03*
X612494Y523498D03*
D17*
X604994Y515998D03*
X604994Y510998D03*
X604994Y505998D03*
X604994Y500998D03*
D16*
X612494Y493498D03*
X617494Y493498D03*
X622494Y493498D03*
X627494Y493498D03*
D17*
X634994Y500848D03*
X634994Y505998D03*
X634994Y510998D03*
X634994Y515998D03*
D18*
X619994Y508498D03*
D12*
X544994Y488498D03*
X554994Y488498D03*
D11*
X574714Y491988D02*
X574714Y485008D01*
X567734Y485008D01*
X567734Y491988D01*
X574714Y491988D01*
X574714Y489808D02*
X567734Y489808D01*
X592254Y491988D02*
X592254Y485008D01*
X585274Y485008D01*
X585274Y491988D01*
X592254Y491988D01*
X592254Y489808D02*
X585274Y489808D01*
D12*
X649994Y503498D03*
X649994Y493498D03*
D19*
X497494Y633898D03*
X497494Y615898D03*
D20*
X457494Y685648D03*
X462494Y685648D03*
X467494Y685648D03*
X472494Y685648D03*
X477494Y685648D03*
X482494Y685648D03*
X487494Y685648D03*
X492494Y685648D03*
X497494Y685648D03*
X502494Y685648D03*
X507494Y685648D03*
X512494Y685648D03*
X537494Y685648D03*
X542494Y685648D03*
X547494Y685648D03*
X552494Y685648D03*
X557494Y685648D03*
X562494Y685648D03*
X567494Y685648D03*
X572494Y685648D03*
X577494Y685648D03*
X582494Y685648D03*
X587494Y685648D03*
X592494Y685648D03*
X597494Y685648D03*
X602494Y685648D03*
X607494Y685648D03*
X612494Y685648D03*
X617494Y685648D03*
X622494Y685648D03*
X627494Y685648D03*
X632494Y685648D03*
X637494Y685648D03*
X642494Y685648D03*
D21*
X530994Y488398D03*
X488994Y488398D03*
X509994Y501398D03*
D10*
X842258Y630748D03*
X842258Y624248D03*
X835758Y630748D03*
X835758Y624248D03*
X842258Y617748D03*
X842258Y611248D03*
X835758Y617748D03*
X835758Y611248D03*
X842258Y604748D03*
X842258Y598248D03*
X835758Y604748D03*
X835758Y598248D03*
X842258Y591748D03*
X842258Y585248D03*
X835758Y591748D03*
X835758Y585248D03*
X842258Y578748D03*
X835758Y578748D03*
X842258Y572248D03*
X842258Y565748D03*
X835758Y572248D03*
X835758Y565748D03*
X842258Y559248D03*
X842258Y552748D03*
X835758Y559248D03*
X835758Y552748D03*
X842258Y546248D03*
X835758Y546248D03*
X829258Y630748D03*
X822758Y630748D03*
X816258Y630748D03*
X809758Y630748D03*
X803258Y630748D03*
X796758Y630748D03*
X790258Y630748D03*
X783758Y630748D03*
X777258Y630748D03*
X770758Y630748D03*
X764258Y630748D03*
X757758Y630748D03*
X829258Y624248D03*
X822758Y624248D03*
X816258Y624248D03*
X809758Y624248D03*
X803258Y624248D03*
X796758Y624248D03*
X790258Y624248D03*
X783758Y624248D03*
X777258Y624248D03*
X770758Y624248D03*
X764258Y624248D03*
X757758Y624248D03*
X829258Y617748D03*
X822758Y617748D03*
X816258Y617748D03*
X809758Y617748D03*
X803258Y617748D03*
X796758Y617748D03*
X790258Y617748D03*
X783758Y617748D03*
X777258Y617748D03*
X770758Y617748D03*
X764258Y617748D03*
X757758Y617748D03*
X829258Y611248D03*
X822758Y611248D03*
X816258Y611248D03*
X809758Y611248D03*
X803258Y611248D03*
X796758Y611248D03*
X790258Y611248D03*
X783758Y611248D03*
X777258Y611248D03*
X770758Y611248D03*
X764258Y611248D03*
X757758Y611248D03*
X829258Y604748D03*
X822758Y604748D03*
X816258Y604748D03*
X809758Y604748D03*
X803258Y604748D03*
X796758Y604748D03*
X790258Y604748D03*
X783758Y604748D03*
X777258Y604748D03*
X770758Y604748D03*
X764258Y604748D03*
X757758Y604748D03*
X829258Y598248D03*
X822758Y598248D03*
X816258Y598248D03*
X809758Y598248D03*
X803258Y598248D03*
X796758Y598248D03*
X790258Y598248D03*
X783758Y598248D03*
X777258Y598248D03*
X770758Y598248D03*
X764258Y598248D03*
X757758Y598248D03*
X829258Y591748D03*
X822758Y591748D03*
X816258Y591748D03*
X809758Y591748D03*
X803258Y591748D03*
X796758Y591748D03*
X790258Y591748D03*
X783758Y591748D03*
X777258Y591748D03*
X770758Y591748D03*
X764258Y591748D03*
X757758Y591748D03*
X829258Y585248D03*
X822758Y585248D03*
X816258Y585248D03*
X809758Y585248D03*
X803258Y585248D03*
X796758Y585248D03*
X790258Y585248D03*
X783758Y585248D03*
X777258Y585248D03*
X770758Y585248D03*
X764258Y585248D03*
X757758Y585248D03*
X829258Y578748D03*
X822758Y578748D03*
X816258Y578748D03*
X809758Y578748D03*
X803258Y578748D03*
X796758Y578748D03*
X790258Y578748D03*
X783758Y578748D03*
X777258Y578748D03*
X770758Y578748D03*
X764258Y578748D03*
X757758Y578748D03*
X829258Y572248D03*
X822758Y572248D03*
X816258Y572248D03*
X809758Y572248D03*
X803258Y572248D03*
X796758Y572248D03*
X790258Y572248D03*
X783758Y572248D03*
X777258Y572248D03*
X770758Y572248D03*
X764258Y572248D03*
X757758Y572248D03*
X829258Y565748D03*
X822758Y565748D03*
X816258Y565748D03*
X809758Y565748D03*
X803258Y565748D03*
X796758Y565748D03*
X790258Y565748D03*
X783758Y565748D03*
X777258Y565748D03*
X770758Y565748D03*
X764258Y565748D03*
X757758Y565748D03*
X829258Y559248D03*
X822758Y559248D03*
X816258Y559248D03*
X809758Y559248D03*
X803258Y559248D03*
X796758Y559248D03*
X790258Y559248D03*
X783758Y559248D03*
X777258Y559248D03*
X770758Y559248D03*
X764258Y559248D03*
X757758Y559248D03*
X829258Y552748D03*
X822758Y552748D03*
X816258Y552748D03*
X809758Y552748D03*
X803258Y552748D03*
X796758Y552748D03*
X790258Y552748D03*
X783758Y552748D03*
X777258Y552748D03*
X770758Y552748D03*
X764258Y552748D03*
X757758Y552748D03*
X829258Y546248D03*
X822758Y546248D03*
X816258Y546248D03*
X809758Y546248D03*
X803258Y546248D03*
X796758Y546248D03*
X790258Y546248D03*
X783758Y546248D03*
X777258Y546248D03*
X770758Y546248D03*
X764258Y546248D03*
X757758Y546248D03*
D11*
X685288Y491988D02*
X685288Y485008D01*
X685288Y491988D02*
X692268Y491988D01*
X692268Y485008D01*
X685288Y485008D01*
X685288Y489808D02*
X692268Y489808D01*
X667748Y491988D02*
X667748Y485008D01*
X667748Y491988D02*
X674728Y491988D01*
X674728Y485008D01*
X667748Y485008D01*
X667748Y489808D02*
X674728Y489808D01*
D12*
X670008Y593498D03*
X670008Y603498D03*
D13*
X704008Y545998D03*
X704008Y570998D03*
D12*
X690008Y543498D03*
X690008Y553498D03*
X690008Y573498D03*
X690008Y563498D03*
X743508Y553498D03*
X743508Y563498D03*
X734008Y578498D03*
X724008Y578498D03*
X734008Y539498D03*
X724008Y539498D03*
D14*
X734008Y565248D03*
X734008Y551748D03*
X724008Y551748D03*
X724008Y565248D03*
D12*
X870008Y513498D03*
X870008Y523498D03*
X697208Y596898D03*
X707208Y596898D03*
X697208Y584198D03*
X707208Y584198D03*
D15*
X667008Y639498D03*
X857008Y485498D03*
D16*
X847508Y523498D03*
X842508Y523498D03*
X837508Y523498D03*
X832508Y523498D03*
D17*
X825008Y515998D03*
X825008Y510998D03*
X825008Y505998D03*
X825008Y500998D03*
D16*
X832508Y493498D03*
X837508Y493498D03*
X842508Y493498D03*
X847508Y493498D03*
D17*
X855008Y500848D03*
X855008Y505998D03*
X855008Y510998D03*
X855008Y515998D03*
D18*
X840008Y508498D03*
D12*
X765008Y488498D03*
X775008Y488498D03*
D11*
X794728Y491988D02*
X794728Y485008D01*
X787748Y485008D01*
X787748Y491988D01*
X794728Y491988D01*
X794728Y489808D02*
X787748Y489808D01*
X812268Y491988D02*
X812268Y485008D01*
X805288Y485008D01*
X805288Y491988D01*
X812268Y491988D01*
X812268Y489808D02*
X805288Y489808D01*
D12*
X870008Y503498D03*
X870008Y493498D03*
D19*
X717508Y633898D03*
X717508Y615898D03*
D20*
X677508Y685648D03*
X682508Y685648D03*
X687508Y685648D03*
X692508Y685648D03*
X697508Y685648D03*
X702508Y685648D03*
X707508Y685648D03*
X712508Y685648D03*
X717508Y685648D03*
X722508Y685648D03*
X727508Y685648D03*
X732508Y685648D03*
X757508Y685648D03*
X762508Y685648D03*
X767508Y685648D03*
X772508Y685648D03*
X777508Y685648D03*
X782508Y685648D03*
X787508Y685648D03*
X792508Y685648D03*
X797508Y685648D03*
X802508Y685648D03*
X807508Y685648D03*
X812508Y685648D03*
X817508Y685648D03*
X822508Y685648D03*
X827508Y685648D03*
X832508Y685648D03*
X837508Y685648D03*
X842508Y685648D03*
X847508Y685648D03*
X852508Y685648D03*
X857508Y685648D03*
X862508Y685648D03*
D21*
X751008Y488398D03*
X709008Y488398D03*
X730008Y501398D03*
D10*
X1062248Y630748D03*
X1062248Y624248D03*
X1055748Y630748D03*
X1055748Y624248D03*
X1062248Y617748D03*
X1062248Y611248D03*
X1055748Y617748D03*
X1055748Y611248D03*
X1062248Y604748D03*
X1062248Y598248D03*
X1055748Y604748D03*
X1055748Y598248D03*
X1062248Y591748D03*
X1062248Y585248D03*
X1055748Y591748D03*
X1055748Y585248D03*
X1062248Y578748D03*
X1055748Y578748D03*
X1062248Y572248D03*
X1062248Y565748D03*
X1055748Y572248D03*
X1055748Y565748D03*
X1062248Y559248D03*
X1062248Y552748D03*
X1055748Y559248D03*
X1055748Y552748D03*
X1062248Y546248D03*
X1055748Y546248D03*
X1049248Y630748D03*
X1042748Y630748D03*
X1036248Y630748D03*
X1029748Y630748D03*
X1023248Y630748D03*
X1016748Y630748D03*
X1010248Y630748D03*
X1003748Y630748D03*
X997248Y630748D03*
X990748Y630748D03*
X984248Y630748D03*
X977748Y630748D03*
X1049248Y624248D03*
X1042748Y624248D03*
X1036248Y624248D03*
X1029748Y624248D03*
X1023248Y624248D03*
X1016748Y624248D03*
X1010248Y624248D03*
X1003748Y624248D03*
X997248Y624248D03*
X990748Y624248D03*
X984248Y624248D03*
X977748Y624248D03*
X1049248Y617748D03*
X1042748Y617748D03*
X1036248Y617748D03*
X1029748Y617748D03*
X1023248Y617748D03*
X1016748Y617748D03*
X1010248Y617748D03*
X1003748Y617748D03*
X997248Y617748D03*
X990748Y617748D03*
X984248Y617748D03*
X977748Y617748D03*
X1049248Y611248D03*
X1042748Y611248D03*
X1036248Y611248D03*
X1029748Y611248D03*
X1023248Y611248D03*
X1016748Y611248D03*
X1010248Y611248D03*
X1003748Y611248D03*
X997248Y611248D03*
X990748Y611248D03*
X984248Y611248D03*
X977748Y611248D03*
X1049248Y604748D03*
X1042748Y604748D03*
X1036248Y604748D03*
X1029748Y604748D03*
X1023248Y604748D03*
X1016748Y604748D03*
X1010248Y604748D03*
X1003748Y604748D03*
X997248Y604748D03*
X990748Y604748D03*
X984248Y604748D03*
X977748Y604748D03*
X1049248Y598248D03*
X1042748Y598248D03*
X1036248Y598248D03*
X1029748Y598248D03*
X1023248Y598248D03*
X1016748Y598248D03*
X1010248Y598248D03*
X1003748Y598248D03*
X997248Y598248D03*
X990748Y598248D03*
X984248Y598248D03*
X977748Y598248D03*
X1049248Y591748D03*
X1042748Y591748D03*
X1036248Y591748D03*
X1029748Y591748D03*
X1023248Y591748D03*
X1016748Y591748D03*
X1010248Y591748D03*
X1003748Y591748D03*
X997248Y591748D03*
X990748Y591748D03*
X984248Y591748D03*
X977748Y591748D03*
X1049248Y585248D03*
X1042748Y585248D03*
X1036248Y585248D03*
X1029748Y585248D03*
X1023248Y585248D03*
X1016748Y585248D03*
X1010248Y585248D03*
X1003748Y585248D03*
X997248Y585248D03*
X990748Y585248D03*
X984248Y585248D03*
X977748Y585248D03*
X1049248Y578748D03*
X1042748Y578748D03*
X1036248Y578748D03*
X1029748Y578748D03*
X1023248Y578748D03*
X1016748Y578748D03*
X1010248Y578748D03*
X1003748Y578748D03*
X997248Y578748D03*
X990748Y578748D03*
X984248Y578748D03*
X977748Y578748D03*
X1049248Y572248D03*
X1042748Y572248D03*
X1036248Y572248D03*
X1029748Y572248D03*
X1023248Y572248D03*
X1016748Y572248D03*
X1010248Y572248D03*
X1003748Y572248D03*
X997248Y572248D03*
X990748Y572248D03*
X984248Y572248D03*
X977748Y572248D03*
X1049248Y565748D03*
X1042748Y565748D03*
X1036248Y565748D03*
X1029748Y565748D03*
X1023248Y565748D03*
X1016748Y565748D03*
X1010248Y565748D03*
X1003748Y565748D03*
X997248Y565748D03*
X990748Y565748D03*
X984248Y565748D03*
X977748Y565748D03*
X1049248Y559248D03*
X1042748Y559248D03*
X1036248Y559248D03*
X1029748Y559248D03*
X1023248Y559248D03*
X1016748Y559248D03*
X1010248Y559248D03*
X1003748Y559248D03*
X997248Y559248D03*
X990748Y559248D03*
X984248Y559248D03*
X977748Y559248D03*
X1049248Y552748D03*
X1042748Y552748D03*
X1036248Y552748D03*
X1029748Y552748D03*
X1023248Y552748D03*
X1016748Y552748D03*
X1010248Y552748D03*
X1003748Y552748D03*
X997248Y552748D03*
X990748Y552748D03*
X984248Y552748D03*
X977748Y552748D03*
X1049248Y546248D03*
X1042748Y546248D03*
X1036248Y546248D03*
X1029748Y546248D03*
X1023248Y546248D03*
X1016748Y546248D03*
X1010248Y546248D03*
X1003748Y546248D03*
X997248Y546248D03*
X990748Y546248D03*
X984248Y546248D03*
X977748Y546248D03*
D11*
X905278Y491988D02*
X905278Y485008D01*
X905278Y491988D02*
X912258Y491988D01*
X912258Y485008D01*
X905278Y485008D01*
X905278Y489808D02*
X912258Y489808D01*
X887738Y491988D02*
X887738Y485008D01*
X887738Y491988D02*
X894718Y491988D01*
X894718Y485008D01*
X887738Y485008D01*
X887738Y489808D02*
X894718Y489808D01*
D12*
X889998Y593498D03*
X889998Y603498D03*
D13*
X923998Y545998D03*
X923998Y570998D03*
D12*
X909998Y543498D03*
X909998Y553498D03*
X909998Y573498D03*
X909998Y563498D03*
X963498Y553498D03*
X963498Y563498D03*
X953998Y578498D03*
X943998Y578498D03*
X953998Y539498D03*
X943998Y539498D03*
D14*
X953998Y565248D03*
X953998Y551748D03*
X943998Y551748D03*
X943998Y565248D03*
D12*
X1089998Y513498D03*
X1089998Y523498D03*
X917198Y596898D03*
X927198Y596898D03*
X917198Y584198D03*
X927198Y584198D03*
D15*
X886998Y639498D03*
X1076998Y485498D03*
D16*
X1067498Y523498D03*
X1062498Y523498D03*
X1057498Y523498D03*
X1052498Y523498D03*
D17*
X1044998Y515998D03*
X1044998Y510998D03*
X1044998Y505998D03*
X1044998Y500998D03*
D16*
X1052498Y493498D03*
X1057498Y493498D03*
X1062498Y493498D03*
X1067498Y493498D03*
D17*
X1074998Y500848D03*
X1074998Y505998D03*
X1074998Y510998D03*
X1074998Y515998D03*
D18*
X1059998Y508498D03*
D12*
X984998Y488498D03*
X994998Y488498D03*
D11*
X1014718Y491988D02*
X1014718Y485008D01*
X1007738Y485008D01*
X1007738Y491988D01*
X1014718Y491988D01*
X1014718Y489808D02*
X1007738Y489808D01*
X1032258Y491988D02*
X1032258Y485008D01*
X1025278Y485008D01*
X1025278Y491988D01*
X1032258Y491988D01*
X1032258Y489808D02*
X1025278Y489808D01*
D12*
X1089998Y503498D03*
X1089998Y493498D03*
D19*
X937498Y633898D03*
X937498Y615898D03*
D20*
X897498Y685648D03*
X902498Y685648D03*
X907498Y685648D03*
X912498Y685648D03*
X917498Y685648D03*
X922498Y685648D03*
X927498Y685648D03*
X932498Y685648D03*
X937498Y685648D03*
X942498Y685648D03*
X947498Y685648D03*
X952498Y685648D03*
X977498Y685648D03*
X982498Y685648D03*
X987498Y685648D03*
X992498Y685648D03*
X997498Y685648D03*
X1002498Y685648D03*
X1007498Y685648D03*
X1012498Y685648D03*
X1017498Y685648D03*
X1022498Y685648D03*
X1027498Y685648D03*
X1032498Y685648D03*
X1037498Y685648D03*
X1042498Y685648D03*
X1047498Y685648D03*
X1052498Y685648D03*
X1057498Y685648D03*
X1062498Y685648D03*
X1067498Y685648D03*
X1072498Y685648D03*
X1077498Y685648D03*
X1082498Y685648D03*
D21*
X970998Y488398D03*
X928998Y488398D03*
X949998Y501398D03*
D10*
X1282263Y630748D03*
X1282263Y624248D03*
X1275763Y630748D03*
X1275763Y624248D03*
X1282263Y617748D03*
X1282263Y611248D03*
X1275763Y617748D03*
X1275763Y611248D03*
X1282263Y604748D03*
X1282263Y598248D03*
X1275763Y604748D03*
X1275763Y598248D03*
X1282263Y591748D03*
X1282263Y585248D03*
X1275763Y591748D03*
X1275763Y585248D03*
X1282263Y578748D03*
X1275763Y578748D03*
X1282263Y572248D03*
X1282263Y565748D03*
X1275763Y572248D03*
X1275763Y565748D03*
X1282263Y559248D03*
X1282263Y552748D03*
X1275763Y559248D03*
X1275763Y552748D03*
X1282263Y546248D03*
X1275763Y546248D03*
X1269263Y630748D03*
X1262763Y630748D03*
X1256263Y630748D03*
X1249763Y630748D03*
X1243263Y630748D03*
X1236763Y630748D03*
X1230263Y630748D03*
X1223763Y630748D03*
X1217263Y630748D03*
X1210763Y630748D03*
X1204263Y630748D03*
X1197763Y630748D03*
X1269263Y624248D03*
X1262763Y624248D03*
X1256263Y624248D03*
X1249763Y624248D03*
X1243263Y624248D03*
X1236763Y624248D03*
X1230263Y624248D03*
X1223763Y624248D03*
X1217263Y624248D03*
X1210763Y624248D03*
X1204263Y624248D03*
X1197763Y624248D03*
X1269263Y617748D03*
X1262763Y617748D03*
X1256263Y617748D03*
X1249763Y617748D03*
X1243263Y617748D03*
X1236763Y617748D03*
X1230263Y617748D03*
X1223763Y617748D03*
X1217263Y617748D03*
X1210763Y617748D03*
X1204263Y617748D03*
X1197763Y617748D03*
X1269263Y611248D03*
X1262763Y611248D03*
X1256263Y611248D03*
X1249763Y611248D03*
X1243263Y611248D03*
X1236763Y611248D03*
X1230263Y611248D03*
X1223763Y611248D03*
X1217263Y611248D03*
X1210763Y611248D03*
X1204263Y611248D03*
X1197763Y611248D03*
X1269263Y604748D03*
X1262763Y604748D03*
X1256263Y604748D03*
X1249763Y604748D03*
X1243263Y604748D03*
X1236763Y604748D03*
X1230263Y604748D03*
X1223763Y604748D03*
X1217263Y604748D03*
X1210763Y604748D03*
X1204263Y604748D03*
X1197763Y604748D03*
X1269263Y598248D03*
X1262763Y598248D03*
X1256263Y598248D03*
X1249763Y598248D03*
X1243263Y598248D03*
X1236763Y598248D03*
X1230263Y598248D03*
X1223763Y598248D03*
X1217263Y598248D03*
X1210763Y598248D03*
X1204263Y598248D03*
X1197763Y598248D03*
X1269263Y591748D03*
X1262763Y591748D03*
X1256263Y591748D03*
X1249763Y591748D03*
X1243263Y591748D03*
X1236763Y591748D03*
X1230263Y591748D03*
X1223763Y591748D03*
X1217263Y591748D03*
X1210763Y591748D03*
X1204263Y591748D03*
X1197763Y591748D03*
X1269263Y585248D03*
X1262763Y585248D03*
X1256263Y585248D03*
X1249763Y585248D03*
X1243263Y585248D03*
X1236763Y585248D03*
X1230263Y585248D03*
X1223763Y585248D03*
X1217263Y585248D03*
X1210763Y585248D03*
X1204263Y585248D03*
X1197763Y585248D03*
X1269263Y578748D03*
X1262763Y578748D03*
X1256263Y578748D03*
X1249763Y578748D03*
X1243263Y578748D03*
X1236763Y578748D03*
X1230263Y578748D03*
X1223763Y578748D03*
X1217263Y578748D03*
X1210763Y578748D03*
X1204263Y578748D03*
X1197763Y578748D03*
X1269263Y572248D03*
X1262763Y572248D03*
X1256263Y572248D03*
X1249763Y572248D03*
X1243263Y572248D03*
X1236763Y572248D03*
X1230263Y572248D03*
X1223763Y572248D03*
X1217263Y572248D03*
X1210763Y572248D03*
X1204263Y572248D03*
X1197763Y572248D03*
X1269263Y565748D03*
X1262763Y565748D03*
X1256263Y565748D03*
X1249763Y565748D03*
X1243263Y565748D03*
X1236763Y565748D03*
X1230263Y565748D03*
X1223763Y565748D03*
X1217263Y565748D03*
X1210763Y565748D03*
X1204263Y565748D03*
X1197763Y565748D03*
X1269263Y559248D03*
X1262763Y559248D03*
X1256263Y559248D03*
X1249763Y559248D03*
X1243263Y559248D03*
X1236763Y559248D03*
X1230263Y559248D03*
X1223763Y559248D03*
X1217263Y559248D03*
X1210763Y559248D03*
X1204263Y559248D03*
X1197763Y559248D03*
X1269263Y552748D03*
X1262763Y552748D03*
X1256263Y552748D03*
X1249763Y552748D03*
X1243263Y552748D03*
X1236763Y552748D03*
X1230263Y552748D03*
X1223763Y552748D03*
X1217263Y552748D03*
X1210763Y552748D03*
X1204263Y552748D03*
X1197763Y552748D03*
X1269263Y546248D03*
X1262763Y546248D03*
X1256263Y546248D03*
X1249763Y546248D03*
X1243263Y546248D03*
X1236763Y546248D03*
X1230263Y546248D03*
X1223763Y546248D03*
X1217263Y546248D03*
X1210763Y546248D03*
X1204263Y546248D03*
X1197763Y546248D03*
D11*
X1125293Y491988D02*
X1125293Y485008D01*
X1125293Y491988D02*
X1132273Y491988D01*
X1132273Y485008D01*
X1125293Y485008D01*
X1125293Y489808D02*
X1132273Y489808D01*
X1107753Y491988D02*
X1107753Y485008D01*
X1107753Y491988D02*
X1114733Y491988D01*
X1114733Y485008D01*
X1107753Y485008D01*
X1107753Y489808D02*
X1114733Y489808D01*
D12*
X1110013Y593498D03*
X1110013Y603498D03*
D13*
X1144013Y545998D03*
X1144013Y570998D03*
D12*
X1130013Y543498D03*
X1130013Y553498D03*
X1130013Y573498D03*
X1130013Y563498D03*
X1183513Y553498D03*
X1183513Y563498D03*
X1174013Y578498D03*
X1164013Y578498D03*
X1174013Y539498D03*
X1164013Y539498D03*
D14*
X1174013Y565248D03*
X1174013Y551748D03*
X1164013Y551748D03*
X1164013Y565248D03*
D12*
X1310013Y513498D03*
X1310013Y523498D03*
X1137213Y596898D03*
X1147213Y596898D03*
X1137213Y584198D03*
X1147213Y584198D03*
D15*
X1107013Y639498D03*
X1297013Y485498D03*
D16*
X1287513Y523498D03*
X1282513Y523498D03*
X1277513Y523498D03*
X1272513Y523498D03*
D17*
X1265013Y515998D03*
X1265013Y510998D03*
X1265013Y505998D03*
X1265013Y500998D03*
D16*
X1272513Y493498D03*
X1277513Y493498D03*
X1282513Y493498D03*
X1287513Y493498D03*
D17*
X1295013Y500848D03*
X1295013Y505998D03*
X1295013Y510998D03*
X1295013Y515998D03*
D18*
X1280013Y508498D03*
D12*
X1205013Y488498D03*
X1215013Y488498D03*
D11*
X1234733Y491988D02*
X1234733Y485008D01*
X1227753Y485008D01*
X1227753Y491988D01*
X1234733Y491988D01*
X1234733Y489808D02*
X1227753Y489808D01*
X1252273Y491988D02*
X1252273Y485008D01*
X1245293Y485008D01*
X1245293Y491988D01*
X1252273Y491988D01*
X1252273Y489808D02*
X1245293Y489808D01*
D12*
X1310013Y503498D03*
X1310013Y493498D03*
D19*
X1157513Y633898D03*
X1157513Y615898D03*
D20*
X1117513Y685648D03*
X1122513Y685648D03*
X1127513Y685648D03*
X1132513Y685648D03*
X1137513Y685648D03*
X1142513Y685648D03*
X1147513Y685648D03*
X1152513Y685648D03*
X1157513Y685648D03*
X1162513Y685648D03*
X1167513Y685648D03*
X1172513Y685648D03*
X1197513Y685648D03*
X1202513Y685648D03*
X1207513Y685648D03*
X1212513Y685648D03*
X1217513Y685648D03*
X1222513Y685648D03*
X1227513Y685648D03*
X1232513Y685648D03*
X1237513Y685648D03*
X1242513Y685648D03*
X1247513Y685648D03*
X1252513Y685648D03*
X1257513Y685648D03*
X1262513Y685648D03*
X1267513Y685648D03*
X1272513Y685648D03*
X1277513Y685648D03*
X1282513Y685648D03*
X1287513Y685648D03*
X1292513Y685648D03*
X1297513Y685648D03*
X1302513Y685648D03*
D21*
X1191013Y488398D03*
X1149013Y488398D03*
X1170013Y501398D03*
D10*
X1502252Y630748D03*
X1502252Y624248D03*
X1495752Y630748D03*
X1495752Y624248D03*
X1502252Y617748D03*
X1502252Y611248D03*
X1495752Y617748D03*
X1495752Y611248D03*
X1502252Y604748D03*
X1502252Y598248D03*
X1495752Y604748D03*
X1495752Y598248D03*
X1502252Y591748D03*
X1502252Y585248D03*
X1495752Y591748D03*
X1495752Y585248D03*
X1502252Y578748D03*
X1495752Y578748D03*
X1502252Y572248D03*
X1502252Y565748D03*
X1495752Y572248D03*
X1495752Y565748D03*
X1502252Y559248D03*
X1502252Y552748D03*
X1495752Y559248D03*
X1495752Y552748D03*
X1502252Y546248D03*
X1495752Y546248D03*
X1489252Y630748D03*
X1482752Y630748D03*
X1476252Y630748D03*
X1469752Y630748D03*
X1463252Y630748D03*
X1456752Y630748D03*
X1450252Y630748D03*
X1443752Y630748D03*
X1437252Y630748D03*
X1430752Y630748D03*
X1424252Y630748D03*
X1417752Y630748D03*
X1489252Y624248D03*
X1482752Y624248D03*
X1476252Y624248D03*
X1469752Y624248D03*
X1463252Y624248D03*
X1456752Y624248D03*
X1450252Y624248D03*
X1443752Y624248D03*
X1437252Y624248D03*
X1430752Y624248D03*
X1424252Y624248D03*
X1417752Y624248D03*
X1489252Y617748D03*
X1482752Y617748D03*
X1476252Y617748D03*
X1469752Y617748D03*
X1463252Y617748D03*
X1456752Y617748D03*
X1450252Y617748D03*
X1443752Y617748D03*
X1437252Y617748D03*
X1430752Y617748D03*
X1424252Y617748D03*
X1417752Y617748D03*
X1489252Y611248D03*
X1482752Y611248D03*
X1476252Y611248D03*
X1469752Y611248D03*
X1463252Y611248D03*
X1456752Y611248D03*
X1450252Y611248D03*
X1443752Y611248D03*
X1437252Y611248D03*
X1430752Y611248D03*
X1424252Y611248D03*
X1417752Y611248D03*
X1489252Y604748D03*
X1482752Y604748D03*
X1476252Y604748D03*
X1469752Y604748D03*
X1463252Y604748D03*
X1456752Y604748D03*
X1450252Y604748D03*
X1443752Y604748D03*
X1437252Y604748D03*
X1430752Y604748D03*
X1424252Y604748D03*
X1417752Y604748D03*
X1489252Y598248D03*
X1482752Y598248D03*
X1476252Y598248D03*
X1469752Y598248D03*
X1463252Y598248D03*
X1456752Y598248D03*
X1450252Y598248D03*
X1443752Y598248D03*
X1437252Y598248D03*
X1430752Y598248D03*
X1424252Y598248D03*
X1417752Y598248D03*
X1489252Y591748D03*
X1482752Y591748D03*
X1476252Y591748D03*
X1469752Y591748D03*
X1463252Y591748D03*
X1456752Y591748D03*
X1450252Y591748D03*
X1443752Y591748D03*
X1437252Y591748D03*
X1430752Y591748D03*
X1424252Y591748D03*
X1417752Y591748D03*
X1489252Y585248D03*
X1482752Y585248D03*
X1476252Y585248D03*
X1469752Y585248D03*
X1463252Y585248D03*
X1456752Y585248D03*
X1450252Y585248D03*
X1443752Y585248D03*
X1437252Y585248D03*
X1430752Y585248D03*
X1424252Y585248D03*
X1417752Y585248D03*
X1489252Y578748D03*
X1482752Y578748D03*
X1476252Y578748D03*
X1469752Y578748D03*
X1463252Y578748D03*
X1456752Y578748D03*
X1450252Y578748D03*
X1443752Y578748D03*
X1437252Y578748D03*
X1430752Y578748D03*
X1424252Y578748D03*
X1417752Y578748D03*
X1489252Y572248D03*
X1482752Y572248D03*
X1476252Y572248D03*
X1469752Y572248D03*
X1463252Y572248D03*
X1456752Y572248D03*
X1450252Y572248D03*
X1443752Y572248D03*
X1437252Y572248D03*
X1430752Y572248D03*
X1424252Y572248D03*
X1417752Y572248D03*
X1489252Y565748D03*
X1482752Y565748D03*
X1476252Y565748D03*
X1469752Y565748D03*
X1463252Y565748D03*
X1456752Y565748D03*
X1450252Y565748D03*
X1443752Y565748D03*
X1437252Y565748D03*
X1430752Y565748D03*
X1424252Y565748D03*
X1417752Y565748D03*
X1489252Y559248D03*
X1482752Y559248D03*
X1476252Y559248D03*
X1469752Y559248D03*
X1463252Y559248D03*
X1456752Y559248D03*
X1450252Y559248D03*
X1443752Y559248D03*
X1437252Y559248D03*
X1430752Y559248D03*
X1424252Y559248D03*
X1417752Y559248D03*
X1489252Y552748D03*
X1482752Y552748D03*
X1476252Y552748D03*
X1469752Y552748D03*
X1463252Y552748D03*
X1456752Y552748D03*
X1450252Y552748D03*
X1443752Y552748D03*
X1437252Y552748D03*
X1430752Y552748D03*
X1424252Y552748D03*
X1417752Y552748D03*
X1489252Y546248D03*
X1482752Y546248D03*
X1476252Y546248D03*
X1469752Y546248D03*
X1463252Y546248D03*
X1456752Y546248D03*
X1450252Y546248D03*
X1443752Y546248D03*
X1437252Y546248D03*
X1430752Y546248D03*
X1424252Y546248D03*
X1417752Y546248D03*
D11*
X1345282Y491988D02*
X1345282Y485008D01*
X1345282Y491988D02*
X1352262Y491988D01*
X1352262Y485008D01*
X1345282Y485008D01*
X1345282Y489808D02*
X1352262Y489808D01*
X1327742Y491988D02*
X1327742Y485008D01*
X1327742Y491988D02*
X1334722Y491988D01*
X1334722Y485008D01*
X1327742Y485008D01*
X1327742Y489808D02*
X1334722Y489808D01*
D12*
X1330002Y593498D03*
X1330002Y603498D03*
D13*
X1364002Y545998D03*
X1364002Y570998D03*
D12*
X1350002Y543498D03*
X1350002Y553498D03*
X1350002Y573498D03*
X1350002Y563498D03*
X1403502Y553498D03*
X1403502Y563498D03*
X1394002Y578498D03*
X1384002Y578498D03*
X1394002Y539498D03*
X1384002Y539498D03*
D14*
X1394002Y565248D03*
X1394002Y551748D03*
X1384002Y551748D03*
X1384002Y565248D03*
D12*
X1530002Y513498D03*
X1530002Y523498D03*
X1357202Y596898D03*
X1367202Y596898D03*
X1357202Y584198D03*
X1367202Y584198D03*
D15*
X1327002Y639498D03*
X1517002Y485498D03*
D16*
X1507502Y523498D03*
X1502502Y523498D03*
X1497502Y523498D03*
X1492502Y523498D03*
D17*
X1485002Y515998D03*
X1485002Y510998D03*
X1485002Y505998D03*
X1485002Y500998D03*
D16*
X1492502Y493498D03*
X1497502Y493498D03*
X1502502Y493498D03*
X1507502Y493498D03*
D17*
X1515002Y500848D03*
X1515002Y505998D03*
X1515002Y510998D03*
X1515002Y515998D03*
D18*
X1500002Y508498D03*
D12*
X1425002Y488498D03*
X1435002Y488498D03*
D11*
X1454722Y491988D02*
X1454722Y485008D01*
X1447742Y485008D01*
X1447742Y491988D01*
X1454722Y491988D01*
X1454722Y489808D02*
X1447742Y489808D01*
X1472262Y491988D02*
X1472262Y485008D01*
X1465282Y485008D01*
X1465282Y491988D01*
X1472262Y491988D01*
X1472262Y489808D02*
X1465282Y489808D01*
D12*
X1530002Y503498D03*
X1530002Y493498D03*
D19*
X1377502Y633898D03*
X1377502Y615898D03*
D20*
X1337502Y685648D03*
X1342502Y685648D03*
X1347502Y685648D03*
X1352502Y685648D03*
X1357502Y685648D03*
X1362502Y685648D03*
X1367502Y685648D03*
X1372502Y685648D03*
X1377502Y685648D03*
X1382502Y685648D03*
X1387502Y685648D03*
X1392502Y685648D03*
X1417502Y685648D03*
X1422502Y685648D03*
X1427502Y685648D03*
X1432502Y685648D03*
X1437502Y685648D03*
X1442502Y685648D03*
X1447502Y685648D03*
X1452502Y685648D03*
X1457502Y685648D03*
X1462502Y685648D03*
X1467502Y685648D03*
X1472502Y685648D03*
X1477502Y685648D03*
X1482502Y685648D03*
X1487502Y685648D03*
X1492502Y685648D03*
X1497502Y685648D03*
X1502502Y685648D03*
X1507502Y685648D03*
X1512502Y685648D03*
X1517502Y685648D03*
X1522502Y685648D03*
D21*
X1411002Y488398D03*
X1369002Y488398D03*
X1390002Y501398D03*
D10*
X1722241Y630748D03*
X1722241Y624248D03*
X1715741Y630748D03*
X1715741Y624248D03*
X1722241Y617748D03*
X1722241Y611248D03*
X1715741Y617748D03*
X1715741Y611248D03*
X1722241Y604748D03*
X1722241Y598248D03*
X1715741Y604748D03*
X1715741Y598248D03*
X1722241Y591748D03*
X1722241Y585248D03*
X1715741Y591748D03*
X1715741Y585248D03*
X1722241Y578748D03*
X1715741Y578748D03*
X1722241Y572248D03*
X1722241Y565748D03*
X1715741Y572248D03*
X1715741Y565748D03*
X1722241Y559248D03*
X1722241Y552748D03*
X1715741Y559248D03*
X1715741Y552748D03*
X1722241Y546248D03*
X1715741Y546248D03*
X1709241Y630748D03*
X1702741Y630748D03*
X1696241Y630748D03*
X1689741Y630748D03*
X1683241Y630748D03*
X1676741Y630748D03*
X1670241Y630748D03*
X1663741Y630748D03*
X1657241Y630748D03*
X1650741Y630748D03*
X1644241Y630748D03*
X1637741Y630748D03*
X1709241Y624248D03*
X1702741Y624248D03*
X1696241Y624248D03*
X1689741Y624248D03*
X1683241Y624248D03*
X1676741Y624248D03*
X1670241Y624248D03*
X1663741Y624248D03*
X1657241Y624248D03*
X1650741Y624248D03*
X1644241Y624248D03*
X1637741Y624248D03*
X1709241Y617748D03*
X1702741Y617748D03*
X1696241Y617748D03*
X1689741Y617748D03*
X1683241Y617748D03*
X1676741Y617748D03*
X1670241Y617748D03*
X1663741Y617748D03*
X1657241Y617748D03*
X1650741Y617748D03*
X1644241Y617748D03*
X1637741Y617748D03*
X1709241Y611248D03*
X1702741Y611248D03*
X1696241Y611248D03*
X1689741Y611248D03*
X1683241Y611248D03*
X1676741Y611248D03*
X1670241Y611248D03*
X1663741Y611248D03*
X1657241Y611248D03*
X1650741Y611248D03*
X1644241Y611248D03*
X1637741Y611248D03*
X1709241Y604748D03*
X1702741Y604748D03*
X1696241Y604748D03*
X1689741Y604748D03*
X1683241Y604748D03*
X1676741Y604748D03*
X1670241Y604748D03*
X1663741Y604748D03*
X1657241Y604748D03*
X1650741Y604748D03*
X1644241Y604748D03*
X1637741Y604748D03*
X1709241Y598248D03*
X1702741Y598248D03*
X1696241Y598248D03*
X1689741Y598248D03*
X1683241Y598248D03*
X1676741Y598248D03*
X1670241Y598248D03*
X1663741Y598248D03*
X1657241Y598248D03*
X1650741Y598248D03*
X1644241Y598248D03*
X1637741Y598248D03*
X1709241Y591748D03*
X1702741Y591748D03*
X1696241Y591748D03*
X1689741Y591748D03*
X1683241Y591748D03*
X1676741Y591748D03*
X1670241Y591748D03*
X1663741Y591748D03*
X1657241Y591748D03*
X1650741Y591748D03*
X1644241Y591748D03*
X1637741Y591748D03*
X1709241Y585248D03*
X1702741Y585248D03*
X1696241Y585248D03*
X1689741Y585248D03*
X1683241Y585248D03*
X1676741Y585248D03*
X1670241Y585248D03*
X1663741Y585248D03*
X1657241Y585248D03*
X1650741Y585248D03*
X1644241Y585248D03*
X1637741Y585248D03*
X1709241Y578748D03*
X1702741Y578748D03*
X1696241Y578748D03*
X1689741Y578748D03*
X1683241Y578748D03*
X1676741Y578748D03*
X1670241Y578748D03*
X1663741Y578748D03*
X1657241Y578748D03*
X1650741Y578748D03*
X1644241Y578748D03*
X1637741Y578748D03*
X1709241Y572248D03*
X1702741Y572248D03*
X1696241Y572248D03*
X1689741Y572248D03*
X1683241Y572248D03*
X1676741Y572248D03*
X1670241Y572248D03*
X1663741Y572248D03*
X1657241Y572248D03*
X1650741Y572248D03*
X1644241Y572248D03*
X1637741Y572248D03*
X1709241Y565748D03*
X1702741Y565748D03*
X1696241Y565748D03*
X1689741Y565748D03*
X1683241Y565748D03*
X1676741Y565748D03*
X1670241Y565748D03*
X1663741Y565748D03*
X1657241Y565748D03*
X1650741Y565748D03*
X1644241Y565748D03*
X1637741Y565748D03*
X1709241Y559248D03*
X1702741Y559248D03*
X1696241Y559248D03*
X1689741Y559248D03*
X1683241Y559248D03*
X1676741Y559248D03*
X1670241Y559248D03*
X1663741Y559248D03*
X1657241Y559248D03*
X1650741Y559248D03*
X1644241Y559248D03*
X1637741Y559248D03*
X1709241Y552748D03*
X1702741Y552748D03*
X1696241Y552748D03*
X1689741Y552748D03*
X1683241Y552748D03*
X1676741Y552748D03*
X1670241Y552748D03*
X1663741Y552748D03*
X1657241Y552748D03*
X1650741Y552748D03*
X1644241Y552748D03*
X1637741Y552748D03*
X1709241Y546248D03*
X1702741Y546248D03*
X1696241Y546248D03*
X1689741Y546248D03*
X1683241Y546248D03*
X1676741Y546248D03*
X1670241Y546248D03*
X1663741Y546248D03*
X1657241Y546248D03*
X1650741Y546248D03*
X1644241Y546248D03*
X1637741Y546248D03*
D11*
X1565271Y491988D02*
X1565271Y485008D01*
X1565271Y491988D02*
X1572251Y491988D01*
X1572251Y485008D01*
X1565271Y485008D01*
X1565271Y489808D02*
X1572251Y489808D01*
X1547731Y491988D02*
X1547731Y485008D01*
X1547731Y491988D02*
X1554711Y491988D01*
X1554711Y485008D01*
X1547731Y485008D01*
X1547731Y489808D02*
X1554711Y489808D01*
D12*
X1549991Y593498D03*
X1549991Y603498D03*
D13*
X1583991Y545998D03*
X1583991Y570998D03*
D12*
X1569991Y543498D03*
X1569991Y553498D03*
X1569991Y573498D03*
X1569991Y563498D03*
X1623491Y553498D03*
X1623491Y563498D03*
X1613991Y578498D03*
X1603991Y578498D03*
X1613991Y539498D03*
X1603991Y539498D03*
D14*
X1613991Y565248D03*
X1613991Y551748D03*
X1603991Y551748D03*
X1603991Y565248D03*
D12*
X1749991Y513498D03*
X1749991Y523498D03*
X1577191Y596898D03*
X1587191Y596898D03*
X1577191Y584198D03*
X1587191Y584198D03*
D15*
X1546991Y639498D03*
X1736991Y485498D03*
D16*
X1727491Y523498D03*
X1722491Y523498D03*
X1717491Y523498D03*
X1712491Y523498D03*
D17*
X1704991Y515998D03*
X1704991Y510998D03*
X1704991Y505998D03*
X1704991Y500998D03*
D16*
X1712491Y493498D03*
X1717491Y493498D03*
X1722491Y493498D03*
X1727491Y493498D03*
D17*
X1734991Y500848D03*
X1734991Y505998D03*
X1734991Y510998D03*
X1734991Y515998D03*
D18*
X1719991Y508498D03*
D12*
X1644991Y488498D03*
X1654991Y488498D03*
D11*
X1674711Y491988D02*
X1674711Y485008D01*
X1667731Y485008D01*
X1667731Y491988D01*
X1674711Y491988D01*
X1674711Y489808D02*
X1667731Y489808D01*
X1692251Y491988D02*
X1692251Y485008D01*
X1685271Y485008D01*
X1685271Y491988D01*
X1692251Y491988D01*
X1692251Y489808D02*
X1685271Y489808D01*
D12*
X1749991Y503498D03*
X1749991Y493498D03*
D19*
X1597491Y633898D03*
X1597491Y615898D03*
D20*
X1557491Y685648D03*
X1562491Y685648D03*
X1567491Y685648D03*
X1572491Y685648D03*
X1577491Y685648D03*
X1582491Y685648D03*
X1587491Y685648D03*
X1592491Y685648D03*
X1597491Y685648D03*
X1602491Y685648D03*
X1607491Y685648D03*
X1612491Y685648D03*
X1637491Y685648D03*
X1642491Y685648D03*
X1647491Y685648D03*
X1652491Y685648D03*
X1657491Y685648D03*
X1662491Y685648D03*
X1667491Y685648D03*
X1672491Y685648D03*
X1677491Y685648D03*
X1682491Y685648D03*
X1687491Y685648D03*
X1692491Y685648D03*
X1697491Y685648D03*
X1702491Y685648D03*
X1707491Y685648D03*
X1712491Y685648D03*
X1717491Y685648D03*
X1722491Y685648D03*
X1727491Y685648D03*
X1732491Y685648D03*
X1737491Y685648D03*
X1742491Y685648D03*
D21*
X1630991Y488398D03*
X1588991Y488398D03*
X1609991Y501398D03*
D22*
X-21158Y635000D03*
X1781175Y635000D03*
D23*
X-30213Y63500D02*
X-30210Y63722D01*
X-30202Y63944D01*
X-30188Y64166D01*
X-30169Y64388D01*
X-30145Y64608D01*
X-30115Y64829D01*
X-30080Y65048D01*
X-30039Y65267D01*
X-29993Y65484D01*
X-29942Y65700D01*
X-29885Y65915D01*
X-29823Y66129D01*
X-29756Y66340D01*
X-29684Y66551D01*
X-29606Y66759D01*
X-29524Y66965D01*
X-29436Y67169D01*
X-29344Y67372D01*
X-29246Y67571D01*
X-29144Y67768D01*
X-29037Y67963D01*
X-28925Y68155D01*
X-28808Y68344D01*
X-28687Y68531D01*
X-28561Y68714D01*
X-28431Y68894D01*
X-28296Y69071D01*
X-28158Y69244D01*
X-28015Y69414D01*
X-27867Y69581D01*
X-27716Y69744D01*
X-27561Y69903D01*
X-27402Y70058D01*
X-27239Y70209D01*
X-27072Y70357D01*
X-26902Y70500D01*
X-26729Y70638D01*
X-26552Y70773D01*
X-26372Y70903D01*
X-26189Y71029D01*
X-26002Y71150D01*
X-25813Y71267D01*
X-25621Y71379D01*
X-25426Y71486D01*
X-25229Y71588D01*
X-25030Y71686D01*
X-24827Y71778D01*
X-24623Y71866D01*
X-24417Y71948D01*
X-24209Y72026D01*
X-23998Y72098D01*
X-23787Y72165D01*
X-23573Y72227D01*
X-23358Y72284D01*
X-23142Y72335D01*
X-22925Y72381D01*
X-22706Y72422D01*
X-22487Y72457D01*
X-22266Y72487D01*
X-22046Y72511D01*
X-21824Y72530D01*
X-21602Y72544D01*
X-21380Y72552D01*
X-21158Y72555D01*
X-20936Y72552D01*
X-20714Y72544D01*
X-20492Y72530D01*
X-20270Y72511D01*
X-20050Y72487D01*
X-19829Y72457D01*
X-19610Y72422D01*
X-19391Y72381D01*
X-19174Y72335D01*
X-18958Y72284D01*
X-18743Y72227D01*
X-18529Y72165D01*
X-18318Y72098D01*
X-18107Y72026D01*
X-17899Y71948D01*
X-17693Y71866D01*
X-17489Y71778D01*
X-17286Y71686D01*
X-17087Y71588D01*
X-16890Y71486D01*
X-16695Y71379D01*
X-16503Y71267D01*
X-16314Y71150D01*
X-16127Y71029D01*
X-15944Y70903D01*
X-15764Y70773D01*
X-15587Y70638D01*
X-15414Y70500D01*
X-15244Y70357D01*
X-15077Y70209D01*
X-14914Y70058D01*
X-14755Y69903D01*
X-14600Y69744D01*
X-14449Y69581D01*
X-14301Y69414D01*
X-14158Y69244D01*
X-14020Y69071D01*
X-13885Y68894D01*
X-13755Y68714D01*
X-13629Y68531D01*
X-13508Y68344D01*
X-13391Y68155D01*
X-13279Y67963D01*
X-13172Y67768D01*
X-13070Y67571D01*
X-12972Y67372D01*
X-12880Y67169D01*
X-12792Y66965D01*
X-12710Y66759D01*
X-12632Y66551D01*
X-12560Y66340D01*
X-12493Y66129D01*
X-12431Y65915D01*
X-12374Y65700D01*
X-12323Y65484D01*
X-12277Y65267D01*
X-12236Y65048D01*
X-12201Y64829D01*
X-12171Y64608D01*
X-12147Y64388D01*
X-12128Y64166D01*
X-12114Y63944D01*
X-12106Y63722D01*
X-12103Y63500D01*
X-12106Y63278D01*
X-12114Y63056D01*
X-12128Y62834D01*
X-12147Y62612D01*
X-12171Y62392D01*
X-12201Y62171D01*
X-12236Y61952D01*
X-12277Y61733D01*
X-12323Y61516D01*
X-12374Y61300D01*
X-12431Y61085D01*
X-12493Y60871D01*
X-12560Y60660D01*
X-12632Y60449D01*
X-12710Y60241D01*
X-12792Y60035D01*
X-12880Y59831D01*
X-12972Y59628D01*
X-13070Y59429D01*
X-13172Y59232D01*
X-13279Y59037D01*
X-13391Y58845D01*
X-13508Y58656D01*
X-13629Y58469D01*
X-13755Y58286D01*
X-13885Y58106D01*
X-14020Y57929D01*
X-14158Y57756D01*
X-14301Y57586D01*
X-14449Y57419D01*
X-14600Y57256D01*
X-14755Y57097D01*
X-14914Y56942D01*
X-15077Y56791D01*
X-15244Y56643D01*
X-15414Y56500D01*
X-15587Y56362D01*
X-15764Y56227D01*
X-15944Y56097D01*
X-16127Y55971D01*
X-16314Y55850D01*
X-16503Y55733D01*
X-16695Y55621D01*
X-16890Y55514D01*
X-17087Y55412D01*
X-17286Y55314D01*
X-17489Y55222D01*
X-17693Y55134D01*
X-17899Y55052D01*
X-18107Y54974D01*
X-18318Y54902D01*
X-18529Y54835D01*
X-18743Y54773D01*
X-18958Y54716D01*
X-19174Y54665D01*
X-19391Y54619D01*
X-19610Y54578D01*
X-19829Y54543D01*
X-20050Y54513D01*
X-20270Y54489D01*
X-20492Y54470D01*
X-20714Y54456D01*
X-20936Y54448D01*
X-21158Y54445D01*
X-21380Y54448D01*
X-21602Y54456D01*
X-21824Y54470D01*
X-22046Y54489D01*
X-22266Y54513D01*
X-22487Y54543D01*
X-22706Y54578D01*
X-22925Y54619D01*
X-23142Y54665D01*
X-23358Y54716D01*
X-23573Y54773D01*
X-23787Y54835D01*
X-23998Y54902D01*
X-24209Y54974D01*
X-24417Y55052D01*
X-24623Y55134D01*
X-24827Y55222D01*
X-25030Y55314D01*
X-25229Y55412D01*
X-25426Y55514D01*
X-25621Y55621D01*
X-25813Y55733D01*
X-26002Y55850D01*
X-26189Y55971D01*
X-26372Y56097D01*
X-26552Y56227D01*
X-26729Y56362D01*
X-26902Y56500D01*
X-27072Y56643D01*
X-27239Y56791D01*
X-27402Y56942D01*
X-27561Y57097D01*
X-27716Y57256D01*
X-27867Y57419D01*
X-28015Y57586D01*
X-28158Y57756D01*
X-28296Y57929D01*
X-28431Y58106D01*
X-28561Y58286D01*
X-28687Y58469D01*
X-28808Y58656D01*
X-28925Y58845D01*
X-29037Y59037D01*
X-29144Y59232D01*
X-29246Y59429D01*
X-29344Y59628D01*
X-29436Y59831D01*
X-29524Y60035D01*
X-29606Y60241D01*
X-29684Y60449D01*
X-29756Y60660D01*
X-29823Y60871D01*
X-29885Y61085D01*
X-29942Y61300D01*
X-29993Y61516D01*
X-30039Y61733D01*
X-30080Y61952D01*
X-30115Y62171D01*
X-30145Y62392D01*
X-30169Y62612D01*
X-30188Y62834D01*
X-30202Y63056D01*
X-30210Y63278D01*
X-30213Y63500D01*
D24*
X-21158Y63500D03*
M02*
