G04 EAGLE Gerber RS-274X export*
G75*
%MOMM*%
%FSLAX34Y34*%
%LPD*%
%INSoldermask Bottom*%
%IPPOS*%
%AMOC8*
5,1,8,0,0,1.08239X$1,22.5*%
G01*
%ADD10R,0.711200X0.711200*%
%ADD11R,0.803200X0.803200*%
%ADD12R,0.603200X0.603200*%
%ADD13R,1.473200X0.863600*%
%ADD14C,0.838200*%
%ADD15R,0.553200X2.153200*%
%ADD16R,0.453200X0.453200*%
%ADD17C,5.703200*%
%ADD18C,1.203200*%
%ADD19C,1.270000*%
%ADD20C,1.703200*%

G36*
X1729849Y188058D02*
X1729849Y188058D01*
X1729858Y188061D01*
X1729884Y188063D01*
X1734067Y188973D01*
X1734075Y188977D01*
X1734101Y188983D01*
X1738112Y190479D01*
X1738119Y190484D01*
X1738144Y190493D01*
X1741901Y192545D01*
X1741908Y192552D01*
X1741931Y192564D01*
X1745357Y195129D01*
X1745363Y195137D01*
X1745384Y195152D01*
X1748411Y198179D01*
X1748415Y198187D01*
X1748434Y198206D01*
X1750999Y201632D01*
X1751003Y201641D01*
X1751018Y201662D01*
X1753070Y205419D01*
X1753072Y205429D01*
X1753085Y205451D01*
X1754580Y209462D01*
X1754581Y209472D01*
X1754590Y209496D01*
X1755500Y213679D01*
X1755500Y213688D01*
X1755505Y213714D01*
X1755811Y217983D01*
X1755809Y217989D01*
X1755811Y218001D01*
X1755811Y228001D01*
X1755806Y228017D01*
X1755809Y228034D01*
X1755787Y228084D01*
X1755772Y228135D01*
X1755759Y228146D01*
X1755752Y228162D01*
X1755707Y228192D01*
X1755667Y228227D01*
X1755650Y228230D01*
X1755636Y228239D01*
X1755562Y228250D01*
X1743062Y228250D01*
X1743055Y228248D01*
X1743048Y228250D01*
X1742989Y228229D01*
X1742928Y228211D01*
X1742923Y228206D01*
X1742916Y228203D01*
X1742878Y228153D01*
X1742836Y228106D01*
X1742835Y228099D01*
X1742830Y228093D01*
X1742814Y228021D01*
X1742600Y225303D01*
X1741968Y222670D01*
X1740932Y220170D01*
X1739518Y217862D01*
X1737760Y215803D01*
X1735701Y214045D01*
X1733393Y212631D01*
X1730893Y211595D01*
X1728260Y210963D01*
X1725562Y210751D01*
X1722864Y210963D01*
X1720231Y211595D01*
X1717731Y212631D01*
X1715423Y214045D01*
X1713364Y215803D01*
X1713343Y215829D01*
X1713130Y216078D01*
X1712917Y216327D01*
X1712704Y216577D01*
X1712491Y216826D01*
X1712278Y217075D01*
X1711853Y217574D01*
X1711852Y217574D01*
X1711640Y217823D01*
X1711606Y217862D01*
X1710192Y220170D01*
X1709156Y222670D01*
X1708524Y225303D01*
X1708310Y228021D01*
X1708308Y228027D01*
X1708309Y228034D01*
X1708283Y228092D01*
X1708261Y228151D01*
X1708255Y228156D01*
X1708252Y228162D01*
X1708199Y228197D01*
X1708149Y228235D01*
X1708142Y228235D01*
X1708136Y228239D01*
X1708062Y228250D01*
X1695562Y228250D01*
X1695546Y228245D01*
X1695529Y228248D01*
X1695479Y228226D01*
X1695428Y228211D01*
X1695417Y228198D01*
X1695401Y228191D01*
X1695371Y228146D01*
X1695336Y228106D01*
X1695333Y228089D01*
X1695324Y228075D01*
X1695313Y228001D01*
X1695313Y218001D01*
X1695314Y217996D01*
X1695313Y217983D01*
X1695619Y213714D01*
X1695622Y213705D01*
X1695624Y213679D01*
X1696534Y209496D01*
X1696538Y209488D01*
X1696544Y209462D01*
X1698040Y205451D01*
X1698045Y205444D01*
X1698054Y205419D01*
X1700106Y201662D01*
X1700113Y201655D01*
X1700125Y201632D01*
X1702690Y198206D01*
X1702698Y198200D01*
X1702713Y198179D01*
X1705740Y195152D01*
X1705748Y195148D01*
X1705767Y195129D01*
X1709193Y192564D01*
X1709202Y192560D01*
X1709223Y192545D01*
X1712980Y190493D01*
X1712990Y190491D01*
X1713012Y190479D01*
X1717023Y188983D01*
X1717033Y188982D01*
X1717057Y188973D01*
X1721240Y188063D01*
X1721249Y188063D01*
X1721275Y188058D01*
X1725544Y187752D01*
X1725554Y187754D01*
X1725580Y187752D01*
X1729849Y188058D01*
G37*
G36*
X1504780Y188058D02*
X1504780Y188058D01*
X1504789Y188061D01*
X1504815Y188063D01*
X1508998Y188973D01*
X1509006Y188977D01*
X1509032Y188983D01*
X1513042Y190479D01*
X1513050Y190484D01*
X1513075Y190493D01*
X1516831Y192545D01*
X1516838Y192552D01*
X1516861Y192564D01*
X1520288Y195129D01*
X1520294Y195137D01*
X1520315Y195152D01*
X1523341Y198179D01*
X1523346Y198187D01*
X1523365Y198206D01*
X1525930Y201632D01*
X1525933Y201641D01*
X1525949Y201662D01*
X1528000Y205419D01*
X1528002Y205429D01*
X1528015Y205451D01*
X1529511Y209462D01*
X1529512Y209472D01*
X1529521Y209496D01*
X1530431Y213679D01*
X1530430Y213688D01*
X1530436Y213714D01*
X1530741Y217983D01*
X1530740Y217989D01*
X1530742Y218001D01*
X1530742Y228001D01*
X1530737Y228017D01*
X1530740Y228034D01*
X1530718Y228084D01*
X1530703Y228135D01*
X1530690Y228146D01*
X1530683Y228162D01*
X1530638Y228192D01*
X1530597Y228227D01*
X1530580Y228230D01*
X1530566Y228239D01*
X1530493Y228250D01*
X1517993Y228250D01*
X1517986Y228248D01*
X1517979Y228250D01*
X1517919Y228229D01*
X1517858Y228211D01*
X1517854Y228206D01*
X1517847Y228203D01*
X1517808Y228153D01*
X1517766Y228106D01*
X1517765Y228099D01*
X1517761Y228093D01*
X1517744Y228021D01*
X1517530Y225303D01*
X1516898Y222670D01*
X1515862Y220170D01*
X1514448Y217862D01*
X1512690Y215803D01*
X1510632Y214045D01*
X1508324Y212631D01*
X1505823Y211595D01*
X1503191Y210963D01*
X1500493Y210751D01*
X1497794Y210963D01*
X1495162Y211595D01*
X1492661Y212631D01*
X1490353Y214045D01*
X1488295Y215803D01*
X1488273Y215829D01*
X1488060Y216078D01*
X1487848Y216327D01*
X1487847Y216327D01*
X1487635Y216577D01*
X1487422Y216826D01*
X1487209Y217075D01*
X1486783Y217574D01*
X1486570Y217823D01*
X1486537Y217862D01*
X1485123Y220170D01*
X1484087Y222670D01*
X1483455Y225303D01*
X1483241Y228021D01*
X1483239Y228027D01*
X1483240Y228034D01*
X1483214Y228092D01*
X1483191Y228151D01*
X1483186Y228156D01*
X1483183Y228162D01*
X1483130Y228197D01*
X1483079Y228235D01*
X1483072Y228235D01*
X1483066Y228239D01*
X1482993Y228250D01*
X1470493Y228250D01*
X1470476Y228245D01*
X1470459Y228248D01*
X1470410Y228226D01*
X1470358Y228211D01*
X1470347Y228198D01*
X1470331Y228191D01*
X1470302Y228146D01*
X1470266Y228106D01*
X1470264Y228089D01*
X1470254Y228075D01*
X1470243Y228001D01*
X1470243Y218001D01*
X1470245Y217996D01*
X1470244Y217983D01*
X1470549Y213714D01*
X1470553Y213705D01*
X1470554Y213679D01*
X1471464Y209496D01*
X1471469Y209488D01*
X1471474Y209462D01*
X1472970Y205451D01*
X1472976Y205444D01*
X1472985Y205419D01*
X1475036Y201662D01*
X1475043Y201655D01*
X1475055Y201632D01*
X1477621Y198206D01*
X1477628Y198200D01*
X1477644Y198179D01*
X1480671Y195152D01*
X1480679Y195148D01*
X1480697Y195129D01*
X1484124Y192564D01*
X1484133Y192560D01*
X1484154Y192545D01*
X1487911Y190493D01*
X1487920Y190491D01*
X1487943Y190479D01*
X1491954Y188983D01*
X1491963Y188982D01*
X1491988Y188973D01*
X1496170Y188063D01*
X1496180Y188063D01*
X1496205Y188058D01*
X1500475Y187752D01*
X1500484Y187754D01*
X1500510Y187752D01*
X1504780Y188058D01*
G37*
G36*
X604451Y188058D02*
X604451Y188058D01*
X604461Y188061D01*
X604487Y188063D01*
X608669Y188973D01*
X608678Y188977D01*
X608703Y188983D01*
X612714Y190479D01*
X612721Y190484D01*
X612746Y190493D01*
X616503Y192545D01*
X616510Y192552D01*
X616533Y192564D01*
X619959Y195129D01*
X619965Y195137D01*
X619986Y195152D01*
X623013Y198179D01*
X623018Y198187D01*
X623036Y198206D01*
X625601Y201632D01*
X625605Y201641D01*
X625621Y201662D01*
X627672Y205419D01*
X627674Y205429D01*
X627687Y205451D01*
X629183Y209462D01*
X629183Y209472D01*
X629193Y209496D01*
X630102Y213679D01*
X630102Y213688D01*
X630107Y213714D01*
X630413Y217983D01*
X630412Y217989D01*
X630413Y218001D01*
X630413Y228001D01*
X630409Y228017D01*
X630411Y228034D01*
X630389Y228084D01*
X630374Y228135D01*
X630361Y228146D01*
X630354Y228162D01*
X630309Y228192D01*
X630269Y228227D01*
X630252Y228230D01*
X630238Y228239D01*
X630164Y228250D01*
X617664Y228250D01*
X617657Y228248D01*
X617650Y228250D01*
X617591Y228229D01*
X617530Y228211D01*
X617525Y228206D01*
X617518Y228203D01*
X617480Y228153D01*
X617438Y228106D01*
X617437Y228099D01*
X617433Y228093D01*
X617416Y228021D01*
X617202Y225303D01*
X616570Y222670D01*
X615534Y220170D01*
X614120Y217862D01*
X612362Y215803D01*
X610304Y214045D01*
X607996Y212631D01*
X605495Y211595D01*
X602863Y210963D01*
X600164Y210751D01*
X597466Y210963D01*
X594834Y211595D01*
X592333Y212631D01*
X590025Y214045D01*
X587967Y215803D01*
X587945Y215829D01*
X587732Y216078D01*
X587519Y216327D01*
X587306Y216577D01*
X587093Y216826D01*
X586881Y217075D01*
X586880Y217075D01*
X586455Y217574D01*
X586242Y217823D01*
X586209Y217862D01*
X584794Y220170D01*
X583759Y222670D01*
X583127Y225303D01*
X582913Y228021D01*
X582910Y228027D01*
X582911Y228034D01*
X582885Y228092D01*
X582863Y228151D01*
X582857Y228156D01*
X582854Y228162D01*
X582802Y228197D01*
X582751Y228235D01*
X582744Y228235D01*
X582738Y228239D01*
X582664Y228250D01*
X570164Y228250D01*
X570148Y228245D01*
X570131Y228248D01*
X570082Y228226D01*
X570030Y228211D01*
X570019Y228198D01*
X570003Y228191D01*
X569973Y228146D01*
X569938Y228106D01*
X569935Y228089D01*
X569926Y228075D01*
X569915Y228001D01*
X569915Y218001D01*
X569917Y217996D01*
X569916Y217983D01*
X570221Y213714D01*
X570224Y213705D01*
X570226Y213679D01*
X571136Y209496D01*
X571141Y209488D01*
X571146Y209462D01*
X572642Y205451D01*
X572647Y205444D01*
X572656Y205419D01*
X574708Y201662D01*
X574715Y201655D01*
X574727Y201632D01*
X577292Y198206D01*
X577300Y198200D01*
X577315Y198179D01*
X580342Y195152D01*
X580351Y195148D01*
X580369Y195129D01*
X583796Y192564D01*
X583805Y192560D01*
X583826Y192545D01*
X587582Y190493D01*
X587592Y190491D01*
X587615Y190479D01*
X591625Y188983D01*
X591635Y188982D01*
X591659Y188973D01*
X595842Y188063D01*
X595851Y188063D01*
X595877Y188058D01*
X600146Y187752D01*
X600156Y187754D01*
X600182Y187752D01*
X604451Y188058D01*
G37*
G36*
X1054616Y188058D02*
X1054616Y188058D01*
X1054625Y188061D01*
X1054651Y188063D01*
X1058833Y188973D01*
X1058842Y188977D01*
X1058867Y188983D01*
X1062878Y190479D01*
X1062886Y190484D01*
X1062910Y190493D01*
X1066667Y192545D01*
X1066674Y192552D01*
X1066697Y192564D01*
X1070124Y195129D01*
X1070129Y195137D01*
X1070150Y195152D01*
X1073177Y198179D01*
X1073182Y198187D01*
X1073200Y198206D01*
X1075766Y201632D01*
X1075769Y201641D01*
X1075785Y201662D01*
X1077836Y205419D01*
X1077838Y205429D01*
X1077851Y205451D01*
X1079347Y209462D01*
X1079347Y209472D01*
X1079357Y209496D01*
X1080267Y213679D01*
X1080266Y213688D01*
X1080272Y213714D01*
X1080577Y217983D01*
X1080576Y217989D01*
X1080578Y218001D01*
X1080578Y228001D01*
X1080573Y228017D01*
X1080575Y228034D01*
X1080554Y228084D01*
X1080538Y228135D01*
X1080526Y228146D01*
X1080519Y228162D01*
X1080474Y228192D01*
X1080433Y228227D01*
X1080416Y228230D01*
X1080402Y228239D01*
X1080328Y228250D01*
X1067828Y228250D01*
X1067821Y228248D01*
X1067814Y228250D01*
X1067755Y228229D01*
X1067694Y228211D01*
X1067689Y228206D01*
X1067683Y228203D01*
X1067644Y228153D01*
X1067602Y228106D01*
X1067601Y228099D01*
X1067597Y228093D01*
X1067580Y228021D01*
X1067366Y225303D01*
X1066734Y222670D01*
X1065698Y220170D01*
X1064284Y217862D01*
X1062526Y215803D01*
X1060468Y214045D01*
X1058160Y212631D01*
X1055659Y211595D01*
X1053027Y210963D01*
X1050328Y210751D01*
X1047630Y210963D01*
X1044998Y211595D01*
X1042497Y212631D01*
X1040189Y214045D01*
X1038131Y215803D01*
X1038109Y215829D01*
X1037896Y216078D01*
X1037683Y216327D01*
X1037470Y216577D01*
X1037258Y216826D01*
X1037045Y217075D01*
X1036619Y217574D01*
X1036406Y217823D01*
X1036373Y217862D01*
X1034959Y220170D01*
X1033923Y222670D01*
X1033291Y225303D01*
X1033077Y228021D01*
X1033074Y228027D01*
X1033075Y228034D01*
X1033050Y228092D01*
X1033027Y228151D01*
X1033022Y228156D01*
X1033019Y228162D01*
X1032966Y228197D01*
X1032915Y228235D01*
X1032908Y228235D01*
X1032902Y228239D01*
X1032828Y228250D01*
X1020328Y228250D01*
X1020312Y228245D01*
X1020295Y228248D01*
X1020246Y228226D01*
X1020194Y228211D01*
X1020183Y228198D01*
X1020167Y228191D01*
X1020138Y228146D01*
X1020102Y228106D01*
X1020100Y228089D01*
X1020090Y228075D01*
X1020079Y228001D01*
X1020079Y218001D01*
X1020081Y217996D01*
X1020080Y217983D01*
X1020385Y213714D01*
X1020389Y213705D01*
X1020390Y213679D01*
X1021300Y209496D01*
X1021305Y209488D01*
X1021310Y209462D01*
X1022806Y205451D01*
X1022812Y205444D01*
X1022821Y205419D01*
X1024872Y201662D01*
X1024879Y201655D01*
X1024891Y201632D01*
X1027456Y198206D01*
X1027464Y198200D01*
X1027480Y198179D01*
X1030506Y195152D01*
X1030515Y195148D01*
X1030533Y195129D01*
X1033960Y192564D01*
X1033969Y192560D01*
X1033990Y192545D01*
X1037747Y190493D01*
X1037756Y190491D01*
X1037779Y190479D01*
X1041789Y188983D01*
X1041799Y188982D01*
X1041823Y188973D01*
X1046006Y188063D01*
X1046016Y188063D01*
X1046041Y188058D01*
X1050311Y187752D01*
X1050320Y187754D01*
X1050346Y187752D01*
X1054616Y188058D01*
G37*
G36*
X829521Y188058D02*
X829521Y188058D01*
X829530Y188061D01*
X829556Y188063D01*
X833739Y188973D01*
X833747Y188977D01*
X833773Y188983D01*
X837783Y190479D01*
X837791Y190484D01*
X837816Y190493D01*
X841572Y192545D01*
X841579Y192552D01*
X841602Y192564D01*
X845029Y195129D01*
X845035Y195137D01*
X845056Y195152D01*
X848082Y198179D01*
X848087Y198187D01*
X848106Y198206D01*
X850671Y201632D01*
X850674Y201641D01*
X850690Y201662D01*
X852741Y205419D01*
X852743Y205429D01*
X852756Y205451D01*
X854252Y209462D01*
X854253Y209472D01*
X854262Y209496D01*
X855172Y213679D01*
X855171Y213688D01*
X855177Y213714D01*
X855482Y217983D01*
X855481Y217989D01*
X855483Y218001D01*
X855483Y228001D01*
X855478Y228017D01*
X855481Y228034D01*
X855459Y228084D01*
X855444Y228135D01*
X855431Y228146D01*
X855424Y228162D01*
X855379Y228192D01*
X855338Y228227D01*
X855321Y228230D01*
X855307Y228239D01*
X855234Y228250D01*
X842734Y228250D01*
X842727Y228248D01*
X842720Y228250D01*
X842660Y228229D01*
X842599Y228211D01*
X842595Y228206D01*
X842588Y228203D01*
X842549Y228153D01*
X842507Y228106D01*
X842506Y228099D01*
X842502Y228093D01*
X842485Y228021D01*
X842271Y225303D01*
X841639Y222670D01*
X840603Y220170D01*
X839189Y217862D01*
X837431Y215803D01*
X835373Y214045D01*
X833065Y212631D01*
X830564Y211595D01*
X827932Y210963D01*
X825234Y210751D01*
X822535Y210963D01*
X819903Y211595D01*
X817402Y212631D01*
X815094Y214045D01*
X813036Y215803D01*
X813014Y215829D01*
X812801Y216078D01*
X812589Y216327D01*
X812588Y216327D01*
X812376Y216577D01*
X812163Y216826D01*
X811950Y217075D01*
X811524Y217574D01*
X811311Y217823D01*
X811278Y217862D01*
X809864Y220170D01*
X808828Y222670D01*
X808196Y225303D01*
X807982Y228021D01*
X807980Y228027D01*
X807981Y228034D01*
X807955Y228092D01*
X807932Y228151D01*
X807927Y228156D01*
X807924Y228162D01*
X807871Y228197D01*
X807820Y228235D01*
X807813Y228235D01*
X807807Y228239D01*
X807734Y228250D01*
X795234Y228250D01*
X795217Y228245D01*
X795200Y228248D01*
X795151Y228226D01*
X795099Y228211D01*
X795088Y228198D01*
X795072Y228191D01*
X795043Y228146D01*
X795007Y228106D01*
X795005Y228089D01*
X794995Y228075D01*
X794984Y228001D01*
X794984Y218001D01*
X794986Y217996D01*
X794985Y217983D01*
X795290Y213714D01*
X795294Y213705D01*
X795295Y213679D01*
X796205Y209496D01*
X796210Y209488D01*
X796215Y209462D01*
X797711Y205451D01*
X797717Y205444D01*
X797726Y205419D01*
X799777Y201662D01*
X799784Y201655D01*
X799796Y201632D01*
X802362Y198206D01*
X802369Y198200D01*
X802385Y198179D01*
X805412Y195152D01*
X805420Y195148D01*
X805438Y195129D01*
X808865Y192564D01*
X808874Y192560D01*
X808895Y192545D01*
X812652Y190493D01*
X812661Y190491D01*
X812684Y190479D01*
X816695Y188983D01*
X816704Y188982D01*
X816729Y188973D01*
X820911Y188063D01*
X820921Y188063D01*
X820946Y188058D01*
X825216Y187752D01*
X825225Y187754D01*
X825251Y187752D01*
X829521Y188058D01*
G37*
G36*
X1279685Y188058D02*
X1279685Y188058D01*
X1279694Y188061D01*
X1279720Y188063D01*
X1283903Y188973D01*
X1283911Y188977D01*
X1283937Y188983D01*
X1287947Y190479D01*
X1287955Y190484D01*
X1287980Y190493D01*
X1291737Y192545D01*
X1291743Y192552D01*
X1291766Y192564D01*
X1295193Y195129D01*
X1295199Y195137D01*
X1295220Y195152D01*
X1298247Y198179D01*
X1298251Y198187D01*
X1298270Y198206D01*
X1300835Y201632D01*
X1300838Y201641D01*
X1300854Y201662D01*
X1302906Y205419D01*
X1302908Y205429D01*
X1302920Y205451D01*
X1304416Y209462D01*
X1304417Y209472D01*
X1304426Y209496D01*
X1305336Y213679D01*
X1305335Y213688D01*
X1305341Y213714D01*
X1305646Y217983D01*
X1305645Y217989D01*
X1305647Y218001D01*
X1305647Y228001D01*
X1305642Y228017D01*
X1305645Y228034D01*
X1305623Y228084D01*
X1305608Y228135D01*
X1305595Y228146D01*
X1305588Y228162D01*
X1305543Y228192D01*
X1305503Y228227D01*
X1305486Y228230D01*
X1305471Y228239D01*
X1305398Y228250D01*
X1292898Y228250D01*
X1292891Y228248D01*
X1292884Y228250D01*
X1292825Y228229D01*
X1292764Y228211D01*
X1292759Y228206D01*
X1292752Y228203D01*
X1292713Y228153D01*
X1292672Y228106D01*
X1292671Y228099D01*
X1292666Y228093D01*
X1292649Y228021D01*
X1292435Y225303D01*
X1291804Y222670D01*
X1290768Y220170D01*
X1289353Y217862D01*
X1287595Y215803D01*
X1285537Y214045D01*
X1283229Y212631D01*
X1280728Y211595D01*
X1278096Y210963D01*
X1275398Y210751D01*
X1272699Y210963D01*
X1270067Y211595D01*
X1267566Y212631D01*
X1265259Y214045D01*
X1263200Y215803D01*
X1263179Y215829D01*
X1263178Y215829D01*
X1262966Y216078D01*
X1262753Y216327D01*
X1262540Y216577D01*
X1262327Y216826D01*
X1262114Y217075D01*
X1261688Y217574D01*
X1261475Y217823D01*
X1261442Y217862D01*
X1260028Y220170D01*
X1258992Y222670D01*
X1258360Y225303D01*
X1258146Y228021D01*
X1258144Y228027D01*
X1258145Y228034D01*
X1258119Y228092D01*
X1258097Y228151D01*
X1258091Y228156D01*
X1258088Y228162D01*
X1258035Y228197D01*
X1257985Y228235D01*
X1257977Y228235D01*
X1257971Y228239D01*
X1257898Y228250D01*
X1245398Y228250D01*
X1245381Y228245D01*
X1245364Y228248D01*
X1245315Y228226D01*
X1245264Y228211D01*
X1245252Y228198D01*
X1245237Y228191D01*
X1245207Y228146D01*
X1245172Y228106D01*
X1245169Y228089D01*
X1245160Y228075D01*
X1245149Y228001D01*
X1245149Y218001D01*
X1245150Y217996D01*
X1245149Y217983D01*
X1245455Y213714D01*
X1245458Y213705D01*
X1245460Y213679D01*
X1246369Y209496D01*
X1246374Y209488D01*
X1246380Y209462D01*
X1247875Y205451D01*
X1247881Y205444D01*
X1247890Y205419D01*
X1249941Y201662D01*
X1249948Y201655D01*
X1249961Y201632D01*
X1252526Y198206D01*
X1252534Y198200D01*
X1252549Y198179D01*
X1255576Y195152D01*
X1255584Y195148D01*
X1255603Y195129D01*
X1259029Y192564D01*
X1259038Y192560D01*
X1259059Y192545D01*
X1262816Y190493D01*
X1262825Y190491D01*
X1262848Y190479D01*
X1266859Y188983D01*
X1266868Y188982D01*
X1266893Y188973D01*
X1271075Y188063D01*
X1271085Y188063D01*
X1271111Y188058D01*
X1275380Y187752D01*
X1275390Y187754D01*
X1275416Y187752D01*
X1279685Y188058D01*
G37*
G36*
X379357Y188058D02*
X379357Y188058D01*
X379366Y188061D01*
X379392Y188063D01*
X383574Y188973D01*
X383583Y188977D01*
X383608Y188983D01*
X387619Y190479D01*
X387627Y190484D01*
X387651Y190493D01*
X391408Y192545D01*
X391415Y192552D01*
X391438Y192564D01*
X394865Y195129D01*
X394870Y195137D01*
X394891Y195152D01*
X397918Y198179D01*
X397923Y198187D01*
X397941Y198206D01*
X400507Y201632D01*
X400510Y201641D01*
X400526Y201662D01*
X402577Y205419D01*
X402579Y205429D01*
X402592Y205451D01*
X404088Y209462D01*
X404088Y209472D01*
X404098Y209496D01*
X405008Y213679D01*
X405007Y213688D01*
X405013Y213714D01*
X405318Y217983D01*
X405317Y217989D01*
X405319Y218001D01*
X405319Y228001D01*
X405314Y228017D01*
X405316Y228034D01*
X405295Y228084D01*
X405279Y228135D01*
X405267Y228146D01*
X405260Y228162D01*
X405215Y228192D01*
X405174Y228227D01*
X405157Y228230D01*
X405143Y228239D01*
X405069Y228250D01*
X392569Y228250D01*
X392562Y228248D01*
X392555Y228250D01*
X392496Y228229D01*
X392435Y228211D01*
X392430Y228206D01*
X392424Y228203D01*
X392385Y228153D01*
X392343Y228106D01*
X392342Y228099D01*
X392338Y228093D01*
X392321Y228021D01*
X392107Y225303D01*
X391475Y222670D01*
X390439Y220170D01*
X389025Y217862D01*
X387267Y215803D01*
X385209Y214045D01*
X382901Y212631D01*
X380400Y211595D01*
X377768Y210963D01*
X375069Y210751D01*
X372371Y210963D01*
X369739Y211595D01*
X367238Y212631D01*
X364930Y214045D01*
X362872Y215803D01*
X362850Y215829D01*
X362637Y216078D01*
X362424Y216327D01*
X362211Y216577D01*
X361999Y216826D01*
X361786Y217075D01*
X361360Y217574D01*
X361147Y217823D01*
X361114Y217862D01*
X359700Y220170D01*
X358664Y222670D01*
X358032Y225303D01*
X357818Y228021D01*
X357815Y228027D01*
X357816Y228034D01*
X357791Y228092D01*
X357768Y228151D01*
X357763Y228156D01*
X357760Y228162D01*
X357707Y228197D01*
X357656Y228235D01*
X357649Y228235D01*
X357643Y228239D01*
X357569Y228250D01*
X345069Y228250D01*
X345053Y228245D01*
X345036Y228248D01*
X344987Y228226D01*
X344935Y228211D01*
X344924Y228198D01*
X344908Y228191D01*
X344879Y228146D01*
X344843Y228106D01*
X344841Y228089D01*
X344831Y228075D01*
X344820Y228001D01*
X344820Y218001D01*
X344822Y217996D01*
X344821Y217983D01*
X345126Y213714D01*
X345130Y213705D01*
X345131Y213679D01*
X346041Y209496D01*
X346046Y209488D01*
X346051Y209462D01*
X347547Y205451D01*
X347553Y205444D01*
X347562Y205419D01*
X349613Y201662D01*
X349620Y201655D01*
X349632Y201632D01*
X352197Y198206D01*
X352205Y198200D01*
X352221Y198179D01*
X355247Y195152D01*
X355256Y195148D01*
X355274Y195129D01*
X358701Y192564D01*
X358710Y192560D01*
X358731Y192545D01*
X362488Y190493D01*
X362497Y190491D01*
X362520Y190479D01*
X366530Y188983D01*
X366540Y188982D01*
X366564Y188973D01*
X370747Y188063D01*
X370757Y188063D01*
X370782Y188058D01*
X375052Y187752D01*
X375061Y187754D01*
X375087Y187752D01*
X379357Y188058D01*
G37*
G36*
X154287Y188058D02*
X154287Y188058D01*
X154296Y188061D01*
X154322Y188063D01*
X158505Y188973D01*
X158513Y188977D01*
X158539Y188983D01*
X162550Y190479D01*
X162557Y190484D01*
X162582Y190493D01*
X166339Y192545D01*
X166346Y192552D01*
X166369Y192564D01*
X169795Y195129D01*
X169801Y195137D01*
X169822Y195152D01*
X172849Y198179D01*
X172853Y198187D01*
X172872Y198206D01*
X175437Y201632D01*
X175441Y201641D01*
X175456Y201662D01*
X177508Y205419D01*
X177510Y205429D01*
X177523Y205451D01*
X179018Y209462D01*
X179019Y209472D01*
X179028Y209496D01*
X179938Y213679D01*
X179938Y213688D01*
X179943Y213714D01*
X180249Y217983D01*
X180247Y217989D01*
X180249Y218001D01*
X180249Y228001D01*
X180244Y228017D01*
X180247Y228034D01*
X180225Y228084D01*
X180210Y228135D01*
X180197Y228146D01*
X180190Y228162D01*
X180145Y228192D01*
X180105Y228227D01*
X180088Y228230D01*
X180074Y228239D01*
X180000Y228250D01*
X167500Y228250D01*
X167493Y228248D01*
X167486Y228250D01*
X167427Y228229D01*
X167366Y228211D01*
X167361Y228206D01*
X167354Y228203D01*
X167316Y228153D01*
X167274Y228106D01*
X167273Y228099D01*
X167268Y228093D01*
X167252Y228021D01*
X167038Y225303D01*
X166406Y222670D01*
X165370Y220170D01*
X163956Y217862D01*
X162198Y215803D01*
X160139Y214045D01*
X157831Y212631D01*
X155331Y211595D01*
X152698Y210963D01*
X150000Y210751D01*
X147302Y210963D01*
X144669Y211595D01*
X142169Y212631D01*
X139861Y214045D01*
X137802Y215803D01*
X137781Y215829D01*
X137568Y216078D01*
X137355Y216327D01*
X137142Y216577D01*
X136929Y216826D01*
X136716Y217075D01*
X136291Y217574D01*
X136290Y217574D01*
X136078Y217823D01*
X136044Y217862D01*
X134630Y220170D01*
X133594Y222670D01*
X132962Y225303D01*
X132748Y228021D01*
X132746Y228027D01*
X132747Y228034D01*
X132721Y228092D01*
X132699Y228151D01*
X132693Y228156D01*
X132690Y228162D01*
X132637Y228197D01*
X132587Y228235D01*
X132580Y228235D01*
X132574Y228239D01*
X132500Y228250D01*
X120000Y228250D01*
X119984Y228245D01*
X119967Y228248D01*
X119917Y228226D01*
X119866Y228211D01*
X119855Y228198D01*
X119839Y228191D01*
X119809Y228146D01*
X119774Y228106D01*
X119771Y228089D01*
X119762Y228075D01*
X119751Y228001D01*
X119751Y218001D01*
X119752Y217996D01*
X119751Y217983D01*
X120057Y213714D01*
X120060Y213705D01*
X120062Y213679D01*
X120972Y209496D01*
X120976Y209488D01*
X120982Y209462D01*
X122478Y205451D01*
X122483Y205444D01*
X122492Y205419D01*
X124544Y201662D01*
X124551Y201655D01*
X124563Y201632D01*
X127128Y198206D01*
X127136Y198200D01*
X127151Y198179D01*
X130178Y195152D01*
X130186Y195148D01*
X130205Y195129D01*
X133631Y192564D01*
X133640Y192560D01*
X133661Y192545D01*
X137418Y190493D01*
X137428Y190491D01*
X137450Y190479D01*
X141461Y188983D01*
X141471Y188982D01*
X141495Y188973D01*
X145678Y188063D01*
X145687Y188063D01*
X145713Y188058D01*
X149982Y187752D01*
X149992Y187754D01*
X150018Y187752D01*
X154287Y188058D01*
G37*
G36*
X502661Y470252D02*
X502661Y470252D01*
X502668Y470250D01*
X502727Y470271D01*
X502788Y470289D01*
X502793Y470294D01*
X502799Y470297D01*
X502838Y470347D01*
X502880Y470394D01*
X502881Y470401D01*
X502885Y470407D01*
X502902Y470479D01*
X503116Y473197D01*
X503748Y475830D01*
X504784Y478330D01*
X506198Y480638D01*
X507956Y482697D01*
X510014Y484455D01*
X512322Y485869D01*
X514823Y486905D01*
X517455Y487537D01*
X520154Y487749D01*
X522852Y487537D01*
X525484Y486905D01*
X527985Y485869D01*
X530293Y484455D01*
X532351Y482697D01*
X532475Y482551D01*
X532688Y482302D01*
X533114Y481803D01*
X533327Y481554D01*
X533540Y481305D01*
X533753Y481056D01*
X533966Y480806D01*
X534109Y480638D01*
X535523Y478330D01*
X536559Y475830D01*
X537191Y473197D01*
X537405Y470479D01*
X537408Y470473D01*
X537407Y470466D01*
X537432Y470408D01*
X537455Y470349D01*
X537461Y470344D01*
X537463Y470338D01*
X537516Y470303D01*
X537567Y470265D01*
X537574Y470265D01*
X537580Y470261D01*
X537654Y470250D01*
X550154Y470250D01*
X550170Y470255D01*
X550187Y470252D01*
X550236Y470274D01*
X550288Y470289D01*
X550299Y470302D01*
X550315Y470309D01*
X550344Y470354D01*
X550380Y470394D01*
X550382Y470411D01*
X550392Y470426D01*
X550403Y470499D01*
X550403Y480499D01*
X550401Y480504D01*
X550402Y480517D01*
X550097Y484786D01*
X550094Y484795D01*
X550092Y484821D01*
X549182Y489004D01*
X549177Y489012D01*
X549172Y489038D01*
X547676Y493049D01*
X547670Y493056D01*
X547661Y493081D01*
X545610Y496838D01*
X545603Y496845D01*
X545591Y496868D01*
X543026Y500294D01*
X543018Y500300D01*
X543002Y500321D01*
X539976Y503348D01*
X539967Y503352D01*
X539949Y503371D01*
X536522Y505936D01*
X536513Y505940D01*
X536492Y505955D01*
X532736Y508007D01*
X532726Y508009D01*
X532703Y508022D01*
X528693Y509517D01*
X528683Y509518D01*
X528659Y509527D01*
X524476Y510437D01*
X524466Y510437D01*
X524441Y510442D01*
X520171Y510748D01*
X520162Y510746D01*
X520136Y510748D01*
X515866Y510442D01*
X515857Y510439D01*
X515831Y510437D01*
X511649Y509527D01*
X511640Y509523D01*
X511615Y509517D01*
X507604Y508022D01*
X507596Y508016D01*
X507572Y508007D01*
X503815Y505955D01*
X503808Y505949D01*
X503785Y505936D01*
X500358Y503371D01*
X500353Y503363D01*
X500332Y503348D01*
X497305Y500321D01*
X497300Y500313D01*
X497282Y500294D01*
X494716Y496868D01*
X494713Y496859D01*
X494697Y496838D01*
X492646Y493081D01*
X492644Y493071D01*
X492631Y493049D01*
X491135Y489038D01*
X491135Y489028D01*
X491125Y489004D01*
X490215Y484821D01*
X490216Y484812D01*
X490210Y484786D01*
X489905Y480517D01*
X489906Y480511D01*
X489904Y480499D01*
X489904Y470499D01*
X489909Y470483D01*
X489907Y470466D01*
X489928Y470416D01*
X489944Y470365D01*
X489956Y470354D01*
X489963Y470338D01*
X490008Y470308D01*
X490049Y470273D01*
X490066Y470270D01*
X490080Y470261D01*
X490154Y470250D01*
X502654Y470250D01*
X502661Y470252D01*
G37*
G36*
X1177920Y470252D02*
X1177920Y470252D01*
X1177927Y470250D01*
X1177986Y470271D01*
X1178047Y470289D01*
X1178052Y470294D01*
X1178058Y470297D01*
X1178097Y470347D01*
X1178139Y470394D01*
X1178140Y470401D01*
X1178144Y470407D01*
X1178161Y470479D01*
X1178375Y473197D01*
X1179007Y475830D01*
X1180043Y478330D01*
X1181457Y480638D01*
X1183215Y482697D01*
X1185273Y484455D01*
X1187581Y485869D01*
X1190082Y486905D01*
X1192714Y487537D01*
X1195413Y487749D01*
X1198111Y487537D01*
X1200743Y486905D01*
X1203244Y485869D01*
X1205552Y484455D01*
X1207610Y482697D01*
X1207734Y482551D01*
X1207947Y482302D01*
X1208373Y481803D01*
X1208586Y481554D01*
X1208799Y481305D01*
X1209012Y481056D01*
X1209225Y480806D01*
X1209368Y480638D01*
X1210782Y478330D01*
X1211818Y475830D01*
X1212450Y473197D01*
X1212664Y470479D01*
X1212667Y470473D01*
X1212666Y470466D01*
X1212691Y470408D01*
X1212714Y470349D01*
X1212720Y470344D01*
X1212722Y470338D01*
X1212775Y470303D01*
X1212826Y470265D01*
X1212833Y470265D01*
X1212839Y470261D01*
X1212913Y470250D01*
X1225413Y470250D01*
X1225429Y470255D01*
X1225446Y470252D01*
X1225495Y470274D01*
X1225547Y470289D01*
X1225558Y470302D01*
X1225574Y470309D01*
X1225603Y470354D01*
X1225639Y470394D01*
X1225641Y470411D01*
X1225651Y470426D01*
X1225662Y470499D01*
X1225662Y480499D01*
X1225660Y480504D01*
X1225661Y480517D01*
X1225356Y484786D01*
X1225353Y484795D01*
X1225351Y484821D01*
X1224441Y489004D01*
X1224436Y489012D01*
X1224431Y489038D01*
X1222935Y493049D01*
X1222929Y493056D01*
X1222920Y493081D01*
X1220869Y496838D01*
X1220862Y496845D01*
X1220850Y496868D01*
X1218285Y500294D01*
X1218277Y500300D01*
X1218261Y500321D01*
X1215235Y503348D01*
X1215226Y503352D01*
X1215208Y503371D01*
X1211781Y505936D01*
X1211772Y505940D01*
X1211751Y505955D01*
X1207995Y508007D01*
X1207985Y508009D01*
X1207962Y508022D01*
X1203952Y509517D01*
X1203942Y509518D01*
X1203918Y509527D01*
X1199735Y510437D01*
X1199725Y510437D01*
X1199700Y510442D01*
X1195430Y510748D01*
X1195421Y510746D01*
X1195395Y510748D01*
X1191125Y510442D01*
X1191116Y510439D01*
X1191090Y510437D01*
X1186908Y509527D01*
X1186899Y509523D01*
X1186874Y509517D01*
X1182863Y508022D01*
X1182855Y508016D01*
X1182831Y508007D01*
X1179074Y505955D01*
X1179067Y505949D01*
X1179044Y505936D01*
X1175617Y503371D01*
X1175612Y503363D01*
X1175591Y503348D01*
X1172564Y500321D01*
X1172559Y500313D01*
X1172541Y500294D01*
X1169975Y496868D01*
X1169972Y496859D01*
X1169956Y496838D01*
X1167905Y493081D01*
X1167903Y493071D01*
X1167890Y493049D01*
X1166394Y489038D01*
X1166394Y489028D01*
X1166384Y489004D01*
X1165474Y484821D01*
X1165475Y484812D01*
X1165469Y484786D01*
X1165164Y480517D01*
X1165165Y480511D01*
X1165163Y480499D01*
X1165163Y470499D01*
X1165168Y470483D01*
X1165166Y470466D01*
X1165187Y470416D01*
X1165203Y470365D01*
X1165215Y470354D01*
X1165222Y470338D01*
X1165267Y470308D01*
X1165308Y470273D01*
X1165325Y470270D01*
X1165339Y470261D01*
X1165413Y470250D01*
X1177913Y470250D01*
X1177920Y470252D01*
G37*
G36*
X727755Y470252D02*
X727755Y470252D01*
X727762Y470250D01*
X727822Y470271D01*
X727883Y470289D01*
X727887Y470294D01*
X727894Y470297D01*
X727933Y470347D01*
X727975Y470394D01*
X727976Y470401D01*
X727980Y470407D01*
X727997Y470479D01*
X728211Y473197D01*
X728843Y475830D01*
X729879Y478330D01*
X731293Y480638D01*
X733051Y482697D01*
X735109Y484455D01*
X737417Y485869D01*
X739918Y486905D01*
X742550Y487537D01*
X745248Y487749D01*
X747947Y487537D01*
X750579Y486905D01*
X753080Y485869D01*
X755388Y484455D01*
X757446Y482697D01*
X757570Y482551D01*
X757783Y482302D01*
X758209Y481803D01*
X758422Y481554D01*
X758635Y481305D01*
X758847Y481056D01*
X758848Y481056D01*
X759060Y480806D01*
X759204Y480638D01*
X760618Y478330D01*
X761654Y475830D01*
X762286Y473197D01*
X762500Y470479D01*
X762503Y470473D01*
X762501Y470466D01*
X762527Y470408D01*
X762550Y470349D01*
X762555Y470344D01*
X762558Y470338D01*
X762611Y470303D01*
X762662Y470265D01*
X762669Y470265D01*
X762675Y470261D01*
X762748Y470250D01*
X775248Y470250D01*
X775265Y470255D01*
X775282Y470252D01*
X775331Y470274D01*
X775383Y470289D01*
X775394Y470302D01*
X775410Y470309D01*
X775439Y470354D01*
X775475Y470394D01*
X775477Y470411D01*
X775487Y470426D01*
X775498Y470499D01*
X775498Y480499D01*
X775496Y480504D01*
X775497Y480517D01*
X775192Y484786D01*
X775188Y484795D01*
X775187Y484821D01*
X774277Y489004D01*
X774272Y489012D01*
X774267Y489038D01*
X772771Y493049D01*
X772765Y493056D01*
X772756Y493081D01*
X770705Y496838D01*
X770698Y496845D01*
X770686Y496868D01*
X768120Y500294D01*
X768113Y500300D01*
X768097Y500321D01*
X765070Y503348D01*
X765062Y503352D01*
X765044Y503371D01*
X761617Y505936D01*
X761608Y505940D01*
X761587Y505955D01*
X757830Y508007D01*
X757821Y508009D01*
X757798Y508022D01*
X753787Y509517D01*
X753778Y509518D01*
X753753Y509527D01*
X749571Y510437D01*
X749561Y510437D01*
X749536Y510442D01*
X745266Y510748D01*
X745257Y510746D01*
X745231Y510748D01*
X740961Y510442D01*
X740952Y510439D01*
X740926Y510437D01*
X736743Y509527D01*
X736735Y509523D01*
X736709Y509517D01*
X732699Y508022D01*
X732691Y508016D01*
X732667Y508007D01*
X728910Y505955D01*
X728903Y505949D01*
X728880Y505936D01*
X725453Y503371D01*
X725447Y503363D01*
X725426Y503348D01*
X722400Y500321D01*
X722395Y500313D01*
X722376Y500294D01*
X719811Y496868D01*
X719808Y496859D01*
X719792Y496838D01*
X717741Y493081D01*
X717739Y493071D01*
X717726Y493049D01*
X716230Y489038D01*
X716229Y489028D01*
X716220Y489004D01*
X715310Y484821D01*
X715311Y484812D01*
X715305Y484786D01*
X715000Y480517D01*
X715001Y480511D01*
X714999Y480499D01*
X714999Y470499D01*
X715004Y470483D01*
X715001Y470466D01*
X715023Y470416D01*
X715038Y470365D01*
X715051Y470354D01*
X715058Y470338D01*
X715103Y470308D01*
X715144Y470273D01*
X715161Y470270D01*
X715175Y470261D01*
X715248Y470250D01*
X727748Y470250D01*
X727755Y470252D01*
G37*
G36*
X52496Y470252D02*
X52496Y470252D01*
X52503Y470250D01*
X52563Y470271D01*
X52624Y470289D01*
X52628Y470294D01*
X52635Y470297D01*
X52674Y470347D01*
X52716Y470394D01*
X52717Y470401D01*
X52721Y470407D01*
X52738Y470479D01*
X52952Y473197D01*
X53584Y475830D01*
X54620Y478330D01*
X56034Y480638D01*
X57792Y482697D01*
X59850Y484455D01*
X62158Y485869D01*
X64659Y486905D01*
X67291Y487537D01*
X69989Y487749D01*
X72688Y487537D01*
X75320Y486905D01*
X77821Y485869D01*
X80129Y484455D01*
X82187Y482697D01*
X82311Y482551D01*
X82524Y482302D01*
X82950Y481803D01*
X83163Y481554D01*
X83376Y481305D01*
X83588Y481056D01*
X83589Y481056D01*
X83801Y480806D01*
X83945Y480638D01*
X85359Y478330D01*
X86395Y475830D01*
X87027Y473197D01*
X87241Y470479D01*
X87244Y470473D01*
X87242Y470466D01*
X87268Y470408D01*
X87291Y470349D01*
X87296Y470344D01*
X87299Y470338D01*
X87352Y470303D01*
X87403Y470265D01*
X87410Y470265D01*
X87416Y470261D01*
X87489Y470250D01*
X99989Y470250D01*
X100006Y470255D01*
X100023Y470252D01*
X100072Y470274D01*
X100124Y470289D01*
X100135Y470302D01*
X100151Y470309D01*
X100180Y470354D01*
X100216Y470394D01*
X100218Y470411D01*
X100228Y470426D01*
X100239Y470499D01*
X100239Y480499D01*
X100237Y480504D01*
X100238Y480517D01*
X99933Y484786D01*
X99929Y484795D01*
X99928Y484821D01*
X99018Y489004D01*
X99013Y489012D01*
X99008Y489038D01*
X97512Y493049D01*
X97506Y493056D01*
X97497Y493081D01*
X95446Y496838D01*
X95439Y496845D01*
X95427Y496868D01*
X92861Y500294D01*
X92854Y500300D01*
X92838Y500321D01*
X89811Y503348D01*
X89803Y503352D01*
X89785Y503371D01*
X86358Y505936D01*
X86349Y505940D01*
X86328Y505955D01*
X82571Y508007D01*
X82562Y508009D01*
X82539Y508022D01*
X78528Y509517D01*
X78519Y509518D01*
X78494Y509527D01*
X74312Y510437D01*
X74302Y510437D01*
X74277Y510442D01*
X70007Y510748D01*
X69998Y510746D01*
X69972Y510748D01*
X65702Y510442D01*
X65693Y510439D01*
X65667Y510437D01*
X61484Y509527D01*
X61476Y509523D01*
X61450Y509517D01*
X57440Y508022D01*
X57432Y508016D01*
X57408Y508007D01*
X53651Y505955D01*
X53644Y505949D01*
X53621Y505936D01*
X50194Y503371D01*
X50188Y503363D01*
X50167Y503348D01*
X47141Y500321D01*
X47136Y500313D01*
X47117Y500294D01*
X44552Y496868D01*
X44549Y496859D01*
X44533Y496838D01*
X42482Y493081D01*
X42480Y493071D01*
X42467Y493049D01*
X40971Y489038D01*
X40970Y489028D01*
X40961Y489004D01*
X40051Y484821D01*
X40052Y484812D01*
X40046Y484786D01*
X39741Y480517D01*
X39742Y480511D01*
X39740Y480499D01*
X39740Y470499D01*
X39745Y470483D01*
X39742Y470466D01*
X39764Y470416D01*
X39779Y470365D01*
X39792Y470354D01*
X39799Y470338D01*
X39844Y470308D01*
X39885Y470273D01*
X39902Y470270D01*
X39916Y470261D01*
X39989Y470250D01*
X52489Y470250D01*
X52496Y470252D01*
G37*
G36*
X1402989Y470252D02*
X1402989Y470252D01*
X1402996Y470250D01*
X1403055Y470271D01*
X1403116Y470289D01*
X1403121Y470294D01*
X1403128Y470297D01*
X1403167Y470347D01*
X1403208Y470394D01*
X1403209Y470401D01*
X1403214Y470407D01*
X1403230Y470479D01*
X1403444Y473197D01*
X1404076Y475830D01*
X1405112Y478330D01*
X1406526Y480638D01*
X1408284Y482697D01*
X1410343Y484455D01*
X1412651Y485869D01*
X1415151Y486905D01*
X1417784Y487537D01*
X1420482Y487749D01*
X1423180Y487537D01*
X1425813Y486905D01*
X1428313Y485869D01*
X1430621Y484455D01*
X1432680Y482697D01*
X1432804Y482551D01*
X1433017Y482302D01*
X1433442Y481803D01*
X1433443Y481803D01*
X1433655Y481554D01*
X1433868Y481305D01*
X1434081Y481056D01*
X1434294Y480806D01*
X1434438Y480638D01*
X1435852Y478330D01*
X1436888Y475830D01*
X1437520Y473197D01*
X1437734Y470479D01*
X1437736Y470473D01*
X1437735Y470466D01*
X1437761Y470408D01*
X1437783Y470349D01*
X1437789Y470344D01*
X1437792Y470338D01*
X1437845Y470303D01*
X1437895Y470265D01*
X1437903Y470265D01*
X1437909Y470261D01*
X1437982Y470250D01*
X1450482Y470250D01*
X1450498Y470255D01*
X1450515Y470252D01*
X1450565Y470274D01*
X1450616Y470289D01*
X1450627Y470302D01*
X1450643Y470309D01*
X1450673Y470354D01*
X1450708Y470394D01*
X1450711Y470411D01*
X1450720Y470426D01*
X1450731Y470499D01*
X1450731Y480499D01*
X1450730Y480504D01*
X1450731Y480517D01*
X1450425Y484786D01*
X1450422Y484795D01*
X1450420Y484821D01*
X1449510Y489004D01*
X1449506Y489012D01*
X1449500Y489038D01*
X1448005Y493049D01*
X1447999Y493056D01*
X1447990Y493081D01*
X1445938Y496838D01*
X1445932Y496845D01*
X1445919Y496868D01*
X1443354Y500294D01*
X1443346Y500300D01*
X1443331Y500321D01*
X1440304Y503348D01*
X1440296Y503352D01*
X1440277Y503371D01*
X1436851Y505936D01*
X1436842Y505940D01*
X1436821Y505955D01*
X1433064Y508007D01*
X1433054Y508009D01*
X1433032Y508022D01*
X1429021Y509517D01*
X1429011Y509518D01*
X1428987Y509527D01*
X1424804Y510437D01*
X1424795Y510437D01*
X1424769Y510442D01*
X1420500Y510748D01*
X1420490Y510746D01*
X1420464Y510748D01*
X1416195Y510442D01*
X1416186Y510439D01*
X1416160Y510437D01*
X1411977Y509527D01*
X1411969Y509523D01*
X1411943Y509517D01*
X1407932Y508022D01*
X1407925Y508016D01*
X1407900Y508007D01*
X1404143Y505955D01*
X1404136Y505949D01*
X1404113Y505936D01*
X1400687Y503371D01*
X1400681Y503363D01*
X1400660Y503348D01*
X1397633Y500321D01*
X1397629Y500313D01*
X1397610Y500294D01*
X1395045Y496868D01*
X1395041Y496859D01*
X1395026Y496838D01*
X1392974Y493081D01*
X1392972Y493071D01*
X1392960Y493049D01*
X1391464Y489038D01*
X1391463Y489028D01*
X1391454Y489004D01*
X1390544Y484821D01*
X1390544Y484812D01*
X1390539Y484786D01*
X1390233Y480517D01*
X1390235Y480511D01*
X1390233Y480499D01*
X1390233Y470499D01*
X1390238Y470483D01*
X1390235Y470466D01*
X1390257Y470416D01*
X1390272Y470365D01*
X1390285Y470354D01*
X1390292Y470338D01*
X1390337Y470308D01*
X1390377Y470273D01*
X1390394Y470270D01*
X1390409Y470261D01*
X1390482Y470250D01*
X1402982Y470250D01*
X1402989Y470252D01*
G37*
G36*
X277591Y470252D02*
X277591Y470252D01*
X277598Y470250D01*
X277657Y470271D01*
X277718Y470289D01*
X277723Y470294D01*
X277730Y470297D01*
X277769Y470347D01*
X277810Y470394D01*
X277811Y470401D01*
X277816Y470407D01*
X277833Y470479D01*
X278047Y473197D01*
X278679Y475830D01*
X279714Y478330D01*
X281129Y480638D01*
X282887Y482697D01*
X284945Y484455D01*
X287253Y485869D01*
X289754Y486905D01*
X292386Y487537D01*
X295084Y487749D01*
X297783Y487537D01*
X300415Y486905D01*
X302916Y485869D01*
X305224Y484455D01*
X307282Y482697D01*
X307406Y482551D01*
X307619Y482302D01*
X308045Y481803D01*
X308258Y481554D01*
X308470Y481305D01*
X308683Y481056D01*
X308896Y480806D01*
X309040Y480638D01*
X310454Y478330D01*
X311490Y475830D01*
X312122Y473197D01*
X312336Y470479D01*
X312338Y470473D01*
X312337Y470466D01*
X312363Y470408D01*
X312385Y470349D01*
X312391Y470344D01*
X312394Y470338D01*
X312447Y470303D01*
X312497Y470265D01*
X312505Y470265D01*
X312511Y470261D01*
X312584Y470250D01*
X325084Y470250D01*
X325101Y470255D01*
X325118Y470252D01*
X325167Y470274D01*
X325218Y470289D01*
X325230Y470302D01*
X325245Y470309D01*
X325275Y470354D01*
X325310Y470394D01*
X325313Y470411D01*
X325322Y470426D01*
X325333Y470499D01*
X325333Y480499D01*
X325332Y480504D01*
X325333Y480517D01*
X325027Y484786D01*
X325024Y484795D01*
X325022Y484821D01*
X324113Y489004D01*
X324108Y489012D01*
X324103Y489038D01*
X322607Y493049D01*
X322601Y493056D01*
X322592Y493081D01*
X320541Y496838D01*
X320534Y496845D01*
X320521Y496868D01*
X317956Y500294D01*
X317948Y500300D01*
X317933Y500321D01*
X314906Y503348D01*
X314898Y503352D01*
X314879Y503371D01*
X311453Y505936D01*
X311444Y505940D01*
X311423Y505955D01*
X307666Y508007D01*
X307657Y508009D01*
X307634Y508022D01*
X303623Y509517D01*
X303614Y509518D01*
X303589Y509527D01*
X299407Y510437D01*
X299397Y510437D01*
X299371Y510442D01*
X295102Y510748D01*
X295093Y510746D01*
X295066Y510748D01*
X290797Y510442D01*
X290788Y510439D01*
X290762Y510437D01*
X286579Y509527D01*
X286571Y509523D01*
X286545Y509517D01*
X282535Y508022D01*
X282527Y508016D01*
X282502Y508007D01*
X278746Y505955D01*
X278739Y505949D01*
X278716Y505936D01*
X275289Y503371D01*
X275283Y503363D01*
X275262Y503348D01*
X272235Y500321D01*
X272231Y500313D01*
X272212Y500294D01*
X269647Y496868D01*
X269644Y496859D01*
X269628Y496838D01*
X267576Y493081D01*
X267574Y493071D01*
X267562Y493049D01*
X266066Y489038D01*
X266065Y489028D01*
X266056Y489004D01*
X265146Y484821D01*
X265147Y484812D01*
X265141Y484786D01*
X264836Y480517D01*
X264837Y480511D01*
X264835Y480499D01*
X264835Y470499D01*
X264840Y470483D01*
X264837Y470466D01*
X264859Y470416D01*
X264874Y470365D01*
X264887Y470354D01*
X264894Y470338D01*
X264939Y470308D01*
X264979Y470273D01*
X264996Y470270D01*
X265011Y470261D01*
X265084Y470250D01*
X277584Y470250D01*
X277591Y470252D01*
G37*
G36*
X952825Y470252D02*
X952825Y470252D01*
X952832Y470250D01*
X952891Y470271D01*
X952952Y470289D01*
X952957Y470294D01*
X952964Y470297D01*
X953002Y470347D01*
X953044Y470394D01*
X953045Y470401D01*
X953049Y470407D01*
X953066Y470479D01*
X953280Y473197D01*
X953912Y475830D01*
X954948Y478330D01*
X956362Y480638D01*
X958120Y482697D01*
X960179Y484455D01*
X962486Y485869D01*
X964987Y486905D01*
X967619Y487537D01*
X970318Y487749D01*
X973016Y487537D01*
X975648Y486905D01*
X978149Y485869D01*
X980457Y484455D01*
X982515Y482697D01*
X982640Y482551D01*
X982852Y482302D01*
X982853Y482302D01*
X983278Y481803D01*
X983491Y481554D01*
X983704Y481305D01*
X983917Y481056D01*
X984130Y480806D01*
X984273Y480638D01*
X985688Y478330D01*
X986724Y475830D01*
X987355Y473197D01*
X987569Y470479D01*
X987572Y470473D01*
X987571Y470466D01*
X987597Y470408D01*
X987619Y470349D01*
X987625Y470344D01*
X987628Y470338D01*
X987680Y470303D01*
X987731Y470265D01*
X987738Y470265D01*
X987744Y470261D01*
X987818Y470250D01*
X1000318Y470250D01*
X1000334Y470255D01*
X1000351Y470252D01*
X1000400Y470274D01*
X1000452Y470289D01*
X1000463Y470302D01*
X1000479Y470309D01*
X1000509Y470354D01*
X1000544Y470394D01*
X1000547Y470411D01*
X1000556Y470426D01*
X1000567Y470499D01*
X1000567Y480499D01*
X1000565Y480504D01*
X1000566Y480517D01*
X1000261Y484786D01*
X1000258Y484795D01*
X1000256Y484821D01*
X999346Y489004D01*
X999342Y489012D01*
X999336Y489038D01*
X997840Y493049D01*
X997835Y493056D01*
X997826Y493081D01*
X995774Y496838D01*
X995767Y496845D01*
X995755Y496868D01*
X993190Y500294D01*
X993182Y500300D01*
X993167Y500321D01*
X990140Y503348D01*
X990131Y503352D01*
X990113Y503371D01*
X986686Y505936D01*
X986677Y505940D01*
X986657Y505955D01*
X982900Y508007D01*
X982890Y508009D01*
X982867Y508022D01*
X978857Y509517D01*
X978847Y509518D01*
X978823Y509527D01*
X974640Y510437D01*
X974631Y510437D01*
X974605Y510442D01*
X970336Y510748D01*
X970326Y510746D01*
X970300Y510748D01*
X966031Y510442D01*
X966022Y510439D01*
X965995Y510437D01*
X961813Y509527D01*
X961804Y509523D01*
X961779Y509517D01*
X957768Y508022D01*
X957761Y508016D01*
X957736Y508007D01*
X953979Y505955D01*
X953972Y505949D01*
X953949Y505936D01*
X950523Y503371D01*
X950517Y503363D01*
X950496Y503348D01*
X947469Y500321D01*
X947464Y500313D01*
X947446Y500294D01*
X944881Y496868D01*
X944877Y496859D01*
X944861Y496838D01*
X942810Y493081D01*
X942808Y493071D01*
X942795Y493049D01*
X941300Y489038D01*
X941299Y489028D01*
X941289Y489004D01*
X940380Y484821D01*
X940380Y484812D01*
X940375Y484786D01*
X940069Y480517D01*
X940070Y480511D01*
X940069Y480499D01*
X940069Y470499D01*
X940073Y470483D01*
X940071Y470466D01*
X940093Y470416D01*
X940108Y470365D01*
X940121Y470354D01*
X940128Y470338D01*
X940173Y470308D01*
X940213Y470273D01*
X940230Y470270D01*
X940244Y470261D01*
X940318Y470250D01*
X952818Y470250D01*
X952825Y470252D01*
G37*
G36*
X1628058Y470252D02*
X1628058Y470252D01*
X1628065Y470250D01*
X1628125Y470271D01*
X1628186Y470289D01*
X1628190Y470294D01*
X1628197Y470297D01*
X1628236Y470347D01*
X1628278Y470394D01*
X1628279Y470401D01*
X1628283Y470407D01*
X1628300Y470479D01*
X1628514Y473197D01*
X1629146Y475830D01*
X1630182Y478330D01*
X1631596Y480638D01*
X1633354Y482697D01*
X1635412Y484455D01*
X1637720Y485869D01*
X1640221Y486905D01*
X1642853Y487537D01*
X1645551Y487749D01*
X1648250Y487537D01*
X1650882Y486905D01*
X1653383Y485869D01*
X1655691Y484455D01*
X1657749Y482697D01*
X1657873Y482551D01*
X1658086Y482302D01*
X1658512Y481803D01*
X1658725Y481554D01*
X1658938Y481305D01*
X1659150Y481056D01*
X1659151Y481056D01*
X1659363Y480806D01*
X1659507Y480638D01*
X1660921Y478330D01*
X1661957Y475830D01*
X1662589Y473197D01*
X1662803Y470479D01*
X1662806Y470473D01*
X1662804Y470466D01*
X1662830Y470408D01*
X1662853Y470349D01*
X1662858Y470344D01*
X1662861Y470338D01*
X1662914Y470303D01*
X1662965Y470265D01*
X1662972Y470265D01*
X1662978Y470261D01*
X1663051Y470250D01*
X1675551Y470250D01*
X1675568Y470255D01*
X1675585Y470252D01*
X1675634Y470274D01*
X1675686Y470289D01*
X1675697Y470302D01*
X1675713Y470309D01*
X1675742Y470354D01*
X1675778Y470394D01*
X1675780Y470411D01*
X1675790Y470426D01*
X1675801Y470499D01*
X1675801Y480499D01*
X1675799Y480504D01*
X1675800Y480517D01*
X1675495Y484786D01*
X1675491Y484795D01*
X1675490Y484821D01*
X1674580Y489004D01*
X1674575Y489012D01*
X1674570Y489038D01*
X1673074Y493049D01*
X1673068Y493056D01*
X1673059Y493081D01*
X1671008Y496838D01*
X1671001Y496845D01*
X1670989Y496868D01*
X1668423Y500294D01*
X1668416Y500300D01*
X1668400Y500321D01*
X1665373Y503348D01*
X1665365Y503352D01*
X1665347Y503371D01*
X1661920Y505936D01*
X1661911Y505940D01*
X1661890Y505955D01*
X1658133Y508007D01*
X1658124Y508009D01*
X1658101Y508022D01*
X1654090Y509517D01*
X1654081Y509518D01*
X1654056Y509527D01*
X1649874Y510437D01*
X1649864Y510437D01*
X1649839Y510442D01*
X1645569Y510748D01*
X1645560Y510746D01*
X1645534Y510748D01*
X1641264Y510442D01*
X1641255Y510439D01*
X1641229Y510437D01*
X1637046Y509527D01*
X1637038Y509523D01*
X1637012Y509517D01*
X1633002Y508022D01*
X1632994Y508016D01*
X1632970Y508007D01*
X1629213Y505955D01*
X1629206Y505949D01*
X1629183Y505936D01*
X1625756Y503371D01*
X1625750Y503363D01*
X1625729Y503348D01*
X1622703Y500321D01*
X1622698Y500313D01*
X1622679Y500294D01*
X1620114Y496868D01*
X1620111Y496859D01*
X1620095Y496838D01*
X1618044Y493081D01*
X1618042Y493071D01*
X1618029Y493049D01*
X1616533Y489038D01*
X1616532Y489028D01*
X1616523Y489004D01*
X1615613Y484821D01*
X1615614Y484812D01*
X1615608Y484786D01*
X1615303Y480517D01*
X1615304Y480511D01*
X1615302Y480499D01*
X1615302Y470499D01*
X1615307Y470483D01*
X1615304Y470466D01*
X1615326Y470416D01*
X1615341Y470365D01*
X1615354Y470354D01*
X1615361Y470338D01*
X1615406Y470308D01*
X1615447Y470273D01*
X1615464Y470270D01*
X1615478Y470261D01*
X1615551Y470250D01*
X1628051Y470250D01*
X1628058Y470252D01*
G37*
G36*
X931653Y597971D02*
X931653Y597971D01*
X931718Y597973D01*
X931762Y597991D01*
X931809Y597999D01*
X931865Y598033D01*
X931926Y598058D01*
X931961Y598089D01*
X932002Y598114D01*
X932043Y598165D01*
X932092Y598209D01*
X932113Y598251D01*
X932143Y598288D01*
X932164Y598350D01*
X932194Y598409D01*
X932203Y598463D01*
X932215Y598500D01*
X932214Y598540D01*
X932222Y598594D01*
X932222Y602404D01*
X932210Y602469D01*
X932208Y602535D01*
X932191Y602578D01*
X932182Y602625D01*
X932149Y602682D01*
X932124Y602742D01*
X932092Y602777D01*
X932068Y602818D01*
X932017Y602860D01*
X931973Y602908D01*
X931931Y602930D01*
X931894Y602959D01*
X931832Y602980D01*
X931773Y603011D01*
X931719Y603019D01*
X931682Y603031D01*
X931642Y603030D01*
X931588Y603038D01*
X929048Y603038D01*
X928983Y603027D01*
X928917Y603025D01*
X928874Y603007D01*
X928827Y602999D01*
X928770Y602965D01*
X928709Y602940D01*
X928675Y602909D01*
X928634Y602884D01*
X928592Y602833D01*
X928544Y602789D01*
X928522Y602747D01*
X928492Y602710D01*
X928471Y602648D01*
X928441Y602589D01*
X928433Y602535D01*
X928421Y602498D01*
X928421Y602494D01*
X928421Y602493D01*
X928422Y602458D01*
X928414Y602404D01*
X928414Y598594D01*
X928425Y598529D01*
X928427Y598463D01*
X928445Y598420D01*
X928453Y598373D01*
X928487Y598316D01*
X928511Y598256D01*
X928543Y598221D01*
X928567Y598180D01*
X928618Y598139D01*
X928663Y598090D01*
X928705Y598068D01*
X928742Y598039D01*
X928804Y598018D01*
X928862Y597987D01*
X928917Y597979D01*
X928954Y597967D01*
X928993Y597968D01*
X929048Y597960D01*
X931588Y597960D01*
X931653Y597971D01*
G37*
G36*
X1381817Y597971D02*
X1381817Y597971D01*
X1381883Y597973D01*
X1381926Y597991D01*
X1381973Y597999D01*
X1382030Y598033D01*
X1382090Y598058D01*
X1382125Y598089D01*
X1382166Y598114D01*
X1382208Y598165D01*
X1382256Y598209D01*
X1382278Y598251D01*
X1382307Y598288D01*
X1382328Y598350D01*
X1382359Y598409D01*
X1382367Y598463D01*
X1382379Y598500D01*
X1382378Y598540D01*
X1382386Y598594D01*
X1382386Y602404D01*
X1382375Y602469D01*
X1382373Y602535D01*
X1382355Y602578D01*
X1382347Y602625D01*
X1382313Y602682D01*
X1382288Y602742D01*
X1382257Y602777D01*
X1382232Y602818D01*
X1382181Y602860D01*
X1382137Y602908D01*
X1382095Y602930D01*
X1382058Y602959D01*
X1381996Y602980D01*
X1381937Y603011D01*
X1381883Y603019D01*
X1381846Y603031D01*
X1381806Y603030D01*
X1381752Y603038D01*
X1379212Y603038D01*
X1379147Y603027D01*
X1379081Y603025D01*
X1379038Y603007D01*
X1378991Y602999D01*
X1378934Y602965D01*
X1378874Y602940D01*
X1378839Y602909D01*
X1378798Y602884D01*
X1378757Y602833D01*
X1378708Y602789D01*
X1378686Y602747D01*
X1378657Y602710D01*
X1378636Y602648D01*
X1378605Y602589D01*
X1378597Y602535D01*
X1378585Y602498D01*
X1378585Y602494D01*
X1378585Y602493D01*
X1378586Y602458D01*
X1378578Y602404D01*
X1378578Y598594D01*
X1378589Y598529D01*
X1378591Y598463D01*
X1378609Y598420D01*
X1378617Y598373D01*
X1378651Y598316D01*
X1378676Y598256D01*
X1378707Y598221D01*
X1378732Y598180D01*
X1378783Y598139D01*
X1378827Y598090D01*
X1378869Y598068D01*
X1378906Y598039D01*
X1378968Y598018D01*
X1379027Y597987D01*
X1379081Y597979D01*
X1379118Y597967D01*
X1379158Y597968D01*
X1379212Y597960D01*
X1381752Y597960D01*
X1381817Y597971D01*
G37*
G36*
X1156747Y597971D02*
X1156747Y597971D01*
X1156813Y597973D01*
X1156857Y597991D01*
X1156903Y597999D01*
X1156960Y598033D01*
X1157021Y598058D01*
X1157056Y598089D01*
X1157097Y598114D01*
X1157138Y598165D01*
X1157187Y598209D01*
X1157208Y598251D01*
X1157238Y598288D01*
X1157259Y598350D01*
X1157289Y598409D01*
X1157297Y598463D01*
X1157310Y598500D01*
X1157309Y598540D01*
X1157317Y598594D01*
X1157317Y602404D01*
X1157305Y602469D01*
X1157303Y602535D01*
X1157286Y602578D01*
X1157277Y602625D01*
X1157244Y602682D01*
X1157219Y602742D01*
X1157187Y602777D01*
X1157163Y602818D01*
X1157112Y602860D01*
X1157068Y602908D01*
X1157026Y602930D01*
X1156989Y602959D01*
X1156927Y602980D01*
X1156868Y603011D01*
X1156814Y603019D01*
X1156776Y603031D01*
X1156737Y603030D01*
X1156683Y603038D01*
X1154143Y603038D01*
X1154078Y603027D01*
X1154012Y603025D01*
X1153968Y603007D01*
X1153922Y602999D01*
X1153865Y602965D01*
X1153804Y602940D01*
X1153769Y602909D01*
X1153729Y602884D01*
X1153687Y602833D01*
X1153639Y602789D01*
X1153617Y602747D01*
X1153587Y602710D01*
X1153566Y602648D01*
X1153536Y602589D01*
X1153528Y602535D01*
X1153515Y602498D01*
X1153515Y602494D01*
X1153515Y602493D01*
X1153516Y602458D01*
X1153508Y602404D01*
X1153508Y598594D01*
X1153520Y598529D01*
X1153522Y598463D01*
X1153540Y598420D01*
X1153548Y598373D01*
X1153582Y598316D01*
X1153606Y598256D01*
X1153638Y598221D01*
X1153662Y598180D01*
X1153713Y598139D01*
X1153758Y598090D01*
X1153800Y598068D01*
X1153836Y598039D01*
X1153899Y598018D01*
X1153957Y597987D01*
X1154012Y597979D01*
X1154049Y597967D01*
X1154088Y597968D01*
X1154143Y597960D01*
X1156683Y597960D01*
X1156747Y597971D01*
G37*
G36*
X1606886Y597971D02*
X1606886Y597971D01*
X1606952Y597973D01*
X1606996Y597991D01*
X1607042Y597999D01*
X1607099Y598033D01*
X1607160Y598058D01*
X1607195Y598089D01*
X1607235Y598114D01*
X1607277Y598165D01*
X1607325Y598209D01*
X1607347Y598251D01*
X1607377Y598288D01*
X1607398Y598350D01*
X1607428Y598409D01*
X1607436Y598463D01*
X1607449Y598500D01*
X1607448Y598540D01*
X1607456Y598594D01*
X1607456Y602404D01*
X1607444Y602469D01*
X1607442Y602535D01*
X1607424Y602578D01*
X1607416Y602625D01*
X1607382Y602682D01*
X1607358Y602742D01*
X1607326Y602777D01*
X1607302Y602818D01*
X1607251Y602860D01*
X1607206Y602908D01*
X1607164Y602930D01*
X1607128Y602959D01*
X1607065Y602980D01*
X1607007Y603011D01*
X1606952Y603019D01*
X1606915Y603031D01*
X1606876Y603030D01*
X1606821Y603038D01*
X1604281Y603038D01*
X1604217Y603027D01*
X1604151Y603025D01*
X1604107Y603007D01*
X1604061Y602999D01*
X1604004Y602965D01*
X1603943Y602940D01*
X1603908Y602909D01*
X1603867Y602884D01*
X1603826Y602833D01*
X1603777Y602789D01*
X1603756Y602747D01*
X1603726Y602710D01*
X1603705Y602648D01*
X1603675Y602589D01*
X1603667Y602535D01*
X1603654Y602498D01*
X1603654Y602494D01*
X1603654Y602493D01*
X1603655Y602458D01*
X1603647Y602404D01*
X1603647Y598594D01*
X1603659Y598529D01*
X1603661Y598463D01*
X1603678Y598420D01*
X1603687Y598373D01*
X1603720Y598316D01*
X1603745Y598256D01*
X1603777Y598221D01*
X1603801Y598180D01*
X1603852Y598139D01*
X1603896Y598090D01*
X1603939Y598068D01*
X1603975Y598039D01*
X1604037Y598018D01*
X1604096Y597987D01*
X1604150Y597979D01*
X1604188Y597967D01*
X1604227Y597968D01*
X1604281Y597960D01*
X1606821Y597960D01*
X1606886Y597971D01*
G37*
G36*
X256419Y597971D02*
X256419Y597971D01*
X256485Y597973D01*
X256528Y597991D01*
X256575Y597999D01*
X256632Y598033D01*
X256693Y598058D01*
X256728Y598089D01*
X256768Y598114D01*
X256810Y598165D01*
X256858Y598209D01*
X256880Y598251D01*
X256910Y598288D01*
X256931Y598350D01*
X256961Y598409D01*
X256969Y598463D01*
X256981Y598500D01*
X256980Y598540D01*
X256988Y598594D01*
X256988Y602404D01*
X256977Y602469D01*
X256975Y602535D01*
X256957Y602578D01*
X256949Y602625D01*
X256915Y602682D01*
X256891Y602742D01*
X256859Y602777D01*
X256835Y602818D01*
X256784Y602860D01*
X256739Y602908D01*
X256697Y602930D01*
X256660Y602959D01*
X256598Y602980D01*
X256540Y603011D01*
X256485Y603019D01*
X256448Y603031D01*
X256409Y603030D01*
X256354Y603038D01*
X253814Y603038D01*
X253749Y603027D01*
X253684Y603025D01*
X253640Y603007D01*
X253593Y602999D01*
X253537Y602965D01*
X253476Y602940D01*
X253441Y602909D01*
X253400Y602884D01*
X253359Y602833D01*
X253310Y602789D01*
X253289Y602747D01*
X253259Y602710D01*
X253238Y602648D01*
X253208Y602589D01*
X253200Y602535D01*
X253187Y602498D01*
X253187Y602494D01*
X253187Y602493D01*
X253188Y602458D01*
X253180Y602404D01*
X253180Y598594D01*
X253192Y598529D01*
X253194Y598463D01*
X253211Y598420D01*
X253220Y598373D01*
X253253Y598316D01*
X253278Y598256D01*
X253310Y598221D01*
X253334Y598180D01*
X253385Y598139D01*
X253429Y598090D01*
X253471Y598068D01*
X253508Y598039D01*
X253570Y598018D01*
X253629Y597987D01*
X253683Y597979D01*
X253720Y597967D01*
X253760Y597968D01*
X253814Y597960D01*
X256354Y597960D01*
X256419Y597971D01*
G37*
G36*
X481488Y597971D02*
X481488Y597971D01*
X481554Y597973D01*
X481598Y597991D01*
X481644Y597999D01*
X481701Y598033D01*
X481762Y598058D01*
X481797Y598089D01*
X481838Y598114D01*
X481879Y598165D01*
X481928Y598209D01*
X481949Y598251D01*
X481979Y598288D01*
X482000Y598350D01*
X482030Y598409D01*
X482038Y598463D01*
X482051Y598500D01*
X482050Y598540D01*
X482058Y598594D01*
X482058Y602404D01*
X482046Y602469D01*
X482044Y602535D01*
X482027Y602578D01*
X482018Y602625D01*
X481985Y602682D01*
X481960Y602742D01*
X481928Y602777D01*
X481904Y602818D01*
X481853Y602860D01*
X481809Y602908D01*
X481767Y602930D01*
X481730Y602959D01*
X481668Y602980D01*
X481609Y603011D01*
X481555Y603019D01*
X481517Y603031D01*
X481478Y603030D01*
X481424Y603038D01*
X478884Y603038D01*
X478819Y603027D01*
X478753Y603025D01*
X478709Y603007D01*
X478663Y602999D01*
X478606Y602965D01*
X478545Y602940D01*
X478510Y602909D01*
X478470Y602884D01*
X478428Y602833D01*
X478380Y602789D01*
X478358Y602747D01*
X478328Y602710D01*
X478307Y602648D01*
X478277Y602589D01*
X478269Y602535D01*
X478256Y602498D01*
X478256Y602494D01*
X478256Y602493D01*
X478257Y602458D01*
X478249Y602404D01*
X478249Y598594D01*
X478261Y598529D01*
X478263Y598463D01*
X478281Y598420D01*
X478289Y598373D01*
X478323Y598316D01*
X478347Y598256D01*
X478379Y598221D01*
X478403Y598180D01*
X478454Y598139D01*
X478499Y598090D01*
X478541Y598068D01*
X478577Y598039D01*
X478640Y598018D01*
X478698Y597987D01*
X478753Y597979D01*
X478790Y597967D01*
X478829Y597968D01*
X478884Y597960D01*
X481424Y597960D01*
X481488Y597971D01*
G37*
G36*
X31324Y597971D02*
X31324Y597971D01*
X31390Y597973D01*
X31434Y597991D01*
X31480Y597999D01*
X31537Y598033D01*
X31598Y598058D01*
X31633Y598089D01*
X31673Y598114D01*
X31715Y598165D01*
X31763Y598209D01*
X31785Y598251D01*
X31815Y598288D01*
X31836Y598350D01*
X31866Y598409D01*
X31874Y598463D01*
X31887Y598500D01*
X31886Y598540D01*
X31894Y598594D01*
X31894Y602404D01*
X31882Y602469D01*
X31880Y602535D01*
X31862Y602578D01*
X31854Y602625D01*
X31820Y602682D01*
X31796Y602742D01*
X31764Y602777D01*
X31740Y602818D01*
X31689Y602860D01*
X31644Y602908D01*
X31602Y602930D01*
X31566Y602959D01*
X31503Y602980D01*
X31445Y603011D01*
X31390Y603019D01*
X31353Y603031D01*
X31314Y603030D01*
X31259Y603038D01*
X28719Y603038D01*
X28655Y603027D01*
X28589Y603025D01*
X28545Y603007D01*
X28499Y602999D01*
X28442Y602965D01*
X28381Y602940D01*
X28346Y602909D01*
X28305Y602884D01*
X28264Y602833D01*
X28215Y602789D01*
X28194Y602747D01*
X28164Y602710D01*
X28143Y602648D01*
X28113Y602589D01*
X28105Y602535D01*
X28092Y602498D01*
X28092Y602494D01*
X28092Y602493D01*
X28093Y602458D01*
X28085Y602404D01*
X28085Y598594D01*
X28097Y598529D01*
X28099Y598463D01*
X28116Y598420D01*
X28125Y598373D01*
X28158Y598316D01*
X28183Y598256D01*
X28215Y598221D01*
X28239Y598180D01*
X28290Y598139D01*
X28334Y598090D01*
X28377Y598068D01*
X28413Y598039D01*
X28475Y598018D01*
X28534Y597987D01*
X28588Y597979D01*
X28626Y597967D01*
X28665Y597968D01*
X28719Y597960D01*
X31259Y597960D01*
X31324Y597971D01*
G37*
G36*
X706583Y597971D02*
X706583Y597971D01*
X706649Y597973D01*
X706693Y597991D01*
X706739Y597999D01*
X706796Y598033D01*
X706857Y598058D01*
X706892Y598089D01*
X706932Y598114D01*
X706974Y598165D01*
X707022Y598209D01*
X707044Y598251D01*
X707074Y598288D01*
X707095Y598350D01*
X707125Y598409D01*
X707133Y598463D01*
X707146Y598500D01*
X707145Y598540D01*
X707153Y598594D01*
X707153Y602404D01*
X707141Y602469D01*
X707139Y602535D01*
X707121Y602578D01*
X707113Y602625D01*
X707079Y602682D01*
X707055Y602742D01*
X707023Y602777D01*
X706999Y602818D01*
X706948Y602860D01*
X706903Y602908D01*
X706861Y602930D01*
X706825Y602959D01*
X706762Y602980D01*
X706704Y603011D01*
X706649Y603019D01*
X706612Y603031D01*
X706573Y603030D01*
X706518Y603038D01*
X703978Y603038D01*
X703914Y603027D01*
X703848Y603025D01*
X703804Y603007D01*
X703758Y602999D01*
X703701Y602965D01*
X703640Y602940D01*
X703605Y602909D01*
X703564Y602884D01*
X703523Y602833D01*
X703474Y602789D01*
X703453Y602747D01*
X703423Y602710D01*
X703402Y602648D01*
X703372Y602589D01*
X703364Y602535D01*
X703351Y602498D01*
X703351Y602494D01*
X703351Y602493D01*
X703352Y602458D01*
X703344Y602404D01*
X703344Y598594D01*
X703356Y598529D01*
X703358Y598463D01*
X703375Y598420D01*
X703384Y598373D01*
X703417Y598316D01*
X703442Y598256D01*
X703474Y598221D01*
X703498Y598180D01*
X703549Y598139D01*
X703593Y598090D01*
X703636Y598068D01*
X703672Y598039D01*
X703734Y598018D01*
X703793Y597987D01*
X703847Y597979D01*
X703885Y597967D01*
X703924Y597968D01*
X703978Y597960D01*
X706518Y597960D01*
X706583Y597971D01*
G37*
G36*
X1766897Y95473D02*
X1766897Y95473D01*
X1766963Y95475D01*
X1767006Y95493D01*
X1767053Y95501D01*
X1767110Y95535D01*
X1767170Y95560D01*
X1767205Y95591D01*
X1767246Y95616D01*
X1767288Y95667D01*
X1767336Y95711D01*
X1767358Y95753D01*
X1767387Y95790D01*
X1767408Y95852D01*
X1767439Y95911D01*
X1767447Y95965D01*
X1767459Y96002D01*
X1767458Y96042D01*
X1767466Y96096D01*
X1767466Y99906D01*
X1767455Y99971D01*
X1767453Y100037D01*
X1767435Y100080D01*
X1767427Y100127D01*
X1767393Y100184D01*
X1767368Y100244D01*
X1767337Y100279D01*
X1767312Y100320D01*
X1767261Y100362D01*
X1767217Y100410D01*
X1767175Y100432D01*
X1767138Y100461D01*
X1767076Y100482D01*
X1767017Y100513D01*
X1766963Y100521D01*
X1766926Y100533D01*
X1766886Y100532D01*
X1766832Y100540D01*
X1764292Y100540D01*
X1764227Y100529D01*
X1764161Y100527D01*
X1764118Y100509D01*
X1764071Y100501D01*
X1764014Y100467D01*
X1763954Y100442D01*
X1763919Y100411D01*
X1763878Y100386D01*
X1763837Y100335D01*
X1763788Y100291D01*
X1763766Y100249D01*
X1763737Y100212D01*
X1763716Y100150D01*
X1763685Y100091D01*
X1763677Y100037D01*
X1763665Y100000D01*
X1763665Y99996D01*
X1763665Y99995D01*
X1763666Y99960D01*
X1763658Y99906D01*
X1763658Y96096D01*
X1763669Y96031D01*
X1763671Y95965D01*
X1763689Y95922D01*
X1763697Y95875D01*
X1763731Y95818D01*
X1763756Y95758D01*
X1763787Y95723D01*
X1763812Y95682D01*
X1763863Y95641D01*
X1763907Y95592D01*
X1763949Y95570D01*
X1763986Y95541D01*
X1764048Y95520D01*
X1764107Y95489D01*
X1764161Y95481D01*
X1764198Y95469D01*
X1764238Y95470D01*
X1764292Y95462D01*
X1766832Y95462D01*
X1766897Y95473D01*
G37*
G36*
X641499Y95473D02*
X641499Y95473D01*
X641565Y95475D01*
X641608Y95493D01*
X641655Y95501D01*
X641712Y95535D01*
X641773Y95560D01*
X641808Y95591D01*
X641848Y95616D01*
X641890Y95667D01*
X641938Y95711D01*
X641960Y95753D01*
X641990Y95790D01*
X642011Y95852D01*
X642041Y95911D01*
X642049Y95965D01*
X642061Y96002D01*
X642060Y96042D01*
X642068Y96096D01*
X642068Y99906D01*
X642057Y99971D01*
X642055Y100037D01*
X642037Y100080D01*
X642029Y100127D01*
X641995Y100184D01*
X641971Y100244D01*
X641939Y100279D01*
X641915Y100320D01*
X641864Y100362D01*
X641819Y100410D01*
X641777Y100432D01*
X641740Y100461D01*
X641678Y100482D01*
X641620Y100513D01*
X641565Y100521D01*
X641528Y100533D01*
X641489Y100532D01*
X641434Y100540D01*
X638894Y100540D01*
X638829Y100529D01*
X638764Y100527D01*
X638720Y100509D01*
X638673Y100501D01*
X638617Y100467D01*
X638556Y100442D01*
X638521Y100411D01*
X638480Y100386D01*
X638439Y100335D01*
X638390Y100291D01*
X638369Y100249D01*
X638339Y100212D01*
X638318Y100150D01*
X638288Y100091D01*
X638280Y100037D01*
X638267Y100000D01*
X638267Y99996D01*
X638267Y99995D01*
X638268Y99960D01*
X638260Y99906D01*
X638260Y96096D01*
X638272Y96031D01*
X638274Y95965D01*
X638291Y95922D01*
X638300Y95875D01*
X638333Y95818D01*
X638358Y95758D01*
X638390Y95723D01*
X638414Y95682D01*
X638465Y95641D01*
X638509Y95592D01*
X638551Y95570D01*
X638588Y95541D01*
X638650Y95520D01*
X638709Y95489D01*
X638763Y95481D01*
X638800Y95469D01*
X638840Y95470D01*
X638894Y95462D01*
X641434Y95462D01*
X641499Y95473D01*
G37*
G36*
X866568Y95473D02*
X866568Y95473D01*
X866634Y95475D01*
X866678Y95493D01*
X866724Y95501D01*
X866781Y95535D01*
X866842Y95560D01*
X866877Y95591D01*
X866918Y95616D01*
X866959Y95667D01*
X867008Y95711D01*
X867029Y95753D01*
X867059Y95790D01*
X867080Y95852D01*
X867110Y95911D01*
X867118Y95965D01*
X867131Y96002D01*
X867130Y96042D01*
X867138Y96096D01*
X867138Y99906D01*
X867126Y99971D01*
X867124Y100037D01*
X867107Y100080D01*
X867098Y100127D01*
X867065Y100184D01*
X867040Y100244D01*
X867008Y100279D01*
X866984Y100320D01*
X866933Y100362D01*
X866889Y100410D01*
X866847Y100432D01*
X866810Y100461D01*
X866748Y100482D01*
X866689Y100513D01*
X866635Y100521D01*
X866597Y100533D01*
X866558Y100532D01*
X866504Y100540D01*
X863964Y100540D01*
X863899Y100529D01*
X863833Y100527D01*
X863789Y100509D01*
X863743Y100501D01*
X863686Y100467D01*
X863625Y100442D01*
X863590Y100411D01*
X863550Y100386D01*
X863508Y100335D01*
X863460Y100291D01*
X863438Y100249D01*
X863408Y100212D01*
X863387Y100150D01*
X863357Y100091D01*
X863349Y100037D01*
X863336Y100000D01*
X863336Y99996D01*
X863336Y99995D01*
X863337Y99960D01*
X863329Y99906D01*
X863329Y96096D01*
X863341Y96031D01*
X863343Y95965D01*
X863361Y95922D01*
X863369Y95875D01*
X863403Y95818D01*
X863427Y95758D01*
X863459Y95723D01*
X863483Y95682D01*
X863534Y95641D01*
X863579Y95592D01*
X863621Y95570D01*
X863657Y95541D01*
X863720Y95520D01*
X863778Y95489D01*
X863833Y95481D01*
X863870Y95469D01*
X863909Y95470D01*
X863964Y95462D01*
X866504Y95462D01*
X866568Y95473D01*
G37*
G36*
X1316733Y95473D02*
X1316733Y95473D01*
X1316798Y95475D01*
X1316842Y95493D01*
X1316889Y95501D01*
X1316945Y95535D01*
X1317006Y95560D01*
X1317041Y95591D01*
X1317082Y95616D01*
X1317123Y95667D01*
X1317172Y95711D01*
X1317193Y95753D01*
X1317223Y95790D01*
X1317244Y95852D01*
X1317274Y95911D01*
X1317283Y95965D01*
X1317295Y96002D01*
X1317294Y96042D01*
X1317302Y96096D01*
X1317302Y99906D01*
X1317290Y99971D01*
X1317288Y100037D01*
X1317271Y100080D01*
X1317262Y100127D01*
X1317229Y100184D01*
X1317204Y100244D01*
X1317172Y100279D01*
X1317148Y100320D01*
X1317097Y100362D01*
X1317053Y100410D01*
X1317011Y100432D01*
X1316974Y100461D01*
X1316912Y100482D01*
X1316853Y100513D01*
X1316799Y100521D01*
X1316762Y100533D01*
X1316722Y100532D01*
X1316668Y100540D01*
X1314128Y100540D01*
X1314063Y100529D01*
X1313997Y100527D01*
X1313954Y100509D01*
X1313907Y100501D01*
X1313850Y100467D01*
X1313789Y100442D01*
X1313755Y100411D01*
X1313714Y100386D01*
X1313672Y100335D01*
X1313624Y100291D01*
X1313602Y100249D01*
X1313572Y100212D01*
X1313551Y100150D01*
X1313521Y100091D01*
X1313513Y100037D01*
X1313501Y100000D01*
X1313501Y99996D01*
X1313501Y99995D01*
X1313502Y99960D01*
X1313494Y99906D01*
X1313494Y96096D01*
X1313505Y96031D01*
X1313507Y95965D01*
X1313525Y95922D01*
X1313533Y95875D01*
X1313567Y95818D01*
X1313591Y95758D01*
X1313623Y95723D01*
X1313647Y95682D01*
X1313698Y95641D01*
X1313743Y95592D01*
X1313785Y95570D01*
X1313822Y95541D01*
X1313884Y95520D01*
X1313942Y95489D01*
X1313997Y95481D01*
X1314034Y95469D01*
X1314073Y95470D01*
X1314128Y95462D01*
X1316668Y95462D01*
X1316733Y95473D01*
G37*
G36*
X1091663Y95473D02*
X1091663Y95473D01*
X1091729Y95475D01*
X1091773Y95493D01*
X1091819Y95501D01*
X1091876Y95535D01*
X1091937Y95560D01*
X1091972Y95591D01*
X1092012Y95616D01*
X1092054Y95667D01*
X1092102Y95711D01*
X1092124Y95753D01*
X1092154Y95790D01*
X1092175Y95852D01*
X1092205Y95911D01*
X1092213Y95965D01*
X1092226Y96002D01*
X1092225Y96042D01*
X1092233Y96096D01*
X1092233Y99906D01*
X1092221Y99971D01*
X1092219Y100037D01*
X1092201Y100080D01*
X1092193Y100127D01*
X1092159Y100184D01*
X1092135Y100244D01*
X1092103Y100279D01*
X1092079Y100320D01*
X1092028Y100362D01*
X1091983Y100410D01*
X1091941Y100432D01*
X1091905Y100461D01*
X1091842Y100482D01*
X1091784Y100513D01*
X1091729Y100521D01*
X1091692Y100533D01*
X1091653Y100532D01*
X1091598Y100540D01*
X1089058Y100540D01*
X1088994Y100529D01*
X1088928Y100527D01*
X1088884Y100509D01*
X1088838Y100501D01*
X1088781Y100467D01*
X1088720Y100442D01*
X1088685Y100411D01*
X1088644Y100386D01*
X1088603Y100335D01*
X1088554Y100291D01*
X1088533Y100249D01*
X1088503Y100212D01*
X1088482Y100150D01*
X1088452Y100091D01*
X1088444Y100037D01*
X1088431Y100000D01*
X1088431Y99996D01*
X1088431Y99995D01*
X1088432Y99960D01*
X1088424Y99906D01*
X1088424Y96096D01*
X1088436Y96031D01*
X1088438Y95965D01*
X1088455Y95922D01*
X1088464Y95875D01*
X1088497Y95818D01*
X1088522Y95758D01*
X1088554Y95723D01*
X1088578Y95682D01*
X1088629Y95641D01*
X1088673Y95592D01*
X1088716Y95570D01*
X1088752Y95541D01*
X1088814Y95520D01*
X1088873Y95489D01*
X1088927Y95481D01*
X1088965Y95469D01*
X1089004Y95470D01*
X1089058Y95462D01*
X1091598Y95462D01*
X1091663Y95473D01*
G37*
G36*
X416404Y95473D02*
X416404Y95473D01*
X416470Y95475D01*
X416514Y95493D01*
X416560Y95501D01*
X416617Y95535D01*
X416678Y95560D01*
X416713Y95591D01*
X416753Y95616D01*
X416795Y95667D01*
X416843Y95711D01*
X416865Y95753D01*
X416895Y95790D01*
X416916Y95852D01*
X416946Y95911D01*
X416954Y95965D01*
X416967Y96002D01*
X416966Y96042D01*
X416974Y96096D01*
X416974Y99906D01*
X416962Y99971D01*
X416960Y100037D01*
X416942Y100080D01*
X416934Y100127D01*
X416900Y100184D01*
X416876Y100244D01*
X416844Y100279D01*
X416820Y100320D01*
X416769Y100362D01*
X416724Y100410D01*
X416682Y100432D01*
X416646Y100461D01*
X416583Y100482D01*
X416525Y100513D01*
X416470Y100521D01*
X416433Y100533D01*
X416394Y100532D01*
X416339Y100540D01*
X413799Y100540D01*
X413735Y100529D01*
X413669Y100527D01*
X413625Y100509D01*
X413579Y100501D01*
X413522Y100467D01*
X413461Y100442D01*
X413426Y100411D01*
X413385Y100386D01*
X413344Y100335D01*
X413295Y100291D01*
X413274Y100249D01*
X413244Y100212D01*
X413223Y100150D01*
X413193Y100091D01*
X413185Y100037D01*
X413172Y100000D01*
X413172Y99996D01*
X413172Y99995D01*
X413173Y99960D01*
X413165Y99906D01*
X413165Y96096D01*
X413177Y96031D01*
X413179Y95965D01*
X413196Y95922D01*
X413205Y95875D01*
X413238Y95818D01*
X413263Y95758D01*
X413295Y95723D01*
X413319Y95682D01*
X413370Y95641D01*
X413414Y95592D01*
X413457Y95570D01*
X413493Y95541D01*
X413555Y95520D01*
X413614Y95489D01*
X413668Y95481D01*
X413706Y95469D01*
X413745Y95470D01*
X413799Y95462D01*
X416339Y95462D01*
X416404Y95473D01*
G37*
G36*
X1541827Y95473D02*
X1541827Y95473D01*
X1541893Y95475D01*
X1541937Y95493D01*
X1541983Y95501D01*
X1542040Y95535D01*
X1542101Y95560D01*
X1542136Y95591D01*
X1542177Y95616D01*
X1542218Y95667D01*
X1542267Y95711D01*
X1542288Y95753D01*
X1542318Y95790D01*
X1542339Y95852D01*
X1542369Y95911D01*
X1542377Y95965D01*
X1542390Y96002D01*
X1542389Y96042D01*
X1542397Y96096D01*
X1542397Y99906D01*
X1542385Y99971D01*
X1542383Y100037D01*
X1542366Y100080D01*
X1542357Y100127D01*
X1542324Y100184D01*
X1542299Y100244D01*
X1542267Y100279D01*
X1542243Y100320D01*
X1542192Y100362D01*
X1542148Y100410D01*
X1542106Y100432D01*
X1542069Y100461D01*
X1542007Y100482D01*
X1541948Y100513D01*
X1541894Y100521D01*
X1541856Y100533D01*
X1541817Y100532D01*
X1541763Y100540D01*
X1539223Y100540D01*
X1539158Y100529D01*
X1539092Y100527D01*
X1539048Y100509D01*
X1539002Y100501D01*
X1538945Y100467D01*
X1538884Y100442D01*
X1538849Y100411D01*
X1538809Y100386D01*
X1538767Y100335D01*
X1538719Y100291D01*
X1538697Y100249D01*
X1538667Y100212D01*
X1538646Y100150D01*
X1538616Y100091D01*
X1538608Y100037D01*
X1538595Y100000D01*
X1538595Y99996D01*
X1538595Y99995D01*
X1538596Y99960D01*
X1538588Y99906D01*
X1538588Y96096D01*
X1538600Y96031D01*
X1538602Y95965D01*
X1538620Y95922D01*
X1538628Y95875D01*
X1538662Y95818D01*
X1538686Y95758D01*
X1538718Y95723D01*
X1538742Y95682D01*
X1538793Y95641D01*
X1538838Y95592D01*
X1538880Y95570D01*
X1538916Y95541D01*
X1538979Y95520D01*
X1539037Y95489D01*
X1539092Y95481D01*
X1539129Y95469D01*
X1539168Y95470D01*
X1539223Y95462D01*
X1541763Y95462D01*
X1541827Y95473D01*
G37*
G36*
X191335Y95473D02*
X191335Y95473D01*
X191401Y95475D01*
X191444Y95493D01*
X191491Y95501D01*
X191548Y95535D01*
X191608Y95560D01*
X191643Y95591D01*
X191684Y95616D01*
X191726Y95667D01*
X191774Y95711D01*
X191796Y95753D01*
X191825Y95790D01*
X191846Y95852D01*
X191877Y95911D01*
X191885Y95965D01*
X191897Y96002D01*
X191896Y96042D01*
X191904Y96096D01*
X191904Y99906D01*
X191893Y99971D01*
X191891Y100037D01*
X191873Y100080D01*
X191865Y100127D01*
X191831Y100184D01*
X191806Y100244D01*
X191775Y100279D01*
X191750Y100320D01*
X191699Y100362D01*
X191655Y100410D01*
X191613Y100432D01*
X191576Y100461D01*
X191514Y100482D01*
X191455Y100513D01*
X191401Y100521D01*
X191364Y100533D01*
X191324Y100532D01*
X191270Y100540D01*
X188730Y100540D01*
X188665Y100529D01*
X188599Y100527D01*
X188556Y100509D01*
X188509Y100501D01*
X188452Y100467D01*
X188392Y100442D01*
X188357Y100411D01*
X188316Y100386D01*
X188275Y100335D01*
X188226Y100291D01*
X188204Y100249D01*
X188175Y100212D01*
X188154Y100150D01*
X188123Y100091D01*
X188115Y100037D01*
X188103Y100000D01*
X188103Y99996D01*
X188103Y99995D01*
X188104Y99960D01*
X188096Y99906D01*
X188096Y96096D01*
X188107Y96031D01*
X188109Y95965D01*
X188127Y95922D01*
X188135Y95875D01*
X188169Y95818D01*
X188194Y95758D01*
X188225Y95723D01*
X188250Y95682D01*
X188301Y95641D01*
X188345Y95592D01*
X188387Y95570D01*
X188424Y95541D01*
X188486Y95520D01*
X188545Y95489D01*
X188599Y95481D01*
X188636Y95469D01*
X188676Y95470D01*
X188730Y95462D01*
X191270Y95462D01*
X191335Y95473D01*
G37*
D10*
X118000Y169001D03*
D11*
X93000Y136001D03*
X93000Y126001D03*
X80000Y136001D03*
X80000Y126001D03*
X80000Y101001D03*
X80000Y111001D03*
X130000Y151001D03*
X130000Y161001D03*
X93000Y101001D03*
X93000Y111001D03*
X113000Y80001D03*
X123000Y80001D03*
D12*
X106000Y149001D03*
X106000Y163001D03*
X67000Y149001D03*
X67000Y163001D03*
X93000Y163001D03*
X93000Y149001D03*
D11*
X87000Y68001D03*
X97000Y68001D03*
D13*
X190000Y92794D03*
X190000Y103208D03*
D11*
X106000Y101001D03*
X106000Y111001D03*
X130000Y111001D03*
X130000Y101001D03*
X118000Y111001D03*
X118000Y101001D03*
D10*
X130000Y118001D03*
D11*
X113000Y68001D03*
X123000Y68001D03*
X97000Y80001D03*
X87000Y80001D03*
X67000Y111001D03*
X67000Y101001D03*
X67000Y126001D03*
X67000Y136001D03*
X54000Y126001D03*
X54000Y136001D03*
X54000Y111001D03*
X54000Y101001D03*
X106000Y126001D03*
X106000Y136001D03*
X80000Y151001D03*
X80000Y161001D03*
X118000Y126001D03*
X118000Y136001D03*
D10*
X118100Y118001D03*
D11*
X118000Y151001D03*
X118000Y161001D03*
X130000Y136001D03*
X130000Y126001D03*
X143000Y111001D03*
X143000Y101001D03*
X143000Y136001D03*
X143000Y126001D03*
X154000Y111001D03*
X154000Y101001D03*
D10*
X118000Y143001D03*
X143000Y143001D03*
X143000Y118001D03*
D14*
X10000Y58001D03*
X210000Y218001D03*
D10*
X20000Y178001D03*
X20000Y218001D03*
X67000Y118001D03*
X80000Y143001D03*
D15*
X200000Y23251D03*
X195000Y23251D03*
X190000Y23251D03*
X185000Y23251D03*
X180000Y23251D03*
X175000Y23251D03*
X170000Y23251D03*
X165000Y23251D03*
X160000Y23251D03*
X155000Y23251D03*
X150000Y23251D03*
X125000Y23251D03*
X120000Y23251D03*
X115000Y23251D03*
X110000Y23251D03*
X105000Y23251D03*
X100000Y23251D03*
X95000Y23251D03*
X90000Y23251D03*
X85000Y23251D03*
X80000Y23251D03*
X75000Y23251D03*
X70000Y23251D03*
X65000Y23251D03*
X60000Y23251D03*
X55000Y23251D03*
X50000Y23251D03*
X45000Y23251D03*
X40000Y23251D03*
X35000Y23251D03*
X30000Y23251D03*
X25000Y23251D03*
X20000Y23251D03*
D16*
X150000Y198001D03*
D17*
X150000Y228001D03*
D10*
X100000Y111001D03*
X343069Y169001D03*
D11*
X318069Y136001D03*
X318069Y126001D03*
X305069Y136001D03*
X305069Y126001D03*
X305069Y101001D03*
X305069Y111001D03*
X355069Y151001D03*
X355069Y161001D03*
X318069Y101001D03*
X318069Y111001D03*
X338069Y80001D03*
X348069Y80001D03*
D12*
X331069Y149001D03*
X331069Y163001D03*
X292069Y149001D03*
X292069Y163001D03*
X318069Y163001D03*
X318069Y149001D03*
D11*
X312069Y68001D03*
X322069Y68001D03*
D13*
X415069Y92794D03*
X415069Y103208D03*
D11*
X331069Y101001D03*
X331069Y111001D03*
X355069Y111001D03*
X355069Y101001D03*
X343069Y111001D03*
X343069Y101001D03*
D10*
X355069Y118001D03*
D11*
X338069Y68001D03*
X348069Y68001D03*
X322069Y80001D03*
X312069Y80001D03*
X292069Y111001D03*
X292069Y101001D03*
X292069Y126001D03*
X292069Y136001D03*
X279069Y126001D03*
X279069Y136001D03*
X279069Y111001D03*
X279069Y101001D03*
X331069Y126001D03*
X331069Y136001D03*
X305069Y151001D03*
X305069Y161001D03*
X343069Y126001D03*
X343069Y136001D03*
D10*
X343169Y118001D03*
D11*
X343069Y151001D03*
X343069Y161001D03*
X355069Y136001D03*
X355069Y126001D03*
X368069Y111001D03*
X368069Y101001D03*
X368069Y136001D03*
X368069Y126001D03*
X379069Y111001D03*
X379069Y101001D03*
D10*
X343069Y143001D03*
X368069Y143001D03*
X368069Y118001D03*
D14*
X235069Y58001D03*
X435069Y218001D03*
D10*
X245069Y178001D03*
X245069Y218001D03*
X292069Y118001D03*
X305069Y143001D03*
D15*
X425069Y23251D03*
X420069Y23251D03*
X415069Y23251D03*
X410069Y23251D03*
X405069Y23251D03*
X400069Y23251D03*
X395069Y23251D03*
X390069Y23251D03*
X385069Y23251D03*
X380069Y23251D03*
X375069Y23251D03*
X350069Y23251D03*
X345069Y23251D03*
X340069Y23251D03*
X335069Y23251D03*
X330069Y23251D03*
X325069Y23251D03*
X320069Y23251D03*
X315069Y23251D03*
X310069Y23251D03*
X305069Y23251D03*
X300069Y23251D03*
X295069Y23251D03*
X290069Y23251D03*
X285069Y23251D03*
X280069Y23251D03*
X275069Y23251D03*
X270069Y23251D03*
X265069Y23251D03*
X260069Y23251D03*
X255069Y23251D03*
X250069Y23251D03*
X245069Y23251D03*
D16*
X375069Y198001D03*
D17*
X375069Y228001D03*
D10*
X325069Y111001D03*
X568164Y169001D03*
D11*
X543164Y136001D03*
X543164Y126001D03*
X530164Y136001D03*
X530164Y126001D03*
X530164Y101001D03*
X530164Y111001D03*
X580164Y151001D03*
X580164Y161001D03*
X543164Y101001D03*
X543164Y111001D03*
X563164Y80001D03*
X573164Y80001D03*
D12*
X556164Y149001D03*
X556164Y163001D03*
X517164Y149001D03*
X517164Y163001D03*
X543164Y163001D03*
X543164Y149001D03*
D11*
X537164Y68001D03*
X547164Y68001D03*
D13*
X640164Y92794D03*
X640164Y103208D03*
D11*
X556164Y101001D03*
X556164Y111001D03*
X580164Y111001D03*
X580164Y101001D03*
X568164Y111001D03*
X568164Y101001D03*
D10*
X580164Y118001D03*
D11*
X563164Y68001D03*
X573164Y68001D03*
X547164Y80001D03*
X537164Y80001D03*
X517164Y111001D03*
X517164Y101001D03*
X517164Y126001D03*
X517164Y136001D03*
X504164Y126001D03*
X504164Y136001D03*
X504164Y111001D03*
X504164Y101001D03*
X556164Y126001D03*
X556164Y136001D03*
X530164Y151001D03*
X530164Y161001D03*
X568164Y126001D03*
X568164Y136001D03*
D10*
X568264Y118001D03*
D11*
X568164Y151001D03*
X568164Y161001D03*
X580164Y136001D03*
X580164Y126001D03*
X593164Y111001D03*
X593164Y101001D03*
X593164Y136001D03*
X593164Y126001D03*
X604164Y111001D03*
X604164Y101001D03*
D10*
X568164Y143001D03*
X593164Y143001D03*
X593164Y118001D03*
D14*
X460164Y58001D03*
X660164Y218001D03*
D10*
X470164Y178001D03*
X470164Y218001D03*
X517164Y118001D03*
X530164Y143001D03*
D15*
X650164Y23251D03*
X645164Y23251D03*
X640164Y23251D03*
X635164Y23251D03*
X630164Y23251D03*
X625164Y23251D03*
X620164Y23251D03*
X615164Y23251D03*
X610164Y23251D03*
X605164Y23251D03*
X600164Y23251D03*
X575164Y23251D03*
X570164Y23251D03*
X565164Y23251D03*
X560164Y23251D03*
X555164Y23251D03*
X550164Y23251D03*
X545164Y23251D03*
X540164Y23251D03*
X535164Y23251D03*
X530164Y23251D03*
X525164Y23251D03*
X520164Y23251D03*
X515164Y23251D03*
X510164Y23251D03*
X505164Y23251D03*
X500164Y23251D03*
X495164Y23251D03*
X490164Y23251D03*
X485164Y23251D03*
X480164Y23251D03*
X475164Y23251D03*
X470164Y23251D03*
D16*
X600164Y198001D03*
D17*
X600164Y228001D03*
D10*
X550164Y111001D03*
X793234Y169001D03*
D11*
X768234Y136001D03*
X768234Y126001D03*
X755234Y136001D03*
X755234Y126001D03*
X755234Y101001D03*
X755234Y111001D03*
X805234Y151001D03*
X805234Y161001D03*
X768234Y101001D03*
X768234Y111001D03*
X788234Y80001D03*
X798234Y80001D03*
D12*
X781234Y149001D03*
X781234Y163001D03*
X742234Y149001D03*
X742234Y163001D03*
X768234Y163001D03*
X768234Y149001D03*
D11*
X762234Y68001D03*
X772234Y68001D03*
D13*
X865234Y92794D03*
X865234Y103208D03*
D11*
X781234Y101001D03*
X781234Y111001D03*
X805234Y111001D03*
X805234Y101001D03*
X793234Y111001D03*
X793234Y101001D03*
D10*
X805234Y118001D03*
D11*
X788234Y68001D03*
X798234Y68001D03*
X772234Y80001D03*
X762234Y80001D03*
X742234Y111001D03*
X742234Y101001D03*
X742234Y126001D03*
X742234Y136001D03*
X729234Y126001D03*
X729234Y136001D03*
X729234Y111001D03*
X729234Y101001D03*
X781234Y126001D03*
X781234Y136001D03*
X755234Y151001D03*
X755234Y161001D03*
X793234Y126001D03*
X793234Y136001D03*
D10*
X793334Y118001D03*
D11*
X793234Y151001D03*
X793234Y161001D03*
X805234Y136001D03*
X805234Y126001D03*
X818234Y111001D03*
X818234Y101001D03*
X818234Y136001D03*
X818234Y126001D03*
X829234Y111001D03*
X829234Y101001D03*
D10*
X793234Y143001D03*
X818234Y143001D03*
X818234Y118001D03*
D14*
X685234Y58001D03*
X885234Y218001D03*
D10*
X695234Y178001D03*
X695234Y218001D03*
X742234Y118001D03*
X755234Y143001D03*
D15*
X875234Y23251D03*
X870234Y23251D03*
X865234Y23251D03*
X860234Y23251D03*
X855234Y23251D03*
X850234Y23251D03*
X845234Y23251D03*
X840234Y23251D03*
X835234Y23251D03*
X830234Y23251D03*
X825234Y23251D03*
X800234Y23251D03*
X795234Y23251D03*
X790234Y23251D03*
X785234Y23251D03*
X780234Y23251D03*
X775234Y23251D03*
X770234Y23251D03*
X765234Y23251D03*
X760234Y23251D03*
X755234Y23251D03*
X750234Y23251D03*
X745234Y23251D03*
X740234Y23251D03*
X735234Y23251D03*
X730234Y23251D03*
X725234Y23251D03*
X720234Y23251D03*
X715234Y23251D03*
X710234Y23251D03*
X705234Y23251D03*
X700234Y23251D03*
X695234Y23251D03*
D16*
X825234Y198001D03*
D17*
X825234Y228001D03*
D10*
X775234Y111001D03*
X1018328Y169001D03*
D11*
X993328Y136001D03*
X993328Y126001D03*
X980328Y136001D03*
X980328Y126001D03*
X980328Y101001D03*
X980328Y111001D03*
X1030328Y151001D03*
X1030328Y161001D03*
X993328Y101001D03*
X993328Y111001D03*
X1013328Y80001D03*
X1023328Y80001D03*
D12*
X1006328Y149001D03*
X1006328Y163001D03*
X967328Y149001D03*
X967328Y163001D03*
X993328Y163001D03*
X993328Y149001D03*
D11*
X987328Y68001D03*
X997328Y68001D03*
D13*
X1090328Y92794D03*
X1090328Y103208D03*
D11*
X1006328Y101001D03*
X1006328Y111001D03*
X1030328Y111001D03*
X1030328Y101001D03*
X1018328Y111001D03*
X1018328Y101001D03*
D10*
X1030328Y118001D03*
D11*
X1013328Y68001D03*
X1023328Y68001D03*
X997328Y80001D03*
X987328Y80001D03*
X967328Y111001D03*
X967328Y101001D03*
X967328Y126001D03*
X967328Y136001D03*
X954328Y126001D03*
X954328Y136001D03*
X954328Y111001D03*
X954328Y101001D03*
X1006328Y126001D03*
X1006328Y136001D03*
X980328Y151001D03*
X980328Y161001D03*
X1018328Y126001D03*
X1018328Y136001D03*
D10*
X1018428Y118001D03*
D11*
X1018328Y151001D03*
X1018328Y161001D03*
X1030328Y136001D03*
X1030328Y126001D03*
X1043328Y111001D03*
X1043328Y101001D03*
X1043328Y136001D03*
X1043328Y126001D03*
X1054328Y111001D03*
X1054328Y101001D03*
D10*
X1018328Y143001D03*
X1043328Y143001D03*
X1043328Y118001D03*
D14*
X910328Y58001D03*
X1110328Y218001D03*
D10*
X920328Y178001D03*
X920328Y218001D03*
X967328Y118001D03*
X980328Y143001D03*
D15*
X1100328Y23251D03*
X1095328Y23251D03*
X1090328Y23251D03*
X1085328Y23251D03*
X1080328Y23251D03*
X1075328Y23251D03*
X1070328Y23251D03*
X1065328Y23251D03*
X1060328Y23251D03*
X1055328Y23251D03*
X1050328Y23251D03*
X1025328Y23251D03*
X1020328Y23251D03*
X1015328Y23251D03*
X1010328Y23251D03*
X1005328Y23251D03*
X1000328Y23251D03*
X995328Y23251D03*
X990328Y23251D03*
X985328Y23251D03*
X980328Y23251D03*
X975328Y23251D03*
X970328Y23251D03*
X965328Y23251D03*
X960328Y23251D03*
X955328Y23251D03*
X950328Y23251D03*
X945328Y23251D03*
X940328Y23251D03*
X935328Y23251D03*
X930328Y23251D03*
X925328Y23251D03*
X920328Y23251D03*
D16*
X1050328Y198001D03*
D17*
X1050328Y228001D03*
D10*
X1000328Y111001D03*
X1243398Y169001D03*
D11*
X1218398Y136001D03*
X1218398Y126001D03*
X1205398Y136001D03*
X1205398Y126001D03*
X1205398Y101001D03*
X1205398Y111001D03*
X1255398Y151001D03*
X1255398Y161001D03*
X1218398Y101001D03*
X1218398Y111001D03*
X1238398Y80001D03*
X1248398Y80001D03*
D12*
X1231398Y149001D03*
X1231398Y163001D03*
X1192398Y149001D03*
X1192398Y163001D03*
X1218398Y163001D03*
X1218398Y149001D03*
D11*
X1212398Y68001D03*
X1222398Y68001D03*
D13*
X1315398Y92794D03*
X1315398Y103208D03*
D11*
X1231398Y101001D03*
X1231398Y111001D03*
X1255398Y111001D03*
X1255398Y101001D03*
X1243398Y111001D03*
X1243398Y101001D03*
D10*
X1255398Y118001D03*
D11*
X1238398Y68001D03*
X1248398Y68001D03*
X1222398Y80001D03*
X1212398Y80001D03*
X1192398Y111001D03*
X1192398Y101001D03*
X1192398Y126001D03*
X1192398Y136001D03*
X1179398Y126001D03*
X1179398Y136001D03*
X1179398Y111001D03*
X1179398Y101001D03*
X1231398Y126001D03*
X1231398Y136001D03*
X1205398Y151001D03*
X1205398Y161001D03*
X1243398Y126001D03*
X1243398Y136001D03*
D10*
X1243498Y118001D03*
D11*
X1243398Y151001D03*
X1243398Y161001D03*
X1255398Y136001D03*
X1255398Y126001D03*
X1268398Y111001D03*
X1268398Y101001D03*
X1268398Y136001D03*
X1268398Y126001D03*
X1279398Y111001D03*
X1279398Y101001D03*
D10*
X1243398Y143001D03*
X1268398Y143001D03*
X1268398Y118001D03*
D14*
X1135398Y58001D03*
X1335398Y218001D03*
D10*
X1145398Y178001D03*
X1145398Y218001D03*
X1192398Y118001D03*
X1205398Y143001D03*
D15*
X1325398Y23251D03*
X1320398Y23251D03*
X1315398Y23251D03*
X1310398Y23251D03*
X1305398Y23251D03*
X1300398Y23251D03*
X1295398Y23251D03*
X1290398Y23251D03*
X1285398Y23251D03*
X1280398Y23251D03*
X1275398Y23251D03*
X1250398Y23251D03*
X1245398Y23251D03*
X1240398Y23251D03*
X1235398Y23251D03*
X1230398Y23251D03*
X1225398Y23251D03*
X1220398Y23251D03*
X1215398Y23251D03*
X1210398Y23251D03*
X1205398Y23251D03*
X1200398Y23251D03*
X1195398Y23251D03*
X1190398Y23251D03*
X1185398Y23251D03*
X1180398Y23251D03*
X1175398Y23251D03*
X1170398Y23251D03*
X1165398Y23251D03*
X1160398Y23251D03*
X1155398Y23251D03*
X1150398Y23251D03*
X1145398Y23251D03*
D16*
X1275398Y198001D03*
D17*
X1275398Y228001D03*
D10*
X1225398Y111001D03*
X1468493Y169001D03*
D11*
X1443493Y136001D03*
X1443493Y126001D03*
X1430493Y136001D03*
X1430493Y126001D03*
X1430493Y101001D03*
X1430493Y111001D03*
X1480493Y151001D03*
X1480493Y161001D03*
X1443493Y101001D03*
X1443493Y111001D03*
X1463493Y80001D03*
X1473493Y80001D03*
D12*
X1456493Y149001D03*
X1456493Y163001D03*
X1417493Y149001D03*
X1417493Y163001D03*
X1443493Y163001D03*
X1443493Y149001D03*
D11*
X1437493Y68001D03*
X1447493Y68001D03*
D13*
X1540493Y92794D03*
X1540493Y103208D03*
D11*
X1456493Y101001D03*
X1456493Y111001D03*
X1480493Y111001D03*
X1480493Y101001D03*
X1468493Y111001D03*
X1468493Y101001D03*
D10*
X1480493Y118001D03*
D11*
X1463493Y68001D03*
X1473493Y68001D03*
X1447493Y80001D03*
X1437493Y80001D03*
X1417493Y111001D03*
X1417493Y101001D03*
X1417493Y126001D03*
X1417493Y136001D03*
X1404493Y126001D03*
X1404493Y136001D03*
X1404493Y111001D03*
X1404493Y101001D03*
X1456493Y126001D03*
X1456493Y136001D03*
X1430493Y151001D03*
X1430493Y161001D03*
X1468493Y126001D03*
X1468493Y136001D03*
D10*
X1468593Y118001D03*
D11*
X1468493Y151001D03*
X1468493Y161001D03*
X1480493Y136001D03*
X1480493Y126001D03*
X1493493Y111001D03*
X1493493Y101001D03*
X1493493Y136001D03*
X1493493Y126001D03*
X1504493Y111001D03*
X1504493Y101001D03*
D10*
X1468493Y143001D03*
X1493493Y143001D03*
X1493493Y118001D03*
D14*
X1360493Y58001D03*
X1560493Y218001D03*
D10*
X1370493Y178001D03*
X1370493Y218001D03*
X1417493Y118001D03*
X1430493Y143001D03*
D15*
X1550493Y23251D03*
X1545493Y23251D03*
X1540493Y23251D03*
X1535493Y23251D03*
X1530493Y23251D03*
X1525493Y23251D03*
X1520493Y23251D03*
X1515493Y23251D03*
X1510493Y23251D03*
X1505493Y23251D03*
X1500493Y23251D03*
X1475493Y23251D03*
X1470493Y23251D03*
X1465493Y23251D03*
X1460493Y23251D03*
X1455493Y23251D03*
X1450493Y23251D03*
X1445493Y23251D03*
X1440493Y23251D03*
X1435493Y23251D03*
X1430493Y23251D03*
X1425493Y23251D03*
X1420493Y23251D03*
X1415493Y23251D03*
X1410493Y23251D03*
X1405493Y23251D03*
X1400493Y23251D03*
X1395493Y23251D03*
X1390493Y23251D03*
X1385493Y23251D03*
X1380493Y23251D03*
X1375493Y23251D03*
X1370493Y23251D03*
D16*
X1500493Y198001D03*
D17*
X1500493Y228001D03*
D10*
X1450493Y111001D03*
X1693562Y169001D03*
D11*
X1668562Y136001D03*
X1668562Y126001D03*
X1655562Y136001D03*
X1655562Y126001D03*
X1655562Y101001D03*
X1655562Y111001D03*
X1705562Y151001D03*
X1705562Y161001D03*
X1668562Y101001D03*
X1668562Y111001D03*
X1688562Y80001D03*
X1698562Y80001D03*
D12*
X1681562Y149001D03*
X1681562Y163001D03*
X1642562Y149001D03*
X1642562Y163001D03*
X1668562Y163001D03*
X1668562Y149001D03*
D11*
X1662562Y68001D03*
X1672562Y68001D03*
D13*
X1765562Y92794D03*
X1765562Y103208D03*
D11*
X1681562Y101001D03*
X1681562Y111001D03*
X1705562Y111001D03*
X1705562Y101001D03*
X1693562Y111001D03*
X1693562Y101001D03*
D10*
X1705562Y118001D03*
D11*
X1688562Y68001D03*
X1698562Y68001D03*
X1672562Y80001D03*
X1662562Y80001D03*
X1642562Y111001D03*
X1642562Y101001D03*
X1642562Y126001D03*
X1642562Y136001D03*
X1629562Y126001D03*
X1629562Y136001D03*
X1629562Y111001D03*
X1629562Y101001D03*
X1681562Y126001D03*
X1681562Y136001D03*
X1655562Y151001D03*
X1655562Y161001D03*
X1693562Y126001D03*
X1693562Y136001D03*
D10*
X1693662Y118001D03*
D11*
X1693562Y151001D03*
X1693562Y161001D03*
X1705562Y136001D03*
X1705562Y126001D03*
X1718562Y111001D03*
X1718562Y101001D03*
X1718562Y136001D03*
X1718562Y126001D03*
X1729562Y111001D03*
X1729562Y101001D03*
D10*
X1693562Y143001D03*
X1718562Y143001D03*
X1718562Y118001D03*
D14*
X1585562Y58001D03*
X1785562Y218001D03*
D10*
X1595562Y178001D03*
X1595562Y218001D03*
X1642562Y118001D03*
X1655562Y143001D03*
D15*
X1775562Y23251D03*
X1770562Y23251D03*
X1765562Y23251D03*
X1760562Y23251D03*
X1755562Y23251D03*
X1750562Y23251D03*
X1745562Y23251D03*
X1740562Y23251D03*
X1735562Y23251D03*
X1730562Y23251D03*
X1725562Y23251D03*
X1700562Y23251D03*
X1695562Y23251D03*
X1690562Y23251D03*
X1685562Y23251D03*
X1680562Y23251D03*
X1675562Y23251D03*
X1670562Y23251D03*
X1665562Y23251D03*
X1660562Y23251D03*
X1655562Y23251D03*
X1650562Y23251D03*
X1645562Y23251D03*
X1640562Y23251D03*
X1635562Y23251D03*
X1630562Y23251D03*
X1625562Y23251D03*
X1620562Y23251D03*
X1615562Y23251D03*
X1610562Y23251D03*
X1605562Y23251D03*
X1600562Y23251D03*
X1595562Y23251D03*
D16*
X1725562Y198001D03*
D17*
X1725562Y228001D03*
D10*
X1675562Y111001D03*
X101989Y529499D03*
D11*
X126989Y562499D03*
X126989Y572499D03*
X139989Y562499D03*
X139989Y572499D03*
X139989Y597499D03*
X139989Y587499D03*
X89989Y547499D03*
X89989Y537499D03*
X126989Y597499D03*
X126989Y587499D03*
X106989Y618499D03*
X96989Y618499D03*
D12*
X113989Y549499D03*
X113989Y535499D03*
X152989Y549499D03*
X152989Y535499D03*
X126989Y535499D03*
X126989Y549499D03*
D11*
X132989Y630499D03*
X122989Y630499D03*
D13*
X29989Y605706D03*
X29989Y595292D03*
D11*
X113989Y597499D03*
X113989Y587499D03*
X89989Y587499D03*
X89989Y597499D03*
X101989Y587499D03*
X101989Y597499D03*
D10*
X89989Y580499D03*
D11*
X106989Y630499D03*
X96989Y630499D03*
X122989Y618499D03*
X132989Y618499D03*
X152989Y587499D03*
X152989Y597499D03*
X152989Y572499D03*
X152989Y562499D03*
X165989Y572499D03*
X165989Y562499D03*
X165989Y587499D03*
X165989Y597499D03*
X113989Y572499D03*
X113989Y562499D03*
X139989Y547499D03*
X139989Y537499D03*
X101989Y572499D03*
X101989Y562499D03*
D10*
X101889Y580499D03*
D11*
X101989Y547499D03*
X101989Y537499D03*
X89989Y562499D03*
X89989Y572499D03*
X76989Y587499D03*
X76989Y597499D03*
X76989Y562499D03*
X76989Y572499D03*
X65989Y587499D03*
X65989Y597499D03*
D10*
X101989Y555499D03*
X76989Y555499D03*
X76989Y580499D03*
D14*
X209989Y640499D03*
X9989Y480499D03*
D10*
X199989Y520499D03*
X199989Y480499D03*
X152989Y580499D03*
X139989Y555499D03*
D15*
X19989Y675249D03*
X24989Y675249D03*
X29989Y675249D03*
X34989Y675249D03*
X39989Y675249D03*
X44989Y675249D03*
X49989Y675249D03*
X54989Y675249D03*
X59989Y675249D03*
X64989Y675249D03*
X69989Y675249D03*
X94989Y675249D03*
X99989Y675249D03*
X104989Y675249D03*
X109989Y675249D03*
X114989Y675249D03*
X119989Y675249D03*
X124989Y675249D03*
X129989Y675249D03*
X134989Y675249D03*
X139989Y675249D03*
X144989Y675249D03*
X149989Y675249D03*
X154989Y675249D03*
X159989Y675249D03*
X164989Y675249D03*
X169989Y675249D03*
X174989Y675249D03*
X179989Y675249D03*
X184989Y675249D03*
X189989Y675249D03*
X194989Y675249D03*
X199989Y675249D03*
D16*
X69989Y500499D03*
D17*
X69989Y470499D03*
D10*
X119989Y587499D03*
X327084Y529499D03*
D11*
X352084Y562499D03*
X352084Y572499D03*
X365084Y562499D03*
X365084Y572499D03*
X365084Y597499D03*
X365084Y587499D03*
X315084Y547499D03*
X315084Y537499D03*
X352084Y597499D03*
X352084Y587499D03*
X332084Y618499D03*
X322084Y618499D03*
D12*
X339084Y549499D03*
X339084Y535499D03*
X378084Y549499D03*
X378084Y535499D03*
X352084Y535499D03*
X352084Y549499D03*
D11*
X358084Y630499D03*
X348084Y630499D03*
D13*
X255084Y605706D03*
X255084Y595292D03*
D11*
X339084Y597499D03*
X339084Y587499D03*
X315084Y587499D03*
X315084Y597499D03*
X327084Y587499D03*
X327084Y597499D03*
D10*
X315084Y580499D03*
D11*
X332084Y630499D03*
X322084Y630499D03*
X348084Y618499D03*
X358084Y618499D03*
X378084Y587499D03*
X378084Y597499D03*
X378084Y572499D03*
X378084Y562499D03*
X391084Y572499D03*
X391084Y562499D03*
X391084Y587499D03*
X391084Y597499D03*
X339084Y572499D03*
X339084Y562499D03*
X365084Y547499D03*
X365084Y537499D03*
X327084Y572499D03*
X327084Y562499D03*
D10*
X326984Y580499D03*
D11*
X327084Y547499D03*
X327084Y537499D03*
X315084Y562499D03*
X315084Y572499D03*
X302084Y587499D03*
X302084Y597499D03*
X302084Y562499D03*
X302084Y572499D03*
X291084Y587499D03*
X291084Y597499D03*
D10*
X327084Y555499D03*
X302084Y555499D03*
X302084Y580499D03*
D14*
X435084Y640499D03*
X235084Y480499D03*
D10*
X425084Y520499D03*
X425084Y480499D03*
X378084Y580499D03*
X365084Y555499D03*
D15*
X245084Y675249D03*
X250084Y675249D03*
X255084Y675249D03*
X260084Y675249D03*
X265084Y675249D03*
X270084Y675249D03*
X275084Y675249D03*
X280084Y675249D03*
X285084Y675249D03*
X290084Y675249D03*
X295084Y675249D03*
X320084Y675249D03*
X325084Y675249D03*
X330084Y675249D03*
X335084Y675249D03*
X340084Y675249D03*
X345084Y675249D03*
X350084Y675249D03*
X355084Y675249D03*
X360084Y675249D03*
X365084Y675249D03*
X370084Y675249D03*
X375084Y675249D03*
X380084Y675249D03*
X385084Y675249D03*
X390084Y675249D03*
X395084Y675249D03*
X400084Y675249D03*
X405084Y675249D03*
X410084Y675249D03*
X415084Y675249D03*
X420084Y675249D03*
X425084Y675249D03*
D16*
X295084Y500499D03*
D17*
X295084Y470499D03*
D10*
X345084Y587499D03*
X552154Y529499D03*
D11*
X577154Y562499D03*
X577154Y572499D03*
X590154Y562499D03*
X590154Y572499D03*
X590154Y597499D03*
X590154Y587499D03*
X540154Y547499D03*
X540154Y537499D03*
X577154Y597499D03*
X577154Y587499D03*
X557154Y618499D03*
X547154Y618499D03*
D12*
X564154Y549499D03*
X564154Y535499D03*
X603154Y549499D03*
X603154Y535499D03*
X577154Y535499D03*
X577154Y549499D03*
D11*
X583154Y630499D03*
X573154Y630499D03*
D13*
X480154Y605706D03*
X480154Y595292D03*
D11*
X564154Y597499D03*
X564154Y587499D03*
X540154Y587499D03*
X540154Y597499D03*
X552154Y587499D03*
X552154Y597499D03*
D10*
X540154Y580499D03*
D11*
X557154Y630499D03*
X547154Y630499D03*
X573154Y618499D03*
X583154Y618499D03*
X603154Y587499D03*
X603154Y597499D03*
X603154Y572499D03*
X603154Y562499D03*
X616154Y572499D03*
X616154Y562499D03*
X616154Y587499D03*
X616154Y597499D03*
X564154Y572499D03*
X564154Y562499D03*
X590154Y547499D03*
X590154Y537499D03*
X552154Y572499D03*
X552154Y562499D03*
D10*
X552054Y580499D03*
D11*
X552154Y547499D03*
X552154Y537499D03*
X540154Y562499D03*
X540154Y572499D03*
X527154Y587499D03*
X527154Y597499D03*
X527154Y562499D03*
X527154Y572499D03*
X516154Y587499D03*
X516154Y597499D03*
D10*
X552154Y555499D03*
X527154Y555499D03*
X527154Y580499D03*
D14*
X660154Y640499D03*
X460154Y480499D03*
D10*
X650154Y520499D03*
X650154Y480499D03*
X603154Y580499D03*
X590154Y555499D03*
D15*
X470154Y675249D03*
X475154Y675249D03*
X480154Y675249D03*
X485154Y675249D03*
X490154Y675249D03*
X495154Y675249D03*
X500154Y675249D03*
X505154Y675249D03*
X510154Y675249D03*
X515154Y675249D03*
X520154Y675249D03*
X545154Y675249D03*
X550154Y675249D03*
X555154Y675249D03*
X560154Y675249D03*
X565154Y675249D03*
X570154Y675249D03*
X575154Y675249D03*
X580154Y675249D03*
X585154Y675249D03*
X590154Y675249D03*
X595154Y675249D03*
X600154Y675249D03*
X605154Y675249D03*
X610154Y675249D03*
X615154Y675249D03*
X620154Y675249D03*
X625154Y675249D03*
X630154Y675249D03*
X635154Y675249D03*
X640154Y675249D03*
X645154Y675249D03*
X650154Y675249D03*
D16*
X520154Y500499D03*
D17*
X520154Y470499D03*
D10*
X570154Y587499D03*
X777248Y529499D03*
D11*
X802248Y562499D03*
X802248Y572499D03*
X815248Y562499D03*
X815248Y572499D03*
X815248Y597499D03*
X815248Y587499D03*
X765248Y547499D03*
X765248Y537499D03*
X802248Y597499D03*
X802248Y587499D03*
X782248Y618499D03*
X772248Y618499D03*
D12*
X789248Y549499D03*
X789248Y535499D03*
X828248Y549499D03*
X828248Y535499D03*
X802248Y535499D03*
X802248Y549499D03*
D11*
X808248Y630499D03*
X798248Y630499D03*
D13*
X705248Y605706D03*
X705248Y595292D03*
D11*
X789248Y597499D03*
X789248Y587499D03*
X765248Y587499D03*
X765248Y597499D03*
X777248Y587499D03*
X777248Y597499D03*
D10*
X765248Y580499D03*
D11*
X782248Y630499D03*
X772248Y630499D03*
X798248Y618499D03*
X808248Y618499D03*
X828248Y587499D03*
X828248Y597499D03*
X828248Y572499D03*
X828248Y562499D03*
X841248Y572499D03*
X841248Y562499D03*
X841248Y587499D03*
X841248Y597499D03*
X789248Y572499D03*
X789248Y562499D03*
X815248Y547499D03*
X815248Y537499D03*
X777248Y572499D03*
X777248Y562499D03*
D10*
X777148Y580499D03*
D11*
X777248Y547499D03*
X777248Y537499D03*
X765248Y562499D03*
X765248Y572499D03*
X752248Y587499D03*
X752248Y597499D03*
X752248Y562499D03*
X752248Y572499D03*
X741248Y587499D03*
X741248Y597499D03*
D10*
X777248Y555499D03*
X752248Y555499D03*
X752248Y580499D03*
D14*
X885248Y640499D03*
X685248Y480499D03*
D10*
X875248Y520499D03*
X875248Y480499D03*
X828248Y580499D03*
X815248Y555499D03*
D15*
X695248Y675249D03*
X700248Y675249D03*
X705248Y675249D03*
X710248Y675249D03*
X715248Y675249D03*
X720248Y675249D03*
X725248Y675249D03*
X730248Y675249D03*
X735248Y675249D03*
X740248Y675249D03*
X745248Y675249D03*
X770248Y675249D03*
X775248Y675249D03*
X780248Y675249D03*
X785248Y675249D03*
X790248Y675249D03*
X795248Y675249D03*
X800248Y675249D03*
X805248Y675249D03*
X810248Y675249D03*
X815248Y675249D03*
X820248Y675249D03*
X825248Y675249D03*
X830248Y675249D03*
X835248Y675249D03*
X840248Y675249D03*
X845248Y675249D03*
X850248Y675249D03*
X855248Y675249D03*
X860248Y675249D03*
X865248Y675249D03*
X870248Y675249D03*
X875248Y675249D03*
D16*
X745248Y500499D03*
D17*
X745248Y470499D03*
D10*
X795248Y587499D03*
X1002318Y529499D03*
D11*
X1027318Y562499D03*
X1027318Y572499D03*
X1040318Y562499D03*
X1040318Y572499D03*
X1040318Y597499D03*
X1040318Y587499D03*
X990318Y547499D03*
X990318Y537499D03*
X1027318Y597499D03*
X1027318Y587499D03*
X1007318Y618499D03*
X997318Y618499D03*
D12*
X1014318Y549499D03*
X1014318Y535499D03*
X1053318Y549499D03*
X1053318Y535499D03*
X1027318Y535499D03*
X1027318Y549499D03*
D11*
X1033318Y630499D03*
X1023318Y630499D03*
D13*
X930318Y605706D03*
X930318Y595292D03*
D11*
X1014318Y597499D03*
X1014318Y587499D03*
X990318Y587499D03*
X990318Y597499D03*
X1002318Y587499D03*
X1002318Y597499D03*
D10*
X990318Y580499D03*
D11*
X1007318Y630499D03*
X997318Y630499D03*
X1023318Y618499D03*
X1033318Y618499D03*
X1053318Y587499D03*
X1053318Y597499D03*
X1053318Y572499D03*
X1053318Y562499D03*
X1066318Y572499D03*
X1066318Y562499D03*
X1066318Y587499D03*
X1066318Y597499D03*
X1014318Y572499D03*
X1014318Y562499D03*
X1040318Y547499D03*
X1040318Y537499D03*
X1002318Y572499D03*
X1002318Y562499D03*
D10*
X1002218Y580499D03*
D11*
X1002318Y547499D03*
X1002318Y537499D03*
X990318Y562499D03*
X990318Y572499D03*
X977318Y587499D03*
X977318Y597499D03*
X977318Y562499D03*
X977318Y572499D03*
X966318Y587499D03*
X966318Y597499D03*
D10*
X1002318Y555499D03*
X977318Y555499D03*
X977318Y580499D03*
D14*
X1110318Y640499D03*
X910318Y480499D03*
D10*
X1100318Y520499D03*
X1100318Y480499D03*
X1053318Y580499D03*
X1040318Y555499D03*
D15*
X920318Y675249D03*
X925318Y675249D03*
X930318Y675249D03*
X935318Y675249D03*
X940318Y675249D03*
X945318Y675249D03*
X950318Y675249D03*
X955318Y675249D03*
X960318Y675249D03*
X965318Y675249D03*
X970318Y675249D03*
X995318Y675249D03*
X1000318Y675249D03*
X1005318Y675249D03*
X1010318Y675249D03*
X1015318Y675249D03*
X1020318Y675249D03*
X1025318Y675249D03*
X1030318Y675249D03*
X1035318Y675249D03*
X1040318Y675249D03*
X1045318Y675249D03*
X1050318Y675249D03*
X1055318Y675249D03*
X1060318Y675249D03*
X1065318Y675249D03*
X1070318Y675249D03*
X1075318Y675249D03*
X1080318Y675249D03*
X1085318Y675249D03*
X1090318Y675249D03*
X1095318Y675249D03*
X1100318Y675249D03*
D16*
X970318Y500499D03*
D17*
X970318Y470499D03*
D10*
X1020318Y587499D03*
X1227413Y529499D03*
D11*
X1252413Y562499D03*
X1252413Y572499D03*
X1265413Y562499D03*
X1265413Y572499D03*
X1265413Y597499D03*
X1265413Y587499D03*
X1215413Y547499D03*
X1215413Y537499D03*
X1252413Y597499D03*
X1252413Y587499D03*
X1232413Y618499D03*
X1222413Y618499D03*
D12*
X1239413Y549499D03*
X1239413Y535499D03*
X1278413Y549499D03*
X1278413Y535499D03*
X1252413Y535499D03*
X1252413Y549499D03*
D11*
X1258413Y630499D03*
X1248413Y630499D03*
D13*
X1155413Y605706D03*
X1155413Y595292D03*
D11*
X1239413Y597499D03*
X1239413Y587499D03*
X1215413Y587499D03*
X1215413Y597499D03*
X1227413Y587499D03*
X1227413Y597499D03*
D10*
X1215413Y580499D03*
D11*
X1232413Y630499D03*
X1222413Y630499D03*
X1248413Y618499D03*
X1258413Y618499D03*
X1278413Y587499D03*
X1278413Y597499D03*
X1278413Y572499D03*
X1278413Y562499D03*
X1291413Y572499D03*
X1291413Y562499D03*
X1291413Y587499D03*
X1291413Y597499D03*
X1239413Y572499D03*
X1239413Y562499D03*
X1265413Y547499D03*
X1265413Y537499D03*
X1227413Y572499D03*
X1227413Y562499D03*
D10*
X1227313Y580499D03*
D11*
X1227413Y547499D03*
X1227413Y537499D03*
X1215413Y562499D03*
X1215413Y572499D03*
X1202413Y587499D03*
X1202413Y597499D03*
X1202413Y562499D03*
X1202413Y572499D03*
X1191413Y587499D03*
X1191413Y597499D03*
D10*
X1227413Y555499D03*
X1202413Y555499D03*
X1202413Y580499D03*
D14*
X1335413Y640499D03*
X1135413Y480499D03*
D10*
X1325413Y520499D03*
X1325413Y480499D03*
X1278413Y580499D03*
X1265413Y555499D03*
D15*
X1145413Y675249D03*
X1150413Y675249D03*
X1155413Y675249D03*
X1160413Y675249D03*
X1165413Y675249D03*
X1170413Y675249D03*
X1175413Y675249D03*
X1180413Y675249D03*
X1185413Y675249D03*
X1190413Y675249D03*
X1195413Y675249D03*
X1220413Y675249D03*
X1225413Y675249D03*
X1230413Y675249D03*
X1235413Y675249D03*
X1240413Y675249D03*
X1245413Y675249D03*
X1250413Y675249D03*
X1255413Y675249D03*
X1260413Y675249D03*
X1265413Y675249D03*
X1270413Y675249D03*
X1275413Y675249D03*
X1280413Y675249D03*
X1285413Y675249D03*
X1290413Y675249D03*
X1295413Y675249D03*
X1300413Y675249D03*
X1305413Y675249D03*
X1310413Y675249D03*
X1315413Y675249D03*
X1320413Y675249D03*
X1325413Y675249D03*
D16*
X1195413Y500499D03*
D17*
X1195413Y470499D03*
D10*
X1245413Y587499D03*
X1452482Y529499D03*
D11*
X1477482Y562499D03*
X1477482Y572499D03*
X1490482Y562499D03*
X1490482Y572499D03*
X1490482Y597499D03*
X1490482Y587499D03*
X1440482Y547499D03*
X1440482Y537499D03*
X1477482Y597499D03*
X1477482Y587499D03*
X1457482Y618499D03*
X1447482Y618499D03*
D12*
X1464482Y549499D03*
X1464482Y535499D03*
X1503482Y549499D03*
X1503482Y535499D03*
X1477482Y535499D03*
X1477482Y549499D03*
D11*
X1483482Y630499D03*
X1473482Y630499D03*
D13*
X1380482Y605706D03*
X1380482Y595292D03*
D11*
X1464482Y597499D03*
X1464482Y587499D03*
X1440482Y587499D03*
X1440482Y597499D03*
X1452482Y587499D03*
X1452482Y597499D03*
D10*
X1440482Y580499D03*
D11*
X1457482Y630499D03*
X1447482Y630499D03*
X1473482Y618499D03*
X1483482Y618499D03*
X1503482Y587499D03*
X1503482Y597499D03*
X1503482Y572499D03*
X1503482Y562499D03*
X1516482Y572499D03*
X1516482Y562499D03*
X1516482Y587499D03*
X1516482Y597499D03*
X1464482Y572499D03*
X1464482Y562499D03*
X1490482Y547499D03*
X1490482Y537499D03*
X1452482Y572499D03*
X1452482Y562499D03*
D10*
X1452382Y580499D03*
D11*
X1452482Y547499D03*
X1452482Y537499D03*
X1440482Y562499D03*
X1440482Y572499D03*
X1427482Y587499D03*
X1427482Y597499D03*
X1427482Y562499D03*
X1427482Y572499D03*
X1416482Y587499D03*
X1416482Y597499D03*
D10*
X1452482Y555499D03*
X1427482Y555499D03*
X1427482Y580499D03*
D14*
X1560482Y640499D03*
X1360482Y480499D03*
D10*
X1550482Y520499D03*
X1550482Y480499D03*
X1503482Y580499D03*
X1490482Y555499D03*
D15*
X1370482Y675249D03*
X1375482Y675249D03*
X1380482Y675249D03*
X1385482Y675249D03*
X1390482Y675249D03*
X1395482Y675249D03*
X1400482Y675249D03*
X1405482Y675249D03*
X1410482Y675249D03*
X1415482Y675249D03*
X1420482Y675249D03*
X1445482Y675249D03*
X1450482Y675249D03*
X1455482Y675249D03*
X1460482Y675249D03*
X1465482Y675249D03*
X1470482Y675249D03*
X1475482Y675249D03*
X1480482Y675249D03*
X1485482Y675249D03*
X1490482Y675249D03*
X1495482Y675249D03*
X1500482Y675249D03*
X1505482Y675249D03*
X1510482Y675249D03*
X1515482Y675249D03*
X1520482Y675249D03*
X1525482Y675249D03*
X1530482Y675249D03*
X1535482Y675249D03*
X1540482Y675249D03*
X1545482Y675249D03*
X1550482Y675249D03*
D16*
X1420482Y500499D03*
D17*
X1420482Y470499D03*
D10*
X1470482Y587499D03*
X1677551Y529499D03*
D11*
X1702551Y562499D03*
X1702551Y572499D03*
X1715551Y562499D03*
X1715551Y572499D03*
X1715551Y597499D03*
X1715551Y587499D03*
X1665551Y547499D03*
X1665551Y537499D03*
X1702551Y597499D03*
X1702551Y587499D03*
X1682551Y618499D03*
X1672551Y618499D03*
D12*
X1689551Y549499D03*
X1689551Y535499D03*
X1728551Y549499D03*
X1728551Y535499D03*
X1702551Y535499D03*
X1702551Y549499D03*
D11*
X1708551Y630499D03*
X1698551Y630499D03*
D13*
X1605551Y605706D03*
X1605551Y595292D03*
D11*
X1689551Y597499D03*
X1689551Y587499D03*
X1665551Y587499D03*
X1665551Y597499D03*
X1677551Y587499D03*
X1677551Y597499D03*
D10*
X1665551Y580499D03*
D11*
X1682551Y630499D03*
X1672551Y630499D03*
X1698551Y618499D03*
X1708551Y618499D03*
X1728551Y587499D03*
X1728551Y597499D03*
X1728551Y572499D03*
X1728551Y562499D03*
X1741551Y572499D03*
X1741551Y562499D03*
X1741551Y587499D03*
X1741551Y597499D03*
X1689551Y572499D03*
X1689551Y562499D03*
X1715551Y547499D03*
X1715551Y537499D03*
X1677551Y572499D03*
X1677551Y562499D03*
D10*
X1677451Y580499D03*
D11*
X1677551Y547499D03*
X1677551Y537499D03*
X1665551Y562499D03*
X1665551Y572499D03*
X1652551Y587499D03*
X1652551Y597499D03*
X1652551Y562499D03*
X1652551Y572499D03*
X1641551Y587499D03*
X1641551Y597499D03*
D10*
X1677551Y555499D03*
X1652551Y555499D03*
X1652551Y580499D03*
D14*
X1785551Y640499D03*
X1585551Y480499D03*
D10*
X1775551Y520499D03*
X1775551Y480499D03*
X1728551Y580499D03*
X1715551Y555499D03*
D15*
X1595551Y675249D03*
X1600551Y675249D03*
X1605551Y675249D03*
X1610551Y675249D03*
X1615551Y675249D03*
X1620551Y675249D03*
X1625551Y675249D03*
X1630551Y675249D03*
X1635551Y675249D03*
X1640551Y675249D03*
X1645551Y675249D03*
X1670551Y675249D03*
X1675551Y675249D03*
X1680551Y675249D03*
X1685551Y675249D03*
X1690551Y675249D03*
X1695551Y675249D03*
X1700551Y675249D03*
X1705551Y675249D03*
X1710551Y675249D03*
X1715551Y675249D03*
X1720551Y675249D03*
X1725551Y675249D03*
X1730551Y675249D03*
X1735551Y675249D03*
X1740551Y675249D03*
X1745551Y675249D03*
X1750551Y675249D03*
X1755551Y675249D03*
X1760551Y675249D03*
X1765551Y675249D03*
X1770551Y675249D03*
X1775551Y675249D03*
D16*
X1645551Y500499D03*
D17*
X1645551Y470499D03*
D10*
X1695551Y587499D03*
D18*
X-26238Y635000D03*
X1821815Y635000D03*
D19*
X-35293Y68580D02*
X-35290Y68802D01*
X-35282Y69024D01*
X-35268Y69246D01*
X-35249Y69468D01*
X-35225Y69688D01*
X-35195Y69909D01*
X-35160Y70128D01*
X-35119Y70347D01*
X-35073Y70564D01*
X-35022Y70780D01*
X-34965Y70995D01*
X-34903Y71209D01*
X-34836Y71420D01*
X-34764Y71631D01*
X-34686Y71839D01*
X-34604Y72045D01*
X-34516Y72249D01*
X-34424Y72452D01*
X-34326Y72651D01*
X-34224Y72848D01*
X-34117Y73043D01*
X-34005Y73235D01*
X-33888Y73424D01*
X-33767Y73611D01*
X-33641Y73794D01*
X-33511Y73974D01*
X-33376Y74151D01*
X-33238Y74324D01*
X-33095Y74494D01*
X-32947Y74661D01*
X-32796Y74824D01*
X-32641Y74983D01*
X-32482Y75138D01*
X-32319Y75289D01*
X-32152Y75437D01*
X-31982Y75580D01*
X-31809Y75718D01*
X-31632Y75853D01*
X-31452Y75983D01*
X-31269Y76109D01*
X-31082Y76230D01*
X-30893Y76347D01*
X-30701Y76459D01*
X-30506Y76566D01*
X-30309Y76668D01*
X-30110Y76766D01*
X-29907Y76858D01*
X-29703Y76946D01*
X-29497Y77028D01*
X-29289Y77106D01*
X-29078Y77178D01*
X-28867Y77245D01*
X-28653Y77307D01*
X-28438Y77364D01*
X-28222Y77415D01*
X-28005Y77461D01*
X-27786Y77502D01*
X-27567Y77537D01*
X-27346Y77567D01*
X-27126Y77591D01*
X-26904Y77610D01*
X-26682Y77624D01*
X-26460Y77632D01*
X-26238Y77635D01*
X-26016Y77632D01*
X-25794Y77624D01*
X-25572Y77610D01*
X-25350Y77591D01*
X-25130Y77567D01*
X-24909Y77537D01*
X-24690Y77502D01*
X-24471Y77461D01*
X-24254Y77415D01*
X-24038Y77364D01*
X-23823Y77307D01*
X-23609Y77245D01*
X-23398Y77178D01*
X-23187Y77106D01*
X-22979Y77028D01*
X-22773Y76946D01*
X-22569Y76858D01*
X-22366Y76766D01*
X-22167Y76668D01*
X-21970Y76566D01*
X-21775Y76459D01*
X-21583Y76347D01*
X-21394Y76230D01*
X-21207Y76109D01*
X-21024Y75983D01*
X-20844Y75853D01*
X-20667Y75718D01*
X-20494Y75580D01*
X-20324Y75437D01*
X-20157Y75289D01*
X-19994Y75138D01*
X-19835Y74983D01*
X-19680Y74824D01*
X-19529Y74661D01*
X-19381Y74494D01*
X-19238Y74324D01*
X-19100Y74151D01*
X-18965Y73974D01*
X-18835Y73794D01*
X-18709Y73611D01*
X-18588Y73424D01*
X-18471Y73235D01*
X-18359Y73043D01*
X-18252Y72848D01*
X-18150Y72651D01*
X-18052Y72452D01*
X-17960Y72249D01*
X-17872Y72045D01*
X-17790Y71839D01*
X-17712Y71631D01*
X-17640Y71420D01*
X-17573Y71209D01*
X-17511Y70995D01*
X-17454Y70780D01*
X-17403Y70564D01*
X-17357Y70347D01*
X-17316Y70128D01*
X-17281Y69909D01*
X-17251Y69688D01*
X-17227Y69468D01*
X-17208Y69246D01*
X-17194Y69024D01*
X-17186Y68802D01*
X-17183Y68580D01*
X-17186Y68358D01*
X-17194Y68136D01*
X-17208Y67914D01*
X-17227Y67692D01*
X-17251Y67472D01*
X-17281Y67251D01*
X-17316Y67032D01*
X-17357Y66813D01*
X-17403Y66596D01*
X-17454Y66380D01*
X-17511Y66165D01*
X-17573Y65951D01*
X-17640Y65740D01*
X-17712Y65529D01*
X-17790Y65321D01*
X-17872Y65115D01*
X-17960Y64911D01*
X-18052Y64708D01*
X-18150Y64509D01*
X-18252Y64312D01*
X-18359Y64117D01*
X-18471Y63925D01*
X-18588Y63736D01*
X-18709Y63549D01*
X-18835Y63366D01*
X-18965Y63186D01*
X-19100Y63009D01*
X-19238Y62836D01*
X-19381Y62666D01*
X-19529Y62499D01*
X-19680Y62336D01*
X-19835Y62177D01*
X-19994Y62022D01*
X-20157Y61871D01*
X-20324Y61723D01*
X-20494Y61580D01*
X-20667Y61442D01*
X-20844Y61307D01*
X-21024Y61177D01*
X-21207Y61051D01*
X-21394Y60930D01*
X-21583Y60813D01*
X-21775Y60701D01*
X-21970Y60594D01*
X-22167Y60492D01*
X-22366Y60394D01*
X-22569Y60302D01*
X-22773Y60214D01*
X-22979Y60132D01*
X-23187Y60054D01*
X-23398Y59982D01*
X-23609Y59915D01*
X-23823Y59853D01*
X-24038Y59796D01*
X-24254Y59745D01*
X-24471Y59699D01*
X-24690Y59658D01*
X-24909Y59623D01*
X-25130Y59593D01*
X-25350Y59569D01*
X-25572Y59550D01*
X-25794Y59536D01*
X-26016Y59528D01*
X-26238Y59525D01*
X-26460Y59528D01*
X-26682Y59536D01*
X-26904Y59550D01*
X-27126Y59569D01*
X-27346Y59593D01*
X-27567Y59623D01*
X-27786Y59658D01*
X-28005Y59699D01*
X-28222Y59745D01*
X-28438Y59796D01*
X-28653Y59853D01*
X-28867Y59915D01*
X-29078Y59982D01*
X-29289Y60054D01*
X-29497Y60132D01*
X-29703Y60214D01*
X-29907Y60302D01*
X-30110Y60394D01*
X-30309Y60492D01*
X-30506Y60594D01*
X-30701Y60701D01*
X-30893Y60813D01*
X-31082Y60930D01*
X-31269Y61051D01*
X-31452Y61177D01*
X-31632Y61307D01*
X-31809Y61442D01*
X-31982Y61580D01*
X-32152Y61723D01*
X-32319Y61871D01*
X-32482Y62022D01*
X-32641Y62177D01*
X-32796Y62336D01*
X-32947Y62499D01*
X-33095Y62666D01*
X-33238Y62836D01*
X-33376Y63009D01*
X-33511Y63186D01*
X-33641Y63366D01*
X-33767Y63549D01*
X-33888Y63736D01*
X-34005Y63925D01*
X-34117Y64117D01*
X-34224Y64312D01*
X-34326Y64509D01*
X-34424Y64708D01*
X-34516Y64911D01*
X-34604Y65115D01*
X-34686Y65321D01*
X-34764Y65529D01*
X-34836Y65740D01*
X-34903Y65951D01*
X-34965Y66165D01*
X-35022Y66380D01*
X-35073Y66596D01*
X-35119Y66813D01*
X-35160Y67032D01*
X-35195Y67251D01*
X-35225Y67472D01*
X-35249Y67692D01*
X-35268Y67914D01*
X-35282Y68136D01*
X-35290Y68358D01*
X-35293Y68580D01*
D20*
X-26238Y68580D03*
M02*
