G04 EAGLE Gerber RS-274X export*
G75*
%MOMM*%
%FSLAX34Y34*%
%LPD*%
%INSolderpaste Bottom*%
%IPPOS*%
%AMOC8*
5,1,8,0,0,1.08239X$1,22.5*%
G01*
%ADD10R,0.600000X0.600000*%
%ADD11R,0.400000X0.400000*%
%ADD12R,0.800000X0.900000*%
%ADD13R,0.460000X0.650000*%
%ADD14R,0.850000X0.500000*%
%ADD15R,0.800000X0.800000*%


D10*
X93000Y128002D03*
X93000Y118002D03*
X80000Y128002D03*
X80000Y118002D03*
X80000Y93002D03*
X80000Y103002D03*
X130000Y143002D03*
X130000Y153002D03*
X93000Y93002D03*
X93000Y103002D03*
X113000Y72002D03*
X123000Y72002D03*
D11*
X106000Y141002D03*
X106000Y155002D03*
X67000Y141002D03*
X67000Y155002D03*
X93000Y155002D03*
X93000Y141002D03*
D10*
X87000Y60002D03*
X97000Y60002D03*
X106000Y93002D03*
X106000Y103002D03*
X130000Y103002D03*
X130000Y93002D03*
X118000Y103002D03*
X118000Y93002D03*
X113000Y60002D03*
X123000Y60002D03*
X97000Y72002D03*
X87000Y72002D03*
X67000Y103002D03*
X67000Y93002D03*
X67000Y118002D03*
X67000Y128002D03*
X54000Y118002D03*
X54000Y128002D03*
X54000Y103002D03*
X54000Y93002D03*
X106000Y118002D03*
X106000Y128002D03*
X80000Y143002D03*
X80000Y153002D03*
X118000Y118002D03*
X118000Y128002D03*
X118000Y143002D03*
X118000Y153002D03*
X130000Y128002D03*
X130000Y118002D03*
X152500Y118102D03*
X152500Y128102D03*
X143000Y128002D03*
X143000Y118002D03*
X162000Y118102D03*
X162000Y128102D03*
D12*
X34900Y129702D03*
X15900Y129702D03*
X25400Y150702D03*
D13*
X30400Y90602D03*
X20400Y90602D03*
X25400Y102102D03*
D10*
X20400Y114302D03*
X30400Y114302D03*
D14*
X147350Y57252D03*
X147350Y69952D03*
X147350Y82652D03*
X147350Y95352D03*
X202850Y82652D03*
X202850Y95352D03*
X202850Y69952D03*
X202850Y57252D03*
D15*
X175100Y76302D03*
D10*
X213500Y58102D03*
X213500Y68102D03*
X318069Y128002D03*
X318069Y118002D03*
X305069Y128002D03*
X305069Y118002D03*
X305069Y93002D03*
X305069Y103002D03*
X355069Y143002D03*
X355069Y153002D03*
X318069Y93002D03*
X318069Y103002D03*
X338069Y72002D03*
X348069Y72002D03*
D11*
X331069Y141002D03*
X331069Y155002D03*
X292069Y141002D03*
X292069Y155002D03*
X318069Y155002D03*
X318069Y141002D03*
D10*
X312069Y60002D03*
X322069Y60002D03*
X331069Y93002D03*
X331069Y103002D03*
X355069Y103002D03*
X355069Y93002D03*
X343069Y103002D03*
X343069Y93002D03*
X338069Y60002D03*
X348069Y60002D03*
X322069Y72002D03*
X312069Y72002D03*
X292069Y103002D03*
X292069Y93002D03*
X292069Y118002D03*
X292069Y128002D03*
X279069Y118002D03*
X279069Y128002D03*
X279069Y103002D03*
X279069Y93002D03*
X331069Y118002D03*
X331069Y128002D03*
X305069Y143002D03*
X305069Y153002D03*
X343069Y118002D03*
X343069Y128002D03*
X343069Y143002D03*
X343069Y153002D03*
X355069Y128002D03*
X355069Y118002D03*
X377569Y118102D03*
X377569Y128102D03*
X368069Y128002D03*
X368069Y118002D03*
X387069Y118102D03*
X387069Y128102D03*
D12*
X259969Y129702D03*
X240969Y129702D03*
X250469Y150702D03*
D13*
X255469Y90602D03*
X245469Y90602D03*
X250469Y102102D03*
D10*
X245469Y114302D03*
X255469Y114302D03*
D14*
X372419Y57252D03*
X372419Y69952D03*
X372419Y82652D03*
X372419Y95352D03*
X427919Y82652D03*
X427919Y95352D03*
X427919Y69952D03*
X427919Y57252D03*
D15*
X400169Y76302D03*
D10*
X438569Y58102D03*
X438569Y68102D03*
X543164Y128002D03*
X543164Y118002D03*
X530164Y128002D03*
X530164Y118002D03*
X530164Y93002D03*
X530164Y103002D03*
X580164Y143002D03*
X580164Y153002D03*
X543164Y93002D03*
X543164Y103002D03*
X563164Y72002D03*
X573164Y72002D03*
D11*
X556164Y141002D03*
X556164Y155002D03*
X517164Y141002D03*
X517164Y155002D03*
X543164Y155002D03*
X543164Y141002D03*
D10*
X537164Y60002D03*
X547164Y60002D03*
X556164Y93002D03*
X556164Y103002D03*
X580164Y103002D03*
X580164Y93002D03*
X568164Y103002D03*
X568164Y93002D03*
X563164Y60002D03*
X573164Y60002D03*
X547164Y72002D03*
X537164Y72002D03*
X517164Y103002D03*
X517164Y93002D03*
X517164Y118002D03*
X517164Y128002D03*
X504164Y118002D03*
X504164Y128002D03*
X504164Y103002D03*
X504164Y93002D03*
X556164Y118002D03*
X556164Y128002D03*
X530164Y143002D03*
X530164Y153002D03*
X568164Y118002D03*
X568164Y128002D03*
X568164Y143002D03*
X568164Y153002D03*
X580164Y128002D03*
X580164Y118002D03*
X602664Y118102D03*
X602664Y128102D03*
X593164Y128002D03*
X593164Y118002D03*
X612164Y118102D03*
X612164Y128102D03*
D12*
X485064Y129702D03*
X466064Y129702D03*
X475564Y150702D03*
D13*
X480564Y90602D03*
X470564Y90602D03*
X475564Y102102D03*
D10*
X470564Y114302D03*
X480564Y114302D03*
D14*
X597514Y57252D03*
X597514Y69952D03*
X597514Y82652D03*
X597514Y95352D03*
X653014Y82652D03*
X653014Y95352D03*
X653014Y69952D03*
X653014Y57252D03*
D15*
X625264Y76302D03*
D10*
X663664Y58102D03*
X663664Y68102D03*
X768234Y128002D03*
X768234Y118002D03*
X755234Y128002D03*
X755234Y118002D03*
X755234Y93002D03*
X755234Y103002D03*
X805234Y143002D03*
X805234Y153002D03*
X768234Y93002D03*
X768234Y103002D03*
X788234Y72002D03*
X798234Y72002D03*
D11*
X781234Y141002D03*
X781234Y155002D03*
X742234Y141002D03*
X742234Y155002D03*
X768234Y155002D03*
X768234Y141002D03*
D10*
X762234Y60002D03*
X772234Y60002D03*
X781234Y93002D03*
X781234Y103002D03*
X805234Y103002D03*
X805234Y93002D03*
X793234Y103002D03*
X793234Y93002D03*
X788234Y60002D03*
X798234Y60002D03*
X772234Y72002D03*
X762234Y72002D03*
X742234Y103002D03*
X742234Y93002D03*
X742234Y118002D03*
X742234Y128002D03*
X729234Y118002D03*
X729234Y128002D03*
X729234Y103002D03*
X729234Y93002D03*
X781234Y118002D03*
X781234Y128002D03*
X755234Y143002D03*
X755234Y153002D03*
X793234Y118002D03*
X793234Y128002D03*
X793234Y143002D03*
X793234Y153002D03*
X805234Y128002D03*
X805234Y118002D03*
X827734Y118102D03*
X827734Y128102D03*
X818234Y128002D03*
X818234Y118002D03*
X837234Y118102D03*
X837234Y128102D03*
D12*
X710134Y129702D03*
X691134Y129702D03*
X700634Y150702D03*
D13*
X705634Y90602D03*
X695634Y90602D03*
X700634Y102102D03*
D10*
X695634Y114302D03*
X705634Y114302D03*
D14*
X822584Y57252D03*
X822584Y69952D03*
X822584Y82652D03*
X822584Y95352D03*
X878084Y82652D03*
X878084Y95352D03*
X878084Y69952D03*
X878084Y57252D03*
D15*
X850334Y76302D03*
D10*
X888734Y58102D03*
X888734Y68102D03*
X993328Y128002D03*
X993328Y118002D03*
X980328Y128002D03*
X980328Y118002D03*
X980328Y93002D03*
X980328Y103002D03*
X1030328Y143002D03*
X1030328Y153002D03*
X993328Y93002D03*
X993328Y103002D03*
X1013328Y72002D03*
X1023328Y72002D03*
D11*
X1006328Y141002D03*
X1006328Y155002D03*
X967328Y141002D03*
X967328Y155002D03*
X993328Y155002D03*
X993328Y141002D03*
D10*
X987328Y60002D03*
X997328Y60002D03*
X1006328Y93002D03*
X1006328Y103002D03*
X1030328Y103002D03*
X1030328Y93002D03*
X1018328Y103002D03*
X1018328Y93002D03*
X1013328Y60002D03*
X1023328Y60002D03*
X997328Y72002D03*
X987328Y72002D03*
X967328Y103002D03*
X967328Y93002D03*
X967328Y118002D03*
X967328Y128002D03*
X954328Y118002D03*
X954328Y128002D03*
X954328Y103002D03*
X954328Y93002D03*
X1006328Y118002D03*
X1006328Y128002D03*
X980328Y143002D03*
X980328Y153002D03*
X1018328Y118002D03*
X1018328Y128002D03*
X1018328Y143002D03*
X1018328Y153002D03*
X1030328Y128002D03*
X1030328Y118002D03*
X1052828Y118102D03*
X1052828Y128102D03*
X1043328Y128002D03*
X1043328Y118002D03*
X1062328Y118102D03*
X1062328Y128102D03*
D12*
X935228Y129702D03*
X916228Y129702D03*
X925728Y150702D03*
D13*
X930728Y90602D03*
X920728Y90602D03*
X925728Y102102D03*
D10*
X920728Y114302D03*
X930728Y114302D03*
D14*
X1047678Y57252D03*
X1047678Y69952D03*
X1047678Y82652D03*
X1047678Y95352D03*
X1103178Y82652D03*
X1103178Y95352D03*
X1103178Y69952D03*
X1103178Y57252D03*
D15*
X1075428Y76302D03*
D10*
X1113828Y58102D03*
X1113828Y68102D03*
X1218398Y128002D03*
X1218398Y118002D03*
X1205398Y128002D03*
X1205398Y118002D03*
X1205398Y93002D03*
X1205398Y103002D03*
X1255398Y143002D03*
X1255398Y153002D03*
X1218398Y93002D03*
X1218398Y103002D03*
X1238398Y72002D03*
X1248398Y72002D03*
D11*
X1231398Y141002D03*
X1231398Y155002D03*
X1192398Y141002D03*
X1192398Y155002D03*
X1218398Y155002D03*
X1218398Y141002D03*
D10*
X1212398Y60002D03*
X1222398Y60002D03*
X1231398Y93002D03*
X1231398Y103002D03*
X1255398Y103002D03*
X1255398Y93002D03*
X1243398Y103002D03*
X1243398Y93002D03*
X1238398Y60002D03*
X1248398Y60002D03*
X1222398Y72002D03*
X1212398Y72002D03*
X1192398Y103002D03*
X1192398Y93002D03*
X1192398Y118002D03*
X1192398Y128002D03*
X1179398Y118002D03*
X1179398Y128002D03*
X1179398Y103002D03*
X1179398Y93002D03*
X1231398Y118002D03*
X1231398Y128002D03*
X1205398Y143002D03*
X1205398Y153002D03*
X1243398Y118002D03*
X1243398Y128002D03*
X1243398Y143002D03*
X1243398Y153002D03*
X1255398Y128002D03*
X1255398Y118002D03*
X1277898Y118102D03*
X1277898Y128102D03*
X1268398Y128002D03*
X1268398Y118002D03*
X1287398Y118102D03*
X1287398Y128102D03*
D12*
X1160298Y129702D03*
X1141298Y129702D03*
X1150798Y150702D03*
D13*
X1155798Y90602D03*
X1145798Y90602D03*
X1150798Y102102D03*
D10*
X1145798Y114302D03*
X1155798Y114302D03*
D14*
X1272748Y57252D03*
X1272748Y69952D03*
X1272748Y82652D03*
X1272748Y95352D03*
X1328248Y82652D03*
X1328248Y95352D03*
X1328248Y69952D03*
X1328248Y57252D03*
D15*
X1300498Y76302D03*
D10*
X1338898Y58102D03*
X1338898Y68102D03*
X1443493Y128002D03*
X1443493Y118002D03*
X1430493Y128002D03*
X1430493Y118002D03*
X1430493Y93002D03*
X1430493Y103002D03*
X1480493Y143002D03*
X1480493Y153002D03*
X1443493Y93002D03*
X1443493Y103002D03*
X1463493Y72002D03*
X1473493Y72002D03*
D11*
X1456493Y141002D03*
X1456493Y155002D03*
X1417493Y141002D03*
X1417493Y155002D03*
X1443493Y155002D03*
X1443493Y141002D03*
D10*
X1437493Y60002D03*
X1447493Y60002D03*
X1456493Y93002D03*
X1456493Y103002D03*
X1480493Y103002D03*
X1480493Y93002D03*
X1468493Y103002D03*
X1468493Y93002D03*
X1463493Y60002D03*
X1473493Y60002D03*
X1447493Y72002D03*
X1437493Y72002D03*
X1417493Y103002D03*
X1417493Y93002D03*
X1417493Y118002D03*
X1417493Y128002D03*
X1404493Y118002D03*
X1404493Y128002D03*
X1404493Y103002D03*
X1404493Y93002D03*
X1456493Y118002D03*
X1456493Y128002D03*
X1430493Y143002D03*
X1430493Y153002D03*
X1468493Y118002D03*
X1468493Y128002D03*
X1468493Y143002D03*
X1468493Y153002D03*
X1480493Y128002D03*
X1480493Y118002D03*
X1502993Y118102D03*
X1502993Y128102D03*
X1493493Y128002D03*
X1493493Y118002D03*
X1512493Y118102D03*
X1512493Y128102D03*
D12*
X1385393Y129702D03*
X1366393Y129702D03*
X1375893Y150702D03*
D13*
X1380893Y90602D03*
X1370893Y90602D03*
X1375893Y102102D03*
D10*
X1370893Y114302D03*
X1380893Y114302D03*
D14*
X1497843Y57252D03*
X1497843Y69952D03*
X1497843Y82652D03*
X1497843Y95352D03*
X1553343Y82652D03*
X1553343Y95352D03*
X1553343Y69952D03*
X1553343Y57252D03*
D15*
X1525593Y76302D03*
D10*
X1563993Y58102D03*
X1563993Y68102D03*
X1668562Y128002D03*
X1668562Y118002D03*
X1655562Y128002D03*
X1655562Y118002D03*
X1655562Y93002D03*
X1655562Y103002D03*
X1705562Y143002D03*
X1705562Y153002D03*
X1668562Y93002D03*
X1668562Y103002D03*
X1688562Y72002D03*
X1698562Y72002D03*
D11*
X1681562Y141002D03*
X1681562Y155002D03*
X1642562Y141002D03*
X1642562Y155002D03*
X1668562Y155002D03*
X1668562Y141002D03*
D10*
X1662562Y60002D03*
X1672562Y60002D03*
X1681562Y93002D03*
X1681562Y103002D03*
X1705562Y103002D03*
X1705562Y93002D03*
X1693562Y103002D03*
X1693562Y93002D03*
X1688562Y60002D03*
X1698562Y60002D03*
X1672562Y72002D03*
X1662562Y72002D03*
X1642562Y103002D03*
X1642562Y93002D03*
X1642562Y118002D03*
X1642562Y128002D03*
X1629562Y118002D03*
X1629562Y128002D03*
X1629562Y103002D03*
X1629562Y93002D03*
X1681562Y118002D03*
X1681562Y128002D03*
X1655562Y143002D03*
X1655562Y153002D03*
X1693562Y118002D03*
X1693562Y128002D03*
X1693562Y143002D03*
X1693562Y153002D03*
X1705562Y128002D03*
X1705562Y118002D03*
X1728062Y118102D03*
X1728062Y128102D03*
X1718562Y128002D03*
X1718562Y118002D03*
X1737562Y118102D03*
X1737562Y128102D03*
D12*
X1610462Y129702D03*
X1591462Y129702D03*
X1600962Y150702D03*
D13*
X1605962Y90602D03*
X1595962Y90602D03*
X1600962Y102102D03*
D10*
X1595962Y114302D03*
X1605962Y114302D03*
D14*
X1722912Y57252D03*
X1722912Y69952D03*
X1722912Y82652D03*
X1722912Y95352D03*
X1778412Y82652D03*
X1778412Y95352D03*
X1778412Y69952D03*
X1778412Y57252D03*
D15*
X1750662Y76302D03*
D10*
X1789062Y58102D03*
X1789062Y68102D03*
X126989Y570498D03*
X126989Y580498D03*
X139989Y570498D03*
X139989Y580498D03*
X139989Y605498D03*
X139989Y595498D03*
X89989Y555498D03*
X89989Y545498D03*
X126989Y605498D03*
X126989Y595498D03*
X106989Y626498D03*
X96989Y626498D03*
D11*
X113989Y557498D03*
X113989Y543498D03*
X152989Y557498D03*
X152989Y543498D03*
X126989Y543498D03*
X126989Y557498D03*
D10*
X132989Y638498D03*
X122989Y638498D03*
X113989Y605498D03*
X113989Y595498D03*
X89989Y595498D03*
X89989Y605498D03*
X101989Y595498D03*
X101989Y605498D03*
X106989Y638498D03*
X96989Y638498D03*
X122989Y626498D03*
X132989Y626498D03*
X152989Y595498D03*
X152989Y605498D03*
X152989Y580498D03*
X152989Y570498D03*
X165989Y580498D03*
X165989Y570498D03*
X165989Y595498D03*
X165989Y605498D03*
X113989Y580498D03*
X113989Y570498D03*
X139989Y555498D03*
X139989Y545498D03*
X101989Y580498D03*
X101989Y570498D03*
X101989Y555498D03*
X101989Y545498D03*
X89989Y570498D03*
X89989Y580498D03*
X67489Y580398D03*
X67489Y570398D03*
X76989Y570498D03*
X76989Y580498D03*
X57989Y580398D03*
X57989Y570398D03*
D12*
X185089Y568798D03*
X204089Y568798D03*
X194589Y547798D03*
D13*
X189589Y607898D03*
X199589Y607898D03*
X194589Y596398D03*
D10*
X199589Y584198D03*
X189589Y584198D03*
D14*
X72639Y641248D03*
X72639Y628548D03*
X72639Y615848D03*
X72639Y603148D03*
X17139Y615848D03*
X17139Y603148D03*
X17139Y628548D03*
X17139Y641248D03*
D15*
X44889Y622198D03*
D10*
X6489Y640398D03*
X6489Y630398D03*
X352084Y570498D03*
X352084Y580498D03*
X365084Y570498D03*
X365084Y580498D03*
X365084Y605498D03*
X365084Y595498D03*
X315084Y555498D03*
X315084Y545498D03*
X352084Y605498D03*
X352084Y595498D03*
X332084Y626498D03*
X322084Y626498D03*
D11*
X339084Y557498D03*
X339084Y543498D03*
X378084Y557498D03*
X378084Y543498D03*
X352084Y543498D03*
X352084Y557498D03*
D10*
X358084Y638498D03*
X348084Y638498D03*
X339084Y605498D03*
X339084Y595498D03*
X315084Y595498D03*
X315084Y605498D03*
X327084Y595498D03*
X327084Y605498D03*
X332084Y638498D03*
X322084Y638498D03*
X348084Y626498D03*
X358084Y626498D03*
X378084Y595498D03*
X378084Y605498D03*
X378084Y580498D03*
X378084Y570498D03*
X391084Y580498D03*
X391084Y570498D03*
X391084Y595498D03*
X391084Y605498D03*
X339084Y580498D03*
X339084Y570498D03*
X365084Y555498D03*
X365084Y545498D03*
X327084Y580498D03*
X327084Y570498D03*
X327084Y555498D03*
X327084Y545498D03*
X315084Y570498D03*
X315084Y580498D03*
X292584Y580398D03*
X292584Y570398D03*
X302084Y570498D03*
X302084Y580498D03*
X283084Y580398D03*
X283084Y570398D03*
D12*
X410184Y568798D03*
X429184Y568798D03*
X419684Y547798D03*
D13*
X414684Y607898D03*
X424684Y607898D03*
X419684Y596398D03*
D10*
X424684Y584198D03*
X414684Y584198D03*
D14*
X297734Y641248D03*
X297734Y628548D03*
X297734Y615848D03*
X297734Y603148D03*
X242234Y615848D03*
X242234Y603148D03*
X242234Y628548D03*
X242234Y641248D03*
D15*
X269984Y622198D03*
D10*
X231584Y640398D03*
X231584Y630398D03*
X577154Y570498D03*
X577154Y580498D03*
X590154Y570498D03*
X590154Y580498D03*
X590154Y605498D03*
X590154Y595498D03*
X540154Y555498D03*
X540154Y545498D03*
X577154Y605498D03*
X577154Y595498D03*
X557154Y626498D03*
X547154Y626498D03*
D11*
X564154Y557498D03*
X564154Y543498D03*
X603154Y557498D03*
X603154Y543498D03*
X577154Y543498D03*
X577154Y557498D03*
D10*
X583154Y638498D03*
X573154Y638498D03*
X564154Y605498D03*
X564154Y595498D03*
X540154Y595498D03*
X540154Y605498D03*
X552154Y595498D03*
X552154Y605498D03*
X557154Y638498D03*
X547154Y638498D03*
X573154Y626498D03*
X583154Y626498D03*
X603154Y595498D03*
X603154Y605498D03*
X603154Y580498D03*
X603154Y570498D03*
X616154Y580498D03*
X616154Y570498D03*
X616154Y595498D03*
X616154Y605498D03*
X564154Y580498D03*
X564154Y570498D03*
X590154Y555498D03*
X590154Y545498D03*
X552154Y580498D03*
X552154Y570498D03*
X552154Y555498D03*
X552154Y545498D03*
X540154Y570498D03*
X540154Y580498D03*
X517654Y580398D03*
X517654Y570398D03*
X527154Y570498D03*
X527154Y580498D03*
X508154Y580398D03*
X508154Y570398D03*
D12*
X635254Y568798D03*
X654254Y568798D03*
X644754Y547798D03*
D13*
X639754Y607898D03*
X649754Y607898D03*
X644754Y596398D03*
D10*
X649754Y584198D03*
X639754Y584198D03*
D14*
X522804Y641248D03*
X522804Y628548D03*
X522804Y615848D03*
X522804Y603148D03*
X467304Y615848D03*
X467304Y603148D03*
X467304Y628548D03*
X467304Y641248D03*
D15*
X495054Y622198D03*
D10*
X456654Y640398D03*
X456654Y630398D03*
X802248Y570498D03*
X802248Y580498D03*
X815248Y570498D03*
X815248Y580498D03*
X815248Y605498D03*
X815248Y595498D03*
X765248Y555498D03*
X765248Y545498D03*
X802248Y605498D03*
X802248Y595498D03*
X782248Y626498D03*
X772248Y626498D03*
D11*
X789248Y557498D03*
X789248Y543498D03*
X828248Y557498D03*
X828248Y543498D03*
X802248Y543498D03*
X802248Y557498D03*
D10*
X808248Y638498D03*
X798248Y638498D03*
X789248Y605498D03*
X789248Y595498D03*
X765248Y595498D03*
X765248Y605498D03*
X777248Y595498D03*
X777248Y605498D03*
X782248Y638498D03*
X772248Y638498D03*
X798248Y626498D03*
X808248Y626498D03*
X828248Y595498D03*
X828248Y605498D03*
X828248Y580498D03*
X828248Y570498D03*
X841248Y580498D03*
X841248Y570498D03*
X841248Y595498D03*
X841248Y605498D03*
X789248Y580498D03*
X789248Y570498D03*
X815248Y555498D03*
X815248Y545498D03*
X777248Y580498D03*
X777248Y570498D03*
X777248Y555498D03*
X777248Y545498D03*
X765248Y570498D03*
X765248Y580498D03*
X742748Y580398D03*
X742748Y570398D03*
X752248Y570498D03*
X752248Y580498D03*
X733248Y580398D03*
X733248Y570398D03*
D12*
X860348Y568798D03*
X879348Y568798D03*
X869848Y547798D03*
D13*
X864848Y607898D03*
X874848Y607898D03*
X869848Y596398D03*
D10*
X874848Y584198D03*
X864848Y584198D03*
D14*
X747898Y641248D03*
X747898Y628548D03*
X747898Y615848D03*
X747898Y603148D03*
X692398Y615848D03*
X692398Y603148D03*
X692398Y628548D03*
X692398Y641248D03*
D15*
X720148Y622198D03*
D10*
X681748Y640398D03*
X681748Y630398D03*
X1027318Y570498D03*
X1027318Y580498D03*
X1040318Y570498D03*
X1040318Y580498D03*
X1040318Y605498D03*
X1040318Y595498D03*
X990318Y555498D03*
X990318Y545498D03*
X1027318Y605498D03*
X1027318Y595498D03*
X1007318Y626498D03*
X997318Y626498D03*
D11*
X1014318Y557498D03*
X1014318Y543498D03*
X1053318Y557498D03*
X1053318Y543498D03*
X1027318Y543498D03*
X1027318Y557498D03*
D10*
X1033318Y638498D03*
X1023318Y638498D03*
X1014318Y605498D03*
X1014318Y595498D03*
X990318Y595498D03*
X990318Y605498D03*
X1002318Y595498D03*
X1002318Y605498D03*
X1007318Y638498D03*
X997318Y638498D03*
X1023318Y626498D03*
X1033318Y626498D03*
X1053318Y595498D03*
X1053318Y605498D03*
X1053318Y580498D03*
X1053318Y570498D03*
X1066318Y580498D03*
X1066318Y570498D03*
X1066318Y595498D03*
X1066318Y605498D03*
X1014318Y580498D03*
X1014318Y570498D03*
X1040318Y555498D03*
X1040318Y545498D03*
X1002318Y580498D03*
X1002318Y570498D03*
X1002318Y555498D03*
X1002318Y545498D03*
X990318Y570498D03*
X990318Y580498D03*
X967818Y580398D03*
X967818Y570398D03*
X977318Y570498D03*
X977318Y580498D03*
X958318Y580398D03*
X958318Y570398D03*
D12*
X1085418Y568798D03*
X1104418Y568798D03*
X1094918Y547798D03*
D13*
X1089918Y607898D03*
X1099918Y607898D03*
X1094918Y596398D03*
D10*
X1099918Y584198D03*
X1089918Y584198D03*
D14*
X972968Y641248D03*
X972968Y628548D03*
X972968Y615848D03*
X972968Y603148D03*
X917468Y615848D03*
X917468Y603148D03*
X917468Y628548D03*
X917468Y641248D03*
D15*
X945218Y622198D03*
D10*
X906818Y640398D03*
X906818Y630398D03*
X1252413Y570498D03*
X1252413Y580498D03*
X1265413Y570498D03*
X1265413Y580498D03*
X1265413Y605498D03*
X1265413Y595498D03*
X1215413Y555498D03*
X1215413Y545498D03*
X1252413Y605498D03*
X1252413Y595498D03*
X1232413Y626498D03*
X1222413Y626498D03*
D11*
X1239413Y557498D03*
X1239413Y543498D03*
X1278413Y557498D03*
X1278413Y543498D03*
X1252413Y543498D03*
X1252413Y557498D03*
D10*
X1258413Y638498D03*
X1248413Y638498D03*
X1239413Y605498D03*
X1239413Y595498D03*
X1215413Y595498D03*
X1215413Y605498D03*
X1227413Y595498D03*
X1227413Y605498D03*
X1232413Y638498D03*
X1222413Y638498D03*
X1248413Y626498D03*
X1258413Y626498D03*
X1278413Y595498D03*
X1278413Y605498D03*
X1278413Y580498D03*
X1278413Y570498D03*
X1291413Y580498D03*
X1291413Y570498D03*
X1291413Y595498D03*
X1291413Y605498D03*
X1239413Y580498D03*
X1239413Y570498D03*
X1265413Y555498D03*
X1265413Y545498D03*
X1227413Y580498D03*
X1227413Y570498D03*
X1227413Y555498D03*
X1227413Y545498D03*
X1215413Y570498D03*
X1215413Y580498D03*
X1192913Y580398D03*
X1192913Y570398D03*
X1202413Y570498D03*
X1202413Y580498D03*
X1183413Y580398D03*
X1183413Y570398D03*
D12*
X1310513Y568798D03*
X1329513Y568798D03*
X1320013Y547798D03*
D13*
X1315013Y607898D03*
X1325013Y607898D03*
X1320013Y596398D03*
D10*
X1325013Y584198D03*
X1315013Y584198D03*
D14*
X1198063Y641248D03*
X1198063Y628548D03*
X1198063Y615848D03*
X1198063Y603148D03*
X1142563Y615848D03*
X1142563Y603148D03*
X1142563Y628548D03*
X1142563Y641248D03*
D15*
X1170313Y622198D03*
D10*
X1131913Y640398D03*
X1131913Y630398D03*
X1477482Y570498D03*
X1477482Y580498D03*
X1490482Y570498D03*
X1490482Y580498D03*
X1490482Y605498D03*
X1490482Y595498D03*
X1440482Y555498D03*
X1440482Y545498D03*
X1477482Y605498D03*
X1477482Y595498D03*
X1457482Y626498D03*
X1447482Y626498D03*
D11*
X1464482Y557498D03*
X1464482Y543498D03*
X1503482Y557498D03*
X1503482Y543498D03*
X1477482Y543498D03*
X1477482Y557498D03*
D10*
X1483482Y638498D03*
X1473482Y638498D03*
X1464482Y605498D03*
X1464482Y595498D03*
X1440482Y595498D03*
X1440482Y605498D03*
X1452482Y595498D03*
X1452482Y605498D03*
X1457482Y638498D03*
X1447482Y638498D03*
X1473482Y626498D03*
X1483482Y626498D03*
X1503482Y595498D03*
X1503482Y605498D03*
X1503482Y580498D03*
X1503482Y570498D03*
X1516482Y580498D03*
X1516482Y570498D03*
X1516482Y595498D03*
X1516482Y605498D03*
X1464482Y580498D03*
X1464482Y570498D03*
X1490482Y555498D03*
X1490482Y545498D03*
X1452482Y580498D03*
X1452482Y570498D03*
X1452482Y555498D03*
X1452482Y545498D03*
X1440482Y570498D03*
X1440482Y580498D03*
X1417982Y580398D03*
X1417982Y570398D03*
X1427482Y570498D03*
X1427482Y580498D03*
X1408482Y580398D03*
X1408482Y570398D03*
D12*
X1535582Y568798D03*
X1554582Y568798D03*
X1545082Y547798D03*
D13*
X1540082Y607898D03*
X1550082Y607898D03*
X1545082Y596398D03*
D10*
X1550082Y584198D03*
X1540082Y584198D03*
D14*
X1423132Y641248D03*
X1423132Y628548D03*
X1423132Y615848D03*
X1423132Y603148D03*
X1367632Y615848D03*
X1367632Y603148D03*
X1367632Y628548D03*
X1367632Y641248D03*
D15*
X1395382Y622198D03*
D10*
X1356982Y640398D03*
X1356982Y630398D03*
X1702551Y570498D03*
X1702551Y580498D03*
X1715551Y570498D03*
X1715551Y580498D03*
X1715551Y605498D03*
X1715551Y595498D03*
X1665551Y555498D03*
X1665551Y545498D03*
X1702551Y605498D03*
X1702551Y595498D03*
X1682551Y626498D03*
X1672551Y626498D03*
D11*
X1689551Y557498D03*
X1689551Y543498D03*
X1728551Y557498D03*
X1728551Y543498D03*
X1702551Y543498D03*
X1702551Y557498D03*
D10*
X1708551Y638498D03*
X1698551Y638498D03*
X1689551Y605498D03*
X1689551Y595498D03*
X1665551Y595498D03*
X1665551Y605498D03*
X1677551Y595498D03*
X1677551Y605498D03*
X1682551Y638498D03*
X1672551Y638498D03*
X1698551Y626498D03*
X1708551Y626498D03*
X1728551Y595498D03*
X1728551Y605498D03*
X1728551Y580498D03*
X1728551Y570498D03*
X1741551Y580498D03*
X1741551Y570498D03*
X1741551Y595498D03*
X1741551Y605498D03*
X1689551Y580498D03*
X1689551Y570498D03*
X1715551Y555498D03*
X1715551Y545498D03*
X1677551Y580498D03*
X1677551Y570498D03*
X1677551Y555498D03*
X1677551Y545498D03*
X1665551Y570498D03*
X1665551Y580498D03*
X1643051Y580398D03*
X1643051Y570398D03*
X1652551Y570498D03*
X1652551Y580498D03*
X1633551Y580398D03*
X1633551Y570398D03*
D12*
X1760651Y568798D03*
X1779651Y568798D03*
X1770151Y547798D03*
D13*
X1765151Y607898D03*
X1775151Y607898D03*
X1770151Y596398D03*
D10*
X1775151Y584198D03*
X1765151Y584198D03*
D14*
X1648201Y641248D03*
X1648201Y628548D03*
X1648201Y615848D03*
X1648201Y603148D03*
X1592701Y615848D03*
X1592701Y603148D03*
X1592701Y628548D03*
X1592701Y641248D03*
D15*
X1620451Y622198D03*
D10*
X1582051Y640398D03*
X1582051Y630398D03*
M02*
