G04 EAGLE Gerber RS-274X export*
G75*
%MOMM*%
%FSLAX34Y34*%
%LPD*%
%INSolderpaste Top*%
%IPPOS*%
%AMOC8*
5,1,8,0,0,1.08239X$1,22.5*%
G01*
%ADD10C,0.234000*%
%ADD11C,0.300000*%
%ADD12R,0.600000X0.600000*%
%ADD13R,1.800000X1.000000*%
%ADD14R,0.700000X0.750000*%
%ADD15R,0.200000X0.200000*%
%ADD16R,0.240000X0.850000*%
%ADD17R,0.850000X0.240000*%
%ADD18R,2.000000X0.800000*%


D10*
X37750Y67752D03*
X37750Y74252D03*
X44250Y67752D03*
X44250Y74252D03*
X37750Y80752D03*
X37750Y87252D03*
X44250Y80752D03*
X44250Y87252D03*
X37750Y93752D03*
X37750Y100252D03*
X44250Y93752D03*
X44250Y100252D03*
X37750Y106752D03*
X37750Y113252D03*
X44250Y106752D03*
X44250Y113252D03*
X37750Y119752D03*
X44250Y119752D03*
X37750Y126252D03*
X37750Y132752D03*
X44250Y126252D03*
X44250Y132752D03*
X37750Y139252D03*
X37750Y145752D03*
X44250Y139252D03*
X44250Y145752D03*
X37750Y152252D03*
X44250Y152252D03*
X50750Y67752D03*
X57250Y67752D03*
X63750Y67752D03*
X70250Y67752D03*
X76750Y67752D03*
X83250Y67752D03*
X89750Y67752D03*
X96250Y67752D03*
X102750Y67752D03*
X109250Y67752D03*
X115750Y67752D03*
X122250Y67752D03*
X50750Y74252D03*
X57250Y74252D03*
X63750Y74252D03*
X70250Y74252D03*
X76750Y74252D03*
X83250Y74252D03*
X89750Y74252D03*
X96250Y74252D03*
X102750Y74252D03*
X109250Y74252D03*
X115750Y74252D03*
X122250Y74252D03*
X50750Y80752D03*
X57250Y80752D03*
X63750Y80752D03*
X70250Y80752D03*
X76750Y80752D03*
X83250Y80752D03*
X89750Y80752D03*
X96250Y80752D03*
X102750Y80752D03*
X109250Y80752D03*
X115750Y80752D03*
X122250Y80752D03*
X50750Y87252D03*
X57250Y87252D03*
X63750Y87252D03*
X70250Y87252D03*
X76750Y87252D03*
X83250Y87252D03*
X89750Y87252D03*
X96250Y87252D03*
X102750Y87252D03*
X109250Y87252D03*
X115750Y87252D03*
X122250Y87252D03*
X50750Y93752D03*
X57250Y93752D03*
X63750Y93752D03*
X70250Y93752D03*
X76750Y93752D03*
X83250Y93752D03*
X89750Y93752D03*
X96250Y93752D03*
X102750Y93752D03*
X109250Y93752D03*
X115750Y93752D03*
X122250Y93752D03*
X50750Y100252D03*
X57250Y100252D03*
X63750Y100252D03*
X70250Y100252D03*
X76750Y100252D03*
X83250Y100252D03*
X89750Y100252D03*
X96250Y100252D03*
X102750Y100252D03*
X109250Y100252D03*
X115750Y100252D03*
X122250Y100252D03*
X50750Y106752D03*
X57250Y106752D03*
X63750Y106752D03*
X70250Y106752D03*
X76750Y106752D03*
X83250Y106752D03*
X89750Y106752D03*
X96250Y106752D03*
X102750Y106752D03*
X109250Y106752D03*
X115750Y106752D03*
X122250Y106752D03*
X50750Y113252D03*
X57250Y113252D03*
X63750Y113252D03*
X70250Y113252D03*
X76750Y113252D03*
X83250Y113252D03*
X89750Y113252D03*
X96250Y113252D03*
X102750Y113252D03*
X109250Y113252D03*
X115750Y113252D03*
X122250Y113252D03*
X50750Y119752D03*
X57250Y119752D03*
X63750Y119752D03*
X70250Y119752D03*
X76750Y119752D03*
X83250Y119752D03*
X89750Y119752D03*
X96250Y119752D03*
X102750Y119752D03*
X109250Y119752D03*
X115750Y119752D03*
X122250Y119752D03*
X50750Y126252D03*
X57250Y126252D03*
X63750Y126252D03*
X70250Y126252D03*
X76750Y126252D03*
X83250Y126252D03*
X89750Y126252D03*
X96250Y126252D03*
X102750Y126252D03*
X109250Y126252D03*
X115750Y126252D03*
X122250Y126252D03*
X50750Y132752D03*
X57250Y132752D03*
X63750Y132752D03*
X70250Y132752D03*
X76750Y132752D03*
X83250Y132752D03*
X89750Y132752D03*
X96250Y132752D03*
X102750Y132752D03*
X109250Y132752D03*
X115750Y132752D03*
X122250Y132752D03*
X50750Y139252D03*
X57250Y139252D03*
X63750Y139252D03*
X70250Y139252D03*
X76750Y139252D03*
X83250Y139252D03*
X89750Y139252D03*
X96250Y139252D03*
X102750Y139252D03*
X109250Y139252D03*
X115750Y139252D03*
X122250Y139252D03*
X50750Y145752D03*
X57250Y145752D03*
X63750Y145752D03*
X70250Y145752D03*
X76750Y145752D03*
X83250Y145752D03*
X89750Y145752D03*
X96250Y145752D03*
X102750Y145752D03*
X109250Y145752D03*
X115750Y145752D03*
X122250Y145752D03*
X50750Y152252D03*
X57250Y152252D03*
X63750Y152252D03*
X70250Y152252D03*
X76750Y152252D03*
X83250Y152252D03*
X89750Y152252D03*
X96250Y152252D03*
X102750Y152252D03*
X109250Y152252D03*
X115750Y152252D03*
X122250Y152252D03*
D11*
X194730Y206502D02*
X194730Y213502D01*
X194730Y206502D02*
X187730Y206502D01*
X187730Y213502D01*
X194730Y213502D01*
X194730Y209352D02*
X187730Y209352D01*
X187730Y212202D02*
X194730Y212202D01*
X212270Y213502D02*
X212270Y206502D01*
X205270Y206502D01*
X205270Y213502D01*
X212270Y213502D01*
X212270Y209352D02*
X205270Y209352D01*
X205270Y212202D02*
X212270Y212202D01*
D12*
X210000Y105002D03*
X210000Y95002D03*
D13*
X176000Y152502D03*
X176000Y127502D03*
D12*
X190000Y155002D03*
X190000Y145002D03*
X190000Y125002D03*
X190000Y135002D03*
X136500Y145002D03*
X136500Y135002D03*
X146000Y120002D03*
X156000Y120002D03*
X146000Y159002D03*
X156000Y159002D03*
D14*
X146000Y133252D03*
X146000Y146752D03*
X156000Y146752D03*
X156000Y133252D03*
D12*
X10000Y185002D03*
X10000Y175002D03*
X182800Y101602D03*
X172800Y101602D03*
X182800Y114302D03*
X172800Y114302D03*
D15*
X44000Y186002D03*
X44000Y194002D03*
X36000Y194002D03*
X36000Y186002D03*
D16*
X47550Y175002D03*
X42550Y175002D03*
X37550Y175002D03*
X32550Y175002D03*
D17*
X55000Y197552D03*
X55000Y192552D03*
X55000Y187552D03*
X55000Y182552D03*
D16*
X32450Y205002D03*
X37450Y205002D03*
X42450Y205002D03*
X47450Y205002D03*
D17*
X25000Y197552D03*
X25000Y192552D03*
X25000Y187552D03*
X25000Y182552D03*
D12*
X115000Y210002D03*
X105000Y210002D03*
D11*
X85270Y206502D02*
X85270Y213502D01*
X92270Y213502D01*
X92270Y206502D01*
X85270Y206502D01*
X85270Y209352D02*
X92270Y209352D01*
X92270Y212202D02*
X85270Y212202D01*
X67730Y213502D02*
X67730Y206502D01*
X67730Y213502D02*
X74730Y213502D01*
X74730Y206502D01*
X67730Y206502D01*
X67730Y209352D02*
X74730Y209352D01*
X74730Y212202D02*
X67730Y212202D01*
D12*
X10000Y195002D03*
X10000Y205002D03*
D18*
X162500Y64602D03*
X162500Y82602D03*
D10*
X262819Y67752D03*
X262819Y74252D03*
X269319Y67752D03*
X269319Y74252D03*
X262819Y80752D03*
X262819Y87252D03*
X269319Y80752D03*
X269319Y87252D03*
X262819Y93752D03*
X262819Y100252D03*
X269319Y93752D03*
X269319Y100252D03*
X262819Y106752D03*
X262819Y113252D03*
X269319Y106752D03*
X269319Y113252D03*
X262819Y119752D03*
X269319Y119752D03*
X262819Y126252D03*
X262819Y132752D03*
X269319Y126252D03*
X269319Y132752D03*
X262819Y139252D03*
X262819Y145752D03*
X269319Y139252D03*
X269319Y145752D03*
X262819Y152252D03*
X269319Y152252D03*
X275819Y67752D03*
X282319Y67752D03*
X288819Y67752D03*
X295319Y67752D03*
X301819Y67752D03*
X308319Y67752D03*
X314819Y67752D03*
X321319Y67752D03*
X327819Y67752D03*
X334319Y67752D03*
X340819Y67752D03*
X347319Y67752D03*
X275819Y74252D03*
X282319Y74252D03*
X288819Y74252D03*
X295319Y74252D03*
X301819Y74252D03*
X308319Y74252D03*
X314819Y74252D03*
X321319Y74252D03*
X327819Y74252D03*
X334319Y74252D03*
X340819Y74252D03*
X347319Y74252D03*
X275819Y80752D03*
X282319Y80752D03*
X288819Y80752D03*
X295319Y80752D03*
X301819Y80752D03*
X308319Y80752D03*
X314819Y80752D03*
X321319Y80752D03*
X327819Y80752D03*
X334319Y80752D03*
X340819Y80752D03*
X347319Y80752D03*
X275819Y87252D03*
X282319Y87252D03*
X288819Y87252D03*
X295319Y87252D03*
X301819Y87252D03*
X308319Y87252D03*
X314819Y87252D03*
X321319Y87252D03*
X327819Y87252D03*
X334319Y87252D03*
X340819Y87252D03*
X347319Y87252D03*
X275819Y93752D03*
X282319Y93752D03*
X288819Y93752D03*
X295319Y93752D03*
X301819Y93752D03*
X308319Y93752D03*
X314819Y93752D03*
X321319Y93752D03*
X327819Y93752D03*
X334319Y93752D03*
X340819Y93752D03*
X347319Y93752D03*
X275819Y100252D03*
X282319Y100252D03*
X288819Y100252D03*
X295319Y100252D03*
X301819Y100252D03*
X308319Y100252D03*
X314819Y100252D03*
X321319Y100252D03*
X327819Y100252D03*
X334319Y100252D03*
X340819Y100252D03*
X347319Y100252D03*
X275819Y106752D03*
X282319Y106752D03*
X288819Y106752D03*
X295319Y106752D03*
X301819Y106752D03*
X308319Y106752D03*
X314819Y106752D03*
X321319Y106752D03*
X327819Y106752D03*
X334319Y106752D03*
X340819Y106752D03*
X347319Y106752D03*
X275819Y113252D03*
X282319Y113252D03*
X288819Y113252D03*
X295319Y113252D03*
X301819Y113252D03*
X308319Y113252D03*
X314819Y113252D03*
X321319Y113252D03*
X327819Y113252D03*
X334319Y113252D03*
X340819Y113252D03*
X347319Y113252D03*
X275819Y119752D03*
X282319Y119752D03*
X288819Y119752D03*
X295319Y119752D03*
X301819Y119752D03*
X308319Y119752D03*
X314819Y119752D03*
X321319Y119752D03*
X327819Y119752D03*
X334319Y119752D03*
X340819Y119752D03*
X347319Y119752D03*
X275819Y126252D03*
X282319Y126252D03*
X288819Y126252D03*
X295319Y126252D03*
X301819Y126252D03*
X308319Y126252D03*
X314819Y126252D03*
X321319Y126252D03*
X327819Y126252D03*
X334319Y126252D03*
X340819Y126252D03*
X347319Y126252D03*
X275819Y132752D03*
X282319Y132752D03*
X288819Y132752D03*
X295319Y132752D03*
X301819Y132752D03*
X308319Y132752D03*
X314819Y132752D03*
X321319Y132752D03*
X327819Y132752D03*
X334319Y132752D03*
X340819Y132752D03*
X347319Y132752D03*
X275819Y139252D03*
X282319Y139252D03*
X288819Y139252D03*
X295319Y139252D03*
X301819Y139252D03*
X308319Y139252D03*
X314819Y139252D03*
X321319Y139252D03*
X327819Y139252D03*
X334319Y139252D03*
X340819Y139252D03*
X347319Y139252D03*
X275819Y145752D03*
X282319Y145752D03*
X288819Y145752D03*
X295319Y145752D03*
X301819Y145752D03*
X308319Y145752D03*
X314819Y145752D03*
X321319Y145752D03*
X327819Y145752D03*
X334319Y145752D03*
X340819Y145752D03*
X347319Y145752D03*
X275819Y152252D03*
X282319Y152252D03*
X288819Y152252D03*
X295319Y152252D03*
X301819Y152252D03*
X308319Y152252D03*
X314819Y152252D03*
X321319Y152252D03*
X327819Y152252D03*
X334319Y152252D03*
X340819Y152252D03*
X347319Y152252D03*
D11*
X419799Y206502D02*
X419799Y213502D01*
X419799Y206502D02*
X412799Y206502D01*
X412799Y213502D01*
X419799Y213502D01*
X419799Y209352D02*
X412799Y209352D01*
X412799Y212202D02*
X419799Y212202D01*
X437339Y213502D02*
X437339Y206502D01*
X430339Y206502D01*
X430339Y213502D01*
X437339Y213502D01*
X437339Y209352D02*
X430339Y209352D01*
X430339Y212202D02*
X437339Y212202D01*
D12*
X435069Y105002D03*
X435069Y95002D03*
D13*
X401069Y152502D03*
X401069Y127502D03*
D12*
X415069Y155002D03*
X415069Y145002D03*
X415069Y125002D03*
X415069Y135002D03*
X361569Y145002D03*
X361569Y135002D03*
X371069Y120002D03*
X381069Y120002D03*
X371069Y159002D03*
X381069Y159002D03*
D14*
X371069Y133252D03*
X371069Y146752D03*
X381069Y146752D03*
X381069Y133252D03*
D12*
X235069Y185002D03*
X235069Y175002D03*
X407869Y101602D03*
X397869Y101602D03*
X407869Y114302D03*
X397869Y114302D03*
D15*
X269069Y186002D03*
X269069Y194002D03*
X261069Y194002D03*
X261069Y186002D03*
D16*
X272619Y175002D03*
X267619Y175002D03*
X262619Y175002D03*
X257619Y175002D03*
D17*
X280069Y197552D03*
X280069Y192552D03*
X280069Y187552D03*
X280069Y182552D03*
D16*
X257519Y205002D03*
X262519Y205002D03*
X267519Y205002D03*
X272519Y205002D03*
D17*
X250069Y197552D03*
X250069Y192552D03*
X250069Y187552D03*
X250069Y182552D03*
D12*
X340069Y210002D03*
X330069Y210002D03*
D11*
X310339Y206502D02*
X310339Y213502D01*
X317339Y213502D01*
X317339Y206502D01*
X310339Y206502D01*
X310339Y209352D02*
X317339Y209352D01*
X317339Y212202D02*
X310339Y212202D01*
X292799Y213502D02*
X292799Y206502D01*
X292799Y213502D02*
X299799Y213502D01*
X299799Y206502D01*
X292799Y206502D01*
X292799Y209352D02*
X299799Y209352D01*
X299799Y212202D02*
X292799Y212202D01*
D12*
X235069Y195002D03*
X235069Y205002D03*
D18*
X387569Y64602D03*
X387569Y82602D03*
D10*
X487914Y67752D03*
X487914Y74252D03*
X494414Y67752D03*
X494414Y74252D03*
X487914Y80752D03*
X487914Y87252D03*
X494414Y80752D03*
X494414Y87252D03*
X487914Y93752D03*
X487914Y100252D03*
X494414Y93752D03*
X494414Y100252D03*
X487914Y106752D03*
X487914Y113252D03*
X494414Y106752D03*
X494414Y113252D03*
X487914Y119752D03*
X494414Y119752D03*
X487914Y126252D03*
X487914Y132752D03*
X494414Y126252D03*
X494414Y132752D03*
X487914Y139252D03*
X487914Y145752D03*
X494414Y139252D03*
X494414Y145752D03*
X487914Y152252D03*
X494414Y152252D03*
X500914Y67752D03*
X507414Y67752D03*
X513914Y67752D03*
X520414Y67752D03*
X526914Y67752D03*
X533414Y67752D03*
X539914Y67752D03*
X546414Y67752D03*
X552914Y67752D03*
X559414Y67752D03*
X565914Y67752D03*
X572414Y67752D03*
X500914Y74252D03*
X507414Y74252D03*
X513914Y74252D03*
X520414Y74252D03*
X526914Y74252D03*
X533414Y74252D03*
X539914Y74252D03*
X546414Y74252D03*
X552914Y74252D03*
X559414Y74252D03*
X565914Y74252D03*
X572414Y74252D03*
X500914Y80752D03*
X507414Y80752D03*
X513914Y80752D03*
X520414Y80752D03*
X526914Y80752D03*
X533414Y80752D03*
X539914Y80752D03*
X546414Y80752D03*
X552914Y80752D03*
X559414Y80752D03*
X565914Y80752D03*
X572414Y80752D03*
X500914Y87252D03*
X507414Y87252D03*
X513914Y87252D03*
X520414Y87252D03*
X526914Y87252D03*
X533414Y87252D03*
X539914Y87252D03*
X546414Y87252D03*
X552914Y87252D03*
X559414Y87252D03*
X565914Y87252D03*
X572414Y87252D03*
X500914Y93752D03*
X507414Y93752D03*
X513914Y93752D03*
X520414Y93752D03*
X526914Y93752D03*
X533414Y93752D03*
X539914Y93752D03*
X546414Y93752D03*
X552914Y93752D03*
X559414Y93752D03*
X565914Y93752D03*
X572414Y93752D03*
X500914Y100252D03*
X507414Y100252D03*
X513914Y100252D03*
X520414Y100252D03*
X526914Y100252D03*
X533414Y100252D03*
X539914Y100252D03*
X546414Y100252D03*
X552914Y100252D03*
X559414Y100252D03*
X565914Y100252D03*
X572414Y100252D03*
X500914Y106752D03*
X507414Y106752D03*
X513914Y106752D03*
X520414Y106752D03*
X526914Y106752D03*
X533414Y106752D03*
X539914Y106752D03*
X546414Y106752D03*
X552914Y106752D03*
X559414Y106752D03*
X565914Y106752D03*
X572414Y106752D03*
X500914Y113252D03*
X507414Y113252D03*
X513914Y113252D03*
X520414Y113252D03*
X526914Y113252D03*
X533414Y113252D03*
X539914Y113252D03*
X546414Y113252D03*
X552914Y113252D03*
X559414Y113252D03*
X565914Y113252D03*
X572414Y113252D03*
X500914Y119752D03*
X507414Y119752D03*
X513914Y119752D03*
X520414Y119752D03*
X526914Y119752D03*
X533414Y119752D03*
X539914Y119752D03*
X546414Y119752D03*
X552914Y119752D03*
X559414Y119752D03*
X565914Y119752D03*
X572414Y119752D03*
X500914Y126252D03*
X507414Y126252D03*
X513914Y126252D03*
X520414Y126252D03*
X526914Y126252D03*
X533414Y126252D03*
X539914Y126252D03*
X546414Y126252D03*
X552914Y126252D03*
X559414Y126252D03*
X565914Y126252D03*
X572414Y126252D03*
X500914Y132752D03*
X507414Y132752D03*
X513914Y132752D03*
X520414Y132752D03*
X526914Y132752D03*
X533414Y132752D03*
X539914Y132752D03*
X546414Y132752D03*
X552914Y132752D03*
X559414Y132752D03*
X565914Y132752D03*
X572414Y132752D03*
X500914Y139252D03*
X507414Y139252D03*
X513914Y139252D03*
X520414Y139252D03*
X526914Y139252D03*
X533414Y139252D03*
X539914Y139252D03*
X546414Y139252D03*
X552914Y139252D03*
X559414Y139252D03*
X565914Y139252D03*
X572414Y139252D03*
X500914Y145752D03*
X507414Y145752D03*
X513914Y145752D03*
X520414Y145752D03*
X526914Y145752D03*
X533414Y145752D03*
X539914Y145752D03*
X546414Y145752D03*
X552914Y145752D03*
X559414Y145752D03*
X565914Y145752D03*
X572414Y145752D03*
X500914Y152252D03*
X507414Y152252D03*
X513914Y152252D03*
X520414Y152252D03*
X526914Y152252D03*
X533414Y152252D03*
X539914Y152252D03*
X546414Y152252D03*
X552914Y152252D03*
X559414Y152252D03*
X565914Y152252D03*
X572414Y152252D03*
D11*
X644894Y206502D02*
X644894Y213502D01*
X644894Y206502D02*
X637894Y206502D01*
X637894Y213502D01*
X644894Y213502D01*
X644894Y209352D02*
X637894Y209352D01*
X637894Y212202D02*
X644894Y212202D01*
X662434Y213502D02*
X662434Y206502D01*
X655434Y206502D01*
X655434Y213502D01*
X662434Y213502D01*
X662434Y209352D02*
X655434Y209352D01*
X655434Y212202D02*
X662434Y212202D01*
D12*
X660164Y105002D03*
X660164Y95002D03*
D13*
X626164Y152502D03*
X626164Y127502D03*
D12*
X640164Y155002D03*
X640164Y145002D03*
X640164Y125002D03*
X640164Y135002D03*
X586664Y145002D03*
X586664Y135002D03*
X596164Y120002D03*
X606164Y120002D03*
X596164Y159002D03*
X606164Y159002D03*
D14*
X596164Y133252D03*
X596164Y146752D03*
X606164Y146752D03*
X606164Y133252D03*
D12*
X460164Y185002D03*
X460164Y175002D03*
X632964Y101602D03*
X622964Y101602D03*
X632964Y114302D03*
X622964Y114302D03*
D15*
X494164Y186002D03*
X494164Y194002D03*
X486164Y194002D03*
X486164Y186002D03*
D16*
X497714Y175002D03*
X492714Y175002D03*
X487714Y175002D03*
X482714Y175002D03*
D17*
X505164Y197552D03*
X505164Y192552D03*
X505164Y187552D03*
X505164Y182552D03*
D16*
X482614Y205002D03*
X487614Y205002D03*
X492614Y205002D03*
X497614Y205002D03*
D17*
X475164Y197552D03*
X475164Y192552D03*
X475164Y187552D03*
X475164Y182552D03*
D12*
X565164Y210002D03*
X555164Y210002D03*
D11*
X535434Y206502D02*
X535434Y213502D01*
X542434Y213502D01*
X542434Y206502D01*
X535434Y206502D01*
X535434Y209352D02*
X542434Y209352D01*
X542434Y212202D02*
X535434Y212202D01*
X517894Y213502D02*
X517894Y206502D01*
X517894Y213502D02*
X524894Y213502D01*
X524894Y206502D01*
X517894Y206502D01*
X517894Y209352D02*
X524894Y209352D01*
X524894Y212202D02*
X517894Y212202D01*
D12*
X460164Y195002D03*
X460164Y205002D03*
D18*
X612664Y64602D03*
X612664Y82602D03*
D10*
X712984Y67752D03*
X712984Y74252D03*
X719484Y67752D03*
X719484Y74252D03*
X712984Y80752D03*
X712984Y87252D03*
X719484Y80752D03*
X719484Y87252D03*
X712984Y93752D03*
X712984Y100252D03*
X719484Y93752D03*
X719484Y100252D03*
X712984Y106752D03*
X712984Y113252D03*
X719484Y106752D03*
X719484Y113252D03*
X712984Y119752D03*
X719484Y119752D03*
X712984Y126252D03*
X712984Y132752D03*
X719484Y126252D03*
X719484Y132752D03*
X712984Y139252D03*
X712984Y145752D03*
X719484Y139252D03*
X719484Y145752D03*
X712984Y152252D03*
X719484Y152252D03*
X725984Y67752D03*
X732484Y67752D03*
X738984Y67752D03*
X745484Y67752D03*
X751984Y67752D03*
X758484Y67752D03*
X764984Y67752D03*
X771484Y67752D03*
X777984Y67752D03*
X784484Y67752D03*
X790984Y67752D03*
X797484Y67752D03*
X725984Y74252D03*
X732484Y74252D03*
X738984Y74252D03*
X745484Y74252D03*
X751984Y74252D03*
X758484Y74252D03*
X764984Y74252D03*
X771484Y74252D03*
X777984Y74252D03*
X784484Y74252D03*
X790984Y74252D03*
X797484Y74252D03*
X725984Y80752D03*
X732484Y80752D03*
X738984Y80752D03*
X745484Y80752D03*
X751984Y80752D03*
X758484Y80752D03*
X764984Y80752D03*
X771484Y80752D03*
X777984Y80752D03*
X784484Y80752D03*
X790984Y80752D03*
X797484Y80752D03*
X725984Y87252D03*
X732484Y87252D03*
X738984Y87252D03*
X745484Y87252D03*
X751984Y87252D03*
X758484Y87252D03*
X764984Y87252D03*
X771484Y87252D03*
X777984Y87252D03*
X784484Y87252D03*
X790984Y87252D03*
X797484Y87252D03*
X725984Y93752D03*
X732484Y93752D03*
X738984Y93752D03*
X745484Y93752D03*
X751984Y93752D03*
X758484Y93752D03*
X764984Y93752D03*
X771484Y93752D03*
X777984Y93752D03*
X784484Y93752D03*
X790984Y93752D03*
X797484Y93752D03*
X725984Y100252D03*
X732484Y100252D03*
X738984Y100252D03*
X745484Y100252D03*
X751984Y100252D03*
X758484Y100252D03*
X764984Y100252D03*
X771484Y100252D03*
X777984Y100252D03*
X784484Y100252D03*
X790984Y100252D03*
X797484Y100252D03*
X725984Y106752D03*
X732484Y106752D03*
X738984Y106752D03*
X745484Y106752D03*
X751984Y106752D03*
X758484Y106752D03*
X764984Y106752D03*
X771484Y106752D03*
X777984Y106752D03*
X784484Y106752D03*
X790984Y106752D03*
X797484Y106752D03*
X725984Y113252D03*
X732484Y113252D03*
X738984Y113252D03*
X745484Y113252D03*
X751984Y113252D03*
X758484Y113252D03*
X764984Y113252D03*
X771484Y113252D03*
X777984Y113252D03*
X784484Y113252D03*
X790984Y113252D03*
X797484Y113252D03*
X725984Y119752D03*
X732484Y119752D03*
X738984Y119752D03*
X745484Y119752D03*
X751984Y119752D03*
X758484Y119752D03*
X764984Y119752D03*
X771484Y119752D03*
X777984Y119752D03*
X784484Y119752D03*
X790984Y119752D03*
X797484Y119752D03*
X725984Y126252D03*
X732484Y126252D03*
X738984Y126252D03*
X745484Y126252D03*
X751984Y126252D03*
X758484Y126252D03*
X764984Y126252D03*
X771484Y126252D03*
X777984Y126252D03*
X784484Y126252D03*
X790984Y126252D03*
X797484Y126252D03*
X725984Y132752D03*
X732484Y132752D03*
X738984Y132752D03*
X745484Y132752D03*
X751984Y132752D03*
X758484Y132752D03*
X764984Y132752D03*
X771484Y132752D03*
X777984Y132752D03*
X784484Y132752D03*
X790984Y132752D03*
X797484Y132752D03*
X725984Y139252D03*
X732484Y139252D03*
X738984Y139252D03*
X745484Y139252D03*
X751984Y139252D03*
X758484Y139252D03*
X764984Y139252D03*
X771484Y139252D03*
X777984Y139252D03*
X784484Y139252D03*
X790984Y139252D03*
X797484Y139252D03*
X725984Y145752D03*
X732484Y145752D03*
X738984Y145752D03*
X745484Y145752D03*
X751984Y145752D03*
X758484Y145752D03*
X764984Y145752D03*
X771484Y145752D03*
X777984Y145752D03*
X784484Y145752D03*
X790984Y145752D03*
X797484Y145752D03*
X725984Y152252D03*
X732484Y152252D03*
X738984Y152252D03*
X745484Y152252D03*
X751984Y152252D03*
X758484Y152252D03*
X764984Y152252D03*
X771484Y152252D03*
X777984Y152252D03*
X784484Y152252D03*
X790984Y152252D03*
X797484Y152252D03*
D11*
X869964Y206502D02*
X869964Y213502D01*
X869964Y206502D02*
X862964Y206502D01*
X862964Y213502D01*
X869964Y213502D01*
X869964Y209352D02*
X862964Y209352D01*
X862964Y212202D02*
X869964Y212202D01*
X887504Y213502D02*
X887504Y206502D01*
X880504Y206502D01*
X880504Y213502D01*
X887504Y213502D01*
X887504Y209352D02*
X880504Y209352D01*
X880504Y212202D02*
X887504Y212202D01*
D12*
X885234Y105002D03*
X885234Y95002D03*
D13*
X851234Y152502D03*
X851234Y127502D03*
D12*
X865234Y155002D03*
X865234Y145002D03*
X865234Y125002D03*
X865234Y135002D03*
X811734Y145002D03*
X811734Y135002D03*
X821234Y120002D03*
X831234Y120002D03*
X821234Y159002D03*
X831234Y159002D03*
D14*
X821234Y133252D03*
X821234Y146752D03*
X831234Y146752D03*
X831234Y133252D03*
D12*
X685234Y185002D03*
X685234Y175002D03*
X858034Y101602D03*
X848034Y101602D03*
X858034Y114302D03*
X848034Y114302D03*
D15*
X719234Y186002D03*
X719234Y194002D03*
X711234Y194002D03*
X711234Y186002D03*
D16*
X722784Y175002D03*
X717784Y175002D03*
X712784Y175002D03*
X707784Y175002D03*
D17*
X730234Y197552D03*
X730234Y192552D03*
X730234Y187552D03*
X730234Y182552D03*
D16*
X707684Y205002D03*
X712684Y205002D03*
X717684Y205002D03*
X722684Y205002D03*
D17*
X700234Y197552D03*
X700234Y192552D03*
X700234Y187552D03*
X700234Y182552D03*
D12*
X790234Y210002D03*
X780234Y210002D03*
D11*
X760504Y206502D02*
X760504Y213502D01*
X767504Y213502D01*
X767504Y206502D01*
X760504Y206502D01*
X760504Y209352D02*
X767504Y209352D01*
X767504Y212202D02*
X760504Y212202D01*
X742964Y213502D02*
X742964Y206502D01*
X742964Y213502D02*
X749964Y213502D01*
X749964Y206502D01*
X742964Y206502D01*
X742964Y209352D02*
X749964Y209352D01*
X749964Y212202D02*
X742964Y212202D01*
D12*
X685234Y195002D03*
X685234Y205002D03*
D18*
X837734Y64602D03*
X837734Y82602D03*
D10*
X938078Y67752D03*
X938078Y74252D03*
X944578Y67752D03*
X944578Y74252D03*
X938078Y80752D03*
X938078Y87252D03*
X944578Y80752D03*
X944578Y87252D03*
X938078Y93752D03*
X938078Y100252D03*
X944578Y93752D03*
X944578Y100252D03*
X938078Y106752D03*
X938078Y113252D03*
X944578Y106752D03*
X944578Y113252D03*
X938078Y119752D03*
X944578Y119752D03*
X938078Y126252D03*
X938078Y132752D03*
X944578Y126252D03*
X944578Y132752D03*
X938078Y139252D03*
X938078Y145752D03*
X944578Y139252D03*
X944578Y145752D03*
X938078Y152252D03*
X944578Y152252D03*
X951078Y67752D03*
X957578Y67752D03*
X964078Y67752D03*
X970578Y67752D03*
X977078Y67752D03*
X983578Y67752D03*
X990078Y67752D03*
X996578Y67752D03*
X1003078Y67752D03*
X1009578Y67752D03*
X1016078Y67752D03*
X1022578Y67752D03*
X951078Y74252D03*
X957578Y74252D03*
X964078Y74252D03*
X970578Y74252D03*
X977078Y74252D03*
X983578Y74252D03*
X990078Y74252D03*
X996578Y74252D03*
X1003078Y74252D03*
X1009578Y74252D03*
X1016078Y74252D03*
X1022578Y74252D03*
X951078Y80752D03*
X957578Y80752D03*
X964078Y80752D03*
X970578Y80752D03*
X977078Y80752D03*
X983578Y80752D03*
X990078Y80752D03*
X996578Y80752D03*
X1003078Y80752D03*
X1009578Y80752D03*
X1016078Y80752D03*
X1022578Y80752D03*
X951078Y87252D03*
X957578Y87252D03*
X964078Y87252D03*
X970578Y87252D03*
X977078Y87252D03*
X983578Y87252D03*
X990078Y87252D03*
X996578Y87252D03*
X1003078Y87252D03*
X1009578Y87252D03*
X1016078Y87252D03*
X1022578Y87252D03*
X951078Y93752D03*
X957578Y93752D03*
X964078Y93752D03*
X970578Y93752D03*
X977078Y93752D03*
X983578Y93752D03*
X990078Y93752D03*
X996578Y93752D03*
X1003078Y93752D03*
X1009578Y93752D03*
X1016078Y93752D03*
X1022578Y93752D03*
X951078Y100252D03*
X957578Y100252D03*
X964078Y100252D03*
X970578Y100252D03*
X977078Y100252D03*
X983578Y100252D03*
X990078Y100252D03*
X996578Y100252D03*
X1003078Y100252D03*
X1009578Y100252D03*
X1016078Y100252D03*
X1022578Y100252D03*
X951078Y106752D03*
X957578Y106752D03*
X964078Y106752D03*
X970578Y106752D03*
X977078Y106752D03*
X983578Y106752D03*
X990078Y106752D03*
X996578Y106752D03*
X1003078Y106752D03*
X1009578Y106752D03*
X1016078Y106752D03*
X1022578Y106752D03*
X951078Y113252D03*
X957578Y113252D03*
X964078Y113252D03*
X970578Y113252D03*
X977078Y113252D03*
X983578Y113252D03*
X990078Y113252D03*
X996578Y113252D03*
X1003078Y113252D03*
X1009578Y113252D03*
X1016078Y113252D03*
X1022578Y113252D03*
X951078Y119752D03*
X957578Y119752D03*
X964078Y119752D03*
X970578Y119752D03*
X977078Y119752D03*
X983578Y119752D03*
X990078Y119752D03*
X996578Y119752D03*
X1003078Y119752D03*
X1009578Y119752D03*
X1016078Y119752D03*
X1022578Y119752D03*
X951078Y126252D03*
X957578Y126252D03*
X964078Y126252D03*
X970578Y126252D03*
X977078Y126252D03*
X983578Y126252D03*
X990078Y126252D03*
X996578Y126252D03*
X1003078Y126252D03*
X1009578Y126252D03*
X1016078Y126252D03*
X1022578Y126252D03*
X951078Y132752D03*
X957578Y132752D03*
X964078Y132752D03*
X970578Y132752D03*
X977078Y132752D03*
X983578Y132752D03*
X990078Y132752D03*
X996578Y132752D03*
X1003078Y132752D03*
X1009578Y132752D03*
X1016078Y132752D03*
X1022578Y132752D03*
X951078Y139252D03*
X957578Y139252D03*
X964078Y139252D03*
X970578Y139252D03*
X977078Y139252D03*
X983578Y139252D03*
X990078Y139252D03*
X996578Y139252D03*
X1003078Y139252D03*
X1009578Y139252D03*
X1016078Y139252D03*
X1022578Y139252D03*
X951078Y145752D03*
X957578Y145752D03*
X964078Y145752D03*
X970578Y145752D03*
X977078Y145752D03*
X983578Y145752D03*
X990078Y145752D03*
X996578Y145752D03*
X1003078Y145752D03*
X1009578Y145752D03*
X1016078Y145752D03*
X1022578Y145752D03*
X951078Y152252D03*
X957578Y152252D03*
X964078Y152252D03*
X970578Y152252D03*
X977078Y152252D03*
X983578Y152252D03*
X990078Y152252D03*
X996578Y152252D03*
X1003078Y152252D03*
X1009578Y152252D03*
X1016078Y152252D03*
X1022578Y152252D03*
D11*
X1095058Y206502D02*
X1095058Y213502D01*
X1095058Y206502D02*
X1088058Y206502D01*
X1088058Y213502D01*
X1095058Y213502D01*
X1095058Y209352D02*
X1088058Y209352D01*
X1088058Y212202D02*
X1095058Y212202D01*
X1112598Y213502D02*
X1112598Y206502D01*
X1105598Y206502D01*
X1105598Y213502D01*
X1112598Y213502D01*
X1112598Y209352D02*
X1105598Y209352D01*
X1105598Y212202D02*
X1112598Y212202D01*
D12*
X1110328Y105002D03*
X1110328Y95002D03*
D13*
X1076328Y152502D03*
X1076328Y127502D03*
D12*
X1090328Y155002D03*
X1090328Y145002D03*
X1090328Y125002D03*
X1090328Y135002D03*
X1036828Y145002D03*
X1036828Y135002D03*
X1046328Y120002D03*
X1056328Y120002D03*
X1046328Y159002D03*
X1056328Y159002D03*
D14*
X1046328Y133252D03*
X1046328Y146752D03*
X1056328Y146752D03*
X1056328Y133252D03*
D12*
X910328Y185002D03*
X910328Y175002D03*
X1083128Y101602D03*
X1073128Y101602D03*
X1083128Y114302D03*
X1073128Y114302D03*
D15*
X944328Y186002D03*
X944328Y194002D03*
X936328Y194002D03*
X936328Y186002D03*
D16*
X947878Y175002D03*
X942878Y175002D03*
X937878Y175002D03*
X932878Y175002D03*
D17*
X955328Y197552D03*
X955328Y192552D03*
X955328Y187552D03*
X955328Y182552D03*
D16*
X932778Y205002D03*
X937778Y205002D03*
X942778Y205002D03*
X947778Y205002D03*
D17*
X925328Y197552D03*
X925328Y192552D03*
X925328Y187552D03*
X925328Y182552D03*
D12*
X1015328Y210002D03*
X1005328Y210002D03*
D11*
X985598Y206502D02*
X985598Y213502D01*
X992598Y213502D01*
X992598Y206502D01*
X985598Y206502D01*
X985598Y209352D02*
X992598Y209352D01*
X992598Y212202D02*
X985598Y212202D01*
X968058Y213502D02*
X968058Y206502D01*
X968058Y213502D02*
X975058Y213502D01*
X975058Y206502D01*
X968058Y206502D01*
X968058Y209352D02*
X975058Y209352D01*
X975058Y212202D02*
X968058Y212202D01*
D12*
X910328Y195002D03*
X910328Y205002D03*
D18*
X1062828Y64602D03*
X1062828Y82602D03*
D10*
X1163148Y67752D03*
X1163148Y74252D03*
X1169648Y67752D03*
X1169648Y74252D03*
X1163148Y80752D03*
X1163148Y87252D03*
X1169648Y80752D03*
X1169648Y87252D03*
X1163148Y93752D03*
X1163148Y100252D03*
X1169648Y93752D03*
X1169648Y100252D03*
X1163148Y106752D03*
X1163148Y113252D03*
X1169648Y106752D03*
X1169648Y113252D03*
X1163148Y119752D03*
X1169648Y119752D03*
X1163148Y126252D03*
X1163148Y132752D03*
X1169648Y126252D03*
X1169648Y132752D03*
X1163148Y139252D03*
X1163148Y145752D03*
X1169648Y139252D03*
X1169648Y145752D03*
X1163148Y152252D03*
X1169648Y152252D03*
X1176148Y67752D03*
X1182648Y67752D03*
X1189148Y67752D03*
X1195648Y67752D03*
X1202148Y67752D03*
X1208648Y67752D03*
X1215148Y67752D03*
X1221648Y67752D03*
X1228148Y67752D03*
X1234648Y67752D03*
X1241148Y67752D03*
X1247648Y67752D03*
X1176148Y74252D03*
X1182648Y74252D03*
X1189148Y74252D03*
X1195648Y74252D03*
X1202148Y74252D03*
X1208648Y74252D03*
X1215148Y74252D03*
X1221648Y74252D03*
X1228148Y74252D03*
X1234648Y74252D03*
X1241148Y74252D03*
X1247648Y74252D03*
X1176148Y80752D03*
X1182648Y80752D03*
X1189148Y80752D03*
X1195648Y80752D03*
X1202148Y80752D03*
X1208648Y80752D03*
X1215148Y80752D03*
X1221648Y80752D03*
X1228148Y80752D03*
X1234648Y80752D03*
X1241148Y80752D03*
X1247648Y80752D03*
X1176148Y87252D03*
X1182648Y87252D03*
X1189148Y87252D03*
X1195648Y87252D03*
X1202148Y87252D03*
X1208648Y87252D03*
X1215148Y87252D03*
X1221648Y87252D03*
X1228148Y87252D03*
X1234648Y87252D03*
X1241148Y87252D03*
X1247648Y87252D03*
X1176148Y93752D03*
X1182648Y93752D03*
X1189148Y93752D03*
X1195648Y93752D03*
X1202148Y93752D03*
X1208648Y93752D03*
X1215148Y93752D03*
X1221648Y93752D03*
X1228148Y93752D03*
X1234648Y93752D03*
X1241148Y93752D03*
X1247648Y93752D03*
X1176148Y100252D03*
X1182648Y100252D03*
X1189148Y100252D03*
X1195648Y100252D03*
X1202148Y100252D03*
X1208648Y100252D03*
X1215148Y100252D03*
X1221648Y100252D03*
X1228148Y100252D03*
X1234648Y100252D03*
X1241148Y100252D03*
X1247648Y100252D03*
X1176148Y106752D03*
X1182648Y106752D03*
X1189148Y106752D03*
X1195648Y106752D03*
X1202148Y106752D03*
X1208648Y106752D03*
X1215148Y106752D03*
X1221648Y106752D03*
X1228148Y106752D03*
X1234648Y106752D03*
X1241148Y106752D03*
X1247648Y106752D03*
X1176148Y113252D03*
X1182648Y113252D03*
X1189148Y113252D03*
X1195648Y113252D03*
X1202148Y113252D03*
X1208648Y113252D03*
X1215148Y113252D03*
X1221648Y113252D03*
X1228148Y113252D03*
X1234648Y113252D03*
X1241148Y113252D03*
X1247648Y113252D03*
X1176148Y119752D03*
X1182648Y119752D03*
X1189148Y119752D03*
X1195648Y119752D03*
X1202148Y119752D03*
X1208648Y119752D03*
X1215148Y119752D03*
X1221648Y119752D03*
X1228148Y119752D03*
X1234648Y119752D03*
X1241148Y119752D03*
X1247648Y119752D03*
X1176148Y126252D03*
X1182648Y126252D03*
X1189148Y126252D03*
X1195648Y126252D03*
X1202148Y126252D03*
X1208648Y126252D03*
X1215148Y126252D03*
X1221648Y126252D03*
X1228148Y126252D03*
X1234648Y126252D03*
X1241148Y126252D03*
X1247648Y126252D03*
X1176148Y132752D03*
X1182648Y132752D03*
X1189148Y132752D03*
X1195648Y132752D03*
X1202148Y132752D03*
X1208648Y132752D03*
X1215148Y132752D03*
X1221648Y132752D03*
X1228148Y132752D03*
X1234648Y132752D03*
X1241148Y132752D03*
X1247648Y132752D03*
X1176148Y139252D03*
X1182648Y139252D03*
X1189148Y139252D03*
X1195648Y139252D03*
X1202148Y139252D03*
X1208648Y139252D03*
X1215148Y139252D03*
X1221648Y139252D03*
X1228148Y139252D03*
X1234648Y139252D03*
X1241148Y139252D03*
X1247648Y139252D03*
X1176148Y145752D03*
X1182648Y145752D03*
X1189148Y145752D03*
X1195648Y145752D03*
X1202148Y145752D03*
X1208648Y145752D03*
X1215148Y145752D03*
X1221648Y145752D03*
X1228148Y145752D03*
X1234648Y145752D03*
X1241148Y145752D03*
X1247648Y145752D03*
X1176148Y152252D03*
X1182648Y152252D03*
X1189148Y152252D03*
X1195648Y152252D03*
X1202148Y152252D03*
X1208648Y152252D03*
X1215148Y152252D03*
X1221648Y152252D03*
X1228148Y152252D03*
X1234648Y152252D03*
X1241148Y152252D03*
X1247648Y152252D03*
D11*
X1320128Y206502D02*
X1320128Y213502D01*
X1320128Y206502D02*
X1313128Y206502D01*
X1313128Y213502D01*
X1320128Y213502D01*
X1320128Y209352D02*
X1313128Y209352D01*
X1313128Y212202D02*
X1320128Y212202D01*
X1337668Y213502D02*
X1337668Y206502D01*
X1330668Y206502D01*
X1330668Y213502D01*
X1337668Y213502D01*
X1337668Y209352D02*
X1330668Y209352D01*
X1330668Y212202D02*
X1337668Y212202D01*
D12*
X1335398Y105002D03*
X1335398Y95002D03*
D13*
X1301398Y152502D03*
X1301398Y127502D03*
D12*
X1315398Y155002D03*
X1315398Y145002D03*
X1315398Y125002D03*
X1315398Y135002D03*
X1261898Y145002D03*
X1261898Y135002D03*
X1271398Y120002D03*
X1281398Y120002D03*
X1271398Y159002D03*
X1281398Y159002D03*
D14*
X1271398Y133252D03*
X1271398Y146752D03*
X1281398Y146752D03*
X1281398Y133252D03*
D12*
X1135398Y185002D03*
X1135398Y175002D03*
X1308198Y101602D03*
X1298198Y101602D03*
X1308198Y114302D03*
X1298198Y114302D03*
D15*
X1169398Y186002D03*
X1169398Y194002D03*
X1161398Y194002D03*
X1161398Y186002D03*
D16*
X1172948Y175002D03*
X1167948Y175002D03*
X1162948Y175002D03*
X1157948Y175002D03*
D17*
X1180398Y197552D03*
X1180398Y192552D03*
X1180398Y187552D03*
X1180398Y182552D03*
D16*
X1157848Y205002D03*
X1162848Y205002D03*
X1167848Y205002D03*
X1172848Y205002D03*
D17*
X1150398Y197552D03*
X1150398Y192552D03*
X1150398Y187552D03*
X1150398Y182552D03*
D12*
X1240398Y210002D03*
X1230398Y210002D03*
D11*
X1210668Y206502D02*
X1210668Y213502D01*
X1217668Y213502D01*
X1217668Y206502D01*
X1210668Y206502D01*
X1210668Y209352D02*
X1217668Y209352D01*
X1217668Y212202D02*
X1210668Y212202D01*
X1193128Y213502D02*
X1193128Y206502D01*
X1193128Y213502D02*
X1200128Y213502D01*
X1200128Y206502D01*
X1193128Y206502D01*
X1193128Y209352D02*
X1200128Y209352D01*
X1200128Y212202D02*
X1193128Y212202D01*
D12*
X1135398Y195002D03*
X1135398Y205002D03*
D18*
X1287898Y64602D03*
X1287898Y82602D03*
D10*
X1388243Y67752D03*
X1388243Y74252D03*
X1394743Y67752D03*
X1394743Y74252D03*
X1388243Y80752D03*
X1388243Y87252D03*
X1394743Y80752D03*
X1394743Y87252D03*
X1388243Y93752D03*
X1388243Y100252D03*
X1394743Y93752D03*
X1394743Y100252D03*
X1388243Y106752D03*
X1388243Y113252D03*
X1394743Y106752D03*
X1394743Y113252D03*
X1388243Y119752D03*
X1394743Y119752D03*
X1388243Y126252D03*
X1388243Y132752D03*
X1394743Y126252D03*
X1394743Y132752D03*
X1388243Y139252D03*
X1388243Y145752D03*
X1394743Y139252D03*
X1394743Y145752D03*
X1388243Y152252D03*
X1394743Y152252D03*
X1401243Y67752D03*
X1407743Y67752D03*
X1414243Y67752D03*
X1420743Y67752D03*
X1427243Y67752D03*
X1433743Y67752D03*
X1440243Y67752D03*
X1446743Y67752D03*
X1453243Y67752D03*
X1459743Y67752D03*
X1466243Y67752D03*
X1472743Y67752D03*
X1401243Y74252D03*
X1407743Y74252D03*
X1414243Y74252D03*
X1420743Y74252D03*
X1427243Y74252D03*
X1433743Y74252D03*
X1440243Y74252D03*
X1446743Y74252D03*
X1453243Y74252D03*
X1459743Y74252D03*
X1466243Y74252D03*
X1472743Y74252D03*
X1401243Y80752D03*
X1407743Y80752D03*
X1414243Y80752D03*
X1420743Y80752D03*
X1427243Y80752D03*
X1433743Y80752D03*
X1440243Y80752D03*
X1446743Y80752D03*
X1453243Y80752D03*
X1459743Y80752D03*
X1466243Y80752D03*
X1472743Y80752D03*
X1401243Y87252D03*
X1407743Y87252D03*
X1414243Y87252D03*
X1420743Y87252D03*
X1427243Y87252D03*
X1433743Y87252D03*
X1440243Y87252D03*
X1446743Y87252D03*
X1453243Y87252D03*
X1459743Y87252D03*
X1466243Y87252D03*
X1472743Y87252D03*
X1401243Y93752D03*
X1407743Y93752D03*
X1414243Y93752D03*
X1420743Y93752D03*
X1427243Y93752D03*
X1433743Y93752D03*
X1440243Y93752D03*
X1446743Y93752D03*
X1453243Y93752D03*
X1459743Y93752D03*
X1466243Y93752D03*
X1472743Y93752D03*
X1401243Y100252D03*
X1407743Y100252D03*
X1414243Y100252D03*
X1420743Y100252D03*
X1427243Y100252D03*
X1433743Y100252D03*
X1440243Y100252D03*
X1446743Y100252D03*
X1453243Y100252D03*
X1459743Y100252D03*
X1466243Y100252D03*
X1472743Y100252D03*
X1401243Y106752D03*
X1407743Y106752D03*
X1414243Y106752D03*
X1420743Y106752D03*
X1427243Y106752D03*
X1433743Y106752D03*
X1440243Y106752D03*
X1446743Y106752D03*
X1453243Y106752D03*
X1459743Y106752D03*
X1466243Y106752D03*
X1472743Y106752D03*
X1401243Y113252D03*
X1407743Y113252D03*
X1414243Y113252D03*
X1420743Y113252D03*
X1427243Y113252D03*
X1433743Y113252D03*
X1440243Y113252D03*
X1446743Y113252D03*
X1453243Y113252D03*
X1459743Y113252D03*
X1466243Y113252D03*
X1472743Y113252D03*
X1401243Y119752D03*
X1407743Y119752D03*
X1414243Y119752D03*
X1420743Y119752D03*
X1427243Y119752D03*
X1433743Y119752D03*
X1440243Y119752D03*
X1446743Y119752D03*
X1453243Y119752D03*
X1459743Y119752D03*
X1466243Y119752D03*
X1472743Y119752D03*
X1401243Y126252D03*
X1407743Y126252D03*
X1414243Y126252D03*
X1420743Y126252D03*
X1427243Y126252D03*
X1433743Y126252D03*
X1440243Y126252D03*
X1446743Y126252D03*
X1453243Y126252D03*
X1459743Y126252D03*
X1466243Y126252D03*
X1472743Y126252D03*
X1401243Y132752D03*
X1407743Y132752D03*
X1414243Y132752D03*
X1420743Y132752D03*
X1427243Y132752D03*
X1433743Y132752D03*
X1440243Y132752D03*
X1446743Y132752D03*
X1453243Y132752D03*
X1459743Y132752D03*
X1466243Y132752D03*
X1472743Y132752D03*
X1401243Y139252D03*
X1407743Y139252D03*
X1414243Y139252D03*
X1420743Y139252D03*
X1427243Y139252D03*
X1433743Y139252D03*
X1440243Y139252D03*
X1446743Y139252D03*
X1453243Y139252D03*
X1459743Y139252D03*
X1466243Y139252D03*
X1472743Y139252D03*
X1401243Y145752D03*
X1407743Y145752D03*
X1414243Y145752D03*
X1420743Y145752D03*
X1427243Y145752D03*
X1433743Y145752D03*
X1440243Y145752D03*
X1446743Y145752D03*
X1453243Y145752D03*
X1459743Y145752D03*
X1466243Y145752D03*
X1472743Y145752D03*
X1401243Y152252D03*
X1407743Y152252D03*
X1414243Y152252D03*
X1420743Y152252D03*
X1427243Y152252D03*
X1433743Y152252D03*
X1440243Y152252D03*
X1446743Y152252D03*
X1453243Y152252D03*
X1459743Y152252D03*
X1466243Y152252D03*
X1472743Y152252D03*
D11*
X1545223Y206502D02*
X1545223Y213502D01*
X1545223Y206502D02*
X1538223Y206502D01*
X1538223Y213502D01*
X1545223Y213502D01*
X1545223Y209352D02*
X1538223Y209352D01*
X1538223Y212202D02*
X1545223Y212202D01*
X1562763Y213502D02*
X1562763Y206502D01*
X1555763Y206502D01*
X1555763Y213502D01*
X1562763Y213502D01*
X1562763Y209352D02*
X1555763Y209352D01*
X1555763Y212202D02*
X1562763Y212202D01*
D12*
X1560493Y105002D03*
X1560493Y95002D03*
D13*
X1526493Y152502D03*
X1526493Y127502D03*
D12*
X1540493Y155002D03*
X1540493Y145002D03*
X1540493Y125002D03*
X1540493Y135002D03*
X1486993Y145002D03*
X1486993Y135002D03*
X1496493Y120002D03*
X1506493Y120002D03*
X1496493Y159002D03*
X1506493Y159002D03*
D14*
X1496493Y133252D03*
X1496493Y146752D03*
X1506493Y146752D03*
X1506493Y133252D03*
D12*
X1360493Y185002D03*
X1360493Y175002D03*
X1533293Y101602D03*
X1523293Y101602D03*
X1533293Y114302D03*
X1523293Y114302D03*
D15*
X1394493Y186002D03*
X1394493Y194002D03*
X1386493Y194002D03*
X1386493Y186002D03*
D16*
X1398043Y175002D03*
X1393043Y175002D03*
X1388043Y175002D03*
X1383043Y175002D03*
D17*
X1405493Y197552D03*
X1405493Y192552D03*
X1405493Y187552D03*
X1405493Y182552D03*
D16*
X1382943Y205002D03*
X1387943Y205002D03*
X1392943Y205002D03*
X1397943Y205002D03*
D17*
X1375493Y197552D03*
X1375493Y192552D03*
X1375493Y187552D03*
X1375493Y182552D03*
D12*
X1465493Y210002D03*
X1455493Y210002D03*
D11*
X1435763Y206502D02*
X1435763Y213502D01*
X1442763Y213502D01*
X1442763Y206502D01*
X1435763Y206502D01*
X1435763Y209352D02*
X1442763Y209352D01*
X1442763Y212202D02*
X1435763Y212202D01*
X1418223Y213502D02*
X1418223Y206502D01*
X1418223Y213502D02*
X1425223Y213502D01*
X1425223Y206502D01*
X1418223Y206502D01*
X1418223Y209352D02*
X1425223Y209352D01*
X1425223Y212202D02*
X1418223Y212202D01*
D12*
X1360493Y195002D03*
X1360493Y205002D03*
D18*
X1512993Y64602D03*
X1512993Y82602D03*
D10*
X1613312Y67752D03*
X1613312Y74252D03*
X1619812Y67752D03*
X1619812Y74252D03*
X1613312Y80752D03*
X1613312Y87252D03*
X1619812Y80752D03*
X1619812Y87252D03*
X1613312Y93752D03*
X1613312Y100252D03*
X1619812Y93752D03*
X1619812Y100252D03*
X1613312Y106752D03*
X1613312Y113252D03*
X1619812Y106752D03*
X1619812Y113252D03*
X1613312Y119752D03*
X1619812Y119752D03*
X1613312Y126252D03*
X1613312Y132752D03*
X1619812Y126252D03*
X1619812Y132752D03*
X1613312Y139252D03*
X1613312Y145752D03*
X1619812Y139252D03*
X1619812Y145752D03*
X1613312Y152252D03*
X1619812Y152252D03*
X1626312Y67752D03*
X1632812Y67752D03*
X1639312Y67752D03*
X1645812Y67752D03*
X1652312Y67752D03*
X1658812Y67752D03*
X1665312Y67752D03*
X1671812Y67752D03*
X1678312Y67752D03*
X1684812Y67752D03*
X1691312Y67752D03*
X1697812Y67752D03*
X1626312Y74252D03*
X1632812Y74252D03*
X1639312Y74252D03*
X1645812Y74252D03*
X1652312Y74252D03*
X1658812Y74252D03*
X1665312Y74252D03*
X1671812Y74252D03*
X1678312Y74252D03*
X1684812Y74252D03*
X1691312Y74252D03*
X1697812Y74252D03*
X1626312Y80752D03*
X1632812Y80752D03*
X1639312Y80752D03*
X1645812Y80752D03*
X1652312Y80752D03*
X1658812Y80752D03*
X1665312Y80752D03*
X1671812Y80752D03*
X1678312Y80752D03*
X1684812Y80752D03*
X1691312Y80752D03*
X1697812Y80752D03*
X1626312Y87252D03*
X1632812Y87252D03*
X1639312Y87252D03*
X1645812Y87252D03*
X1652312Y87252D03*
X1658812Y87252D03*
X1665312Y87252D03*
X1671812Y87252D03*
X1678312Y87252D03*
X1684812Y87252D03*
X1691312Y87252D03*
X1697812Y87252D03*
X1626312Y93752D03*
X1632812Y93752D03*
X1639312Y93752D03*
X1645812Y93752D03*
X1652312Y93752D03*
X1658812Y93752D03*
X1665312Y93752D03*
X1671812Y93752D03*
X1678312Y93752D03*
X1684812Y93752D03*
X1691312Y93752D03*
X1697812Y93752D03*
X1626312Y100252D03*
X1632812Y100252D03*
X1639312Y100252D03*
X1645812Y100252D03*
X1652312Y100252D03*
X1658812Y100252D03*
X1665312Y100252D03*
X1671812Y100252D03*
X1678312Y100252D03*
X1684812Y100252D03*
X1691312Y100252D03*
X1697812Y100252D03*
X1626312Y106752D03*
X1632812Y106752D03*
X1639312Y106752D03*
X1645812Y106752D03*
X1652312Y106752D03*
X1658812Y106752D03*
X1665312Y106752D03*
X1671812Y106752D03*
X1678312Y106752D03*
X1684812Y106752D03*
X1691312Y106752D03*
X1697812Y106752D03*
X1626312Y113252D03*
X1632812Y113252D03*
X1639312Y113252D03*
X1645812Y113252D03*
X1652312Y113252D03*
X1658812Y113252D03*
X1665312Y113252D03*
X1671812Y113252D03*
X1678312Y113252D03*
X1684812Y113252D03*
X1691312Y113252D03*
X1697812Y113252D03*
X1626312Y119752D03*
X1632812Y119752D03*
X1639312Y119752D03*
X1645812Y119752D03*
X1652312Y119752D03*
X1658812Y119752D03*
X1665312Y119752D03*
X1671812Y119752D03*
X1678312Y119752D03*
X1684812Y119752D03*
X1691312Y119752D03*
X1697812Y119752D03*
X1626312Y126252D03*
X1632812Y126252D03*
X1639312Y126252D03*
X1645812Y126252D03*
X1652312Y126252D03*
X1658812Y126252D03*
X1665312Y126252D03*
X1671812Y126252D03*
X1678312Y126252D03*
X1684812Y126252D03*
X1691312Y126252D03*
X1697812Y126252D03*
X1626312Y132752D03*
X1632812Y132752D03*
X1639312Y132752D03*
X1645812Y132752D03*
X1652312Y132752D03*
X1658812Y132752D03*
X1665312Y132752D03*
X1671812Y132752D03*
X1678312Y132752D03*
X1684812Y132752D03*
X1691312Y132752D03*
X1697812Y132752D03*
X1626312Y139252D03*
X1632812Y139252D03*
X1639312Y139252D03*
X1645812Y139252D03*
X1652312Y139252D03*
X1658812Y139252D03*
X1665312Y139252D03*
X1671812Y139252D03*
X1678312Y139252D03*
X1684812Y139252D03*
X1691312Y139252D03*
X1697812Y139252D03*
X1626312Y145752D03*
X1632812Y145752D03*
X1639312Y145752D03*
X1645812Y145752D03*
X1652312Y145752D03*
X1658812Y145752D03*
X1665312Y145752D03*
X1671812Y145752D03*
X1678312Y145752D03*
X1684812Y145752D03*
X1691312Y145752D03*
X1697812Y145752D03*
X1626312Y152252D03*
X1632812Y152252D03*
X1639312Y152252D03*
X1645812Y152252D03*
X1652312Y152252D03*
X1658812Y152252D03*
X1665312Y152252D03*
X1671812Y152252D03*
X1678312Y152252D03*
X1684812Y152252D03*
X1691312Y152252D03*
X1697812Y152252D03*
D11*
X1770292Y206502D02*
X1770292Y213502D01*
X1770292Y206502D02*
X1763292Y206502D01*
X1763292Y213502D01*
X1770292Y213502D01*
X1770292Y209352D02*
X1763292Y209352D01*
X1763292Y212202D02*
X1770292Y212202D01*
X1787832Y213502D02*
X1787832Y206502D01*
X1780832Y206502D01*
X1780832Y213502D01*
X1787832Y213502D01*
X1787832Y209352D02*
X1780832Y209352D01*
X1780832Y212202D02*
X1787832Y212202D01*
D12*
X1785562Y105002D03*
X1785562Y95002D03*
D13*
X1751562Y152502D03*
X1751562Y127502D03*
D12*
X1765562Y155002D03*
X1765562Y145002D03*
X1765562Y125002D03*
X1765562Y135002D03*
X1712062Y145002D03*
X1712062Y135002D03*
X1721562Y120002D03*
X1731562Y120002D03*
X1721562Y159002D03*
X1731562Y159002D03*
D14*
X1721562Y133252D03*
X1721562Y146752D03*
X1731562Y146752D03*
X1731562Y133252D03*
D12*
X1585562Y185002D03*
X1585562Y175002D03*
X1758362Y101602D03*
X1748362Y101602D03*
X1758362Y114302D03*
X1748362Y114302D03*
D15*
X1619562Y186002D03*
X1619562Y194002D03*
X1611562Y194002D03*
X1611562Y186002D03*
D16*
X1623112Y175002D03*
X1618112Y175002D03*
X1613112Y175002D03*
X1608112Y175002D03*
D17*
X1630562Y197552D03*
X1630562Y192552D03*
X1630562Y187552D03*
X1630562Y182552D03*
D16*
X1608012Y205002D03*
X1613012Y205002D03*
X1618012Y205002D03*
X1623012Y205002D03*
D17*
X1600562Y197552D03*
X1600562Y192552D03*
X1600562Y187552D03*
X1600562Y182552D03*
D12*
X1690562Y210002D03*
X1680562Y210002D03*
D11*
X1660832Y206502D02*
X1660832Y213502D01*
X1667832Y213502D01*
X1667832Y206502D01*
X1660832Y206502D01*
X1660832Y209352D02*
X1667832Y209352D01*
X1667832Y212202D02*
X1660832Y212202D01*
X1643292Y213502D02*
X1643292Y206502D01*
X1643292Y213502D02*
X1650292Y213502D01*
X1650292Y206502D01*
X1643292Y206502D01*
X1643292Y209352D02*
X1650292Y209352D01*
X1650292Y212202D02*
X1643292Y212202D01*
D12*
X1585562Y195002D03*
X1585562Y205002D03*
D18*
X1738062Y64602D03*
X1738062Y82602D03*
D10*
X1838381Y67752D03*
X1838381Y74252D03*
X1844881Y67752D03*
X1844881Y74252D03*
X1838381Y80752D03*
X1838381Y87252D03*
X1844881Y80752D03*
X1844881Y87252D03*
X1838381Y93752D03*
X1838381Y100252D03*
X1844881Y93752D03*
X1844881Y100252D03*
X1838381Y106752D03*
X1838381Y113252D03*
X1844881Y106752D03*
X1844881Y113252D03*
X1838381Y119752D03*
X1844881Y119752D03*
X1838381Y126252D03*
X1838381Y132752D03*
X1844881Y126252D03*
X1844881Y132752D03*
X1838381Y139252D03*
X1838381Y145752D03*
X1844881Y139252D03*
X1844881Y145752D03*
X1838381Y152252D03*
X1844881Y152252D03*
X1851381Y67752D03*
X1857881Y67752D03*
X1864381Y67752D03*
X1870881Y67752D03*
X1877381Y67752D03*
X1883881Y67752D03*
X1890381Y67752D03*
X1896881Y67752D03*
X1903381Y67752D03*
X1909881Y67752D03*
X1916381Y67752D03*
X1922881Y67752D03*
X1851381Y74252D03*
X1857881Y74252D03*
X1864381Y74252D03*
X1870881Y74252D03*
X1877381Y74252D03*
X1883881Y74252D03*
X1890381Y74252D03*
X1896881Y74252D03*
X1903381Y74252D03*
X1909881Y74252D03*
X1916381Y74252D03*
X1922881Y74252D03*
X1851381Y80752D03*
X1857881Y80752D03*
X1864381Y80752D03*
X1870881Y80752D03*
X1877381Y80752D03*
X1883881Y80752D03*
X1890381Y80752D03*
X1896881Y80752D03*
X1903381Y80752D03*
X1909881Y80752D03*
X1916381Y80752D03*
X1922881Y80752D03*
X1851381Y87252D03*
X1857881Y87252D03*
X1864381Y87252D03*
X1870881Y87252D03*
X1877381Y87252D03*
X1883881Y87252D03*
X1890381Y87252D03*
X1896881Y87252D03*
X1903381Y87252D03*
X1909881Y87252D03*
X1916381Y87252D03*
X1922881Y87252D03*
X1851381Y93752D03*
X1857881Y93752D03*
X1864381Y93752D03*
X1870881Y93752D03*
X1877381Y93752D03*
X1883881Y93752D03*
X1890381Y93752D03*
X1896881Y93752D03*
X1903381Y93752D03*
X1909881Y93752D03*
X1916381Y93752D03*
X1922881Y93752D03*
X1851381Y100252D03*
X1857881Y100252D03*
X1864381Y100252D03*
X1870881Y100252D03*
X1877381Y100252D03*
X1883881Y100252D03*
X1890381Y100252D03*
X1896881Y100252D03*
X1903381Y100252D03*
X1909881Y100252D03*
X1916381Y100252D03*
X1922881Y100252D03*
X1851381Y106752D03*
X1857881Y106752D03*
X1864381Y106752D03*
X1870881Y106752D03*
X1877381Y106752D03*
X1883881Y106752D03*
X1890381Y106752D03*
X1896881Y106752D03*
X1903381Y106752D03*
X1909881Y106752D03*
X1916381Y106752D03*
X1922881Y106752D03*
X1851381Y113252D03*
X1857881Y113252D03*
X1864381Y113252D03*
X1870881Y113252D03*
X1877381Y113252D03*
X1883881Y113252D03*
X1890381Y113252D03*
X1896881Y113252D03*
X1903381Y113252D03*
X1909881Y113252D03*
X1916381Y113252D03*
X1922881Y113252D03*
X1851381Y119752D03*
X1857881Y119752D03*
X1864381Y119752D03*
X1870881Y119752D03*
X1877381Y119752D03*
X1883881Y119752D03*
X1890381Y119752D03*
X1896881Y119752D03*
X1903381Y119752D03*
X1909881Y119752D03*
X1916381Y119752D03*
X1922881Y119752D03*
X1851381Y126252D03*
X1857881Y126252D03*
X1864381Y126252D03*
X1870881Y126252D03*
X1877381Y126252D03*
X1883881Y126252D03*
X1890381Y126252D03*
X1896881Y126252D03*
X1903381Y126252D03*
X1909881Y126252D03*
X1916381Y126252D03*
X1922881Y126252D03*
X1851381Y132752D03*
X1857881Y132752D03*
X1864381Y132752D03*
X1870881Y132752D03*
X1877381Y132752D03*
X1883881Y132752D03*
X1890381Y132752D03*
X1896881Y132752D03*
X1903381Y132752D03*
X1909881Y132752D03*
X1916381Y132752D03*
X1922881Y132752D03*
X1851381Y139252D03*
X1857881Y139252D03*
X1864381Y139252D03*
X1870881Y139252D03*
X1877381Y139252D03*
X1883881Y139252D03*
X1890381Y139252D03*
X1896881Y139252D03*
X1903381Y139252D03*
X1909881Y139252D03*
X1916381Y139252D03*
X1922881Y139252D03*
X1851381Y145752D03*
X1857881Y145752D03*
X1864381Y145752D03*
X1870881Y145752D03*
X1877381Y145752D03*
X1883881Y145752D03*
X1890381Y145752D03*
X1896881Y145752D03*
X1903381Y145752D03*
X1909881Y145752D03*
X1916381Y145752D03*
X1922881Y145752D03*
X1851381Y152252D03*
X1857881Y152252D03*
X1864381Y152252D03*
X1870881Y152252D03*
X1877381Y152252D03*
X1883881Y152252D03*
X1890381Y152252D03*
X1896881Y152252D03*
X1903381Y152252D03*
X1909881Y152252D03*
X1916381Y152252D03*
X1922881Y152252D03*
D11*
X1995361Y206502D02*
X1995361Y213502D01*
X1995361Y206502D02*
X1988361Y206502D01*
X1988361Y213502D01*
X1995361Y213502D01*
X1995361Y209352D02*
X1988361Y209352D01*
X1988361Y212202D02*
X1995361Y212202D01*
X2012901Y213502D02*
X2012901Y206502D01*
X2005901Y206502D01*
X2005901Y213502D01*
X2012901Y213502D01*
X2012901Y209352D02*
X2005901Y209352D01*
X2005901Y212202D02*
X2012901Y212202D01*
D12*
X2010631Y105002D03*
X2010631Y95002D03*
D13*
X1976631Y152502D03*
X1976631Y127502D03*
D12*
X1990631Y155002D03*
X1990631Y145002D03*
X1990631Y125002D03*
X1990631Y135002D03*
X1937131Y145002D03*
X1937131Y135002D03*
X1946631Y120002D03*
X1956631Y120002D03*
X1946631Y159002D03*
X1956631Y159002D03*
D14*
X1946631Y133252D03*
X1946631Y146752D03*
X1956631Y146752D03*
X1956631Y133252D03*
D12*
X1810631Y185002D03*
X1810631Y175002D03*
X1983431Y101602D03*
X1973431Y101602D03*
X1983431Y114302D03*
X1973431Y114302D03*
D15*
X1844631Y186002D03*
X1844631Y194002D03*
X1836631Y194002D03*
X1836631Y186002D03*
D16*
X1848181Y175002D03*
X1843181Y175002D03*
X1838181Y175002D03*
X1833181Y175002D03*
D17*
X1855631Y197552D03*
X1855631Y192552D03*
X1855631Y187552D03*
X1855631Y182552D03*
D16*
X1833081Y205002D03*
X1838081Y205002D03*
X1843081Y205002D03*
X1848081Y205002D03*
D17*
X1825631Y197552D03*
X1825631Y192552D03*
X1825631Y187552D03*
X1825631Y182552D03*
D12*
X1915631Y210002D03*
X1905631Y210002D03*
D11*
X1885901Y206502D02*
X1885901Y213502D01*
X1892901Y213502D01*
X1892901Y206502D01*
X1885901Y206502D01*
X1885901Y209352D02*
X1892901Y209352D01*
X1892901Y212202D02*
X1885901Y212202D01*
X1868361Y213502D02*
X1868361Y206502D01*
X1868361Y213502D02*
X1875361Y213502D01*
X1875361Y206502D01*
X1868361Y206502D01*
X1868361Y209352D02*
X1875361Y209352D01*
X1875361Y212202D02*
X1868361Y212202D01*
D12*
X1810631Y195002D03*
X1810631Y205002D03*
D18*
X1963131Y64602D03*
X1963131Y82602D03*
D10*
X2063476Y67752D03*
X2063476Y74252D03*
X2069976Y67752D03*
X2069976Y74252D03*
X2063476Y80752D03*
X2063476Y87252D03*
X2069976Y80752D03*
X2069976Y87252D03*
X2063476Y93752D03*
X2063476Y100252D03*
X2069976Y93752D03*
X2069976Y100252D03*
X2063476Y106752D03*
X2063476Y113252D03*
X2069976Y106752D03*
X2069976Y113252D03*
X2063476Y119752D03*
X2069976Y119752D03*
X2063476Y126252D03*
X2063476Y132752D03*
X2069976Y126252D03*
X2069976Y132752D03*
X2063476Y139252D03*
X2063476Y145752D03*
X2069976Y139252D03*
X2069976Y145752D03*
X2063476Y152252D03*
X2069976Y152252D03*
X2076476Y67752D03*
X2082976Y67752D03*
X2089476Y67752D03*
X2095976Y67752D03*
X2102476Y67752D03*
X2108976Y67752D03*
X2115476Y67752D03*
X2121976Y67752D03*
X2128476Y67752D03*
X2134976Y67752D03*
X2141476Y67752D03*
X2147976Y67752D03*
X2076476Y74252D03*
X2082976Y74252D03*
X2089476Y74252D03*
X2095976Y74252D03*
X2102476Y74252D03*
X2108976Y74252D03*
X2115476Y74252D03*
X2121976Y74252D03*
X2128476Y74252D03*
X2134976Y74252D03*
X2141476Y74252D03*
X2147976Y74252D03*
X2076476Y80752D03*
X2082976Y80752D03*
X2089476Y80752D03*
X2095976Y80752D03*
X2102476Y80752D03*
X2108976Y80752D03*
X2115476Y80752D03*
X2121976Y80752D03*
X2128476Y80752D03*
X2134976Y80752D03*
X2141476Y80752D03*
X2147976Y80752D03*
X2076476Y87252D03*
X2082976Y87252D03*
X2089476Y87252D03*
X2095976Y87252D03*
X2102476Y87252D03*
X2108976Y87252D03*
X2115476Y87252D03*
X2121976Y87252D03*
X2128476Y87252D03*
X2134976Y87252D03*
X2141476Y87252D03*
X2147976Y87252D03*
X2076476Y93752D03*
X2082976Y93752D03*
X2089476Y93752D03*
X2095976Y93752D03*
X2102476Y93752D03*
X2108976Y93752D03*
X2115476Y93752D03*
X2121976Y93752D03*
X2128476Y93752D03*
X2134976Y93752D03*
X2141476Y93752D03*
X2147976Y93752D03*
X2076476Y100252D03*
X2082976Y100252D03*
X2089476Y100252D03*
X2095976Y100252D03*
X2102476Y100252D03*
X2108976Y100252D03*
X2115476Y100252D03*
X2121976Y100252D03*
X2128476Y100252D03*
X2134976Y100252D03*
X2141476Y100252D03*
X2147976Y100252D03*
X2076476Y106752D03*
X2082976Y106752D03*
X2089476Y106752D03*
X2095976Y106752D03*
X2102476Y106752D03*
X2108976Y106752D03*
X2115476Y106752D03*
X2121976Y106752D03*
X2128476Y106752D03*
X2134976Y106752D03*
X2141476Y106752D03*
X2147976Y106752D03*
X2076476Y113252D03*
X2082976Y113252D03*
X2089476Y113252D03*
X2095976Y113252D03*
X2102476Y113252D03*
X2108976Y113252D03*
X2115476Y113252D03*
X2121976Y113252D03*
X2128476Y113252D03*
X2134976Y113252D03*
X2141476Y113252D03*
X2147976Y113252D03*
X2076476Y119752D03*
X2082976Y119752D03*
X2089476Y119752D03*
X2095976Y119752D03*
X2102476Y119752D03*
X2108976Y119752D03*
X2115476Y119752D03*
X2121976Y119752D03*
X2128476Y119752D03*
X2134976Y119752D03*
X2141476Y119752D03*
X2147976Y119752D03*
X2076476Y126252D03*
X2082976Y126252D03*
X2089476Y126252D03*
X2095976Y126252D03*
X2102476Y126252D03*
X2108976Y126252D03*
X2115476Y126252D03*
X2121976Y126252D03*
X2128476Y126252D03*
X2134976Y126252D03*
X2141476Y126252D03*
X2147976Y126252D03*
X2076476Y132752D03*
X2082976Y132752D03*
X2089476Y132752D03*
X2095976Y132752D03*
X2102476Y132752D03*
X2108976Y132752D03*
X2115476Y132752D03*
X2121976Y132752D03*
X2128476Y132752D03*
X2134976Y132752D03*
X2141476Y132752D03*
X2147976Y132752D03*
X2076476Y139252D03*
X2082976Y139252D03*
X2089476Y139252D03*
X2095976Y139252D03*
X2102476Y139252D03*
X2108976Y139252D03*
X2115476Y139252D03*
X2121976Y139252D03*
X2128476Y139252D03*
X2134976Y139252D03*
X2141476Y139252D03*
X2147976Y139252D03*
X2076476Y145752D03*
X2082976Y145752D03*
X2089476Y145752D03*
X2095976Y145752D03*
X2102476Y145752D03*
X2108976Y145752D03*
X2115476Y145752D03*
X2121976Y145752D03*
X2128476Y145752D03*
X2134976Y145752D03*
X2141476Y145752D03*
X2147976Y145752D03*
X2076476Y152252D03*
X2082976Y152252D03*
X2089476Y152252D03*
X2095976Y152252D03*
X2102476Y152252D03*
X2108976Y152252D03*
X2115476Y152252D03*
X2121976Y152252D03*
X2128476Y152252D03*
X2134976Y152252D03*
X2141476Y152252D03*
X2147976Y152252D03*
D11*
X2220456Y206502D02*
X2220456Y213502D01*
X2220456Y206502D02*
X2213456Y206502D01*
X2213456Y213502D01*
X2220456Y213502D01*
X2220456Y209352D02*
X2213456Y209352D01*
X2213456Y212202D02*
X2220456Y212202D01*
X2237996Y213502D02*
X2237996Y206502D01*
X2230996Y206502D01*
X2230996Y213502D01*
X2237996Y213502D01*
X2237996Y209352D02*
X2230996Y209352D01*
X2230996Y212202D02*
X2237996Y212202D01*
D12*
X2235726Y105002D03*
X2235726Y95002D03*
D13*
X2201726Y152502D03*
X2201726Y127502D03*
D12*
X2215726Y155002D03*
X2215726Y145002D03*
X2215726Y125002D03*
X2215726Y135002D03*
X2162226Y145002D03*
X2162226Y135002D03*
X2171726Y120002D03*
X2181726Y120002D03*
X2171726Y159002D03*
X2181726Y159002D03*
D14*
X2171726Y133252D03*
X2171726Y146752D03*
X2181726Y146752D03*
X2181726Y133252D03*
D12*
X2035726Y185002D03*
X2035726Y175002D03*
X2208526Y101602D03*
X2198526Y101602D03*
X2208526Y114302D03*
X2198526Y114302D03*
D15*
X2069726Y186002D03*
X2069726Y194002D03*
X2061726Y194002D03*
X2061726Y186002D03*
D16*
X2073276Y175002D03*
X2068276Y175002D03*
X2063276Y175002D03*
X2058276Y175002D03*
D17*
X2080726Y197552D03*
X2080726Y192552D03*
X2080726Y187552D03*
X2080726Y182552D03*
D16*
X2058176Y205002D03*
X2063176Y205002D03*
X2068176Y205002D03*
X2073176Y205002D03*
D17*
X2050726Y197552D03*
X2050726Y192552D03*
X2050726Y187552D03*
X2050726Y182552D03*
D12*
X2140726Y210002D03*
X2130726Y210002D03*
D11*
X2110996Y206502D02*
X2110996Y213502D01*
X2117996Y213502D01*
X2117996Y206502D01*
X2110996Y206502D01*
X2110996Y209352D02*
X2117996Y209352D01*
X2117996Y212202D02*
X2110996Y212202D01*
X2093456Y213502D02*
X2093456Y206502D01*
X2093456Y213502D02*
X2100456Y213502D01*
X2100456Y206502D01*
X2093456Y206502D01*
X2093456Y209352D02*
X2100456Y209352D01*
X2100456Y212202D02*
X2093456Y212202D01*
D12*
X2035726Y195002D03*
X2035726Y205002D03*
D18*
X2188226Y64602D03*
X2188226Y82602D03*
D10*
X182239Y630748D03*
X182239Y624248D03*
X175739Y630748D03*
X175739Y624248D03*
X182239Y617748D03*
X182239Y611248D03*
X175739Y617748D03*
X175739Y611248D03*
X182239Y604748D03*
X182239Y598248D03*
X175739Y604748D03*
X175739Y598248D03*
X182239Y591748D03*
X182239Y585248D03*
X175739Y591748D03*
X175739Y585248D03*
X182239Y578748D03*
X175739Y578748D03*
X182239Y572248D03*
X182239Y565748D03*
X175739Y572248D03*
X175739Y565748D03*
X182239Y559248D03*
X182239Y552748D03*
X175739Y559248D03*
X175739Y552748D03*
X182239Y546248D03*
X175739Y546248D03*
X169239Y630748D03*
X162739Y630748D03*
X156239Y630748D03*
X149739Y630748D03*
X143239Y630748D03*
X136739Y630748D03*
X130239Y630748D03*
X123739Y630748D03*
X117239Y630748D03*
X110739Y630748D03*
X104239Y630748D03*
X97739Y630748D03*
X169239Y624248D03*
X162739Y624248D03*
X156239Y624248D03*
X149739Y624248D03*
X143239Y624248D03*
X136739Y624248D03*
X130239Y624248D03*
X123739Y624248D03*
X117239Y624248D03*
X110739Y624248D03*
X104239Y624248D03*
X97739Y624248D03*
X169239Y617748D03*
X162739Y617748D03*
X156239Y617748D03*
X149739Y617748D03*
X143239Y617748D03*
X136739Y617748D03*
X130239Y617748D03*
X123739Y617748D03*
X117239Y617748D03*
X110739Y617748D03*
X104239Y617748D03*
X97739Y617748D03*
X169239Y611248D03*
X162739Y611248D03*
X156239Y611248D03*
X149739Y611248D03*
X143239Y611248D03*
X136739Y611248D03*
X130239Y611248D03*
X123739Y611248D03*
X117239Y611248D03*
X110739Y611248D03*
X104239Y611248D03*
X97739Y611248D03*
X169239Y604748D03*
X162739Y604748D03*
X156239Y604748D03*
X149739Y604748D03*
X143239Y604748D03*
X136739Y604748D03*
X130239Y604748D03*
X123739Y604748D03*
X117239Y604748D03*
X110739Y604748D03*
X104239Y604748D03*
X97739Y604748D03*
X169239Y598248D03*
X162739Y598248D03*
X156239Y598248D03*
X149739Y598248D03*
X143239Y598248D03*
X136739Y598248D03*
X130239Y598248D03*
X123739Y598248D03*
X117239Y598248D03*
X110739Y598248D03*
X104239Y598248D03*
X97739Y598248D03*
X169239Y591748D03*
X162739Y591748D03*
X156239Y591748D03*
X149739Y591748D03*
X143239Y591748D03*
X136739Y591748D03*
X130239Y591748D03*
X123739Y591748D03*
X117239Y591748D03*
X110739Y591748D03*
X104239Y591748D03*
X97739Y591748D03*
X169239Y585248D03*
X162739Y585248D03*
X156239Y585248D03*
X149739Y585248D03*
X143239Y585248D03*
X136739Y585248D03*
X130239Y585248D03*
X123739Y585248D03*
X117239Y585248D03*
X110739Y585248D03*
X104239Y585248D03*
X97739Y585248D03*
X169239Y578748D03*
X162739Y578748D03*
X156239Y578748D03*
X149739Y578748D03*
X143239Y578748D03*
X136739Y578748D03*
X130239Y578748D03*
X123739Y578748D03*
X117239Y578748D03*
X110739Y578748D03*
X104239Y578748D03*
X97739Y578748D03*
X169239Y572248D03*
X162739Y572248D03*
X156239Y572248D03*
X149739Y572248D03*
X143239Y572248D03*
X136739Y572248D03*
X130239Y572248D03*
X123739Y572248D03*
X117239Y572248D03*
X110739Y572248D03*
X104239Y572248D03*
X97739Y572248D03*
X169239Y565748D03*
X162739Y565748D03*
X156239Y565748D03*
X149739Y565748D03*
X143239Y565748D03*
X136739Y565748D03*
X130239Y565748D03*
X123739Y565748D03*
X117239Y565748D03*
X110739Y565748D03*
X104239Y565748D03*
X97739Y565748D03*
X169239Y559248D03*
X162739Y559248D03*
X156239Y559248D03*
X149739Y559248D03*
X143239Y559248D03*
X136739Y559248D03*
X130239Y559248D03*
X123739Y559248D03*
X117239Y559248D03*
X110739Y559248D03*
X104239Y559248D03*
X97739Y559248D03*
X169239Y552748D03*
X162739Y552748D03*
X156239Y552748D03*
X149739Y552748D03*
X143239Y552748D03*
X136739Y552748D03*
X130239Y552748D03*
X123739Y552748D03*
X117239Y552748D03*
X110739Y552748D03*
X104239Y552748D03*
X97739Y552748D03*
X169239Y546248D03*
X162739Y546248D03*
X156239Y546248D03*
X149739Y546248D03*
X143239Y546248D03*
X136739Y546248D03*
X130239Y546248D03*
X123739Y546248D03*
X117239Y546248D03*
X110739Y546248D03*
X104239Y546248D03*
X97739Y546248D03*
D11*
X25259Y491998D02*
X25259Y484998D01*
X25259Y491998D02*
X32259Y491998D01*
X32259Y484998D01*
X25259Y484998D01*
X25259Y487848D02*
X32259Y487848D01*
X32259Y490698D02*
X25259Y490698D01*
X7719Y491998D02*
X7719Y484998D01*
X7719Y491998D02*
X14719Y491998D01*
X14719Y484998D01*
X7719Y484998D01*
X7719Y487848D02*
X14719Y487848D01*
X14719Y490698D02*
X7719Y490698D01*
D12*
X9989Y593498D03*
X9989Y603498D03*
D13*
X43989Y545998D03*
X43989Y570998D03*
D12*
X29989Y543498D03*
X29989Y553498D03*
X29989Y573498D03*
X29989Y563498D03*
X83489Y553498D03*
X83489Y563498D03*
X73989Y578498D03*
X63989Y578498D03*
X73989Y539498D03*
X63989Y539498D03*
D14*
X73989Y565248D03*
X73989Y551748D03*
X63989Y551748D03*
X63989Y565248D03*
D12*
X209989Y513498D03*
X209989Y523498D03*
X37189Y596898D03*
X47189Y596898D03*
X37189Y584198D03*
X47189Y584198D03*
D15*
X175989Y512498D03*
X175989Y504498D03*
X183989Y504498D03*
X183989Y512498D03*
D16*
X172439Y523498D03*
X177439Y523498D03*
X182439Y523498D03*
X187439Y523498D03*
D17*
X164989Y500948D03*
X164989Y505948D03*
X164989Y510948D03*
X164989Y515948D03*
D16*
X187539Y493498D03*
X182539Y493498D03*
X177539Y493498D03*
X172539Y493498D03*
D17*
X194989Y500948D03*
X194989Y505948D03*
X194989Y510948D03*
X194989Y515948D03*
D12*
X104989Y488498D03*
X114989Y488498D03*
D11*
X134719Y491998D02*
X134719Y484998D01*
X127719Y484998D01*
X127719Y491998D01*
X134719Y491998D01*
X134719Y487848D02*
X127719Y487848D01*
X127719Y490698D02*
X134719Y490698D01*
X152259Y491998D02*
X152259Y484998D01*
X145259Y484998D01*
X145259Y491998D01*
X152259Y491998D01*
X152259Y487848D02*
X145259Y487848D01*
X145259Y490698D02*
X152259Y490698D01*
D12*
X209989Y503498D03*
X209989Y493498D03*
D18*
X57489Y633898D03*
X57489Y615898D03*
D10*
X407334Y630748D03*
X407334Y624248D03*
X400834Y630748D03*
X400834Y624248D03*
X407334Y617748D03*
X407334Y611248D03*
X400834Y617748D03*
X400834Y611248D03*
X407334Y604748D03*
X407334Y598248D03*
X400834Y604748D03*
X400834Y598248D03*
X407334Y591748D03*
X407334Y585248D03*
X400834Y591748D03*
X400834Y585248D03*
X407334Y578748D03*
X400834Y578748D03*
X407334Y572248D03*
X407334Y565748D03*
X400834Y572248D03*
X400834Y565748D03*
X407334Y559248D03*
X407334Y552748D03*
X400834Y559248D03*
X400834Y552748D03*
X407334Y546248D03*
X400834Y546248D03*
X394334Y630748D03*
X387834Y630748D03*
X381334Y630748D03*
X374834Y630748D03*
X368334Y630748D03*
X361834Y630748D03*
X355334Y630748D03*
X348834Y630748D03*
X342334Y630748D03*
X335834Y630748D03*
X329334Y630748D03*
X322834Y630748D03*
X394334Y624248D03*
X387834Y624248D03*
X381334Y624248D03*
X374834Y624248D03*
X368334Y624248D03*
X361834Y624248D03*
X355334Y624248D03*
X348834Y624248D03*
X342334Y624248D03*
X335834Y624248D03*
X329334Y624248D03*
X322834Y624248D03*
X394334Y617748D03*
X387834Y617748D03*
X381334Y617748D03*
X374834Y617748D03*
X368334Y617748D03*
X361834Y617748D03*
X355334Y617748D03*
X348834Y617748D03*
X342334Y617748D03*
X335834Y617748D03*
X329334Y617748D03*
X322834Y617748D03*
X394334Y611248D03*
X387834Y611248D03*
X381334Y611248D03*
X374834Y611248D03*
X368334Y611248D03*
X361834Y611248D03*
X355334Y611248D03*
X348834Y611248D03*
X342334Y611248D03*
X335834Y611248D03*
X329334Y611248D03*
X322834Y611248D03*
X394334Y604748D03*
X387834Y604748D03*
X381334Y604748D03*
X374834Y604748D03*
X368334Y604748D03*
X361834Y604748D03*
X355334Y604748D03*
X348834Y604748D03*
X342334Y604748D03*
X335834Y604748D03*
X329334Y604748D03*
X322834Y604748D03*
X394334Y598248D03*
X387834Y598248D03*
X381334Y598248D03*
X374834Y598248D03*
X368334Y598248D03*
X361834Y598248D03*
X355334Y598248D03*
X348834Y598248D03*
X342334Y598248D03*
X335834Y598248D03*
X329334Y598248D03*
X322834Y598248D03*
X394334Y591748D03*
X387834Y591748D03*
X381334Y591748D03*
X374834Y591748D03*
X368334Y591748D03*
X361834Y591748D03*
X355334Y591748D03*
X348834Y591748D03*
X342334Y591748D03*
X335834Y591748D03*
X329334Y591748D03*
X322834Y591748D03*
X394334Y585248D03*
X387834Y585248D03*
X381334Y585248D03*
X374834Y585248D03*
X368334Y585248D03*
X361834Y585248D03*
X355334Y585248D03*
X348834Y585248D03*
X342334Y585248D03*
X335834Y585248D03*
X329334Y585248D03*
X322834Y585248D03*
X394334Y578748D03*
X387834Y578748D03*
X381334Y578748D03*
X374834Y578748D03*
X368334Y578748D03*
X361834Y578748D03*
X355334Y578748D03*
X348834Y578748D03*
X342334Y578748D03*
X335834Y578748D03*
X329334Y578748D03*
X322834Y578748D03*
X394334Y572248D03*
X387834Y572248D03*
X381334Y572248D03*
X374834Y572248D03*
X368334Y572248D03*
X361834Y572248D03*
X355334Y572248D03*
X348834Y572248D03*
X342334Y572248D03*
X335834Y572248D03*
X329334Y572248D03*
X322834Y572248D03*
X394334Y565748D03*
X387834Y565748D03*
X381334Y565748D03*
X374834Y565748D03*
X368334Y565748D03*
X361834Y565748D03*
X355334Y565748D03*
X348834Y565748D03*
X342334Y565748D03*
X335834Y565748D03*
X329334Y565748D03*
X322834Y565748D03*
X394334Y559248D03*
X387834Y559248D03*
X381334Y559248D03*
X374834Y559248D03*
X368334Y559248D03*
X361834Y559248D03*
X355334Y559248D03*
X348834Y559248D03*
X342334Y559248D03*
X335834Y559248D03*
X329334Y559248D03*
X322834Y559248D03*
X394334Y552748D03*
X387834Y552748D03*
X381334Y552748D03*
X374834Y552748D03*
X368334Y552748D03*
X361834Y552748D03*
X355334Y552748D03*
X348834Y552748D03*
X342334Y552748D03*
X335834Y552748D03*
X329334Y552748D03*
X322834Y552748D03*
X394334Y546248D03*
X387834Y546248D03*
X381334Y546248D03*
X374834Y546248D03*
X368334Y546248D03*
X361834Y546248D03*
X355334Y546248D03*
X348834Y546248D03*
X342334Y546248D03*
X335834Y546248D03*
X329334Y546248D03*
X322834Y546248D03*
D11*
X250354Y491998D02*
X250354Y484998D01*
X250354Y491998D02*
X257354Y491998D01*
X257354Y484998D01*
X250354Y484998D01*
X250354Y487848D02*
X257354Y487848D01*
X257354Y490698D02*
X250354Y490698D01*
X232814Y491998D02*
X232814Y484998D01*
X232814Y491998D02*
X239814Y491998D01*
X239814Y484998D01*
X232814Y484998D01*
X232814Y487848D02*
X239814Y487848D01*
X239814Y490698D02*
X232814Y490698D01*
D12*
X235084Y593498D03*
X235084Y603498D03*
D13*
X269084Y545998D03*
X269084Y570998D03*
D12*
X255084Y543498D03*
X255084Y553498D03*
X255084Y573498D03*
X255084Y563498D03*
X308584Y553498D03*
X308584Y563498D03*
X299084Y578498D03*
X289084Y578498D03*
X299084Y539498D03*
X289084Y539498D03*
D14*
X299084Y565248D03*
X299084Y551748D03*
X289084Y551748D03*
X289084Y565248D03*
D12*
X435084Y513498D03*
X435084Y523498D03*
X262284Y596898D03*
X272284Y596898D03*
X262284Y584198D03*
X272284Y584198D03*
D15*
X401084Y512498D03*
X401084Y504498D03*
X409084Y504498D03*
X409084Y512498D03*
D16*
X397534Y523498D03*
X402534Y523498D03*
X407534Y523498D03*
X412534Y523498D03*
D17*
X390084Y500948D03*
X390084Y505948D03*
X390084Y510948D03*
X390084Y515948D03*
D16*
X412634Y493498D03*
X407634Y493498D03*
X402634Y493498D03*
X397634Y493498D03*
D17*
X420084Y500948D03*
X420084Y505948D03*
X420084Y510948D03*
X420084Y515948D03*
D12*
X330084Y488498D03*
X340084Y488498D03*
D11*
X359814Y491998D02*
X359814Y484998D01*
X352814Y484998D01*
X352814Y491998D01*
X359814Y491998D01*
X359814Y487848D02*
X352814Y487848D01*
X352814Y490698D02*
X359814Y490698D01*
X377354Y491998D02*
X377354Y484998D01*
X370354Y484998D01*
X370354Y491998D01*
X377354Y491998D01*
X377354Y487848D02*
X370354Y487848D01*
X370354Y490698D02*
X377354Y490698D01*
D12*
X435084Y503498D03*
X435084Y493498D03*
D18*
X282584Y633898D03*
X282584Y615898D03*
D10*
X632404Y630748D03*
X632404Y624248D03*
X625904Y630748D03*
X625904Y624248D03*
X632404Y617748D03*
X632404Y611248D03*
X625904Y617748D03*
X625904Y611248D03*
X632404Y604748D03*
X632404Y598248D03*
X625904Y604748D03*
X625904Y598248D03*
X632404Y591748D03*
X632404Y585248D03*
X625904Y591748D03*
X625904Y585248D03*
X632404Y578748D03*
X625904Y578748D03*
X632404Y572248D03*
X632404Y565748D03*
X625904Y572248D03*
X625904Y565748D03*
X632404Y559248D03*
X632404Y552748D03*
X625904Y559248D03*
X625904Y552748D03*
X632404Y546248D03*
X625904Y546248D03*
X619404Y630748D03*
X612904Y630748D03*
X606404Y630748D03*
X599904Y630748D03*
X593404Y630748D03*
X586904Y630748D03*
X580404Y630748D03*
X573904Y630748D03*
X567404Y630748D03*
X560904Y630748D03*
X554404Y630748D03*
X547904Y630748D03*
X619404Y624248D03*
X612904Y624248D03*
X606404Y624248D03*
X599904Y624248D03*
X593404Y624248D03*
X586904Y624248D03*
X580404Y624248D03*
X573904Y624248D03*
X567404Y624248D03*
X560904Y624248D03*
X554404Y624248D03*
X547904Y624248D03*
X619404Y617748D03*
X612904Y617748D03*
X606404Y617748D03*
X599904Y617748D03*
X593404Y617748D03*
X586904Y617748D03*
X580404Y617748D03*
X573904Y617748D03*
X567404Y617748D03*
X560904Y617748D03*
X554404Y617748D03*
X547904Y617748D03*
X619404Y611248D03*
X612904Y611248D03*
X606404Y611248D03*
X599904Y611248D03*
X593404Y611248D03*
X586904Y611248D03*
X580404Y611248D03*
X573904Y611248D03*
X567404Y611248D03*
X560904Y611248D03*
X554404Y611248D03*
X547904Y611248D03*
X619404Y604748D03*
X612904Y604748D03*
X606404Y604748D03*
X599904Y604748D03*
X593404Y604748D03*
X586904Y604748D03*
X580404Y604748D03*
X573904Y604748D03*
X567404Y604748D03*
X560904Y604748D03*
X554404Y604748D03*
X547904Y604748D03*
X619404Y598248D03*
X612904Y598248D03*
X606404Y598248D03*
X599904Y598248D03*
X593404Y598248D03*
X586904Y598248D03*
X580404Y598248D03*
X573904Y598248D03*
X567404Y598248D03*
X560904Y598248D03*
X554404Y598248D03*
X547904Y598248D03*
X619404Y591748D03*
X612904Y591748D03*
X606404Y591748D03*
X599904Y591748D03*
X593404Y591748D03*
X586904Y591748D03*
X580404Y591748D03*
X573904Y591748D03*
X567404Y591748D03*
X560904Y591748D03*
X554404Y591748D03*
X547904Y591748D03*
X619404Y585248D03*
X612904Y585248D03*
X606404Y585248D03*
X599904Y585248D03*
X593404Y585248D03*
X586904Y585248D03*
X580404Y585248D03*
X573904Y585248D03*
X567404Y585248D03*
X560904Y585248D03*
X554404Y585248D03*
X547904Y585248D03*
X619404Y578748D03*
X612904Y578748D03*
X606404Y578748D03*
X599904Y578748D03*
X593404Y578748D03*
X586904Y578748D03*
X580404Y578748D03*
X573904Y578748D03*
X567404Y578748D03*
X560904Y578748D03*
X554404Y578748D03*
X547904Y578748D03*
X619404Y572248D03*
X612904Y572248D03*
X606404Y572248D03*
X599904Y572248D03*
X593404Y572248D03*
X586904Y572248D03*
X580404Y572248D03*
X573904Y572248D03*
X567404Y572248D03*
X560904Y572248D03*
X554404Y572248D03*
X547904Y572248D03*
X619404Y565748D03*
X612904Y565748D03*
X606404Y565748D03*
X599904Y565748D03*
X593404Y565748D03*
X586904Y565748D03*
X580404Y565748D03*
X573904Y565748D03*
X567404Y565748D03*
X560904Y565748D03*
X554404Y565748D03*
X547904Y565748D03*
X619404Y559248D03*
X612904Y559248D03*
X606404Y559248D03*
X599904Y559248D03*
X593404Y559248D03*
X586904Y559248D03*
X580404Y559248D03*
X573904Y559248D03*
X567404Y559248D03*
X560904Y559248D03*
X554404Y559248D03*
X547904Y559248D03*
X619404Y552748D03*
X612904Y552748D03*
X606404Y552748D03*
X599904Y552748D03*
X593404Y552748D03*
X586904Y552748D03*
X580404Y552748D03*
X573904Y552748D03*
X567404Y552748D03*
X560904Y552748D03*
X554404Y552748D03*
X547904Y552748D03*
X619404Y546248D03*
X612904Y546248D03*
X606404Y546248D03*
X599904Y546248D03*
X593404Y546248D03*
X586904Y546248D03*
X580404Y546248D03*
X573904Y546248D03*
X567404Y546248D03*
X560904Y546248D03*
X554404Y546248D03*
X547904Y546248D03*
D11*
X475424Y491998D02*
X475424Y484998D01*
X475424Y491998D02*
X482424Y491998D01*
X482424Y484998D01*
X475424Y484998D01*
X475424Y487848D02*
X482424Y487848D01*
X482424Y490698D02*
X475424Y490698D01*
X457884Y491998D02*
X457884Y484998D01*
X457884Y491998D02*
X464884Y491998D01*
X464884Y484998D01*
X457884Y484998D01*
X457884Y487848D02*
X464884Y487848D01*
X464884Y490698D02*
X457884Y490698D01*
D12*
X460154Y593498D03*
X460154Y603498D03*
D13*
X494154Y545998D03*
X494154Y570998D03*
D12*
X480154Y543498D03*
X480154Y553498D03*
X480154Y573498D03*
X480154Y563498D03*
X533654Y553498D03*
X533654Y563498D03*
X524154Y578498D03*
X514154Y578498D03*
X524154Y539498D03*
X514154Y539498D03*
D14*
X524154Y565248D03*
X524154Y551748D03*
X514154Y551748D03*
X514154Y565248D03*
D12*
X660154Y513498D03*
X660154Y523498D03*
X487354Y596898D03*
X497354Y596898D03*
X487354Y584198D03*
X497354Y584198D03*
D15*
X626154Y512498D03*
X626154Y504498D03*
X634154Y504498D03*
X634154Y512498D03*
D16*
X622604Y523498D03*
X627604Y523498D03*
X632604Y523498D03*
X637604Y523498D03*
D17*
X615154Y500948D03*
X615154Y505948D03*
X615154Y510948D03*
X615154Y515948D03*
D16*
X637704Y493498D03*
X632704Y493498D03*
X627704Y493498D03*
X622704Y493498D03*
D17*
X645154Y500948D03*
X645154Y505948D03*
X645154Y510948D03*
X645154Y515948D03*
D12*
X555154Y488498D03*
X565154Y488498D03*
D11*
X584884Y491998D02*
X584884Y484998D01*
X577884Y484998D01*
X577884Y491998D01*
X584884Y491998D01*
X584884Y487848D02*
X577884Y487848D01*
X577884Y490698D02*
X584884Y490698D01*
X602424Y491998D02*
X602424Y484998D01*
X595424Y484998D01*
X595424Y491998D01*
X602424Y491998D01*
X602424Y487848D02*
X595424Y487848D01*
X595424Y490698D02*
X602424Y490698D01*
D12*
X660154Y503498D03*
X660154Y493498D03*
D18*
X507654Y633898D03*
X507654Y615898D03*
D10*
X857498Y630748D03*
X857498Y624248D03*
X850998Y630748D03*
X850998Y624248D03*
X857498Y617748D03*
X857498Y611248D03*
X850998Y617748D03*
X850998Y611248D03*
X857498Y604748D03*
X857498Y598248D03*
X850998Y604748D03*
X850998Y598248D03*
X857498Y591748D03*
X857498Y585248D03*
X850998Y591748D03*
X850998Y585248D03*
X857498Y578748D03*
X850998Y578748D03*
X857498Y572248D03*
X857498Y565748D03*
X850998Y572248D03*
X850998Y565748D03*
X857498Y559248D03*
X857498Y552748D03*
X850998Y559248D03*
X850998Y552748D03*
X857498Y546248D03*
X850998Y546248D03*
X844498Y630748D03*
X837998Y630748D03*
X831498Y630748D03*
X824998Y630748D03*
X818498Y630748D03*
X811998Y630748D03*
X805498Y630748D03*
X798998Y630748D03*
X792498Y630748D03*
X785998Y630748D03*
X779498Y630748D03*
X772998Y630748D03*
X844498Y624248D03*
X837998Y624248D03*
X831498Y624248D03*
X824998Y624248D03*
X818498Y624248D03*
X811998Y624248D03*
X805498Y624248D03*
X798998Y624248D03*
X792498Y624248D03*
X785998Y624248D03*
X779498Y624248D03*
X772998Y624248D03*
X844498Y617748D03*
X837998Y617748D03*
X831498Y617748D03*
X824998Y617748D03*
X818498Y617748D03*
X811998Y617748D03*
X805498Y617748D03*
X798998Y617748D03*
X792498Y617748D03*
X785998Y617748D03*
X779498Y617748D03*
X772998Y617748D03*
X844498Y611248D03*
X837998Y611248D03*
X831498Y611248D03*
X824998Y611248D03*
X818498Y611248D03*
X811998Y611248D03*
X805498Y611248D03*
X798998Y611248D03*
X792498Y611248D03*
X785998Y611248D03*
X779498Y611248D03*
X772998Y611248D03*
X844498Y604748D03*
X837998Y604748D03*
X831498Y604748D03*
X824998Y604748D03*
X818498Y604748D03*
X811998Y604748D03*
X805498Y604748D03*
X798998Y604748D03*
X792498Y604748D03*
X785998Y604748D03*
X779498Y604748D03*
X772998Y604748D03*
X844498Y598248D03*
X837998Y598248D03*
X831498Y598248D03*
X824998Y598248D03*
X818498Y598248D03*
X811998Y598248D03*
X805498Y598248D03*
X798998Y598248D03*
X792498Y598248D03*
X785998Y598248D03*
X779498Y598248D03*
X772998Y598248D03*
X844498Y591748D03*
X837998Y591748D03*
X831498Y591748D03*
X824998Y591748D03*
X818498Y591748D03*
X811998Y591748D03*
X805498Y591748D03*
X798998Y591748D03*
X792498Y591748D03*
X785998Y591748D03*
X779498Y591748D03*
X772998Y591748D03*
X844498Y585248D03*
X837998Y585248D03*
X831498Y585248D03*
X824998Y585248D03*
X818498Y585248D03*
X811998Y585248D03*
X805498Y585248D03*
X798998Y585248D03*
X792498Y585248D03*
X785998Y585248D03*
X779498Y585248D03*
X772998Y585248D03*
X844498Y578748D03*
X837998Y578748D03*
X831498Y578748D03*
X824998Y578748D03*
X818498Y578748D03*
X811998Y578748D03*
X805498Y578748D03*
X798998Y578748D03*
X792498Y578748D03*
X785998Y578748D03*
X779498Y578748D03*
X772998Y578748D03*
X844498Y572248D03*
X837998Y572248D03*
X831498Y572248D03*
X824998Y572248D03*
X818498Y572248D03*
X811998Y572248D03*
X805498Y572248D03*
X798998Y572248D03*
X792498Y572248D03*
X785998Y572248D03*
X779498Y572248D03*
X772998Y572248D03*
X844498Y565748D03*
X837998Y565748D03*
X831498Y565748D03*
X824998Y565748D03*
X818498Y565748D03*
X811998Y565748D03*
X805498Y565748D03*
X798998Y565748D03*
X792498Y565748D03*
X785998Y565748D03*
X779498Y565748D03*
X772998Y565748D03*
X844498Y559248D03*
X837998Y559248D03*
X831498Y559248D03*
X824998Y559248D03*
X818498Y559248D03*
X811998Y559248D03*
X805498Y559248D03*
X798998Y559248D03*
X792498Y559248D03*
X785998Y559248D03*
X779498Y559248D03*
X772998Y559248D03*
X844498Y552748D03*
X837998Y552748D03*
X831498Y552748D03*
X824998Y552748D03*
X818498Y552748D03*
X811998Y552748D03*
X805498Y552748D03*
X798998Y552748D03*
X792498Y552748D03*
X785998Y552748D03*
X779498Y552748D03*
X772998Y552748D03*
X844498Y546248D03*
X837998Y546248D03*
X831498Y546248D03*
X824998Y546248D03*
X818498Y546248D03*
X811998Y546248D03*
X805498Y546248D03*
X798998Y546248D03*
X792498Y546248D03*
X785998Y546248D03*
X779498Y546248D03*
X772998Y546248D03*
D11*
X700518Y491998D02*
X700518Y484998D01*
X700518Y491998D02*
X707518Y491998D01*
X707518Y484998D01*
X700518Y484998D01*
X700518Y487848D02*
X707518Y487848D01*
X707518Y490698D02*
X700518Y490698D01*
X682978Y491998D02*
X682978Y484998D01*
X682978Y491998D02*
X689978Y491998D01*
X689978Y484998D01*
X682978Y484998D01*
X682978Y487848D02*
X689978Y487848D01*
X689978Y490698D02*
X682978Y490698D01*
D12*
X685248Y593498D03*
X685248Y603498D03*
D13*
X719248Y545998D03*
X719248Y570998D03*
D12*
X705248Y543498D03*
X705248Y553498D03*
X705248Y573498D03*
X705248Y563498D03*
X758748Y553498D03*
X758748Y563498D03*
X749248Y578498D03*
X739248Y578498D03*
X749248Y539498D03*
X739248Y539498D03*
D14*
X749248Y565248D03*
X749248Y551748D03*
X739248Y551748D03*
X739248Y565248D03*
D12*
X885248Y513498D03*
X885248Y523498D03*
X712448Y596898D03*
X722448Y596898D03*
X712448Y584198D03*
X722448Y584198D03*
D15*
X851248Y512498D03*
X851248Y504498D03*
X859248Y504498D03*
X859248Y512498D03*
D16*
X847698Y523498D03*
X852698Y523498D03*
X857698Y523498D03*
X862698Y523498D03*
D17*
X840248Y500948D03*
X840248Y505948D03*
X840248Y510948D03*
X840248Y515948D03*
D16*
X862798Y493498D03*
X857798Y493498D03*
X852798Y493498D03*
X847798Y493498D03*
D17*
X870248Y500948D03*
X870248Y505948D03*
X870248Y510948D03*
X870248Y515948D03*
D12*
X780248Y488498D03*
X790248Y488498D03*
D11*
X809978Y491998D02*
X809978Y484998D01*
X802978Y484998D01*
X802978Y491998D01*
X809978Y491998D01*
X809978Y487848D02*
X802978Y487848D01*
X802978Y490698D02*
X809978Y490698D01*
X827518Y491998D02*
X827518Y484998D01*
X820518Y484998D01*
X820518Y491998D01*
X827518Y491998D01*
X827518Y487848D02*
X820518Y487848D01*
X820518Y490698D02*
X827518Y490698D01*
D12*
X885248Y503498D03*
X885248Y493498D03*
D18*
X732748Y633898D03*
X732748Y615898D03*
D10*
X1082568Y630748D03*
X1082568Y624248D03*
X1076068Y630748D03*
X1076068Y624248D03*
X1082568Y617748D03*
X1082568Y611248D03*
X1076068Y617748D03*
X1076068Y611248D03*
X1082568Y604748D03*
X1082568Y598248D03*
X1076068Y604748D03*
X1076068Y598248D03*
X1082568Y591748D03*
X1082568Y585248D03*
X1076068Y591748D03*
X1076068Y585248D03*
X1082568Y578748D03*
X1076068Y578748D03*
X1082568Y572248D03*
X1082568Y565748D03*
X1076068Y572248D03*
X1076068Y565748D03*
X1082568Y559248D03*
X1082568Y552748D03*
X1076068Y559248D03*
X1076068Y552748D03*
X1082568Y546248D03*
X1076068Y546248D03*
X1069568Y630748D03*
X1063068Y630748D03*
X1056568Y630748D03*
X1050068Y630748D03*
X1043568Y630748D03*
X1037068Y630748D03*
X1030568Y630748D03*
X1024068Y630748D03*
X1017568Y630748D03*
X1011068Y630748D03*
X1004568Y630748D03*
X998068Y630748D03*
X1069568Y624248D03*
X1063068Y624248D03*
X1056568Y624248D03*
X1050068Y624248D03*
X1043568Y624248D03*
X1037068Y624248D03*
X1030568Y624248D03*
X1024068Y624248D03*
X1017568Y624248D03*
X1011068Y624248D03*
X1004568Y624248D03*
X998068Y624248D03*
X1069568Y617748D03*
X1063068Y617748D03*
X1056568Y617748D03*
X1050068Y617748D03*
X1043568Y617748D03*
X1037068Y617748D03*
X1030568Y617748D03*
X1024068Y617748D03*
X1017568Y617748D03*
X1011068Y617748D03*
X1004568Y617748D03*
X998068Y617748D03*
X1069568Y611248D03*
X1063068Y611248D03*
X1056568Y611248D03*
X1050068Y611248D03*
X1043568Y611248D03*
X1037068Y611248D03*
X1030568Y611248D03*
X1024068Y611248D03*
X1017568Y611248D03*
X1011068Y611248D03*
X1004568Y611248D03*
X998068Y611248D03*
X1069568Y604748D03*
X1063068Y604748D03*
X1056568Y604748D03*
X1050068Y604748D03*
X1043568Y604748D03*
X1037068Y604748D03*
X1030568Y604748D03*
X1024068Y604748D03*
X1017568Y604748D03*
X1011068Y604748D03*
X1004568Y604748D03*
X998068Y604748D03*
X1069568Y598248D03*
X1063068Y598248D03*
X1056568Y598248D03*
X1050068Y598248D03*
X1043568Y598248D03*
X1037068Y598248D03*
X1030568Y598248D03*
X1024068Y598248D03*
X1017568Y598248D03*
X1011068Y598248D03*
X1004568Y598248D03*
X998068Y598248D03*
X1069568Y591748D03*
X1063068Y591748D03*
X1056568Y591748D03*
X1050068Y591748D03*
X1043568Y591748D03*
X1037068Y591748D03*
X1030568Y591748D03*
X1024068Y591748D03*
X1017568Y591748D03*
X1011068Y591748D03*
X1004568Y591748D03*
X998068Y591748D03*
X1069568Y585248D03*
X1063068Y585248D03*
X1056568Y585248D03*
X1050068Y585248D03*
X1043568Y585248D03*
X1037068Y585248D03*
X1030568Y585248D03*
X1024068Y585248D03*
X1017568Y585248D03*
X1011068Y585248D03*
X1004568Y585248D03*
X998068Y585248D03*
X1069568Y578748D03*
X1063068Y578748D03*
X1056568Y578748D03*
X1050068Y578748D03*
X1043568Y578748D03*
X1037068Y578748D03*
X1030568Y578748D03*
X1024068Y578748D03*
X1017568Y578748D03*
X1011068Y578748D03*
X1004568Y578748D03*
X998068Y578748D03*
X1069568Y572248D03*
X1063068Y572248D03*
X1056568Y572248D03*
X1050068Y572248D03*
X1043568Y572248D03*
X1037068Y572248D03*
X1030568Y572248D03*
X1024068Y572248D03*
X1017568Y572248D03*
X1011068Y572248D03*
X1004568Y572248D03*
X998068Y572248D03*
X1069568Y565748D03*
X1063068Y565748D03*
X1056568Y565748D03*
X1050068Y565748D03*
X1043568Y565748D03*
X1037068Y565748D03*
X1030568Y565748D03*
X1024068Y565748D03*
X1017568Y565748D03*
X1011068Y565748D03*
X1004568Y565748D03*
X998068Y565748D03*
X1069568Y559248D03*
X1063068Y559248D03*
X1056568Y559248D03*
X1050068Y559248D03*
X1043568Y559248D03*
X1037068Y559248D03*
X1030568Y559248D03*
X1024068Y559248D03*
X1017568Y559248D03*
X1011068Y559248D03*
X1004568Y559248D03*
X998068Y559248D03*
X1069568Y552748D03*
X1063068Y552748D03*
X1056568Y552748D03*
X1050068Y552748D03*
X1043568Y552748D03*
X1037068Y552748D03*
X1030568Y552748D03*
X1024068Y552748D03*
X1017568Y552748D03*
X1011068Y552748D03*
X1004568Y552748D03*
X998068Y552748D03*
X1069568Y546248D03*
X1063068Y546248D03*
X1056568Y546248D03*
X1050068Y546248D03*
X1043568Y546248D03*
X1037068Y546248D03*
X1030568Y546248D03*
X1024068Y546248D03*
X1017568Y546248D03*
X1011068Y546248D03*
X1004568Y546248D03*
X998068Y546248D03*
D11*
X925588Y491998D02*
X925588Y484998D01*
X925588Y491998D02*
X932588Y491998D01*
X932588Y484998D01*
X925588Y484998D01*
X925588Y487848D02*
X932588Y487848D01*
X932588Y490698D02*
X925588Y490698D01*
X908048Y491998D02*
X908048Y484998D01*
X908048Y491998D02*
X915048Y491998D01*
X915048Y484998D01*
X908048Y484998D01*
X908048Y487848D02*
X915048Y487848D01*
X915048Y490698D02*
X908048Y490698D01*
D12*
X910318Y593498D03*
X910318Y603498D03*
D13*
X944318Y545998D03*
X944318Y570998D03*
D12*
X930318Y543498D03*
X930318Y553498D03*
X930318Y573498D03*
X930318Y563498D03*
X983818Y553498D03*
X983818Y563498D03*
X974318Y578498D03*
X964318Y578498D03*
X974318Y539498D03*
X964318Y539498D03*
D14*
X974318Y565248D03*
X974318Y551748D03*
X964318Y551748D03*
X964318Y565248D03*
D12*
X1110318Y513498D03*
X1110318Y523498D03*
X937518Y596898D03*
X947518Y596898D03*
X937518Y584198D03*
X947518Y584198D03*
D15*
X1076318Y512498D03*
X1076318Y504498D03*
X1084318Y504498D03*
X1084318Y512498D03*
D16*
X1072768Y523498D03*
X1077768Y523498D03*
X1082768Y523498D03*
X1087768Y523498D03*
D17*
X1065318Y500948D03*
X1065318Y505948D03*
X1065318Y510948D03*
X1065318Y515948D03*
D16*
X1087868Y493498D03*
X1082868Y493498D03*
X1077868Y493498D03*
X1072868Y493498D03*
D17*
X1095318Y500948D03*
X1095318Y505948D03*
X1095318Y510948D03*
X1095318Y515948D03*
D12*
X1005318Y488498D03*
X1015318Y488498D03*
D11*
X1035048Y491998D02*
X1035048Y484998D01*
X1028048Y484998D01*
X1028048Y491998D01*
X1035048Y491998D01*
X1035048Y487848D02*
X1028048Y487848D01*
X1028048Y490698D02*
X1035048Y490698D01*
X1052588Y491998D02*
X1052588Y484998D01*
X1045588Y484998D01*
X1045588Y491998D01*
X1052588Y491998D01*
X1052588Y487848D02*
X1045588Y487848D01*
X1045588Y490698D02*
X1052588Y490698D01*
D12*
X1110318Y503498D03*
X1110318Y493498D03*
D18*
X957818Y633898D03*
X957818Y615898D03*
D10*
X1307663Y630748D03*
X1307663Y624248D03*
X1301163Y630748D03*
X1301163Y624248D03*
X1307663Y617748D03*
X1307663Y611248D03*
X1301163Y617748D03*
X1301163Y611248D03*
X1307663Y604748D03*
X1307663Y598248D03*
X1301163Y604748D03*
X1301163Y598248D03*
X1307663Y591748D03*
X1307663Y585248D03*
X1301163Y591748D03*
X1301163Y585248D03*
X1307663Y578748D03*
X1301163Y578748D03*
X1307663Y572248D03*
X1307663Y565748D03*
X1301163Y572248D03*
X1301163Y565748D03*
X1307663Y559248D03*
X1307663Y552748D03*
X1301163Y559248D03*
X1301163Y552748D03*
X1307663Y546248D03*
X1301163Y546248D03*
X1294663Y630748D03*
X1288163Y630748D03*
X1281663Y630748D03*
X1275163Y630748D03*
X1268663Y630748D03*
X1262163Y630748D03*
X1255663Y630748D03*
X1249163Y630748D03*
X1242663Y630748D03*
X1236163Y630748D03*
X1229663Y630748D03*
X1223163Y630748D03*
X1294663Y624248D03*
X1288163Y624248D03*
X1281663Y624248D03*
X1275163Y624248D03*
X1268663Y624248D03*
X1262163Y624248D03*
X1255663Y624248D03*
X1249163Y624248D03*
X1242663Y624248D03*
X1236163Y624248D03*
X1229663Y624248D03*
X1223163Y624248D03*
X1294663Y617748D03*
X1288163Y617748D03*
X1281663Y617748D03*
X1275163Y617748D03*
X1268663Y617748D03*
X1262163Y617748D03*
X1255663Y617748D03*
X1249163Y617748D03*
X1242663Y617748D03*
X1236163Y617748D03*
X1229663Y617748D03*
X1223163Y617748D03*
X1294663Y611248D03*
X1288163Y611248D03*
X1281663Y611248D03*
X1275163Y611248D03*
X1268663Y611248D03*
X1262163Y611248D03*
X1255663Y611248D03*
X1249163Y611248D03*
X1242663Y611248D03*
X1236163Y611248D03*
X1229663Y611248D03*
X1223163Y611248D03*
X1294663Y604748D03*
X1288163Y604748D03*
X1281663Y604748D03*
X1275163Y604748D03*
X1268663Y604748D03*
X1262163Y604748D03*
X1255663Y604748D03*
X1249163Y604748D03*
X1242663Y604748D03*
X1236163Y604748D03*
X1229663Y604748D03*
X1223163Y604748D03*
X1294663Y598248D03*
X1288163Y598248D03*
X1281663Y598248D03*
X1275163Y598248D03*
X1268663Y598248D03*
X1262163Y598248D03*
X1255663Y598248D03*
X1249163Y598248D03*
X1242663Y598248D03*
X1236163Y598248D03*
X1229663Y598248D03*
X1223163Y598248D03*
X1294663Y591748D03*
X1288163Y591748D03*
X1281663Y591748D03*
X1275163Y591748D03*
X1268663Y591748D03*
X1262163Y591748D03*
X1255663Y591748D03*
X1249163Y591748D03*
X1242663Y591748D03*
X1236163Y591748D03*
X1229663Y591748D03*
X1223163Y591748D03*
X1294663Y585248D03*
X1288163Y585248D03*
X1281663Y585248D03*
X1275163Y585248D03*
X1268663Y585248D03*
X1262163Y585248D03*
X1255663Y585248D03*
X1249163Y585248D03*
X1242663Y585248D03*
X1236163Y585248D03*
X1229663Y585248D03*
X1223163Y585248D03*
X1294663Y578748D03*
X1288163Y578748D03*
X1281663Y578748D03*
X1275163Y578748D03*
X1268663Y578748D03*
X1262163Y578748D03*
X1255663Y578748D03*
X1249163Y578748D03*
X1242663Y578748D03*
X1236163Y578748D03*
X1229663Y578748D03*
X1223163Y578748D03*
X1294663Y572248D03*
X1288163Y572248D03*
X1281663Y572248D03*
X1275163Y572248D03*
X1268663Y572248D03*
X1262163Y572248D03*
X1255663Y572248D03*
X1249163Y572248D03*
X1242663Y572248D03*
X1236163Y572248D03*
X1229663Y572248D03*
X1223163Y572248D03*
X1294663Y565748D03*
X1288163Y565748D03*
X1281663Y565748D03*
X1275163Y565748D03*
X1268663Y565748D03*
X1262163Y565748D03*
X1255663Y565748D03*
X1249163Y565748D03*
X1242663Y565748D03*
X1236163Y565748D03*
X1229663Y565748D03*
X1223163Y565748D03*
X1294663Y559248D03*
X1288163Y559248D03*
X1281663Y559248D03*
X1275163Y559248D03*
X1268663Y559248D03*
X1262163Y559248D03*
X1255663Y559248D03*
X1249163Y559248D03*
X1242663Y559248D03*
X1236163Y559248D03*
X1229663Y559248D03*
X1223163Y559248D03*
X1294663Y552748D03*
X1288163Y552748D03*
X1281663Y552748D03*
X1275163Y552748D03*
X1268663Y552748D03*
X1262163Y552748D03*
X1255663Y552748D03*
X1249163Y552748D03*
X1242663Y552748D03*
X1236163Y552748D03*
X1229663Y552748D03*
X1223163Y552748D03*
X1294663Y546248D03*
X1288163Y546248D03*
X1281663Y546248D03*
X1275163Y546248D03*
X1268663Y546248D03*
X1262163Y546248D03*
X1255663Y546248D03*
X1249163Y546248D03*
X1242663Y546248D03*
X1236163Y546248D03*
X1229663Y546248D03*
X1223163Y546248D03*
D11*
X1150683Y491998D02*
X1150683Y484998D01*
X1150683Y491998D02*
X1157683Y491998D01*
X1157683Y484998D01*
X1150683Y484998D01*
X1150683Y487848D02*
X1157683Y487848D01*
X1157683Y490698D02*
X1150683Y490698D01*
X1133143Y491998D02*
X1133143Y484998D01*
X1133143Y491998D02*
X1140143Y491998D01*
X1140143Y484998D01*
X1133143Y484998D01*
X1133143Y487848D02*
X1140143Y487848D01*
X1140143Y490698D02*
X1133143Y490698D01*
D12*
X1135413Y593498D03*
X1135413Y603498D03*
D13*
X1169413Y545998D03*
X1169413Y570998D03*
D12*
X1155413Y543498D03*
X1155413Y553498D03*
X1155413Y573498D03*
X1155413Y563498D03*
X1208913Y553498D03*
X1208913Y563498D03*
X1199413Y578498D03*
X1189413Y578498D03*
X1199413Y539498D03*
X1189413Y539498D03*
D14*
X1199413Y565248D03*
X1199413Y551748D03*
X1189413Y551748D03*
X1189413Y565248D03*
D12*
X1335413Y513498D03*
X1335413Y523498D03*
X1162613Y596898D03*
X1172613Y596898D03*
X1162613Y584198D03*
X1172613Y584198D03*
D15*
X1301413Y512498D03*
X1301413Y504498D03*
X1309413Y504498D03*
X1309413Y512498D03*
D16*
X1297863Y523498D03*
X1302863Y523498D03*
X1307863Y523498D03*
X1312863Y523498D03*
D17*
X1290413Y500948D03*
X1290413Y505948D03*
X1290413Y510948D03*
X1290413Y515948D03*
D16*
X1312963Y493498D03*
X1307963Y493498D03*
X1302963Y493498D03*
X1297963Y493498D03*
D17*
X1320413Y500948D03*
X1320413Y505948D03*
X1320413Y510948D03*
X1320413Y515948D03*
D12*
X1230413Y488498D03*
X1240413Y488498D03*
D11*
X1260143Y491998D02*
X1260143Y484998D01*
X1253143Y484998D01*
X1253143Y491998D01*
X1260143Y491998D01*
X1260143Y487848D02*
X1253143Y487848D01*
X1253143Y490698D02*
X1260143Y490698D01*
X1277683Y491998D02*
X1277683Y484998D01*
X1270683Y484998D01*
X1270683Y491998D01*
X1277683Y491998D01*
X1277683Y487848D02*
X1270683Y487848D01*
X1270683Y490698D02*
X1277683Y490698D01*
D12*
X1335413Y503498D03*
X1335413Y493498D03*
D18*
X1182913Y633898D03*
X1182913Y615898D03*
D10*
X1532732Y630748D03*
X1532732Y624248D03*
X1526232Y630748D03*
X1526232Y624248D03*
X1532732Y617748D03*
X1532732Y611248D03*
X1526232Y617748D03*
X1526232Y611248D03*
X1532732Y604748D03*
X1532732Y598248D03*
X1526232Y604748D03*
X1526232Y598248D03*
X1532732Y591748D03*
X1532732Y585248D03*
X1526232Y591748D03*
X1526232Y585248D03*
X1532732Y578748D03*
X1526232Y578748D03*
X1532732Y572248D03*
X1532732Y565748D03*
X1526232Y572248D03*
X1526232Y565748D03*
X1532732Y559248D03*
X1532732Y552748D03*
X1526232Y559248D03*
X1526232Y552748D03*
X1532732Y546248D03*
X1526232Y546248D03*
X1519732Y630748D03*
X1513232Y630748D03*
X1506732Y630748D03*
X1500232Y630748D03*
X1493732Y630748D03*
X1487232Y630748D03*
X1480732Y630748D03*
X1474232Y630748D03*
X1467732Y630748D03*
X1461232Y630748D03*
X1454732Y630748D03*
X1448232Y630748D03*
X1519732Y624248D03*
X1513232Y624248D03*
X1506732Y624248D03*
X1500232Y624248D03*
X1493732Y624248D03*
X1487232Y624248D03*
X1480732Y624248D03*
X1474232Y624248D03*
X1467732Y624248D03*
X1461232Y624248D03*
X1454732Y624248D03*
X1448232Y624248D03*
X1519732Y617748D03*
X1513232Y617748D03*
X1506732Y617748D03*
X1500232Y617748D03*
X1493732Y617748D03*
X1487232Y617748D03*
X1480732Y617748D03*
X1474232Y617748D03*
X1467732Y617748D03*
X1461232Y617748D03*
X1454732Y617748D03*
X1448232Y617748D03*
X1519732Y611248D03*
X1513232Y611248D03*
X1506732Y611248D03*
X1500232Y611248D03*
X1493732Y611248D03*
X1487232Y611248D03*
X1480732Y611248D03*
X1474232Y611248D03*
X1467732Y611248D03*
X1461232Y611248D03*
X1454732Y611248D03*
X1448232Y611248D03*
X1519732Y604748D03*
X1513232Y604748D03*
X1506732Y604748D03*
X1500232Y604748D03*
X1493732Y604748D03*
X1487232Y604748D03*
X1480732Y604748D03*
X1474232Y604748D03*
X1467732Y604748D03*
X1461232Y604748D03*
X1454732Y604748D03*
X1448232Y604748D03*
X1519732Y598248D03*
X1513232Y598248D03*
X1506732Y598248D03*
X1500232Y598248D03*
X1493732Y598248D03*
X1487232Y598248D03*
X1480732Y598248D03*
X1474232Y598248D03*
X1467732Y598248D03*
X1461232Y598248D03*
X1454732Y598248D03*
X1448232Y598248D03*
X1519732Y591748D03*
X1513232Y591748D03*
X1506732Y591748D03*
X1500232Y591748D03*
X1493732Y591748D03*
X1487232Y591748D03*
X1480732Y591748D03*
X1474232Y591748D03*
X1467732Y591748D03*
X1461232Y591748D03*
X1454732Y591748D03*
X1448232Y591748D03*
X1519732Y585248D03*
X1513232Y585248D03*
X1506732Y585248D03*
X1500232Y585248D03*
X1493732Y585248D03*
X1487232Y585248D03*
X1480732Y585248D03*
X1474232Y585248D03*
X1467732Y585248D03*
X1461232Y585248D03*
X1454732Y585248D03*
X1448232Y585248D03*
X1519732Y578748D03*
X1513232Y578748D03*
X1506732Y578748D03*
X1500232Y578748D03*
X1493732Y578748D03*
X1487232Y578748D03*
X1480732Y578748D03*
X1474232Y578748D03*
X1467732Y578748D03*
X1461232Y578748D03*
X1454732Y578748D03*
X1448232Y578748D03*
X1519732Y572248D03*
X1513232Y572248D03*
X1506732Y572248D03*
X1500232Y572248D03*
X1493732Y572248D03*
X1487232Y572248D03*
X1480732Y572248D03*
X1474232Y572248D03*
X1467732Y572248D03*
X1461232Y572248D03*
X1454732Y572248D03*
X1448232Y572248D03*
X1519732Y565748D03*
X1513232Y565748D03*
X1506732Y565748D03*
X1500232Y565748D03*
X1493732Y565748D03*
X1487232Y565748D03*
X1480732Y565748D03*
X1474232Y565748D03*
X1467732Y565748D03*
X1461232Y565748D03*
X1454732Y565748D03*
X1448232Y565748D03*
X1519732Y559248D03*
X1513232Y559248D03*
X1506732Y559248D03*
X1500232Y559248D03*
X1493732Y559248D03*
X1487232Y559248D03*
X1480732Y559248D03*
X1474232Y559248D03*
X1467732Y559248D03*
X1461232Y559248D03*
X1454732Y559248D03*
X1448232Y559248D03*
X1519732Y552748D03*
X1513232Y552748D03*
X1506732Y552748D03*
X1500232Y552748D03*
X1493732Y552748D03*
X1487232Y552748D03*
X1480732Y552748D03*
X1474232Y552748D03*
X1467732Y552748D03*
X1461232Y552748D03*
X1454732Y552748D03*
X1448232Y552748D03*
X1519732Y546248D03*
X1513232Y546248D03*
X1506732Y546248D03*
X1500232Y546248D03*
X1493732Y546248D03*
X1487232Y546248D03*
X1480732Y546248D03*
X1474232Y546248D03*
X1467732Y546248D03*
X1461232Y546248D03*
X1454732Y546248D03*
X1448232Y546248D03*
D11*
X1375752Y491998D02*
X1375752Y484998D01*
X1375752Y491998D02*
X1382752Y491998D01*
X1382752Y484998D01*
X1375752Y484998D01*
X1375752Y487848D02*
X1382752Y487848D01*
X1382752Y490698D02*
X1375752Y490698D01*
X1358212Y491998D02*
X1358212Y484998D01*
X1358212Y491998D02*
X1365212Y491998D01*
X1365212Y484998D01*
X1358212Y484998D01*
X1358212Y487848D02*
X1365212Y487848D01*
X1365212Y490698D02*
X1358212Y490698D01*
D12*
X1360482Y593498D03*
X1360482Y603498D03*
D13*
X1394482Y545998D03*
X1394482Y570998D03*
D12*
X1380482Y543498D03*
X1380482Y553498D03*
X1380482Y573498D03*
X1380482Y563498D03*
X1433982Y553498D03*
X1433982Y563498D03*
X1424482Y578498D03*
X1414482Y578498D03*
X1424482Y539498D03*
X1414482Y539498D03*
D14*
X1424482Y565248D03*
X1424482Y551748D03*
X1414482Y551748D03*
X1414482Y565248D03*
D12*
X1560482Y513498D03*
X1560482Y523498D03*
X1387682Y596898D03*
X1397682Y596898D03*
X1387682Y584198D03*
X1397682Y584198D03*
D15*
X1526482Y512498D03*
X1526482Y504498D03*
X1534482Y504498D03*
X1534482Y512498D03*
D16*
X1522932Y523498D03*
X1527932Y523498D03*
X1532932Y523498D03*
X1537932Y523498D03*
D17*
X1515482Y500948D03*
X1515482Y505948D03*
X1515482Y510948D03*
X1515482Y515948D03*
D16*
X1538032Y493498D03*
X1533032Y493498D03*
X1528032Y493498D03*
X1523032Y493498D03*
D17*
X1545482Y500948D03*
X1545482Y505948D03*
X1545482Y510948D03*
X1545482Y515948D03*
D12*
X1455482Y488498D03*
X1465482Y488498D03*
D11*
X1485212Y491998D02*
X1485212Y484998D01*
X1478212Y484998D01*
X1478212Y491998D01*
X1485212Y491998D01*
X1485212Y487848D02*
X1478212Y487848D01*
X1478212Y490698D02*
X1485212Y490698D01*
X1502752Y491998D02*
X1502752Y484998D01*
X1495752Y484998D01*
X1495752Y491998D01*
X1502752Y491998D01*
X1502752Y487848D02*
X1495752Y487848D01*
X1495752Y490698D02*
X1502752Y490698D01*
D12*
X1560482Y503498D03*
X1560482Y493498D03*
D18*
X1407982Y633898D03*
X1407982Y615898D03*
D10*
X1757801Y630748D03*
X1757801Y624248D03*
X1751301Y630748D03*
X1751301Y624248D03*
X1757801Y617748D03*
X1757801Y611248D03*
X1751301Y617748D03*
X1751301Y611248D03*
X1757801Y604748D03*
X1757801Y598248D03*
X1751301Y604748D03*
X1751301Y598248D03*
X1757801Y591748D03*
X1757801Y585248D03*
X1751301Y591748D03*
X1751301Y585248D03*
X1757801Y578748D03*
X1751301Y578748D03*
X1757801Y572248D03*
X1757801Y565748D03*
X1751301Y572248D03*
X1751301Y565748D03*
X1757801Y559248D03*
X1757801Y552748D03*
X1751301Y559248D03*
X1751301Y552748D03*
X1757801Y546248D03*
X1751301Y546248D03*
X1744801Y630748D03*
X1738301Y630748D03*
X1731801Y630748D03*
X1725301Y630748D03*
X1718801Y630748D03*
X1712301Y630748D03*
X1705801Y630748D03*
X1699301Y630748D03*
X1692801Y630748D03*
X1686301Y630748D03*
X1679801Y630748D03*
X1673301Y630748D03*
X1744801Y624248D03*
X1738301Y624248D03*
X1731801Y624248D03*
X1725301Y624248D03*
X1718801Y624248D03*
X1712301Y624248D03*
X1705801Y624248D03*
X1699301Y624248D03*
X1692801Y624248D03*
X1686301Y624248D03*
X1679801Y624248D03*
X1673301Y624248D03*
X1744801Y617748D03*
X1738301Y617748D03*
X1731801Y617748D03*
X1725301Y617748D03*
X1718801Y617748D03*
X1712301Y617748D03*
X1705801Y617748D03*
X1699301Y617748D03*
X1692801Y617748D03*
X1686301Y617748D03*
X1679801Y617748D03*
X1673301Y617748D03*
X1744801Y611248D03*
X1738301Y611248D03*
X1731801Y611248D03*
X1725301Y611248D03*
X1718801Y611248D03*
X1712301Y611248D03*
X1705801Y611248D03*
X1699301Y611248D03*
X1692801Y611248D03*
X1686301Y611248D03*
X1679801Y611248D03*
X1673301Y611248D03*
X1744801Y604748D03*
X1738301Y604748D03*
X1731801Y604748D03*
X1725301Y604748D03*
X1718801Y604748D03*
X1712301Y604748D03*
X1705801Y604748D03*
X1699301Y604748D03*
X1692801Y604748D03*
X1686301Y604748D03*
X1679801Y604748D03*
X1673301Y604748D03*
X1744801Y598248D03*
X1738301Y598248D03*
X1731801Y598248D03*
X1725301Y598248D03*
X1718801Y598248D03*
X1712301Y598248D03*
X1705801Y598248D03*
X1699301Y598248D03*
X1692801Y598248D03*
X1686301Y598248D03*
X1679801Y598248D03*
X1673301Y598248D03*
X1744801Y591748D03*
X1738301Y591748D03*
X1731801Y591748D03*
X1725301Y591748D03*
X1718801Y591748D03*
X1712301Y591748D03*
X1705801Y591748D03*
X1699301Y591748D03*
X1692801Y591748D03*
X1686301Y591748D03*
X1679801Y591748D03*
X1673301Y591748D03*
X1744801Y585248D03*
X1738301Y585248D03*
X1731801Y585248D03*
X1725301Y585248D03*
X1718801Y585248D03*
X1712301Y585248D03*
X1705801Y585248D03*
X1699301Y585248D03*
X1692801Y585248D03*
X1686301Y585248D03*
X1679801Y585248D03*
X1673301Y585248D03*
X1744801Y578748D03*
X1738301Y578748D03*
X1731801Y578748D03*
X1725301Y578748D03*
X1718801Y578748D03*
X1712301Y578748D03*
X1705801Y578748D03*
X1699301Y578748D03*
X1692801Y578748D03*
X1686301Y578748D03*
X1679801Y578748D03*
X1673301Y578748D03*
X1744801Y572248D03*
X1738301Y572248D03*
X1731801Y572248D03*
X1725301Y572248D03*
X1718801Y572248D03*
X1712301Y572248D03*
X1705801Y572248D03*
X1699301Y572248D03*
X1692801Y572248D03*
X1686301Y572248D03*
X1679801Y572248D03*
X1673301Y572248D03*
X1744801Y565748D03*
X1738301Y565748D03*
X1731801Y565748D03*
X1725301Y565748D03*
X1718801Y565748D03*
X1712301Y565748D03*
X1705801Y565748D03*
X1699301Y565748D03*
X1692801Y565748D03*
X1686301Y565748D03*
X1679801Y565748D03*
X1673301Y565748D03*
X1744801Y559248D03*
X1738301Y559248D03*
X1731801Y559248D03*
X1725301Y559248D03*
X1718801Y559248D03*
X1712301Y559248D03*
X1705801Y559248D03*
X1699301Y559248D03*
X1692801Y559248D03*
X1686301Y559248D03*
X1679801Y559248D03*
X1673301Y559248D03*
X1744801Y552748D03*
X1738301Y552748D03*
X1731801Y552748D03*
X1725301Y552748D03*
X1718801Y552748D03*
X1712301Y552748D03*
X1705801Y552748D03*
X1699301Y552748D03*
X1692801Y552748D03*
X1686301Y552748D03*
X1679801Y552748D03*
X1673301Y552748D03*
X1744801Y546248D03*
X1738301Y546248D03*
X1731801Y546248D03*
X1725301Y546248D03*
X1718801Y546248D03*
X1712301Y546248D03*
X1705801Y546248D03*
X1699301Y546248D03*
X1692801Y546248D03*
X1686301Y546248D03*
X1679801Y546248D03*
X1673301Y546248D03*
D11*
X1600821Y491998D02*
X1600821Y484998D01*
X1600821Y491998D02*
X1607821Y491998D01*
X1607821Y484998D01*
X1600821Y484998D01*
X1600821Y487848D02*
X1607821Y487848D01*
X1607821Y490698D02*
X1600821Y490698D01*
X1583281Y491998D02*
X1583281Y484998D01*
X1583281Y491998D02*
X1590281Y491998D01*
X1590281Y484998D01*
X1583281Y484998D01*
X1583281Y487848D02*
X1590281Y487848D01*
X1590281Y490698D02*
X1583281Y490698D01*
D12*
X1585551Y593498D03*
X1585551Y603498D03*
D13*
X1619551Y545998D03*
X1619551Y570998D03*
D12*
X1605551Y543498D03*
X1605551Y553498D03*
X1605551Y573498D03*
X1605551Y563498D03*
X1659051Y553498D03*
X1659051Y563498D03*
X1649551Y578498D03*
X1639551Y578498D03*
X1649551Y539498D03*
X1639551Y539498D03*
D14*
X1649551Y565248D03*
X1649551Y551748D03*
X1639551Y551748D03*
X1639551Y565248D03*
D12*
X1785551Y513498D03*
X1785551Y523498D03*
X1612751Y596898D03*
X1622751Y596898D03*
X1612751Y584198D03*
X1622751Y584198D03*
D15*
X1751551Y512498D03*
X1751551Y504498D03*
X1759551Y504498D03*
X1759551Y512498D03*
D16*
X1748001Y523498D03*
X1753001Y523498D03*
X1758001Y523498D03*
X1763001Y523498D03*
D17*
X1740551Y500948D03*
X1740551Y505948D03*
X1740551Y510948D03*
X1740551Y515948D03*
D16*
X1763101Y493498D03*
X1758101Y493498D03*
X1753101Y493498D03*
X1748101Y493498D03*
D17*
X1770551Y500948D03*
X1770551Y505948D03*
X1770551Y510948D03*
X1770551Y515948D03*
D12*
X1680551Y488498D03*
X1690551Y488498D03*
D11*
X1710281Y491998D02*
X1710281Y484998D01*
X1703281Y484998D01*
X1703281Y491998D01*
X1710281Y491998D01*
X1710281Y487848D02*
X1703281Y487848D01*
X1703281Y490698D02*
X1710281Y490698D01*
X1727821Y491998D02*
X1727821Y484998D01*
X1720821Y484998D01*
X1720821Y491998D01*
X1727821Y491998D01*
X1727821Y487848D02*
X1720821Y487848D01*
X1720821Y490698D02*
X1727821Y490698D01*
D12*
X1785551Y503498D03*
X1785551Y493498D03*
D18*
X1633051Y633898D03*
X1633051Y615898D03*
D10*
X1982896Y630748D03*
X1982896Y624248D03*
X1976396Y630748D03*
X1976396Y624248D03*
X1982896Y617748D03*
X1982896Y611248D03*
X1976396Y617748D03*
X1976396Y611248D03*
X1982896Y604748D03*
X1982896Y598248D03*
X1976396Y604748D03*
X1976396Y598248D03*
X1982896Y591748D03*
X1982896Y585248D03*
X1976396Y591748D03*
X1976396Y585248D03*
X1982896Y578748D03*
X1976396Y578748D03*
X1982896Y572248D03*
X1982896Y565748D03*
X1976396Y572248D03*
X1976396Y565748D03*
X1982896Y559248D03*
X1982896Y552748D03*
X1976396Y559248D03*
X1976396Y552748D03*
X1982896Y546248D03*
X1976396Y546248D03*
X1969896Y630748D03*
X1963396Y630748D03*
X1956896Y630748D03*
X1950396Y630748D03*
X1943896Y630748D03*
X1937396Y630748D03*
X1930896Y630748D03*
X1924396Y630748D03*
X1917896Y630748D03*
X1911396Y630748D03*
X1904896Y630748D03*
X1898396Y630748D03*
X1969896Y624248D03*
X1963396Y624248D03*
X1956896Y624248D03*
X1950396Y624248D03*
X1943896Y624248D03*
X1937396Y624248D03*
X1930896Y624248D03*
X1924396Y624248D03*
X1917896Y624248D03*
X1911396Y624248D03*
X1904896Y624248D03*
X1898396Y624248D03*
X1969896Y617748D03*
X1963396Y617748D03*
X1956896Y617748D03*
X1950396Y617748D03*
X1943896Y617748D03*
X1937396Y617748D03*
X1930896Y617748D03*
X1924396Y617748D03*
X1917896Y617748D03*
X1911396Y617748D03*
X1904896Y617748D03*
X1898396Y617748D03*
X1969896Y611248D03*
X1963396Y611248D03*
X1956896Y611248D03*
X1950396Y611248D03*
X1943896Y611248D03*
X1937396Y611248D03*
X1930896Y611248D03*
X1924396Y611248D03*
X1917896Y611248D03*
X1911396Y611248D03*
X1904896Y611248D03*
X1898396Y611248D03*
X1969896Y604748D03*
X1963396Y604748D03*
X1956896Y604748D03*
X1950396Y604748D03*
X1943896Y604748D03*
X1937396Y604748D03*
X1930896Y604748D03*
X1924396Y604748D03*
X1917896Y604748D03*
X1911396Y604748D03*
X1904896Y604748D03*
X1898396Y604748D03*
X1969896Y598248D03*
X1963396Y598248D03*
X1956896Y598248D03*
X1950396Y598248D03*
X1943896Y598248D03*
X1937396Y598248D03*
X1930896Y598248D03*
X1924396Y598248D03*
X1917896Y598248D03*
X1911396Y598248D03*
X1904896Y598248D03*
X1898396Y598248D03*
X1969896Y591748D03*
X1963396Y591748D03*
X1956896Y591748D03*
X1950396Y591748D03*
X1943896Y591748D03*
X1937396Y591748D03*
X1930896Y591748D03*
X1924396Y591748D03*
X1917896Y591748D03*
X1911396Y591748D03*
X1904896Y591748D03*
X1898396Y591748D03*
X1969896Y585248D03*
X1963396Y585248D03*
X1956896Y585248D03*
X1950396Y585248D03*
X1943896Y585248D03*
X1937396Y585248D03*
X1930896Y585248D03*
X1924396Y585248D03*
X1917896Y585248D03*
X1911396Y585248D03*
X1904896Y585248D03*
X1898396Y585248D03*
X1969896Y578748D03*
X1963396Y578748D03*
X1956896Y578748D03*
X1950396Y578748D03*
X1943896Y578748D03*
X1937396Y578748D03*
X1930896Y578748D03*
X1924396Y578748D03*
X1917896Y578748D03*
X1911396Y578748D03*
X1904896Y578748D03*
X1898396Y578748D03*
X1969896Y572248D03*
X1963396Y572248D03*
X1956896Y572248D03*
X1950396Y572248D03*
X1943896Y572248D03*
X1937396Y572248D03*
X1930896Y572248D03*
X1924396Y572248D03*
X1917896Y572248D03*
X1911396Y572248D03*
X1904896Y572248D03*
X1898396Y572248D03*
X1969896Y565748D03*
X1963396Y565748D03*
X1956896Y565748D03*
X1950396Y565748D03*
X1943896Y565748D03*
X1937396Y565748D03*
X1930896Y565748D03*
X1924396Y565748D03*
X1917896Y565748D03*
X1911396Y565748D03*
X1904896Y565748D03*
X1898396Y565748D03*
X1969896Y559248D03*
X1963396Y559248D03*
X1956896Y559248D03*
X1950396Y559248D03*
X1943896Y559248D03*
X1937396Y559248D03*
X1930896Y559248D03*
X1924396Y559248D03*
X1917896Y559248D03*
X1911396Y559248D03*
X1904896Y559248D03*
X1898396Y559248D03*
X1969896Y552748D03*
X1963396Y552748D03*
X1956896Y552748D03*
X1950396Y552748D03*
X1943896Y552748D03*
X1937396Y552748D03*
X1930896Y552748D03*
X1924396Y552748D03*
X1917896Y552748D03*
X1911396Y552748D03*
X1904896Y552748D03*
X1898396Y552748D03*
X1969896Y546248D03*
X1963396Y546248D03*
X1956896Y546248D03*
X1950396Y546248D03*
X1943896Y546248D03*
X1937396Y546248D03*
X1930896Y546248D03*
X1924396Y546248D03*
X1917896Y546248D03*
X1911396Y546248D03*
X1904896Y546248D03*
X1898396Y546248D03*
D11*
X1825916Y491998D02*
X1825916Y484998D01*
X1825916Y491998D02*
X1832916Y491998D01*
X1832916Y484998D01*
X1825916Y484998D01*
X1825916Y487848D02*
X1832916Y487848D01*
X1832916Y490698D02*
X1825916Y490698D01*
X1808376Y491998D02*
X1808376Y484998D01*
X1808376Y491998D02*
X1815376Y491998D01*
X1815376Y484998D01*
X1808376Y484998D01*
X1808376Y487848D02*
X1815376Y487848D01*
X1815376Y490698D02*
X1808376Y490698D01*
D12*
X1810646Y593498D03*
X1810646Y603498D03*
D13*
X1844646Y545998D03*
X1844646Y570998D03*
D12*
X1830646Y543498D03*
X1830646Y553498D03*
X1830646Y573498D03*
X1830646Y563498D03*
X1884146Y553498D03*
X1884146Y563498D03*
X1874646Y578498D03*
X1864646Y578498D03*
X1874646Y539498D03*
X1864646Y539498D03*
D14*
X1874646Y565248D03*
X1874646Y551748D03*
X1864646Y551748D03*
X1864646Y565248D03*
D12*
X2010646Y513498D03*
X2010646Y523498D03*
X1837846Y596898D03*
X1847846Y596898D03*
X1837846Y584198D03*
X1847846Y584198D03*
D15*
X1976646Y512498D03*
X1976646Y504498D03*
X1984646Y504498D03*
X1984646Y512498D03*
D16*
X1973096Y523498D03*
X1978096Y523498D03*
X1983096Y523498D03*
X1988096Y523498D03*
D17*
X1965646Y500948D03*
X1965646Y505948D03*
X1965646Y510948D03*
X1965646Y515948D03*
D16*
X1988196Y493498D03*
X1983196Y493498D03*
X1978196Y493498D03*
X1973196Y493498D03*
D17*
X1995646Y500948D03*
X1995646Y505948D03*
X1995646Y510948D03*
X1995646Y515948D03*
D12*
X1905646Y488498D03*
X1915646Y488498D03*
D11*
X1935376Y491998D02*
X1935376Y484998D01*
X1928376Y484998D01*
X1928376Y491998D01*
X1935376Y491998D01*
X1935376Y487848D02*
X1928376Y487848D01*
X1928376Y490698D02*
X1935376Y490698D01*
X1952916Y491998D02*
X1952916Y484998D01*
X1945916Y484998D01*
X1945916Y491998D01*
X1952916Y491998D01*
X1952916Y487848D02*
X1945916Y487848D01*
X1945916Y490698D02*
X1952916Y490698D01*
D12*
X2010646Y503498D03*
X2010646Y493498D03*
D18*
X1858146Y633898D03*
X1858146Y615898D03*
D10*
X2207966Y630748D03*
X2207966Y624248D03*
X2201466Y630748D03*
X2201466Y624248D03*
X2207966Y617748D03*
X2207966Y611248D03*
X2201466Y617748D03*
X2201466Y611248D03*
X2207966Y604748D03*
X2207966Y598248D03*
X2201466Y604748D03*
X2201466Y598248D03*
X2207966Y591748D03*
X2207966Y585248D03*
X2201466Y591748D03*
X2201466Y585248D03*
X2207966Y578748D03*
X2201466Y578748D03*
X2207966Y572248D03*
X2207966Y565748D03*
X2201466Y572248D03*
X2201466Y565748D03*
X2207966Y559248D03*
X2207966Y552748D03*
X2201466Y559248D03*
X2201466Y552748D03*
X2207966Y546248D03*
X2201466Y546248D03*
X2194966Y630748D03*
X2188466Y630748D03*
X2181966Y630748D03*
X2175466Y630748D03*
X2168966Y630748D03*
X2162466Y630748D03*
X2155966Y630748D03*
X2149466Y630748D03*
X2142966Y630748D03*
X2136466Y630748D03*
X2129966Y630748D03*
X2123466Y630748D03*
X2194966Y624248D03*
X2188466Y624248D03*
X2181966Y624248D03*
X2175466Y624248D03*
X2168966Y624248D03*
X2162466Y624248D03*
X2155966Y624248D03*
X2149466Y624248D03*
X2142966Y624248D03*
X2136466Y624248D03*
X2129966Y624248D03*
X2123466Y624248D03*
X2194966Y617748D03*
X2188466Y617748D03*
X2181966Y617748D03*
X2175466Y617748D03*
X2168966Y617748D03*
X2162466Y617748D03*
X2155966Y617748D03*
X2149466Y617748D03*
X2142966Y617748D03*
X2136466Y617748D03*
X2129966Y617748D03*
X2123466Y617748D03*
X2194966Y611248D03*
X2188466Y611248D03*
X2181966Y611248D03*
X2175466Y611248D03*
X2168966Y611248D03*
X2162466Y611248D03*
X2155966Y611248D03*
X2149466Y611248D03*
X2142966Y611248D03*
X2136466Y611248D03*
X2129966Y611248D03*
X2123466Y611248D03*
X2194966Y604748D03*
X2188466Y604748D03*
X2181966Y604748D03*
X2175466Y604748D03*
X2168966Y604748D03*
X2162466Y604748D03*
X2155966Y604748D03*
X2149466Y604748D03*
X2142966Y604748D03*
X2136466Y604748D03*
X2129966Y604748D03*
X2123466Y604748D03*
X2194966Y598248D03*
X2188466Y598248D03*
X2181966Y598248D03*
X2175466Y598248D03*
X2168966Y598248D03*
X2162466Y598248D03*
X2155966Y598248D03*
X2149466Y598248D03*
X2142966Y598248D03*
X2136466Y598248D03*
X2129966Y598248D03*
X2123466Y598248D03*
X2194966Y591748D03*
X2188466Y591748D03*
X2181966Y591748D03*
X2175466Y591748D03*
X2168966Y591748D03*
X2162466Y591748D03*
X2155966Y591748D03*
X2149466Y591748D03*
X2142966Y591748D03*
X2136466Y591748D03*
X2129966Y591748D03*
X2123466Y591748D03*
X2194966Y585248D03*
X2188466Y585248D03*
X2181966Y585248D03*
X2175466Y585248D03*
X2168966Y585248D03*
X2162466Y585248D03*
X2155966Y585248D03*
X2149466Y585248D03*
X2142966Y585248D03*
X2136466Y585248D03*
X2129966Y585248D03*
X2123466Y585248D03*
X2194966Y578748D03*
X2188466Y578748D03*
X2181966Y578748D03*
X2175466Y578748D03*
X2168966Y578748D03*
X2162466Y578748D03*
X2155966Y578748D03*
X2149466Y578748D03*
X2142966Y578748D03*
X2136466Y578748D03*
X2129966Y578748D03*
X2123466Y578748D03*
X2194966Y572248D03*
X2188466Y572248D03*
X2181966Y572248D03*
X2175466Y572248D03*
X2168966Y572248D03*
X2162466Y572248D03*
X2155966Y572248D03*
X2149466Y572248D03*
X2142966Y572248D03*
X2136466Y572248D03*
X2129966Y572248D03*
X2123466Y572248D03*
X2194966Y565748D03*
X2188466Y565748D03*
X2181966Y565748D03*
X2175466Y565748D03*
X2168966Y565748D03*
X2162466Y565748D03*
X2155966Y565748D03*
X2149466Y565748D03*
X2142966Y565748D03*
X2136466Y565748D03*
X2129966Y565748D03*
X2123466Y565748D03*
X2194966Y559248D03*
X2188466Y559248D03*
X2181966Y559248D03*
X2175466Y559248D03*
X2168966Y559248D03*
X2162466Y559248D03*
X2155966Y559248D03*
X2149466Y559248D03*
X2142966Y559248D03*
X2136466Y559248D03*
X2129966Y559248D03*
X2123466Y559248D03*
X2194966Y552748D03*
X2188466Y552748D03*
X2181966Y552748D03*
X2175466Y552748D03*
X2168966Y552748D03*
X2162466Y552748D03*
X2155966Y552748D03*
X2149466Y552748D03*
X2142966Y552748D03*
X2136466Y552748D03*
X2129966Y552748D03*
X2123466Y552748D03*
X2194966Y546248D03*
X2188466Y546248D03*
X2181966Y546248D03*
X2175466Y546248D03*
X2168966Y546248D03*
X2162466Y546248D03*
X2155966Y546248D03*
X2149466Y546248D03*
X2142966Y546248D03*
X2136466Y546248D03*
X2129966Y546248D03*
X2123466Y546248D03*
D11*
X2050986Y491998D02*
X2050986Y484998D01*
X2050986Y491998D02*
X2057986Y491998D01*
X2057986Y484998D01*
X2050986Y484998D01*
X2050986Y487848D02*
X2057986Y487848D01*
X2057986Y490698D02*
X2050986Y490698D01*
X2033446Y491998D02*
X2033446Y484998D01*
X2033446Y491998D02*
X2040446Y491998D01*
X2040446Y484998D01*
X2033446Y484998D01*
X2033446Y487848D02*
X2040446Y487848D01*
X2040446Y490698D02*
X2033446Y490698D01*
D12*
X2035716Y593498D03*
X2035716Y603498D03*
D13*
X2069716Y545998D03*
X2069716Y570998D03*
D12*
X2055716Y543498D03*
X2055716Y553498D03*
X2055716Y573498D03*
X2055716Y563498D03*
X2109216Y553498D03*
X2109216Y563498D03*
X2099716Y578498D03*
X2089716Y578498D03*
X2099716Y539498D03*
X2089716Y539498D03*
D14*
X2099716Y565248D03*
X2099716Y551748D03*
X2089716Y551748D03*
X2089716Y565248D03*
D12*
X2235716Y513498D03*
X2235716Y523498D03*
X2062916Y596898D03*
X2072916Y596898D03*
X2062916Y584198D03*
X2072916Y584198D03*
D15*
X2201716Y512498D03*
X2201716Y504498D03*
X2209716Y504498D03*
X2209716Y512498D03*
D16*
X2198166Y523498D03*
X2203166Y523498D03*
X2208166Y523498D03*
X2213166Y523498D03*
D17*
X2190716Y500948D03*
X2190716Y505948D03*
X2190716Y510948D03*
X2190716Y515948D03*
D16*
X2213266Y493498D03*
X2208266Y493498D03*
X2203266Y493498D03*
X2198266Y493498D03*
D17*
X2220716Y500948D03*
X2220716Y505948D03*
X2220716Y510948D03*
X2220716Y515948D03*
D12*
X2130716Y488498D03*
X2140716Y488498D03*
D11*
X2160446Y491998D02*
X2160446Y484998D01*
X2153446Y484998D01*
X2153446Y491998D01*
X2160446Y491998D01*
X2160446Y487848D02*
X2153446Y487848D01*
X2153446Y490698D02*
X2160446Y490698D01*
X2177986Y491998D02*
X2177986Y484998D01*
X2170986Y484998D01*
X2170986Y491998D01*
X2177986Y491998D01*
X2177986Y487848D02*
X2170986Y487848D01*
X2170986Y490698D02*
X2177986Y490698D01*
D12*
X2235716Y503498D03*
X2235716Y493498D03*
D18*
X2083216Y633898D03*
X2083216Y615898D03*
M02*
