G04 EAGLE Gerber RS-274X export*
G75*
%MOMM*%
%FSLAX34Y34*%
%LPD*%
%INSoldermask Bottom*%
%IPPOS*%
%AMOC8*
5,1,8,0,0,1.08239X$1,22.5*%
G01*
%ADD10R,0.711200X0.711200*%
%ADD11R,0.803200X0.803200*%
%ADD12R,0.603200X0.603200*%
%ADD13R,1.473200X0.863600*%
%ADD14C,0.838200*%
%ADD15R,0.553200X2.153200*%
%ADD16R,0.453200X0.453200*%
%ADD17C,5.703200*%
%ADD18R,1.003200X1.103200*%
%ADD19R,0.663200X0.853200*%
%ADD20C,1.203200*%
%ADD21C,1.270000*%
%ADD22C,1.703200*%

G36*
X1729860Y180057D02*
X1729860Y180057D01*
X1729869Y180060D01*
X1729895Y180062D01*
X1734078Y180972D01*
X1734086Y180976D01*
X1734112Y180982D01*
X1738122Y182478D01*
X1738130Y182483D01*
X1738155Y182492D01*
X1741911Y184544D01*
X1741918Y184551D01*
X1741941Y184563D01*
X1745368Y187128D01*
X1745374Y187136D01*
X1745395Y187151D01*
X1748421Y190178D01*
X1748426Y190186D01*
X1748445Y190205D01*
X1751010Y193631D01*
X1751013Y193640D01*
X1751029Y193661D01*
X1753080Y197418D01*
X1753082Y197428D01*
X1753095Y197450D01*
X1754591Y201461D01*
X1754592Y201471D01*
X1754601Y201495D01*
X1755511Y205678D01*
X1755510Y205687D01*
X1755516Y205713D01*
X1755821Y209982D01*
X1755820Y209988D01*
X1755822Y210000D01*
X1755822Y220000D01*
X1755817Y220016D01*
X1755820Y220033D01*
X1755798Y220083D01*
X1755783Y220134D01*
X1755770Y220145D01*
X1755763Y220161D01*
X1755718Y220191D01*
X1755677Y220226D01*
X1755660Y220229D01*
X1755646Y220238D01*
X1755573Y220249D01*
X1743073Y220249D01*
X1743066Y220247D01*
X1743059Y220249D01*
X1742999Y220228D01*
X1742938Y220210D01*
X1742934Y220205D01*
X1742927Y220202D01*
X1742888Y220152D01*
X1742846Y220105D01*
X1742845Y220098D01*
X1742841Y220092D01*
X1742824Y220020D01*
X1742610Y217302D01*
X1741978Y214669D01*
X1740942Y212169D01*
X1739528Y209861D01*
X1737770Y207802D01*
X1735712Y206044D01*
X1733404Y204630D01*
X1730903Y203594D01*
X1728271Y202962D01*
X1725573Y202750D01*
X1722874Y202962D01*
X1720242Y203594D01*
X1717741Y204630D01*
X1715433Y206044D01*
X1713375Y207802D01*
X1713353Y207828D01*
X1713140Y208077D01*
X1712928Y208326D01*
X1712927Y208326D01*
X1712715Y208576D01*
X1712502Y208825D01*
X1712289Y209074D01*
X1711863Y209573D01*
X1711650Y209822D01*
X1711617Y209861D01*
X1710203Y212169D01*
X1709167Y214669D01*
X1708535Y217302D01*
X1708321Y220020D01*
X1708319Y220026D01*
X1708320Y220033D01*
X1708294Y220091D01*
X1708271Y220150D01*
X1708266Y220155D01*
X1708263Y220161D01*
X1708210Y220196D01*
X1708159Y220234D01*
X1708152Y220234D01*
X1708146Y220238D01*
X1708073Y220249D01*
X1695573Y220249D01*
X1695556Y220244D01*
X1695539Y220247D01*
X1695490Y220225D01*
X1695438Y220210D01*
X1695427Y220197D01*
X1695411Y220190D01*
X1695382Y220145D01*
X1695346Y220105D01*
X1695344Y220088D01*
X1695334Y220074D01*
X1695323Y220000D01*
X1695323Y210000D01*
X1695325Y209995D01*
X1695324Y209982D01*
X1695629Y205713D01*
X1695633Y205704D01*
X1695634Y205678D01*
X1696544Y201495D01*
X1696549Y201487D01*
X1696554Y201461D01*
X1698050Y197450D01*
X1698056Y197443D01*
X1698065Y197418D01*
X1700116Y193661D01*
X1700123Y193654D01*
X1700135Y193631D01*
X1702701Y190205D01*
X1702708Y190199D01*
X1702724Y190178D01*
X1705751Y187151D01*
X1705759Y187147D01*
X1705777Y187128D01*
X1709204Y184563D01*
X1709213Y184559D01*
X1709234Y184544D01*
X1712991Y182492D01*
X1713000Y182490D01*
X1713023Y182478D01*
X1717034Y180982D01*
X1717043Y180981D01*
X1717068Y180972D01*
X1721250Y180062D01*
X1721260Y180062D01*
X1721285Y180057D01*
X1725555Y179751D01*
X1725564Y179753D01*
X1725590Y179751D01*
X1729860Y180057D01*
G37*
G36*
X1504790Y180057D02*
X1504790Y180057D01*
X1504800Y180060D01*
X1504826Y180062D01*
X1509008Y180972D01*
X1509017Y180976D01*
X1509042Y180982D01*
X1513053Y182478D01*
X1513060Y182483D01*
X1513085Y182492D01*
X1516842Y184544D01*
X1516849Y184551D01*
X1516872Y184563D01*
X1520298Y187128D01*
X1520304Y187136D01*
X1520325Y187151D01*
X1523352Y190178D01*
X1523357Y190186D01*
X1523375Y190205D01*
X1525940Y193631D01*
X1525944Y193640D01*
X1525960Y193661D01*
X1528011Y197418D01*
X1528013Y197428D01*
X1528026Y197450D01*
X1529522Y201461D01*
X1529522Y201471D01*
X1529532Y201495D01*
X1530441Y205678D01*
X1530441Y205687D01*
X1530446Y205713D01*
X1530752Y209982D01*
X1530751Y209988D01*
X1530752Y210000D01*
X1530752Y220000D01*
X1530748Y220016D01*
X1530750Y220033D01*
X1530728Y220083D01*
X1530713Y220134D01*
X1530700Y220145D01*
X1530693Y220161D01*
X1530648Y220191D01*
X1530608Y220226D01*
X1530591Y220229D01*
X1530577Y220238D01*
X1530503Y220249D01*
X1518003Y220249D01*
X1517996Y220247D01*
X1517989Y220249D01*
X1517930Y220228D01*
X1517869Y220210D01*
X1517864Y220205D01*
X1517857Y220202D01*
X1517819Y220152D01*
X1517777Y220105D01*
X1517776Y220098D01*
X1517772Y220092D01*
X1517755Y220020D01*
X1517541Y217302D01*
X1516909Y214669D01*
X1515873Y212169D01*
X1514459Y209861D01*
X1512701Y207802D01*
X1510643Y206044D01*
X1508335Y204630D01*
X1505834Y203594D01*
X1503202Y202962D01*
X1500503Y202750D01*
X1497805Y202962D01*
X1495173Y203594D01*
X1492672Y204630D01*
X1490364Y206044D01*
X1488306Y207802D01*
X1488284Y207828D01*
X1488071Y208077D01*
X1487858Y208326D01*
X1487645Y208576D01*
X1487432Y208825D01*
X1487220Y209074D01*
X1487219Y209074D01*
X1486794Y209573D01*
X1486581Y209822D01*
X1486548Y209861D01*
X1485133Y212169D01*
X1484098Y214669D01*
X1483466Y217302D01*
X1483252Y220020D01*
X1483249Y220026D01*
X1483250Y220033D01*
X1483224Y220091D01*
X1483202Y220150D01*
X1483196Y220155D01*
X1483193Y220161D01*
X1483141Y220196D01*
X1483090Y220234D01*
X1483083Y220234D01*
X1483077Y220238D01*
X1483003Y220249D01*
X1470503Y220249D01*
X1470487Y220244D01*
X1470470Y220247D01*
X1470421Y220225D01*
X1470369Y220210D01*
X1470358Y220197D01*
X1470342Y220190D01*
X1470312Y220145D01*
X1470277Y220105D01*
X1470274Y220088D01*
X1470265Y220074D01*
X1470254Y220000D01*
X1470254Y210000D01*
X1470256Y209995D01*
X1470255Y209982D01*
X1470560Y205713D01*
X1470563Y205704D01*
X1470565Y205678D01*
X1471475Y201495D01*
X1471480Y201487D01*
X1471485Y201461D01*
X1472981Y197450D01*
X1472986Y197443D01*
X1472995Y197418D01*
X1475047Y193661D01*
X1475054Y193654D01*
X1475066Y193631D01*
X1477631Y190205D01*
X1477639Y190199D01*
X1477654Y190178D01*
X1480681Y187151D01*
X1480690Y187147D01*
X1480708Y187128D01*
X1484135Y184563D01*
X1484144Y184559D01*
X1484165Y184544D01*
X1487921Y182492D01*
X1487931Y182490D01*
X1487954Y182478D01*
X1491964Y180982D01*
X1491974Y180981D01*
X1491998Y180972D01*
X1496181Y180062D01*
X1496190Y180062D01*
X1496216Y180057D01*
X1500485Y179751D01*
X1500495Y179753D01*
X1500521Y179751D01*
X1504790Y180057D01*
G37*
G36*
X604462Y180057D02*
X604462Y180057D01*
X604471Y180060D01*
X604497Y180062D01*
X608680Y180972D01*
X608688Y180976D01*
X608714Y180982D01*
X612724Y182478D01*
X612732Y182483D01*
X612757Y182492D01*
X616513Y184544D01*
X616520Y184551D01*
X616543Y184563D01*
X619970Y187128D01*
X619976Y187136D01*
X619997Y187151D01*
X623024Y190178D01*
X623028Y190186D01*
X623047Y190205D01*
X625612Y193631D01*
X625615Y193640D01*
X625631Y193661D01*
X627683Y197418D01*
X627685Y197428D01*
X627697Y197450D01*
X629193Y201461D01*
X629194Y201471D01*
X629203Y201495D01*
X630113Y205678D01*
X630112Y205687D01*
X630118Y205713D01*
X630423Y209982D01*
X630422Y209988D01*
X630424Y210000D01*
X630424Y220000D01*
X630419Y220016D01*
X630422Y220033D01*
X630400Y220083D01*
X630385Y220134D01*
X630372Y220145D01*
X630365Y220161D01*
X630320Y220191D01*
X630280Y220226D01*
X630263Y220229D01*
X630248Y220238D01*
X630175Y220249D01*
X617675Y220249D01*
X617668Y220247D01*
X617661Y220249D01*
X617602Y220228D01*
X617541Y220210D01*
X617536Y220205D01*
X617529Y220202D01*
X617490Y220152D01*
X617449Y220105D01*
X617448Y220098D01*
X617443Y220092D01*
X617426Y220020D01*
X617212Y217302D01*
X616580Y214669D01*
X615545Y212169D01*
X614130Y209861D01*
X612372Y207802D01*
X610314Y206044D01*
X608006Y204630D01*
X605505Y203594D01*
X602873Y202962D01*
X600175Y202750D01*
X597476Y202962D01*
X594844Y203594D01*
X592343Y204630D01*
X590035Y206044D01*
X587977Y207802D01*
X587956Y207828D01*
X587955Y207828D01*
X587743Y208077D01*
X587530Y208326D01*
X587317Y208576D01*
X587104Y208825D01*
X586891Y209074D01*
X586465Y209573D01*
X586252Y209822D01*
X586219Y209861D01*
X584805Y212169D01*
X583769Y214669D01*
X583137Y217302D01*
X582923Y220020D01*
X582921Y220026D01*
X582922Y220033D01*
X582896Y220091D01*
X582874Y220150D01*
X582868Y220155D01*
X582865Y220161D01*
X582812Y220196D01*
X582762Y220234D01*
X582754Y220234D01*
X582748Y220238D01*
X582675Y220249D01*
X570175Y220249D01*
X570158Y220244D01*
X570141Y220247D01*
X570092Y220225D01*
X570041Y220210D01*
X570029Y220197D01*
X570014Y220190D01*
X569984Y220145D01*
X569949Y220105D01*
X569946Y220088D01*
X569937Y220074D01*
X569926Y220000D01*
X569926Y210000D01*
X569927Y209995D01*
X569926Y209982D01*
X570232Y205713D01*
X570235Y205704D01*
X570237Y205678D01*
X571146Y201495D01*
X571151Y201487D01*
X571156Y201461D01*
X572652Y197450D01*
X572658Y197443D01*
X572667Y197418D01*
X574718Y193661D01*
X574725Y193654D01*
X574738Y193631D01*
X577303Y190205D01*
X577311Y190199D01*
X577326Y190178D01*
X580353Y187151D01*
X580361Y187147D01*
X580380Y187128D01*
X583806Y184563D01*
X583815Y184559D01*
X583836Y184544D01*
X587593Y182492D01*
X587602Y182490D01*
X587625Y182478D01*
X591636Y180982D01*
X591645Y180981D01*
X591670Y180972D01*
X595852Y180062D01*
X595862Y180062D01*
X595888Y180057D01*
X600157Y179751D01*
X600166Y179753D01*
X600193Y179751D01*
X604462Y180057D01*
G37*
G36*
X1054626Y180057D02*
X1054626Y180057D01*
X1054635Y180060D01*
X1054661Y180062D01*
X1058844Y180972D01*
X1058852Y180976D01*
X1058878Y180982D01*
X1062889Y182478D01*
X1062896Y182483D01*
X1062921Y182492D01*
X1066678Y184544D01*
X1066685Y184551D01*
X1066708Y184563D01*
X1070134Y187128D01*
X1070140Y187136D01*
X1070161Y187151D01*
X1073188Y190178D01*
X1073192Y190186D01*
X1073211Y190205D01*
X1075776Y193631D01*
X1075780Y193640D01*
X1075795Y193661D01*
X1077847Y197418D01*
X1077849Y197428D01*
X1077862Y197450D01*
X1079357Y201461D01*
X1079358Y201471D01*
X1079367Y201495D01*
X1080277Y205678D01*
X1080277Y205687D01*
X1080282Y205713D01*
X1080588Y209982D01*
X1080586Y209988D01*
X1080588Y210000D01*
X1080588Y220000D01*
X1080583Y220016D01*
X1080586Y220033D01*
X1080564Y220083D01*
X1080549Y220134D01*
X1080536Y220145D01*
X1080529Y220161D01*
X1080484Y220191D01*
X1080444Y220226D01*
X1080427Y220229D01*
X1080413Y220238D01*
X1080339Y220249D01*
X1067839Y220249D01*
X1067832Y220247D01*
X1067825Y220249D01*
X1067766Y220228D01*
X1067705Y220210D01*
X1067700Y220205D01*
X1067693Y220202D01*
X1067655Y220152D01*
X1067613Y220105D01*
X1067612Y220098D01*
X1067607Y220092D01*
X1067591Y220020D01*
X1067377Y217302D01*
X1066745Y214669D01*
X1065709Y212169D01*
X1064295Y209861D01*
X1062537Y207802D01*
X1060478Y206044D01*
X1058170Y204630D01*
X1055670Y203594D01*
X1053037Y202962D01*
X1050339Y202750D01*
X1047641Y202962D01*
X1045008Y203594D01*
X1042508Y204630D01*
X1040200Y206044D01*
X1038141Y207802D01*
X1038120Y207828D01*
X1037907Y208077D01*
X1037694Y208326D01*
X1037481Y208576D01*
X1037268Y208825D01*
X1037055Y209074D01*
X1036630Y209573D01*
X1036629Y209573D01*
X1036417Y209822D01*
X1036383Y209861D01*
X1034969Y212169D01*
X1033933Y214669D01*
X1033301Y217302D01*
X1033087Y220020D01*
X1033085Y220026D01*
X1033086Y220033D01*
X1033060Y220091D01*
X1033038Y220150D01*
X1033032Y220155D01*
X1033029Y220161D01*
X1032976Y220196D01*
X1032926Y220234D01*
X1032919Y220234D01*
X1032913Y220238D01*
X1032839Y220249D01*
X1020339Y220249D01*
X1020323Y220244D01*
X1020306Y220247D01*
X1020256Y220225D01*
X1020205Y220210D01*
X1020194Y220197D01*
X1020178Y220190D01*
X1020148Y220145D01*
X1020113Y220105D01*
X1020110Y220088D01*
X1020101Y220074D01*
X1020090Y220000D01*
X1020090Y210000D01*
X1020091Y209995D01*
X1020090Y209982D01*
X1020396Y205713D01*
X1020399Y205704D01*
X1020401Y205678D01*
X1021311Y201495D01*
X1021315Y201487D01*
X1021321Y201461D01*
X1022817Y197450D01*
X1022822Y197443D01*
X1022831Y197418D01*
X1024883Y193661D01*
X1024890Y193654D01*
X1024902Y193631D01*
X1027467Y190205D01*
X1027475Y190199D01*
X1027490Y190178D01*
X1030517Y187151D01*
X1030525Y187147D01*
X1030544Y187128D01*
X1033970Y184563D01*
X1033979Y184559D01*
X1034000Y184544D01*
X1037757Y182492D01*
X1037767Y182490D01*
X1037789Y182478D01*
X1041800Y180982D01*
X1041810Y180981D01*
X1041834Y180972D01*
X1046017Y180062D01*
X1046026Y180062D01*
X1046052Y180057D01*
X1050321Y179751D01*
X1050331Y179753D01*
X1050357Y179751D01*
X1054626Y180057D01*
G37*
G36*
X829531Y180057D02*
X829531Y180057D01*
X829541Y180060D01*
X829567Y180062D01*
X833749Y180972D01*
X833758Y180976D01*
X833783Y180982D01*
X837794Y182478D01*
X837801Y182483D01*
X837826Y182492D01*
X841583Y184544D01*
X841590Y184551D01*
X841613Y184563D01*
X845039Y187128D01*
X845045Y187136D01*
X845066Y187151D01*
X848093Y190178D01*
X848098Y190186D01*
X848116Y190205D01*
X850681Y193631D01*
X850685Y193640D01*
X850701Y193661D01*
X852752Y197418D01*
X852754Y197428D01*
X852767Y197450D01*
X854263Y201461D01*
X854263Y201471D01*
X854273Y201495D01*
X855182Y205678D01*
X855182Y205687D01*
X855187Y205713D01*
X855493Y209982D01*
X855492Y209988D01*
X855493Y210000D01*
X855493Y220000D01*
X855489Y220016D01*
X855491Y220033D01*
X855469Y220083D01*
X855454Y220134D01*
X855441Y220145D01*
X855434Y220161D01*
X855389Y220191D01*
X855349Y220226D01*
X855332Y220229D01*
X855318Y220238D01*
X855244Y220249D01*
X842744Y220249D01*
X842737Y220247D01*
X842730Y220249D01*
X842671Y220228D01*
X842610Y220210D01*
X842605Y220205D01*
X842598Y220202D01*
X842560Y220152D01*
X842518Y220105D01*
X842517Y220098D01*
X842513Y220092D01*
X842496Y220020D01*
X842282Y217302D01*
X841650Y214669D01*
X840614Y212169D01*
X839200Y209861D01*
X837442Y207802D01*
X835384Y206044D01*
X833076Y204630D01*
X830575Y203594D01*
X827943Y202962D01*
X825244Y202750D01*
X822546Y202962D01*
X819914Y203594D01*
X817413Y204630D01*
X815105Y206044D01*
X813047Y207802D01*
X813025Y207828D01*
X812812Y208077D01*
X812599Y208326D01*
X812386Y208576D01*
X812173Y208825D01*
X811961Y209074D01*
X811960Y209074D01*
X811535Y209573D01*
X811322Y209822D01*
X811289Y209861D01*
X809874Y212169D01*
X808839Y214669D01*
X808207Y217302D01*
X807993Y220020D01*
X807990Y220026D01*
X807991Y220033D01*
X807965Y220091D01*
X807943Y220150D01*
X807937Y220155D01*
X807934Y220161D01*
X807882Y220196D01*
X807831Y220234D01*
X807824Y220234D01*
X807818Y220238D01*
X807744Y220249D01*
X795244Y220249D01*
X795228Y220244D01*
X795211Y220247D01*
X795162Y220225D01*
X795110Y220210D01*
X795099Y220197D01*
X795083Y220190D01*
X795053Y220145D01*
X795018Y220105D01*
X795015Y220088D01*
X795006Y220074D01*
X794995Y220000D01*
X794995Y210000D01*
X794997Y209995D01*
X794996Y209982D01*
X795301Y205713D01*
X795304Y205704D01*
X795306Y205678D01*
X796216Y201495D01*
X796221Y201487D01*
X796226Y201461D01*
X797722Y197450D01*
X797727Y197443D01*
X797736Y197418D01*
X799788Y193661D01*
X799795Y193654D01*
X799807Y193631D01*
X802372Y190205D01*
X802380Y190199D01*
X802395Y190178D01*
X805422Y187151D01*
X805431Y187147D01*
X805449Y187128D01*
X808876Y184563D01*
X808885Y184559D01*
X808906Y184544D01*
X812662Y182492D01*
X812672Y182490D01*
X812695Y182478D01*
X816705Y180982D01*
X816715Y180981D01*
X816739Y180972D01*
X820922Y180062D01*
X820931Y180062D01*
X820957Y180057D01*
X825226Y179751D01*
X825236Y179753D01*
X825262Y179751D01*
X829531Y180057D01*
G37*
G36*
X1279696Y180057D02*
X1279696Y180057D01*
X1279705Y180060D01*
X1279731Y180062D01*
X1283913Y180972D01*
X1283922Y180976D01*
X1283947Y180982D01*
X1287958Y182478D01*
X1287966Y182483D01*
X1287990Y182492D01*
X1291747Y184544D01*
X1291754Y184551D01*
X1291777Y184563D01*
X1295204Y187128D01*
X1295209Y187136D01*
X1295230Y187151D01*
X1298257Y190178D01*
X1298262Y190186D01*
X1298280Y190205D01*
X1300846Y193631D01*
X1300849Y193640D01*
X1300865Y193661D01*
X1302916Y197418D01*
X1302918Y197428D01*
X1302931Y197450D01*
X1304427Y201461D01*
X1304427Y201471D01*
X1304437Y201495D01*
X1305347Y205678D01*
X1305346Y205687D01*
X1305352Y205713D01*
X1305657Y209982D01*
X1305656Y209988D01*
X1305658Y210000D01*
X1305658Y220000D01*
X1305653Y220016D01*
X1305655Y220033D01*
X1305634Y220083D01*
X1305618Y220134D01*
X1305606Y220145D01*
X1305599Y220161D01*
X1305554Y220191D01*
X1305513Y220226D01*
X1305496Y220229D01*
X1305482Y220238D01*
X1305408Y220249D01*
X1292908Y220249D01*
X1292901Y220247D01*
X1292894Y220249D01*
X1292835Y220228D01*
X1292774Y220210D01*
X1292769Y220205D01*
X1292763Y220202D01*
X1292724Y220152D01*
X1292682Y220105D01*
X1292681Y220098D01*
X1292677Y220092D01*
X1292660Y220020D01*
X1292446Y217302D01*
X1291814Y214669D01*
X1290778Y212169D01*
X1289364Y209861D01*
X1287606Y207802D01*
X1285548Y206044D01*
X1283240Y204630D01*
X1280739Y203594D01*
X1278107Y202962D01*
X1275408Y202750D01*
X1272710Y202962D01*
X1270078Y203594D01*
X1267577Y204630D01*
X1265269Y206044D01*
X1263211Y207802D01*
X1263189Y207828D01*
X1262976Y208077D01*
X1262763Y208326D01*
X1262550Y208576D01*
X1262338Y208825D01*
X1262125Y209074D01*
X1261699Y209573D01*
X1261486Y209822D01*
X1261453Y209861D01*
X1260039Y212169D01*
X1259003Y214669D01*
X1258371Y217302D01*
X1258157Y220020D01*
X1258154Y220026D01*
X1258155Y220033D01*
X1258130Y220091D01*
X1258107Y220150D01*
X1258102Y220155D01*
X1258099Y220161D01*
X1258046Y220196D01*
X1257995Y220234D01*
X1257988Y220234D01*
X1257982Y220238D01*
X1257908Y220249D01*
X1245408Y220249D01*
X1245392Y220244D01*
X1245375Y220247D01*
X1245326Y220225D01*
X1245274Y220210D01*
X1245263Y220197D01*
X1245247Y220190D01*
X1245218Y220145D01*
X1245182Y220105D01*
X1245180Y220088D01*
X1245170Y220074D01*
X1245159Y220000D01*
X1245159Y210000D01*
X1245161Y209995D01*
X1245160Y209982D01*
X1245465Y205713D01*
X1245469Y205704D01*
X1245470Y205678D01*
X1246380Y201495D01*
X1246385Y201487D01*
X1246390Y201461D01*
X1247886Y197450D01*
X1247892Y197443D01*
X1247901Y197418D01*
X1249952Y193661D01*
X1249959Y193654D01*
X1249971Y193631D01*
X1252536Y190205D01*
X1252544Y190199D01*
X1252560Y190178D01*
X1255586Y187151D01*
X1255595Y187147D01*
X1255613Y187128D01*
X1259040Y184563D01*
X1259049Y184559D01*
X1259070Y184544D01*
X1262827Y182492D01*
X1262836Y182490D01*
X1262859Y182478D01*
X1266869Y180982D01*
X1266879Y180981D01*
X1266903Y180972D01*
X1271086Y180062D01*
X1271096Y180062D01*
X1271121Y180057D01*
X1275391Y179751D01*
X1275400Y179753D01*
X1275426Y179751D01*
X1279696Y180057D01*
G37*
G36*
X379367Y180057D02*
X379367Y180057D01*
X379376Y180060D01*
X379402Y180062D01*
X383585Y180972D01*
X383593Y180976D01*
X383619Y180982D01*
X387630Y182478D01*
X387637Y182483D01*
X387662Y182492D01*
X391419Y184544D01*
X391426Y184551D01*
X391449Y184563D01*
X394875Y187128D01*
X394881Y187136D01*
X394902Y187151D01*
X397929Y190178D01*
X397933Y190186D01*
X397952Y190205D01*
X400517Y193631D01*
X400521Y193640D01*
X400536Y193661D01*
X402588Y197418D01*
X402590Y197428D01*
X402603Y197450D01*
X404098Y201461D01*
X404099Y201471D01*
X404108Y201495D01*
X405018Y205678D01*
X405018Y205687D01*
X405023Y205713D01*
X405329Y209982D01*
X405327Y209988D01*
X405329Y210000D01*
X405329Y220000D01*
X405324Y220016D01*
X405327Y220033D01*
X405305Y220083D01*
X405290Y220134D01*
X405277Y220145D01*
X405270Y220161D01*
X405225Y220191D01*
X405185Y220226D01*
X405168Y220229D01*
X405154Y220238D01*
X405080Y220249D01*
X392580Y220249D01*
X392573Y220247D01*
X392566Y220249D01*
X392507Y220228D01*
X392446Y220210D01*
X392441Y220205D01*
X392434Y220202D01*
X392396Y220152D01*
X392354Y220105D01*
X392353Y220098D01*
X392348Y220092D01*
X392332Y220020D01*
X392118Y217302D01*
X391486Y214669D01*
X390450Y212169D01*
X389036Y209861D01*
X387278Y207802D01*
X385219Y206044D01*
X382911Y204630D01*
X380411Y203594D01*
X377778Y202962D01*
X375080Y202750D01*
X372382Y202962D01*
X369749Y203594D01*
X367249Y204630D01*
X364941Y206044D01*
X362882Y207802D01*
X362861Y207828D01*
X362648Y208077D01*
X362435Y208326D01*
X362222Y208576D01*
X362009Y208825D01*
X361796Y209074D01*
X361371Y209573D01*
X361370Y209573D01*
X361158Y209822D01*
X361124Y209861D01*
X359710Y212169D01*
X358674Y214669D01*
X358042Y217302D01*
X357828Y220020D01*
X357826Y220026D01*
X357827Y220033D01*
X357801Y220091D01*
X357779Y220150D01*
X357773Y220155D01*
X357770Y220161D01*
X357717Y220196D01*
X357667Y220234D01*
X357660Y220234D01*
X357654Y220238D01*
X357580Y220249D01*
X345080Y220249D01*
X345064Y220244D01*
X345047Y220247D01*
X344997Y220225D01*
X344946Y220210D01*
X344935Y220197D01*
X344919Y220190D01*
X344889Y220145D01*
X344854Y220105D01*
X344851Y220088D01*
X344842Y220074D01*
X344831Y220000D01*
X344831Y210000D01*
X344832Y209995D01*
X344831Y209982D01*
X345137Y205713D01*
X345140Y205704D01*
X345142Y205678D01*
X346052Y201495D01*
X346056Y201487D01*
X346062Y201461D01*
X347558Y197450D01*
X347563Y197443D01*
X347572Y197418D01*
X349624Y193661D01*
X349631Y193654D01*
X349643Y193631D01*
X352208Y190205D01*
X352216Y190199D01*
X352231Y190178D01*
X355258Y187151D01*
X355266Y187147D01*
X355285Y187128D01*
X358711Y184563D01*
X358720Y184559D01*
X358741Y184544D01*
X362498Y182492D01*
X362508Y182490D01*
X362530Y182478D01*
X366541Y180982D01*
X366551Y180981D01*
X366575Y180972D01*
X370758Y180062D01*
X370767Y180062D01*
X370793Y180057D01*
X375062Y179751D01*
X375072Y179753D01*
X375098Y179751D01*
X379367Y180057D01*
G37*
G36*
X154298Y180057D02*
X154298Y180057D01*
X154307Y180060D01*
X154333Y180062D01*
X158516Y180972D01*
X158524Y180976D01*
X158550Y180982D01*
X162560Y182478D01*
X162568Y182483D01*
X162593Y182492D01*
X166349Y184544D01*
X166356Y184551D01*
X166379Y184563D01*
X169806Y187128D01*
X169812Y187136D01*
X169833Y187151D01*
X172859Y190178D01*
X172864Y190186D01*
X172883Y190205D01*
X175448Y193631D01*
X175451Y193640D01*
X175467Y193661D01*
X177518Y197418D01*
X177520Y197428D01*
X177533Y197450D01*
X179029Y201461D01*
X179030Y201471D01*
X179039Y201495D01*
X179949Y205678D01*
X179948Y205687D01*
X179954Y205713D01*
X180259Y209982D01*
X180258Y209988D01*
X180260Y210000D01*
X180260Y220000D01*
X180255Y220016D01*
X180258Y220033D01*
X180236Y220083D01*
X180221Y220134D01*
X180208Y220145D01*
X180201Y220161D01*
X180156Y220191D01*
X180115Y220226D01*
X180098Y220229D01*
X180084Y220238D01*
X180011Y220249D01*
X167511Y220249D01*
X167504Y220247D01*
X167497Y220249D01*
X167437Y220228D01*
X167376Y220210D01*
X167372Y220205D01*
X167365Y220202D01*
X167326Y220152D01*
X167284Y220105D01*
X167283Y220098D01*
X167279Y220092D01*
X167262Y220020D01*
X167048Y217302D01*
X166416Y214669D01*
X165380Y212169D01*
X163966Y209861D01*
X162208Y207802D01*
X160150Y206044D01*
X157842Y204630D01*
X155341Y203594D01*
X152709Y202962D01*
X150011Y202750D01*
X147312Y202962D01*
X144680Y203594D01*
X142179Y204630D01*
X139871Y206044D01*
X137813Y207802D01*
X137791Y207828D01*
X137578Y208077D01*
X137366Y208326D01*
X137365Y208326D01*
X137153Y208576D01*
X136940Y208825D01*
X136727Y209074D01*
X136301Y209573D01*
X136088Y209822D01*
X136055Y209861D01*
X134641Y212169D01*
X133605Y214669D01*
X132973Y217302D01*
X132759Y220020D01*
X132757Y220026D01*
X132758Y220033D01*
X132732Y220091D01*
X132709Y220150D01*
X132704Y220155D01*
X132701Y220161D01*
X132648Y220196D01*
X132597Y220234D01*
X132590Y220234D01*
X132584Y220238D01*
X132511Y220249D01*
X120011Y220249D01*
X119994Y220244D01*
X119977Y220247D01*
X119928Y220225D01*
X119876Y220210D01*
X119865Y220197D01*
X119849Y220190D01*
X119820Y220145D01*
X119784Y220105D01*
X119782Y220088D01*
X119772Y220074D01*
X119761Y220000D01*
X119761Y210000D01*
X119763Y209995D01*
X119762Y209982D01*
X120067Y205713D01*
X120071Y205704D01*
X120072Y205678D01*
X120982Y201495D01*
X120987Y201487D01*
X120992Y201461D01*
X122488Y197450D01*
X122494Y197443D01*
X122503Y197418D01*
X124554Y193661D01*
X124561Y193654D01*
X124573Y193631D01*
X127139Y190205D01*
X127146Y190199D01*
X127162Y190178D01*
X130189Y187151D01*
X130197Y187147D01*
X130215Y187128D01*
X133642Y184563D01*
X133651Y184559D01*
X133672Y184544D01*
X137429Y182492D01*
X137438Y182490D01*
X137461Y182478D01*
X141472Y180982D01*
X141481Y180981D01*
X141506Y180972D01*
X145688Y180062D01*
X145698Y180062D01*
X145723Y180057D01*
X149993Y179751D01*
X150002Y179753D01*
X150028Y179751D01*
X154298Y180057D01*
G37*
G36*
X502650Y478253D02*
X502650Y478253D01*
X502657Y478251D01*
X502716Y478272D01*
X502777Y478290D01*
X502782Y478295D01*
X502789Y478298D01*
X502828Y478348D01*
X502869Y478395D01*
X502870Y478402D01*
X502875Y478408D01*
X502891Y478480D01*
X503105Y481198D01*
X503737Y483831D01*
X504773Y486331D01*
X506187Y488639D01*
X507945Y490698D01*
X510004Y492456D01*
X512312Y493870D01*
X514812Y494906D01*
X517445Y495538D01*
X520143Y495750D01*
X522841Y495538D01*
X525474Y494906D01*
X527974Y493870D01*
X530282Y492456D01*
X532341Y490698D01*
X532465Y490552D01*
X532678Y490303D01*
X533103Y489804D01*
X533104Y489804D01*
X533316Y489555D01*
X533529Y489306D01*
X533742Y489057D01*
X533955Y488807D01*
X534099Y488639D01*
X535513Y486331D01*
X536549Y483831D01*
X537181Y481198D01*
X537395Y478480D01*
X537397Y478474D01*
X537396Y478467D01*
X537422Y478409D01*
X537444Y478350D01*
X537450Y478345D01*
X537453Y478339D01*
X537506Y478304D01*
X537556Y478266D01*
X537564Y478266D01*
X537570Y478262D01*
X537643Y478251D01*
X550143Y478251D01*
X550159Y478256D01*
X550176Y478253D01*
X550226Y478275D01*
X550277Y478290D01*
X550288Y478303D01*
X550304Y478310D01*
X550334Y478355D01*
X550369Y478395D01*
X550372Y478412D01*
X550381Y478427D01*
X550392Y478500D01*
X550392Y488500D01*
X550391Y488505D01*
X550392Y488518D01*
X550086Y492787D01*
X550083Y492796D01*
X550081Y492822D01*
X549171Y497005D01*
X549167Y497013D01*
X549161Y497039D01*
X547666Y501050D01*
X547660Y501057D01*
X547651Y501082D01*
X545599Y504839D01*
X545593Y504846D01*
X545580Y504869D01*
X543015Y508295D01*
X543007Y508301D01*
X542992Y508322D01*
X539965Y511349D01*
X539957Y511353D01*
X539938Y511372D01*
X536512Y513937D01*
X536503Y513941D01*
X536482Y513956D01*
X532725Y516008D01*
X532715Y516010D01*
X532693Y516023D01*
X528682Y517518D01*
X528672Y517519D01*
X528648Y517528D01*
X524465Y518438D01*
X524456Y518438D01*
X524430Y518443D01*
X520161Y518749D01*
X520151Y518747D01*
X520125Y518749D01*
X515856Y518443D01*
X515847Y518440D01*
X515821Y518438D01*
X511638Y517528D01*
X511630Y517524D01*
X511604Y517518D01*
X507593Y516023D01*
X507586Y516017D01*
X507561Y516008D01*
X503804Y513956D01*
X503797Y513950D01*
X503774Y513937D01*
X500348Y511372D01*
X500342Y511364D01*
X500321Y511349D01*
X497294Y508322D01*
X497290Y508314D01*
X497271Y508295D01*
X494706Y504869D01*
X494702Y504860D01*
X494687Y504839D01*
X492635Y501082D01*
X492633Y501072D01*
X492621Y501050D01*
X491125Y497039D01*
X491124Y497029D01*
X491115Y497005D01*
X490205Y492822D01*
X490205Y492813D01*
X490200Y492787D01*
X489894Y488518D01*
X489896Y488512D01*
X489894Y488500D01*
X489894Y478500D01*
X489899Y478484D01*
X489896Y478467D01*
X489918Y478417D01*
X489933Y478366D01*
X489946Y478355D01*
X489953Y478339D01*
X489998Y478309D01*
X490038Y478274D01*
X490055Y478271D01*
X490070Y478262D01*
X490143Y478251D01*
X502643Y478251D01*
X502650Y478253D01*
G37*
G36*
X1177909Y478253D02*
X1177909Y478253D01*
X1177916Y478251D01*
X1177975Y478272D01*
X1178036Y478290D01*
X1178041Y478295D01*
X1178048Y478298D01*
X1178087Y478348D01*
X1178128Y478395D01*
X1178129Y478402D01*
X1178134Y478408D01*
X1178150Y478480D01*
X1178364Y481198D01*
X1178996Y483831D01*
X1180032Y486331D01*
X1181446Y488639D01*
X1183204Y490698D01*
X1185263Y492456D01*
X1187571Y493870D01*
X1190071Y494906D01*
X1192704Y495538D01*
X1195402Y495750D01*
X1198100Y495538D01*
X1200733Y494906D01*
X1203233Y493870D01*
X1205541Y492456D01*
X1207600Y490698D01*
X1207724Y490552D01*
X1207937Y490303D01*
X1208362Y489804D01*
X1208363Y489804D01*
X1208575Y489555D01*
X1208788Y489306D01*
X1209001Y489057D01*
X1209214Y488807D01*
X1209358Y488639D01*
X1210772Y486331D01*
X1211808Y483831D01*
X1212440Y481198D01*
X1212654Y478480D01*
X1212656Y478474D01*
X1212655Y478467D01*
X1212681Y478409D01*
X1212703Y478350D01*
X1212709Y478345D01*
X1212712Y478339D01*
X1212765Y478304D01*
X1212815Y478266D01*
X1212823Y478266D01*
X1212829Y478262D01*
X1212902Y478251D01*
X1225402Y478251D01*
X1225418Y478256D01*
X1225435Y478253D01*
X1225485Y478275D01*
X1225536Y478290D01*
X1225547Y478303D01*
X1225563Y478310D01*
X1225593Y478355D01*
X1225628Y478395D01*
X1225631Y478412D01*
X1225640Y478427D01*
X1225651Y478500D01*
X1225651Y488500D01*
X1225650Y488505D01*
X1225651Y488518D01*
X1225345Y492787D01*
X1225342Y492796D01*
X1225340Y492822D01*
X1224430Y497005D01*
X1224426Y497013D01*
X1224420Y497039D01*
X1222925Y501050D01*
X1222919Y501057D01*
X1222910Y501082D01*
X1220858Y504839D01*
X1220852Y504846D01*
X1220839Y504869D01*
X1218274Y508295D01*
X1218266Y508301D01*
X1218251Y508322D01*
X1215224Y511349D01*
X1215216Y511353D01*
X1215197Y511372D01*
X1211771Y513937D01*
X1211762Y513941D01*
X1211741Y513956D01*
X1207984Y516008D01*
X1207974Y516010D01*
X1207952Y516023D01*
X1203941Y517518D01*
X1203931Y517519D01*
X1203907Y517528D01*
X1199724Y518438D01*
X1199715Y518438D01*
X1199689Y518443D01*
X1195420Y518749D01*
X1195410Y518747D01*
X1195384Y518749D01*
X1191115Y518443D01*
X1191106Y518440D01*
X1191080Y518438D01*
X1186897Y517528D01*
X1186889Y517524D01*
X1186863Y517518D01*
X1182852Y516023D01*
X1182845Y516017D01*
X1182820Y516008D01*
X1179063Y513956D01*
X1179056Y513950D01*
X1179033Y513937D01*
X1175607Y511372D01*
X1175601Y511364D01*
X1175580Y511349D01*
X1172553Y508322D01*
X1172549Y508314D01*
X1172530Y508295D01*
X1169965Y504869D01*
X1169961Y504860D01*
X1169946Y504839D01*
X1167894Y501082D01*
X1167892Y501072D01*
X1167880Y501050D01*
X1166384Y497039D01*
X1166383Y497029D01*
X1166374Y497005D01*
X1165464Y492822D01*
X1165464Y492813D01*
X1165459Y492787D01*
X1165153Y488518D01*
X1165155Y488512D01*
X1165153Y488500D01*
X1165153Y478500D01*
X1165158Y478484D01*
X1165155Y478467D01*
X1165177Y478417D01*
X1165192Y478366D01*
X1165205Y478355D01*
X1165212Y478339D01*
X1165257Y478309D01*
X1165297Y478274D01*
X1165314Y478271D01*
X1165329Y478262D01*
X1165402Y478251D01*
X1177902Y478251D01*
X1177909Y478253D01*
G37*
G36*
X727745Y478253D02*
X727745Y478253D01*
X727752Y478251D01*
X727811Y478272D01*
X727872Y478290D01*
X727877Y478295D01*
X727884Y478298D01*
X727922Y478348D01*
X727964Y478395D01*
X727965Y478402D01*
X727969Y478408D01*
X727986Y478480D01*
X728200Y481198D01*
X728832Y483831D01*
X729868Y486331D01*
X731282Y488639D01*
X733040Y490698D01*
X735099Y492456D01*
X737406Y493870D01*
X739907Y494906D01*
X742539Y495538D01*
X745238Y495750D01*
X747936Y495538D01*
X750568Y494906D01*
X753069Y493870D01*
X755377Y492456D01*
X757435Y490698D01*
X757560Y490552D01*
X757772Y490303D01*
X757773Y490303D01*
X758198Y489804D01*
X758411Y489555D01*
X758624Y489306D01*
X758837Y489057D01*
X759050Y488807D01*
X759193Y488639D01*
X760608Y486331D01*
X761644Y483831D01*
X762275Y481198D01*
X762489Y478480D01*
X762492Y478474D01*
X762491Y478467D01*
X762517Y478409D01*
X762539Y478350D01*
X762545Y478345D01*
X762548Y478339D01*
X762600Y478304D01*
X762651Y478266D01*
X762658Y478266D01*
X762664Y478262D01*
X762738Y478251D01*
X775238Y478251D01*
X775254Y478256D01*
X775271Y478253D01*
X775320Y478275D01*
X775372Y478290D01*
X775383Y478303D01*
X775399Y478310D01*
X775429Y478355D01*
X775464Y478395D01*
X775467Y478412D01*
X775476Y478427D01*
X775487Y478500D01*
X775487Y488500D01*
X775485Y488505D01*
X775486Y488518D01*
X775181Y492787D01*
X775178Y492796D01*
X775176Y492822D01*
X774266Y497005D01*
X774262Y497013D01*
X774256Y497039D01*
X772760Y501050D01*
X772755Y501057D01*
X772746Y501082D01*
X770694Y504839D01*
X770687Y504846D01*
X770675Y504869D01*
X768110Y508295D01*
X768102Y508301D01*
X768087Y508322D01*
X765060Y511349D01*
X765051Y511353D01*
X765033Y511372D01*
X761606Y513937D01*
X761597Y513941D01*
X761577Y513956D01*
X757820Y516008D01*
X757810Y516010D01*
X757787Y516023D01*
X753777Y517518D01*
X753767Y517519D01*
X753743Y517528D01*
X749560Y518438D01*
X749551Y518438D01*
X749525Y518443D01*
X745256Y518749D01*
X745246Y518747D01*
X745220Y518749D01*
X740951Y518443D01*
X740942Y518440D01*
X740915Y518438D01*
X736733Y517528D01*
X736724Y517524D01*
X736699Y517518D01*
X732688Y516023D01*
X732681Y516017D01*
X732656Y516008D01*
X728899Y513956D01*
X728892Y513950D01*
X728869Y513937D01*
X725443Y511372D01*
X725437Y511364D01*
X725416Y511349D01*
X722389Y508322D01*
X722384Y508314D01*
X722366Y508295D01*
X719801Y504869D01*
X719797Y504860D01*
X719781Y504839D01*
X717730Y501082D01*
X717728Y501072D01*
X717715Y501050D01*
X716220Y497039D01*
X716219Y497029D01*
X716209Y497005D01*
X715300Y492822D01*
X715300Y492813D01*
X715295Y492787D01*
X714989Y488518D01*
X714990Y488512D01*
X714989Y488500D01*
X714989Y478500D01*
X714993Y478484D01*
X714991Y478467D01*
X715013Y478417D01*
X715028Y478366D01*
X715041Y478355D01*
X715048Y478339D01*
X715093Y478309D01*
X715133Y478274D01*
X715150Y478271D01*
X715164Y478262D01*
X715238Y478251D01*
X727738Y478251D01*
X727745Y478253D01*
G37*
G36*
X52486Y478253D02*
X52486Y478253D01*
X52493Y478251D01*
X52552Y478272D01*
X52613Y478290D01*
X52618Y478295D01*
X52625Y478298D01*
X52663Y478348D01*
X52705Y478395D01*
X52706Y478402D01*
X52710Y478408D01*
X52727Y478480D01*
X52941Y481198D01*
X53573Y483831D01*
X54609Y486331D01*
X56023Y488639D01*
X57781Y490698D01*
X59840Y492456D01*
X62147Y493870D01*
X64648Y494906D01*
X67280Y495538D01*
X69979Y495750D01*
X72677Y495538D01*
X75309Y494906D01*
X77810Y493870D01*
X80118Y492456D01*
X82176Y490698D01*
X82301Y490552D01*
X82513Y490303D01*
X82514Y490303D01*
X82939Y489804D01*
X83152Y489555D01*
X83365Y489306D01*
X83578Y489057D01*
X83791Y488807D01*
X83934Y488639D01*
X85349Y486331D01*
X86385Y483831D01*
X87016Y481198D01*
X87230Y478480D01*
X87233Y478474D01*
X87232Y478467D01*
X87258Y478409D01*
X87280Y478350D01*
X87286Y478345D01*
X87289Y478339D01*
X87341Y478304D01*
X87392Y478266D01*
X87399Y478266D01*
X87405Y478262D01*
X87479Y478251D01*
X99979Y478251D01*
X99995Y478256D01*
X100012Y478253D01*
X100061Y478275D01*
X100113Y478290D01*
X100124Y478303D01*
X100140Y478310D01*
X100170Y478355D01*
X100205Y478395D01*
X100208Y478412D01*
X100217Y478427D01*
X100228Y478500D01*
X100228Y488500D01*
X100226Y488505D01*
X100227Y488518D01*
X99922Y492787D01*
X99919Y492796D01*
X99917Y492822D01*
X99007Y497005D01*
X99003Y497013D01*
X98997Y497039D01*
X97501Y501050D01*
X97496Y501057D01*
X97487Y501082D01*
X95435Y504839D01*
X95428Y504846D01*
X95416Y504869D01*
X92851Y508295D01*
X92843Y508301D01*
X92828Y508322D01*
X89801Y511349D01*
X89792Y511353D01*
X89774Y511372D01*
X86347Y513937D01*
X86338Y513941D01*
X86318Y513956D01*
X82561Y516008D01*
X82551Y516010D01*
X82528Y516023D01*
X78518Y517518D01*
X78508Y517519D01*
X78484Y517528D01*
X74301Y518438D01*
X74292Y518438D01*
X74266Y518443D01*
X69997Y518749D01*
X69987Y518747D01*
X69961Y518749D01*
X65692Y518443D01*
X65683Y518440D01*
X65656Y518438D01*
X61474Y517528D01*
X61465Y517524D01*
X61440Y517518D01*
X57429Y516023D01*
X57422Y516017D01*
X57397Y516008D01*
X53640Y513956D01*
X53633Y513950D01*
X53610Y513937D01*
X50184Y511372D01*
X50178Y511364D01*
X50157Y511349D01*
X47130Y508322D01*
X47125Y508314D01*
X47107Y508295D01*
X44542Y504869D01*
X44538Y504860D01*
X44522Y504839D01*
X42471Y501082D01*
X42469Y501072D01*
X42456Y501050D01*
X40961Y497039D01*
X40960Y497029D01*
X40950Y497005D01*
X40041Y492822D01*
X40041Y492813D01*
X40036Y492787D01*
X39730Y488518D01*
X39731Y488512D01*
X39730Y488500D01*
X39730Y478500D01*
X39734Y478484D01*
X39732Y478467D01*
X39754Y478417D01*
X39769Y478366D01*
X39782Y478355D01*
X39789Y478339D01*
X39834Y478309D01*
X39874Y478274D01*
X39891Y478271D01*
X39905Y478262D01*
X39979Y478251D01*
X52479Y478251D01*
X52486Y478253D01*
G37*
G36*
X1402978Y478253D02*
X1402978Y478253D01*
X1402985Y478251D01*
X1403045Y478272D01*
X1403106Y478290D01*
X1403110Y478295D01*
X1403117Y478298D01*
X1403156Y478348D01*
X1403198Y478395D01*
X1403199Y478402D01*
X1403203Y478408D01*
X1403220Y478480D01*
X1403434Y481198D01*
X1404066Y483831D01*
X1405102Y486331D01*
X1406516Y488639D01*
X1408274Y490698D01*
X1410332Y492456D01*
X1412640Y493870D01*
X1415141Y494906D01*
X1417773Y495538D01*
X1420471Y495750D01*
X1423170Y495538D01*
X1425802Y494906D01*
X1428303Y493870D01*
X1430611Y492456D01*
X1432669Y490698D01*
X1432793Y490552D01*
X1433006Y490303D01*
X1433432Y489804D01*
X1433645Y489555D01*
X1433858Y489306D01*
X1434070Y489057D01*
X1434071Y489057D01*
X1434283Y488807D01*
X1434427Y488639D01*
X1435841Y486331D01*
X1436877Y483831D01*
X1437509Y481198D01*
X1437723Y478480D01*
X1437726Y478474D01*
X1437724Y478467D01*
X1437750Y478409D01*
X1437773Y478350D01*
X1437778Y478345D01*
X1437781Y478339D01*
X1437834Y478304D01*
X1437885Y478266D01*
X1437892Y478266D01*
X1437898Y478262D01*
X1437971Y478251D01*
X1450471Y478251D01*
X1450488Y478256D01*
X1450505Y478253D01*
X1450554Y478275D01*
X1450606Y478290D01*
X1450617Y478303D01*
X1450633Y478310D01*
X1450662Y478355D01*
X1450698Y478395D01*
X1450700Y478412D01*
X1450710Y478427D01*
X1450721Y478500D01*
X1450721Y488500D01*
X1450719Y488505D01*
X1450720Y488518D01*
X1450415Y492787D01*
X1450411Y492796D01*
X1450410Y492822D01*
X1449500Y497005D01*
X1449495Y497013D01*
X1449490Y497039D01*
X1447994Y501050D01*
X1447988Y501057D01*
X1447979Y501082D01*
X1445928Y504839D01*
X1445921Y504846D01*
X1445909Y504869D01*
X1443343Y508295D01*
X1443336Y508301D01*
X1443320Y508322D01*
X1440293Y511349D01*
X1440285Y511353D01*
X1440267Y511372D01*
X1436840Y513937D01*
X1436831Y513941D01*
X1436810Y513956D01*
X1433053Y516008D01*
X1433044Y516010D01*
X1433021Y516023D01*
X1429010Y517518D01*
X1429001Y517519D01*
X1428976Y517528D01*
X1424794Y518438D01*
X1424784Y518438D01*
X1424759Y518443D01*
X1420489Y518749D01*
X1420480Y518747D01*
X1420454Y518749D01*
X1416184Y518443D01*
X1416175Y518440D01*
X1416149Y518438D01*
X1411966Y517528D01*
X1411958Y517524D01*
X1411932Y517518D01*
X1407922Y516023D01*
X1407914Y516017D01*
X1407890Y516008D01*
X1404133Y513956D01*
X1404126Y513950D01*
X1404103Y513937D01*
X1400676Y511372D01*
X1400670Y511364D01*
X1400649Y511349D01*
X1397623Y508322D01*
X1397618Y508314D01*
X1397599Y508295D01*
X1395034Y504869D01*
X1395031Y504860D01*
X1395015Y504839D01*
X1392964Y501082D01*
X1392962Y501072D01*
X1392949Y501050D01*
X1391453Y497039D01*
X1391452Y497029D01*
X1391443Y497005D01*
X1390533Y492822D01*
X1390534Y492813D01*
X1390528Y492787D01*
X1390223Y488518D01*
X1390224Y488512D01*
X1390222Y488500D01*
X1390222Y478500D01*
X1390227Y478484D01*
X1390224Y478467D01*
X1390246Y478417D01*
X1390261Y478366D01*
X1390274Y478355D01*
X1390281Y478339D01*
X1390326Y478309D01*
X1390367Y478274D01*
X1390384Y478271D01*
X1390398Y478262D01*
X1390471Y478251D01*
X1402971Y478251D01*
X1402978Y478253D01*
G37*
G36*
X277581Y478253D02*
X277581Y478253D01*
X277588Y478251D01*
X277647Y478272D01*
X277708Y478290D01*
X277713Y478295D01*
X277719Y478298D01*
X277758Y478348D01*
X277800Y478395D01*
X277801Y478402D01*
X277805Y478408D01*
X277822Y478480D01*
X278036Y481198D01*
X278668Y483831D01*
X279704Y486331D01*
X281118Y488639D01*
X282876Y490698D01*
X284934Y492456D01*
X287242Y493870D01*
X289743Y494906D01*
X292375Y495538D01*
X295074Y495750D01*
X297772Y495538D01*
X300404Y494906D01*
X302905Y493870D01*
X305213Y492456D01*
X307271Y490698D01*
X307395Y490552D01*
X307608Y490303D01*
X308034Y489804D01*
X308247Y489555D01*
X308460Y489306D01*
X308673Y489057D01*
X308886Y488807D01*
X309029Y488639D01*
X310443Y486331D01*
X311479Y483831D01*
X312111Y481198D01*
X312325Y478480D01*
X312328Y478474D01*
X312327Y478467D01*
X312352Y478409D01*
X312375Y478350D01*
X312381Y478345D01*
X312383Y478339D01*
X312436Y478304D01*
X312487Y478266D01*
X312494Y478266D01*
X312500Y478262D01*
X312574Y478251D01*
X325074Y478251D01*
X325090Y478256D01*
X325107Y478253D01*
X325156Y478275D01*
X325208Y478290D01*
X325219Y478303D01*
X325235Y478310D01*
X325264Y478355D01*
X325300Y478395D01*
X325302Y478412D01*
X325312Y478427D01*
X325323Y478500D01*
X325323Y488500D01*
X325321Y488505D01*
X325322Y488518D01*
X325017Y492787D01*
X325014Y492796D01*
X325012Y492822D01*
X324102Y497005D01*
X324097Y497013D01*
X324092Y497039D01*
X322596Y501050D01*
X322590Y501057D01*
X322581Y501082D01*
X320530Y504839D01*
X320523Y504846D01*
X320511Y504869D01*
X317946Y508295D01*
X317938Y508301D01*
X317922Y508322D01*
X314896Y511349D01*
X314887Y511353D01*
X314869Y511372D01*
X311442Y513937D01*
X311433Y513941D01*
X311412Y513956D01*
X307656Y516008D01*
X307646Y516010D01*
X307623Y516023D01*
X303613Y517518D01*
X303603Y517519D01*
X303579Y517528D01*
X299396Y518438D01*
X299386Y518438D01*
X299361Y518443D01*
X295091Y518749D01*
X295082Y518747D01*
X295056Y518749D01*
X290786Y518443D01*
X290777Y518440D01*
X290751Y518438D01*
X286569Y517528D01*
X286560Y517524D01*
X286535Y517518D01*
X282524Y516023D01*
X282516Y516017D01*
X282492Y516008D01*
X278735Y513956D01*
X278728Y513950D01*
X278705Y513937D01*
X275278Y511372D01*
X275273Y511364D01*
X275252Y511349D01*
X272225Y508322D01*
X272220Y508314D01*
X272202Y508295D01*
X269636Y504869D01*
X269633Y504860D01*
X269617Y504839D01*
X267566Y501082D01*
X267564Y501072D01*
X267551Y501050D01*
X266055Y497039D01*
X266055Y497029D01*
X266045Y497005D01*
X265135Y492822D01*
X265136Y492813D01*
X265130Y492787D01*
X264825Y488518D01*
X264826Y488512D01*
X264824Y488500D01*
X264824Y478500D01*
X264829Y478484D01*
X264827Y478467D01*
X264848Y478417D01*
X264864Y478366D01*
X264876Y478355D01*
X264883Y478339D01*
X264928Y478309D01*
X264969Y478274D01*
X264986Y478271D01*
X265000Y478262D01*
X265074Y478251D01*
X277574Y478251D01*
X277581Y478253D01*
G37*
G36*
X952814Y478253D02*
X952814Y478253D01*
X952821Y478251D01*
X952880Y478272D01*
X952941Y478290D01*
X952946Y478295D01*
X952953Y478298D01*
X952992Y478348D01*
X953033Y478395D01*
X953034Y478402D01*
X953039Y478408D01*
X953056Y478480D01*
X953270Y481198D01*
X953902Y483831D01*
X954937Y486331D01*
X956352Y488639D01*
X958110Y490698D01*
X960168Y492456D01*
X962476Y493870D01*
X964977Y494906D01*
X967609Y495538D01*
X970307Y495750D01*
X973006Y495538D01*
X975638Y494906D01*
X978139Y493870D01*
X980447Y492456D01*
X982505Y490698D01*
X982629Y490552D01*
X982842Y490303D01*
X983268Y489804D01*
X983481Y489555D01*
X983693Y489306D01*
X983694Y489306D01*
X983906Y489057D01*
X984119Y488807D01*
X984263Y488639D01*
X985677Y486331D01*
X986713Y483831D01*
X987345Y481198D01*
X987559Y478480D01*
X987561Y478474D01*
X987560Y478467D01*
X987586Y478409D01*
X987608Y478350D01*
X987614Y478345D01*
X987617Y478339D01*
X987670Y478304D01*
X987721Y478266D01*
X987728Y478266D01*
X987734Y478262D01*
X987807Y478251D01*
X1000307Y478251D01*
X1000324Y478256D01*
X1000341Y478253D01*
X1000390Y478275D01*
X1000441Y478290D01*
X1000453Y478303D01*
X1000468Y478310D01*
X1000498Y478355D01*
X1000533Y478395D01*
X1000536Y478412D01*
X1000545Y478427D01*
X1000556Y478500D01*
X1000556Y488500D01*
X1000555Y488505D01*
X1000556Y488518D01*
X1000251Y492787D01*
X1000247Y492796D01*
X1000245Y492822D01*
X999336Y497005D01*
X999331Y497013D01*
X999326Y497039D01*
X997830Y501050D01*
X997824Y501057D01*
X997815Y501082D01*
X995764Y504839D01*
X995757Y504846D01*
X995744Y504869D01*
X993179Y508295D01*
X993172Y508301D01*
X993156Y508322D01*
X990129Y511349D01*
X990121Y511353D01*
X990102Y511372D01*
X986676Y513937D01*
X986667Y513941D01*
X986646Y513956D01*
X982889Y516008D01*
X982880Y516010D01*
X982857Y516023D01*
X978846Y517518D01*
X978837Y517519D01*
X978812Y517528D01*
X974630Y518438D01*
X974620Y518438D01*
X974594Y518443D01*
X970325Y518749D01*
X970316Y518747D01*
X970289Y518749D01*
X966020Y518443D01*
X966011Y518440D01*
X965985Y518438D01*
X961802Y517528D01*
X961794Y517524D01*
X961768Y517518D01*
X957758Y516023D01*
X957750Y516017D01*
X957725Y516008D01*
X953969Y513956D01*
X953962Y513950D01*
X953939Y513937D01*
X950512Y511372D01*
X950506Y511364D01*
X950485Y511349D01*
X947458Y508322D01*
X947454Y508314D01*
X947435Y508295D01*
X944870Y504869D01*
X944867Y504860D01*
X944851Y504839D01*
X942800Y501082D01*
X942797Y501072D01*
X942785Y501050D01*
X941289Y497039D01*
X941288Y497029D01*
X941279Y497005D01*
X940369Y492822D01*
X940370Y492813D01*
X940364Y492787D01*
X940059Y488518D01*
X940060Y488512D01*
X940058Y488500D01*
X940058Y478500D01*
X940063Y478484D01*
X940060Y478467D01*
X940082Y478417D01*
X940097Y478366D01*
X940110Y478355D01*
X940117Y478339D01*
X940162Y478309D01*
X940202Y478274D01*
X940219Y478271D01*
X940234Y478262D01*
X940307Y478251D01*
X952807Y478251D01*
X952814Y478253D01*
G37*
G36*
X1628048Y478253D02*
X1628048Y478253D01*
X1628055Y478251D01*
X1628114Y478272D01*
X1628175Y478290D01*
X1628180Y478295D01*
X1628187Y478298D01*
X1628225Y478348D01*
X1628267Y478395D01*
X1628268Y478402D01*
X1628272Y478408D01*
X1628289Y478480D01*
X1628503Y481198D01*
X1629135Y483831D01*
X1630171Y486331D01*
X1631585Y488639D01*
X1633343Y490698D01*
X1635402Y492456D01*
X1637709Y493870D01*
X1640210Y494906D01*
X1642842Y495538D01*
X1645541Y495750D01*
X1648239Y495538D01*
X1650871Y494906D01*
X1653372Y493870D01*
X1655680Y492456D01*
X1657738Y490698D01*
X1657863Y490552D01*
X1658075Y490303D01*
X1658076Y490303D01*
X1658501Y489804D01*
X1658714Y489555D01*
X1658927Y489306D01*
X1659140Y489057D01*
X1659353Y488807D01*
X1659496Y488639D01*
X1660911Y486331D01*
X1661947Y483831D01*
X1662578Y481198D01*
X1662792Y478480D01*
X1662795Y478474D01*
X1662794Y478467D01*
X1662820Y478409D01*
X1662842Y478350D01*
X1662848Y478345D01*
X1662851Y478339D01*
X1662903Y478304D01*
X1662954Y478266D01*
X1662961Y478266D01*
X1662967Y478262D01*
X1663041Y478251D01*
X1675541Y478251D01*
X1675557Y478256D01*
X1675574Y478253D01*
X1675623Y478275D01*
X1675675Y478290D01*
X1675686Y478303D01*
X1675702Y478310D01*
X1675732Y478355D01*
X1675767Y478395D01*
X1675770Y478412D01*
X1675779Y478427D01*
X1675790Y478500D01*
X1675790Y488500D01*
X1675788Y488505D01*
X1675789Y488518D01*
X1675484Y492787D01*
X1675481Y492796D01*
X1675479Y492822D01*
X1674569Y497005D01*
X1674565Y497013D01*
X1674559Y497039D01*
X1673063Y501050D01*
X1673058Y501057D01*
X1673049Y501082D01*
X1670997Y504839D01*
X1670990Y504846D01*
X1670978Y504869D01*
X1668413Y508295D01*
X1668405Y508301D01*
X1668390Y508322D01*
X1665363Y511349D01*
X1665354Y511353D01*
X1665336Y511372D01*
X1661909Y513937D01*
X1661900Y513941D01*
X1661880Y513956D01*
X1658123Y516008D01*
X1658113Y516010D01*
X1658090Y516023D01*
X1654080Y517518D01*
X1654070Y517519D01*
X1654046Y517528D01*
X1649863Y518438D01*
X1649854Y518438D01*
X1649828Y518443D01*
X1645559Y518749D01*
X1645549Y518747D01*
X1645523Y518749D01*
X1641254Y518443D01*
X1641245Y518440D01*
X1641218Y518438D01*
X1637036Y517528D01*
X1637027Y517524D01*
X1637002Y517518D01*
X1632991Y516023D01*
X1632984Y516017D01*
X1632959Y516008D01*
X1629202Y513956D01*
X1629195Y513950D01*
X1629172Y513937D01*
X1625746Y511372D01*
X1625740Y511364D01*
X1625719Y511349D01*
X1622692Y508322D01*
X1622687Y508314D01*
X1622669Y508295D01*
X1620104Y504869D01*
X1620100Y504860D01*
X1620084Y504839D01*
X1618033Y501082D01*
X1618031Y501072D01*
X1618018Y501050D01*
X1616523Y497039D01*
X1616522Y497029D01*
X1616512Y497005D01*
X1615603Y492822D01*
X1615603Y492813D01*
X1615598Y492787D01*
X1615292Y488518D01*
X1615293Y488512D01*
X1615292Y488500D01*
X1615292Y478500D01*
X1615296Y478484D01*
X1615294Y478467D01*
X1615316Y478417D01*
X1615331Y478366D01*
X1615344Y478355D01*
X1615351Y478339D01*
X1615396Y478309D01*
X1615436Y478274D01*
X1615453Y478271D01*
X1615467Y478262D01*
X1615541Y478251D01*
X1628041Y478251D01*
X1628048Y478253D01*
G37*
G36*
X931642Y605972D02*
X931642Y605972D01*
X931708Y605974D01*
X931751Y605992D01*
X931798Y606000D01*
X931855Y606034D01*
X931916Y606059D01*
X931951Y606090D01*
X931991Y606115D01*
X932033Y606166D01*
X932081Y606210D01*
X932103Y606252D01*
X932133Y606289D01*
X932154Y606351D01*
X932184Y606410D01*
X932192Y606464D01*
X932205Y606501D01*
X932203Y606541D01*
X932211Y606595D01*
X932211Y610405D01*
X932200Y610470D01*
X932198Y610536D01*
X932180Y610579D01*
X932172Y610626D01*
X932138Y610683D01*
X932114Y610743D01*
X932082Y610778D01*
X932058Y610819D01*
X932007Y610861D01*
X931962Y610909D01*
X931920Y610931D01*
X931883Y610960D01*
X931821Y610981D01*
X931763Y611012D01*
X931708Y611020D01*
X931671Y611032D01*
X931632Y611031D01*
X931577Y611039D01*
X929037Y611039D01*
X928972Y611028D01*
X928907Y611026D01*
X928863Y611008D01*
X928816Y611000D01*
X928760Y610966D01*
X928699Y610941D01*
X928664Y610910D01*
X928623Y610885D01*
X928582Y610834D01*
X928533Y610790D01*
X928512Y610748D01*
X928482Y610711D01*
X928461Y610649D01*
X928431Y610590D01*
X928423Y610536D01*
X928410Y610499D01*
X928410Y610495D01*
X928410Y610494D01*
X928411Y610459D01*
X928403Y610405D01*
X928403Y606595D01*
X928415Y606530D01*
X928417Y606464D01*
X928434Y606421D01*
X928443Y606374D01*
X928476Y606317D01*
X928501Y606257D01*
X928533Y606222D01*
X928557Y606181D01*
X928608Y606140D01*
X928652Y606091D01*
X928694Y606069D01*
X928731Y606040D01*
X928793Y606019D01*
X928852Y605988D01*
X928906Y605980D01*
X928944Y605968D01*
X928983Y605969D01*
X929037Y605961D01*
X931577Y605961D01*
X931642Y605972D01*
G37*
G36*
X1381806Y605972D02*
X1381806Y605972D01*
X1381872Y605974D01*
X1381916Y605992D01*
X1381962Y606000D01*
X1382019Y606034D01*
X1382080Y606059D01*
X1382115Y606090D01*
X1382155Y606115D01*
X1382197Y606166D01*
X1382245Y606210D01*
X1382267Y606252D01*
X1382297Y606289D01*
X1382318Y606351D01*
X1382348Y606410D01*
X1382356Y606464D01*
X1382369Y606501D01*
X1382368Y606541D01*
X1382376Y606595D01*
X1382376Y610405D01*
X1382364Y610470D01*
X1382362Y610536D01*
X1382344Y610579D01*
X1382336Y610626D01*
X1382302Y610683D01*
X1382278Y610743D01*
X1382246Y610778D01*
X1382222Y610819D01*
X1382171Y610861D01*
X1382126Y610909D01*
X1382084Y610931D01*
X1382048Y610960D01*
X1381985Y610981D01*
X1381927Y611012D01*
X1381872Y611020D01*
X1381835Y611032D01*
X1381796Y611031D01*
X1381741Y611039D01*
X1379201Y611039D01*
X1379137Y611028D01*
X1379071Y611026D01*
X1379027Y611008D01*
X1378981Y611000D01*
X1378924Y610966D01*
X1378863Y610941D01*
X1378828Y610910D01*
X1378787Y610885D01*
X1378746Y610834D01*
X1378697Y610790D01*
X1378676Y610748D01*
X1378646Y610711D01*
X1378625Y610649D01*
X1378595Y610590D01*
X1378587Y610536D01*
X1378574Y610499D01*
X1378574Y610495D01*
X1378574Y610494D01*
X1378575Y610459D01*
X1378567Y610405D01*
X1378567Y606595D01*
X1378579Y606530D01*
X1378581Y606464D01*
X1378598Y606421D01*
X1378607Y606374D01*
X1378640Y606317D01*
X1378665Y606257D01*
X1378697Y606222D01*
X1378721Y606181D01*
X1378772Y606140D01*
X1378816Y606091D01*
X1378859Y606069D01*
X1378895Y606040D01*
X1378957Y606019D01*
X1379016Y605988D01*
X1379070Y605980D01*
X1379108Y605968D01*
X1379147Y605969D01*
X1379201Y605961D01*
X1381741Y605961D01*
X1381806Y605972D01*
G37*
G36*
X1156737Y605972D02*
X1156737Y605972D01*
X1156803Y605974D01*
X1156846Y605992D01*
X1156893Y606000D01*
X1156950Y606034D01*
X1157010Y606059D01*
X1157045Y606090D01*
X1157086Y606115D01*
X1157128Y606166D01*
X1157176Y606210D01*
X1157198Y606252D01*
X1157227Y606289D01*
X1157248Y606351D01*
X1157279Y606410D01*
X1157287Y606464D01*
X1157299Y606501D01*
X1157298Y606541D01*
X1157306Y606595D01*
X1157306Y610405D01*
X1157295Y610470D01*
X1157293Y610536D01*
X1157275Y610579D01*
X1157267Y610626D01*
X1157233Y610683D01*
X1157208Y610743D01*
X1157177Y610778D01*
X1157152Y610819D01*
X1157101Y610861D01*
X1157057Y610909D01*
X1157015Y610931D01*
X1156978Y610960D01*
X1156916Y610981D01*
X1156857Y611012D01*
X1156803Y611020D01*
X1156766Y611032D01*
X1156726Y611031D01*
X1156672Y611039D01*
X1154132Y611039D01*
X1154067Y611028D01*
X1154001Y611026D01*
X1153958Y611008D01*
X1153911Y611000D01*
X1153854Y610966D01*
X1153794Y610941D01*
X1153759Y610910D01*
X1153718Y610885D01*
X1153677Y610834D01*
X1153628Y610790D01*
X1153606Y610748D01*
X1153577Y610711D01*
X1153556Y610649D01*
X1153525Y610590D01*
X1153517Y610536D01*
X1153505Y610499D01*
X1153505Y610495D01*
X1153505Y610494D01*
X1153506Y610459D01*
X1153498Y610405D01*
X1153498Y606595D01*
X1153509Y606530D01*
X1153511Y606464D01*
X1153529Y606421D01*
X1153537Y606374D01*
X1153571Y606317D01*
X1153596Y606257D01*
X1153627Y606222D01*
X1153652Y606181D01*
X1153703Y606140D01*
X1153747Y606091D01*
X1153789Y606069D01*
X1153826Y606040D01*
X1153888Y606019D01*
X1153947Y605988D01*
X1154001Y605980D01*
X1154038Y605968D01*
X1154078Y605969D01*
X1154132Y605961D01*
X1156672Y605961D01*
X1156737Y605972D01*
G37*
G36*
X1606876Y605972D02*
X1606876Y605972D01*
X1606941Y605974D01*
X1606985Y605992D01*
X1607032Y606000D01*
X1607088Y606034D01*
X1607149Y606059D01*
X1607184Y606090D01*
X1607225Y606115D01*
X1607266Y606166D01*
X1607315Y606210D01*
X1607336Y606252D01*
X1607366Y606289D01*
X1607387Y606351D01*
X1607417Y606410D01*
X1607426Y606464D01*
X1607438Y606501D01*
X1607437Y606541D01*
X1607445Y606595D01*
X1607445Y610405D01*
X1607433Y610470D01*
X1607431Y610536D01*
X1607414Y610579D01*
X1607405Y610626D01*
X1607372Y610683D01*
X1607347Y610743D01*
X1607315Y610778D01*
X1607291Y610819D01*
X1607240Y610861D01*
X1607196Y610909D01*
X1607154Y610931D01*
X1607117Y610960D01*
X1607055Y610981D01*
X1606996Y611012D01*
X1606942Y611020D01*
X1606905Y611032D01*
X1606865Y611031D01*
X1606811Y611039D01*
X1604271Y611039D01*
X1604206Y611028D01*
X1604140Y611026D01*
X1604097Y611008D01*
X1604050Y611000D01*
X1603993Y610966D01*
X1603932Y610941D01*
X1603898Y610910D01*
X1603857Y610885D01*
X1603815Y610834D01*
X1603767Y610790D01*
X1603745Y610748D01*
X1603715Y610711D01*
X1603694Y610649D01*
X1603664Y610590D01*
X1603656Y610536D01*
X1603644Y610499D01*
X1603644Y610495D01*
X1603644Y610494D01*
X1603645Y610459D01*
X1603637Y610405D01*
X1603637Y606595D01*
X1603648Y606530D01*
X1603650Y606464D01*
X1603668Y606421D01*
X1603676Y606374D01*
X1603710Y606317D01*
X1603734Y606257D01*
X1603766Y606222D01*
X1603790Y606181D01*
X1603841Y606140D01*
X1603886Y606091D01*
X1603928Y606069D01*
X1603965Y606040D01*
X1604027Y606019D01*
X1604085Y605988D01*
X1604140Y605980D01*
X1604177Y605968D01*
X1604216Y605969D01*
X1604271Y605961D01*
X1606811Y605961D01*
X1606876Y605972D01*
G37*
G36*
X256408Y605972D02*
X256408Y605972D01*
X256474Y605974D01*
X256518Y605992D01*
X256564Y606000D01*
X256621Y606034D01*
X256682Y606059D01*
X256717Y606090D01*
X256758Y606115D01*
X256799Y606166D01*
X256848Y606210D01*
X256869Y606252D01*
X256899Y606289D01*
X256920Y606351D01*
X256950Y606410D01*
X256958Y606464D01*
X256971Y606501D01*
X256970Y606541D01*
X256978Y606595D01*
X256978Y610405D01*
X256966Y610470D01*
X256964Y610536D01*
X256947Y610579D01*
X256938Y610626D01*
X256905Y610683D01*
X256880Y610743D01*
X256848Y610778D01*
X256824Y610819D01*
X256773Y610861D01*
X256729Y610909D01*
X256687Y610931D01*
X256650Y610960D01*
X256588Y610981D01*
X256529Y611012D01*
X256475Y611020D01*
X256437Y611032D01*
X256398Y611031D01*
X256344Y611039D01*
X253804Y611039D01*
X253739Y611028D01*
X253673Y611026D01*
X253629Y611008D01*
X253583Y611000D01*
X253526Y610966D01*
X253465Y610941D01*
X253430Y610910D01*
X253390Y610885D01*
X253348Y610834D01*
X253300Y610790D01*
X253278Y610748D01*
X253248Y610711D01*
X253227Y610649D01*
X253197Y610590D01*
X253189Y610536D01*
X253176Y610499D01*
X253176Y610495D01*
X253176Y610494D01*
X253177Y610459D01*
X253169Y610405D01*
X253169Y606595D01*
X253181Y606530D01*
X253183Y606464D01*
X253201Y606421D01*
X253209Y606374D01*
X253243Y606317D01*
X253267Y606257D01*
X253299Y606222D01*
X253323Y606181D01*
X253374Y606140D01*
X253419Y606091D01*
X253461Y606069D01*
X253497Y606040D01*
X253560Y606019D01*
X253618Y605988D01*
X253673Y605980D01*
X253710Y605968D01*
X253749Y605969D01*
X253804Y605961D01*
X256344Y605961D01*
X256408Y605972D01*
G37*
G36*
X481478Y605972D02*
X481478Y605972D01*
X481544Y605974D01*
X481587Y605992D01*
X481634Y606000D01*
X481691Y606034D01*
X481751Y606059D01*
X481786Y606090D01*
X481827Y606115D01*
X481869Y606166D01*
X481917Y606210D01*
X481939Y606252D01*
X481968Y606289D01*
X481989Y606351D01*
X482020Y606410D01*
X482028Y606464D01*
X482040Y606501D01*
X482039Y606541D01*
X482047Y606595D01*
X482047Y610405D01*
X482036Y610470D01*
X482034Y610536D01*
X482016Y610579D01*
X482008Y610626D01*
X481974Y610683D01*
X481949Y610743D01*
X481918Y610778D01*
X481893Y610819D01*
X481842Y610861D01*
X481798Y610909D01*
X481756Y610931D01*
X481719Y610960D01*
X481657Y610981D01*
X481598Y611012D01*
X481544Y611020D01*
X481507Y611032D01*
X481467Y611031D01*
X481413Y611039D01*
X478873Y611039D01*
X478808Y611028D01*
X478742Y611026D01*
X478699Y611008D01*
X478652Y611000D01*
X478595Y610966D01*
X478535Y610941D01*
X478500Y610910D01*
X478459Y610885D01*
X478418Y610834D01*
X478369Y610790D01*
X478347Y610748D01*
X478318Y610711D01*
X478297Y610649D01*
X478266Y610590D01*
X478258Y610536D01*
X478246Y610499D01*
X478246Y610495D01*
X478246Y610494D01*
X478247Y610459D01*
X478239Y610405D01*
X478239Y606595D01*
X478250Y606530D01*
X478252Y606464D01*
X478270Y606421D01*
X478278Y606374D01*
X478312Y606317D01*
X478337Y606257D01*
X478368Y606222D01*
X478393Y606181D01*
X478444Y606140D01*
X478488Y606091D01*
X478530Y606069D01*
X478567Y606040D01*
X478629Y606019D01*
X478688Y605988D01*
X478742Y605980D01*
X478779Y605968D01*
X478819Y605969D01*
X478873Y605961D01*
X481413Y605961D01*
X481478Y605972D01*
G37*
G36*
X31314Y605972D02*
X31314Y605972D01*
X31379Y605974D01*
X31423Y605992D01*
X31470Y606000D01*
X31526Y606034D01*
X31587Y606059D01*
X31622Y606090D01*
X31663Y606115D01*
X31704Y606166D01*
X31753Y606210D01*
X31774Y606252D01*
X31804Y606289D01*
X31825Y606351D01*
X31855Y606410D01*
X31864Y606464D01*
X31876Y606501D01*
X31875Y606541D01*
X31883Y606595D01*
X31883Y610405D01*
X31871Y610470D01*
X31869Y610536D01*
X31852Y610579D01*
X31843Y610626D01*
X31810Y610683D01*
X31785Y610743D01*
X31753Y610778D01*
X31729Y610819D01*
X31678Y610861D01*
X31634Y610909D01*
X31592Y610931D01*
X31555Y610960D01*
X31493Y610981D01*
X31434Y611012D01*
X31380Y611020D01*
X31343Y611032D01*
X31303Y611031D01*
X31249Y611039D01*
X28709Y611039D01*
X28644Y611028D01*
X28578Y611026D01*
X28535Y611008D01*
X28488Y611000D01*
X28431Y610966D01*
X28370Y610941D01*
X28336Y610910D01*
X28295Y610885D01*
X28253Y610834D01*
X28205Y610790D01*
X28183Y610748D01*
X28153Y610711D01*
X28132Y610649D01*
X28102Y610590D01*
X28094Y610536D01*
X28082Y610499D01*
X28082Y610495D01*
X28082Y610494D01*
X28083Y610459D01*
X28075Y610405D01*
X28075Y606595D01*
X28086Y606530D01*
X28088Y606464D01*
X28106Y606421D01*
X28114Y606374D01*
X28148Y606317D01*
X28172Y606257D01*
X28204Y606222D01*
X28228Y606181D01*
X28279Y606140D01*
X28324Y606091D01*
X28366Y606069D01*
X28403Y606040D01*
X28465Y606019D01*
X28523Y605988D01*
X28578Y605980D01*
X28615Y605968D01*
X28654Y605969D01*
X28709Y605961D01*
X31249Y605961D01*
X31314Y605972D01*
G37*
G36*
X706573Y605972D02*
X706573Y605972D01*
X706638Y605974D01*
X706682Y605992D01*
X706729Y606000D01*
X706785Y606034D01*
X706846Y606059D01*
X706881Y606090D01*
X706922Y606115D01*
X706963Y606166D01*
X707012Y606210D01*
X707033Y606252D01*
X707063Y606289D01*
X707084Y606351D01*
X707114Y606410D01*
X707123Y606464D01*
X707135Y606501D01*
X707134Y606541D01*
X707142Y606595D01*
X707142Y610405D01*
X707130Y610470D01*
X707128Y610536D01*
X707111Y610579D01*
X707102Y610626D01*
X707069Y610683D01*
X707044Y610743D01*
X707012Y610778D01*
X706988Y610819D01*
X706937Y610861D01*
X706893Y610909D01*
X706851Y610931D01*
X706814Y610960D01*
X706752Y610981D01*
X706693Y611012D01*
X706639Y611020D01*
X706602Y611032D01*
X706562Y611031D01*
X706508Y611039D01*
X703968Y611039D01*
X703903Y611028D01*
X703837Y611026D01*
X703794Y611008D01*
X703747Y611000D01*
X703690Y610966D01*
X703629Y610941D01*
X703595Y610910D01*
X703554Y610885D01*
X703512Y610834D01*
X703464Y610790D01*
X703442Y610748D01*
X703412Y610711D01*
X703391Y610649D01*
X703361Y610590D01*
X703353Y610536D01*
X703341Y610499D01*
X703341Y610495D01*
X703341Y610494D01*
X703342Y610459D01*
X703334Y610405D01*
X703334Y606595D01*
X703345Y606530D01*
X703347Y606464D01*
X703365Y606421D01*
X703373Y606374D01*
X703407Y606317D01*
X703431Y606257D01*
X703463Y606222D01*
X703487Y606181D01*
X703538Y606140D01*
X703583Y606091D01*
X703625Y606069D01*
X703662Y606040D01*
X703724Y606019D01*
X703782Y605988D01*
X703837Y605980D01*
X703874Y605968D01*
X703913Y605969D01*
X703968Y605961D01*
X706508Y605961D01*
X706573Y605972D01*
G37*
G36*
X1766907Y87472D02*
X1766907Y87472D01*
X1766973Y87474D01*
X1767017Y87492D01*
X1767063Y87500D01*
X1767120Y87534D01*
X1767181Y87559D01*
X1767216Y87590D01*
X1767257Y87615D01*
X1767298Y87666D01*
X1767347Y87710D01*
X1767368Y87752D01*
X1767398Y87789D01*
X1767419Y87851D01*
X1767449Y87910D01*
X1767457Y87964D01*
X1767470Y88001D01*
X1767469Y88041D01*
X1767477Y88095D01*
X1767477Y91905D01*
X1767465Y91970D01*
X1767463Y92036D01*
X1767446Y92079D01*
X1767437Y92126D01*
X1767404Y92183D01*
X1767379Y92243D01*
X1767347Y92278D01*
X1767323Y92319D01*
X1767272Y92361D01*
X1767228Y92409D01*
X1767186Y92431D01*
X1767149Y92460D01*
X1767087Y92481D01*
X1767028Y92512D01*
X1766974Y92520D01*
X1766936Y92532D01*
X1766897Y92531D01*
X1766843Y92539D01*
X1764303Y92539D01*
X1764238Y92528D01*
X1764172Y92526D01*
X1764128Y92508D01*
X1764082Y92500D01*
X1764025Y92466D01*
X1763964Y92441D01*
X1763929Y92410D01*
X1763889Y92385D01*
X1763847Y92334D01*
X1763799Y92290D01*
X1763777Y92248D01*
X1763747Y92211D01*
X1763726Y92149D01*
X1763696Y92090D01*
X1763688Y92036D01*
X1763675Y91999D01*
X1763675Y91995D01*
X1763675Y91994D01*
X1763676Y91959D01*
X1763668Y91905D01*
X1763668Y88095D01*
X1763680Y88030D01*
X1763682Y87964D01*
X1763700Y87921D01*
X1763708Y87874D01*
X1763742Y87817D01*
X1763766Y87757D01*
X1763798Y87722D01*
X1763822Y87681D01*
X1763873Y87640D01*
X1763918Y87591D01*
X1763960Y87569D01*
X1763996Y87540D01*
X1764059Y87519D01*
X1764117Y87488D01*
X1764172Y87480D01*
X1764209Y87468D01*
X1764248Y87469D01*
X1764303Y87461D01*
X1766843Y87461D01*
X1766907Y87472D01*
G37*
G36*
X641510Y87472D02*
X641510Y87472D01*
X641575Y87474D01*
X641619Y87492D01*
X641666Y87500D01*
X641722Y87534D01*
X641783Y87559D01*
X641818Y87590D01*
X641859Y87615D01*
X641900Y87666D01*
X641949Y87710D01*
X641970Y87752D01*
X642000Y87789D01*
X642021Y87851D01*
X642051Y87910D01*
X642059Y87964D01*
X642072Y88001D01*
X642071Y88041D01*
X642079Y88095D01*
X642079Y91905D01*
X642067Y91970D01*
X642065Y92036D01*
X642048Y92079D01*
X642039Y92126D01*
X642006Y92183D01*
X641981Y92243D01*
X641949Y92278D01*
X641925Y92319D01*
X641874Y92361D01*
X641830Y92409D01*
X641788Y92431D01*
X641751Y92460D01*
X641689Y92481D01*
X641630Y92512D01*
X641576Y92520D01*
X641539Y92532D01*
X641499Y92531D01*
X641445Y92539D01*
X638905Y92539D01*
X638840Y92528D01*
X638774Y92526D01*
X638731Y92508D01*
X638684Y92500D01*
X638627Y92466D01*
X638566Y92441D01*
X638531Y92410D01*
X638491Y92385D01*
X638449Y92334D01*
X638401Y92290D01*
X638379Y92248D01*
X638349Y92211D01*
X638328Y92149D01*
X638298Y92090D01*
X638290Y92036D01*
X638278Y91999D01*
X638278Y91995D01*
X638278Y91994D01*
X638279Y91959D01*
X638271Y91905D01*
X638271Y88095D01*
X638282Y88030D01*
X638284Y87964D01*
X638302Y87921D01*
X638310Y87874D01*
X638344Y87817D01*
X638368Y87757D01*
X638400Y87722D01*
X638424Y87681D01*
X638475Y87640D01*
X638520Y87591D01*
X638562Y87569D01*
X638599Y87540D01*
X638661Y87519D01*
X638719Y87488D01*
X638774Y87480D01*
X638811Y87468D01*
X638850Y87469D01*
X638905Y87461D01*
X641445Y87461D01*
X641510Y87472D01*
G37*
G36*
X866579Y87472D02*
X866579Y87472D01*
X866645Y87474D01*
X866688Y87492D01*
X866735Y87500D01*
X866792Y87534D01*
X866853Y87559D01*
X866888Y87590D01*
X866928Y87615D01*
X866970Y87666D01*
X867018Y87710D01*
X867040Y87752D01*
X867070Y87789D01*
X867091Y87851D01*
X867121Y87910D01*
X867129Y87964D01*
X867141Y88001D01*
X867140Y88041D01*
X867148Y88095D01*
X867148Y91905D01*
X867137Y91970D01*
X867135Y92036D01*
X867117Y92079D01*
X867109Y92126D01*
X867075Y92183D01*
X867051Y92243D01*
X867019Y92278D01*
X866995Y92319D01*
X866944Y92361D01*
X866899Y92409D01*
X866857Y92431D01*
X866820Y92460D01*
X866758Y92481D01*
X866700Y92512D01*
X866645Y92520D01*
X866608Y92532D01*
X866569Y92531D01*
X866514Y92539D01*
X863974Y92539D01*
X863909Y92528D01*
X863844Y92526D01*
X863800Y92508D01*
X863753Y92500D01*
X863697Y92466D01*
X863636Y92441D01*
X863601Y92410D01*
X863560Y92385D01*
X863519Y92334D01*
X863470Y92290D01*
X863449Y92248D01*
X863419Y92211D01*
X863398Y92149D01*
X863368Y92090D01*
X863360Y92036D01*
X863347Y91999D01*
X863347Y91995D01*
X863347Y91994D01*
X863348Y91959D01*
X863340Y91905D01*
X863340Y88095D01*
X863352Y88030D01*
X863354Y87964D01*
X863371Y87921D01*
X863380Y87874D01*
X863413Y87817D01*
X863438Y87757D01*
X863470Y87722D01*
X863494Y87681D01*
X863545Y87640D01*
X863589Y87591D01*
X863631Y87569D01*
X863668Y87540D01*
X863730Y87519D01*
X863789Y87488D01*
X863843Y87480D01*
X863880Y87468D01*
X863920Y87469D01*
X863974Y87461D01*
X866514Y87461D01*
X866579Y87472D01*
G37*
G36*
X1316743Y87472D02*
X1316743Y87472D01*
X1316809Y87474D01*
X1316853Y87492D01*
X1316899Y87500D01*
X1316956Y87534D01*
X1317017Y87559D01*
X1317052Y87590D01*
X1317092Y87615D01*
X1317134Y87666D01*
X1317182Y87710D01*
X1317204Y87752D01*
X1317234Y87789D01*
X1317255Y87851D01*
X1317285Y87910D01*
X1317293Y87964D01*
X1317306Y88001D01*
X1317305Y88041D01*
X1317313Y88095D01*
X1317313Y91905D01*
X1317301Y91970D01*
X1317299Y92036D01*
X1317281Y92079D01*
X1317273Y92126D01*
X1317239Y92183D01*
X1317215Y92243D01*
X1317183Y92278D01*
X1317159Y92319D01*
X1317108Y92361D01*
X1317063Y92409D01*
X1317021Y92431D01*
X1316985Y92460D01*
X1316922Y92481D01*
X1316864Y92512D01*
X1316809Y92520D01*
X1316772Y92532D01*
X1316733Y92531D01*
X1316678Y92539D01*
X1314138Y92539D01*
X1314074Y92528D01*
X1314008Y92526D01*
X1313964Y92508D01*
X1313918Y92500D01*
X1313861Y92466D01*
X1313800Y92441D01*
X1313765Y92410D01*
X1313724Y92385D01*
X1313683Y92334D01*
X1313634Y92290D01*
X1313613Y92248D01*
X1313583Y92211D01*
X1313562Y92149D01*
X1313532Y92090D01*
X1313524Y92036D01*
X1313511Y91999D01*
X1313511Y91995D01*
X1313511Y91994D01*
X1313512Y91959D01*
X1313504Y91905D01*
X1313504Y88095D01*
X1313516Y88030D01*
X1313518Y87964D01*
X1313535Y87921D01*
X1313544Y87874D01*
X1313577Y87817D01*
X1313602Y87757D01*
X1313634Y87722D01*
X1313658Y87681D01*
X1313709Y87640D01*
X1313753Y87591D01*
X1313796Y87569D01*
X1313832Y87540D01*
X1313894Y87519D01*
X1313953Y87488D01*
X1314007Y87480D01*
X1314045Y87468D01*
X1314084Y87469D01*
X1314138Y87461D01*
X1316678Y87461D01*
X1316743Y87472D01*
G37*
G36*
X1091674Y87472D02*
X1091674Y87472D01*
X1091740Y87474D01*
X1091783Y87492D01*
X1091830Y87500D01*
X1091887Y87534D01*
X1091947Y87559D01*
X1091982Y87590D01*
X1092023Y87615D01*
X1092065Y87666D01*
X1092113Y87710D01*
X1092135Y87752D01*
X1092164Y87789D01*
X1092185Y87851D01*
X1092216Y87910D01*
X1092224Y87964D01*
X1092236Y88001D01*
X1092235Y88041D01*
X1092243Y88095D01*
X1092243Y91905D01*
X1092232Y91970D01*
X1092230Y92036D01*
X1092212Y92079D01*
X1092204Y92126D01*
X1092170Y92183D01*
X1092145Y92243D01*
X1092114Y92278D01*
X1092089Y92319D01*
X1092038Y92361D01*
X1091994Y92409D01*
X1091952Y92431D01*
X1091915Y92460D01*
X1091853Y92481D01*
X1091794Y92512D01*
X1091740Y92520D01*
X1091703Y92532D01*
X1091663Y92531D01*
X1091609Y92539D01*
X1089069Y92539D01*
X1089004Y92528D01*
X1088938Y92526D01*
X1088895Y92508D01*
X1088848Y92500D01*
X1088791Y92466D01*
X1088731Y92441D01*
X1088696Y92410D01*
X1088655Y92385D01*
X1088614Y92334D01*
X1088565Y92290D01*
X1088543Y92248D01*
X1088514Y92211D01*
X1088493Y92149D01*
X1088462Y92090D01*
X1088454Y92036D01*
X1088442Y91999D01*
X1088442Y91995D01*
X1088442Y91994D01*
X1088443Y91959D01*
X1088435Y91905D01*
X1088435Y88095D01*
X1088446Y88030D01*
X1088448Y87964D01*
X1088466Y87921D01*
X1088474Y87874D01*
X1088508Y87817D01*
X1088533Y87757D01*
X1088564Y87722D01*
X1088589Y87681D01*
X1088640Y87640D01*
X1088684Y87591D01*
X1088726Y87569D01*
X1088763Y87540D01*
X1088825Y87519D01*
X1088884Y87488D01*
X1088938Y87480D01*
X1088975Y87468D01*
X1089015Y87469D01*
X1089069Y87461D01*
X1091609Y87461D01*
X1091674Y87472D01*
G37*
G36*
X416415Y87472D02*
X416415Y87472D01*
X416481Y87474D01*
X416524Y87492D01*
X416571Y87500D01*
X416628Y87534D01*
X416688Y87559D01*
X416723Y87590D01*
X416764Y87615D01*
X416806Y87666D01*
X416854Y87710D01*
X416876Y87752D01*
X416905Y87789D01*
X416926Y87851D01*
X416957Y87910D01*
X416965Y87964D01*
X416977Y88001D01*
X416976Y88041D01*
X416984Y88095D01*
X416984Y91905D01*
X416973Y91970D01*
X416971Y92036D01*
X416953Y92079D01*
X416945Y92126D01*
X416911Y92183D01*
X416886Y92243D01*
X416855Y92278D01*
X416830Y92319D01*
X416779Y92361D01*
X416735Y92409D01*
X416693Y92431D01*
X416656Y92460D01*
X416594Y92481D01*
X416535Y92512D01*
X416481Y92520D01*
X416444Y92532D01*
X416404Y92531D01*
X416350Y92539D01*
X413810Y92539D01*
X413745Y92528D01*
X413679Y92526D01*
X413636Y92508D01*
X413589Y92500D01*
X413532Y92466D01*
X413472Y92441D01*
X413437Y92410D01*
X413396Y92385D01*
X413355Y92334D01*
X413306Y92290D01*
X413284Y92248D01*
X413255Y92211D01*
X413234Y92149D01*
X413203Y92090D01*
X413195Y92036D01*
X413183Y91999D01*
X413183Y91995D01*
X413183Y91994D01*
X413184Y91959D01*
X413176Y91905D01*
X413176Y88095D01*
X413187Y88030D01*
X413189Y87964D01*
X413207Y87921D01*
X413215Y87874D01*
X413249Y87817D01*
X413274Y87757D01*
X413305Y87722D01*
X413330Y87681D01*
X413381Y87640D01*
X413425Y87591D01*
X413467Y87569D01*
X413504Y87540D01*
X413566Y87519D01*
X413625Y87488D01*
X413679Y87480D01*
X413716Y87468D01*
X413756Y87469D01*
X413810Y87461D01*
X416350Y87461D01*
X416415Y87472D01*
G37*
G36*
X1541838Y87472D02*
X1541838Y87472D01*
X1541904Y87474D01*
X1541947Y87492D01*
X1541994Y87500D01*
X1542051Y87534D01*
X1542112Y87559D01*
X1542147Y87590D01*
X1542187Y87615D01*
X1542229Y87666D01*
X1542277Y87710D01*
X1542299Y87752D01*
X1542329Y87789D01*
X1542350Y87851D01*
X1542380Y87910D01*
X1542388Y87964D01*
X1542400Y88001D01*
X1542399Y88041D01*
X1542407Y88095D01*
X1542407Y91905D01*
X1542396Y91970D01*
X1542394Y92036D01*
X1542376Y92079D01*
X1542368Y92126D01*
X1542334Y92183D01*
X1542310Y92243D01*
X1542278Y92278D01*
X1542254Y92319D01*
X1542203Y92361D01*
X1542158Y92409D01*
X1542116Y92431D01*
X1542079Y92460D01*
X1542017Y92481D01*
X1541959Y92512D01*
X1541904Y92520D01*
X1541867Y92532D01*
X1541828Y92531D01*
X1541773Y92539D01*
X1539233Y92539D01*
X1539168Y92528D01*
X1539103Y92526D01*
X1539059Y92508D01*
X1539012Y92500D01*
X1538956Y92466D01*
X1538895Y92441D01*
X1538860Y92410D01*
X1538819Y92385D01*
X1538778Y92334D01*
X1538729Y92290D01*
X1538708Y92248D01*
X1538678Y92211D01*
X1538657Y92149D01*
X1538627Y92090D01*
X1538619Y92036D01*
X1538606Y91999D01*
X1538606Y91995D01*
X1538606Y91994D01*
X1538607Y91959D01*
X1538599Y91905D01*
X1538599Y88095D01*
X1538611Y88030D01*
X1538613Y87964D01*
X1538630Y87921D01*
X1538639Y87874D01*
X1538672Y87817D01*
X1538697Y87757D01*
X1538729Y87722D01*
X1538753Y87681D01*
X1538804Y87640D01*
X1538848Y87591D01*
X1538890Y87569D01*
X1538927Y87540D01*
X1538989Y87519D01*
X1539048Y87488D01*
X1539102Y87480D01*
X1539139Y87468D01*
X1539179Y87469D01*
X1539233Y87461D01*
X1541773Y87461D01*
X1541838Y87472D01*
G37*
G36*
X191345Y87472D02*
X191345Y87472D01*
X191411Y87474D01*
X191455Y87492D01*
X191501Y87500D01*
X191558Y87534D01*
X191619Y87559D01*
X191654Y87590D01*
X191695Y87615D01*
X191736Y87666D01*
X191785Y87710D01*
X191806Y87752D01*
X191836Y87789D01*
X191857Y87851D01*
X191887Y87910D01*
X191895Y87964D01*
X191908Y88001D01*
X191907Y88041D01*
X191915Y88095D01*
X191915Y91905D01*
X191903Y91970D01*
X191901Y92036D01*
X191884Y92079D01*
X191875Y92126D01*
X191842Y92183D01*
X191817Y92243D01*
X191785Y92278D01*
X191761Y92319D01*
X191710Y92361D01*
X191666Y92409D01*
X191624Y92431D01*
X191587Y92460D01*
X191525Y92481D01*
X191466Y92512D01*
X191412Y92520D01*
X191374Y92532D01*
X191335Y92531D01*
X191281Y92539D01*
X188741Y92539D01*
X188676Y92528D01*
X188610Y92526D01*
X188566Y92508D01*
X188520Y92500D01*
X188463Y92466D01*
X188402Y92441D01*
X188367Y92410D01*
X188327Y92385D01*
X188285Y92334D01*
X188237Y92290D01*
X188215Y92248D01*
X188185Y92211D01*
X188164Y92149D01*
X188134Y92090D01*
X188126Y92036D01*
X188113Y91999D01*
X188113Y91995D01*
X188113Y91994D01*
X188114Y91959D01*
X188106Y91905D01*
X188106Y88095D01*
X188118Y88030D01*
X188120Y87964D01*
X188138Y87921D01*
X188146Y87874D01*
X188180Y87817D01*
X188204Y87757D01*
X188236Y87722D01*
X188260Y87681D01*
X188311Y87640D01*
X188356Y87591D01*
X188398Y87569D01*
X188434Y87540D01*
X188497Y87519D01*
X188555Y87488D01*
X188610Y87480D01*
X188647Y87468D01*
X188686Y87469D01*
X188741Y87461D01*
X191281Y87461D01*
X191345Y87472D01*
G37*
D10*
X118011Y161000D03*
D11*
X93011Y128000D03*
X93011Y118000D03*
X80011Y128000D03*
X80011Y118000D03*
X80011Y93000D03*
X80011Y103000D03*
X130011Y143000D03*
X130011Y153000D03*
X93011Y93000D03*
X93011Y103000D03*
X113011Y72000D03*
X123011Y72000D03*
D12*
X106011Y141000D03*
X106011Y155000D03*
X67011Y141000D03*
X67011Y155000D03*
X93011Y155000D03*
X93011Y141000D03*
D11*
X87011Y60000D03*
X97011Y60000D03*
D13*
X190011Y84793D03*
X190011Y95207D03*
D11*
X106011Y93000D03*
X106011Y103000D03*
X130011Y103000D03*
X130011Y93000D03*
X118011Y103000D03*
X118011Y93000D03*
D10*
X130011Y110000D03*
D11*
X113011Y60000D03*
X123011Y60000D03*
X97011Y72000D03*
X87011Y72000D03*
X67011Y103000D03*
X67011Y93000D03*
X67011Y118000D03*
X67011Y128000D03*
X54011Y118000D03*
X54011Y128000D03*
X54011Y103000D03*
X54011Y93000D03*
X106011Y118000D03*
X106011Y128000D03*
X80011Y143000D03*
X80011Y153000D03*
X118011Y118000D03*
X118011Y128000D03*
D10*
X118111Y110000D03*
D11*
X118011Y143000D03*
X118011Y153000D03*
X130011Y128000D03*
X130011Y118000D03*
X143011Y103000D03*
X143011Y93000D03*
X143011Y128000D03*
X143011Y118000D03*
X154011Y103000D03*
X154011Y93000D03*
D10*
X118011Y135000D03*
X143011Y135000D03*
X143011Y110000D03*
D14*
X10011Y50000D03*
X210011Y210000D03*
D10*
X20011Y170000D03*
X20011Y210000D03*
X67011Y110000D03*
X80011Y135000D03*
D15*
X200011Y15250D03*
X195011Y15250D03*
X190011Y15250D03*
X185011Y15250D03*
X180011Y15250D03*
X175011Y15250D03*
X170011Y15250D03*
X165011Y15250D03*
X160011Y15250D03*
X155011Y15250D03*
X150011Y15250D03*
X125011Y15250D03*
X120011Y15250D03*
X115011Y15250D03*
X110011Y15250D03*
X105011Y15250D03*
X100011Y15250D03*
X95011Y15250D03*
X90011Y15250D03*
X85011Y15250D03*
X80011Y15250D03*
X75011Y15250D03*
X70011Y15250D03*
X65011Y15250D03*
X60011Y15250D03*
X55011Y15250D03*
X50011Y15250D03*
X45011Y15250D03*
X40011Y15250D03*
X35011Y15250D03*
X30011Y15250D03*
X25011Y15250D03*
X20011Y15250D03*
D16*
X150011Y190000D03*
D17*
X150011Y220000D03*
D10*
X100011Y103000D03*
D18*
X34911Y129700D03*
X15911Y129700D03*
X25411Y150700D03*
D19*
X30411Y90600D03*
X20411Y90600D03*
X25411Y102100D03*
D11*
X20411Y114300D03*
X30411Y114300D03*
D10*
X343080Y161000D03*
D11*
X318080Y128000D03*
X318080Y118000D03*
X305080Y128000D03*
X305080Y118000D03*
X305080Y93000D03*
X305080Y103000D03*
X355080Y143000D03*
X355080Y153000D03*
X318080Y93000D03*
X318080Y103000D03*
X338080Y72000D03*
X348080Y72000D03*
D12*
X331080Y141000D03*
X331080Y155000D03*
X292080Y141000D03*
X292080Y155000D03*
X318080Y155000D03*
X318080Y141000D03*
D11*
X312080Y60000D03*
X322080Y60000D03*
D13*
X415080Y84793D03*
X415080Y95207D03*
D11*
X331080Y93000D03*
X331080Y103000D03*
X355080Y103000D03*
X355080Y93000D03*
X343080Y103000D03*
X343080Y93000D03*
D10*
X355080Y110000D03*
D11*
X338080Y60000D03*
X348080Y60000D03*
X322080Y72000D03*
X312080Y72000D03*
X292080Y103000D03*
X292080Y93000D03*
X292080Y118000D03*
X292080Y128000D03*
X279080Y118000D03*
X279080Y128000D03*
X279080Y103000D03*
X279080Y93000D03*
X331080Y118000D03*
X331080Y128000D03*
X305080Y143000D03*
X305080Y153000D03*
X343080Y118000D03*
X343080Y128000D03*
D10*
X343180Y110000D03*
D11*
X343080Y143000D03*
X343080Y153000D03*
X355080Y128000D03*
X355080Y118000D03*
X368080Y103000D03*
X368080Y93000D03*
X368080Y128000D03*
X368080Y118000D03*
X379080Y103000D03*
X379080Y93000D03*
D10*
X343080Y135000D03*
X368080Y135000D03*
X368080Y110000D03*
D14*
X235080Y50000D03*
X435080Y210000D03*
D10*
X245080Y170000D03*
X245080Y210000D03*
X292080Y110000D03*
X305080Y135000D03*
D15*
X425080Y15250D03*
X420080Y15250D03*
X415080Y15250D03*
X410080Y15250D03*
X405080Y15250D03*
X400080Y15250D03*
X395080Y15250D03*
X390080Y15250D03*
X385080Y15250D03*
X380080Y15250D03*
X375080Y15250D03*
X350080Y15250D03*
X345080Y15250D03*
X340080Y15250D03*
X335080Y15250D03*
X330080Y15250D03*
X325080Y15250D03*
X320080Y15250D03*
X315080Y15250D03*
X310080Y15250D03*
X305080Y15250D03*
X300080Y15250D03*
X295080Y15250D03*
X290080Y15250D03*
X285080Y15250D03*
X280080Y15250D03*
X275080Y15250D03*
X270080Y15250D03*
X265080Y15250D03*
X260080Y15250D03*
X255080Y15250D03*
X250080Y15250D03*
X245080Y15250D03*
D16*
X375080Y190000D03*
D17*
X375080Y220000D03*
D10*
X325080Y103000D03*
D18*
X259980Y129700D03*
X240980Y129700D03*
X250480Y150700D03*
D19*
X255480Y90600D03*
X245480Y90600D03*
X250480Y102100D03*
D11*
X245480Y114300D03*
X255480Y114300D03*
D10*
X568175Y161000D03*
D11*
X543175Y128000D03*
X543175Y118000D03*
X530175Y128000D03*
X530175Y118000D03*
X530175Y93000D03*
X530175Y103000D03*
X580175Y143000D03*
X580175Y153000D03*
X543175Y93000D03*
X543175Y103000D03*
X563175Y72000D03*
X573175Y72000D03*
D12*
X556175Y141000D03*
X556175Y155000D03*
X517175Y141000D03*
X517175Y155000D03*
X543175Y155000D03*
X543175Y141000D03*
D11*
X537175Y60000D03*
X547175Y60000D03*
D13*
X640175Y84793D03*
X640175Y95207D03*
D11*
X556175Y93000D03*
X556175Y103000D03*
X580175Y103000D03*
X580175Y93000D03*
X568175Y103000D03*
X568175Y93000D03*
D10*
X580175Y110000D03*
D11*
X563175Y60000D03*
X573175Y60000D03*
X547175Y72000D03*
X537175Y72000D03*
X517175Y103000D03*
X517175Y93000D03*
X517175Y118000D03*
X517175Y128000D03*
X504175Y118000D03*
X504175Y128000D03*
X504175Y103000D03*
X504175Y93000D03*
X556175Y118000D03*
X556175Y128000D03*
X530175Y143000D03*
X530175Y153000D03*
X568175Y118000D03*
X568175Y128000D03*
D10*
X568275Y110000D03*
D11*
X568175Y143000D03*
X568175Y153000D03*
X580175Y128000D03*
X580175Y118000D03*
X593175Y103000D03*
X593175Y93000D03*
X593175Y128000D03*
X593175Y118000D03*
X604175Y103000D03*
X604175Y93000D03*
D10*
X568175Y135000D03*
X593175Y135000D03*
X593175Y110000D03*
D14*
X460175Y50000D03*
X660175Y210000D03*
D10*
X470175Y170000D03*
X470175Y210000D03*
X517175Y110000D03*
X530175Y135000D03*
D15*
X650175Y15250D03*
X645175Y15250D03*
X640175Y15250D03*
X635175Y15250D03*
X630175Y15250D03*
X625175Y15250D03*
X620175Y15250D03*
X615175Y15250D03*
X610175Y15250D03*
X605175Y15250D03*
X600175Y15250D03*
X575175Y15250D03*
X570175Y15250D03*
X565175Y15250D03*
X560175Y15250D03*
X555175Y15250D03*
X550175Y15250D03*
X545175Y15250D03*
X540175Y15250D03*
X535175Y15250D03*
X530175Y15250D03*
X525175Y15250D03*
X520175Y15250D03*
X515175Y15250D03*
X510175Y15250D03*
X505175Y15250D03*
X500175Y15250D03*
X495175Y15250D03*
X490175Y15250D03*
X485175Y15250D03*
X480175Y15250D03*
X475175Y15250D03*
X470175Y15250D03*
D16*
X600175Y190000D03*
D17*
X600175Y220000D03*
D10*
X550175Y103000D03*
D18*
X485075Y129700D03*
X466075Y129700D03*
X475575Y150700D03*
D19*
X480575Y90600D03*
X470575Y90600D03*
X475575Y102100D03*
D11*
X470575Y114300D03*
X480575Y114300D03*
D10*
X793244Y161000D03*
D11*
X768244Y128000D03*
X768244Y118000D03*
X755244Y128000D03*
X755244Y118000D03*
X755244Y93000D03*
X755244Y103000D03*
X805244Y143000D03*
X805244Y153000D03*
X768244Y93000D03*
X768244Y103000D03*
X788244Y72000D03*
X798244Y72000D03*
D12*
X781244Y141000D03*
X781244Y155000D03*
X742244Y141000D03*
X742244Y155000D03*
X768244Y155000D03*
X768244Y141000D03*
D11*
X762244Y60000D03*
X772244Y60000D03*
D13*
X865244Y84793D03*
X865244Y95207D03*
D11*
X781244Y93000D03*
X781244Y103000D03*
X805244Y103000D03*
X805244Y93000D03*
X793244Y103000D03*
X793244Y93000D03*
D10*
X805244Y110000D03*
D11*
X788244Y60000D03*
X798244Y60000D03*
X772244Y72000D03*
X762244Y72000D03*
X742244Y103000D03*
X742244Y93000D03*
X742244Y118000D03*
X742244Y128000D03*
X729244Y118000D03*
X729244Y128000D03*
X729244Y103000D03*
X729244Y93000D03*
X781244Y118000D03*
X781244Y128000D03*
X755244Y143000D03*
X755244Y153000D03*
X793244Y118000D03*
X793244Y128000D03*
D10*
X793344Y110000D03*
D11*
X793244Y143000D03*
X793244Y153000D03*
X805244Y128000D03*
X805244Y118000D03*
X818244Y103000D03*
X818244Y93000D03*
X818244Y128000D03*
X818244Y118000D03*
X829244Y103000D03*
X829244Y93000D03*
D10*
X793244Y135000D03*
X818244Y135000D03*
X818244Y110000D03*
D14*
X685244Y50000D03*
X885244Y210000D03*
D10*
X695244Y170000D03*
X695244Y210000D03*
X742244Y110000D03*
X755244Y135000D03*
D15*
X875244Y15250D03*
X870244Y15250D03*
X865244Y15250D03*
X860244Y15250D03*
X855244Y15250D03*
X850244Y15250D03*
X845244Y15250D03*
X840244Y15250D03*
X835244Y15250D03*
X830244Y15250D03*
X825244Y15250D03*
X800244Y15250D03*
X795244Y15250D03*
X790244Y15250D03*
X785244Y15250D03*
X780244Y15250D03*
X775244Y15250D03*
X770244Y15250D03*
X765244Y15250D03*
X760244Y15250D03*
X755244Y15250D03*
X750244Y15250D03*
X745244Y15250D03*
X740244Y15250D03*
X735244Y15250D03*
X730244Y15250D03*
X725244Y15250D03*
X720244Y15250D03*
X715244Y15250D03*
X710244Y15250D03*
X705244Y15250D03*
X700244Y15250D03*
X695244Y15250D03*
D16*
X825244Y190000D03*
D17*
X825244Y220000D03*
D10*
X775244Y103000D03*
D18*
X710144Y129700D03*
X691144Y129700D03*
X700644Y150700D03*
D19*
X705644Y90600D03*
X695644Y90600D03*
X700644Y102100D03*
D11*
X695644Y114300D03*
X705644Y114300D03*
D10*
X1018339Y161000D03*
D11*
X993339Y128000D03*
X993339Y118000D03*
X980339Y128000D03*
X980339Y118000D03*
X980339Y93000D03*
X980339Y103000D03*
X1030339Y143000D03*
X1030339Y153000D03*
X993339Y93000D03*
X993339Y103000D03*
X1013339Y72000D03*
X1023339Y72000D03*
D12*
X1006339Y141000D03*
X1006339Y155000D03*
X967339Y141000D03*
X967339Y155000D03*
X993339Y155000D03*
X993339Y141000D03*
D11*
X987339Y60000D03*
X997339Y60000D03*
D13*
X1090339Y84793D03*
X1090339Y95207D03*
D11*
X1006339Y93000D03*
X1006339Y103000D03*
X1030339Y103000D03*
X1030339Y93000D03*
X1018339Y103000D03*
X1018339Y93000D03*
D10*
X1030339Y110000D03*
D11*
X1013339Y60000D03*
X1023339Y60000D03*
X997339Y72000D03*
X987339Y72000D03*
X967339Y103000D03*
X967339Y93000D03*
X967339Y118000D03*
X967339Y128000D03*
X954339Y118000D03*
X954339Y128000D03*
X954339Y103000D03*
X954339Y93000D03*
X1006339Y118000D03*
X1006339Y128000D03*
X980339Y143000D03*
X980339Y153000D03*
X1018339Y118000D03*
X1018339Y128000D03*
D10*
X1018439Y110000D03*
D11*
X1018339Y143000D03*
X1018339Y153000D03*
X1030339Y128000D03*
X1030339Y118000D03*
X1043339Y103000D03*
X1043339Y93000D03*
X1043339Y128000D03*
X1043339Y118000D03*
X1054339Y103000D03*
X1054339Y93000D03*
D10*
X1018339Y135000D03*
X1043339Y135000D03*
X1043339Y110000D03*
D14*
X910339Y50000D03*
X1110339Y210000D03*
D10*
X920339Y170000D03*
X920339Y210000D03*
X967339Y110000D03*
X980339Y135000D03*
D15*
X1100339Y15250D03*
X1095339Y15250D03*
X1090339Y15250D03*
X1085339Y15250D03*
X1080339Y15250D03*
X1075339Y15250D03*
X1070339Y15250D03*
X1065339Y15250D03*
X1060339Y15250D03*
X1055339Y15250D03*
X1050339Y15250D03*
X1025339Y15250D03*
X1020339Y15250D03*
X1015339Y15250D03*
X1010339Y15250D03*
X1005339Y15250D03*
X1000339Y15250D03*
X995339Y15250D03*
X990339Y15250D03*
X985339Y15250D03*
X980339Y15250D03*
X975339Y15250D03*
X970339Y15250D03*
X965339Y15250D03*
X960339Y15250D03*
X955339Y15250D03*
X950339Y15250D03*
X945339Y15250D03*
X940339Y15250D03*
X935339Y15250D03*
X930339Y15250D03*
X925339Y15250D03*
X920339Y15250D03*
D16*
X1050339Y190000D03*
D17*
X1050339Y220000D03*
D10*
X1000339Y103000D03*
D18*
X935239Y129700D03*
X916239Y129700D03*
X925739Y150700D03*
D19*
X930739Y90600D03*
X920739Y90600D03*
X925739Y102100D03*
D11*
X920739Y114300D03*
X930739Y114300D03*
D10*
X1243408Y161000D03*
D11*
X1218408Y128000D03*
X1218408Y118000D03*
X1205408Y128000D03*
X1205408Y118000D03*
X1205408Y93000D03*
X1205408Y103000D03*
X1255408Y143000D03*
X1255408Y153000D03*
X1218408Y93000D03*
X1218408Y103000D03*
X1238408Y72000D03*
X1248408Y72000D03*
D12*
X1231408Y141000D03*
X1231408Y155000D03*
X1192408Y141000D03*
X1192408Y155000D03*
X1218408Y155000D03*
X1218408Y141000D03*
D11*
X1212408Y60000D03*
X1222408Y60000D03*
D13*
X1315408Y84793D03*
X1315408Y95207D03*
D11*
X1231408Y93000D03*
X1231408Y103000D03*
X1255408Y103000D03*
X1255408Y93000D03*
X1243408Y103000D03*
X1243408Y93000D03*
D10*
X1255408Y110000D03*
D11*
X1238408Y60000D03*
X1248408Y60000D03*
X1222408Y72000D03*
X1212408Y72000D03*
X1192408Y103000D03*
X1192408Y93000D03*
X1192408Y118000D03*
X1192408Y128000D03*
X1179408Y118000D03*
X1179408Y128000D03*
X1179408Y103000D03*
X1179408Y93000D03*
X1231408Y118000D03*
X1231408Y128000D03*
X1205408Y143000D03*
X1205408Y153000D03*
X1243408Y118000D03*
X1243408Y128000D03*
D10*
X1243508Y110000D03*
D11*
X1243408Y143000D03*
X1243408Y153000D03*
X1255408Y128000D03*
X1255408Y118000D03*
X1268408Y103000D03*
X1268408Y93000D03*
X1268408Y128000D03*
X1268408Y118000D03*
X1279408Y103000D03*
X1279408Y93000D03*
D10*
X1243408Y135000D03*
X1268408Y135000D03*
X1268408Y110000D03*
D14*
X1135408Y50000D03*
X1335408Y210000D03*
D10*
X1145408Y170000D03*
X1145408Y210000D03*
X1192408Y110000D03*
X1205408Y135000D03*
D15*
X1325408Y15250D03*
X1320408Y15250D03*
X1315408Y15250D03*
X1310408Y15250D03*
X1305408Y15250D03*
X1300408Y15250D03*
X1295408Y15250D03*
X1290408Y15250D03*
X1285408Y15250D03*
X1280408Y15250D03*
X1275408Y15250D03*
X1250408Y15250D03*
X1245408Y15250D03*
X1240408Y15250D03*
X1235408Y15250D03*
X1230408Y15250D03*
X1225408Y15250D03*
X1220408Y15250D03*
X1215408Y15250D03*
X1210408Y15250D03*
X1205408Y15250D03*
X1200408Y15250D03*
X1195408Y15250D03*
X1190408Y15250D03*
X1185408Y15250D03*
X1180408Y15250D03*
X1175408Y15250D03*
X1170408Y15250D03*
X1165408Y15250D03*
X1160408Y15250D03*
X1155408Y15250D03*
X1150408Y15250D03*
X1145408Y15250D03*
D16*
X1275408Y190000D03*
D17*
X1275408Y220000D03*
D10*
X1225408Y103000D03*
D18*
X1160308Y129700D03*
X1141308Y129700D03*
X1150808Y150700D03*
D19*
X1155808Y90600D03*
X1145808Y90600D03*
X1150808Y102100D03*
D11*
X1145808Y114300D03*
X1155808Y114300D03*
D10*
X1468503Y161000D03*
D11*
X1443503Y128000D03*
X1443503Y118000D03*
X1430503Y128000D03*
X1430503Y118000D03*
X1430503Y93000D03*
X1430503Y103000D03*
X1480503Y143000D03*
X1480503Y153000D03*
X1443503Y93000D03*
X1443503Y103000D03*
X1463503Y72000D03*
X1473503Y72000D03*
D12*
X1456503Y141000D03*
X1456503Y155000D03*
X1417503Y141000D03*
X1417503Y155000D03*
X1443503Y155000D03*
X1443503Y141000D03*
D11*
X1437503Y60000D03*
X1447503Y60000D03*
D13*
X1540503Y84793D03*
X1540503Y95207D03*
D11*
X1456503Y93000D03*
X1456503Y103000D03*
X1480503Y103000D03*
X1480503Y93000D03*
X1468503Y103000D03*
X1468503Y93000D03*
D10*
X1480503Y110000D03*
D11*
X1463503Y60000D03*
X1473503Y60000D03*
X1447503Y72000D03*
X1437503Y72000D03*
X1417503Y103000D03*
X1417503Y93000D03*
X1417503Y118000D03*
X1417503Y128000D03*
X1404503Y118000D03*
X1404503Y128000D03*
X1404503Y103000D03*
X1404503Y93000D03*
X1456503Y118000D03*
X1456503Y128000D03*
X1430503Y143000D03*
X1430503Y153000D03*
X1468503Y118000D03*
X1468503Y128000D03*
D10*
X1468603Y110000D03*
D11*
X1468503Y143000D03*
X1468503Y153000D03*
X1480503Y128000D03*
X1480503Y118000D03*
X1493503Y103000D03*
X1493503Y93000D03*
X1493503Y128000D03*
X1493503Y118000D03*
X1504503Y103000D03*
X1504503Y93000D03*
D10*
X1468503Y135000D03*
X1493503Y135000D03*
X1493503Y110000D03*
D14*
X1360503Y50000D03*
X1560503Y210000D03*
D10*
X1370503Y170000D03*
X1370503Y210000D03*
X1417503Y110000D03*
X1430503Y135000D03*
D15*
X1550503Y15250D03*
X1545503Y15250D03*
X1540503Y15250D03*
X1535503Y15250D03*
X1530503Y15250D03*
X1525503Y15250D03*
X1520503Y15250D03*
X1515503Y15250D03*
X1510503Y15250D03*
X1505503Y15250D03*
X1500503Y15250D03*
X1475503Y15250D03*
X1470503Y15250D03*
X1465503Y15250D03*
X1460503Y15250D03*
X1455503Y15250D03*
X1450503Y15250D03*
X1445503Y15250D03*
X1440503Y15250D03*
X1435503Y15250D03*
X1430503Y15250D03*
X1425503Y15250D03*
X1420503Y15250D03*
X1415503Y15250D03*
X1410503Y15250D03*
X1405503Y15250D03*
X1400503Y15250D03*
X1395503Y15250D03*
X1390503Y15250D03*
X1385503Y15250D03*
X1380503Y15250D03*
X1375503Y15250D03*
X1370503Y15250D03*
D16*
X1500503Y190000D03*
D17*
X1500503Y220000D03*
D10*
X1450503Y103000D03*
D18*
X1385403Y129700D03*
X1366403Y129700D03*
X1375903Y150700D03*
D19*
X1380903Y90600D03*
X1370903Y90600D03*
X1375903Y102100D03*
D11*
X1370903Y114300D03*
X1380903Y114300D03*
D10*
X1693573Y161000D03*
D11*
X1668573Y128000D03*
X1668573Y118000D03*
X1655573Y128000D03*
X1655573Y118000D03*
X1655573Y93000D03*
X1655573Y103000D03*
X1705573Y143000D03*
X1705573Y153000D03*
X1668573Y93000D03*
X1668573Y103000D03*
X1688573Y72000D03*
X1698573Y72000D03*
D12*
X1681573Y141000D03*
X1681573Y155000D03*
X1642573Y141000D03*
X1642573Y155000D03*
X1668573Y155000D03*
X1668573Y141000D03*
D11*
X1662573Y60000D03*
X1672573Y60000D03*
D13*
X1765573Y84793D03*
X1765573Y95207D03*
D11*
X1681573Y93000D03*
X1681573Y103000D03*
X1705573Y103000D03*
X1705573Y93000D03*
X1693573Y103000D03*
X1693573Y93000D03*
D10*
X1705573Y110000D03*
D11*
X1688573Y60000D03*
X1698573Y60000D03*
X1672573Y72000D03*
X1662573Y72000D03*
X1642573Y103000D03*
X1642573Y93000D03*
X1642573Y118000D03*
X1642573Y128000D03*
X1629573Y118000D03*
X1629573Y128000D03*
X1629573Y103000D03*
X1629573Y93000D03*
X1681573Y118000D03*
X1681573Y128000D03*
X1655573Y143000D03*
X1655573Y153000D03*
X1693573Y118000D03*
X1693573Y128000D03*
D10*
X1693673Y110000D03*
D11*
X1693573Y143000D03*
X1693573Y153000D03*
X1705573Y128000D03*
X1705573Y118000D03*
X1718573Y103000D03*
X1718573Y93000D03*
X1718573Y128000D03*
X1718573Y118000D03*
X1729573Y103000D03*
X1729573Y93000D03*
D10*
X1693573Y135000D03*
X1718573Y135000D03*
X1718573Y110000D03*
D14*
X1585573Y50000D03*
X1785573Y210000D03*
D10*
X1595573Y170000D03*
X1595573Y210000D03*
X1642573Y110000D03*
X1655573Y135000D03*
D15*
X1775573Y15250D03*
X1770573Y15250D03*
X1765573Y15250D03*
X1760573Y15250D03*
X1755573Y15250D03*
X1750573Y15250D03*
X1745573Y15250D03*
X1740573Y15250D03*
X1735573Y15250D03*
X1730573Y15250D03*
X1725573Y15250D03*
X1700573Y15250D03*
X1695573Y15250D03*
X1690573Y15250D03*
X1685573Y15250D03*
X1680573Y15250D03*
X1675573Y15250D03*
X1670573Y15250D03*
X1665573Y15250D03*
X1660573Y15250D03*
X1655573Y15250D03*
X1650573Y15250D03*
X1645573Y15250D03*
X1640573Y15250D03*
X1635573Y15250D03*
X1630573Y15250D03*
X1625573Y15250D03*
X1620573Y15250D03*
X1615573Y15250D03*
X1610573Y15250D03*
X1605573Y15250D03*
X1600573Y15250D03*
X1595573Y15250D03*
D16*
X1725573Y190000D03*
D17*
X1725573Y220000D03*
D10*
X1675573Y103000D03*
D18*
X1610473Y129700D03*
X1591473Y129700D03*
X1600973Y150700D03*
D19*
X1605973Y90600D03*
X1595973Y90600D03*
X1600973Y102100D03*
D11*
X1595973Y114300D03*
X1605973Y114300D03*
D10*
X101979Y537500D03*
D11*
X126979Y570500D03*
X126979Y580500D03*
X139979Y570500D03*
X139979Y580500D03*
X139979Y605500D03*
X139979Y595500D03*
X89979Y555500D03*
X89979Y545500D03*
X126979Y605500D03*
X126979Y595500D03*
X106979Y626500D03*
X96979Y626500D03*
D12*
X113979Y557500D03*
X113979Y543500D03*
X152979Y557500D03*
X152979Y543500D03*
X126979Y543500D03*
X126979Y557500D03*
D11*
X132979Y638500D03*
X122979Y638500D03*
D13*
X29979Y613707D03*
X29979Y603293D03*
D11*
X113979Y605500D03*
X113979Y595500D03*
X89979Y595500D03*
X89979Y605500D03*
X101979Y595500D03*
X101979Y605500D03*
D10*
X89979Y588500D03*
D11*
X106979Y638500D03*
X96979Y638500D03*
X122979Y626500D03*
X132979Y626500D03*
X152979Y595500D03*
X152979Y605500D03*
X152979Y580500D03*
X152979Y570500D03*
X165979Y580500D03*
X165979Y570500D03*
X165979Y595500D03*
X165979Y605500D03*
X113979Y580500D03*
X113979Y570500D03*
X139979Y555500D03*
X139979Y545500D03*
X101979Y580500D03*
X101979Y570500D03*
D10*
X101879Y588500D03*
D11*
X101979Y555500D03*
X101979Y545500D03*
X89979Y570500D03*
X89979Y580500D03*
X76979Y595500D03*
X76979Y605500D03*
X76979Y570500D03*
X76979Y580500D03*
X65979Y595500D03*
X65979Y605500D03*
D10*
X101979Y563500D03*
X76979Y563500D03*
X76979Y588500D03*
D14*
X209979Y648500D03*
X9979Y488500D03*
D10*
X199979Y528500D03*
X199979Y488500D03*
X152979Y588500D03*
X139979Y563500D03*
D15*
X19979Y683250D03*
X24979Y683250D03*
X29979Y683250D03*
X34979Y683250D03*
X39979Y683250D03*
X44979Y683250D03*
X49979Y683250D03*
X54979Y683250D03*
X59979Y683250D03*
X64979Y683250D03*
X69979Y683250D03*
X94979Y683250D03*
X99979Y683250D03*
X104979Y683250D03*
X109979Y683250D03*
X114979Y683250D03*
X119979Y683250D03*
X124979Y683250D03*
X129979Y683250D03*
X134979Y683250D03*
X139979Y683250D03*
X144979Y683250D03*
X149979Y683250D03*
X154979Y683250D03*
X159979Y683250D03*
X164979Y683250D03*
X169979Y683250D03*
X174979Y683250D03*
X179979Y683250D03*
X184979Y683250D03*
X189979Y683250D03*
X194979Y683250D03*
X199979Y683250D03*
D16*
X69979Y508500D03*
D17*
X69979Y478500D03*
D10*
X119979Y595500D03*
D18*
X185079Y568800D03*
X204079Y568800D03*
X194579Y547800D03*
D19*
X189579Y607900D03*
X199579Y607900D03*
X194579Y596400D03*
D11*
X199579Y584200D03*
X189579Y584200D03*
D10*
X327074Y537500D03*
D11*
X352074Y570500D03*
X352074Y580500D03*
X365074Y570500D03*
X365074Y580500D03*
X365074Y605500D03*
X365074Y595500D03*
X315074Y555500D03*
X315074Y545500D03*
X352074Y605500D03*
X352074Y595500D03*
X332074Y626500D03*
X322074Y626500D03*
D12*
X339074Y557500D03*
X339074Y543500D03*
X378074Y557500D03*
X378074Y543500D03*
X352074Y543500D03*
X352074Y557500D03*
D11*
X358074Y638500D03*
X348074Y638500D03*
D13*
X255074Y613707D03*
X255074Y603293D03*
D11*
X339074Y605500D03*
X339074Y595500D03*
X315074Y595500D03*
X315074Y605500D03*
X327074Y595500D03*
X327074Y605500D03*
D10*
X315074Y588500D03*
D11*
X332074Y638500D03*
X322074Y638500D03*
X348074Y626500D03*
X358074Y626500D03*
X378074Y595500D03*
X378074Y605500D03*
X378074Y580500D03*
X378074Y570500D03*
X391074Y580500D03*
X391074Y570500D03*
X391074Y595500D03*
X391074Y605500D03*
X339074Y580500D03*
X339074Y570500D03*
X365074Y555500D03*
X365074Y545500D03*
X327074Y580500D03*
X327074Y570500D03*
D10*
X326974Y588500D03*
D11*
X327074Y555500D03*
X327074Y545500D03*
X315074Y570500D03*
X315074Y580500D03*
X302074Y595500D03*
X302074Y605500D03*
X302074Y570500D03*
X302074Y580500D03*
X291074Y595500D03*
X291074Y605500D03*
D10*
X327074Y563500D03*
X302074Y563500D03*
X302074Y588500D03*
D14*
X435074Y648500D03*
X235074Y488500D03*
D10*
X425074Y528500D03*
X425074Y488500D03*
X378074Y588500D03*
X365074Y563500D03*
D15*
X245074Y683250D03*
X250074Y683250D03*
X255074Y683250D03*
X260074Y683250D03*
X265074Y683250D03*
X270074Y683250D03*
X275074Y683250D03*
X280074Y683250D03*
X285074Y683250D03*
X290074Y683250D03*
X295074Y683250D03*
X320074Y683250D03*
X325074Y683250D03*
X330074Y683250D03*
X335074Y683250D03*
X340074Y683250D03*
X345074Y683250D03*
X350074Y683250D03*
X355074Y683250D03*
X360074Y683250D03*
X365074Y683250D03*
X370074Y683250D03*
X375074Y683250D03*
X380074Y683250D03*
X385074Y683250D03*
X390074Y683250D03*
X395074Y683250D03*
X400074Y683250D03*
X405074Y683250D03*
X410074Y683250D03*
X415074Y683250D03*
X420074Y683250D03*
X425074Y683250D03*
D16*
X295074Y508500D03*
D17*
X295074Y478500D03*
D10*
X345074Y595500D03*
D18*
X410174Y568800D03*
X429174Y568800D03*
X419674Y547800D03*
D19*
X414674Y607900D03*
X424674Y607900D03*
X419674Y596400D03*
D11*
X424674Y584200D03*
X414674Y584200D03*
D10*
X552143Y537500D03*
D11*
X577143Y570500D03*
X577143Y580500D03*
X590143Y570500D03*
X590143Y580500D03*
X590143Y605500D03*
X590143Y595500D03*
X540143Y555500D03*
X540143Y545500D03*
X577143Y605500D03*
X577143Y595500D03*
X557143Y626500D03*
X547143Y626500D03*
D12*
X564143Y557500D03*
X564143Y543500D03*
X603143Y557500D03*
X603143Y543500D03*
X577143Y543500D03*
X577143Y557500D03*
D11*
X583143Y638500D03*
X573143Y638500D03*
D13*
X480143Y613707D03*
X480143Y603293D03*
D11*
X564143Y605500D03*
X564143Y595500D03*
X540143Y595500D03*
X540143Y605500D03*
X552143Y595500D03*
X552143Y605500D03*
D10*
X540143Y588500D03*
D11*
X557143Y638500D03*
X547143Y638500D03*
X573143Y626500D03*
X583143Y626500D03*
X603143Y595500D03*
X603143Y605500D03*
X603143Y580500D03*
X603143Y570500D03*
X616143Y580500D03*
X616143Y570500D03*
X616143Y595500D03*
X616143Y605500D03*
X564143Y580500D03*
X564143Y570500D03*
X590143Y555500D03*
X590143Y545500D03*
X552143Y580500D03*
X552143Y570500D03*
D10*
X552043Y588500D03*
D11*
X552143Y555500D03*
X552143Y545500D03*
X540143Y570500D03*
X540143Y580500D03*
X527143Y595500D03*
X527143Y605500D03*
X527143Y570500D03*
X527143Y580500D03*
X516143Y595500D03*
X516143Y605500D03*
D10*
X552143Y563500D03*
X527143Y563500D03*
X527143Y588500D03*
D14*
X660143Y648500D03*
X460143Y488500D03*
D10*
X650143Y528500D03*
X650143Y488500D03*
X603143Y588500D03*
X590143Y563500D03*
D15*
X470143Y683250D03*
X475143Y683250D03*
X480143Y683250D03*
X485143Y683250D03*
X490143Y683250D03*
X495143Y683250D03*
X500143Y683250D03*
X505143Y683250D03*
X510143Y683250D03*
X515143Y683250D03*
X520143Y683250D03*
X545143Y683250D03*
X550143Y683250D03*
X555143Y683250D03*
X560143Y683250D03*
X565143Y683250D03*
X570143Y683250D03*
X575143Y683250D03*
X580143Y683250D03*
X585143Y683250D03*
X590143Y683250D03*
X595143Y683250D03*
X600143Y683250D03*
X605143Y683250D03*
X610143Y683250D03*
X615143Y683250D03*
X620143Y683250D03*
X625143Y683250D03*
X630143Y683250D03*
X635143Y683250D03*
X640143Y683250D03*
X645143Y683250D03*
X650143Y683250D03*
D16*
X520143Y508500D03*
D17*
X520143Y478500D03*
D10*
X570143Y595500D03*
D18*
X635243Y568800D03*
X654243Y568800D03*
X644743Y547800D03*
D19*
X639743Y607900D03*
X649743Y607900D03*
X644743Y596400D03*
D11*
X649743Y584200D03*
X639743Y584200D03*
D10*
X777238Y537500D03*
D11*
X802238Y570500D03*
X802238Y580500D03*
X815238Y570500D03*
X815238Y580500D03*
X815238Y605500D03*
X815238Y595500D03*
X765238Y555500D03*
X765238Y545500D03*
X802238Y605500D03*
X802238Y595500D03*
X782238Y626500D03*
X772238Y626500D03*
D12*
X789238Y557500D03*
X789238Y543500D03*
X828238Y557500D03*
X828238Y543500D03*
X802238Y543500D03*
X802238Y557500D03*
D11*
X808238Y638500D03*
X798238Y638500D03*
D13*
X705238Y613707D03*
X705238Y603293D03*
D11*
X789238Y605500D03*
X789238Y595500D03*
X765238Y595500D03*
X765238Y605500D03*
X777238Y595500D03*
X777238Y605500D03*
D10*
X765238Y588500D03*
D11*
X782238Y638500D03*
X772238Y638500D03*
X798238Y626500D03*
X808238Y626500D03*
X828238Y595500D03*
X828238Y605500D03*
X828238Y580500D03*
X828238Y570500D03*
X841238Y580500D03*
X841238Y570500D03*
X841238Y595500D03*
X841238Y605500D03*
X789238Y580500D03*
X789238Y570500D03*
X815238Y555500D03*
X815238Y545500D03*
X777238Y580500D03*
X777238Y570500D03*
D10*
X777138Y588500D03*
D11*
X777238Y555500D03*
X777238Y545500D03*
X765238Y570500D03*
X765238Y580500D03*
X752238Y595500D03*
X752238Y605500D03*
X752238Y570500D03*
X752238Y580500D03*
X741238Y595500D03*
X741238Y605500D03*
D10*
X777238Y563500D03*
X752238Y563500D03*
X752238Y588500D03*
D14*
X885238Y648500D03*
X685238Y488500D03*
D10*
X875238Y528500D03*
X875238Y488500D03*
X828238Y588500D03*
X815238Y563500D03*
D15*
X695238Y683250D03*
X700238Y683250D03*
X705238Y683250D03*
X710238Y683250D03*
X715238Y683250D03*
X720238Y683250D03*
X725238Y683250D03*
X730238Y683250D03*
X735238Y683250D03*
X740238Y683250D03*
X745238Y683250D03*
X770238Y683250D03*
X775238Y683250D03*
X780238Y683250D03*
X785238Y683250D03*
X790238Y683250D03*
X795238Y683250D03*
X800238Y683250D03*
X805238Y683250D03*
X810238Y683250D03*
X815238Y683250D03*
X820238Y683250D03*
X825238Y683250D03*
X830238Y683250D03*
X835238Y683250D03*
X840238Y683250D03*
X845238Y683250D03*
X850238Y683250D03*
X855238Y683250D03*
X860238Y683250D03*
X865238Y683250D03*
X870238Y683250D03*
X875238Y683250D03*
D16*
X745238Y508500D03*
D17*
X745238Y478500D03*
D10*
X795238Y595500D03*
D18*
X860338Y568800D03*
X879338Y568800D03*
X869838Y547800D03*
D19*
X864838Y607900D03*
X874838Y607900D03*
X869838Y596400D03*
D11*
X874838Y584200D03*
X864838Y584200D03*
D10*
X1002307Y537500D03*
D11*
X1027307Y570500D03*
X1027307Y580500D03*
X1040307Y570500D03*
X1040307Y580500D03*
X1040307Y605500D03*
X1040307Y595500D03*
X990307Y555500D03*
X990307Y545500D03*
X1027307Y605500D03*
X1027307Y595500D03*
X1007307Y626500D03*
X997307Y626500D03*
D12*
X1014307Y557500D03*
X1014307Y543500D03*
X1053307Y557500D03*
X1053307Y543500D03*
X1027307Y543500D03*
X1027307Y557500D03*
D11*
X1033307Y638500D03*
X1023307Y638500D03*
D13*
X930307Y613707D03*
X930307Y603293D03*
D11*
X1014307Y605500D03*
X1014307Y595500D03*
X990307Y595500D03*
X990307Y605500D03*
X1002307Y595500D03*
X1002307Y605500D03*
D10*
X990307Y588500D03*
D11*
X1007307Y638500D03*
X997307Y638500D03*
X1023307Y626500D03*
X1033307Y626500D03*
X1053307Y595500D03*
X1053307Y605500D03*
X1053307Y580500D03*
X1053307Y570500D03*
X1066307Y580500D03*
X1066307Y570500D03*
X1066307Y595500D03*
X1066307Y605500D03*
X1014307Y580500D03*
X1014307Y570500D03*
X1040307Y555500D03*
X1040307Y545500D03*
X1002307Y580500D03*
X1002307Y570500D03*
D10*
X1002207Y588500D03*
D11*
X1002307Y555500D03*
X1002307Y545500D03*
X990307Y570500D03*
X990307Y580500D03*
X977307Y595500D03*
X977307Y605500D03*
X977307Y570500D03*
X977307Y580500D03*
X966307Y595500D03*
X966307Y605500D03*
D10*
X1002307Y563500D03*
X977307Y563500D03*
X977307Y588500D03*
D14*
X1110307Y648500D03*
X910307Y488500D03*
D10*
X1100307Y528500D03*
X1100307Y488500D03*
X1053307Y588500D03*
X1040307Y563500D03*
D15*
X920307Y683250D03*
X925307Y683250D03*
X930307Y683250D03*
X935307Y683250D03*
X940307Y683250D03*
X945307Y683250D03*
X950307Y683250D03*
X955307Y683250D03*
X960307Y683250D03*
X965307Y683250D03*
X970307Y683250D03*
X995307Y683250D03*
X1000307Y683250D03*
X1005307Y683250D03*
X1010307Y683250D03*
X1015307Y683250D03*
X1020307Y683250D03*
X1025307Y683250D03*
X1030307Y683250D03*
X1035307Y683250D03*
X1040307Y683250D03*
X1045307Y683250D03*
X1050307Y683250D03*
X1055307Y683250D03*
X1060307Y683250D03*
X1065307Y683250D03*
X1070307Y683250D03*
X1075307Y683250D03*
X1080307Y683250D03*
X1085307Y683250D03*
X1090307Y683250D03*
X1095307Y683250D03*
X1100307Y683250D03*
D16*
X970307Y508500D03*
D17*
X970307Y478500D03*
D10*
X1020307Y595500D03*
D18*
X1085407Y568800D03*
X1104407Y568800D03*
X1094907Y547800D03*
D19*
X1089907Y607900D03*
X1099907Y607900D03*
X1094907Y596400D03*
D11*
X1099907Y584200D03*
X1089907Y584200D03*
D10*
X1227402Y537500D03*
D11*
X1252402Y570500D03*
X1252402Y580500D03*
X1265402Y570500D03*
X1265402Y580500D03*
X1265402Y605500D03*
X1265402Y595500D03*
X1215402Y555500D03*
X1215402Y545500D03*
X1252402Y605500D03*
X1252402Y595500D03*
X1232402Y626500D03*
X1222402Y626500D03*
D12*
X1239402Y557500D03*
X1239402Y543500D03*
X1278402Y557500D03*
X1278402Y543500D03*
X1252402Y543500D03*
X1252402Y557500D03*
D11*
X1258402Y638500D03*
X1248402Y638500D03*
D13*
X1155402Y613707D03*
X1155402Y603293D03*
D11*
X1239402Y605500D03*
X1239402Y595500D03*
X1215402Y595500D03*
X1215402Y605500D03*
X1227402Y595500D03*
X1227402Y605500D03*
D10*
X1215402Y588500D03*
D11*
X1232402Y638500D03*
X1222402Y638500D03*
X1248402Y626500D03*
X1258402Y626500D03*
X1278402Y595500D03*
X1278402Y605500D03*
X1278402Y580500D03*
X1278402Y570500D03*
X1291402Y580500D03*
X1291402Y570500D03*
X1291402Y595500D03*
X1291402Y605500D03*
X1239402Y580500D03*
X1239402Y570500D03*
X1265402Y555500D03*
X1265402Y545500D03*
X1227402Y580500D03*
X1227402Y570500D03*
D10*
X1227302Y588500D03*
D11*
X1227402Y555500D03*
X1227402Y545500D03*
X1215402Y570500D03*
X1215402Y580500D03*
X1202402Y595500D03*
X1202402Y605500D03*
X1202402Y570500D03*
X1202402Y580500D03*
X1191402Y595500D03*
X1191402Y605500D03*
D10*
X1227402Y563500D03*
X1202402Y563500D03*
X1202402Y588500D03*
D14*
X1335402Y648500D03*
X1135402Y488500D03*
D10*
X1325402Y528500D03*
X1325402Y488500D03*
X1278402Y588500D03*
X1265402Y563500D03*
D15*
X1145402Y683250D03*
X1150402Y683250D03*
X1155402Y683250D03*
X1160402Y683250D03*
X1165402Y683250D03*
X1170402Y683250D03*
X1175402Y683250D03*
X1180402Y683250D03*
X1185402Y683250D03*
X1190402Y683250D03*
X1195402Y683250D03*
X1220402Y683250D03*
X1225402Y683250D03*
X1230402Y683250D03*
X1235402Y683250D03*
X1240402Y683250D03*
X1245402Y683250D03*
X1250402Y683250D03*
X1255402Y683250D03*
X1260402Y683250D03*
X1265402Y683250D03*
X1270402Y683250D03*
X1275402Y683250D03*
X1280402Y683250D03*
X1285402Y683250D03*
X1290402Y683250D03*
X1295402Y683250D03*
X1300402Y683250D03*
X1305402Y683250D03*
X1310402Y683250D03*
X1315402Y683250D03*
X1320402Y683250D03*
X1325402Y683250D03*
D16*
X1195402Y508500D03*
D17*
X1195402Y478500D03*
D10*
X1245402Y595500D03*
D18*
X1310502Y568800D03*
X1329502Y568800D03*
X1320002Y547800D03*
D19*
X1315002Y607900D03*
X1325002Y607900D03*
X1320002Y596400D03*
D11*
X1325002Y584200D03*
X1315002Y584200D03*
D10*
X1452471Y537500D03*
D11*
X1477471Y570500D03*
X1477471Y580500D03*
X1490471Y570500D03*
X1490471Y580500D03*
X1490471Y605500D03*
X1490471Y595500D03*
X1440471Y555500D03*
X1440471Y545500D03*
X1477471Y605500D03*
X1477471Y595500D03*
X1457471Y626500D03*
X1447471Y626500D03*
D12*
X1464471Y557500D03*
X1464471Y543500D03*
X1503471Y557500D03*
X1503471Y543500D03*
X1477471Y543500D03*
X1477471Y557500D03*
D11*
X1483471Y638500D03*
X1473471Y638500D03*
D13*
X1380471Y613707D03*
X1380471Y603293D03*
D11*
X1464471Y605500D03*
X1464471Y595500D03*
X1440471Y595500D03*
X1440471Y605500D03*
X1452471Y595500D03*
X1452471Y605500D03*
D10*
X1440471Y588500D03*
D11*
X1457471Y638500D03*
X1447471Y638500D03*
X1473471Y626500D03*
X1483471Y626500D03*
X1503471Y595500D03*
X1503471Y605500D03*
X1503471Y580500D03*
X1503471Y570500D03*
X1516471Y580500D03*
X1516471Y570500D03*
X1516471Y595500D03*
X1516471Y605500D03*
X1464471Y580500D03*
X1464471Y570500D03*
X1490471Y555500D03*
X1490471Y545500D03*
X1452471Y580500D03*
X1452471Y570500D03*
D10*
X1452371Y588500D03*
D11*
X1452471Y555500D03*
X1452471Y545500D03*
X1440471Y570500D03*
X1440471Y580500D03*
X1427471Y595500D03*
X1427471Y605500D03*
X1427471Y570500D03*
X1427471Y580500D03*
X1416471Y595500D03*
X1416471Y605500D03*
D10*
X1452471Y563500D03*
X1427471Y563500D03*
X1427471Y588500D03*
D14*
X1560471Y648500D03*
X1360471Y488500D03*
D10*
X1550471Y528500D03*
X1550471Y488500D03*
X1503471Y588500D03*
X1490471Y563500D03*
D15*
X1370471Y683250D03*
X1375471Y683250D03*
X1380471Y683250D03*
X1385471Y683250D03*
X1390471Y683250D03*
X1395471Y683250D03*
X1400471Y683250D03*
X1405471Y683250D03*
X1410471Y683250D03*
X1415471Y683250D03*
X1420471Y683250D03*
X1445471Y683250D03*
X1450471Y683250D03*
X1455471Y683250D03*
X1460471Y683250D03*
X1465471Y683250D03*
X1470471Y683250D03*
X1475471Y683250D03*
X1480471Y683250D03*
X1485471Y683250D03*
X1490471Y683250D03*
X1495471Y683250D03*
X1500471Y683250D03*
X1505471Y683250D03*
X1510471Y683250D03*
X1515471Y683250D03*
X1520471Y683250D03*
X1525471Y683250D03*
X1530471Y683250D03*
X1535471Y683250D03*
X1540471Y683250D03*
X1545471Y683250D03*
X1550471Y683250D03*
D16*
X1420471Y508500D03*
D17*
X1420471Y478500D03*
D10*
X1470471Y595500D03*
D18*
X1535571Y568800D03*
X1554571Y568800D03*
X1545071Y547800D03*
D19*
X1540071Y607900D03*
X1550071Y607900D03*
X1545071Y596400D03*
D11*
X1550071Y584200D03*
X1540071Y584200D03*
D10*
X1677541Y537500D03*
D11*
X1702541Y570500D03*
X1702541Y580500D03*
X1715541Y570500D03*
X1715541Y580500D03*
X1715541Y605500D03*
X1715541Y595500D03*
X1665541Y555500D03*
X1665541Y545500D03*
X1702541Y605500D03*
X1702541Y595500D03*
X1682541Y626500D03*
X1672541Y626500D03*
D12*
X1689541Y557500D03*
X1689541Y543500D03*
X1728541Y557500D03*
X1728541Y543500D03*
X1702541Y543500D03*
X1702541Y557500D03*
D11*
X1708541Y638500D03*
X1698541Y638500D03*
D13*
X1605541Y613707D03*
X1605541Y603293D03*
D11*
X1689541Y605500D03*
X1689541Y595500D03*
X1665541Y595500D03*
X1665541Y605500D03*
X1677541Y595500D03*
X1677541Y605500D03*
D10*
X1665541Y588500D03*
D11*
X1682541Y638500D03*
X1672541Y638500D03*
X1698541Y626500D03*
X1708541Y626500D03*
X1728541Y595500D03*
X1728541Y605500D03*
X1728541Y580500D03*
X1728541Y570500D03*
X1741541Y580500D03*
X1741541Y570500D03*
X1741541Y595500D03*
X1741541Y605500D03*
X1689541Y580500D03*
X1689541Y570500D03*
X1715541Y555500D03*
X1715541Y545500D03*
X1677541Y580500D03*
X1677541Y570500D03*
D10*
X1677441Y588500D03*
D11*
X1677541Y555500D03*
X1677541Y545500D03*
X1665541Y570500D03*
X1665541Y580500D03*
X1652541Y595500D03*
X1652541Y605500D03*
X1652541Y570500D03*
X1652541Y580500D03*
X1641541Y595500D03*
X1641541Y605500D03*
D10*
X1677541Y563500D03*
X1652541Y563500D03*
X1652541Y588500D03*
D14*
X1785541Y648500D03*
X1585541Y488500D03*
D10*
X1775541Y528500D03*
X1775541Y488500D03*
X1728541Y588500D03*
X1715541Y563500D03*
D15*
X1595541Y683250D03*
X1600541Y683250D03*
X1605541Y683250D03*
X1610541Y683250D03*
X1615541Y683250D03*
X1620541Y683250D03*
X1625541Y683250D03*
X1630541Y683250D03*
X1635541Y683250D03*
X1640541Y683250D03*
X1645541Y683250D03*
X1670541Y683250D03*
X1675541Y683250D03*
X1680541Y683250D03*
X1685541Y683250D03*
X1690541Y683250D03*
X1695541Y683250D03*
X1700541Y683250D03*
X1705541Y683250D03*
X1710541Y683250D03*
X1715541Y683250D03*
X1720541Y683250D03*
X1725541Y683250D03*
X1730541Y683250D03*
X1735541Y683250D03*
X1740541Y683250D03*
X1745541Y683250D03*
X1750541Y683250D03*
X1755541Y683250D03*
X1760541Y683250D03*
X1765541Y683250D03*
X1770541Y683250D03*
X1775541Y683250D03*
D16*
X1645541Y508500D03*
D17*
X1645541Y478500D03*
D10*
X1695541Y595500D03*
D18*
X1760641Y568800D03*
X1779641Y568800D03*
X1770141Y547800D03*
D19*
X1765141Y607900D03*
X1775141Y607900D03*
X1770141Y596400D03*
D11*
X1775141Y584200D03*
X1765141Y584200D03*
D20*
X-26238Y635000D03*
X1821815Y635000D03*
D21*
X-35293Y68580D02*
X-35290Y68802D01*
X-35282Y69024D01*
X-35268Y69246D01*
X-35249Y69468D01*
X-35225Y69688D01*
X-35195Y69909D01*
X-35160Y70128D01*
X-35119Y70347D01*
X-35073Y70564D01*
X-35022Y70780D01*
X-34965Y70995D01*
X-34903Y71209D01*
X-34836Y71420D01*
X-34764Y71631D01*
X-34686Y71839D01*
X-34604Y72045D01*
X-34516Y72249D01*
X-34424Y72452D01*
X-34326Y72651D01*
X-34224Y72848D01*
X-34117Y73043D01*
X-34005Y73235D01*
X-33888Y73424D01*
X-33767Y73611D01*
X-33641Y73794D01*
X-33511Y73974D01*
X-33376Y74151D01*
X-33238Y74324D01*
X-33095Y74494D01*
X-32947Y74661D01*
X-32796Y74824D01*
X-32641Y74983D01*
X-32482Y75138D01*
X-32319Y75289D01*
X-32152Y75437D01*
X-31982Y75580D01*
X-31809Y75718D01*
X-31632Y75853D01*
X-31452Y75983D01*
X-31269Y76109D01*
X-31082Y76230D01*
X-30893Y76347D01*
X-30701Y76459D01*
X-30506Y76566D01*
X-30309Y76668D01*
X-30110Y76766D01*
X-29907Y76858D01*
X-29703Y76946D01*
X-29497Y77028D01*
X-29289Y77106D01*
X-29078Y77178D01*
X-28867Y77245D01*
X-28653Y77307D01*
X-28438Y77364D01*
X-28222Y77415D01*
X-28005Y77461D01*
X-27786Y77502D01*
X-27567Y77537D01*
X-27346Y77567D01*
X-27126Y77591D01*
X-26904Y77610D01*
X-26682Y77624D01*
X-26460Y77632D01*
X-26238Y77635D01*
X-26016Y77632D01*
X-25794Y77624D01*
X-25572Y77610D01*
X-25350Y77591D01*
X-25130Y77567D01*
X-24909Y77537D01*
X-24690Y77502D01*
X-24471Y77461D01*
X-24254Y77415D01*
X-24038Y77364D01*
X-23823Y77307D01*
X-23609Y77245D01*
X-23398Y77178D01*
X-23187Y77106D01*
X-22979Y77028D01*
X-22773Y76946D01*
X-22569Y76858D01*
X-22366Y76766D01*
X-22167Y76668D01*
X-21970Y76566D01*
X-21775Y76459D01*
X-21583Y76347D01*
X-21394Y76230D01*
X-21207Y76109D01*
X-21024Y75983D01*
X-20844Y75853D01*
X-20667Y75718D01*
X-20494Y75580D01*
X-20324Y75437D01*
X-20157Y75289D01*
X-19994Y75138D01*
X-19835Y74983D01*
X-19680Y74824D01*
X-19529Y74661D01*
X-19381Y74494D01*
X-19238Y74324D01*
X-19100Y74151D01*
X-18965Y73974D01*
X-18835Y73794D01*
X-18709Y73611D01*
X-18588Y73424D01*
X-18471Y73235D01*
X-18359Y73043D01*
X-18252Y72848D01*
X-18150Y72651D01*
X-18052Y72452D01*
X-17960Y72249D01*
X-17872Y72045D01*
X-17790Y71839D01*
X-17712Y71631D01*
X-17640Y71420D01*
X-17573Y71209D01*
X-17511Y70995D01*
X-17454Y70780D01*
X-17403Y70564D01*
X-17357Y70347D01*
X-17316Y70128D01*
X-17281Y69909D01*
X-17251Y69688D01*
X-17227Y69468D01*
X-17208Y69246D01*
X-17194Y69024D01*
X-17186Y68802D01*
X-17183Y68580D01*
X-17186Y68358D01*
X-17194Y68136D01*
X-17208Y67914D01*
X-17227Y67692D01*
X-17251Y67472D01*
X-17281Y67251D01*
X-17316Y67032D01*
X-17357Y66813D01*
X-17403Y66596D01*
X-17454Y66380D01*
X-17511Y66165D01*
X-17573Y65951D01*
X-17640Y65740D01*
X-17712Y65529D01*
X-17790Y65321D01*
X-17872Y65115D01*
X-17960Y64911D01*
X-18052Y64708D01*
X-18150Y64509D01*
X-18252Y64312D01*
X-18359Y64117D01*
X-18471Y63925D01*
X-18588Y63736D01*
X-18709Y63549D01*
X-18835Y63366D01*
X-18965Y63186D01*
X-19100Y63009D01*
X-19238Y62836D01*
X-19381Y62666D01*
X-19529Y62499D01*
X-19680Y62336D01*
X-19835Y62177D01*
X-19994Y62022D01*
X-20157Y61871D01*
X-20324Y61723D01*
X-20494Y61580D01*
X-20667Y61442D01*
X-20844Y61307D01*
X-21024Y61177D01*
X-21207Y61051D01*
X-21394Y60930D01*
X-21583Y60813D01*
X-21775Y60701D01*
X-21970Y60594D01*
X-22167Y60492D01*
X-22366Y60394D01*
X-22569Y60302D01*
X-22773Y60214D01*
X-22979Y60132D01*
X-23187Y60054D01*
X-23398Y59982D01*
X-23609Y59915D01*
X-23823Y59853D01*
X-24038Y59796D01*
X-24254Y59745D01*
X-24471Y59699D01*
X-24690Y59658D01*
X-24909Y59623D01*
X-25130Y59593D01*
X-25350Y59569D01*
X-25572Y59550D01*
X-25794Y59536D01*
X-26016Y59528D01*
X-26238Y59525D01*
X-26460Y59528D01*
X-26682Y59536D01*
X-26904Y59550D01*
X-27126Y59569D01*
X-27346Y59593D01*
X-27567Y59623D01*
X-27786Y59658D01*
X-28005Y59699D01*
X-28222Y59745D01*
X-28438Y59796D01*
X-28653Y59853D01*
X-28867Y59915D01*
X-29078Y59982D01*
X-29289Y60054D01*
X-29497Y60132D01*
X-29703Y60214D01*
X-29907Y60302D01*
X-30110Y60394D01*
X-30309Y60492D01*
X-30506Y60594D01*
X-30701Y60701D01*
X-30893Y60813D01*
X-31082Y60930D01*
X-31269Y61051D01*
X-31452Y61177D01*
X-31632Y61307D01*
X-31809Y61442D01*
X-31982Y61580D01*
X-32152Y61723D01*
X-32319Y61871D01*
X-32482Y62022D01*
X-32641Y62177D01*
X-32796Y62336D01*
X-32947Y62499D01*
X-33095Y62666D01*
X-33238Y62836D01*
X-33376Y63009D01*
X-33511Y63186D01*
X-33641Y63366D01*
X-33767Y63549D01*
X-33888Y63736D01*
X-34005Y63925D01*
X-34117Y64117D01*
X-34224Y64312D01*
X-34326Y64509D01*
X-34424Y64708D01*
X-34516Y64911D01*
X-34604Y65115D01*
X-34686Y65321D01*
X-34764Y65529D01*
X-34836Y65740D01*
X-34903Y65951D01*
X-34965Y66165D01*
X-35022Y66380D01*
X-35073Y66596D01*
X-35119Y66813D01*
X-35160Y67032D01*
X-35195Y67251D01*
X-35225Y67472D01*
X-35249Y67692D01*
X-35268Y67914D01*
X-35282Y68136D01*
X-35290Y68358D01*
X-35293Y68580D01*
D22*
X-26238Y68580D03*
M02*
