G04 EAGLE Gerber RS-274X export*
G75*
%MOMM*%
%FSLAX34Y34*%
%LPD*%
%INSolderpaste Bottom*%
%IPPOS*%
%AMOC8*
5,1,8,0,0,1.08239X$1,22.5*%
G01*
%ADD10R,0.600000X0.600000*%
%ADD11R,0.400000X0.400000*%
%ADD12R,0.800000X0.900000*%
%ADD13R,0.460000X0.650000*%


D10*
X93011Y128000D03*
X93011Y118000D03*
X80011Y128000D03*
X80011Y118000D03*
X80011Y93000D03*
X80011Y103000D03*
X130011Y143000D03*
X130011Y153000D03*
X93011Y93000D03*
X93011Y103000D03*
X113011Y72000D03*
X123011Y72000D03*
D11*
X106011Y141000D03*
X106011Y155000D03*
X67011Y141000D03*
X67011Y155000D03*
X93011Y155000D03*
X93011Y141000D03*
D10*
X87011Y60000D03*
X97011Y60000D03*
X106011Y93000D03*
X106011Y103000D03*
X130011Y103000D03*
X130011Y93000D03*
X118011Y103000D03*
X118011Y93000D03*
X113011Y60000D03*
X123011Y60000D03*
X97011Y72000D03*
X87011Y72000D03*
X67011Y103000D03*
X67011Y93000D03*
X67011Y118000D03*
X67011Y128000D03*
X54011Y118000D03*
X54011Y128000D03*
X54011Y103000D03*
X54011Y93000D03*
X106011Y118000D03*
X106011Y128000D03*
X80011Y143000D03*
X80011Y153000D03*
X118011Y118000D03*
X118011Y128000D03*
X118011Y143000D03*
X118011Y153000D03*
X130011Y128000D03*
X130011Y118000D03*
X143011Y103000D03*
X143011Y93000D03*
X143011Y128000D03*
X143011Y118000D03*
X154011Y103000D03*
X154011Y93000D03*
D12*
X34911Y129700D03*
X15911Y129700D03*
X25411Y150700D03*
D13*
X30411Y90600D03*
X20411Y90600D03*
X25411Y102100D03*
D10*
X20411Y114300D03*
X30411Y114300D03*
X318080Y128000D03*
X318080Y118000D03*
X305080Y128000D03*
X305080Y118000D03*
X305080Y93000D03*
X305080Y103000D03*
X355080Y143000D03*
X355080Y153000D03*
X318080Y93000D03*
X318080Y103000D03*
X338080Y72000D03*
X348080Y72000D03*
D11*
X331080Y141000D03*
X331080Y155000D03*
X292080Y141000D03*
X292080Y155000D03*
X318080Y155000D03*
X318080Y141000D03*
D10*
X312080Y60000D03*
X322080Y60000D03*
X331080Y93000D03*
X331080Y103000D03*
X355080Y103000D03*
X355080Y93000D03*
X343080Y103000D03*
X343080Y93000D03*
X338080Y60000D03*
X348080Y60000D03*
X322080Y72000D03*
X312080Y72000D03*
X292080Y103000D03*
X292080Y93000D03*
X292080Y118000D03*
X292080Y128000D03*
X279080Y118000D03*
X279080Y128000D03*
X279080Y103000D03*
X279080Y93000D03*
X331080Y118000D03*
X331080Y128000D03*
X305080Y143000D03*
X305080Y153000D03*
X343080Y118000D03*
X343080Y128000D03*
X343080Y143000D03*
X343080Y153000D03*
X355080Y128000D03*
X355080Y118000D03*
X368080Y103000D03*
X368080Y93000D03*
X368080Y128000D03*
X368080Y118000D03*
X379080Y103000D03*
X379080Y93000D03*
D12*
X259980Y129700D03*
X240980Y129700D03*
X250480Y150700D03*
D13*
X255480Y90600D03*
X245480Y90600D03*
X250480Y102100D03*
D10*
X245480Y114300D03*
X255480Y114300D03*
X543175Y128000D03*
X543175Y118000D03*
X530175Y128000D03*
X530175Y118000D03*
X530175Y93000D03*
X530175Y103000D03*
X580175Y143000D03*
X580175Y153000D03*
X543175Y93000D03*
X543175Y103000D03*
X563175Y72000D03*
X573175Y72000D03*
D11*
X556175Y141000D03*
X556175Y155000D03*
X517175Y141000D03*
X517175Y155000D03*
X543175Y155000D03*
X543175Y141000D03*
D10*
X537175Y60000D03*
X547175Y60000D03*
X556175Y93000D03*
X556175Y103000D03*
X580175Y103000D03*
X580175Y93000D03*
X568175Y103000D03*
X568175Y93000D03*
X563175Y60000D03*
X573175Y60000D03*
X547175Y72000D03*
X537175Y72000D03*
X517175Y103000D03*
X517175Y93000D03*
X517175Y118000D03*
X517175Y128000D03*
X504175Y118000D03*
X504175Y128000D03*
X504175Y103000D03*
X504175Y93000D03*
X556175Y118000D03*
X556175Y128000D03*
X530175Y143000D03*
X530175Y153000D03*
X568175Y118000D03*
X568175Y128000D03*
X568175Y143000D03*
X568175Y153000D03*
X580175Y128000D03*
X580175Y118000D03*
X593175Y103000D03*
X593175Y93000D03*
X593175Y128000D03*
X593175Y118000D03*
X604175Y103000D03*
X604175Y93000D03*
D12*
X485075Y129700D03*
X466075Y129700D03*
X475575Y150700D03*
D13*
X480575Y90600D03*
X470575Y90600D03*
X475575Y102100D03*
D10*
X470575Y114300D03*
X480575Y114300D03*
X768244Y128000D03*
X768244Y118000D03*
X755244Y128000D03*
X755244Y118000D03*
X755244Y93000D03*
X755244Y103000D03*
X805244Y143000D03*
X805244Y153000D03*
X768244Y93000D03*
X768244Y103000D03*
X788244Y72000D03*
X798244Y72000D03*
D11*
X781244Y141000D03*
X781244Y155000D03*
X742244Y141000D03*
X742244Y155000D03*
X768244Y155000D03*
X768244Y141000D03*
D10*
X762244Y60000D03*
X772244Y60000D03*
X781244Y93000D03*
X781244Y103000D03*
X805244Y103000D03*
X805244Y93000D03*
X793244Y103000D03*
X793244Y93000D03*
X788244Y60000D03*
X798244Y60000D03*
X772244Y72000D03*
X762244Y72000D03*
X742244Y103000D03*
X742244Y93000D03*
X742244Y118000D03*
X742244Y128000D03*
X729244Y118000D03*
X729244Y128000D03*
X729244Y103000D03*
X729244Y93000D03*
X781244Y118000D03*
X781244Y128000D03*
X755244Y143000D03*
X755244Y153000D03*
X793244Y118000D03*
X793244Y128000D03*
X793244Y143000D03*
X793244Y153000D03*
X805244Y128000D03*
X805244Y118000D03*
X818244Y103000D03*
X818244Y93000D03*
X818244Y128000D03*
X818244Y118000D03*
X829244Y103000D03*
X829244Y93000D03*
D12*
X710144Y129700D03*
X691144Y129700D03*
X700644Y150700D03*
D13*
X705644Y90600D03*
X695644Y90600D03*
X700644Y102100D03*
D10*
X695644Y114300D03*
X705644Y114300D03*
X993339Y128000D03*
X993339Y118000D03*
X980339Y128000D03*
X980339Y118000D03*
X980339Y93000D03*
X980339Y103000D03*
X1030339Y143000D03*
X1030339Y153000D03*
X993339Y93000D03*
X993339Y103000D03*
X1013339Y72000D03*
X1023339Y72000D03*
D11*
X1006339Y141000D03*
X1006339Y155000D03*
X967339Y141000D03*
X967339Y155000D03*
X993339Y155000D03*
X993339Y141000D03*
D10*
X987339Y60000D03*
X997339Y60000D03*
X1006339Y93000D03*
X1006339Y103000D03*
X1030339Y103000D03*
X1030339Y93000D03*
X1018339Y103000D03*
X1018339Y93000D03*
X1013339Y60000D03*
X1023339Y60000D03*
X997339Y72000D03*
X987339Y72000D03*
X967339Y103000D03*
X967339Y93000D03*
X967339Y118000D03*
X967339Y128000D03*
X954339Y118000D03*
X954339Y128000D03*
X954339Y103000D03*
X954339Y93000D03*
X1006339Y118000D03*
X1006339Y128000D03*
X980339Y143000D03*
X980339Y153000D03*
X1018339Y118000D03*
X1018339Y128000D03*
X1018339Y143000D03*
X1018339Y153000D03*
X1030339Y128000D03*
X1030339Y118000D03*
X1043339Y103000D03*
X1043339Y93000D03*
X1043339Y128000D03*
X1043339Y118000D03*
X1054339Y103000D03*
X1054339Y93000D03*
D12*
X935239Y129700D03*
X916239Y129700D03*
X925739Y150700D03*
D13*
X930739Y90600D03*
X920739Y90600D03*
X925739Y102100D03*
D10*
X920739Y114300D03*
X930739Y114300D03*
X1218408Y128000D03*
X1218408Y118000D03*
X1205408Y128000D03*
X1205408Y118000D03*
X1205408Y93000D03*
X1205408Y103000D03*
X1255408Y143000D03*
X1255408Y153000D03*
X1218408Y93000D03*
X1218408Y103000D03*
X1238408Y72000D03*
X1248408Y72000D03*
D11*
X1231408Y141000D03*
X1231408Y155000D03*
X1192408Y141000D03*
X1192408Y155000D03*
X1218408Y155000D03*
X1218408Y141000D03*
D10*
X1212408Y60000D03*
X1222408Y60000D03*
X1231408Y93000D03*
X1231408Y103000D03*
X1255408Y103000D03*
X1255408Y93000D03*
X1243408Y103000D03*
X1243408Y93000D03*
X1238408Y60000D03*
X1248408Y60000D03*
X1222408Y72000D03*
X1212408Y72000D03*
X1192408Y103000D03*
X1192408Y93000D03*
X1192408Y118000D03*
X1192408Y128000D03*
X1179408Y118000D03*
X1179408Y128000D03*
X1179408Y103000D03*
X1179408Y93000D03*
X1231408Y118000D03*
X1231408Y128000D03*
X1205408Y143000D03*
X1205408Y153000D03*
X1243408Y118000D03*
X1243408Y128000D03*
X1243408Y143000D03*
X1243408Y153000D03*
X1255408Y128000D03*
X1255408Y118000D03*
X1268408Y103000D03*
X1268408Y93000D03*
X1268408Y128000D03*
X1268408Y118000D03*
X1279408Y103000D03*
X1279408Y93000D03*
D12*
X1160308Y129700D03*
X1141308Y129700D03*
X1150808Y150700D03*
D13*
X1155808Y90600D03*
X1145808Y90600D03*
X1150808Y102100D03*
D10*
X1145808Y114300D03*
X1155808Y114300D03*
X1443503Y128000D03*
X1443503Y118000D03*
X1430503Y128000D03*
X1430503Y118000D03*
X1430503Y93000D03*
X1430503Y103000D03*
X1480503Y143000D03*
X1480503Y153000D03*
X1443503Y93000D03*
X1443503Y103000D03*
X1463503Y72000D03*
X1473503Y72000D03*
D11*
X1456503Y141000D03*
X1456503Y155000D03*
X1417503Y141000D03*
X1417503Y155000D03*
X1443503Y155000D03*
X1443503Y141000D03*
D10*
X1437503Y60000D03*
X1447503Y60000D03*
X1456503Y93000D03*
X1456503Y103000D03*
X1480503Y103000D03*
X1480503Y93000D03*
X1468503Y103000D03*
X1468503Y93000D03*
X1463503Y60000D03*
X1473503Y60000D03*
X1447503Y72000D03*
X1437503Y72000D03*
X1417503Y103000D03*
X1417503Y93000D03*
X1417503Y118000D03*
X1417503Y128000D03*
X1404503Y118000D03*
X1404503Y128000D03*
X1404503Y103000D03*
X1404503Y93000D03*
X1456503Y118000D03*
X1456503Y128000D03*
X1430503Y143000D03*
X1430503Y153000D03*
X1468503Y118000D03*
X1468503Y128000D03*
X1468503Y143000D03*
X1468503Y153000D03*
X1480503Y128000D03*
X1480503Y118000D03*
X1493503Y103000D03*
X1493503Y93000D03*
X1493503Y128000D03*
X1493503Y118000D03*
X1504503Y103000D03*
X1504503Y93000D03*
D12*
X1385403Y129700D03*
X1366403Y129700D03*
X1375903Y150700D03*
D13*
X1380903Y90600D03*
X1370903Y90600D03*
X1375903Y102100D03*
D10*
X1370903Y114300D03*
X1380903Y114300D03*
X1668573Y128000D03*
X1668573Y118000D03*
X1655573Y128000D03*
X1655573Y118000D03*
X1655573Y93000D03*
X1655573Y103000D03*
X1705573Y143000D03*
X1705573Y153000D03*
X1668573Y93000D03*
X1668573Y103000D03*
X1688573Y72000D03*
X1698573Y72000D03*
D11*
X1681573Y141000D03*
X1681573Y155000D03*
X1642573Y141000D03*
X1642573Y155000D03*
X1668573Y155000D03*
X1668573Y141000D03*
D10*
X1662573Y60000D03*
X1672573Y60000D03*
X1681573Y93000D03*
X1681573Y103000D03*
X1705573Y103000D03*
X1705573Y93000D03*
X1693573Y103000D03*
X1693573Y93000D03*
X1688573Y60000D03*
X1698573Y60000D03*
X1672573Y72000D03*
X1662573Y72000D03*
X1642573Y103000D03*
X1642573Y93000D03*
X1642573Y118000D03*
X1642573Y128000D03*
X1629573Y118000D03*
X1629573Y128000D03*
X1629573Y103000D03*
X1629573Y93000D03*
X1681573Y118000D03*
X1681573Y128000D03*
X1655573Y143000D03*
X1655573Y153000D03*
X1693573Y118000D03*
X1693573Y128000D03*
X1693573Y143000D03*
X1693573Y153000D03*
X1705573Y128000D03*
X1705573Y118000D03*
X1718573Y103000D03*
X1718573Y93000D03*
X1718573Y128000D03*
X1718573Y118000D03*
X1729573Y103000D03*
X1729573Y93000D03*
D12*
X1610473Y129700D03*
X1591473Y129700D03*
X1600973Y150700D03*
D13*
X1605973Y90600D03*
X1595973Y90600D03*
X1600973Y102100D03*
D10*
X1595973Y114300D03*
X1605973Y114300D03*
X126979Y570500D03*
X126979Y580500D03*
X139979Y570500D03*
X139979Y580500D03*
X139979Y605500D03*
X139979Y595500D03*
X89979Y555500D03*
X89979Y545500D03*
X126979Y605500D03*
X126979Y595500D03*
X106979Y626500D03*
X96979Y626500D03*
D11*
X113979Y557500D03*
X113979Y543500D03*
X152979Y557500D03*
X152979Y543500D03*
X126979Y543500D03*
X126979Y557500D03*
D10*
X132979Y638500D03*
X122979Y638500D03*
X113979Y605500D03*
X113979Y595500D03*
X89979Y595500D03*
X89979Y605500D03*
X101979Y595500D03*
X101979Y605500D03*
X106979Y638500D03*
X96979Y638500D03*
X122979Y626500D03*
X132979Y626500D03*
X152979Y595500D03*
X152979Y605500D03*
X152979Y580500D03*
X152979Y570500D03*
X165979Y580500D03*
X165979Y570500D03*
X165979Y595500D03*
X165979Y605500D03*
X113979Y580500D03*
X113979Y570500D03*
X139979Y555500D03*
X139979Y545500D03*
X101979Y580500D03*
X101979Y570500D03*
X101979Y555500D03*
X101979Y545500D03*
X89979Y570500D03*
X89979Y580500D03*
X76979Y595500D03*
X76979Y605500D03*
X76979Y570500D03*
X76979Y580500D03*
X65979Y595500D03*
X65979Y605500D03*
D12*
X185079Y568800D03*
X204079Y568800D03*
X194579Y547800D03*
D13*
X189579Y607900D03*
X199579Y607900D03*
X194579Y596400D03*
D10*
X199579Y584200D03*
X189579Y584200D03*
X352074Y570500D03*
X352074Y580500D03*
X365074Y570500D03*
X365074Y580500D03*
X365074Y605500D03*
X365074Y595500D03*
X315074Y555500D03*
X315074Y545500D03*
X352074Y605500D03*
X352074Y595500D03*
X332074Y626500D03*
X322074Y626500D03*
D11*
X339074Y557500D03*
X339074Y543500D03*
X378074Y557500D03*
X378074Y543500D03*
X352074Y543500D03*
X352074Y557500D03*
D10*
X358074Y638500D03*
X348074Y638500D03*
X339074Y605500D03*
X339074Y595500D03*
X315074Y595500D03*
X315074Y605500D03*
X327074Y595500D03*
X327074Y605500D03*
X332074Y638500D03*
X322074Y638500D03*
X348074Y626500D03*
X358074Y626500D03*
X378074Y595500D03*
X378074Y605500D03*
X378074Y580500D03*
X378074Y570500D03*
X391074Y580500D03*
X391074Y570500D03*
X391074Y595500D03*
X391074Y605500D03*
X339074Y580500D03*
X339074Y570500D03*
X365074Y555500D03*
X365074Y545500D03*
X327074Y580500D03*
X327074Y570500D03*
X327074Y555500D03*
X327074Y545500D03*
X315074Y570500D03*
X315074Y580500D03*
X302074Y595500D03*
X302074Y605500D03*
X302074Y570500D03*
X302074Y580500D03*
X291074Y595500D03*
X291074Y605500D03*
D12*
X410174Y568800D03*
X429174Y568800D03*
X419674Y547800D03*
D13*
X414674Y607900D03*
X424674Y607900D03*
X419674Y596400D03*
D10*
X424674Y584200D03*
X414674Y584200D03*
X577143Y570500D03*
X577143Y580500D03*
X590143Y570500D03*
X590143Y580500D03*
X590143Y605500D03*
X590143Y595500D03*
X540143Y555500D03*
X540143Y545500D03*
X577143Y605500D03*
X577143Y595500D03*
X557143Y626500D03*
X547143Y626500D03*
D11*
X564143Y557500D03*
X564143Y543500D03*
X603143Y557500D03*
X603143Y543500D03*
X577143Y543500D03*
X577143Y557500D03*
D10*
X583143Y638500D03*
X573143Y638500D03*
X564143Y605500D03*
X564143Y595500D03*
X540143Y595500D03*
X540143Y605500D03*
X552143Y595500D03*
X552143Y605500D03*
X557143Y638500D03*
X547143Y638500D03*
X573143Y626500D03*
X583143Y626500D03*
X603143Y595500D03*
X603143Y605500D03*
X603143Y580500D03*
X603143Y570500D03*
X616143Y580500D03*
X616143Y570500D03*
X616143Y595500D03*
X616143Y605500D03*
X564143Y580500D03*
X564143Y570500D03*
X590143Y555500D03*
X590143Y545500D03*
X552143Y580500D03*
X552143Y570500D03*
X552143Y555500D03*
X552143Y545500D03*
X540143Y570500D03*
X540143Y580500D03*
X527143Y595500D03*
X527143Y605500D03*
X527143Y570500D03*
X527143Y580500D03*
X516143Y595500D03*
X516143Y605500D03*
D12*
X635243Y568800D03*
X654243Y568800D03*
X644743Y547800D03*
D13*
X639743Y607900D03*
X649743Y607900D03*
X644743Y596400D03*
D10*
X649743Y584200D03*
X639743Y584200D03*
X802238Y570500D03*
X802238Y580500D03*
X815238Y570500D03*
X815238Y580500D03*
X815238Y605500D03*
X815238Y595500D03*
X765238Y555500D03*
X765238Y545500D03*
X802238Y605500D03*
X802238Y595500D03*
X782238Y626500D03*
X772238Y626500D03*
D11*
X789238Y557500D03*
X789238Y543500D03*
X828238Y557500D03*
X828238Y543500D03*
X802238Y543500D03*
X802238Y557500D03*
D10*
X808238Y638500D03*
X798238Y638500D03*
X789238Y605500D03*
X789238Y595500D03*
X765238Y595500D03*
X765238Y605500D03*
X777238Y595500D03*
X777238Y605500D03*
X782238Y638500D03*
X772238Y638500D03*
X798238Y626500D03*
X808238Y626500D03*
X828238Y595500D03*
X828238Y605500D03*
X828238Y580500D03*
X828238Y570500D03*
X841238Y580500D03*
X841238Y570500D03*
X841238Y595500D03*
X841238Y605500D03*
X789238Y580500D03*
X789238Y570500D03*
X815238Y555500D03*
X815238Y545500D03*
X777238Y580500D03*
X777238Y570500D03*
X777238Y555500D03*
X777238Y545500D03*
X765238Y570500D03*
X765238Y580500D03*
X752238Y595500D03*
X752238Y605500D03*
X752238Y570500D03*
X752238Y580500D03*
X741238Y595500D03*
X741238Y605500D03*
D12*
X860338Y568800D03*
X879338Y568800D03*
X869838Y547800D03*
D13*
X864838Y607900D03*
X874838Y607900D03*
X869838Y596400D03*
D10*
X874838Y584200D03*
X864838Y584200D03*
X1027307Y570500D03*
X1027307Y580500D03*
X1040307Y570500D03*
X1040307Y580500D03*
X1040307Y605500D03*
X1040307Y595500D03*
X990307Y555500D03*
X990307Y545500D03*
X1027307Y605500D03*
X1027307Y595500D03*
X1007307Y626500D03*
X997307Y626500D03*
D11*
X1014307Y557500D03*
X1014307Y543500D03*
X1053307Y557500D03*
X1053307Y543500D03*
X1027307Y543500D03*
X1027307Y557500D03*
D10*
X1033307Y638500D03*
X1023307Y638500D03*
X1014307Y605500D03*
X1014307Y595500D03*
X990307Y595500D03*
X990307Y605500D03*
X1002307Y595500D03*
X1002307Y605500D03*
X1007307Y638500D03*
X997307Y638500D03*
X1023307Y626500D03*
X1033307Y626500D03*
X1053307Y595500D03*
X1053307Y605500D03*
X1053307Y580500D03*
X1053307Y570500D03*
X1066307Y580500D03*
X1066307Y570500D03*
X1066307Y595500D03*
X1066307Y605500D03*
X1014307Y580500D03*
X1014307Y570500D03*
X1040307Y555500D03*
X1040307Y545500D03*
X1002307Y580500D03*
X1002307Y570500D03*
X1002307Y555500D03*
X1002307Y545500D03*
X990307Y570500D03*
X990307Y580500D03*
X977307Y595500D03*
X977307Y605500D03*
X977307Y570500D03*
X977307Y580500D03*
X966307Y595500D03*
X966307Y605500D03*
D12*
X1085407Y568800D03*
X1104407Y568800D03*
X1094907Y547800D03*
D13*
X1089907Y607900D03*
X1099907Y607900D03*
X1094907Y596400D03*
D10*
X1099907Y584200D03*
X1089907Y584200D03*
X1252402Y570500D03*
X1252402Y580500D03*
X1265402Y570500D03*
X1265402Y580500D03*
X1265402Y605500D03*
X1265402Y595500D03*
X1215402Y555500D03*
X1215402Y545500D03*
X1252402Y605500D03*
X1252402Y595500D03*
X1232402Y626500D03*
X1222402Y626500D03*
D11*
X1239402Y557500D03*
X1239402Y543500D03*
X1278402Y557500D03*
X1278402Y543500D03*
X1252402Y543500D03*
X1252402Y557500D03*
D10*
X1258402Y638500D03*
X1248402Y638500D03*
X1239402Y605500D03*
X1239402Y595500D03*
X1215402Y595500D03*
X1215402Y605500D03*
X1227402Y595500D03*
X1227402Y605500D03*
X1232402Y638500D03*
X1222402Y638500D03*
X1248402Y626500D03*
X1258402Y626500D03*
X1278402Y595500D03*
X1278402Y605500D03*
X1278402Y580500D03*
X1278402Y570500D03*
X1291402Y580500D03*
X1291402Y570500D03*
X1291402Y595500D03*
X1291402Y605500D03*
X1239402Y580500D03*
X1239402Y570500D03*
X1265402Y555500D03*
X1265402Y545500D03*
X1227402Y580500D03*
X1227402Y570500D03*
X1227402Y555500D03*
X1227402Y545500D03*
X1215402Y570500D03*
X1215402Y580500D03*
X1202402Y595500D03*
X1202402Y605500D03*
X1202402Y570500D03*
X1202402Y580500D03*
X1191402Y595500D03*
X1191402Y605500D03*
D12*
X1310502Y568800D03*
X1329502Y568800D03*
X1320002Y547800D03*
D13*
X1315002Y607900D03*
X1325002Y607900D03*
X1320002Y596400D03*
D10*
X1325002Y584200D03*
X1315002Y584200D03*
X1477471Y570500D03*
X1477471Y580500D03*
X1490471Y570500D03*
X1490471Y580500D03*
X1490471Y605500D03*
X1490471Y595500D03*
X1440471Y555500D03*
X1440471Y545500D03*
X1477471Y605500D03*
X1477471Y595500D03*
X1457471Y626500D03*
X1447471Y626500D03*
D11*
X1464471Y557500D03*
X1464471Y543500D03*
X1503471Y557500D03*
X1503471Y543500D03*
X1477471Y543500D03*
X1477471Y557500D03*
D10*
X1483471Y638500D03*
X1473471Y638500D03*
X1464471Y605500D03*
X1464471Y595500D03*
X1440471Y595500D03*
X1440471Y605500D03*
X1452471Y595500D03*
X1452471Y605500D03*
X1457471Y638500D03*
X1447471Y638500D03*
X1473471Y626500D03*
X1483471Y626500D03*
X1503471Y595500D03*
X1503471Y605500D03*
X1503471Y580500D03*
X1503471Y570500D03*
X1516471Y580500D03*
X1516471Y570500D03*
X1516471Y595500D03*
X1516471Y605500D03*
X1464471Y580500D03*
X1464471Y570500D03*
X1490471Y555500D03*
X1490471Y545500D03*
X1452471Y580500D03*
X1452471Y570500D03*
X1452471Y555500D03*
X1452471Y545500D03*
X1440471Y570500D03*
X1440471Y580500D03*
X1427471Y595500D03*
X1427471Y605500D03*
X1427471Y570500D03*
X1427471Y580500D03*
X1416471Y595500D03*
X1416471Y605500D03*
D12*
X1535571Y568800D03*
X1554571Y568800D03*
X1545071Y547800D03*
D13*
X1540071Y607900D03*
X1550071Y607900D03*
X1545071Y596400D03*
D10*
X1550071Y584200D03*
X1540071Y584200D03*
X1702541Y570500D03*
X1702541Y580500D03*
X1715541Y570500D03*
X1715541Y580500D03*
X1715541Y605500D03*
X1715541Y595500D03*
X1665541Y555500D03*
X1665541Y545500D03*
X1702541Y605500D03*
X1702541Y595500D03*
X1682541Y626500D03*
X1672541Y626500D03*
D11*
X1689541Y557500D03*
X1689541Y543500D03*
X1728541Y557500D03*
X1728541Y543500D03*
X1702541Y543500D03*
X1702541Y557500D03*
D10*
X1708541Y638500D03*
X1698541Y638500D03*
X1689541Y605500D03*
X1689541Y595500D03*
X1665541Y595500D03*
X1665541Y605500D03*
X1677541Y595500D03*
X1677541Y605500D03*
X1682541Y638500D03*
X1672541Y638500D03*
X1698541Y626500D03*
X1708541Y626500D03*
X1728541Y595500D03*
X1728541Y605500D03*
X1728541Y580500D03*
X1728541Y570500D03*
X1741541Y580500D03*
X1741541Y570500D03*
X1741541Y595500D03*
X1741541Y605500D03*
X1689541Y580500D03*
X1689541Y570500D03*
X1715541Y555500D03*
X1715541Y545500D03*
X1677541Y580500D03*
X1677541Y570500D03*
X1677541Y555500D03*
X1677541Y545500D03*
X1665541Y570500D03*
X1665541Y580500D03*
X1652541Y595500D03*
X1652541Y605500D03*
X1652541Y570500D03*
X1652541Y580500D03*
X1641541Y595500D03*
X1641541Y605500D03*
D12*
X1760641Y568800D03*
X1779641Y568800D03*
X1770141Y547800D03*
D13*
X1765141Y607900D03*
X1775141Y607900D03*
X1770141Y596400D03*
D10*
X1775141Y584200D03*
X1765141Y584200D03*
M02*
