M48
;GenerationSoftware,Autodesk,EAGLE,9.6.0*%
;CreationDate,2020-05-19T14:28:04Z*%
FMAT,2
ICI,OFF
METRIC,TZ,000.000
T1C0.200
%
G90
M71
T1
X7860Y2787
X8050Y17000
X8690Y12973
X17581Y14400
X9915Y13591
X17145Y16128
X16383Y3268
X9332Y13600
X17021Y14395
X15272Y4150
X9900Y12326
X17135Y13613
X11201Y14243
X10900Y4950
X10490Y5168
X9985Y12906
X6110Y3941
X20300Y4500
X6050Y11650
X4979Y3219
X6050Y10300
X3460Y9750
X5477Y3427
X6050Y10900
X3442Y10358
X6075Y12366
X1278Y9700
X16240Y4250
X8669Y9091
X19014Y7672
X7370Y9038
X8460Y3700
X6650Y6450
X16281Y15619
X10700Y17219
X13984Y4223
X8590Y13600
X16510Y14532
X15310Y3119
X6760Y3250
X6685Y16281
X9600Y17200
X10381Y18181
X6990Y18310
X7214Y3342
X7368Y13654
X960Y14579
X1744Y5100
X10200Y18635
X20360Y18650
X18671Y2850
X4763Y9003
X16675Y7420
X8007Y8430
X1550Y8600
X3500Y4850
X3981Y4919
X5371Y2859
X9295Y8415
X4750Y7110
X8650Y8350
X3015Y8400
X3300Y5600
X3700Y5300
X10980Y16010
X8000Y11000
X3306Y6523
X6050Y7060
X8600Y11000
X10600Y12900
X7700Y15950
X9950Y14300
X6050Y14900
X3400Y14900
X3600Y16600
X400Y19000
X600Y21200
X4700Y9700
X12656Y6573
X8956Y4473
X1456Y2523
X20483Y2950
X21406Y14623
X19706Y14023
X16356Y16123
X15156Y14023
X18977Y11900
X13656Y12473
X18656Y4123
X13256Y8473
X9350Y11000
X10555Y7715
X11343Y9385
X13056Y16223
X13756Y15323
X12556Y3623
X11900Y12850
X4760Y12880
X19056Y3423
X11206Y4123
X20356Y6323
X15656Y11223
X8670Y5410
X3100Y16600
X6300Y21000
X400Y19500
X1660Y13700
X10635Y17673
X20101Y3210
X21600Y5010
X1800Y3110
X10000Y11010
X19969Y11300
X9943Y8335
X4250Y16500
X8850Y18150
X19126Y9535
X11222Y10300
X18957Y10875
X9978Y10346
X3067Y10019
X12700Y10010
X10420Y5920
X7350Y10300
X7350Y11650
X4219Y21331
X17936Y3937
X9950Y11640
X11230Y11630
X13614Y10090
X11560Y3750
X13635Y10604
X12000Y3115
X11980Y14240
X12920Y12710
X13570Y11362
X2093Y20350
X6400Y17060
X6500Y19200
X6900Y17100
X1700Y18800
X6109Y7747
X943Y7703
X13744Y6012
X9950Y9050
X21405Y8310
X13188Y7999
X21405Y8840
X12563Y8369
X14500Y8960
X14056Y6606
X21500Y7410
X3200Y21327
X700Y15500
X11270Y11000
X11500Y17800
X1400Y21100
X14605Y3801
X11811Y19329
X1700Y18000
X14578Y3260
X12192Y19050
X10575Y11027
X19421Y11694
X7374Y2826
X7787Y17691
X9965Y17600
X8000Y2315
X8641Y17431
X6850Y3700
X2277Y13200
X2494Y12056
X4110Y13640
X5990Y2350
X5453Y16700
X11220Y16600
X8450Y4350
X8000Y7691
X19050Y10160
X8635Y9730
X7365Y12285
X8650Y12300
X9285Y9130
X12573Y14365
X4760Y11050
X10571Y2839
X4110Y11000
X10110Y4000
X3360Y10850
X9610Y3000
X3360Y12050
X9452Y3454
X4060Y11650
X9249Y4024
X4760Y11650
X1137Y6900
X19126Y8937
X6050Y8960
X30366Y2787
X30557Y17000
X31197Y12973
X40088Y14400
X32422Y13591
X39652Y16128
X38890Y3268
X31839Y13600
X39528Y14395
X37779Y4150
X32407Y12326
X39642Y13613
X33708Y14243
X33407Y4950
X32997Y5168
X32492Y12906
X28616Y3941
X42807Y4500
X28557Y11650
X27485Y3219
X28557Y10300
X25967Y9750
X27984Y3427
X28557Y10900
X25949Y10358
X28582Y12366
X23785Y9700
X38747Y4250
X31176Y9091
X41521Y7672
X29877Y9038
X30966Y3700
X29157Y6450
X38788Y15619
X33207Y17219
X36491Y4223
X31097Y13600
X39016Y14532
X37816Y3119
X29266Y3250
X29191Y16281
X32107Y17200
X32888Y18181
X29497Y18310
X29720Y3342
X29875Y13654
X23467Y14579
X24251Y5100
X32707Y18635
X42867Y18650
X41178Y2850
X27270Y9003
X39182Y7420
X30514Y8430
X24057Y8600
X26007Y4850
X26488Y4919
X27878Y2859
X31801Y8415
X27257Y7110
X31157Y8350
X25522Y8400
X25807Y5600
X26207Y5300
X33486Y16010
X30507Y11000
X25813Y6523
X28557Y7060
X31107Y11000
X33107Y12900
X30207Y15950
X32457Y14300
X28557Y14900
X25907Y14900
X26107Y16600
X22907Y19000
X23107Y21200
X27207Y9700
X35163Y6573
X31463Y4473
X23963Y2523
X42990Y2950
X43913Y14623
X42213Y14023
X38863Y16123
X37663Y14023
X41484Y11900
X36163Y12473
X41163Y4123
X35763Y8473
X31857Y11000
X33062Y7715
X33850Y9385
X35563Y16223
X36263Y15323
X35063Y3623
X34407Y12850
X27267Y12880
X41563Y3423
X33713Y4123
X42863Y6323
X38163Y11223
X31177Y5410
X25607Y16600
X28807Y21000
X22907Y19500
X24167Y13700
X33142Y17673
X42608Y3210
X44107Y5010
X24307Y3110
X32507Y11010
X42476Y11300
X32450Y8335
X26757Y16500
X31357Y18150
X41633Y9535
X33729Y10300
X41464Y10875
X32485Y10346
X25574Y10019
X35207Y10010
X32927Y5920
X29857Y10300
X29857Y11650
X26726Y21331
X40443Y3937
X32457Y11640
X33737Y11630
X36121Y10090
X34066Y3750
X36142Y10604
X34507Y3115
X34487Y14240
X35427Y12710
X36077Y11362
X24600Y20350
X28907Y17060
X29007Y19200
X29407Y17100
X24207Y18800
X28616Y7747
X23450Y7703
X36251Y6012
X32457Y9050
X43912Y8310
X35695Y7999
X43912Y8840
X35070Y8369
X37007Y8960
X36563Y6606
X44007Y7410
X25707Y21327
X23207Y15500
X33777Y11000
X34007Y17800
X23907Y21100
X37112Y3801
X34318Y19329
X24207Y18000
X37085Y3260
X34699Y19050
X33082Y11027
X41928Y11694
X29881Y2826
X30294Y17691
X32472Y17600
X30507Y2315
X31148Y17431
X29357Y3700
X24784Y13200
X25001Y12056
X26617Y13640
X28497Y2350
X27960Y16700
X33727Y16600
X30957Y4350
X30507Y7691
X41557Y10160
X31142Y9730
X29872Y12285
X31157Y12300
X31792Y9130
X35080Y14365
X27267Y11050
X33078Y2839
X26617Y11000
X32616Y4000
X25867Y10850
X32117Y3000
X25867Y12050
X31959Y3454
X26567Y11650
X31756Y4024
X27267Y11650
X23644Y6900
X41633Y8937
X28557Y8960
X52876Y2787
X53066Y17000
X53707Y12973
X62597Y14400
X54932Y13591
X62161Y16128
X61399Y3268
X54349Y13600
X62037Y14395
X60289Y4150
X54917Y12326
X62151Y13613
X56217Y14243
X55916Y4950
X55507Y5168
X55001Y12906
X51126Y3941
X65316Y4500
X51066Y11650
X49995Y3219
X51066Y10300
X48476Y9750
X50493Y3427
X51066Y10900
X48458Y10358
X51092Y12366
X46295Y9700
X61257Y4250
X53686Y9091
X64031Y7672
X52386Y9038
X53476Y3700
X51666Y6450
X61298Y15619
X55716Y17219
X59001Y4223
X53607Y13600
X61526Y14532
X60326Y3119
X51776Y3250
X51701Y16281
X54616Y17200
X55398Y18181
X52007Y18310
X52230Y3342
X52385Y13654
X45976Y14579
X46760Y5100
X55217Y18635
X65376Y18650
X63688Y2850
X49779Y9003
X61691Y7420
X53024Y8430
X46566Y8600
X48516Y4850
X48998Y4919
X50388Y2859
X54311Y8415
X49766Y7110
X53666Y8350
X48031Y8400
X48316Y5600
X48716Y5300
X55996Y16010
X53016Y11000
X48322Y6523
X51066Y7060
X53616Y11000
X55616Y12900
X52716Y15950
X54966Y14300
X51066Y14900
X48416Y14900
X48616Y16600
X45416Y19000
X45616Y21200
X49716Y9700
X57672Y6573
X53972Y4473
X46472Y2523
X65499Y2950
X66422Y14623
X64722Y14023
X61372Y16123
X60172Y14023
X63993Y11900
X58672Y12473
X63672Y4123
X58272Y8473
X54366Y11000
X55572Y7715
X56359Y9385
X58072Y16223
X58772Y15323
X57572Y3623
X56916Y12850
X49776Y12880
X64072Y3423
X56222Y4123
X65372Y6323
X60672Y11223
X53686Y5410
X48116Y16600
X51316Y21000
X45416Y19500
X46676Y13700
X55652Y17673
X65117Y3210
X66616Y5010
X46816Y3110
X55016Y11010
X64986Y11300
X54959Y8335
X49266Y16500
X53866Y18150
X64143Y9535
X56238Y10300
X63973Y10875
X54994Y10346
X48083Y10019
X57716Y10010
X55436Y5920
X52366Y10300
X52366Y11650
X49235Y21331
X62952Y3937
X54966Y11640
X56246Y11630
X58631Y10090
X56576Y3750
X58651Y10604
X57016Y3115
X56997Y14240
X57936Y12710
X58586Y11362
X47109Y20350
X51416Y17060
X51516Y19200
X51916Y17100
X46716Y18800
X51125Y7747
X45959Y7703
X58760Y6012
X54966Y9050
X66421Y8310
X58205Y7999
X66421Y8840
X57580Y8369
X59516Y8960
X59072Y6606
X66516Y7410
X48216Y21327
X45716Y15500
X56286Y11000
X56516Y17800
X46416Y21100
X59621Y3801
X56827Y19329
X46716Y18000
X59594Y3260
X57208Y19050
X55591Y11027
X64437Y11694
X52391Y2826
X52804Y17691
X54982Y17600
X53016Y2315
X53658Y17431
X51866Y3700
X47293Y13200
X47510Y12056
X49126Y13640
X51007Y2350
X50470Y16700
X56236Y16600
X53466Y4350
X53016Y7691
X64066Y10160
X53651Y9730
X52381Y12285
X53666Y12300
X54301Y9130
X57589Y14365
X49776Y11050
X55588Y2839
X49126Y11000
X55126Y4000
X48376Y10850
X54626Y3000
X48376Y12050
X54469Y3454
X49076Y11650
X54266Y4024
X49776Y11650
X46154Y6900
X64143Y8937
X51066Y8960
X75383Y2787
X75573Y17000
X76214Y12973
X85104Y14400
X77439Y13591
X84668Y16128
X83906Y3268
X76856Y13600
X84544Y14395
X82795Y4150
X77424Y12326
X84658Y13613
X78724Y14243
X78423Y4950
X78014Y5168
X77508Y12906
X73633Y3941
X87823Y4500
X73573Y11650
X72502Y3219
X73573Y10300
X70983Y9750
X73000Y3427
X73573Y10900
X70965Y10358
X73598Y12366
X68802Y9700
X83764Y4250
X76192Y9091
X86538Y7672
X74893Y9038
X75983Y3700
X74173Y6450
X83804Y15619
X78223Y17219
X81508Y4223
X76114Y13600
X84033Y14532
X82833Y3119
X74283Y3250
X74208Y16281
X77123Y17200
X77904Y18181
X74514Y18310
X74737Y3342
X74892Y13654
X68483Y14579
X69267Y5100
X77724Y18635
X87883Y18650
X86195Y2850
X72286Y9003
X84198Y7420
X75530Y8430
X69073Y8600
X71023Y4850
X71504Y4919
X72895Y2859
X76818Y8415
X72273Y7110
X76173Y8350
X70538Y8400
X70823Y5600
X71223Y5300
X78503Y16010
X75523Y11000
X70829Y6523
X73573Y7060
X76123Y11000
X78123Y12900
X75223Y15950
X77473Y14300
X73573Y14900
X70923Y14900
X71123Y16600
X67923Y19000
X68123Y21200
X72223Y9700
X80179Y6573
X76479Y4473
X68979Y2523
X88006Y2950
X88929Y14623
X87229Y14023
X83879Y16123
X82679Y14023
X86500Y11900
X81179Y12473
X86179Y4123
X80779Y8473
X76873Y11000
X78079Y7715
X78866Y9385
X80579Y16223
X81279Y15323
X80079Y3623
X79423Y12850
X72283Y12880
X86579Y3423
X78729Y4123
X87879Y6323
X83179Y11223
X76193Y5410
X70623Y16600
X73823Y21000
X67923Y19500
X69183Y13700
X78159Y17673
X87624Y3210
X89123Y5010
X69323Y3110
X77523Y11010
X87492Y11300
X77466Y8335
X71773Y16500
X76373Y18150
X86650Y9535
X78745Y10300
X86480Y10875
X77501Y10346
X70590Y10019
X80223Y10010
X77943Y5920
X74873Y10300
X74873Y11650
X71742Y21331
X85459Y3937
X77473Y11640
X78753Y11630
X81138Y10090
X79083Y3750
X81158Y10604
X79523Y3115
X79504Y14240
X80443Y12710
X81093Y11362
X69616Y20350
X73923Y17060
X74023Y19200
X74423Y17100
X69223Y18800
X73632Y7747
X68466Y7703
X81267Y6012
X77473Y9050
X88928Y8310
X80712Y7999
X88928Y8840
X80087Y8369
X82023Y8960
X81579Y6606
X89023Y7410
X70723Y21327
X68223Y15500
X78793Y11000
X79023Y17800
X68923Y21100
X82128Y3801
X79334Y19329
X69223Y18000
X82101Y3260
X79715Y19050
X78098Y11027
X86944Y11694
X74897Y2826
X75311Y17691
X77489Y17600
X75523Y2315
X76165Y17431
X74373Y3700
X69800Y13200
X70017Y12056
X71633Y13640
X73514Y2350
X72976Y16700
X78743Y16600
X75973Y4350
X75523Y7691
X86573Y10160
X76158Y9730
X74888Y12285
X76173Y12300
X76808Y9130
X80096Y14365
X72283Y11050
X78095Y2839
X71633Y11000
X77633Y4000
X70883Y10850
X77133Y3000
X70883Y12050
X76976Y3454
X71583Y11650
X76773Y4024
X72283Y11650
X68661Y6900
X86650Y8937
X73573Y8960
X97892Y2787
X98083Y17000
X98723Y12973
X107614Y14400
X99948Y13591
X107178Y16128
X106416Y3268
X99365Y13600
X107053Y14395
X105305Y4150
X99933Y12326
X107168Y13613
X101234Y14243
X100933Y4950
X100523Y5168
X100018Y12906
X96142Y3941
X110333Y4500
X96083Y11650
X95011Y3219
X96083Y10300
X93492Y9750
X95510Y3427
X96083Y10900
X93475Y10358
X96108Y12366
X91311Y9700
X106273Y4250
X98702Y9091
X109047Y7672
X97403Y9038
X98492Y3700
X96683Y6450
X106314Y15619
X100733Y17219
X104017Y4223
X98623Y13600
X106542Y14532
X105342Y3119
X96792Y3250
X96717Y16281
X99633Y17200
X100414Y18181
X97023Y18310
X97246Y3342
X97401Y13654
X90993Y14579
X91776Y5100
X100233Y18635
X110393Y18650
X108704Y2850
X94796Y9003
X106707Y7420
X98040Y8430
X91583Y8600
X93533Y4850
X94014Y4919
X95404Y2859
X99327Y8415
X94783Y7110
X98683Y8350
X93048Y8400
X93333Y5600
X93733Y5300
X101012Y16010
X98033Y11000
X93339Y6523
X96083Y7060
X98633Y11000
X100633Y12900
X97733Y15950
X99983Y14300
X96083Y14900
X93433Y14900
X93633Y16600
X90433Y19000
X90633Y21200
X94733Y9700
X102689Y6573
X98989Y4473
X91489Y2523
X110516Y2950
X111439Y14623
X109739Y14023
X106389Y16123
X105189Y14023
X109010Y11900
X103689Y12473
X108689Y4123
X103289Y8473
X99383Y11000
X100588Y7715
X101376Y9385
X103089Y16223
X103789Y15323
X102589Y3623
X101933Y12850
X94793Y12880
X109089Y3423
X101239Y4123
X110389Y6323
X105689Y11223
X98703Y5410
X93133Y16600
X96333Y21000
X90433Y19500
X91693Y13700
X100668Y17673
X110134Y3210
X111633Y5010
X91833Y3110
X100033Y11010
X110002Y11300
X99976Y8335
X94283Y16500
X98883Y18150
X109159Y9535
X101255Y10300
X108990Y10875
X100011Y10346
X93100Y10019
X102733Y10010
X100453Y5920
X97383Y10300
X97383Y11650
X94252Y21331
X107969Y3937
X99983Y11640
X101263Y11630
X103647Y10090
X101592Y3750
X103668Y10604
X102033Y3115
X102013Y14240
X102953Y12710
X103603Y11362
X92126Y20350
X96433Y17060
X96533Y19200
X96933Y17100
X91733Y18800
X96142Y7747
X90976Y7703
X103777Y6012
X99983Y9050
X111438Y8310
X103221Y7999
X111438Y8840
X102596Y8369
X104533Y8960
X104089Y6606
X111533Y7410
X93233Y21327
X90733Y15500
X101303Y11000
X101533Y17800
X91433Y21100
X104638Y3801
X101844Y19329
X91733Y18000
X104611Y3260
X102225Y19050
X100608Y11027
X109454Y11694
X97407Y2826
X97820Y17691
X99998Y17600
X98033Y2315
X98674Y17431
X96883Y3700
X92310Y13200
X92527Y12056
X94143Y13640
X96023Y2350
X95486Y16700
X101253Y16600
X98483Y4350
X98033Y7691
X109083Y10160
X98668Y9730
X97398Y12285
X98683Y12300
X99318Y9130
X102606Y14365
X94793Y11050
X100604Y2839
X94143Y11000
X100142Y4000
X93393Y10850
X99643Y3000
X93393Y12050
X99485Y3454
X94093Y11650
X99282Y4024
X94793Y11650
X91170Y6900
X109159Y8937
X96083Y8960
X120399Y2787
X120590Y17000
X121230Y12973
X130121Y14400
X122455Y13591
X129685Y16128
X128923Y3268
X121872Y13600
X129560Y14395
X127812Y4150
X122440Y12326
X129675Y13613
X123741Y14243
X123440Y4950
X123030Y5168
X122524Y12906
X118649Y3941
X132840Y4500
X118590Y11650
X117518Y3219
X118590Y10300
X115999Y9750
X118017Y3427
X118590Y10900
X115982Y10358
X118615Y12366
X113818Y9700
X128780Y4250
X121209Y9091
X131554Y7672
X119910Y9038
X120999Y3700
X119190Y6450
X128821Y15619
X123240Y17219
X126524Y4223
X121130Y13600
X129049Y14532
X127849Y3119
X119299Y3250
X119224Y16281
X122140Y17200
X122921Y18181
X119530Y18310
X119753Y3342
X119908Y13654
X113500Y14579
X114283Y5100
X122740Y18635
X132900Y18650
X131211Y2850
X117303Y9003
X129214Y7420
X120547Y8430
X114090Y8600
X116040Y4850
X116521Y4919
X117911Y2859
X121834Y8415
X117290Y7110
X121190Y8350
X115555Y8400
X115840Y5600
X116240Y5300
X123519Y16010
X120540Y11000
X115846Y6523
X118590Y7060
X121140Y11000
X123140Y12900
X120240Y15950
X122490Y14300
X118590Y14900
X115940Y14900
X116140Y16600
X112940Y19000
X113140Y21200
X117240Y9700
X125196Y6573
X121496Y4473
X113996Y2523
X133023Y2950
X133946Y14623
X132246Y14023
X128896Y16123
X127696Y14023
X131517Y11900
X126196Y12473
X131196Y4123
X125796Y8473
X121890Y11000
X123095Y7715
X123883Y9385
X125596Y16223
X126296Y15323
X125096Y3623
X124440Y12850
X117300Y12880
X131596Y3423
X123746Y4123
X132896Y6323
X128196Y11223
X121210Y5410
X115640Y16600
X118840Y21000
X112940Y19500
X114200Y13700
X123175Y17673
X132641Y3210
X134140Y5010
X114340Y3110
X122540Y11010
X132509Y11300
X122483Y8335
X116790Y16500
X121390Y18150
X131666Y9535
X123762Y10300
X131497Y10875
X122518Y10346
X115607Y10019
X125240Y10010
X122960Y5920
X119890Y10300
X119890Y11650
X116759Y21331
X130476Y3937
X122490Y11640
X123770Y11630
X126154Y10090
X124099Y3750
X126175Y10604
X124540Y3115
X124520Y14240
X125460Y12710
X126110Y11362
X114633Y20350
X118940Y17060
X119040Y19200
X119440Y17100
X114240Y18800
X118648Y7747
X113483Y7703
X126284Y6012
X122490Y9050
X133945Y8310
X125728Y7999
X133945Y8840
X125103Y8369
X127040Y8960
X126596Y6606
X134040Y7410
X115740Y21327
X113240Y15500
X123810Y11000
X124040Y17800
X113940Y21100
X127145Y3801
X124351Y19329
X114240Y18000
X127118Y3260
X124732Y19050
X123115Y11027
X131961Y11694
X119914Y2826
X120327Y17691
X122505Y17600
X120540Y2315
X121181Y17431
X119390Y3700
X114817Y13200
X115034Y12056
X116650Y13640
X118530Y2350
X117993Y16700
X123760Y16600
X120990Y4350
X120540Y7691
X131590Y10160
X121175Y9730
X119905Y12285
X121190Y12300
X121825Y9130
X125113Y14365
X117300Y11050
X123111Y2839
X116650Y11000
X122649Y4000
X115900Y10850
X122150Y3000
X115900Y12050
X121992Y3454
X116600Y11650
X121789Y4024
X117300Y11650
X113677Y6900
X131666Y8937
X118590Y8960
X142909Y2787
X143099Y17000
X143740Y12973
X152630Y14400
X144965Y13591
X152194Y16128
X151432Y3268
X144382Y13600
X152070Y14395
X150321Y4150
X144950Y12326
X152184Y13613
X146250Y14243
X145949Y4950
X145540Y5168
X145034Y12906
X141159Y3941
X155349Y4500
X141099Y11650
X140028Y3219
X141099Y10300
X138509Y9750
X140526Y3427
X141099Y10900
X138491Y10358
X141124Y12366
X136327Y9700
X151290Y4250
X143718Y9091
X154064Y7672
X142419Y9038
X143509Y3700
X141699Y6450
X151330Y15619
X145749Y17219
X149034Y4223
X143640Y13600
X151559Y14532
X150359Y3119
X141809Y3250
X141734Y16281
X144649Y17200
X145430Y18181
X142040Y18310
X142263Y3342
X142417Y13654
X136009Y14579
X136793Y5100
X145249Y18635
X155409Y18650
X153721Y2850
X139812Y9003
X151724Y7420
X143056Y8430
X136599Y8600
X138549Y4850
X139030Y4919
X140421Y2859
X144344Y8415
X139799Y7110
X143699Y8350
X138064Y8400
X138349Y5600
X138749Y5300
X146029Y16010
X143049Y11000
X138355Y6523
X141099Y7060
X143649Y11000
X145649Y12900
X142749Y15950
X144999Y14300
X141099Y14900
X138449Y14900
X138649Y16600
X135449Y19000
X135649Y21200
X139749Y9700
X147705Y6573
X144005Y4473
X136505Y2523
X155532Y2950
X156455Y14623
X154755Y14023
X151405Y16123
X150205Y14023
X154026Y11900
X148705Y12473
X153705Y4123
X148305Y8473
X144399Y11000
X145605Y7715
X146392Y9385
X148105Y16223
X148805Y15323
X147605Y3623
X146949Y12850
X139809Y12880
X154105Y3423
X146255Y4123
X155405Y6323
X150705Y11223
X143719Y5410
X138149Y16600
X141349Y21000
X135449Y19500
X136709Y13700
X145685Y17673
X155150Y3210
X156649Y5010
X136849Y3110
X145049Y11010
X155018Y11300
X144992Y8335
X139299Y16500
X143899Y18150
X154175Y9535
X146271Y10300
X154006Y10875
X145027Y10346
X138116Y10019
X147749Y10010
X145469Y5920
X142399Y10300
X142399Y11650
X139268Y21331
X152985Y3937
X144999Y11640
X146279Y11630
X148664Y10090
X146609Y3750
X148684Y10604
X147049Y3115
X147029Y14240
X147969Y12710
X148619Y11362
X137142Y20350
X141449Y17060
X141549Y19200
X141949Y17100
X136749Y18800
X141158Y7747
X135992Y7703
X148793Y6012
X144999Y9050
X156454Y8310
X148238Y7999
X156454Y8840
X147612Y8369
X149549Y8960
X149105Y6606
X156549Y7410
X138249Y21327
X135749Y15500
X146319Y11000
X146549Y17800
X136449Y21100
X149654Y3801
X146860Y19329
X136749Y18000
X149627Y3260
X147241Y19050
X145624Y11027
X154470Y11694
X142423Y2826
X142837Y17691
X145015Y17600
X143049Y2315
X143691Y17431
X141899Y3700
X137326Y13200
X137543Y12056
X139159Y13640
X141040Y2350
X140502Y16700
X146269Y16600
X143499Y4350
X143049Y7691
X154099Y10160
X143684Y9730
X142414Y12285
X143699Y12300
X144334Y9130
X147622Y14365
X139809Y11050
X145621Y2839
X139159Y11000
X145159Y4000
X138409Y10850
X144659Y3000
X138409Y12050
X144502Y3454
X139109Y11650
X144298Y4024
X139809Y11650
X136186Y6900
X154175Y8937
X141099Y8960
X165416Y2787
X165606Y17000
X166247Y12973
X175137Y14400
X167472Y13591
X174701Y16128
X173939Y3268
X166889Y13600
X174577Y14395
X172828Y4150
X167457Y12326
X174691Y13613
X168757Y14243
X168456Y4950
X168047Y5168
X167541Y12906
X163666Y3941
X177856Y4500
X163606Y11650
X162535Y3219
X163606Y10300
X161016Y9750
X163033Y3427
X163606Y10900
X160998Y10358
X163631Y12366
X158834Y9700
X173797Y4250
X166225Y9091
X176570Y7672
X164926Y9038
X166016Y3700
X164206Y6450
X173837Y15619
X168256Y17219
X171541Y4223
X166147Y13600
X174066Y14532
X172866Y3119
X164316Y3250
X164241Y16281
X167156Y17200
X167937Y18181
X164547Y18310
X164770Y3342
X164924Y13654
X158516Y14579
X159300Y5100
X167756Y18635
X177916Y18650
X176228Y2850
X162319Y9003
X174231Y7420
X165563Y8430
X159106Y8600
X161056Y4850
X161537Y4919
X162928Y2859
X166851Y8415
X162306Y7110
X166206Y8350
X160571Y8400
X160856Y5600
X161256Y5300
X168536Y16010
X165556Y11000
X160862Y6523
X163606Y7060
X166156Y11000
X168156Y12900
X165256Y15950
X167506Y14300
X163606Y14900
X160956Y14900
X161156Y16600
X157956Y19000
X158156Y21200
X162256Y9700
X170212Y6573
X166512Y4473
X159012Y2523
X178039Y2950
X178962Y14623
X177262Y14023
X173912Y16123
X172712Y14023
X176533Y11900
X171212Y12473
X176212Y4123
X170812Y8473
X166906Y11000
X168112Y7715
X168899Y9385
X170612Y16223
X171312Y15323
X170112Y3623
X169456Y12850
X162316Y12880
X176612Y3423
X168762Y4123
X177912Y6323
X173212Y11223
X166226Y5410
X160656Y16600
X163856Y21000
X157956Y19500
X159216Y13700
X168192Y17673
X177657Y3210
X179156Y5010
X159356Y3110
X167556Y11010
X177525Y11300
X167499Y8335
X161806Y16500
X166406Y18150
X176682Y9535
X168778Y10300
X176513Y10875
X167534Y10346
X160623Y10019
X170256Y10010
X167976Y5920
X164906Y10300
X164906Y11650
X161775Y21331
X175492Y3937
X167506Y11640
X168786Y11630
X171171Y10090
X169116Y3750
X171191Y10604
X169556Y3115
X169536Y14240
X170476Y12710
X171126Y11362
X159649Y20350
X163956Y17060
X164056Y19200
X164456Y17100
X159256Y18800
X163665Y7747
X158499Y7703
X171300Y6012
X167506Y9050
X178961Y8310
X170745Y7999
X178961Y8840
X170119Y8369
X172056Y8960
X171612Y6606
X179056Y7410
X160756Y21327
X158256Y15500
X168826Y11000
X169056Y17800
X158956Y21100
X172161Y3801
X169367Y19329
X159256Y18000
X172134Y3260
X169748Y19050
X168131Y11027
X176977Y11694
X164930Y2826
X165344Y17691
X167522Y17600
X165556Y2315
X166198Y17431
X164406Y3700
X159833Y13200
X160050Y12056
X161666Y13640
X163547Y2350
X163009Y16700
X168776Y16600
X166006Y4350
X165556Y7691
X176606Y10160
X166191Y9730
X164921Y12285
X166206Y12300
X166841Y9130
X170129Y14365
X162316Y11050
X168128Y2839
X161666Y11000
X167666Y4000
X160916Y10850
X167166Y3000
X160916Y12050
X167009Y3454
X161616Y11650
X166805Y4024
X162316Y11650
X158693Y6900
X176682Y8937
X163606Y8960
X187923Y2787
X188113Y17000
X188754Y12973
X197644Y14400
X189978Y13591
X197208Y16128
X196446Y3268
X189396Y13600
X197084Y14395
X195335Y4150
X189964Y12326
X197198Y13613
X191264Y14243
X190963Y4950
X190554Y5168
X190048Y12906
X186173Y3941
X200363Y4500
X186113Y11650
X185042Y3219
X186113Y10300
X183523Y9750
X185540Y3427
X186113Y10900
X183505Y10358
X186138Y12366
X181341Y9700
X196304Y4250
X188732Y9091
X199077Y7672
X187433Y9038
X188523Y3700
X186713Y6450
X196344Y15619
X190763Y17219
X194047Y4223
X188654Y13600
X196573Y14532
X195373Y3119
X186823Y3250
X186748Y16281
X189663Y17200
X190444Y18181
X187054Y18310
X187277Y3342
X187431Y13654
X181023Y14579
X181807Y5100
X190263Y18635
X200423Y18650
X198735Y2850
X184826Y9003
X196738Y7420
X188070Y8430
X181613Y8600
X183563Y4850
X184044Y4919
X185434Y2859
X189358Y8415
X184813Y7110
X188713Y8350
X183078Y8400
X183363Y5600
X183763Y5300
X191043Y16010
X188063Y11000
X183369Y6523
X186113Y7060
X188663Y11000
X190663Y12900
X187763Y15950
X190013Y14300
X186113Y14900
X183463Y14900
X183663Y16600
X180463Y19000
X180663Y21200
X184763Y9700
X192719Y6573
X189019Y4473
X181519Y2523
X200546Y2950
X201469Y14623
X199769Y14023
X196419Y16123
X195219Y14023
X199040Y11900
X193719Y12473
X198719Y4123
X193319Y8473
X189413Y11000
X190619Y7715
X191406Y9385
X193119Y16223
X193819Y15323
X192619Y3623
X191963Y12850
X184823Y12880
X199119Y3423
X191269Y4123
X200419Y6323
X195719Y11223
X188733Y5410
X183163Y16600
X186363Y21000
X180463Y19500
X181723Y13700
X190698Y17673
X200164Y3210
X201663Y5010
X181863Y3110
X190063Y11010
X200032Y11300
X190006Y8335
X184313Y16500
X188913Y18150
X199189Y9535
X191285Y10300
X199020Y10875
X190041Y10346
X183130Y10019
X192763Y10010
X190483Y5920
X187413Y10300
X187413Y11650
X184282Y21331
X197999Y3937
X190013Y11640
X191293Y11630
X193678Y10090
X191623Y3750
X193698Y10604
X192063Y3115
X192043Y14240
X192983Y12710
X193633Y11362
X182156Y20350
X186463Y17060
X186563Y19200
X186963Y17100
X181763Y18800
X186172Y7747
X181006Y7703
X193807Y6012
X190013Y9050
X201468Y8310
X193252Y7999
X201468Y8840
X192626Y8369
X194563Y8960
X194119Y6606
X201563Y7410
X183263Y21327
X180763Y15500
X191333Y11000
X191563Y17800
X181463Y21100
X194668Y3801
X191874Y19329
X181763Y18000
X194641Y3260
X192255Y19050
X190638Y11027
X199484Y11694
X187437Y2826
X187850Y17691
X190029Y17600
X188063Y2315
X188704Y17431
X186913Y3700
X182340Y13200
X182557Y12056
X184173Y13640
X186054Y2350
X185516Y16700
X191283Y16600
X188513Y4350
X188063Y7691
X199113Y10160
X188698Y9730
X187428Y12285
X188713Y12300
X189348Y9130
X192636Y14365
X184823Y11050
X190635Y2839
X184173Y11000
X190173Y4000
X183423Y10850
X189673Y3000
X183423Y12050
X189515Y3454
X184123Y11650
X189312Y4024
X184823Y11650
X181200Y6900
X199189Y8937
X186113Y8960
X210432Y2787
X210623Y17000
X211263Y12973
X220154Y14400
X212488Y13591
X219718Y16128
X218956Y3268
X211905Y13600
X219593Y14395
X217845Y4150
X212473Y12326
X219708Y13613
X213774Y14243
X213473Y4950
X213063Y5168
X212557Y12906
X208682Y3941
X222873Y4500
X208623Y11650
X207551Y3219
X208623Y10300
X206032Y9750
X208050Y3427
X208623Y10900
X206014Y10358
X208648Y12366
X203851Y9700
X218813Y4250
X211242Y9091
X221587Y7672
X209943Y9038
X211032Y3700
X209223Y6450
X218854Y15619
X213273Y17219
X216557Y4223
X211163Y13600
X219082Y14532
X217882Y3119
X209332Y3250
X209257Y16281
X212173Y17200
X212954Y18181
X209563Y18310
X209786Y3342
X209941Y13654
X203533Y14579
X204316Y5100
X212773Y18635
X222933Y18650
X221244Y2850
X207335Y9003
X219247Y7420
X210580Y8430
X204123Y8600
X206073Y4850
X206554Y4919
X207944Y2859
X211867Y8415
X207323Y7110
X211223Y8350
X205588Y8400
X205873Y5600
X206273Y5300
X213552Y16010
X210573Y11000
X205879Y6523
X208623Y7060
X211173Y11000
X213173Y12900
X210273Y15950
X212523Y14300
X208623Y14900
X205973Y14900
X206173Y16600
X202973Y19000
X203173Y21200
X207273Y9700
X215229Y6573
X211529Y4473
X204029Y2523
X223056Y2950
X223979Y14623
X222279Y14023
X218929Y16123
X217729Y14023
X221550Y11900
X216229Y12473
X221229Y4123
X215829Y8473
X211923Y11000
X213128Y7715
X213916Y9385
X215629Y16223
X216329Y15323
X215129Y3623
X214473Y12850
X207333Y12880
X221629Y3423
X213779Y4123
X222929Y6323
X218229Y11223
X211242Y5410
X205673Y16600
X208873Y21000
X202973Y19500
X204233Y13700
X213208Y17673
X222674Y3210
X224173Y5010
X204373Y3110
X212573Y11010
X222542Y11300
X212516Y8335
X206823Y16500
X211423Y18150
X221699Y9535
X213795Y10300
X221530Y10875
X212550Y10346
X205640Y10019
X215273Y10010
X212993Y5920
X209923Y10300
X209923Y11650
X206792Y21331
X220509Y3937
X212522Y11640
X213803Y11630
X216187Y10090
X214132Y3750
X216208Y10604
X214573Y3115
X214553Y14240
X215493Y12710
X216143Y11362
X204666Y20350
X208973Y17060
X209073Y19200
X209473Y17100
X204273Y18800
X208681Y7747
X203516Y7703
X216317Y6012
X212523Y9050
X223977Y8310
X215761Y7999
X223977Y8840
X215136Y8369
X217073Y8960
X216629Y6606
X224073Y7410
X205773Y21327
X203273Y15500
X213843Y11000
X214073Y17800
X203973Y21100
X217178Y3801
X214384Y19329
X204273Y18000
X217151Y3260
X214765Y19050
X213148Y11027
X221994Y11694
X209947Y2826
X210360Y17691
X212538Y17600
X210573Y2315
X211214Y17431
X209423Y3700
X204850Y13200
X205067Y12056
X206683Y13640
X208563Y2350
X208026Y16700
X213793Y16600
X211023Y4350
X210573Y7691
X221623Y10160
X211208Y9730
X209938Y12285
X211223Y12300
X211858Y9130
X215146Y14365
X207333Y11050
X213144Y2839
X206683Y11000
X212682Y4000
X205933Y10850
X212183Y3000
X205933Y12050
X212025Y3454
X206633Y11650
X211822Y4024
X207333Y11650
X203710Y6900
X221699Y8937
X208623Y8960
X14139Y67063
X13949Y52850
X13308Y56877
X4418Y55450
X12084Y56259
X4854Y53722
X5616Y66582
X12667Y56250
X4978Y55455
X6727Y65700
X12098Y57524
X4864Y56237
X10798Y55607
X11099Y64900
X11508Y64682
X12014Y56944
X15889Y65909
X1699Y65350
X15949Y58200
X17020Y66631
X15949Y59550
X18539Y60100
X16522Y66423
X15949Y58950
X18557Y59492
X15924Y57484
X20721Y60150
X5758Y65600
X13330Y60759
X2985Y62178
X14629Y60812
X13539Y66150
X15349Y63400
X5718Y54231
X11299Y52631
X8015Y65627
X13409Y56250
X5489Y55318
X6689Y66731
X15239Y66600
X15314Y53569
X12399Y52650
X11618Y51669
X15008Y51540
X14785Y66508
X14631Y56196
X21039Y55271
X20255Y64750
X11799Y51215
X1639Y51200
X3328Y67000
X17236Y60847
X5324Y62430
X13992Y61420
X20449Y61250
X18499Y65000
X18018Y64931
X16628Y66991
X12704Y61435
X17249Y62740
X13349Y61500
X18984Y61450
X18699Y64250
X18299Y64550
X11019Y53840
X13999Y58850
X18693Y63327
X15949Y62790
X13399Y58850
X11399Y56950
X14299Y53900
X12049Y55550
X15949Y54950
X18599Y54950
X18399Y53250
X21599Y50850
X21399Y48650
X17299Y60150
X9343Y63277
X13043Y65377
X20543Y67327
X1516Y66900
X593Y55227
X2293Y55827
X5643Y53727
X6843Y55827
X3022Y57950
X8343Y57377
X3343Y65727
X8743Y61377
X12649Y58850
X11443Y62135
X10656Y60465
X8943Y53627
X8243Y54527
X9443Y66227
X10099Y57000
X17239Y56970
X2943Y66427
X10793Y65727
X1643Y63527
X6343Y58627
X13329Y64440
X18899Y53250
X15699Y48850
X21599Y50350
X20339Y56150
X11364Y52177
X1898Y66640
X399Y64840
X20199Y66740
X11999Y58840
X2030Y58550
X12056Y61515
X17749Y53350
X13149Y51700
X2873Y60315
X10777Y59550
X3042Y58975
X12021Y59504
X18932Y59831
X9299Y59840
X11579Y63930
X14649Y59550
X14649Y58200
X17780Y48519
X4063Y65913
X12049Y58210
X10769Y58220
X8384Y59760
X10439Y66100
X8364Y59246
X9999Y66735
X10019Y55610
X9079Y57140
X8429Y58488
X19906Y49500
X15599Y52790
X15499Y50650
X15099Y52750
X20299Y51050
X15890Y62103
X21056Y62147
X8255Y63838
X12049Y60800
X594Y61540
X8810Y61851
X594Y61010
X9436Y61481
X7499Y60890
X7943Y63244
X499Y62440
X18799Y48523
X21299Y54350
X10729Y58850
X10499Y52050
X20599Y48750
X7394Y66049
X10188Y50521
X20299Y51850
X7421Y66590
X9807Y50800
X11424Y58823
X2578Y58156
X14625Y67024
X14212Y52159
X12033Y52250
X13999Y67535
X13358Y52419
X15149Y66150
X19722Y56650
X19505Y57794
X17889Y56210
X16008Y67500
X16546Y53150
X10779Y53250
X13549Y65500
X13999Y62159
X2949Y59690
X13364Y60120
X14634Y57565
X13349Y57550
X12714Y60720
X9426Y55485
X17239Y58800
X11428Y67011
X17889Y58850
X11889Y65850
X18639Y59000
X12389Y66850
X18639Y57800
X12547Y66396
X17939Y58200
X12750Y65826
X17239Y58200
X20862Y62950
X2873Y60913
X15949Y60890
X36649Y67063
X36458Y52850
X35818Y56877
X26927Y55450
X34593Y56259
X27363Y53722
X28125Y66582
X35176Y56250
X27488Y55455
X29236Y65700
X34608Y57524
X27374Y56237
X33307Y55607
X33608Y64900
X34018Y64682
X34524Y56944
X38399Y65909
X24208Y65350
X38458Y58200
X39530Y66631
X38458Y59550
X41049Y60100
X39031Y66423
X38458Y58950
X41067Y59492
X38433Y57484
X43230Y60150
X28268Y65600
X35839Y60759
X25494Y62178
X37138Y60812
X36049Y66150
X37858Y63400
X28227Y54231
X33808Y52631
X30524Y65627
X35918Y56250
X27999Y55318
X29199Y66731
X37749Y66600
X37824Y53569
X34908Y52650
X34127Y51669
X37518Y51540
X37295Y66508
X37140Y56196
X43548Y55271
X42765Y64750
X34308Y51215
X24148Y51200
X25837Y67000
X39746Y60847
X27834Y62430
X36501Y61420
X42958Y61250
X41008Y65000
X40527Y64931
X39137Y66991
X35214Y61435
X39758Y62740
X35858Y61500
X41493Y61450
X41208Y64250
X40808Y64550
X33529Y53840
X36508Y58850
X41202Y63327
X38458Y62790
X35908Y58850
X33908Y56950
X36808Y53900
X34558Y55550
X38458Y54950
X41108Y54950
X40908Y53250
X44108Y50850
X43908Y48650
X39808Y60150
X31852Y63277
X35552Y65377
X43052Y67327
X24025Y66900
X23102Y55227
X24802Y55827
X28152Y53727
X29352Y55827
X25531Y57950
X30852Y57377
X25852Y65727
X31252Y61377
X35158Y58850
X33953Y62135
X33166Y60465
X31452Y53627
X30752Y54527
X31952Y66227
X32608Y57000
X39748Y56970
X25452Y66427
X33302Y65727
X24152Y63527
X28852Y58627
X35839Y64440
X41408Y53250
X38208Y48850
X44108Y50350
X42848Y56150
X33873Y52177
X24408Y66640
X22908Y64840
X42708Y66740
X34508Y58840
X24539Y58550
X34566Y61515
X40258Y53350
X35658Y51700
X25382Y60315
X33286Y59550
X25551Y58975
X34531Y59504
X41441Y59831
X31808Y59840
X34088Y63930
X37158Y59550
X37158Y58200
X40290Y48519
X26572Y65913
X34559Y58210
X33278Y58220
X30894Y59760
X32949Y66100
X30874Y59246
X32508Y66735
X32528Y55610
X31588Y57140
X30938Y58488
X42416Y49500
X38108Y52790
X38008Y50650
X37608Y52750
X42808Y51050
X38400Y62103
X43566Y62147
X30764Y63838
X34558Y60800
X23104Y61540
X31320Y61851
X23104Y61010
X31945Y61481
X30008Y60890
X30452Y63244
X23008Y62440
X41308Y48523
X43808Y54350
X33238Y58850
X33008Y52050
X43108Y48750
X29903Y66049
X32697Y50521
X42808Y51850
X29930Y66590
X32316Y50800
X33934Y58823
X25087Y58156
X37134Y67024
X36721Y52159
X34543Y52250
X36508Y67535
X35867Y52419
X37658Y66150
X42231Y56650
X42015Y57794
X40398Y56210
X38518Y67500
X39055Y53150
X33288Y53250
X36058Y65500
X36508Y62159
X25458Y59690
X35873Y60120
X37143Y57565
X35858Y57550
X35223Y60720
X31936Y55485
X39748Y58800
X33937Y67011
X40398Y58850
X34399Y65850
X41148Y59000
X34898Y66850
X41148Y57800
X35056Y66396
X40448Y58200
X35259Y65826
X39748Y58200
X43371Y62950
X25382Y60913
X38458Y60890
X59156Y67063
X58965Y52850
X58325Y56877
X49434Y55450
X57100Y56259
X49870Y53722
X50632Y66582
X57683Y56250
X49995Y55455
X51743Y65700
X57115Y57524
X49880Y56237
X55814Y55607
X56115Y64900
X56525Y64682
X57031Y56944
X60906Y65909
X46715Y65350
X60965Y58200
X62037Y66631
X60965Y59550
X63556Y60100
X61538Y66423
X60965Y58950
X63573Y59492
X60940Y57484
X65737Y60150
X50775Y65600
X58346Y60759
X48001Y62178
X59645Y60812
X58556Y66150
X60365Y63400
X50734Y54231
X56315Y52631
X53031Y65627
X58425Y56250
X50506Y55318
X51706Y66731
X60256Y66600
X60331Y53569
X57415Y52650
X56634Y51669
X60025Y51540
X59802Y66508
X59647Y56196
X66055Y55271
X65272Y64750
X56815Y51215
X46655Y51200
X48344Y67000
X62253Y60847
X50341Y62430
X59008Y61420
X65465Y61250
X63515Y65000
X63034Y64931
X61644Y66991
X57721Y61435
X62265Y62740
X58365Y61500
X64000Y61450
X63715Y64250
X63315Y64550
X56036Y53840
X59015Y58850
X63709Y63327
X60965Y62790
X58415Y58850
X56415Y56950
X59315Y53900
X57065Y55550
X60965Y54950
X63615Y54950
X63415Y53250
X66615Y50850
X66415Y48650
X62315Y60150
X54359Y63277
X58059Y65377
X65559Y67327
X46532Y66900
X45609Y55227
X47309Y55827
X50659Y53727
X51859Y55827
X48038Y57950
X53359Y57377
X48359Y65727
X53759Y61377
X57665Y58850
X56460Y62135
X55672Y60465
X53959Y53627
X53259Y54527
X54459Y66227
X55115Y57000
X62255Y56970
X47959Y66427
X55809Y65727
X46659Y63527
X51359Y58627
X58346Y64440
X63915Y53250
X60715Y48850
X66615Y50350
X65355Y56150
X56380Y52177
X46914Y66640
X45415Y64840
X65215Y66740
X57015Y58840
X47046Y58550
X57072Y61515
X62765Y53350
X58165Y51700
X47889Y60315
X55793Y59550
X48058Y58975
X57038Y59504
X63948Y59831
X54315Y59840
X56595Y63930
X59665Y59550
X59665Y58200
X62796Y48519
X49079Y65913
X57066Y58210
X55785Y58220
X53401Y59760
X55456Y66100
X53380Y59246
X55015Y66735
X55035Y55610
X54095Y57140
X53445Y58488
X64922Y49500
X60615Y52790
X60515Y50650
X60115Y52750
X65315Y51050
X60907Y62103
X66072Y62147
X53271Y63838
X57065Y60800
X45611Y61540
X53827Y61851
X45611Y61010
X54452Y61481
X52515Y60890
X52959Y63244
X45515Y62440
X63815Y48523
X66315Y54350
X55745Y58850
X55515Y52050
X65615Y48750
X52410Y66049
X55204Y50521
X65315Y51850
X52437Y66590
X54823Y50800
X56440Y58823
X47594Y58156
X59641Y67024
X59228Y52159
X57050Y52250
X59015Y67535
X58374Y52419
X60165Y66150
X64738Y56650
X64521Y57794
X62905Y56210
X61025Y67500
X61562Y53150
X55795Y53250
X58565Y65500
X59015Y62159
X47965Y59690
X58380Y60120
X59650Y57565
X58365Y57550
X57730Y60720
X54442Y55485
X62255Y58800
X56444Y67011
X62905Y58850
X56906Y65850
X63655Y59000
X57405Y66850
X63655Y57800
X57563Y66396
X62955Y58200
X57766Y65826
X62255Y58200
X65878Y62950
X47889Y60913
X60965Y60890
X81665Y67063
X81475Y52850
X80834Y56877
X71944Y55450
X79610Y56259
X72380Y53722
X73142Y66582
X80192Y56250
X72504Y55455
X74253Y65700
X79624Y57524
X72390Y56237
X78324Y55607
X78625Y64900
X79034Y64682
X79540Y56944
X83415Y65909
X69225Y65350
X83475Y58200
X84546Y66631
X83475Y59550
X86065Y60100
X84048Y66423
X83475Y58950
X86083Y59492
X83450Y57484
X88247Y60150
X73284Y65600
X80856Y60759
X70511Y62178
X82155Y60812
X81065Y66150
X82875Y63400
X73244Y54231
X78825Y52631
X75540Y65627
X80934Y56250
X73015Y55318
X74215Y66731
X82765Y66600
X82840Y53569
X79925Y52650
X79144Y51669
X82534Y51540
X82311Y66508
X82157Y56196
X88565Y55271
X87781Y64750
X79325Y51215
X69165Y51200
X70853Y67000
X84762Y60847
X72850Y62430
X81518Y61420
X87975Y61250
X86025Y65000
X85544Y64931
X84153Y66991
X80230Y61435
X84775Y62740
X80875Y61500
X86510Y61450
X86225Y64250
X85825Y64550
X78545Y53840
X81525Y58850
X86219Y63327
X83475Y62790
X80925Y58850
X78925Y56950
X81825Y53900
X79575Y55550
X83475Y54950
X86125Y54950
X85925Y53250
X89125Y50850
X88925Y48650
X84825Y60150
X76869Y63277
X80569Y65377
X88069Y67327
X69042Y66900
X68119Y55227
X69819Y55827
X73169Y53727
X74369Y55827
X70548Y57950
X75869Y57377
X70869Y65727
X76269Y61377
X80175Y58850
X78969Y62135
X78182Y60465
X76469Y53627
X75769Y54527
X76969Y66227
X77625Y57000
X84765Y56970
X70469Y66427
X78319Y65727
X69169Y63527
X73869Y58627
X80855Y64440
X86425Y53250
X83225Y48850
X89125Y50350
X87865Y56150
X78889Y52177
X69424Y66640
X67925Y64840
X87725Y66740
X79525Y58840
X69556Y58550
X79582Y61515
X85275Y53350
X80675Y51700
X70399Y60315
X78303Y59550
X70568Y58975
X79547Y59504
X86458Y59831
X76825Y59840
X79105Y63930
X82175Y59550
X82175Y58200
X85306Y48519
X71589Y65913
X79575Y58210
X78295Y58220
X75910Y59760
X77965Y66100
X75890Y59246
X77525Y66735
X77545Y55610
X76605Y57140
X75955Y58488
X87432Y49500
X83125Y52790
X83025Y50650
X82625Y52750
X87825Y51050
X83416Y62103
X88582Y62147
X75781Y63838
X79575Y60800
X68120Y61540
X76336Y61851
X68120Y61010
X76962Y61481
X75025Y60890
X75469Y63244
X68025Y62440
X86325Y48523
X88825Y54350
X78255Y58850
X78025Y52050
X88125Y48750
X74920Y66049
X77714Y50521
X87825Y51850
X74947Y66590
X77333Y50800
X78950Y58823
X70104Y58156
X82151Y67024
X81737Y52159
X79559Y52250
X81525Y67535
X80884Y52419
X82675Y66150
X87248Y56650
X87031Y57794
X85415Y56210
X83534Y67500
X84072Y53150
X78305Y53250
X81075Y65500
X81525Y62159
X70475Y59690
X80890Y60120
X82160Y57565
X80875Y57550
X80240Y60720
X76952Y55485
X84765Y58800
X78953Y67011
X85415Y58850
X79415Y65850
X86165Y59000
X79915Y66850
X86165Y57800
X80072Y66396
X85465Y58200
X80276Y65826
X84765Y58200
X88388Y62950
X70399Y60913
X83475Y60890
X104172Y67063
X103982Y52850
X103341Y56877
X94451Y55450
X102116Y56259
X94887Y53722
X95649Y66582
X102699Y56250
X95011Y55455
X96760Y65700
X102131Y57524
X94897Y56237
X100831Y55607
X101132Y64900
X101541Y64682
X102047Y56944
X105922Y65909
X91732Y65350
X105982Y58200
X107053Y66631
X105982Y59550
X108572Y60100
X106555Y66423
X105982Y58950
X108590Y59492
X105957Y57484
X110754Y60150
X95791Y65600
X103363Y60759
X93017Y62178
X104662Y60812
X103572Y66150
X105382Y63400
X95751Y54231
X101332Y52631
X98047Y65627
X103441Y56250
X95522Y55318
X96722Y66731
X105272Y66600
X105347Y53569
X102432Y52650
X101651Y51669
X105041Y51540
X104818Y66508
X104664Y56196
X111072Y55271
X110288Y64750
X101832Y51215
X91672Y51200
X93360Y67000
X107269Y60847
X95357Y62430
X104025Y61420
X110482Y61250
X108532Y65000
X108051Y64931
X106660Y66991
X102737Y61435
X107282Y62740
X103382Y61500
X109017Y61450
X108732Y64250
X108332Y64550
X101052Y53840
X104032Y58850
X108726Y63327
X105982Y62790
X103432Y58850
X101432Y56950
X104332Y53900
X102082Y55550
X105982Y54950
X108632Y54950
X108432Y53250
X111632Y50850
X111432Y48650
X107332Y60150
X99376Y63277
X103076Y65377
X110576Y67327
X91549Y66900
X90626Y55227
X92326Y55827
X95676Y53727
X96876Y55827
X93055Y57950
X98376Y57377
X93376Y65727
X98776Y61377
X102682Y58850
X101476Y62135
X100689Y60465
X98976Y53627
X98276Y54527
X99476Y66227
X100132Y57000
X107272Y56970
X92976Y66427
X100826Y65727
X91676Y63527
X96376Y58627
X103362Y64440
X108932Y53250
X105732Y48850
X111632Y50350
X110372Y56150
X101396Y52177
X91931Y66640
X90432Y64840
X110232Y66740
X102032Y58840
X92063Y58550
X102089Y61515
X107782Y53350
X103182Y51700
X92906Y60315
X100810Y59550
X93075Y58975
X102054Y59504
X108965Y59831
X99332Y59840
X101612Y63930
X104682Y59550
X104682Y58200
X107813Y48519
X94096Y65913
X102082Y58210
X100802Y58220
X98417Y59760
X100472Y66100
X98397Y59246
X100032Y66735
X100052Y55610
X99112Y57140
X98462Y58488
X109939Y49500
X105632Y52790
X105532Y50650
X105132Y52750
X110332Y51050
X105923Y62103
X111089Y62147
X98288Y63838
X102082Y60800
X90627Y61540
X98843Y61851
X90627Y61010
X99469Y61481
X97532Y60890
X97976Y63244
X90532Y62440
X108832Y48523
X111332Y54350
X100762Y58850
X100532Y52050
X110632Y48750
X97427Y66049
X100221Y50521
X110332Y51850
X97454Y66590
X99840Y50800
X101457Y58823
X92611Y58156
X104658Y67024
X104244Y52159
X102066Y52250
X104032Y67535
X103390Y52419
X105182Y66150
X109755Y56650
X109538Y57794
X107922Y56210
X106041Y67500
X106579Y53150
X100812Y53250
X103582Y65500
X104032Y62159
X92982Y59690
X103397Y60120
X104667Y57565
X103382Y57550
X102747Y60720
X99459Y55485
X107272Y58800
X101460Y67011
X107922Y58850
X101922Y65850
X108672Y59000
X102422Y66850
X108672Y57800
X102579Y66396
X107972Y58200
X102783Y65826
X107272Y58200
X110895Y62950
X92906Y60913
X105982Y60890
X126682Y67063
X126491Y52850
X125851Y56877
X116960Y55450
X124626Y56259
X117396Y53722
X118158Y66582
X125209Y56250
X117521Y55455
X119269Y65700
X124641Y57524
X117406Y56237
X123340Y55607
X123641Y64900
X124051Y64682
X124557Y56944
X128432Y65909
X114241Y65350
X128491Y58200
X129563Y66631
X128491Y59550
X131082Y60100
X129064Y66423
X128491Y58950
X131099Y59492
X128466Y57484
X133263Y60150
X118301Y65600
X125872Y60759
X115527Y62178
X127171Y60812
X126082Y66150
X127891Y63400
X118260Y54231
X123841Y52631
X120557Y65627
X125951Y56250
X118032Y55318
X119232Y66731
X127782Y66600
X127857Y53569
X124941Y52650
X124160Y51669
X127551Y51540
X127328Y66508
X127173Y56196
X133581Y55271
X132798Y64750
X124341Y51215
X114181Y51200
X115870Y67000
X129778Y60847
X117867Y62430
X126534Y61420
X132991Y61250
X131041Y65000
X130560Y64931
X129170Y66991
X125247Y61435
X129791Y62740
X125891Y61500
X131526Y61450
X131241Y64250
X130841Y64550
X123562Y53840
X126541Y58850
X131235Y63327
X128491Y62790
X125941Y58850
X123941Y56950
X126841Y53900
X124591Y55550
X128491Y54950
X131141Y54950
X130941Y53250
X134141Y50850
X133941Y48650
X129841Y60150
X121885Y63277
X125585Y65377
X133085Y67327
X114058Y66900
X113135Y55227
X114835Y55827
X118185Y53727
X119385Y55827
X115564Y57950
X120885Y57377
X115885Y65727
X121285Y61377
X125191Y58850
X123986Y62135
X123198Y60465
X121485Y53627
X120785Y54527
X121985Y66227
X122641Y57000
X129781Y56970
X115485Y66427
X123335Y65727
X114185Y63527
X118885Y58627
X125871Y64440
X131441Y53250
X128241Y48850
X134141Y50350
X132881Y56150
X123906Y52177
X114440Y66640
X112941Y64840
X132741Y66740
X124541Y58840
X114572Y58550
X124598Y61515
X130291Y53350
X125691Y51700
X115415Y60315
X123319Y59550
X115584Y58975
X124563Y59504
X131474Y59831
X121841Y59840
X124121Y63930
X127191Y59550
X127191Y58200
X130322Y48519
X116605Y65913
X124591Y58210
X123311Y58220
X120927Y59760
X122982Y66100
X120906Y59246
X122541Y66735
X122561Y55610
X121621Y57140
X120971Y58488
X132448Y49500
X128141Y52790
X128041Y50650
X127641Y52750
X132841Y51050
X128433Y62103
X133598Y62147
X120797Y63838
X124591Y60800
X113136Y61540
X121353Y61851
X113136Y61010
X121978Y61481
X120041Y60890
X120485Y63244
X113041Y62440
X131341Y48523
X133841Y54350
X123271Y58850
X123041Y52050
X133141Y48750
X119936Y66049
X122730Y50521
X132841Y51850
X119963Y66590
X122349Y50800
X123966Y58823
X115120Y58156
X127167Y67024
X126754Y52159
X124576Y52250
X126541Y67535
X125900Y52419
X127691Y66150
X132264Y56650
X132047Y57794
X130431Y56210
X128551Y67500
X129088Y53150
X123321Y53250
X126091Y65500
X126541Y62159
X115491Y59690
X125906Y60120
X127176Y57565
X125891Y57550
X125256Y60720
X121968Y55485
X129781Y58800
X123970Y67011
X130431Y58850
X124432Y65850
X131181Y59000
X124931Y66850
X131181Y57800
X125089Y66396
X130481Y58200
X125292Y65826
X129781Y58200
X133404Y62950
X115415Y60913
X128491Y60890
X149189Y67063
X148998Y52850
X148358Y56877
X139467Y55450
X147133Y56259
X139903Y53722
X140665Y66582
X147716Y56250
X140028Y55455
X141776Y65700
X147148Y57524
X139913Y56237
X145847Y55607
X146148Y64900
X146558Y64682
X147064Y56944
X150939Y65909
X136748Y65350
X150998Y58200
X152070Y66631
X150998Y59550
X153589Y60100
X151571Y66423
X150998Y58950
X153606Y59492
X150973Y57484
X155770Y60150
X140808Y65600
X148379Y60759
X138034Y62178
X149678Y60812
X148589Y66150
X150398Y63400
X140767Y54231
X146348Y52631
X143064Y65627
X148458Y56250
X140539Y55318
X141739Y66731
X150289Y66600
X150364Y53569
X147448Y52650
X146667Y51669
X150058Y51540
X149835Y66508
X149680Y56196
X156088Y55271
X155305Y64750
X146848Y51215
X136688Y51200
X138377Y67000
X152285Y60847
X140374Y62430
X149041Y61420
X155498Y61250
X153548Y65000
X153067Y64931
X151677Y66991
X147754Y61435
X152298Y62740
X148398Y61500
X154033Y61450
X153748Y64250
X153348Y64550
X146069Y53840
X149048Y58850
X153742Y63327
X150998Y62790
X148448Y58850
X146448Y56950
X149348Y53900
X147098Y55550
X150998Y54950
X153648Y54950
X153448Y53250
X156648Y50850
X156448Y48650
X152348Y60150
X144392Y63277
X148092Y65377
X155592Y67327
X136565Y66900
X135642Y55227
X137342Y55827
X140692Y53727
X141892Y55827
X138071Y57950
X143392Y57377
X138392Y65727
X143792Y61377
X147698Y58850
X146493Y62135
X145705Y60465
X143992Y53627
X143292Y54527
X144492Y66227
X145148Y57000
X152288Y56970
X137992Y66427
X145842Y65727
X136692Y63527
X141392Y58627
X148378Y64440
X153948Y53250
X150748Y48850
X156648Y50350
X155388Y56150
X146413Y52177
X136947Y66640
X135448Y64840
X155248Y66740
X147048Y58840
X137079Y58550
X147105Y61515
X152798Y53350
X148198Y51700
X137922Y60315
X145826Y59550
X138091Y58975
X147070Y59504
X153981Y59831
X144348Y59840
X146628Y63930
X149698Y59550
X149698Y58200
X152829Y48519
X139112Y65913
X147098Y58210
X145818Y58220
X143434Y59760
X145489Y66100
X143413Y59246
X145048Y66735
X145068Y55610
X144128Y57140
X143478Y58488
X154955Y49500
X150648Y52790
X150548Y50650
X150148Y52750
X155348Y51050
X150940Y62103
X156105Y62147
X143304Y63838
X147098Y60800
X135643Y61540
X143860Y61851
X135643Y61010
X144485Y61481
X142548Y60890
X142992Y63244
X135548Y62440
X153848Y48523
X156348Y54350
X145778Y58850
X145548Y52050
X155648Y48750
X142443Y66049
X145237Y50521
X155348Y51850
X142470Y66590
X144856Y50800
X146473Y58823
X137627Y58156
X149674Y67024
X149261Y52159
X147083Y52250
X149048Y67535
X148407Y52419
X150198Y66150
X154771Y56650
X154554Y57794
X152938Y56210
X151058Y67500
X151595Y53150
X145828Y53250
X148598Y65500
X149048Y62159
X137998Y59690
X148413Y60120
X149683Y57565
X148398Y57550
X147763Y60720
X144475Y55485
X152288Y58800
X146477Y67011
X152938Y58850
X146939Y65850
X153688Y59000
X147438Y66850
X153688Y57800
X147596Y66396
X152988Y58200
X147799Y65826
X152288Y58200
X155911Y62950
X137922Y60913
X150998Y60890
X171696Y67063
X171505Y52850
X170865Y56877
X161974Y55450
X169640Y56259
X162410Y53722
X163172Y66582
X170223Y56250
X162534Y55455
X164283Y65700
X169655Y57524
X162420Y56237
X168354Y55607
X168655Y64900
X169065Y64682
X169570Y56944
X173446Y65909
X159255Y65350
X173505Y58200
X174577Y66631
X173505Y59550
X176096Y60100
X174078Y66423
X173505Y58950
X176113Y59492
X173480Y57484
X178277Y60150
X163315Y65600
X170886Y60759
X160541Y62178
X172185Y60812
X171096Y66150
X172905Y63400
X163274Y54231
X168855Y52631
X165571Y65627
X170965Y56250
X163046Y55318
X164246Y66731
X172796Y66600
X172871Y53569
X169955Y52650
X169174Y51669
X172565Y51540
X172342Y66508
X172187Y56196
X178595Y55271
X177812Y64750
X169355Y51215
X159195Y51200
X160884Y67000
X174792Y60847
X162880Y62430
X171548Y61420
X178005Y61250
X176055Y65000
X175574Y64931
X174184Y66991
X170261Y61435
X174805Y62740
X170905Y61500
X176540Y61450
X176255Y64250
X175855Y64550
X168576Y53840
X171555Y58850
X176249Y63327
X173505Y62790
X170955Y58850
X168955Y56950
X171855Y53900
X169605Y55550
X173505Y54950
X176155Y54950
X175955Y53250
X179155Y50850
X178955Y48650
X174855Y60150
X166899Y63277
X170599Y65377
X178099Y67327
X159072Y66900
X158149Y55227
X159849Y55827
X163199Y53727
X164399Y55827
X160578Y57950
X165899Y57377
X160899Y65727
X166299Y61377
X170205Y58850
X169000Y62135
X168212Y60465
X166499Y53627
X165799Y54527
X166999Y66227
X167655Y57000
X174795Y56970
X160499Y66427
X168349Y65727
X159199Y63527
X163899Y58627
X170885Y64440
X176455Y53250
X173255Y48850
X179155Y50350
X177895Y56150
X168920Y52177
X159454Y66640
X157955Y64840
X177755Y66740
X169555Y58840
X159586Y58550
X169612Y61515
X175305Y53350
X170705Y51700
X160429Y60315
X168333Y59550
X160598Y58975
X169577Y59504
X176488Y59831
X166855Y59840
X169135Y63930
X172205Y59550
X172205Y58200
X175336Y48519
X161619Y65913
X169605Y58210
X168325Y58220
X165941Y59760
X167996Y66100
X165920Y59246
X167555Y66735
X167575Y55610
X166635Y57140
X165985Y58488
X177462Y49500
X173155Y52790
X173055Y50650
X172655Y52750
X177855Y51050
X173446Y62103
X178612Y62147
X165811Y63838
X169605Y60800
X158150Y61540
X166367Y61851
X158150Y61010
X166992Y61481
X165055Y60890
X165499Y63244
X158055Y62440
X176355Y48523
X178855Y54350
X168285Y58850
X168055Y52050
X178155Y48750
X164950Y66049
X167744Y50521
X177855Y51850
X164977Y66590
X167363Y50800
X168980Y58823
X160134Y58156
X172181Y67024
X171768Y52159
X169590Y52250
X171555Y67535
X170914Y52419
X172705Y66150
X177278Y56650
X177061Y57794
X175445Y56210
X173565Y67500
X174102Y53150
X168335Y53250
X171105Y65500
X171555Y62159
X160505Y59690
X170920Y60120
X172190Y57565
X170905Y57550
X170270Y60720
X166982Y55485
X174795Y58800
X168984Y67011
X175445Y58850
X169446Y65850
X176195Y59000
X169945Y66850
X176195Y57800
X170103Y66396
X175495Y58200
X170306Y65826
X174795Y58200
X178418Y62950
X160429Y60913
X173505Y60890
X194205Y67063
X194015Y52850
X193374Y56877
X184484Y55450
X192149Y56259
X184920Y53722
X185682Y66582
X192732Y56250
X185044Y55455
X186793Y65700
X192164Y57524
X184930Y56237
X190864Y55607
X191165Y64900
X191574Y64682
X192080Y56944
X195955Y65909
X181765Y65350
X196015Y58200
X197086Y66631
X196015Y59550
X198605Y60100
X196588Y66423
X196015Y58950
X198623Y59492
X195990Y57484
X200786Y60150
X185824Y65600
X193396Y60759
X183050Y62178
X194695Y60812
X193605Y66150
X195415Y63400
X185784Y54231
X191365Y52631
X188080Y65627
X193474Y56250
X185555Y55318
X186755Y66731
X195305Y66600
X195380Y53569
X192465Y52650
X191684Y51669
X195074Y51540
X194851Y66508
X194696Y56196
X201105Y55271
X200321Y64750
X191864Y51215
X181705Y51200
X183393Y67000
X197302Y60847
X185390Y62430
X194058Y61420
X200515Y61250
X198565Y65000
X198084Y64931
X196693Y66991
X192770Y61435
X197315Y62740
X193415Y61500
X199050Y61450
X198765Y64250
X198365Y64550
X191085Y53840
X194065Y58850
X198759Y63327
X196015Y62790
X193465Y58850
X191465Y56950
X194365Y53900
X192115Y55550
X196015Y54950
X198665Y54950
X198465Y53250
X201665Y50850
X201465Y48650
X197365Y60150
X189409Y63277
X193109Y65377
X200609Y67327
X181582Y66900
X180659Y55227
X182359Y55827
X185709Y53727
X186909Y55827
X183088Y57950
X188409Y57377
X183409Y65727
X188809Y61377
X192715Y58850
X191509Y62135
X190722Y60465
X189009Y53627
X188309Y54527
X189509Y66227
X190165Y57000
X197305Y56970
X183009Y66427
X190859Y65727
X181709Y63527
X186409Y58627
X193395Y64440
X198965Y53250
X195765Y48850
X201665Y50350
X200405Y56150
X191429Y52177
X181964Y66640
X180465Y64840
X200265Y66740
X192065Y58840
X182096Y58550
X192122Y61515
X197815Y53350
X193215Y51700
X182938Y60315
X190843Y59550
X183108Y58975
X192087Y59504
X198998Y59831
X189365Y59840
X191645Y63930
X194715Y59550
X194715Y58200
X197846Y48519
X184129Y65913
X192115Y58210
X190835Y58220
X188450Y59760
X190505Y66100
X188430Y59246
X190065Y66735
X190084Y55610
X189145Y57140
X188495Y58488
X199972Y49500
X195665Y52790
X195565Y50650
X195165Y52750
X200365Y51050
X195956Y62103
X201122Y62147
X188321Y63838
X192115Y60800
X180660Y61540
X188876Y61851
X180660Y61010
X189501Y61481
X187565Y60890
X188009Y63244
X180565Y62440
X198865Y48523
X201365Y54350
X190795Y58850
X190565Y52050
X200665Y48750
X187460Y66049
X190254Y50521
X200365Y51850
X187487Y66590
X189873Y50800
X191490Y58823
X182644Y58156
X194691Y67024
X194277Y52159
X192099Y52250
X194065Y67535
X193423Y52419
X195215Y66150
X199788Y56650
X199571Y57794
X197955Y56210
X196074Y67500
X196612Y53150
X190845Y53250
X193615Y65500
X194065Y62159
X183015Y59690
X193430Y60120
X194700Y57565
X193415Y57550
X192780Y60720
X189492Y55485
X197305Y58800
X191493Y67011
X197955Y58850
X191955Y65850
X198705Y59000
X192455Y66850
X198705Y57800
X192612Y66396
X198005Y58200
X192815Y65826
X197305Y58200
X200927Y62950
X182938Y60913
X196015Y60890
X216712Y67063
X216522Y52850
X215881Y56877
X206991Y55450
X214656Y56259
X207427Y53722
X208189Y66582
X215239Y56250
X207551Y55455
X209299Y65700
X214671Y57524
X207437Y56237
X213370Y55607
X213672Y64900
X214081Y64682
X214587Y56944
X218462Y65909
X204272Y65350
X218522Y58200
X219593Y66631
X218522Y59550
X221112Y60100
X219095Y66423
X218522Y58950
X221130Y59492
X218496Y57484
X223293Y60150
X208331Y65600
X215902Y60759
X205557Y62178
X217202Y60812
X216112Y66150
X217922Y63400
X208290Y54231
X213872Y52631
X210587Y65627
X215981Y56250
X208062Y55318
X209262Y66731
X217812Y66600
X217887Y53569
X214972Y52650
X214190Y51669
X217581Y51540
X217358Y66508
X217203Y56196
X223612Y55271
X222828Y64750
X214371Y51215
X204212Y51200
X205900Y67000
X219809Y60847
X207897Y62430
X216564Y61420
X223022Y61250
X221072Y65000
X220590Y64931
X219200Y66991
X215277Y61435
X219822Y62740
X215922Y61500
X221557Y61450
X221272Y64250
X220872Y64550
X213592Y53840
X216572Y58850
X221266Y63327
X218522Y62790
X215972Y58850
X213972Y56950
X216872Y53900
X214622Y55550
X218522Y54950
X221172Y54950
X220972Y53250
X224172Y50850
X223972Y48650
X219872Y60150
X211916Y63277
X215616Y65377
X223116Y67327
X204089Y66900
X203166Y55227
X204866Y55827
X208216Y53727
X209416Y55827
X205595Y57950
X210916Y57377
X205916Y65727
X211316Y61377
X215222Y58850
X214016Y62135
X213229Y60465
X211516Y53627
X210816Y54527
X212016Y66227
X212672Y57000
X219812Y56970
X205516Y66427
X213366Y65727
X204216Y63527
X208916Y58627
X215902Y64440
X221472Y53250
X218272Y48850
X224172Y50350
X222912Y56150
X213936Y52177
X204471Y66640
X202972Y64840
X222772Y66740
X214572Y58840
X204602Y58550
X214629Y61515
X220322Y53350
X215722Y51700
X205445Y60315
X213350Y59550
X205615Y58975
X214594Y59504
X221505Y59831
X211872Y59840
X214152Y63930
X217222Y59550
X217222Y58200
X220353Y48519
X206636Y65913
X214622Y58210
X213342Y58220
X210957Y59760
X213012Y66100
X210937Y59246
X212572Y66735
X212591Y55610
X211652Y57140
X211002Y58488
X222479Y49500
X218172Y52790
X218072Y50650
X217672Y52750
X222872Y51050
X218463Y62103
X223629Y62147
X210828Y63838
X214622Y60800
X203167Y61540
X211383Y61851
X203167Y61010
X212008Y61481
X210072Y60890
X210516Y63244
X203072Y62440
X221372Y48523
X223872Y54350
X213302Y58850
X213072Y52050
X223172Y48750
X209967Y66049
X212761Y50521
X222872Y51850
X209994Y66590
X212380Y50800
X213997Y58823
X205151Y58156
X217197Y67024
X216784Y52159
X214606Y52250
X216572Y67535
X215930Y52419
X217722Y66150
X222295Y56650
X222078Y57794
X220462Y56210
X218581Y67500
X219118Y53150
X213352Y53250
X216122Y65500
X216572Y62159
X205522Y59690
X215937Y60120
X217207Y57565
X215922Y57550
X215287Y60720
X211999Y55485
X219812Y58800
X214000Y67011
X220462Y58850
X214462Y65850
X221212Y59000
X214962Y66850
X221212Y57800
X215119Y66396
X220512Y58200
X215322Y65826
X219812Y58200
X223434Y62950
X205445Y60913
X218522Y60890
X12900Y21010
X17100Y21010
X15000Y19710
X35407Y21010
X39607Y21010
X37507Y19710
X57916Y21010
X62116Y21010
X60016Y19710
X80423Y21010
X84623Y21010
X82523Y19710
X102933Y21010
X107133Y21010
X105033Y19710
X125440Y21010
X129640Y21010
X127540Y19710
X147949Y21010
X152149Y21010
X150049Y19710
X170456Y21010
X174656Y21010
X172556Y19710
X192963Y21010
X197163Y21010
X195063Y19710
X215473Y21010
X219673Y21010
X217573Y19710
X9099Y48840
X4899Y48840
X6999Y50140
X31608Y48840
X27408Y48840
X29508Y50140
X54115Y48840
X49915Y48840
X52015Y50140
X76625Y48840
X72425Y48840
X74525Y50140
X99132Y48840
X94932Y48840
X97032Y50140
X121641Y48840
X117441Y48840
X119541Y50140
X144148Y48840
X139948Y48840
X142048Y50140
X166655Y48840
X162455Y48840
X164555Y50140
X189165Y48840
X184965Y48840
X187065Y50140
X211672Y48840
X207472Y48840
X209572Y50140
M30