G04 EAGLE Gerber RS-274X export*
G75*
%MOMM*%
%FSLAX34Y34*%
%LPD*%
%INSoldermask Top*%
%IPPOS*%
%AMOC8*
5,1,8,0,0,1.08239X$1,22.5*%
G01*
%ADD10C,0.437200*%
%ADD11C,0.505344*%
%ADD12R,0.803200X0.803200*%
%ADD13R,2.003200X1.203200*%
%ADD14R,0.903200X0.953200*%
%ADD15C,0.838200*%
%ADD16R,0.493200X1.103200*%
%ADD17R,1.103200X0.493200*%
%ADD18R,1.803200X1.803200*%
%ADD19R,2.203200X1.003200*%
%ADD20R,0.553200X1.653200*%
%ADD21C,0.555600*%
%ADD22C,1.203200*%
%ADD23C,1.270000*%
%ADD24C,1.703200*%

G36*
X52496Y478151D02*
X52496Y478151D01*
X52503Y478150D01*
X52563Y478171D01*
X52624Y478188D01*
X52628Y478194D01*
X52635Y478196D01*
X52674Y478246D01*
X52716Y478294D01*
X52717Y478301D01*
X52721Y478306D01*
X52738Y478379D01*
X52952Y481097D01*
X53584Y483729D01*
X54620Y486230D01*
X56034Y488538D01*
X57792Y490596D01*
X59850Y492354D01*
X62158Y493768D01*
X64659Y494804D01*
X67291Y495436D01*
X69989Y495648D01*
X72688Y495436D01*
X75320Y494804D01*
X77821Y493768D01*
X80129Y492354D01*
X82187Y490596D01*
X83945Y488538D01*
X85359Y486230D01*
X86395Y483729D01*
X87027Y481097D01*
X87241Y478379D01*
X87244Y478372D01*
X87242Y478365D01*
X87268Y478307D01*
X87291Y478248D01*
X87296Y478244D01*
X87299Y478237D01*
X87352Y478202D01*
X87403Y478165D01*
X87410Y478164D01*
X87416Y478160D01*
X87489Y478149D01*
X97489Y478149D01*
X97514Y478156D01*
X97540Y478154D01*
X97580Y478176D01*
X97624Y478188D01*
X97641Y478208D01*
X97664Y478220D01*
X97686Y478260D01*
X97716Y478294D01*
X97719Y478319D01*
X97732Y478342D01*
X97738Y478416D01*
X97458Y482330D01*
X97455Y482339D01*
X97453Y482365D01*
X96619Y486199D01*
X96614Y486208D01*
X96609Y486233D01*
X95238Y489909D01*
X95232Y489917D01*
X95223Y489942D01*
X93343Y493385D01*
X93336Y493392D01*
X93323Y493415D01*
X90972Y496556D01*
X90964Y496562D01*
X90949Y496583D01*
X88174Y499358D01*
X88166Y499362D01*
X88147Y499381D01*
X85006Y501732D01*
X84997Y501736D01*
X84976Y501752D01*
X81533Y503632D01*
X81523Y503634D01*
X81500Y503647D01*
X77824Y505018D01*
X77815Y505019D01*
X77790Y505028D01*
X73956Y505862D01*
X73946Y505861D01*
X73921Y505867D01*
X70007Y506147D01*
X69998Y506145D01*
X69972Y506147D01*
X66058Y505867D01*
X66049Y505864D01*
X66023Y505862D01*
X62189Y505028D01*
X62180Y505023D01*
X62155Y505018D01*
X58478Y503647D01*
X58471Y503641D01*
X58446Y503632D01*
X55002Y501752D01*
X54996Y501745D01*
X54972Y501732D01*
X51831Y499381D01*
X51826Y499373D01*
X51805Y499358D01*
X49030Y496583D01*
X49025Y496575D01*
X49007Y496556D01*
X46655Y493415D01*
X46652Y493406D01*
X46636Y493385D01*
X44756Y489942D01*
X44754Y489932D01*
X44741Y489909D01*
X43370Y486233D01*
X43369Y486224D01*
X43360Y486199D01*
X42526Y482365D01*
X42526Y482355D01*
X42521Y482330D01*
X42241Y478416D01*
X42246Y478391D01*
X42242Y478365D01*
X42261Y478324D01*
X42270Y478280D01*
X42289Y478261D01*
X42299Y478237D01*
X42337Y478212D01*
X42369Y478180D01*
X42394Y478175D01*
X42416Y478160D01*
X42489Y478149D01*
X52489Y478149D01*
X52496Y478151D01*
G37*
G36*
X952825Y478151D02*
X952825Y478151D01*
X952832Y478150D01*
X952891Y478171D01*
X952952Y478188D01*
X952957Y478194D01*
X952964Y478196D01*
X953002Y478246D01*
X953044Y478294D01*
X953045Y478301D01*
X953049Y478306D01*
X953066Y478379D01*
X953280Y481097D01*
X953912Y483729D01*
X954948Y486230D01*
X956362Y488538D01*
X958120Y490596D01*
X960179Y492354D01*
X962486Y493768D01*
X964987Y494804D01*
X967619Y495436D01*
X970318Y495648D01*
X973016Y495436D01*
X975648Y494804D01*
X978149Y493768D01*
X980457Y492354D01*
X982515Y490596D01*
X984273Y488538D01*
X985688Y486230D01*
X986724Y483729D01*
X987355Y481097D01*
X987569Y478379D01*
X987572Y478372D01*
X987571Y478365D01*
X987597Y478307D01*
X987619Y478248D01*
X987625Y478244D01*
X987628Y478237D01*
X987680Y478202D01*
X987731Y478165D01*
X987738Y478164D01*
X987744Y478160D01*
X987818Y478149D01*
X997818Y478149D01*
X997843Y478156D01*
X997869Y478154D01*
X997909Y478176D01*
X997952Y478188D01*
X997969Y478208D01*
X997992Y478220D01*
X998014Y478260D01*
X998044Y478294D01*
X998048Y478319D01*
X998061Y478342D01*
X998066Y478416D01*
X997787Y482330D01*
X997783Y482339D01*
X997781Y482365D01*
X996947Y486199D01*
X996943Y486208D01*
X996937Y486233D01*
X995566Y489909D01*
X995560Y489917D01*
X995551Y489942D01*
X993671Y493385D01*
X993664Y493392D01*
X993652Y493415D01*
X991300Y496556D01*
X991293Y496562D01*
X991277Y496583D01*
X988503Y499358D01*
X988494Y499362D01*
X988476Y499381D01*
X985335Y501732D01*
X985326Y501736D01*
X985305Y501752D01*
X981861Y503632D01*
X981852Y503634D01*
X981829Y503647D01*
X978153Y505018D01*
X978143Y505019D01*
X978118Y505028D01*
X974284Y505862D01*
X974275Y505861D01*
X974249Y505867D01*
X970336Y506147D01*
X970326Y506145D01*
X970300Y506147D01*
X966386Y505867D01*
X966377Y505864D01*
X966351Y505862D01*
X962517Y505028D01*
X962509Y505023D01*
X962483Y505018D01*
X958807Y503647D01*
X958799Y503641D01*
X958774Y503632D01*
X955331Y501752D01*
X955324Y501745D01*
X955301Y501732D01*
X952160Y499381D01*
X952154Y499373D01*
X952133Y499358D01*
X949358Y496583D01*
X949354Y496575D01*
X949335Y496556D01*
X946984Y493415D01*
X946980Y493406D01*
X946965Y493385D01*
X945084Y489942D01*
X945082Y489932D01*
X945069Y489909D01*
X943698Y486233D01*
X943698Y486224D01*
X943688Y486199D01*
X942854Y482365D01*
X942855Y482355D01*
X942849Y482330D01*
X942569Y478416D01*
X942575Y478391D01*
X942571Y478365D01*
X942589Y478324D01*
X942599Y478280D01*
X942617Y478261D01*
X942628Y478237D01*
X942665Y478212D01*
X942697Y478180D01*
X942723Y478175D01*
X942744Y478160D01*
X942818Y478149D01*
X952818Y478149D01*
X952825Y478151D01*
G37*
G36*
X1402989Y478151D02*
X1402989Y478151D01*
X1402996Y478150D01*
X1403055Y478171D01*
X1403116Y478188D01*
X1403121Y478194D01*
X1403128Y478196D01*
X1403167Y478246D01*
X1403208Y478294D01*
X1403209Y478301D01*
X1403214Y478306D01*
X1403230Y478379D01*
X1403444Y481097D01*
X1404076Y483729D01*
X1405112Y486230D01*
X1406526Y488538D01*
X1408284Y490596D01*
X1410343Y492354D01*
X1412651Y493768D01*
X1415151Y494804D01*
X1417784Y495436D01*
X1420482Y495648D01*
X1423180Y495436D01*
X1425813Y494804D01*
X1428313Y493768D01*
X1430621Y492354D01*
X1432680Y490596D01*
X1434438Y488538D01*
X1435852Y486230D01*
X1436888Y483729D01*
X1437520Y481097D01*
X1437734Y478379D01*
X1437736Y478372D01*
X1437735Y478365D01*
X1437761Y478307D01*
X1437783Y478248D01*
X1437789Y478244D01*
X1437792Y478237D01*
X1437845Y478202D01*
X1437895Y478165D01*
X1437903Y478164D01*
X1437909Y478160D01*
X1437982Y478149D01*
X1447982Y478149D01*
X1448007Y478156D01*
X1448033Y478154D01*
X1448073Y478176D01*
X1448116Y478188D01*
X1448133Y478208D01*
X1448156Y478220D01*
X1448178Y478260D01*
X1448208Y478294D01*
X1448212Y478319D01*
X1448225Y478342D01*
X1448231Y478416D01*
X1447951Y482330D01*
X1447947Y482339D01*
X1447946Y482365D01*
X1447112Y486199D01*
X1447107Y486208D01*
X1447102Y486233D01*
X1445730Y489909D01*
X1445725Y489917D01*
X1445716Y489942D01*
X1443835Y493385D01*
X1443828Y493392D01*
X1443816Y493415D01*
X1441465Y496556D01*
X1441457Y496562D01*
X1441441Y496583D01*
X1438667Y499358D01*
X1438658Y499362D01*
X1438640Y499381D01*
X1435499Y501732D01*
X1435490Y501736D01*
X1435469Y501752D01*
X1432025Y503632D01*
X1432016Y503634D01*
X1431993Y503647D01*
X1428317Y505018D01*
X1428307Y505019D01*
X1428283Y505028D01*
X1424449Y505862D01*
X1424439Y505861D01*
X1424413Y505867D01*
X1420500Y506147D01*
X1420490Y506145D01*
X1420464Y506147D01*
X1416551Y505867D01*
X1416541Y505864D01*
X1416515Y505862D01*
X1412681Y505028D01*
X1412673Y505023D01*
X1412647Y505018D01*
X1408971Y503647D01*
X1408963Y503641D01*
X1408939Y503632D01*
X1405495Y501752D01*
X1405488Y501745D01*
X1405465Y501732D01*
X1402324Y499381D01*
X1402318Y499373D01*
X1402297Y499358D01*
X1399523Y496583D01*
X1399518Y496575D01*
X1399499Y496556D01*
X1397148Y493415D01*
X1397145Y493406D01*
X1397129Y493385D01*
X1395248Y489942D01*
X1395246Y489932D01*
X1395234Y489909D01*
X1393862Y486233D01*
X1393862Y486224D01*
X1393852Y486199D01*
X1393018Y482365D01*
X1393019Y482355D01*
X1393013Y482330D01*
X1392733Y478416D01*
X1392739Y478391D01*
X1392735Y478365D01*
X1392753Y478324D01*
X1392763Y478280D01*
X1392781Y478261D01*
X1392792Y478237D01*
X1392830Y478212D01*
X1392861Y478180D01*
X1392887Y478175D01*
X1392909Y478160D01*
X1392982Y478149D01*
X1402982Y478149D01*
X1402989Y478151D01*
G37*
G36*
X502661Y478151D02*
X502661Y478151D01*
X502668Y478150D01*
X502727Y478171D01*
X502788Y478188D01*
X502793Y478194D01*
X502799Y478196D01*
X502838Y478246D01*
X502880Y478294D01*
X502881Y478301D01*
X502885Y478306D01*
X502902Y478379D01*
X503116Y481097D01*
X503748Y483729D01*
X504784Y486230D01*
X506198Y488538D01*
X507956Y490596D01*
X510014Y492354D01*
X512322Y493768D01*
X514823Y494804D01*
X517455Y495436D01*
X520154Y495648D01*
X522852Y495436D01*
X525484Y494804D01*
X527985Y493768D01*
X530293Y492354D01*
X532351Y490596D01*
X534109Y488538D01*
X535523Y486230D01*
X536559Y483729D01*
X537191Y481097D01*
X537405Y478379D01*
X537408Y478372D01*
X537407Y478365D01*
X537432Y478307D01*
X537455Y478248D01*
X537461Y478244D01*
X537463Y478237D01*
X537516Y478202D01*
X537567Y478165D01*
X537574Y478164D01*
X537580Y478160D01*
X537654Y478149D01*
X547654Y478149D01*
X547679Y478156D01*
X547705Y478154D01*
X547744Y478176D01*
X547788Y478188D01*
X547805Y478208D01*
X547828Y478220D01*
X547850Y478260D01*
X547880Y478294D01*
X547884Y478319D01*
X547896Y478342D01*
X547902Y478416D01*
X547622Y482330D01*
X547619Y482339D01*
X547617Y482365D01*
X546783Y486199D01*
X546779Y486208D01*
X546773Y486233D01*
X545402Y489909D01*
X545396Y489917D01*
X545387Y489942D01*
X543507Y493385D01*
X543500Y493392D01*
X543488Y493415D01*
X541136Y496556D01*
X541129Y496562D01*
X541113Y496583D01*
X538339Y499358D01*
X538330Y499362D01*
X538312Y499381D01*
X535171Y501732D01*
X535162Y501736D01*
X535141Y501752D01*
X531697Y503632D01*
X531688Y503634D01*
X531665Y503647D01*
X527988Y505018D01*
X527979Y505019D01*
X527954Y505028D01*
X524120Y505862D01*
X524111Y505861D01*
X524085Y505867D01*
X520171Y506147D01*
X520162Y506145D01*
X520136Y506147D01*
X516222Y505867D01*
X516213Y505864D01*
X516187Y505862D01*
X512353Y505028D01*
X512344Y505023D01*
X512319Y505018D01*
X508643Y503647D01*
X508635Y503641D01*
X508610Y503632D01*
X505167Y501752D01*
X505160Y501745D01*
X505137Y501732D01*
X501996Y499381D01*
X501990Y499373D01*
X501969Y499358D01*
X499194Y496583D01*
X499190Y496575D01*
X499171Y496556D01*
X496820Y493415D01*
X496816Y493406D01*
X496800Y493385D01*
X494920Y489942D01*
X494918Y489932D01*
X494905Y489909D01*
X493534Y486233D01*
X493533Y486224D01*
X493524Y486199D01*
X492690Y482365D01*
X492691Y482355D01*
X492685Y482330D01*
X492405Y478416D01*
X492410Y478391D01*
X492407Y478365D01*
X492425Y478324D01*
X492435Y478280D01*
X492453Y478261D01*
X492463Y478237D01*
X492501Y478212D01*
X492533Y478180D01*
X492558Y478175D01*
X492580Y478160D01*
X492654Y478149D01*
X502654Y478149D01*
X502661Y478151D01*
G37*
G36*
X277591Y478151D02*
X277591Y478151D01*
X277598Y478150D01*
X277657Y478171D01*
X277718Y478188D01*
X277723Y478194D01*
X277730Y478196D01*
X277769Y478246D01*
X277810Y478294D01*
X277811Y478301D01*
X277816Y478306D01*
X277833Y478379D01*
X278047Y481097D01*
X278679Y483729D01*
X279714Y486230D01*
X281129Y488538D01*
X282887Y490596D01*
X284945Y492354D01*
X287253Y493768D01*
X289754Y494804D01*
X292386Y495436D01*
X295084Y495648D01*
X297783Y495436D01*
X300415Y494804D01*
X302916Y493768D01*
X305224Y492354D01*
X307282Y490596D01*
X309040Y488538D01*
X310454Y486230D01*
X311490Y483729D01*
X312122Y481097D01*
X312336Y478379D01*
X312338Y478372D01*
X312337Y478365D01*
X312363Y478307D01*
X312385Y478248D01*
X312391Y478244D01*
X312394Y478237D01*
X312447Y478202D01*
X312497Y478165D01*
X312505Y478164D01*
X312511Y478160D01*
X312584Y478149D01*
X322584Y478149D01*
X322609Y478156D01*
X322635Y478154D01*
X322675Y478176D01*
X322718Y478188D01*
X322736Y478208D01*
X322758Y478220D01*
X322781Y478260D01*
X322810Y478294D01*
X322814Y478319D01*
X322827Y478342D01*
X322833Y478416D01*
X322553Y482330D01*
X322550Y482339D01*
X322548Y482365D01*
X321714Y486199D01*
X321709Y486208D01*
X321704Y486233D01*
X320333Y489909D01*
X320327Y489917D01*
X320318Y489942D01*
X318437Y493385D01*
X318431Y493392D01*
X318418Y493415D01*
X316067Y496556D01*
X316059Y496562D01*
X316044Y496583D01*
X313269Y499358D01*
X313261Y499362D01*
X313242Y499381D01*
X310101Y501732D01*
X310092Y501736D01*
X310071Y501752D01*
X306628Y503632D01*
X306618Y503634D01*
X306595Y503647D01*
X302919Y505018D01*
X302909Y505019D01*
X302885Y505028D01*
X299051Y505862D01*
X299041Y505861D01*
X299016Y505867D01*
X295102Y506147D01*
X295093Y506145D01*
X295066Y506147D01*
X291153Y505867D01*
X291144Y505864D01*
X291118Y505862D01*
X287284Y505028D01*
X287275Y505023D01*
X287249Y505018D01*
X283573Y503647D01*
X283565Y503641D01*
X283541Y503632D01*
X280097Y501752D01*
X280090Y501745D01*
X280067Y501732D01*
X276926Y499381D01*
X276920Y499373D01*
X276899Y499358D01*
X274125Y496583D01*
X274120Y496575D01*
X274102Y496556D01*
X271750Y493415D01*
X271747Y493406D01*
X271731Y493385D01*
X269851Y489942D01*
X269849Y489932D01*
X269836Y489909D01*
X268465Y486233D01*
X268464Y486224D01*
X268455Y486199D01*
X267621Y482365D01*
X267621Y482355D01*
X267615Y482330D01*
X267336Y478416D01*
X267341Y478391D01*
X267337Y478365D01*
X267356Y478324D01*
X267365Y478280D01*
X267383Y478261D01*
X267394Y478237D01*
X267432Y478212D01*
X267464Y478180D01*
X267489Y478175D01*
X267511Y478160D01*
X267584Y478149D01*
X277584Y478149D01*
X277591Y478151D01*
G37*
G36*
X1177920Y478151D02*
X1177920Y478151D01*
X1177927Y478150D01*
X1177986Y478171D01*
X1178047Y478188D01*
X1178052Y478194D01*
X1178058Y478196D01*
X1178097Y478246D01*
X1178139Y478294D01*
X1178140Y478301D01*
X1178144Y478306D01*
X1178161Y478379D01*
X1178375Y481097D01*
X1179007Y483729D01*
X1180043Y486230D01*
X1181457Y488538D01*
X1183215Y490596D01*
X1185273Y492354D01*
X1187581Y493768D01*
X1190082Y494804D01*
X1192714Y495436D01*
X1195413Y495648D01*
X1198111Y495436D01*
X1200743Y494804D01*
X1203244Y493768D01*
X1205552Y492354D01*
X1207610Y490596D01*
X1209368Y488538D01*
X1210782Y486230D01*
X1211818Y483729D01*
X1212450Y481097D01*
X1212664Y478379D01*
X1212667Y478372D01*
X1212666Y478365D01*
X1212691Y478307D01*
X1212714Y478248D01*
X1212720Y478244D01*
X1212722Y478237D01*
X1212775Y478202D01*
X1212826Y478165D01*
X1212833Y478164D01*
X1212839Y478160D01*
X1212913Y478149D01*
X1222913Y478149D01*
X1222938Y478156D01*
X1222964Y478154D01*
X1223003Y478176D01*
X1223047Y478188D01*
X1223064Y478208D01*
X1223087Y478220D01*
X1223109Y478260D01*
X1223139Y478294D01*
X1223143Y478319D01*
X1223155Y478342D01*
X1223161Y478416D01*
X1222881Y482330D01*
X1222878Y482339D01*
X1222876Y482365D01*
X1222042Y486199D01*
X1222038Y486208D01*
X1222032Y486233D01*
X1220661Y489909D01*
X1220655Y489917D01*
X1220646Y489942D01*
X1218766Y493385D01*
X1218759Y493392D01*
X1218747Y493415D01*
X1216395Y496556D01*
X1216388Y496562D01*
X1216372Y496583D01*
X1213598Y499358D01*
X1213589Y499362D01*
X1213571Y499381D01*
X1210430Y501732D01*
X1210421Y501736D01*
X1210400Y501752D01*
X1206956Y503632D01*
X1206947Y503634D01*
X1206924Y503647D01*
X1203247Y505018D01*
X1203238Y505019D01*
X1203213Y505028D01*
X1199379Y505862D01*
X1199370Y505861D01*
X1199344Y505867D01*
X1195430Y506147D01*
X1195421Y506145D01*
X1195395Y506147D01*
X1191481Y505867D01*
X1191472Y505864D01*
X1191446Y505862D01*
X1187612Y505028D01*
X1187603Y505023D01*
X1187578Y505018D01*
X1183902Y503647D01*
X1183894Y503641D01*
X1183869Y503632D01*
X1180426Y501752D01*
X1180419Y501745D01*
X1180396Y501732D01*
X1177255Y499381D01*
X1177249Y499373D01*
X1177228Y499358D01*
X1174453Y496583D01*
X1174449Y496575D01*
X1174430Y496556D01*
X1172079Y493415D01*
X1172075Y493406D01*
X1172059Y493385D01*
X1170179Y489942D01*
X1170177Y489932D01*
X1170164Y489909D01*
X1168793Y486233D01*
X1168792Y486224D01*
X1168783Y486199D01*
X1167949Y482365D01*
X1167950Y482355D01*
X1167944Y482330D01*
X1167664Y478416D01*
X1167669Y478391D01*
X1167666Y478365D01*
X1167684Y478324D01*
X1167694Y478280D01*
X1167712Y478261D01*
X1167722Y478237D01*
X1167760Y478212D01*
X1167792Y478180D01*
X1167817Y478175D01*
X1167839Y478160D01*
X1167913Y478149D01*
X1177913Y478149D01*
X1177920Y478151D01*
G37*
G36*
X727755Y478151D02*
X727755Y478151D01*
X727762Y478150D01*
X727822Y478171D01*
X727883Y478188D01*
X727887Y478194D01*
X727894Y478196D01*
X727933Y478246D01*
X727975Y478294D01*
X727976Y478301D01*
X727980Y478306D01*
X727997Y478379D01*
X728211Y481097D01*
X728843Y483729D01*
X729879Y486230D01*
X731293Y488538D01*
X733051Y490596D01*
X735109Y492354D01*
X737417Y493768D01*
X739918Y494804D01*
X742550Y495436D01*
X745248Y495648D01*
X747947Y495436D01*
X750579Y494804D01*
X753080Y493768D01*
X755388Y492354D01*
X757446Y490596D01*
X759204Y488538D01*
X760618Y486230D01*
X761654Y483729D01*
X762286Y481097D01*
X762500Y478379D01*
X762503Y478372D01*
X762501Y478365D01*
X762527Y478307D01*
X762550Y478248D01*
X762555Y478244D01*
X762558Y478237D01*
X762611Y478202D01*
X762662Y478165D01*
X762669Y478164D01*
X762675Y478160D01*
X762748Y478149D01*
X772748Y478149D01*
X772773Y478156D01*
X772799Y478154D01*
X772839Y478176D01*
X772883Y478188D01*
X772900Y478208D01*
X772923Y478220D01*
X772945Y478260D01*
X772975Y478294D01*
X772978Y478319D01*
X772991Y478342D01*
X772997Y478416D01*
X772717Y482330D01*
X772714Y482339D01*
X772712Y482365D01*
X771878Y486199D01*
X771873Y486208D01*
X771868Y486233D01*
X770497Y489909D01*
X770491Y489917D01*
X770482Y489942D01*
X768602Y493385D01*
X768595Y493392D01*
X768582Y493415D01*
X766231Y496556D01*
X766223Y496562D01*
X766208Y496583D01*
X763433Y499358D01*
X763425Y499362D01*
X763406Y499381D01*
X760265Y501732D01*
X760256Y501736D01*
X760235Y501752D01*
X756792Y503632D01*
X756782Y503634D01*
X756759Y503647D01*
X753083Y505018D01*
X753074Y505019D01*
X753049Y505028D01*
X749215Y505862D01*
X749205Y505861D01*
X749180Y505867D01*
X745266Y506147D01*
X745257Y506145D01*
X745231Y506147D01*
X741317Y505867D01*
X741308Y505864D01*
X741282Y505862D01*
X737448Y505028D01*
X737439Y505023D01*
X737414Y505018D01*
X733737Y503647D01*
X733730Y503641D01*
X733705Y503632D01*
X730261Y501752D01*
X730255Y501745D01*
X730231Y501732D01*
X727090Y499381D01*
X727085Y499373D01*
X727064Y499358D01*
X724289Y496583D01*
X724284Y496575D01*
X724266Y496556D01*
X721914Y493415D01*
X721911Y493406D01*
X721895Y493385D01*
X720015Y489942D01*
X720013Y489932D01*
X720000Y489909D01*
X718629Y486233D01*
X718628Y486224D01*
X718619Y486199D01*
X717785Y482365D01*
X717785Y482355D01*
X717780Y482330D01*
X717500Y478416D01*
X717505Y478391D01*
X717501Y478365D01*
X717520Y478324D01*
X717529Y478280D01*
X717548Y478261D01*
X717558Y478237D01*
X717596Y478212D01*
X717628Y478180D01*
X717653Y478175D01*
X717675Y478160D01*
X717748Y478149D01*
X727748Y478149D01*
X727755Y478151D01*
G37*
G36*
X1628058Y478151D02*
X1628058Y478151D01*
X1628065Y478150D01*
X1628125Y478171D01*
X1628186Y478188D01*
X1628190Y478194D01*
X1628197Y478196D01*
X1628236Y478246D01*
X1628278Y478294D01*
X1628279Y478301D01*
X1628283Y478306D01*
X1628300Y478379D01*
X1628514Y481097D01*
X1629146Y483729D01*
X1630182Y486230D01*
X1631596Y488538D01*
X1633354Y490596D01*
X1635412Y492354D01*
X1637720Y493768D01*
X1640221Y494804D01*
X1642853Y495436D01*
X1645551Y495648D01*
X1648250Y495436D01*
X1650882Y494804D01*
X1653383Y493768D01*
X1655691Y492354D01*
X1657749Y490596D01*
X1659507Y488538D01*
X1660921Y486230D01*
X1661957Y483729D01*
X1662589Y481097D01*
X1662803Y478379D01*
X1662806Y478372D01*
X1662804Y478365D01*
X1662830Y478307D01*
X1662853Y478248D01*
X1662858Y478244D01*
X1662861Y478237D01*
X1662914Y478202D01*
X1662965Y478165D01*
X1662972Y478164D01*
X1662978Y478160D01*
X1663051Y478149D01*
X1673051Y478149D01*
X1673076Y478156D01*
X1673102Y478154D01*
X1673142Y478176D01*
X1673186Y478188D01*
X1673203Y478208D01*
X1673226Y478220D01*
X1673248Y478260D01*
X1673278Y478294D01*
X1673281Y478319D01*
X1673294Y478342D01*
X1673300Y478416D01*
X1673020Y482330D01*
X1673017Y482339D01*
X1673015Y482365D01*
X1672181Y486199D01*
X1672176Y486208D01*
X1672171Y486233D01*
X1670800Y489909D01*
X1670794Y489917D01*
X1670785Y489942D01*
X1668905Y493385D01*
X1668898Y493392D01*
X1668885Y493415D01*
X1666534Y496556D01*
X1666526Y496562D01*
X1666511Y496583D01*
X1663736Y499358D01*
X1663728Y499362D01*
X1663709Y499381D01*
X1660568Y501732D01*
X1660559Y501736D01*
X1660538Y501752D01*
X1657095Y503632D01*
X1657085Y503634D01*
X1657062Y503647D01*
X1653386Y505018D01*
X1653377Y505019D01*
X1653352Y505028D01*
X1649518Y505862D01*
X1649508Y505861D01*
X1649483Y505867D01*
X1645569Y506147D01*
X1645560Y506145D01*
X1645534Y506147D01*
X1641620Y505867D01*
X1641611Y505864D01*
X1641585Y505862D01*
X1637751Y505028D01*
X1637742Y505023D01*
X1637717Y505018D01*
X1634040Y503647D01*
X1634033Y503641D01*
X1634008Y503632D01*
X1630564Y501752D01*
X1630558Y501745D01*
X1630534Y501732D01*
X1627393Y499381D01*
X1627388Y499373D01*
X1627367Y499358D01*
X1624592Y496583D01*
X1624587Y496575D01*
X1624569Y496556D01*
X1622217Y493415D01*
X1622214Y493406D01*
X1622198Y493385D01*
X1620318Y489942D01*
X1620316Y489932D01*
X1620303Y489909D01*
X1618932Y486233D01*
X1618931Y486224D01*
X1618922Y486199D01*
X1618088Y482365D01*
X1618088Y482355D01*
X1618083Y482330D01*
X1617803Y478416D01*
X1617808Y478391D01*
X1617804Y478365D01*
X1617823Y478324D01*
X1617832Y478280D01*
X1617851Y478261D01*
X1617861Y478237D01*
X1617899Y478212D01*
X1617931Y478180D01*
X1617956Y478175D01*
X1617978Y478160D01*
X1618051Y478149D01*
X1628051Y478149D01*
X1628058Y478151D01*
G37*
G36*
X1729493Y192633D02*
X1729493Y192633D01*
X1729503Y192636D01*
X1729529Y192638D01*
X1733363Y193472D01*
X1733371Y193477D01*
X1733397Y193482D01*
X1737073Y194853D01*
X1737081Y194859D01*
X1737105Y194868D01*
X1740549Y196748D01*
X1740556Y196755D01*
X1740579Y196768D01*
X1743720Y199119D01*
X1743726Y199127D01*
X1743747Y199142D01*
X1746521Y201917D01*
X1746526Y201925D01*
X1746545Y201944D01*
X1748896Y205085D01*
X1748899Y205094D01*
X1748915Y205115D01*
X1750796Y208558D01*
X1750798Y208568D01*
X1750810Y208591D01*
X1752182Y212267D01*
X1752182Y212277D01*
X1752192Y212301D01*
X1753026Y216135D01*
X1753025Y216145D01*
X1753031Y216170D01*
X1753311Y220084D01*
X1753305Y220109D01*
X1753309Y220135D01*
X1753291Y220176D01*
X1753281Y220220D01*
X1753263Y220239D01*
X1753252Y220263D01*
X1753214Y220288D01*
X1753183Y220320D01*
X1753157Y220325D01*
X1753136Y220340D01*
X1753062Y220351D01*
X1743062Y220351D01*
X1743055Y220349D01*
X1743048Y220350D01*
X1742989Y220329D01*
X1742928Y220312D01*
X1742923Y220306D01*
X1742916Y220304D01*
X1742878Y220254D01*
X1742836Y220206D01*
X1742835Y220199D01*
X1742830Y220194D01*
X1742814Y220121D01*
X1742600Y217403D01*
X1741968Y214771D01*
X1740932Y212270D01*
X1739518Y209962D01*
X1737760Y207904D01*
X1735701Y206146D01*
X1733393Y204732D01*
X1730893Y203696D01*
X1728260Y203064D01*
X1725562Y202852D01*
X1722864Y203064D01*
X1720231Y203696D01*
X1717731Y204732D01*
X1715423Y206146D01*
X1713364Y207904D01*
X1711606Y209962D01*
X1710192Y212270D01*
X1709156Y214771D01*
X1708524Y217403D01*
X1708310Y220121D01*
X1708308Y220128D01*
X1708309Y220135D01*
X1708283Y220193D01*
X1708261Y220252D01*
X1708255Y220256D01*
X1708252Y220263D01*
X1708199Y220298D01*
X1708149Y220335D01*
X1708142Y220336D01*
X1708136Y220340D01*
X1708062Y220351D01*
X1698062Y220351D01*
X1698037Y220344D01*
X1698011Y220346D01*
X1697971Y220324D01*
X1697928Y220312D01*
X1697911Y220292D01*
X1697888Y220280D01*
X1697866Y220240D01*
X1697836Y220206D01*
X1697832Y220181D01*
X1697819Y220158D01*
X1697813Y220084D01*
X1698093Y216170D01*
X1698097Y216161D01*
X1698098Y216135D01*
X1698932Y212301D01*
X1698937Y212292D01*
X1698942Y212267D01*
X1700314Y208591D01*
X1700319Y208583D01*
X1700328Y208558D01*
X1702209Y205115D01*
X1702216Y205108D01*
X1702228Y205085D01*
X1704579Y201944D01*
X1704587Y201938D01*
X1704603Y201917D01*
X1707377Y199142D01*
X1707386Y199138D01*
X1707404Y199119D01*
X1710545Y196768D01*
X1710554Y196764D01*
X1710575Y196748D01*
X1714019Y194868D01*
X1714028Y194866D01*
X1714051Y194853D01*
X1717727Y193482D01*
X1717737Y193481D01*
X1717761Y193472D01*
X1721595Y192638D01*
X1721605Y192639D01*
X1721631Y192633D01*
X1725544Y192353D01*
X1725554Y192355D01*
X1725580Y192353D01*
X1729493Y192633D01*
G37*
G36*
X1054260Y192633D02*
X1054260Y192633D01*
X1054269Y192636D01*
X1054295Y192638D01*
X1058129Y193472D01*
X1058138Y193477D01*
X1058163Y193482D01*
X1061839Y194853D01*
X1061847Y194859D01*
X1061872Y194868D01*
X1065315Y196748D01*
X1065322Y196755D01*
X1065345Y196768D01*
X1068486Y199119D01*
X1068492Y199127D01*
X1068513Y199142D01*
X1071288Y201917D01*
X1071292Y201925D01*
X1071311Y201944D01*
X1073662Y205085D01*
X1073666Y205094D01*
X1073682Y205115D01*
X1075562Y208558D01*
X1075564Y208568D01*
X1075577Y208591D01*
X1076948Y212267D01*
X1076949Y212277D01*
X1076958Y212301D01*
X1077792Y216135D01*
X1077791Y216145D01*
X1077797Y216170D01*
X1078077Y220084D01*
X1078072Y220109D01*
X1078075Y220135D01*
X1078057Y220176D01*
X1078048Y220220D01*
X1078029Y220239D01*
X1078019Y220263D01*
X1077981Y220288D01*
X1077949Y220320D01*
X1077924Y220325D01*
X1077902Y220340D01*
X1077828Y220351D01*
X1067828Y220351D01*
X1067821Y220349D01*
X1067814Y220350D01*
X1067755Y220329D01*
X1067694Y220312D01*
X1067689Y220306D01*
X1067683Y220304D01*
X1067644Y220254D01*
X1067602Y220206D01*
X1067601Y220199D01*
X1067597Y220194D01*
X1067580Y220121D01*
X1067366Y217403D01*
X1066734Y214771D01*
X1065698Y212270D01*
X1064284Y209962D01*
X1062526Y207904D01*
X1060468Y206146D01*
X1058160Y204732D01*
X1055659Y203696D01*
X1053027Y203064D01*
X1050328Y202852D01*
X1047630Y203064D01*
X1044998Y203696D01*
X1042497Y204732D01*
X1040189Y206146D01*
X1038131Y207904D01*
X1036373Y209962D01*
X1034959Y212270D01*
X1033923Y214771D01*
X1033291Y217403D01*
X1033077Y220121D01*
X1033074Y220128D01*
X1033075Y220135D01*
X1033050Y220193D01*
X1033027Y220252D01*
X1033022Y220256D01*
X1033019Y220263D01*
X1032966Y220298D01*
X1032915Y220335D01*
X1032908Y220336D01*
X1032902Y220340D01*
X1032828Y220351D01*
X1022828Y220351D01*
X1022803Y220344D01*
X1022777Y220346D01*
X1022738Y220324D01*
X1022694Y220312D01*
X1022677Y220292D01*
X1022654Y220280D01*
X1022632Y220240D01*
X1022602Y220206D01*
X1022598Y220181D01*
X1022586Y220158D01*
X1022580Y220084D01*
X1022860Y216170D01*
X1022863Y216161D01*
X1022865Y216135D01*
X1023699Y212301D01*
X1023703Y212292D01*
X1023709Y212267D01*
X1025080Y208591D01*
X1025086Y208583D01*
X1025095Y208558D01*
X1026975Y205115D01*
X1026982Y205108D01*
X1026994Y205085D01*
X1029346Y201944D01*
X1029354Y201938D01*
X1029369Y201917D01*
X1032144Y199142D01*
X1032152Y199138D01*
X1032170Y199119D01*
X1035311Y196768D01*
X1035321Y196764D01*
X1035341Y196748D01*
X1038785Y194868D01*
X1038794Y194866D01*
X1038817Y194853D01*
X1042494Y193482D01*
X1042503Y193481D01*
X1042528Y193472D01*
X1046362Y192638D01*
X1046371Y192639D01*
X1046397Y192633D01*
X1050311Y192353D01*
X1050320Y192355D01*
X1050346Y192353D01*
X1054260Y192633D01*
G37*
G36*
X829165Y192633D02*
X829165Y192633D01*
X829174Y192636D01*
X829200Y192638D01*
X833034Y193472D01*
X833043Y193477D01*
X833068Y193482D01*
X836745Y194853D01*
X836752Y194859D01*
X836777Y194868D01*
X840221Y196748D01*
X840227Y196755D01*
X840251Y196768D01*
X843392Y199119D01*
X843397Y199127D01*
X843419Y199142D01*
X846193Y201917D01*
X846198Y201925D01*
X846216Y201944D01*
X848568Y205085D01*
X848571Y205094D01*
X848587Y205115D01*
X850467Y208558D01*
X850469Y208568D01*
X850482Y208591D01*
X851853Y212267D01*
X851854Y212277D01*
X851863Y212301D01*
X852697Y216135D01*
X852697Y216145D01*
X852702Y216170D01*
X852982Y220084D01*
X852977Y220109D01*
X852981Y220135D01*
X852962Y220176D01*
X852953Y220220D01*
X852934Y220239D01*
X852924Y220263D01*
X852886Y220288D01*
X852854Y220320D01*
X852829Y220325D01*
X852807Y220340D01*
X852734Y220351D01*
X842734Y220351D01*
X842727Y220349D01*
X842720Y220350D01*
X842660Y220329D01*
X842599Y220312D01*
X842595Y220306D01*
X842588Y220304D01*
X842549Y220254D01*
X842507Y220206D01*
X842506Y220199D01*
X842502Y220194D01*
X842485Y220121D01*
X842271Y217403D01*
X841639Y214771D01*
X840603Y212270D01*
X839189Y209962D01*
X837431Y207904D01*
X835373Y206146D01*
X833065Y204732D01*
X830564Y203696D01*
X827932Y203064D01*
X825234Y202852D01*
X822535Y203064D01*
X819903Y203696D01*
X817402Y204732D01*
X815094Y206146D01*
X813036Y207904D01*
X811278Y209962D01*
X809864Y212270D01*
X808828Y214771D01*
X808196Y217403D01*
X807982Y220121D01*
X807980Y220128D01*
X807981Y220135D01*
X807955Y220193D01*
X807932Y220252D01*
X807927Y220256D01*
X807924Y220263D01*
X807871Y220298D01*
X807820Y220335D01*
X807813Y220336D01*
X807807Y220340D01*
X807734Y220351D01*
X797734Y220351D01*
X797709Y220344D01*
X797683Y220346D01*
X797643Y220324D01*
X797599Y220312D01*
X797582Y220292D01*
X797559Y220280D01*
X797537Y220240D01*
X797507Y220206D01*
X797504Y220181D01*
X797491Y220158D01*
X797485Y220084D01*
X797765Y216170D01*
X797768Y216161D01*
X797770Y216135D01*
X798604Y212301D01*
X798609Y212292D01*
X798614Y212267D01*
X799985Y208591D01*
X799991Y208583D01*
X800000Y208558D01*
X801880Y205115D01*
X801887Y205108D01*
X801900Y205085D01*
X804251Y201944D01*
X804259Y201938D01*
X804274Y201917D01*
X807049Y199142D01*
X807057Y199138D01*
X807076Y199119D01*
X810217Y196768D01*
X810226Y196764D01*
X810247Y196748D01*
X813690Y194868D01*
X813700Y194866D01*
X813723Y194853D01*
X817399Y193482D01*
X817409Y193481D01*
X817433Y193472D01*
X821267Y192638D01*
X821277Y192639D01*
X821302Y192633D01*
X825216Y192353D01*
X825225Y192355D01*
X825251Y192353D01*
X829165Y192633D01*
G37*
G36*
X1279329Y192633D02*
X1279329Y192633D01*
X1279338Y192636D01*
X1279364Y192638D01*
X1283198Y193472D01*
X1283207Y193477D01*
X1283233Y193482D01*
X1286909Y194853D01*
X1286917Y194859D01*
X1286941Y194868D01*
X1290385Y196748D01*
X1290392Y196755D01*
X1290415Y196768D01*
X1293556Y199119D01*
X1293562Y199127D01*
X1293583Y199142D01*
X1296357Y201917D01*
X1296362Y201925D01*
X1296380Y201944D01*
X1298732Y205085D01*
X1298735Y205094D01*
X1298751Y205115D01*
X1300631Y208558D01*
X1300634Y208568D01*
X1300646Y208591D01*
X1302017Y212267D01*
X1302018Y212277D01*
X1302027Y212301D01*
X1302861Y216135D01*
X1302861Y216145D01*
X1302867Y216170D01*
X1303146Y220084D01*
X1303141Y220109D01*
X1303145Y220135D01*
X1303126Y220176D01*
X1303117Y220220D01*
X1303099Y220239D01*
X1303088Y220263D01*
X1303050Y220288D01*
X1303018Y220320D01*
X1302993Y220325D01*
X1302971Y220340D01*
X1302898Y220351D01*
X1292898Y220351D01*
X1292891Y220349D01*
X1292884Y220350D01*
X1292825Y220329D01*
X1292764Y220312D01*
X1292759Y220306D01*
X1292752Y220304D01*
X1292713Y220254D01*
X1292672Y220206D01*
X1292671Y220199D01*
X1292666Y220194D01*
X1292649Y220121D01*
X1292435Y217403D01*
X1291804Y214771D01*
X1290768Y212270D01*
X1289353Y209962D01*
X1287595Y207904D01*
X1285537Y206146D01*
X1283229Y204732D01*
X1280728Y203696D01*
X1278096Y203064D01*
X1275398Y202852D01*
X1272699Y203064D01*
X1270067Y203696D01*
X1267566Y204732D01*
X1265259Y206146D01*
X1263200Y207904D01*
X1261442Y209962D01*
X1260028Y212270D01*
X1258992Y214771D01*
X1258360Y217403D01*
X1258146Y220121D01*
X1258144Y220128D01*
X1258145Y220135D01*
X1258119Y220193D01*
X1258097Y220252D01*
X1258091Y220256D01*
X1258088Y220263D01*
X1258035Y220298D01*
X1257985Y220335D01*
X1257977Y220336D01*
X1257971Y220340D01*
X1257898Y220351D01*
X1247898Y220351D01*
X1247873Y220344D01*
X1247847Y220346D01*
X1247807Y220324D01*
X1247764Y220312D01*
X1247746Y220292D01*
X1247724Y220280D01*
X1247701Y220240D01*
X1247672Y220206D01*
X1247668Y220181D01*
X1247655Y220158D01*
X1247649Y220084D01*
X1247929Y216170D01*
X1247932Y216161D01*
X1247934Y216135D01*
X1248768Y212301D01*
X1248773Y212292D01*
X1248778Y212267D01*
X1250149Y208591D01*
X1250155Y208583D01*
X1250164Y208558D01*
X1252045Y205115D01*
X1252051Y205108D01*
X1252064Y205085D01*
X1254415Y201944D01*
X1254423Y201938D01*
X1254438Y201917D01*
X1257213Y199142D01*
X1257221Y199138D01*
X1257240Y199119D01*
X1260381Y196768D01*
X1260390Y196764D01*
X1260411Y196748D01*
X1263854Y194868D01*
X1263864Y194866D01*
X1263887Y194853D01*
X1267563Y193482D01*
X1267573Y193481D01*
X1267597Y193472D01*
X1271431Y192638D01*
X1271441Y192639D01*
X1271466Y192633D01*
X1275380Y192353D01*
X1275390Y192355D01*
X1275416Y192353D01*
X1279329Y192633D01*
G37*
G36*
X1504424Y192633D02*
X1504424Y192633D01*
X1504433Y192636D01*
X1504459Y192638D01*
X1508293Y193472D01*
X1508302Y193477D01*
X1508327Y193482D01*
X1512004Y194853D01*
X1512011Y194859D01*
X1512036Y194868D01*
X1515480Y196748D01*
X1515486Y196755D01*
X1515510Y196768D01*
X1518651Y199119D01*
X1518656Y199127D01*
X1518678Y199142D01*
X1521452Y201917D01*
X1521457Y201925D01*
X1521475Y201944D01*
X1523827Y205085D01*
X1523830Y205094D01*
X1523846Y205115D01*
X1525726Y208558D01*
X1525728Y208568D01*
X1525741Y208591D01*
X1527112Y212267D01*
X1527113Y212277D01*
X1527122Y212301D01*
X1527956Y216135D01*
X1527956Y216145D01*
X1527961Y216170D01*
X1528241Y220084D01*
X1528236Y220109D01*
X1528240Y220135D01*
X1528221Y220176D01*
X1528212Y220220D01*
X1528193Y220239D01*
X1528183Y220263D01*
X1528145Y220288D01*
X1528113Y220320D01*
X1528088Y220325D01*
X1528066Y220340D01*
X1527993Y220351D01*
X1517993Y220351D01*
X1517986Y220349D01*
X1517979Y220350D01*
X1517919Y220329D01*
X1517858Y220312D01*
X1517854Y220306D01*
X1517847Y220304D01*
X1517808Y220254D01*
X1517766Y220206D01*
X1517765Y220199D01*
X1517761Y220194D01*
X1517744Y220121D01*
X1517530Y217403D01*
X1516898Y214771D01*
X1515862Y212270D01*
X1514448Y209962D01*
X1512690Y207904D01*
X1510632Y206146D01*
X1508324Y204732D01*
X1505823Y203696D01*
X1503191Y203064D01*
X1500493Y202852D01*
X1497794Y203064D01*
X1495162Y203696D01*
X1492661Y204732D01*
X1490353Y206146D01*
X1488295Y207904D01*
X1486537Y209962D01*
X1485123Y212270D01*
X1484087Y214771D01*
X1483455Y217403D01*
X1483241Y220121D01*
X1483239Y220128D01*
X1483240Y220135D01*
X1483214Y220193D01*
X1483191Y220252D01*
X1483186Y220256D01*
X1483183Y220263D01*
X1483130Y220298D01*
X1483079Y220335D01*
X1483072Y220336D01*
X1483066Y220340D01*
X1482993Y220351D01*
X1472993Y220351D01*
X1472968Y220344D01*
X1472942Y220346D01*
X1472902Y220324D01*
X1472858Y220312D01*
X1472841Y220292D01*
X1472818Y220280D01*
X1472796Y220240D01*
X1472766Y220206D01*
X1472763Y220181D01*
X1472750Y220158D01*
X1472744Y220084D01*
X1473024Y216170D01*
X1473027Y216161D01*
X1473029Y216135D01*
X1473863Y212301D01*
X1473868Y212292D01*
X1473873Y212267D01*
X1475244Y208591D01*
X1475250Y208583D01*
X1475259Y208558D01*
X1477139Y205115D01*
X1477146Y205108D01*
X1477159Y205085D01*
X1479510Y201944D01*
X1479518Y201938D01*
X1479533Y201917D01*
X1482308Y199142D01*
X1482316Y199138D01*
X1482335Y199119D01*
X1485476Y196768D01*
X1485485Y196764D01*
X1485506Y196748D01*
X1488949Y194868D01*
X1488959Y194866D01*
X1488982Y194853D01*
X1492658Y193482D01*
X1492668Y193481D01*
X1492692Y193472D01*
X1496526Y192638D01*
X1496536Y192639D01*
X1496561Y192633D01*
X1500475Y192353D01*
X1500484Y192355D01*
X1500510Y192353D01*
X1504424Y192633D01*
G37*
G36*
X604096Y192633D02*
X604096Y192633D01*
X604105Y192636D01*
X604131Y192638D01*
X607965Y193472D01*
X607973Y193477D01*
X607999Y193482D01*
X611675Y194853D01*
X611683Y194859D01*
X611708Y194868D01*
X615151Y196748D01*
X615158Y196755D01*
X615181Y196768D01*
X618322Y199119D01*
X618328Y199127D01*
X618349Y199142D01*
X621124Y201917D01*
X621128Y201925D01*
X621147Y201944D01*
X623498Y205085D01*
X623502Y205094D01*
X623517Y205115D01*
X625398Y208558D01*
X625400Y208568D01*
X625413Y208591D01*
X626784Y212267D01*
X626784Y212277D01*
X626794Y212301D01*
X627628Y216135D01*
X627627Y216145D01*
X627633Y216170D01*
X627913Y220084D01*
X627907Y220109D01*
X627911Y220135D01*
X627893Y220176D01*
X627883Y220220D01*
X627865Y220239D01*
X627854Y220263D01*
X627817Y220288D01*
X627785Y220320D01*
X627759Y220325D01*
X627738Y220340D01*
X627664Y220351D01*
X617664Y220351D01*
X617657Y220349D01*
X617650Y220350D01*
X617591Y220329D01*
X617530Y220312D01*
X617525Y220306D01*
X617518Y220304D01*
X617480Y220254D01*
X617438Y220206D01*
X617437Y220199D01*
X617433Y220194D01*
X617416Y220121D01*
X617202Y217403D01*
X616570Y214771D01*
X615534Y212270D01*
X614120Y209962D01*
X612362Y207904D01*
X610304Y206146D01*
X607996Y204732D01*
X605495Y203696D01*
X602863Y203064D01*
X600164Y202852D01*
X597466Y203064D01*
X594834Y203696D01*
X592333Y204732D01*
X590025Y206146D01*
X587967Y207904D01*
X586209Y209962D01*
X584794Y212270D01*
X583759Y214771D01*
X583127Y217403D01*
X582913Y220121D01*
X582910Y220128D01*
X582911Y220135D01*
X582885Y220193D01*
X582863Y220252D01*
X582857Y220256D01*
X582854Y220263D01*
X582802Y220298D01*
X582751Y220335D01*
X582744Y220336D01*
X582738Y220340D01*
X582664Y220351D01*
X572664Y220351D01*
X572639Y220344D01*
X572613Y220346D01*
X572573Y220324D01*
X572530Y220312D01*
X572513Y220292D01*
X572490Y220280D01*
X572468Y220240D01*
X572438Y220206D01*
X572434Y220181D01*
X572421Y220158D01*
X572416Y220084D01*
X572695Y216170D01*
X572699Y216161D01*
X572701Y216135D01*
X573535Y212301D01*
X573539Y212292D01*
X573545Y212267D01*
X574916Y208591D01*
X574922Y208583D01*
X574931Y208558D01*
X576811Y205115D01*
X576818Y205108D01*
X576830Y205085D01*
X579182Y201944D01*
X579189Y201938D01*
X579205Y201917D01*
X581979Y199142D01*
X581988Y199138D01*
X582006Y199119D01*
X585147Y196768D01*
X585156Y196764D01*
X585177Y196748D01*
X588621Y194868D01*
X588630Y194866D01*
X588653Y194853D01*
X592329Y193482D01*
X592339Y193481D01*
X592364Y193472D01*
X596198Y192638D01*
X596207Y192639D01*
X596233Y192633D01*
X600146Y192353D01*
X600156Y192355D01*
X600182Y192353D01*
X604096Y192633D01*
G37*
G36*
X379001Y192633D02*
X379001Y192633D01*
X379010Y192636D01*
X379036Y192638D01*
X382870Y193472D01*
X382879Y193477D01*
X382904Y193482D01*
X386580Y194853D01*
X386588Y194859D01*
X386613Y194868D01*
X390056Y196748D01*
X390063Y196755D01*
X390086Y196768D01*
X393227Y199119D01*
X393233Y199127D01*
X393254Y199142D01*
X396029Y201917D01*
X396033Y201925D01*
X396052Y201944D01*
X398403Y205085D01*
X398407Y205094D01*
X398423Y205115D01*
X400303Y208558D01*
X400305Y208568D01*
X400318Y208591D01*
X401689Y212267D01*
X401690Y212277D01*
X401699Y212301D01*
X402533Y216135D01*
X402532Y216145D01*
X402538Y216170D01*
X402818Y220084D01*
X402813Y220109D01*
X402816Y220135D01*
X402798Y220176D01*
X402789Y220220D01*
X402770Y220239D01*
X402760Y220263D01*
X402722Y220288D01*
X402690Y220320D01*
X402665Y220325D01*
X402643Y220340D01*
X402569Y220351D01*
X392569Y220351D01*
X392562Y220349D01*
X392555Y220350D01*
X392496Y220329D01*
X392435Y220312D01*
X392430Y220306D01*
X392424Y220304D01*
X392385Y220254D01*
X392343Y220206D01*
X392342Y220199D01*
X392338Y220194D01*
X392321Y220121D01*
X392107Y217403D01*
X391475Y214771D01*
X390439Y212270D01*
X389025Y209962D01*
X387267Y207904D01*
X385209Y206146D01*
X382901Y204732D01*
X380400Y203696D01*
X377768Y203064D01*
X375069Y202852D01*
X372371Y203064D01*
X369739Y203696D01*
X367238Y204732D01*
X364930Y206146D01*
X362872Y207904D01*
X361114Y209962D01*
X359700Y212270D01*
X358664Y214771D01*
X358032Y217403D01*
X357818Y220121D01*
X357815Y220128D01*
X357816Y220135D01*
X357791Y220193D01*
X357768Y220252D01*
X357763Y220256D01*
X357760Y220263D01*
X357707Y220298D01*
X357656Y220335D01*
X357649Y220336D01*
X357643Y220340D01*
X357569Y220351D01*
X347569Y220351D01*
X347544Y220344D01*
X347518Y220346D01*
X347479Y220324D01*
X347435Y220312D01*
X347418Y220292D01*
X347395Y220280D01*
X347373Y220240D01*
X347343Y220206D01*
X347339Y220181D01*
X347327Y220158D01*
X347321Y220084D01*
X347601Y216170D01*
X347604Y216161D01*
X347606Y216135D01*
X348440Y212301D01*
X348444Y212292D01*
X348450Y212267D01*
X349821Y208591D01*
X349827Y208583D01*
X349836Y208558D01*
X351716Y205115D01*
X351723Y205108D01*
X351735Y205085D01*
X354087Y201944D01*
X354095Y201938D01*
X354110Y201917D01*
X356885Y199142D01*
X356893Y199138D01*
X356911Y199119D01*
X360052Y196768D01*
X360062Y196764D01*
X360082Y196748D01*
X363526Y194868D01*
X363535Y194866D01*
X363558Y194853D01*
X367235Y193482D01*
X367244Y193481D01*
X367269Y193472D01*
X371103Y192638D01*
X371112Y192639D01*
X371138Y192633D01*
X375052Y192353D01*
X375061Y192355D01*
X375087Y192353D01*
X379001Y192633D01*
G37*
G36*
X153931Y192633D02*
X153931Y192633D01*
X153941Y192636D01*
X153967Y192638D01*
X157801Y193472D01*
X157809Y193477D01*
X157835Y193482D01*
X161511Y194853D01*
X161519Y194859D01*
X161543Y194868D01*
X164987Y196748D01*
X164994Y196755D01*
X165017Y196768D01*
X168158Y199119D01*
X168164Y199127D01*
X168185Y199142D01*
X170959Y201917D01*
X170964Y201925D01*
X170983Y201944D01*
X173334Y205085D01*
X173337Y205094D01*
X173353Y205115D01*
X175234Y208558D01*
X175236Y208568D01*
X175248Y208591D01*
X176620Y212267D01*
X176620Y212277D01*
X176630Y212301D01*
X177464Y216135D01*
X177463Y216145D01*
X177469Y216170D01*
X177749Y220084D01*
X177743Y220109D01*
X177747Y220135D01*
X177729Y220176D01*
X177719Y220220D01*
X177701Y220239D01*
X177690Y220263D01*
X177652Y220288D01*
X177621Y220320D01*
X177595Y220325D01*
X177574Y220340D01*
X177500Y220351D01*
X167500Y220351D01*
X167493Y220349D01*
X167486Y220350D01*
X167427Y220329D01*
X167366Y220312D01*
X167361Y220306D01*
X167354Y220304D01*
X167316Y220254D01*
X167274Y220206D01*
X167273Y220199D01*
X167268Y220194D01*
X167252Y220121D01*
X167038Y217403D01*
X166406Y214771D01*
X165370Y212270D01*
X163956Y209962D01*
X162198Y207904D01*
X160139Y206146D01*
X157831Y204732D01*
X155331Y203696D01*
X152698Y203064D01*
X150000Y202852D01*
X147302Y203064D01*
X144669Y203696D01*
X142169Y204732D01*
X139861Y206146D01*
X137802Y207904D01*
X136044Y209962D01*
X134630Y212270D01*
X133594Y214771D01*
X132962Y217403D01*
X132748Y220121D01*
X132746Y220128D01*
X132747Y220135D01*
X132721Y220193D01*
X132699Y220252D01*
X132693Y220256D01*
X132690Y220263D01*
X132637Y220298D01*
X132587Y220335D01*
X132580Y220336D01*
X132574Y220340D01*
X132500Y220351D01*
X122500Y220351D01*
X122475Y220344D01*
X122449Y220346D01*
X122409Y220324D01*
X122366Y220312D01*
X122349Y220292D01*
X122326Y220280D01*
X122304Y220240D01*
X122274Y220206D01*
X122270Y220181D01*
X122257Y220158D01*
X122251Y220084D01*
X122531Y216170D01*
X122535Y216161D01*
X122536Y216135D01*
X123370Y212301D01*
X123375Y212292D01*
X123380Y212267D01*
X124752Y208591D01*
X124757Y208583D01*
X124766Y208558D01*
X126647Y205115D01*
X126654Y205108D01*
X126666Y205085D01*
X129017Y201944D01*
X129025Y201938D01*
X129041Y201917D01*
X131815Y199142D01*
X131824Y199138D01*
X131842Y199119D01*
X134983Y196768D01*
X134992Y196764D01*
X135013Y196748D01*
X138457Y194868D01*
X138466Y194866D01*
X138489Y194853D01*
X142165Y193482D01*
X142175Y193481D01*
X142199Y193472D01*
X146033Y192638D01*
X146043Y192639D01*
X146069Y192633D01*
X149982Y192353D01*
X149992Y192355D01*
X150018Y192353D01*
X153931Y192633D01*
G37*
D10*
X37750Y67752D03*
X37750Y74252D03*
X44250Y67752D03*
X44250Y74252D03*
X37750Y80752D03*
X37750Y87252D03*
X44250Y80752D03*
X44250Y87252D03*
X37750Y93752D03*
X37750Y100252D03*
X44250Y93752D03*
X44250Y100252D03*
X37750Y106752D03*
X37750Y113252D03*
X44250Y106752D03*
X44250Y113252D03*
X37750Y119752D03*
X44250Y119752D03*
X37750Y126252D03*
X37750Y132752D03*
X44250Y126252D03*
X44250Y132752D03*
X37750Y139252D03*
X37750Y145752D03*
X44250Y139252D03*
X44250Y145752D03*
X37750Y152252D03*
X44250Y152252D03*
X50750Y67752D03*
X57250Y67752D03*
X63750Y67752D03*
X70250Y67752D03*
X76750Y67752D03*
X83250Y67752D03*
X89750Y67752D03*
X96250Y67752D03*
X102750Y67752D03*
X109250Y67752D03*
X115750Y67752D03*
X122250Y67752D03*
X50750Y74252D03*
X57250Y74252D03*
X63750Y74252D03*
X70250Y74252D03*
X76750Y74252D03*
X83250Y74252D03*
X89750Y74252D03*
X96250Y74252D03*
X102750Y74252D03*
X109250Y74252D03*
X115750Y74252D03*
X122250Y74252D03*
X50750Y80752D03*
X57250Y80752D03*
X63750Y80752D03*
X70250Y80752D03*
X76750Y80752D03*
X83250Y80752D03*
X89750Y80752D03*
X96250Y80752D03*
X102750Y80752D03*
X109250Y80752D03*
X115750Y80752D03*
X122250Y80752D03*
X50750Y87252D03*
X57250Y87252D03*
X63750Y87252D03*
X70250Y87252D03*
X76750Y87252D03*
X83250Y87252D03*
X89750Y87252D03*
X96250Y87252D03*
X102750Y87252D03*
X109250Y87252D03*
X115750Y87252D03*
X122250Y87252D03*
X50750Y93752D03*
X57250Y93752D03*
X63750Y93752D03*
X70250Y93752D03*
X76750Y93752D03*
X83250Y93752D03*
X89750Y93752D03*
X96250Y93752D03*
X102750Y93752D03*
X109250Y93752D03*
X115750Y93752D03*
X122250Y93752D03*
X50750Y100252D03*
X57250Y100252D03*
X63750Y100252D03*
X70250Y100252D03*
X76750Y100252D03*
X83250Y100252D03*
X89750Y100252D03*
X96250Y100252D03*
X102750Y100252D03*
X109250Y100252D03*
X115750Y100252D03*
X122250Y100252D03*
X50750Y106752D03*
X57250Y106752D03*
X63750Y106752D03*
X70250Y106752D03*
X76750Y106752D03*
X83250Y106752D03*
X89750Y106752D03*
X96250Y106752D03*
X102750Y106752D03*
X109250Y106752D03*
X115750Y106752D03*
X122250Y106752D03*
X50750Y113252D03*
X57250Y113252D03*
X63750Y113252D03*
X70250Y113252D03*
X76750Y113252D03*
X83250Y113252D03*
X89750Y113252D03*
X96250Y113252D03*
X102750Y113252D03*
X109250Y113252D03*
X115750Y113252D03*
X122250Y113252D03*
X50750Y119752D03*
X57250Y119752D03*
X63750Y119752D03*
X70250Y119752D03*
X76750Y119752D03*
X83250Y119752D03*
X89750Y119752D03*
X96250Y119752D03*
X102750Y119752D03*
X109250Y119752D03*
X115750Y119752D03*
X122250Y119752D03*
X50750Y126252D03*
X57250Y126252D03*
X63750Y126252D03*
X70250Y126252D03*
X76750Y126252D03*
X83250Y126252D03*
X89750Y126252D03*
X96250Y126252D03*
X102750Y126252D03*
X109250Y126252D03*
X115750Y126252D03*
X122250Y126252D03*
X50750Y132752D03*
X57250Y132752D03*
X63750Y132752D03*
X70250Y132752D03*
X76750Y132752D03*
X83250Y132752D03*
X89750Y132752D03*
X96250Y132752D03*
X102750Y132752D03*
X109250Y132752D03*
X115750Y132752D03*
X122250Y132752D03*
X50750Y139252D03*
X57250Y139252D03*
X63750Y139252D03*
X70250Y139252D03*
X76750Y139252D03*
X83250Y139252D03*
X89750Y139252D03*
X96250Y139252D03*
X102750Y139252D03*
X109250Y139252D03*
X115750Y139252D03*
X122250Y139252D03*
X50750Y145752D03*
X57250Y145752D03*
X63750Y145752D03*
X70250Y145752D03*
X76750Y145752D03*
X83250Y145752D03*
X89750Y145752D03*
X96250Y145752D03*
X102750Y145752D03*
X109250Y145752D03*
X115750Y145752D03*
X122250Y145752D03*
X50750Y152252D03*
X57250Y152252D03*
X63750Y152252D03*
X70250Y152252D03*
X76750Y152252D03*
X83250Y152252D03*
X89750Y152252D03*
X96250Y152252D03*
X102750Y152252D03*
X109250Y152252D03*
X115750Y152252D03*
X122250Y152252D03*
D11*
X194720Y206512D02*
X194720Y213492D01*
X194720Y206512D02*
X187740Y206512D01*
X187740Y213492D01*
X194720Y213492D01*
X194720Y211312D02*
X187740Y211312D01*
X212260Y213492D02*
X212260Y206512D01*
X205280Y206512D01*
X205280Y213492D01*
X212260Y213492D01*
X212260Y211312D02*
X205280Y211312D01*
D12*
X210000Y105002D03*
X210000Y95002D03*
D13*
X176000Y152502D03*
X176000Y127502D03*
D12*
X190000Y155002D03*
X190000Y145002D03*
X190000Y125002D03*
X190000Y135002D03*
X136500Y145002D03*
X136500Y135002D03*
X146000Y120002D03*
X156000Y120002D03*
X146000Y159002D03*
X156000Y159002D03*
D14*
X146000Y133252D03*
X146000Y146752D03*
X156000Y146752D03*
X156000Y133252D03*
D12*
X10000Y185002D03*
X10000Y175002D03*
X182800Y101602D03*
X172800Y101602D03*
X182800Y114302D03*
X172800Y114302D03*
D15*
X210000Y50002D03*
X23000Y213002D03*
D16*
X32500Y175002D03*
X37500Y175002D03*
X42500Y175002D03*
X47500Y175002D03*
D17*
X55000Y182502D03*
X55000Y187502D03*
X55000Y192502D03*
X55000Y197502D03*
D16*
X47500Y205002D03*
X42500Y205002D03*
X37500Y205002D03*
X32500Y205002D03*
D17*
X25000Y197652D03*
X25000Y192502D03*
X25000Y187502D03*
X25000Y182502D03*
D18*
X40000Y190002D03*
D12*
X115000Y210002D03*
X105000Y210002D03*
D11*
X85280Y206512D02*
X85280Y213492D01*
X92260Y213492D01*
X92260Y206512D01*
X85280Y206512D01*
X85280Y211312D02*
X92260Y211312D01*
X67740Y213492D02*
X67740Y206512D01*
X67740Y213492D02*
X74720Y213492D01*
X74720Y206512D01*
X67740Y206512D01*
X67740Y211312D02*
X74720Y211312D01*
D12*
X10000Y195002D03*
X10000Y205002D03*
D19*
X162500Y64602D03*
X162500Y82602D03*
D20*
X202500Y12852D03*
X197500Y12852D03*
X192500Y12852D03*
X187500Y12852D03*
X182500Y12852D03*
X177500Y12852D03*
X172500Y12852D03*
X167500Y12852D03*
X162500Y12852D03*
X157500Y12852D03*
X152500Y12852D03*
X147500Y12852D03*
X122500Y12852D03*
X117500Y12852D03*
X112500Y12852D03*
X107500Y12852D03*
X102500Y12852D03*
X97500Y12852D03*
X92500Y12852D03*
X87500Y12852D03*
X82500Y12852D03*
X77500Y12852D03*
X72500Y12852D03*
X67500Y12852D03*
X62500Y12852D03*
X57500Y12852D03*
X52500Y12852D03*
X47500Y12852D03*
X42500Y12852D03*
X37500Y12852D03*
X32500Y12852D03*
X27500Y12852D03*
X22500Y12852D03*
X17500Y12852D03*
D21*
X129000Y210102D03*
X171000Y210102D03*
X150000Y197102D03*
D10*
X262819Y67752D03*
X262819Y74252D03*
X269319Y67752D03*
X269319Y74252D03*
X262819Y80752D03*
X262819Y87252D03*
X269319Y80752D03*
X269319Y87252D03*
X262819Y93752D03*
X262819Y100252D03*
X269319Y93752D03*
X269319Y100252D03*
X262819Y106752D03*
X262819Y113252D03*
X269319Y106752D03*
X269319Y113252D03*
X262819Y119752D03*
X269319Y119752D03*
X262819Y126252D03*
X262819Y132752D03*
X269319Y126252D03*
X269319Y132752D03*
X262819Y139252D03*
X262819Y145752D03*
X269319Y139252D03*
X269319Y145752D03*
X262819Y152252D03*
X269319Y152252D03*
X275819Y67752D03*
X282319Y67752D03*
X288819Y67752D03*
X295319Y67752D03*
X301819Y67752D03*
X308319Y67752D03*
X314819Y67752D03*
X321319Y67752D03*
X327819Y67752D03*
X334319Y67752D03*
X340819Y67752D03*
X347319Y67752D03*
X275819Y74252D03*
X282319Y74252D03*
X288819Y74252D03*
X295319Y74252D03*
X301819Y74252D03*
X308319Y74252D03*
X314819Y74252D03*
X321319Y74252D03*
X327819Y74252D03*
X334319Y74252D03*
X340819Y74252D03*
X347319Y74252D03*
X275819Y80752D03*
X282319Y80752D03*
X288819Y80752D03*
X295319Y80752D03*
X301819Y80752D03*
X308319Y80752D03*
X314819Y80752D03*
X321319Y80752D03*
X327819Y80752D03*
X334319Y80752D03*
X340819Y80752D03*
X347319Y80752D03*
X275819Y87252D03*
X282319Y87252D03*
X288819Y87252D03*
X295319Y87252D03*
X301819Y87252D03*
X308319Y87252D03*
X314819Y87252D03*
X321319Y87252D03*
X327819Y87252D03*
X334319Y87252D03*
X340819Y87252D03*
X347319Y87252D03*
X275819Y93752D03*
X282319Y93752D03*
X288819Y93752D03*
X295319Y93752D03*
X301819Y93752D03*
X308319Y93752D03*
X314819Y93752D03*
X321319Y93752D03*
X327819Y93752D03*
X334319Y93752D03*
X340819Y93752D03*
X347319Y93752D03*
X275819Y100252D03*
X282319Y100252D03*
X288819Y100252D03*
X295319Y100252D03*
X301819Y100252D03*
X308319Y100252D03*
X314819Y100252D03*
X321319Y100252D03*
X327819Y100252D03*
X334319Y100252D03*
X340819Y100252D03*
X347319Y100252D03*
X275819Y106752D03*
X282319Y106752D03*
X288819Y106752D03*
X295319Y106752D03*
X301819Y106752D03*
X308319Y106752D03*
X314819Y106752D03*
X321319Y106752D03*
X327819Y106752D03*
X334319Y106752D03*
X340819Y106752D03*
X347319Y106752D03*
X275819Y113252D03*
X282319Y113252D03*
X288819Y113252D03*
X295319Y113252D03*
X301819Y113252D03*
X308319Y113252D03*
X314819Y113252D03*
X321319Y113252D03*
X327819Y113252D03*
X334319Y113252D03*
X340819Y113252D03*
X347319Y113252D03*
X275819Y119752D03*
X282319Y119752D03*
X288819Y119752D03*
X295319Y119752D03*
X301819Y119752D03*
X308319Y119752D03*
X314819Y119752D03*
X321319Y119752D03*
X327819Y119752D03*
X334319Y119752D03*
X340819Y119752D03*
X347319Y119752D03*
X275819Y126252D03*
X282319Y126252D03*
X288819Y126252D03*
X295319Y126252D03*
X301819Y126252D03*
X308319Y126252D03*
X314819Y126252D03*
X321319Y126252D03*
X327819Y126252D03*
X334319Y126252D03*
X340819Y126252D03*
X347319Y126252D03*
X275819Y132752D03*
X282319Y132752D03*
X288819Y132752D03*
X295319Y132752D03*
X301819Y132752D03*
X308319Y132752D03*
X314819Y132752D03*
X321319Y132752D03*
X327819Y132752D03*
X334319Y132752D03*
X340819Y132752D03*
X347319Y132752D03*
X275819Y139252D03*
X282319Y139252D03*
X288819Y139252D03*
X295319Y139252D03*
X301819Y139252D03*
X308319Y139252D03*
X314819Y139252D03*
X321319Y139252D03*
X327819Y139252D03*
X334319Y139252D03*
X340819Y139252D03*
X347319Y139252D03*
X275819Y145752D03*
X282319Y145752D03*
X288819Y145752D03*
X295319Y145752D03*
X301819Y145752D03*
X308319Y145752D03*
X314819Y145752D03*
X321319Y145752D03*
X327819Y145752D03*
X334319Y145752D03*
X340819Y145752D03*
X347319Y145752D03*
X275819Y152252D03*
X282319Y152252D03*
X288819Y152252D03*
X295319Y152252D03*
X301819Y152252D03*
X308319Y152252D03*
X314819Y152252D03*
X321319Y152252D03*
X327819Y152252D03*
X334319Y152252D03*
X340819Y152252D03*
X347319Y152252D03*
D11*
X419789Y206512D02*
X419789Y213492D01*
X419789Y206512D02*
X412809Y206512D01*
X412809Y213492D01*
X419789Y213492D01*
X419789Y211312D02*
X412809Y211312D01*
X437329Y213492D02*
X437329Y206512D01*
X430349Y206512D01*
X430349Y213492D01*
X437329Y213492D01*
X437329Y211312D02*
X430349Y211312D01*
D12*
X435069Y105002D03*
X435069Y95002D03*
D13*
X401069Y152502D03*
X401069Y127502D03*
D12*
X415069Y155002D03*
X415069Y145002D03*
X415069Y125002D03*
X415069Y135002D03*
X361569Y145002D03*
X361569Y135002D03*
X371069Y120002D03*
X381069Y120002D03*
X371069Y159002D03*
X381069Y159002D03*
D14*
X371069Y133252D03*
X371069Y146752D03*
X381069Y146752D03*
X381069Y133252D03*
D12*
X235069Y185002D03*
X235069Y175002D03*
X407869Y101602D03*
X397869Y101602D03*
X407869Y114302D03*
X397869Y114302D03*
D15*
X435069Y50002D03*
X248069Y213002D03*
D16*
X257569Y175002D03*
X262569Y175002D03*
X267569Y175002D03*
X272569Y175002D03*
D17*
X280069Y182502D03*
X280069Y187502D03*
X280069Y192502D03*
X280069Y197502D03*
D16*
X272569Y205002D03*
X267569Y205002D03*
X262569Y205002D03*
X257569Y205002D03*
D17*
X250069Y197652D03*
X250069Y192502D03*
X250069Y187502D03*
X250069Y182502D03*
D18*
X265069Y190002D03*
D12*
X340069Y210002D03*
X330069Y210002D03*
D11*
X310349Y206512D02*
X310349Y213492D01*
X317329Y213492D01*
X317329Y206512D01*
X310349Y206512D01*
X310349Y211312D02*
X317329Y211312D01*
X292809Y213492D02*
X292809Y206512D01*
X292809Y213492D02*
X299789Y213492D01*
X299789Y206512D01*
X292809Y206512D01*
X292809Y211312D02*
X299789Y211312D01*
D12*
X235069Y195002D03*
X235069Y205002D03*
D19*
X387569Y64602D03*
X387569Y82602D03*
D20*
X427569Y12852D03*
X422569Y12852D03*
X417569Y12852D03*
X412569Y12852D03*
X407569Y12852D03*
X402569Y12852D03*
X397569Y12852D03*
X392569Y12852D03*
X387569Y12852D03*
X382569Y12852D03*
X377569Y12852D03*
X372569Y12852D03*
X347569Y12852D03*
X342569Y12852D03*
X337569Y12852D03*
X332569Y12852D03*
X327569Y12852D03*
X322569Y12852D03*
X317569Y12852D03*
X312569Y12852D03*
X307569Y12852D03*
X302569Y12852D03*
X297569Y12852D03*
X292569Y12852D03*
X287569Y12852D03*
X282569Y12852D03*
X277569Y12852D03*
X272569Y12852D03*
X267569Y12852D03*
X262569Y12852D03*
X257569Y12852D03*
X252569Y12852D03*
X247569Y12852D03*
X242569Y12852D03*
D21*
X354069Y210102D03*
X396069Y210102D03*
X375069Y197102D03*
D10*
X487914Y67752D03*
X487914Y74252D03*
X494414Y67752D03*
X494414Y74252D03*
X487914Y80752D03*
X487914Y87252D03*
X494414Y80752D03*
X494414Y87252D03*
X487914Y93752D03*
X487914Y100252D03*
X494414Y93752D03*
X494414Y100252D03*
X487914Y106752D03*
X487914Y113252D03*
X494414Y106752D03*
X494414Y113252D03*
X487914Y119752D03*
X494414Y119752D03*
X487914Y126252D03*
X487914Y132752D03*
X494414Y126252D03*
X494414Y132752D03*
X487914Y139252D03*
X487914Y145752D03*
X494414Y139252D03*
X494414Y145752D03*
X487914Y152252D03*
X494414Y152252D03*
X500914Y67752D03*
X507414Y67752D03*
X513914Y67752D03*
X520414Y67752D03*
X526914Y67752D03*
X533414Y67752D03*
X539914Y67752D03*
X546414Y67752D03*
X552914Y67752D03*
X559414Y67752D03*
X565914Y67752D03*
X572414Y67752D03*
X500914Y74252D03*
X507414Y74252D03*
X513914Y74252D03*
X520414Y74252D03*
X526914Y74252D03*
X533414Y74252D03*
X539914Y74252D03*
X546414Y74252D03*
X552914Y74252D03*
X559414Y74252D03*
X565914Y74252D03*
X572414Y74252D03*
X500914Y80752D03*
X507414Y80752D03*
X513914Y80752D03*
X520414Y80752D03*
X526914Y80752D03*
X533414Y80752D03*
X539914Y80752D03*
X546414Y80752D03*
X552914Y80752D03*
X559414Y80752D03*
X565914Y80752D03*
X572414Y80752D03*
X500914Y87252D03*
X507414Y87252D03*
X513914Y87252D03*
X520414Y87252D03*
X526914Y87252D03*
X533414Y87252D03*
X539914Y87252D03*
X546414Y87252D03*
X552914Y87252D03*
X559414Y87252D03*
X565914Y87252D03*
X572414Y87252D03*
X500914Y93752D03*
X507414Y93752D03*
X513914Y93752D03*
X520414Y93752D03*
X526914Y93752D03*
X533414Y93752D03*
X539914Y93752D03*
X546414Y93752D03*
X552914Y93752D03*
X559414Y93752D03*
X565914Y93752D03*
X572414Y93752D03*
X500914Y100252D03*
X507414Y100252D03*
X513914Y100252D03*
X520414Y100252D03*
X526914Y100252D03*
X533414Y100252D03*
X539914Y100252D03*
X546414Y100252D03*
X552914Y100252D03*
X559414Y100252D03*
X565914Y100252D03*
X572414Y100252D03*
X500914Y106752D03*
X507414Y106752D03*
X513914Y106752D03*
X520414Y106752D03*
X526914Y106752D03*
X533414Y106752D03*
X539914Y106752D03*
X546414Y106752D03*
X552914Y106752D03*
X559414Y106752D03*
X565914Y106752D03*
X572414Y106752D03*
X500914Y113252D03*
X507414Y113252D03*
X513914Y113252D03*
X520414Y113252D03*
X526914Y113252D03*
X533414Y113252D03*
X539914Y113252D03*
X546414Y113252D03*
X552914Y113252D03*
X559414Y113252D03*
X565914Y113252D03*
X572414Y113252D03*
X500914Y119752D03*
X507414Y119752D03*
X513914Y119752D03*
X520414Y119752D03*
X526914Y119752D03*
X533414Y119752D03*
X539914Y119752D03*
X546414Y119752D03*
X552914Y119752D03*
X559414Y119752D03*
X565914Y119752D03*
X572414Y119752D03*
X500914Y126252D03*
X507414Y126252D03*
X513914Y126252D03*
X520414Y126252D03*
X526914Y126252D03*
X533414Y126252D03*
X539914Y126252D03*
X546414Y126252D03*
X552914Y126252D03*
X559414Y126252D03*
X565914Y126252D03*
X572414Y126252D03*
X500914Y132752D03*
X507414Y132752D03*
X513914Y132752D03*
X520414Y132752D03*
X526914Y132752D03*
X533414Y132752D03*
X539914Y132752D03*
X546414Y132752D03*
X552914Y132752D03*
X559414Y132752D03*
X565914Y132752D03*
X572414Y132752D03*
X500914Y139252D03*
X507414Y139252D03*
X513914Y139252D03*
X520414Y139252D03*
X526914Y139252D03*
X533414Y139252D03*
X539914Y139252D03*
X546414Y139252D03*
X552914Y139252D03*
X559414Y139252D03*
X565914Y139252D03*
X572414Y139252D03*
X500914Y145752D03*
X507414Y145752D03*
X513914Y145752D03*
X520414Y145752D03*
X526914Y145752D03*
X533414Y145752D03*
X539914Y145752D03*
X546414Y145752D03*
X552914Y145752D03*
X559414Y145752D03*
X565914Y145752D03*
X572414Y145752D03*
X500914Y152252D03*
X507414Y152252D03*
X513914Y152252D03*
X520414Y152252D03*
X526914Y152252D03*
X533414Y152252D03*
X539914Y152252D03*
X546414Y152252D03*
X552914Y152252D03*
X559414Y152252D03*
X565914Y152252D03*
X572414Y152252D03*
D11*
X644884Y206512D02*
X644884Y213492D01*
X644884Y206512D02*
X637904Y206512D01*
X637904Y213492D01*
X644884Y213492D01*
X644884Y211312D02*
X637904Y211312D01*
X662424Y213492D02*
X662424Y206512D01*
X655444Y206512D01*
X655444Y213492D01*
X662424Y213492D01*
X662424Y211312D02*
X655444Y211312D01*
D12*
X660164Y105002D03*
X660164Y95002D03*
D13*
X626164Y152502D03*
X626164Y127502D03*
D12*
X640164Y155002D03*
X640164Y145002D03*
X640164Y125002D03*
X640164Y135002D03*
X586664Y145002D03*
X586664Y135002D03*
X596164Y120002D03*
X606164Y120002D03*
X596164Y159002D03*
X606164Y159002D03*
D14*
X596164Y133252D03*
X596164Y146752D03*
X606164Y146752D03*
X606164Y133252D03*
D12*
X460164Y185002D03*
X460164Y175002D03*
X632964Y101602D03*
X622964Y101602D03*
X632964Y114302D03*
X622964Y114302D03*
D15*
X660164Y50002D03*
X473164Y213002D03*
D16*
X482664Y175002D03*
X487664Y175002D03*
X492664Y175002D03*
X497664Y175002D03*
D17*
X505164Y182502D03*
X505164Y187502D03*
X505164Y192502D03*
X505164Y197502D03*
D16*
X497664Y205002D03*
X492664Y205002D03*
X487664Y205002D03*
X482664Y205002D03*
D17*
X475164Y197652D03*
X475164Y192502D03*
X475164Y187502D03*
X475164Y182502D03*
D18*
X490164Y190002D03*
D12*
X565164Y210002D03*
X555164Y210002D03*
D11*
X535444Y206512D02*
X535444Y213492D01*
X542424Y213492D01*
X542424Y206512D01*
X535444Y206512D01*
X535444Y211312D02*
X542424Y211312D01*
X517904Y213492D02*
X517904Y206512D01*
X517904Y213492D02*
X524884Y213492D01*
X524884Y206512D01*
X517904Y206512D01*
X517904Y211312D02*
X524884Y211312D01*
D12*
X460164Y195002D03*
X460164Y205002D03*
D19*
X612664Y64602D03*
X612664Y82602D03*
D20*
X652664Y12852D03*
X647664Y12852D03*
X642664Y12852D03*
X637664Y12852D03*
X632664Y12852D03*
X627664Y12852D03*
X622664Y12852D03*
X617664Y12852D03*
X612664Y12852D03*
X607664Y12852D03*
X602664Y12852D03*
X597664Y12852D03*
X572664Y12852D03*
X567664Y12852D03*
X562664Y12852D03*
X557664Y12852D03*
X552664Y12852D03*
X547664Y12852D03*
X542664Y12852D03*
X537664Y12852D03*
X532664Y12852D03*
X527664Y12852D03*
X522664Y12852D03*
X517664Y12852D03*
X512664Y12852D03*
X507664Y12852D03*
X502664Y12852D03*
X497664Y12852D03*
X492664Y12852D03*
X487664Y12852D03*
X482664Y12852D03*
X477664Y12852D03*
X472664Y12852D03*
X467664Y12852D03*
D21*
X579164Y210102D03*
X621164Y210102D03*
X600164Y197102D03*
D10*
X712984Y67752D03*
X712984Y74252D03*
X719484Y67752D03*
X719484Y74252D03*
X712984Y80752D03*
X712984Y87252D03*
X719484Y80752D03*
X719484Y87252D03*
X712984Y93752D03*
X712984Y100252D03*
X719484Y93752D03*
X719484Y100252D03*
X712984Y106752D03*
X712984Y113252D03*
X719484Y106752D03*
X719484Y113252D03*
X712984Y119752D03*
X719484Y119752D03*
X712984Y126252D03*
X712984Y132752D03*
X719484Y126252D03*
X719484Y132752D03*
X712984Y139252D03*
X712984Y145752D03*
X719484Y139252D03*
X719484Y145752D03*
X712984Y152252D03*
X719484Y152252D03*
X725984Y67752D03*
X732484Y67752D03*
X738984Y67752D03*
X745484Y67752D03*
X751984Y67752D03*
X758484Y67752D03*
X764984Y67752D03*
X771484Y67752D03*
X777984Y67752D03*
X784484Y67752D03*
X790984Y67752D03*
X797484Y67752D03*
X725984Y74252D03*
X732484Y74252D03*
X738984Y74252D03*
X745484Y74252D03*
X751984Y74252D03*
X758484Y74252D03*
X764984Y74252D03*
X771484Y74252D03*
X777984Y74252D03*
X784484Y74252D03*
X790984Y74252D03*
X797484Y74252D03*
X725984Y80752D03*
X732484Y80752D03*
X738984Y80752D03*
X745484Y80752D03*
X751984Y80752D03*
X758484Y80752D03*
X764984Y80752D03*
X771484Y80752D03*
X777984Y80752D03*
X784484Y80752D03*
X790984Y80752D03*
X797484Y80752D03*
X725984Y87252D03*
X732484Y87252D03*
X738984Y87252D03*
X745484Y87252D03*
X751984Y87252D03*
X758484Y87252D03*
X764984Y87252D03*
X771484Y87252D03*
X777984Y87252D03*
X784484Y87252D03*
X790984Y87252D03*
X797484Y87252D03*
X725984Y93752D03*
X732484Y93752D03*
X738984Y93752D03*
X745484Y93752D03*
X751984Y93752D03*
X758484Y93752D03*
X764984Y93752D03*
X771484Y93752D03*
X777984Y93752D03*
X784484Y93752D03*
X790984Y93752D03*
X797484Y93752D03*
X725984Y100252D03*
X732484Y100252D03*
X738984Y100252D03*
X745484Y100252D03*
X751984Y100252D03*
X758484Y100252D03*
X764984Y100252D03*
X771484Y100252D03*
X777984Y100252D03*
X784484Y100252D03*
X790984Y100252D03*
X797484Y100252D03*
X725984Y106752D03*
X732484Y106752D03*
X738984Y106752D03*
X745484Y106752D03*
X751984Y106752D03*
X758484Y106752D03*
X764984Y106752D03*
X771484Y106752D03*
X777984Y106752D03*
X784484Y106752D03*
X790984Y106752D03*
X797484Y106752D03*
X725984Y113252D03*
X732484Y113252D03*
X738984Y113252D03*
X745484Y113252D03*
X751984Y113252D03*
X758484Y113252D03*
X764984Y113252D03*
X771484Y113252D03*
X777984Y113252D03*
X784484Y113252D03*
X790984Y113252D03*
X797484Y113252D03*
X725984Y119752D03*
X732484Y119752D03*
X738984Y119752D03*
X745484Y119752D03*
X751984Y119752D03*
X758484Y119752D03*
X764984Y119752D03*
X771484Y119752D03*
X777984Y119752D03*
X784484Y119752D03*
X790984Y119752D03*
X797484Y119752D03*
X725984Y126252D03*
X732484Y126252D03*
X738984Y126252D03*
X745484Y126252D03*
X751984Y126252D03*
X758484Y126252D03*
X764984Y126252D03*
X771484Y126252D03*
X777984Y126252D03*
X784484Y126252D03*
X790984Y126252D03*
X797484Y126252D03*
X725984Y132752D03*
X732484Y132752D03*
X738984Y132752D03*
X745484Y132752D03*
X751984Y132752D03*
X758484Y132752D03*
X764984Y132752D03*
X771484Y132752D03*
X777984Y132752D03*
X784484Y132752D03*
X790984Y132752D03*
X797484Y132752D03*
X725984Y139252D03*
X732484Y139252D03*
X738984Y139252D03*
X745484Y139252D03*
X751984Y139252D03*
X758484Y139252D03*
X764984Y139252D03*
X771484Y139252D03*
X777984Y139252D03*
X784484Y139252D03*
X790984Y139252D03*
X797484Y139252D03*
X725984Y145752D03*
X732484Y145752D03*
X738984Y145752D03*
X745484Y145752D03*
X751984Y145752D03*
X758484Y145752D03*
X764984Y145752D03*
X771484Y145752D03*
X777984Y145752D03*
X784484Y145752D03*
X790984Y145752D03*
X797484Y145752D03*
X725984Y152252D03*
X732484Y152252D03*
X738984Y152252D03*
X745484Y152252D03*
X751984Y152252D03*
X758484Y152252D03*
X764984Y152252D03*
X771484Y152252D03*
X777984Y152252D03*
X784484Y152252D03*
X790984Y152252D03*
X797484Y152252D03*
D11*
X869954Y206512D02*
X869954Y213492D01*
X869954Y206512D02*
X862974Y206512D01*
X862974Y213492D01*
X869954Y213492D01*
X869954Y211312D02*
X862974Y211312D01*
X887494Y213492D02*
X887494Y206512D01*
X880514Y206512D01*
X880514Y213492D01*
X887494Y213492D01*
X887494Y211312D02*
X880514Y211312D01*
D12*
X885234Y105002D03*
X885234Y95002D03*
D13*
X851234Y152502D03*
X851234Y127502D03*
D12*
X865234Y155002D03*
X865234Y145002D03*
X865234Y125002D03*
X865234Y135002D03*
X811734Y145002D03*
X811734Y135002D03*
X821234Y120002D03*
X831234Y120002D03*
X821234Y159002D03*
X831234Y159002D03*
D14*
X821234Y133252D03*
X821234Y146752D03*
X831234Y146752D03*
X831234Y133252D03*
D12*
X685234Y185002D03*
X685234Y175002D03*
X858034Y101602D03*
X848034Y101602D03*
X858034Y114302D03*
X848034Y114302D03*
D15*
X885234Y50002D03*
X698234Y213002D03*
D16*
X707734Y175002D03*
X712734Y175002D03*
X717734Y175002D03*
X722734Y175002D03*
D17*
X730234Y182502D03*
X730234Y187502D03*
X730234Y192502D03*
X730234Y197502D03*
D16*
X722734Y205002D03*
X717734Y205002D03*
X712734Y205002D03*
X707734Y205002D03*
D17*
X700234Y197652D03*
X700234Y192502D03*
X700234Y187502D03*
X700234Y182502D03*
D18*
X715234Y190002D03*
D12*
X790234Y210002D03*
X780234Y210002D03*
D11*
X760514Y206512D02*
X760514Y213492D01*
X767494Y213492D01*
X767494Y206512D01*
X760514Y206512D01*
X760514Y211312D02*
X767494Y211312D01*
X742974Y213492D02*
X742974Y206512D01*
X742974Y213492D02*
X749954Y213492D01*
X749954Y206512D01*
X742974Y206512D01*
X742974Y211312D02*
X749954Y211312D01*
D12*
X685234Y195002D03*
X685234Y205002D03*
D19*
X837734Y64602D03*
X837734Y82602D03*
D20*
X877734Y12852D03*
X872734Y12852D03*
X867734Y12852D03*
X862734Y12852D03*
X857734Y12852D03*
X852734Y12852D03*
X847734Y12852D03*
X842734Y12852D03*
X837734Y12852D03*
X832734Y12852D03*
X827734Y12852D03*
X822734Y12852D03*
X797734Y12852D03*
X792734Y12852D03*
X787734Y12852D03*
X782734Y12852D03*
X777734Y12852D03*
X772734Y12852D03*
X767734Y12852D03*
X762734Y12852D03*
X757734Y12852D03*
X752734Y12852D03*
X747734Y12852D03*
X742734Y12852D03*
X737734Y12852D03*
X732734Y12852D03*
X727734Y12852D03*
X722734Y12852D03*
X717734Y12852D03*
X712734Y12852D03*
X707734Y12852D03*
X702734Y12852D03*
X697734Y12852D03*
X692734Y12852D03*
D21*
X804234Y210102D03*
X846234Y210102D03*
X825234Y197102D03*
D10*
X938078Y67752D03*
X938078Y74252D03*
X944578Y67752D03*
X944578Y74252D03*
X938078Y80752D03*
X938078Y87252D03*
X944578Y80752D03*
X944578Y87252D03*
X938078Y93752D03*
X938078Y100252D03*
X944578Y93752D03*
X944578Y100252D03*
X938078Y106752D03*
X938078Y113252D03*
X944578Y106752D03*
X944578Y113252D03*
X938078Y119752D03*
X944578Y119752D03*
X938078Y126252D03*
X938078Y132752D03*
X944578Y126252D03*
X944578Y132752D03*
X938078Y139252D03*
X938078Y145752D03*
X944578Y139252D03*
X944578Y145752D03*
X938078Y152252D03*
X944578Y152252D03*
X951078Y67752D03*
X957578Y67752D03*
X964078Y67752D03*
X970578Y67752D03*
X977078Y67752D03*
X983578Y67752D03*
X990078Y67752D03*
X996578Y67752D03*
X1003078Y67752D03*
X1009578Y67752D03*
X1016078Y67752D03*
X1022578Y67752D03*
X951078Y74252D03*
X957578Y74252D03*
X964078Y74252D03*
X970578Y74252D03*
X977078Y74252D03*
X983578Y74252D03*
X990078Y74252D03*
X996578Y74252D03*
X1003078Y74252D03*
X1009578Y74252D03*
X1016078Y74252D03*
X1022578Y74252D03*
X951078Y80752D03*
X957578Y80752D03*
X964078Y80752D03*
X970578Y80752D03*
X977078Y80752D03*
X983578Y80752D03*
X990078Y80752D03*
X996578Y80752D03*
X1003078Y80752D03*
X1009578Y80752D03*
X1016078Y80752D03*
X1022578Y80752D03*
X951078Y87252D03*
X957578Y87252D03*
X964078Y87252D03*
X970578Y87252D03*
X977078Y87252D03*
X983578Y87252D03*
X990078Y87252D03*
X996578Y87252D03*
X1003078Y87252D03*
X1009578Y87252D03*
X1016078Y87252D03*
X1022578Y87252D03*
X951078Y93752D03*
X957578Y93752D03*
X964078Y93752D03*
X970578Y93752D03*
X977078Y93752D03*
X983578Y93752D03*
X990078Y93752D03*
X996578Y93752D03*
X1003078Y93752D03*
X1009578Y93752D03*
X1016078Y93752D03*
X1022578Y93752D03*
X951078Y100252D03*
X957578Y100252D03*
X964078Y100252D03*
X970578Y100252D03*
X977078Y100252D03*
X983578Y100252D03*
X990078Y100252D03*
X996578Y100252D03*
X1003078Y100252D03*
X1009578Y100252D03*
X1016078Y100252D03*
X1022578Y100252D03*
X951078Y106752D03*
X957578Y106752D03*
X964078Y106752D03*
X970578Y106752D03*
X977078Y106752D03*
X983578Y106752D03*
X990078Y106752D03*
X996578Y106752D03*
X1003078Y106752D03*
X1009578Y106752D03*
X1016078Y106752D03*
X1022578Y106752D03*
X951078Y113252D03*
X957578Y113252D03*
X964078Y113252D03*
X970578Y113252D03*
X977078Y113252D03*
X983578Y113252D03*
X990078Y113252D03*
X996578Y113252D03*
X1003078Y113252D03*
X1009578Y113252D03*
X1016078Y113252D03*
X1022578Y113252D03*
X951078Y119752D03*
X957578Y119752D03*
X964078Y119752D03*
X970578Y119752D03*
X977078Y119752D03*
X983578Y119752D03*
X990078Y119752D03*
X996578Y119752D03*
X1003078Y119752D03*
X1009578Y119752D03*
X1016078Y119752D03*
X1022578Y119752D03*
X951078Y126252D03*
X957578Y126252D03*
X964078Y126252D03*
X970578Y126252D03*
X977078Y126252D03*
X983578Y126252D03*
X990078Y126252D03*
X996578Y126252D03*
X1003078Y126252D03*
X1009578Y126252D03*
X1016078Y126252D03*
X1022578Y126252D03*
X951078Y132752D03*
X957578Y132752D03*
X964078Y132752D03*
X970578Y132752D03*
X977078Y132752D03*
X983578Y132752D03*
X990078Y132752D03*
X996578Y132752D03*
X1003078Y132752D03*
X1009578Y132752D03*
X1016078Y132752D03*
X1022578Y132752D03*
X951078Y139252D03*
X957578Y139252D03*
X964078Y139252D03*
X970578Y139252D03*
X977078Y139252D03*
X983578Y139252D03*
X990078Y139252D03*
X996578Y139252D03*
X1003078Y139252D03*
X1009578Y139252D03*
X1016078Y139252D03*
X1022578Y139252D03*
X951078Y145752D03*
X957578Y145752D03*
X964078Y145752D03*
X970578Y145752D03*
X977078Y145752D03*
X983578Y145752D03*
X990078Y145752D03*
X996578Y145752D03*
X1003078Y145752D03*
X1009578Y145752D03*
X1016078Y145752D03*
X1022578Y145752D03*
X951078Y152252D03*
X957578Y152252D03*
X964078Y152252D03*
X970578Y152252D03*
X977078Y152252D03*
X983578Y152252D03*
X990078Y152252D03*
X996578Y152252D03*
X1003078Y152252D03*
X1009578Y152252D03*
X1016078Y152252D03*
X1022578Y152252D03*
D11*
X1095048Y206512D02*
X1095048Y213492D01*
X1095048Y206512D02*
X1088068Y206512D01*
X1088068Y213492D01*
X1095048Y213492D01*
X1095048Y211312D02*
X1088068Y211312D01*
X1112588Y213492D02*
X1112588Y206512D01*
X1105608Y206512D01*
X1105608Y213492D01*
X1112588Y213492D01*
X1112588Y211312D02*
X1105608Y211312D01*
D12*
X1110328Y105002D03*
X1110328Y95002D03*
D13*
X1076328Y152502D03*
X1076328Y127502D03*
D12*
X1090328Y155002D03*
X1090328Y145002D03*
X1090328Y125002D03*
X1090328Y135002D03*
X1036828Y145002D03*
X1036828Y135002D03*
X1046328Y120002D03*
X1056328Y120002D03*
X1046328Y159002D03*
X1056328Y159002D03*
D14*
X1046328Y133252D03*
X1046328Y146752D03*
X1056328Y146752D03*
X1056328Y133252D03*
D12*
X910328Y185002D03*
X910328Y175002D03*
X1083128Y101602D03*
X1073128Y101602D03*
X1083128Y114302D03*
X1073128Y114302D03*
D15*
X1110328Y50002D03*
X923328Y213002D03*
D16*
X932828Y175002D03*
X937828Y175002D03*
X942828Y175002D03*
X947828Y175002D03*
D17*
X955328Y182502D03*
X955328Y187502D03*
X955328Y192502D03*
X955328Y197502D03*
D16*
X947828Y205002D03*
X942828Y205002D03*
X937828Y205002D03*
X932828Y205002D03*
D17*
X925328Y197652D03*
X925328Y192502D03*
X925328Y187502D03*
X925328Y182502D03*
D18*
X940328Y190002D03*
D12*
X1015328Y210002D03*
X1005328Y210002D03*
D11*
X985608Y206512D02*
X985608Y213492D01*
X992588Y213492D01*
X992588Y206512D01*
X985608Y206512D01*
X985608Y211312D02*
X992588Y211312D01*
X968068Y213492D02*
X968068Y206512D01*
X968068Y213492D02*
X975048Y213492D01*
X975048Y206512D01*
X968068Y206512D01*
X968068Y211312D02*
X975048Y211312D01*
D12*
X910328Y195002D03*
X910328Y205002D03*
D19*
X1062828Y64602D03*
X1062828Y82602D03*
D20*
X1102828Y12852D03*
X1097828Y12852D03*
X1092828Y12852D03*
X1087828Y12852D03*
X1082828Y12852D03*
X1077828Y12852D03*
X1072828Y12852D03*
X1067828Y12852D03*
X1062828Y12852D03*
X1057828Y12852D03*
X1052828Y12852D03*
X1047828Y12852D03*
X1022828Y12852D03*
X1017828Y12852D03*
X1012828Y12852D03*
X1007828Y12852D03*
X1002828Y12852D03*
X997828Y12852D03*
X992828Y12852D03*
X987828Y12852D03*
X982828Y12852D03*
X977828Y12852D03*
X972828Y12852D03*
X967828Y12852D03*
X962828Y12852D03*
X957828Y12852D03*
X952828Y12852D03*
X947828Y12852D03*
X942828Y12852D03*
X937828Y12852D03*
X932828Y12852D03*
X927828Y12852D03*
X922828Y12852D03*
X917828Y12852D03*
D21*
X1029328Y210102D03*
X1071328Y210102D03*
X1050328Y197102D03*
D10*
X1163148Y67752D03*
X1163148Y74252D03*
X1169648Y67752D03*
X1169648Y74252D03*
X1163148Y80752D03*
X1163148Y87252D03*
X1169648Y80752D03*
X1169648Y87252D03*
X1163148Y93752D03*
X1163148Y100252D03*
X1169648Y93752D03*
X1169648Y100252D03*
X1163148Y106752D03*
X1163148Y113252D03*
X1169648Y106752D03*
X1169648Y113252D03*
X1163148Y119752D03*
X1169648Y119752D03*
X1163148Y126252D03*
X1163148Y132752D03*
X1169648Y126252D03*
X1169648Y132752D03*
X1163148Y139252D03*
X1163148Y145752D03*
X1169648Y139252D03*
X1169648Y145752D03*
X1163148Y152252D03*
X1169648Y152252D03*
X1176148Y67752D03*
X1182648Y67752D03*
X1189148Y67752D03*
X1195648Y67752D03*
X1202148Y67752D03*
X1208648Y67752D03*
X1215148Y67752D03*
X1221648Y67752D03*
X1228148Y67752D03*
X1234648Y67752D03*
X1241148Y67752D03*
X1247648Y67752D03*
X1176148Y74252D03*
X1182648Y74252D03*
X1189148Y74252D03*
X1195648Y74252D03*
X1202148Y74252D03*
X1208648Y74252D03*
X1215148Y74252D03*
X1221648Y74252D03*
X1228148Y74252D03*
X1234648Y74252D03*
X1241148Y74252D03*
X1247648Y74252D03*
X1176148Y80752D03*
X1182648Y80752D03*
X1189148Y80752D03*
X1195648Y80752D03*
X1202148Y80752D03*
X1208648Y80752D03*
X1215148Y80752D03*
X1221648Y80752D03*
X1228148Y80752D03*
X1234648Y80752D03*
X1241148Y80752D03*
X1247648Y80752D03*
X1176148Y87252D03*
X1182648Y87252D03*
X1189148Y87252D03*
X1195648Y87252D03*
X1202148Y87252D03*
X1208648Y87252D03*
X1215148Y87252D03*
X1221648Y87252D03*
X1228148Y87252D03*
X1234648Y87252D03*
X1241148Y87252D03*
X1247648Y87252D03*
X1176148Y93752D03*
X1182648Y93752D03*
X1189148Y93752D03*
X1195648Y93752D03*
X1202148Y93752D03*
X1208648Y93752D03*
X1215148Y93752D03*
X1221648Y93752D03*
X1228148Y93752D03*
X1234648Y93752D03*
X1241148Y93752D03*
X1247648Y93752D03*
X1176148Y100252D03*
X1182648Y100252D03*
X1189148Y100252D03*
X1195648Y100252D03*
X1202148Y100252D03*
X1208648Y100252D03*
X1215148Y100252D03*
X1221648Y100252D03*
X1228148Y100252D03*
X1234648Y100252D03*
X1241148Y100252D03*
X1247648Y100252D03*
X1176148Y106752D03*
X1182648Y106752D03*
X1189148Y106752D03*
X1195648Y106752D03*
X1202148Y106752D03*
X1208648Y106752D03*
X1215148Y106752D03*
X1221648Y106752D03*
X1228148Y106752D03*
X1234648Y106752D03*
X1241148Y106752D03*
X1247648Y106752D03*
X1176148Y113252D03*
X1182648Y113252D03*
X1189148Y113252D03*
X1195648Y113252D03*
X1202148Y113252D03*
X1208648Y113252D03*
X1215148Y113252D03*
X1221648Y113252D03*
X1228148Y113252D03*
X1234648Y113252D03*
X1241148Y113252D03*
X1247648Y113252D03*
X1176148Y119752D03*
X1182648Y119752D03*
X1189148Y119752D03*
X1195648Y119752D03*
X1202148Y119752D03*
X1208648Y119752D03*
X1215148Y119752D03*
X1221648Y119752D03*
X1228148Y119752D03*
X1234648Y119752D03*
X1241148Y119752D03*
X1247648Y119752D03*
X1176148Y126252D03*
X1182648Y126252D03*
X1189148Y126252D03*
X1195648Y126252D03*
X1202148Y126252D03*
X1208648Y126252D03*
X1215148Y126252D03*
X1221648Y126252D03*
X1228148Y126252D03*
X1234648Y126252D03*
X1241148Y126252D03*
X1247648Y126252D03*
X1176148Y132752D03*
X1182648Y132752D03*
X1189148Y132752D03*
X1195648Y132752D03*
X1202148Y132752D03*
X1208648Y132752D03*
X1215148Y132752D03*
X1221648Y132752D03*
X1228148Y132752D03*
X1234648Y132752D03*
X1241148Y132752D03*
X1247648Y132752D03*
X1176148Y139252D03*
X1182648Y139252D03*
X1189148Y139252D03*
X1195648Y139252D03*
X1202148Y139252D03*
X1208648Y139252D03*
X1215148Y139252D03*
X1221648Y139252D03*
X1228148Y139252D03*
X1234648Y139252D03*
X1241148Y139252D03*
X1247648Y139252D03*
X1176148Y145752D03*
X1182648Y145752D03*
X1189148Y145752D03*
X1195648Y145752D03*
X1202148Y145752D03*
X1208648Y145752D03*
X1215148Y145752D03*
X1221648Y145752D03*
X1228148Y145752D03*
X1234648Y145752D03*
X1241148Y145752D03*
X1247648Y145752D03*
X1176148Y152252D03*
X1182648Y152252D03*
X1189148Y152252D03*
X1195648Y152252D03*
X1202148Y152252D03*
X1208648Y152252D03*
X1215148Y152252D03*
X1221648Y152252D03*
X1228148Y152252D03*
X1234648Y152252D03*
X1241148Y152252D03*
X1247648Y152252D03*
D11*
X1320118Y206512D02*
X1320118Y213492D01*
X1320118Y206512D02*
X1313138Y206512D01*
X1313138Y213492D01*
X1320118Y213492D01*
X1320118Y211312D02*
X1313138Y211312D01*
X1337658Y213492D02*
X1337658Y206512D01*
X1330678Y206512D01*
X1330678Y213492D01*
X1337658Y213492D01*
X1337658Y211312D02*
X1330678Y211312D01*
D12*
X1335398Y105002D03*
X1335398Y95002D03*
D13*
X1301398Y152502D03*
X1301398Y127502D03*
D12*
X1315398Y155002D03*
X1315398Y145002D03*
X1315398Y125002D03*
X1315398Y135002D03*
X1261898Y145002D03*
X1261898Y135002D03*
X1271398Y120002D03*
X1281398Y120002D03*
X1271398Y159002D03*
X1281398Y159002D03*
D14*
X1271398Y133252D03*
X1271398Y146752D03*
X1281398Y146752D03*
X1281398Y133252D03*
D12*
X1135398Y185002D03*
X1135398Y175002D03*
X1308198Y101602D03*
X1298198Y101602D03*
X1308198Y114302D03*
X1298198Y114302D03*
D15*
X1335398Y50002D03*
X1148398Y213002D03*
D16*
X1157898Y175002D03*
X1162898Y175002D03*
X1167898Y175002D03*
X1172898Y175002D03*
D17*
X1180398Y182502D03*
X1180398Y187502D03*
X1180398Y192502D03*
X1180398Y197502D03*
D16*
X1172898Y205002D03*
X1167898Y205002D03*
X1162898Y205002D03*
X1157898Y205002D03*
D17*
X1150398Y197652D03*
X1150398Y192502D03*
X1150398Y187502D03*
X1150398Y182502D03*
D18*
X1165398Y190002D03*
D12*
X1240398Y210002D03*
X1230398Y210002D03*
D11*
X1210678Y206512D02*
X1210678Y213492D01*
X1217658Y213492D01*
X1217658Y206512D01*
X1210678Y206512D01*
X1210678Y211312D02*
X1217658Y211312D01*
X1193138Y213492D02*
X1193138Y206512D01*
X1193138Y213492D02*
X1200118Y213492D01*
X1200118Y206512D01*
X1193138Y206512D01*
X1193138Y211312D02*
X1200118Y211312D01*
D12*
X1135398Y195002D03*
X1135398Y205002D03*
D19*
X1287898Y64602D03*
X1287898Y82602D03*
D20*
X1327898Y12852D03*
X1322898Y12852D03*
X1317898Y12852D03*
X1312898Y12852D03*
X1307898Y12852D03*
X1302898Y12852D03*
X1297898Y12852D03*
X1292898Y12852D03*
X1287898Y12852D03*
X1282898Y12852D03*
X1277898Y12852D03*
X1272898Y12852D03*
X1247898Y12852D03*
X1242898Y12852D03*
X1237898Y12852D03*
X1232898Y12852D03*
X1227898Y12852D03*
X1222898Y12852D03*
X1217898Y12852D03*
X1212898Y12852D03*
X1207898Y12852D03*
X1202898Y12852D03*
X1197898Y12852D03*
X1192898Y12852D03*
X1187898Y12852D03*
X1182898Y12852D03*
X1177898Y12852D03*
X1172898Y12852D03*
X1167898Y12852D03*
X1162898Y12852D03*
X1157898Y12852D03*
X1152898Y12852D03*
X1147898Y12852D03*
X1142898Y12852D03*
D21*
X1254398Y210102D03*
X1296398Y210102D03*
X1275398Y197102D03*
D10*
X1388243Y67752D03*
X1388243Y74252D03*
X1394743Y67752D03*
X1394743Y74252D03*
X1388243Y80752D03*
X1388243Y87252D03*
X1394743Y80752D03*
X1394743Y87252D03*
X1388243Y93752D03*
X1388243Y100252D03*
X1394743Y93752D03*
X1394743Y100252D03*
X1388243Y106752D03*
X1388243Y113252D03*
X1394743Y106752D03*
X1394743Y113252D03*
X1388243Y119752D03*
X1394743Y119752D03*
X1388243Y126252D03*
X1388243Y132752D03*
X1394743Y126252D03*
X1394743Y132752D03*
X1388243Y139252D03*
X1388243Y145752D03*
X1394743Y139252D03*
X1394743Y145752D03*
X1388243Y152252D03*
X1394743Y152252D03*
X1401243Y67752D03*
X1407743Y67752D03*
X1414243Y67752D03*
X1420743Y67752D03*
X1427243Y67752D03*
X1433743Y67752D03*
X1440243Y67752D03*
X1446743Y67752D03*
X1453243Y67752D03*
X1459743Y67752D03*
X1466243Y67752D03*
X1472743Y67752D03*
X1401243Y74252D03*
X1407743Y74252D03*
X1414243Y74252D03*
X1420743Y74252D03*
X1427243Y74252D03*
X1433743Y74252D03*
X1440243Y74252D03*
X1446743Y74252D03*
X1453243Y74252D03*
X1459743Y74252D03*
X1466243Y74252D03*
X1472743Y74252D03*
X1401243Y80752D03*
X1407743Y80752D03*
X1414243Y80752D03*
X1420743Y80752D03*
X1427243Y80752D03*
X1433743Y80752D03*
X1440243Y80752D03*
X1446743Y80752D03*
X1453243Y80752D03*
X1459743Y80752D03*
X1466243Y80752D03*
X1472743Y80752D03*
X1401243Y87252D03*
X1407743Y87252D03*
X1414243Y87252D03*
X1420743Y87252D03*
X1427243Y87252D03*
X1433743Y87252D03*
X1440243Y87252D03*
X1446743Y87252D03*
X1453243Y87252D03*
X1459743Y87252D03*
X1466243Y87252D03*
X1472743Y87252D03*
X1401243Y93752D03*
X1407743Y93752D03*
X1414243Y93752D03*
X1420743Y93752D03*
X1427243Y93752D03*
X1433743Y93752D03*
X1440243Y93752D03*
X1446743Y93752D03*
X1453243Y93752D03*
X1459743Y93752D03*
X1466243Y93752D03*
X1472743Y93752D03*
X1401243Y100252D03*
X1407743Y100252D03*
X1414243Y100252D03*
X1420743Y100252D03*
X1427243Y100252D03*
X1433743Y100252D03*
X1440243Y100252D03*
X1446743Y100252D03*
X1453243Y100252D03*
X1459743Y100252D03*
X1466243Y100252D03*
X1472743Y100252D03*
X1401243Y106752D03*
X1407743Y106752D03*
X1414243Y106752D03*
X1420743Y106752D03*
X1427243Y106752D03*
X1433743Y106752D03*
X1440243Y106752D03*
X1446743Y106752D03*
X1453243Y106752D03*
X1459743Y106752D03*
X1466243Y106752D03*
X1472743Y106752D03*
X1401243Y113252D03*
X1407743Y113252D03*
X1414243Y113252D03*
X1420743Y113252D03*
X1427243Y113252D03*
X1433743Y113252D03*
X1440243Y113252D03*
X1446743Y113252D03*
X1453243Y113252D03*
X1459743Y113252D03*
X1466243Y113252D03*
X1472743Y113252D03*
X1401243Y119752D03*
X1407743Y119752D03*
X1414243Y119752D03*
X1420743Y119752D03*
X1427243Y119752D03*
X1433743Y119752D03*
X1440243Y119752D03*
X1446743Y119752D03*
X1453243Y119752D03*
X1459743Y119752D03*
X1466243Y119752D03*
X1472743Y119752D03*
X1401243Y126252D03*
X1407743Y126252D03*
X1414243Y126252D03*
X1420743Y126252D03*
X1427243Y126252D03*
X1433743Y126252D03*
X1440243Y126252D03*
X1446743Y126252D03*
X1453243Y126252D03*
X1459743Y126252D03*
X1466243Y126252D03*
X1472743Y126252D03*
X1401243Y132752D03*
X1407743Y132752D03*
X1414243Y132752D03*
X1420743Y132752D03*
X1427243Y132752D03*
X1433743Y132752D03*
X1440243Y132752D03*
X1446743Y132752D03*
X1453243Y132752D03*
X1459743Y132752D03*
X1466243Y132752D03*
X1472743Y132752D03*
X1401243Y139252D03*
X1407743Y139252D03*
X1414243Y139252D03*
X1420743Y139252D03*
X1427243Y139252D03*
X1433743Y139252D03*
X1440243Y139252D03*
X1446743Y139252D03*
X1453243Y139252D03*
X1459743Y139252D03*
X1466243Y139252D03*
X1472743Y139252D03*
X1401243Y145752D03*
X1407743Y145752D03*
X1414243Y145752D03*
X1420743Y145752D03*
X1427243Y145752D03*
X1433743Y145752D03*
X1440243Y145752D03*
X1446743Y145752D03*
X1453243Y145752D03*
X1459743Y145752D03*
X1466243Y145752D03*
X1472743Y145752D03*
X1401243Y152252D03*
X1407743Y152252D03*
X1414243Y152252D03*
X1420743Y152252D03*
X1427243Y152252D03*
X1433743Y152252D03*
X1440243Y152252D03*
X1446743Y152252D03*
X1453243Y152252D03*
X1459743Y152252D03*
X1466243Y152252D03*
X1472743Y152252D03*
D11*
X1545213Y206512D02*
X1545213Y213492D01*
X1545213Y206512D02*
X1538233Y206512D01*
X1538233Y213492D01*
X1545213Y213492D01*
X1545213Y211312D02*
X1538233Y211312D01*
X1562753Y213492D02*
X1562753Y206512D01*
X1555773Y206512D01*
X1555773Y213492D01*
X1562753Y213492D01*
X1562753Y211312D02*
X1555773Y211312D01*
D12*
X1560493Y105002D03*
X1560493Y95002D03*
D13*
X1526493Y152502D03*
X1526493Y127502D03*
D12*
X1540493Y155002D03*
X1540493Y145002D03*
X1540493Y125002D03*
X1540493Y135002D03*
X1486993Y145002D03*
X1486993Y135002D03*
X1496493Y120002D03*
X1506493Y120002D03*
X1496493Y159002D03*
X1506493Y159002D03*
D14*
X1496493Y133252D03*
X1496493Y146752D03*
X1506493Y146752D03*
X1506493Y133252D03*
D12*
X1360493Y185002D03*
X1360493Y175002D03*
X1533293Y101602D03*
X1523293Y101602D03*
X1533293Y114302D03*
X1523293Y114302D03*
D15*
X1560493Y50002D03*
X1373493Y213002D03*
D16*
X1382993Y175002D03*
X1387993Y175002D03*
X1392993Y175002D03*
X1397993Y175002D03*
D17*
X1405493Y182502D03*
X1405493Y187502D03*
X1405493Y192502D03*
X1405493Y197502D03*
D16*
X1397993Y205002D03*
X1392993Y205002D03*
X1387993Y205002D03*
X1382993Y205002D03*
D17*
X1375493Y197652D03*
X1375493Y192502D03*
X1375493Y187502D03*
X1375493Y182502D03*
D18*
X1390493Y190002D03*
D12*
X1465493Y210002D03*
X1455493Y210002D03*
D11*
X1435773Y206512D02*
X1435773Y213492D01*
X1442753Y213492D01*
X1442753Y206512D01*
X1435773Y206512D01*
X1435773Y211312D02*
X1442753Y211312D01*
X1418233Y213492D02*
X1418233Y206512D01*
X1418233Y213492D02*
X1425213Y213492D01*
X1425213Y206512D01*
X1418233Y206512D01*
X1418233Y211312D02*
X1425213Y211312D01*
D12*
X1360493Y195002D03*
X1360493Y205002D03*
D19*
X1512993Y64602D03*
X1512993Y82602D03*
D20*
X1552993Y12852D03*
X1547993Y12852D03*
X1542993Y12852D03*
X1537993Y12852D03*
X1532993Y12852D03*
X1527993Y12852D03*
X1522993Y12852D03*
X1517993Y12852D03*
X1512993Y12852D03*
X1507993Y12852D03*
X1502993Y12852D03*
X1497993Y12852D03*
X1472993Y12852D03*
X1467993Y12852D03*
X1462993Y12852D03*
X1457993Y12852D03*
X1452993Y12852D03*
X1447993Y12852D03*
X1442993Y12852D03*
X1437993Y12852D03*
X1432993Y12852D03*
X1427993Y12852D03*
X1422993Y12852D03*
X1417993Y12852D03*
X1412993Y12852D03*
X1407993Y12852D03*
X1402993Y12852D03*
X1397993Y12852D03*
X1392993Y12852D03*
X1387993Y12852D03*
X1382993Y12852D03*
X1377993Y12852D03*
X1372993Y12852D03*
X1367993Y12852D03*
D21*
X1479493Y210102D03*
X1521493Y210102D03*
X1500493Y197102D03*
D10*
X1613312Y67752D03*
X1613312Y74252D03*
X1619812Y67752D03*
X1619812Y74252D03*
X1613312Y80752D03*
X1613312Y87252D03*
X1619812Y80752D03*
X1619812Y87252D03*
X1613312Y93752D03*
X1613312Y100252D03*
X1619812Y93752D03*
X1619812Y100252D03*
X1613312Y106752D03*
X1613312Y113252D03*
X1619812Y106752D03*
X1619812Y113252D03*
X1613312Y119752D03*
X1619812Y119752D03*
X1613312Y126252D03*
X1613312Y132752D03*
X1619812Y126252D03*
X1619812Y132752D03*
X1613312Y139252D03*
X1613312Y145752D03*
X1619812Y139252D03*
X1619812Y145752D03*
X1613312Y152252D03*
X1619812Y152252D03*
X1626312Y67752D03*
X1632812Y67752D03*
X1639312Y67752D03*
X1645812Y67752D03*
X1652312Y67752D03*
X1658812Y67752D03*
X1665312Y67752D03*
X1671812Y67752D03*
X1678312Y67752D03*
X1684812Y67752D03*
X1691312Y67752D03*
X1697812Y67752D03*
X1626312Y74252D03*
X1632812Y74252D03*
X1639312Y74252D03*
X1645812Y74252D03*
X1652312Y74252D03*
X1658812Y74252D03*
X1665312Y74252D03*
X1671812Y74252D03*
X1678312Y74252D03*
X1684812Y74252D03*
X1691312Y74252D03*
X1697812Y74252D03*
X1626312Y80752D03*
X1632812Y80752D03*
X1639312Y80752D03*
X1645812Y80752D03*
X1652312Y80752D03*
X1658812Y80752D03*
X1665312Y80752D03*
X1671812Y80752D03*
X1678312Y80752D03*
X1684812Y80752D03*
X1691312Y80752D03*
X1697812Y80752D03*
X1626312Y87252D03*
X1632812Y87252D03*
X1639312Y87252D03*
X1645812Y87252D03*
X1652312Y87252D03*
X1658812Y87252D03*
X1665312Y87252D03*
X1671812Y87252D03*
X1678312Y87252D03*
X1684812Y87252D03*
X1691312Y87252D03*
X1697812Y87252D03*
X1626312Y93752D03*
X1632812Y93752D03*
X1639312Y93752D03*
X1645812Y93752D03*
X1652312Y93752D03*
X1658812Y93752D03*
X1665312Y93752D03*
X1671812Y93752D03*
X1678312Y93752D03*
X1684812Y93752D03*
X1691312Y93752D03*
X1697812Y93752D03*
X1626312Y100252D03*
X1632812Y100252D03*
X1639312Y100252D03*
X1645812Y100252D03*
X1652312Y100252D03*
X1658812Y100252D03*
X1665312Y100252D03*
X1671812Y100252D03*
X1678312Y100252D03*
X1684812Y100252D03*
X1691312Y100252D03*
X1697812Y100252D03*
X1626312Y106752D03*
X1632812Y106752D03*
X1639312Y106752D03*
X1645812Y106752D03*
X1652312Y106752D03*
X1658812Y106752D03*
X1665312Y106752D03*
X1671812Y106752D03*
X1678312Y106752D03*
X1684812Y106752D03*
X1691312Y106752D03*
X1697812Y106752D03*
X1626312Y113252D03*
X1632812Y113252D03*
X1639312Y113252D03*
X1645812Y113252D03*
X1652312Y113252D03*
X1658812Y113252D03*
X1665312Y113252D03*
X1671812Y113252D03*
X1678312Y113252D03*
X1684812Y113252D03*
X1691312Y113252D03*
X1697812Y113252D03*
X1626312Y119752D03*
X1632812Y119752D03*
X1639312Y119752D03*
X1645812Y119752D03*
X1652312Y119752D03*
X1658812Y119752D03*
X1665312Y119752D03*
X1671812Y119752D03*
X1678312Y119752D03*
X1684812Y119752D03*
X1691312Y119752D03*
X1697812Y119752D03*
X1626312Y126252D03*
X1632812Y126252D03*
X1639312Y126252D03*
X1645812Y126252D03*
X1652312Y126252D03*
X1658812Y126252D03*
X1665312Y126252D03*
X1671812Y126252D03*
X1678312Y126252D03*
X1684812Y126252D03*
X1691312Y126252D03*
X1697812Y126252D03*
X1626312Y132752D03*
X1632812Y132752D03*
X1639312Y132752D03*
X1645812Y132752D03*
X1652312Y132752D03*
X1658812Y132752D03*
X1665312Y132752D03*
X1671812Y132752D03*
X1678312Y132752D03*
X1684812Y132752D03*
X1691312Y132752D03*
X1697812Y132752D03*
X1626312Y139252D03*
X1632812Y139252D03*
X1639312Y139252D03*
X1645812Y139252D03*
X1652312Y139252D03*
X1658812Y139252D03*
X1665312Y139252D03*
X1671812Y139252D03*
X1678312Y139252D03*
X1684812Y139252D03*
X1691312Y139252D03*
X1697812Y139252D03*
X1626312Y145752D03*
X1632812Y145752D03*
X1639312Y145752D03*
X1645812Y145752D03*
X1652312Y145752D03*
X1658812Y145752D03*
X1665312Y145752D03*
X1671812Y145752D03*
X1678312Y145752D03*
X1684812Y145752D03*
X1691312Y145752D03*
X1697812Y145752D03*
X1626312Y152252D03*
X1632812Y152252D03*
X1639312Y152252D03*
X1645812Y152252D03*
X1652312Y152252D03*
X1658812Y152252D03*
X1665312Y152252D03*
X1671812Y152252D03*
X1678312Y152252D03*
X1684812Y152252D03*
X1691312Y152252D03*
X1697812Y152252D03*
D11*
X1770282Y206512D02*
X1770282Y213492D01*
X1770282Y206512D02*
X1763302Y206512D01*
X1763302Y213492D01*
X1770282Y213492D01*
X1770282Y211312D02*
X1763302Y211312D01*
X1787822Y213492D02*
X1787822Y206512D01*
X1780842Y206512D01*
X1780842Y213492D01*
X1787822Y213492D01*
X1787822Y211312D02*
X1780842Y211312D01*
D12*
X1785562Y105002D03*
X1785562Y95002D03*
D13*
X1751562Y152502D03*
X1751562Y127502D03*
D12*
X1765562Y155002D03*
X1765562Y145002D03*
X1765562Y125002D03*
X1765562Y135002D03*
X1712062Y145002D03*
X1712062Y135002D03*
X1721562Y120002D03*
X1731562Y120002D03*
X1721562Y159002D03*
X1731562Y159002D03*
D14*
X1721562Y133252D03*
X1721562Y146752D03*
X1731562Y146752D03*
X1731562Y133252D03*
D12*
X1585562Y185002D03*
X1585562Y175002D03*
X1758362Y101602D03*
X1748362Y101602D03*
X1758362Y114302D03*
X1748362Y114302D03*
D15*
X1785562Y50002D03*
X1598562Y213002D03*
D16*
X1608062Y175002D03*
X1613062Y175002D03*
X1618062Y175002D03*
X1623062Y175002D03*
D17*
X1630562Y182502D03*
X1630562Y187502D03*
X1630562Y192502D03*
X1630562Y197502D03*
D16*
X1623062Y205002D03*
X1618062Y205002D03*
X1613062Y205002D03*
X1608062Y205002D03*
D17*
X1600562Y197652D03*
X1600562Y192502D03*
X1600562Y187502D03*
X1600562Y182502D03*
D18*
X1615562Y190002D03*
D12*
X1690562Y210002D03*
X1680562Y210002D03*
D11*
X1660842Y206512D02*
X1660842Y213492D01*
X1667822Y213492D01*
X1667822Y206512D01*
X1660842Y206512D01*
X1660842Y211312D02*
X1667822Y211312D01*
X1643302Y213492D02*
X1643302Y206512D01*
X1643302Y213492D02*
X1650282Y213492D01*
X1650282Y206512D01*
X1643302Y206512D01*
X1643302Y211312D02*
X1650282Y211312D01*
D12*
X1585562Y195002D03*
X1585562Y205002D03*
D19*
X1738062Y64602D03*
X1738062Y82602D03*
D20*
X1778062Y12852D03*
X1773062Y12852D03*
X1768062Y12852D03*
X1763062Y12852D03*
X1758062Y12852D03*
X1753062Y12852D03*
X1748062Y12852D03*
X1743062Y12852D03*
X1738062Y12852D03*
X1733062Y12852D03*
X1728062Y12852D03*
X1723062Y12852D03*
X1698062Y12852D03*
X1693062Y12852D03*
X1688062Y12852D03*
X1683062Y12852D03*
X1678062Y12852D03*
X1673062Y12852D03*
X1668062Y12852D03*
X1663062Y12852D03*
X1658062Y12852D03*
X1653062Y12852D03*
X1648062Y12852D03*
X1643062Y12852D03*
X1638062Y12852D03*
X1633062Y12852D03*
X1628062Y12852D03*
X1623062Y12852D03*
X1618062Y12852D03*
X1613062Y12852D03*
X1608062Y12852D03*
X1603062Y12852D03*
X1598062Y12852D03*
X1593062Y12852D03*
D21*
X1704562Y210102D03*
X1746562Y210102D03*
X1725562Y197102D03*
D10*
X182239Y630748D03*
X182239Y624248D03*
X175739Y630748D03*
X175739Y624248D03*
X182239Y617748D03*
X182239Y611248D03*
X175739Y617748D03*
X175739Y611248D03*
X182239Y604748D03*
X182239Y598248D03*
X175739Y604748D03*
X175739Y598248D03*
X182239Y591748D03*
X182239Y585248D03*
X175739Y591748D03*
X175739Y585248D03*
X182239Y578748D03*
X175739Y578748D03*
X182239Y572248D03*
X182239Y565748D03*
X175739Y572248D03*
X175739Y565748D03*
X182239Y559248D03*
X182239Y552748D03*
X175739Y559248D03*
X175739Y552748D03*
X182239Y546248D03*
X175739Y546248D03*
X169239Y630748D03*
X162739Y630748D03*
X156239Y630748D03*
X149739Y630748D03*
X143239Y630748D03*
X136739Y630748D03*
X130239Y630748D03*
X123739Y630748D03*
X117239Y630748D03*
X110739Y630748D03*
X104239Y630748D03*
X97739Y630748D03*
X169239Y624248D03*
X162739Y624248D03*
X156239Y624248D03*
X149739Y624248D03*
X143239Y624248D03*
X136739Y624248D03*
X130239Y624248D03*
X123739Y624248D03*
X117239Y624248D03*
X110739Y624248D03*
X104239Y624248D03*
X97739Y624248D03*
X169239Y617748D03*
X162739Y617748D03*
X156239Y617748D03*
X149739Y617748D03*
X143239Y617748D03*
X136739Y617748D03*
X130239Y617748D03*
X123739Y617748D03*
X117239Y617748D03*
X110739Y617748D03*
X104239Y617748D03*
X97739Y617748D03*
X169239Y611248D03*
X162739Y611248D03*
X156239Y611248D03*
X149739Y611248D03*
X143239Y611248D03*
X136739Y611248D03*
X130239Y611248D03*
X123739Y611248D03*
X117239Y611248D03*
X110739Y611248D03*
X104239Y611248D03*
X97739Y611248D03*
X169239Y604748D03*
X162739Y604748D03*
X156239Y604748D03*
X149739Y604748D03*
X143239Y604748D03*
X136739Y604748D03*
X130239Y604748D03*
X123739Y604748D03*
X117239Y604748D03*
X110739Y604748D03*
X104239Y604748D03*
X97739Y604748D03*
X169239Y598248D03*
X162739Y598248D03*
X156239Y598248D03*
X149739Y598248D03*
X143239Y598248D03*
X136739Y598248D03*
X130239Y598248D03*
X123739Y598248D03*
X117239Y598248D03*
X110739Y598248D03*
X104239Y598248D03*
X97739Y598248D03*
X169239Y591748D03*
X162739Y591748D03*
X156239Y591748D03*
X149739Y591748D03*
X143239Y591748D03*
X136739Y591748D03*
X130239Y591748D03*
X123739Y591748D03*
X117239Y591748D03*
X110739Y591748D03*
X104239Y591748D03*
X97739Y591748D03*
X169239Y585248D03*
X162739Y585248D03*
X156239Y585248D03*
X149739Y585248D03*
X143239Y585248D03*
X136739Y585248D03*
X130239Y585248D03*
X123739Y585248D03*
X117239Y585248D03*
X110739Y585248D03*
X104239Y585248D03*
X97739Y585248D03*
X169239Y578748D03*
X162739Y578748D03*
X156239Y578748D03*
X149739Y578748D03*
X143239Y578748D03*
X136739Y578748D03*
X130239Y578748D03*
X123739Y578748D03*
X117239Y578748D03*
X110739Y578748D03*
X104239Y578748D03*
X97739Y578748D03*
X169239Y572248D03*
X162739Y572248D03*
X156239Y572248D03*
X149739Y572248D03*
X143239Y572248D03*
X136739Y572248D03*
X130239Y572248D03*
X123739Y572248D03*
X117239Y572248D03*
X110739Y572248D03*
X104239Y572248D03*
X97739Y572248D03*
X169239Y565748D03*
X162739Y565748D03*
X156239Y565748D03*
X149739Y565748D03*
X143239Y565748D03*
X136739Y565748D03*
X130239Y565748D03*
X123739Y565748D03*
X117239Y565748D03*
X110739Y565748D03*
X104239Y565748D03*
X97739Y565748D03*
X169239Y559248D03*
X162739Y559248D03*
X156239Y559248D03*
X149739Y559248D03*
X143239Y559248D03*
X136739Y559248D03*
X130239Y559248D03*
X123739Y559248D03*
X117239Y559248D03*
X110739Y559248D03*
X104239Y559248D03*
X97739Y559248D03*
X169239Y552748D03*
X162739Y552748D03*
X156239Y552748D03*
X149739Y552748D03*
X143239Y552748D03*
X136739Y552748D03*
X130239Y552748D03*
X123739Y552748D03*
X117239Y552748D03*
X110739Y552748D03*
X104239Y552748D03*
X97739Y552748D03*
X169239Y546248D03*
X162739Y546248D03*
X156239Y546248D03*
X149739Y546248D03*
X143239Y546248D03*
X136739Y546248D03*
X130239Y546248D03*
X123739Y546248D03*
X117239Y546248D03*
X110739Y546248D03*
X104239Y546248D03*
X97739Y546248D03*
D11*
X25269Y491988D02*
X25269Y485008D01*
X25269Y491988D02*
X32249Y491988D01*
X32249Y485008D01*
X25269Y485008D01*
X25269Y489808D02*
X32249Y489808D01*
X7729Y491988D02*
X7729Y485008D01*
X7729Y491988D02*
X14709Y491988D01*
X14709Y485008D01*
X7729Y485008D01*
X7729Y489808D02*
X14709Y489808D01*
D12*
X9989Y593498D03*
X9989Y603498D03*
D13*
X43989Y545998D03*
X43989Y570998D03*
D12*
X29989Y543498D03*
X29989Y553498D03*
X29989Y573498D03*
X29989Y563498D03*
X83489Y553498D03*
X83489Y563498D03*
X73989Y578498D03*
X63989Y578498D03*
X73989Y539498D03*
X63989Y539498D03*
D14*
X73989Y565248D03*
X73989Y551748D03*
X63989Y551748D03*
X63989Y565248D03*
D12*
X209989Y513498D03*
X209989Y523498D03*
X37189Y596898D03*
X47189Y596898D03*
X37189Y584198D03*
X47189Y584198D03*
D15*
X9989Y648498D03*
X196989Y485498D03*
D16*
X187489Y523498D03*
X182489Y523498D03*
X177489Y523498D03*
X172489Y523498D03*
D17*
X164989Y515998D03*
X164989Y510998D03*
X164989Y505998D03*
X164989Y500998D03*
D16*
X172489Y493498D03*
X177489Y493498D03*
X182489Y493498D03*
X187489Y493498D03*
D17*
X194989Y500848D03*
X194989Y505998D03*
X194989Y510998D03*
X194989Y515998D03*
D18*
X179989Y508498D03*
D12*
X104989Y488498D03*
X114989Y488498D03*
D11*
X134709Y491988D02*
X134709Y485008D01*
X127729Y485008D01*
X127729Y491988D01*
X134709Y491988D01*
X134709Y489808D02*
X127729Y489808D01*
X152249Y491988D02*
X152249Y485008D01*
X145269Y485008D01*
X145269Y491988D01*
X152249Y491988D01*
X152249Y489808D02*
X145269Y489808D01*
D12*
X209989Y503498D03*
X209989Y493498D03*
D19*
X57489Y633898D03*
X57489Y615898D03*
D20*
X17489Y685648D03*
X22489Y685648D03*
X27489Y685648D03*
X32489Y685648D03*
X37489Y685648D03*
X42489Y685648D03*
X47489Y685648D03*
X52489Y685648D03*
X57489Y685648D03*
X62489Y685648D03*
X67489Y685648D03*
X72489Y685648D03*
X97489Y685648D03*
X102489Y685648D03*
X107489Y685648D03*
X112489Y685648D03*
X117489Y685648D03*
X122489Y685648D03*
X127489Y685648D03*
X132489Y685648D03*
X137489Y685648D03*
X142489Y685648D03*
X147489Y685648D03*
X152489Y685648D03*
X157489Y685648D03*
X162489Y685648D03*
X167489Y685648D03*
X172489Y685648D03*
X177489Y685648D03*
X182489Y685648D03*
X187489Y685648D03*
X192489Y685648D03*
X197489Y685648D03*
X202489Y685648D03*
D21*
X90989Y488398D03*
X48989Y488398D03*
X69989Y501398D03*
D10*
X407334Y630748D03*
X407334Y624248D03*
X400834Y630748D03*
X400834Y624248D03*
X407334Y617748D03*
X407334Y611248D03*
X400834Y617748D03*
X400834Y611248D03*
X407334Y604748D03*
X407334Y598248D03*
X400834Y604748D03*
X400834Y598248D03*
X407334Y591748D03*
X407334Y585248D03*
X400834Y591748D03*
X400834Y585248D03*
X407334Y578748D03*
X400834Y578748D03*
X407334Y572248D03*
X407334Y565748D03*
X400834Y572248D03*
X400834Y565748D03*
X407334Y559248D03*
X407334Y552748D03*
X400834Y559248D03*
X400834Y552748D03*
X407334Y546248D03*
X400834Y546248D03*
X394334Y630748D03*
X387834Y630748D03*
X381334Y630748D03*
X374834Y630748D03*
X368334Y630748D03*
X361834Y630748D03*
X355334Y630748D03*
X348834Y630748D03*
X342334Y630748D03*
X335834Y630748D03*
X329334Y630748D03*
X322834Y630748D03*
X394334Y624248D03*
X387834Y624248D03*
X381334Y624248D03*
X374834Y624248D03*
X368334Y624248D03*
X361834Y624248D03*
X355334Y624248D03*
X348834Y624248D03*
X342334Y624248D03*
X335834Y624248D03*
X329334Y624248D03*
X322834Y624248D03*
X394334Y617748D03*
X387834Y617748D03*
X381334Y617748D03*
X374834Y617748D03*
X368334Y617748D03*
X361834Y617748D03*
X355334Y617748D03*
X348834Y617748D03*
X342334Y617748D03*
X335834Y617748D03*
X329334Y617748D03*
X322834Y617748D03*
X394334Y611248D03*
X387834Y611248D03*
X381334Y611248D03*
X374834Y611248D03*
X368334Y611248D03*
X361834Y611248D03*
X355334Y611248D03*
X348834Y611248D03*
X342334Y611248D03*
X335834Y611248D03*
X329334Y611248D03*
X322834Y611248D03*
X394334Y604748D03*
X387834Y604748D03*
X381334Y604748D03*
X374834Y604748D03*
X368334Y604748D03*
X361834Y604748D03*
X355334Y604748D03*
X348834Y604748D03*
X342334Y604748D03*
X335834Y604748D03*
X329334Y604748D03*
X322834Y604748D03*
X394334Y598248D03*
X387834Y598248D03*
X381334Y598248D03*
X374834Y598248D03*
X368334Y598248D03*
X361834Y598248D03*
X355334Y598248D03*
X348834Y598248D03*
X342334Y598248D03*
X335834Y598248D03*
X329334Y598248D03*
X322834Y598248D03*
X394334Y591748D03*
X387834Y591748D03*
X381334Y591748D03*
X374834Y591748D03*
X368334Y591748D03*
X361834Y591748D03*
X355334Y591748D03*
X348834Y591748D03*
X342334Y591748D03*
X335834Y591748D03*
X329334Y591748D03*
X322834Y591748D03*
X394334Y585248D03*
X387834Y585248D03*
X381334Y585248D03*
X374834Y585248D03*
X368334Y585248D03*
X361834Y585248D03*
X355334Y585248D03*
X348834Y585248D03*
X342334Y585248D03*
X335834Y585248D03*
X329334Y585248D03*
X322834Y585248D03*
X394334Y578748D03*
X387834Y578748D03*
X381334Y578748D03*
X374834Y578748D03*
X368334Y578748D03*
X361834Y578748D03*
X355334Y578748D03*
X348834Y578748D03*
X342334Y578748D03*
X335834Y578748D03*
X329334Y578748D03*
X322834Y578748D03*
X394334Y572248D03*
X387834Y572248D03*
X381334Y572248D03*
X374834Y572248D03*
X368334Y572248D03*
X361834Y572248D03*
X355334Y572248D03*
X348834Y572248D03*
X342334Y572248D03*
X335834Y572248D03*
X329334Y572248D03*
X322834Y572248D03*
X394334Y565748D03*
X387834Y565748D03*
X381334Y565748D03*
X374834Y565748D03*
X368334Y565748D03*
X361834Y565748D03*
X355334Y565748D03*
X348834Y565748D03*
X342334Y565748D03*
X335834Y565748D03*
X329334Y565748D03*
X322834Y565748D03*
X394334Y559248D03*
X387834Y559248D03*
X381334Y559248D03*
X374834Y559248D03*
X368334Y559248D03*
X361834Y559248D03*
X355334Y559248D03*
X348834Y559248D03*
X342334Y559248D03*
X335834Y559248D03*
X329334Y559248D03*
X322834Y559248D03*
X394334Y552748D03*
X387834Y552748D03*
X381334Y552748D03*
X374834Y552748D03*
X368334Y552748D03*
X361834Y552748D03*
X355334Y552748D03*
X348834Y552748D03*
X342334Y552748D03*
X335834Y552748D03*
X329334Y552748D03*
X322834Y552748D03*
X394334Y546248D03*
X387834Y546248D03*
X381334Y546248D03*
X374834Y546248D03*
X368334Y546248D03*
X361834Y546248D03*
X355334Y546248D03*
X348834Y546248D03*
X342334Y546248D03*
X335834Y546248D03*
X329334Y546248D03*
X322834Y546248D03*
D11*
X250364Y491988D02*
X250364Y485008D01*
X250364Y491988D02*
X257344Y491988D01*
X257344Y485008D01*
X250364Y485008D01*
X250364Y489808D02*
X257344Y489808D01*
X232824Y491988D02*
X232824Y485008D01*
X232824Y491988D02*
X239804Y491988D01*
X239804Y485008D01*
X232824Y485008D01*
X232824Y489808D02*
X239804Y489808D01*
D12*
X235084Y593498D03*
X235084Y603498D03*
D13*
X269084Y545998D03*
X269084Y570998D03*
D12*
X255084Y543498D03*
X255084Y553498D03*
X255084Y573498D03*
X255084Y563498D03*
X308584Y553498D03*
X308584Y563498D03*
X299084Y578498D03*
X289084Y578498D03*
X299084Y539498D03*
X289084Y539498D03*
D14*
X299084Y565248D03*
X299084Y551748D03*
X289084Y551748D03*
X289084Y565248D03*
D12*
X435084Y513498D03*
X435084Y523498D03*
X262284Y596898D03*
X272284Y596898D03*
X262284Y584198D03*
X272284Y584198D03*
D15*
X235084Y648498D03*
X422084Y485498D03*
D16*
X412584Y523498D03*
X407584Y523498D03*
X402584Y523498D03*
X397584Y523498D03*
D17*
X390084Y515998D03*
X390084Y510998D03*
X390084Y505998D03*
X390084Y500998D03*
D16*
X397584Y493498D03*
X402584Y493498D03*
X407584Y493498D03*
X412584Y493498D03*
D17*
X420084Y500848D03*
X420084Y505998D03*
X420084Y510998D03*
X420084Y515998D03*
D18*
X405084Y508498D03*
D12*
X330084Y488498D03*
X340084Y488498D03*
D11*
X359804Y491988D02*
X359804Y485008D01*
X352824Y485008D01*
X352824Y491988D01*
X359804Y491988D01*
X359804Y489808D02*
X352824Y489808D01*
X377344Y491988D02*
X377344Y485008D01*
X370364Y485008D01*
X370364Y491988D01*
X377344Y491988D01*
X377344Y489808D02*
X370364Y489808D01*
D12*
X435084Y503498D03*
X435084Y493498D03*
D19*
X282584Y633898D03*
X282584Y615898D03*
D20*
X242584Y685648D03*
X247584Y685648D03*
X252584Y685648D03*
X257584Y685648D03*
X262584Y685648D03*
X267584Y685648D03*
X272584Y685648D03*
X277584Y685648D03*
X282584Y685648D03*
X287584Y685648D03*
X292584Y685648D03*
X297584Y685648D03*
X322584Y685648D03*
X327584Y685648D03*
X332584Y685648D03*
X337584Y685648D03*
X342584Y685648D03*
X347584Y685648D03*
X352584Y685648D03*
X357584Y685648D03*
X362584Y685648D03*
X367584Y685648D03*
X372584Y685648D03*
X377584Y685648D03*
X382584Y685648D03*
X387584Y685648D03*
X392584Y685648D03*
X397584Y685648D03*
X402584Y685648D03*
X407584Y685648D03*
X412584Y685648D03*
X417584Y685648D03*
X422584Y685648D03*
X427584Y685648D03*
D21*
X316084Y488398D03*
X274084Y488398D03*
X295084Y501398D03*
D10*
X632404Y630748D03*
X632404Y624248D03*
X625904Y630748D03*
X625904Y624248D03*
X632404Y617748D03*
X632404Y611248D03*
X625904Y617748D03*
X625904Y611248D03*
X632404Y604748D03*
X632404Y598248D03*
X625904Y604748D03*
X625904Y598248D03*
X632404Y591748D03*
X632404Y585248D03*
X625904Y591748D03*
X625904Y585248D03*
X632404Y578748D03*
X625904Y578748D03*
X632404Y572248D03*
X632404Y565748D03*
X625904Y572248D03*
X625904Y565748D03*
X632404Y559248D03*
X632404Y552748D03*
X625904Y559248D03*
X625904Y552748D03*
X632404Y546248D03*
X625904Y546248D03*
X619404Y630748D03*
X612904Y630748D03*
X606404Y630748D03*
X599904Y630748D03*
X593404Y630748D03*
X586904Y630748D03*
X580404Y630748D03*
X573904Y630748D03*
X567404Y630748D03*
X560904Y630748D03*
X554404Y630748D03*
X547904Y630748D03*
X619404Y624248D03*
X612904Y624248D03*
X606404Y624248D03*
X599904Y624248D03*
X593404Y624248D03*
X586904Y624248D03*
X580404Y624248D03*
X573904Y624248D03*
X567404Y624248D03*
X560904Y624248D03*
X554404Y624248D03*
X547904Y624248D03*
X619404Y617748D03*
X612904Y617748D03*
X606404Y617748D03*
X599904Y617748D03*
X593404Y617748D03*
X586904Y617748D03*
X580404Y617748D03*
X573904Y617748D03*
X567404Y617748D03*
X560904Y617748D03*
X554404Y617748D03*
X547904Y617748D03*
X619404Y611248D03*
X612904Y611248D03*
X606404Y611248D03*
X599904Y611248D03*
X593404Y611248D03*
X586904Y611248D03*
X580404Y611248D03*
X573904Y611248D03*
X567404Y611248D03*
X560904Y611248D03*
X554404Y611248D03*
X547904Y611248D03*
X619404Y604748D03*
X612904Y604748D03*
X606404Y604748D03*
X599904Y604748D03*
X593404Y604748D03*
X586904Y604748D03*
X580404Y604748D03*
X573904Y604748D03*
X567404Y604748D03*
X560904Y604748D03*
X554404Y604748D03*
X547904Y604748D03*
X619404Y598248D03*
X612904Y598248D03*
X606404Y598248D03*
X599904Y598248D03*
X593404Y598248D03*
X586904Y598248D03*
X580404Y598248D03*
X573904Y598248D03*
X567404Y598248D03*
X560904Y598248D03*
X554404Y598248D03*
X547904Y598248D03*
X619404Y591748D03*
X612904Y591748D03*
X606404Y591748D03*
X599904Y591748D03*
X593404Y591748D03*
X586904Y591748D03*
X580404Y591748D03*
X573904Y591748D03*
X567404Y591748D03*
X560904Y591748D03*
X554404Y591748D03*
X547904Y591748D03*
X619404Y585248D03*
X612904Y585248D03*
X606404Y585248D03*
X599904Y585248D03*
X593404Y585248D03*
X586904Y585248D03*
X580404Y585248D03*
X573904Y585248D03*
X567404Y585248D03*
X560904Y585248D03*
X554404Y585248D03*
X547904Y585248D03*
X619404Y578748D03*
X612904Y578748D03*
X606404Y578748D03*
X599904Y578748D03*
X593404Y578748D03*
X586904Y578748D03*
X580404Y578748D03*
X573904Y578748D03*
X567404Y578748D03*
X560904Y578748D03*
X554404Y578748D03*
X547904Y578748D03*
X619404Y572248D03*
X612904Y572248D03*
X606404Y572248D03*
X599904Y572248D03*
X593404Y572248D03*
X586904Y572248D03*
X580404Y572248D03*
X573904Y572248D03*
X567404Y572248D03*
X560904Y572248D03*
X554404Y572248D03*
X547904Y572248D03*
X619404Y565748D03*
X612904Y565748D03*
X606404Y565748D03*
X599904Y565748D03*
X593404Y565748D03*
X586904Y565748D03*
X580404Y565748D03*
X573904Y565748D03*
X567404Y565748D03*
X560904Y565748D03*
X554404Y565748D03*
X547904Y565748D03*
X619404Y559248D03*
X612904Y559248D03*
X606404Y559248D03*
X599904Y559248D03*
X593404Y559248D03*
X586904Y559248D03*
X580404Y559248D03*
X573904Y559248D03*
X567404Y559248D03*
X560904Y559248D03*
X554404Y559248D03*
X547904Y559248D03*
X619404Y552748D03*
X612904Y552748D03*
X606404Y552748D03*
X599904Y552748D03*
X593404Y552748D03*
X586904Y552748D03*
X580404Y552748D03*
X573904Y552748D03*
X567404Y552748D03*
X560904Y552748D03*
X554404Y552748D03*
X547904Y552748D03*
X619404Y546248D03*
X612904Y546248D03*
X606404Y546248D03*
X599904Y546248D03*
X593404Y546248D03*
X586904Y546248D03*
X580404Y546248D03*
X573904Y546248D03*
X567404Y546248D03*
X560904Y546248D03*
X554404Y546248D03*
X547904Y546248D03*
D11*
X475434Y491988D02*
X475434Y485008D01*
X475434Y491988D02*
X482414Y491988D01*
X482414Y485008D01*
X475434Y485008D01*
X475434Y489808D02*
X482414Y489808D01*
X457894Y491988D02*
X457894Y485008D01*
X457894Y491988D02*
X464874Y491988D01*
X464874Y485008D01*
X457894Y485008D01*
X457894Y489808D02*
X464874Y489808D01*
D12*
X460154Y593498D03*
X460154Y603498D03*
D13*
X494154Y545998D03*
X494154Y570998D03*
D12*
X480154Y543498D03*
X480154Y553498D03*
X480154Y573498D03*
X480154Y563498D03*
X533654Y553498D03*
X533654Y563498D03*
X524154Y578498D03*
X514154Y578498D03*
X524154Y539498D03*
X514154Y539498D03*
D14*
X524154Y565248D03*
X524154Y551748D03*
X514154Y551748D03*
X514154Y565248D03*
D12*
X660154Y513498D03*
X660154Y523498D03*
X487354Y596898D03*
X497354Y596898D03*
X487354Y584198D03*
X497354Y584198D03*
D15*
X460154Y648498D03*
X647154Y485498D03*
D16*
X637654Y523498D03*
X632654Y523498D03*
X627654Y523498D03*
X622654Y523498D03*
D17*
X615154Y515998D03*
X615154Y510998D03*
X615154Y505998D03*
X615154Y500998D03*
D16*
X622654Y493498D03*
X627654Y493498D03*
X632654Y493498D03*
X637654Y493498D03*
D17*
X645154Y500848D03*
X645154Y505998D03*
X645154Y510998D03*
X645154Y515998D03*
D18*
X630154Y508498D03*
D12*
X555154Y488498D03*
X565154Y488498D03*
D11*
X584874Y491988D02*
X584874Y485008D01*
X577894Y485008D01*
X577894Y491988D01*
X584874Y491988D01*
X584874Y489808D02*
X577894Y489808D01*
X602414Y491988D02*
X602414Y485008D01*
X595434Y485008D01*
X595434Y491988D01*
X602414Y491988D01*
X602414Y489808D02*
X595434Y489808D01*
D12*
X660154Y503498D03*
X660154Y493498D03*
D19*
X507654Y633898D03*
X507654Y615898D03*
D20*
X467654Y685648D03*
X472654Y685648D03*
X477654Y685648D03*
X482654Y685648D03*
X487654Y685648D03*
X492654Y685648D03*
X497654Y685648D03*
X502654Y685648D03*
X507654Y685648D03*
X512654Y685648D03*
X517654Y685648D03*
X522654Y685648D03*
X547654Y685648D03*
X552654Y685648D03*
X557654Y685648D03*
X562654Y685648D03*
X567654Y685648D03*
X572654Y685648D03*
X577654Y685648D03*
X582654Y685648D03*
X587654Y685648D03*
X592654Y685648D03*
X597654Y685648D03*
X602654Y685648D03*
X607654Y685648D03*
X612654Y685648D03*
X617654Y685648D03*
X622654Y685648D03*
X627654Y685648D03*
X632654Y685648D03*
X637654Y685648D03*
X642654Y685648D03*
X647654Y685648D03*
X652654Y685648D03*
D21*
X541154Y488398D03*
X499154Y488398D03*
X520154Y501398D03*
D10*
X857498Y630748D03*
X857498Y624248D03*
X850998Y630748D03*
X850998Y624248D03*
X857498Y617748D03*
X857498Y611248D03*
X850998Y617748D03*
X850998Y611248D03*
X857498Y604748D03*
X857498Y598248D03*
X850998Y604748D03*
X850998Y598248D03*
X857498Y591748D03*
X857498Y585248D03*
X850998Y591748D03*
X850998Y585248D03*
X857498Y578748D03*
X850998Y578748D03*
X857498Y572248D03*
X857498Y565748D03*
X850998Y572248D03*
X850998Y565748D03*
X857498Y559248D03*
X857498Y552748D03*
X850998Y559248D03*
X850998Y552748D03*
X857498Y546248D03*
X850998Y546248D03*
X844498Y630748D03*
X837998Y630748D03*
X831498Y630748D03*
X824998Y630748D03*
X818498Y630748D03*
X811998Y630748D03*
X805498Y630748D03*
X798998Y630748D03*
X792498Y630748D03*
X785998Y630748D03*
X779498Y630748D03*
X772998Y630748D03*
X844498Y624248D03*
X837998Y624248D03*
X831498Y624248D03*
X824998Y624248D03*
X818498Y624248D03*
X811998Y624248D03*
X805498Y624248D03*
X798998Y624248D03*
X792498Y624248D03*
X785998Y624248D03*
X779498Y624248D03*
X772998Y624248D03*
X844498Y617748D03*
X837998Y617748D03*
X831498Y617748D03*
X824998Y617748D03*
X818498Y617748D03*
X811998Y617748D03*
X805498Y617748D03*
X798998Y617748D03*
X792498Y617748D03*
X785998Y617748D03*
X779498Y617748D03*
X772998Y617748D03*
X844498Y611248D03*
X837998Y611248D03*
X831498Y611248D03*
X824998Y611248D03*
X818498Y611248D03*
X811998Y611248D03*
X805498Y611248D03*
X798998Y611248D03*
X792498Y611248D03*
X785998Y611248D03*
X779498Y611248D03*
X772998Y611248D03*
X844498Y604748D03*
X837998Y604748D03*
X831498Y604748D03*
X824998Y604748D03*
X818498Y604748D03*
X811998Y604748D03*
X805498Y604748D03*
X798998Y604748D03*
X792498Y604748D03*
X785998Y604748D03*
X779498Y604748D03*
X772998Y604748D03*
X844498Y598248D03*
X837998Y598248D03*
X831498Y598248D03*
X824998Y598248D03*
X818498Y598248D03*
X811998Y598248D03*
X805498Y598248D03*
X798998Y598248D03*
X792498Y598248D03*
X785998Y598248D03*
X779498Y598248D03*
X772998Y598248D03*
X844498Y591748D03*
X837998Y591748D03*
X831498Y591748D03*
X824998Y591748D03*
X818498Y591748D03*
X811998Y591748D03*
X805498Y591748D03*
X798998Y591748D03*
X792498Y591748D03*
X785998Y591748D03*
X779498Y591748D03*
X772998Y591748D03*
X844498Y585248D03*
X837998Y585248D03*
X831498Y585248D03*
X824998Y585248D03*
X818498Y585248D03*
X811998Y585248D03*
X805498Y585248D03*
X798998Y585248D03*
X792498Y585248D03*
X785998Y585248D03*
X779498Y585248D03*
X772998Y585248D03*
X844498Y578748D03*
X837998Y578748D03*
X831498Y578748D03*
X824998Y578748D03*
X818498Y578748D03*
X811998Y578748D03*
X805498Y578748D03*
X798998Y578748D03*
X792498Y578748D03*
X785998Y578748D03*
X779498Y578748D03*
X772998Y578748D03*
X844498Y572248D03*
X837998Y572248D03*
X831498Y572248D03*
X824998Y572248D03*
X818498Y572248D03*
X811998Y572248D03*
X805498Y572248D03*
X798998Y572248D03*
X792498Y572248D03*
X785998Y572248D03*
X779498Y572248D03*
X772998Y572248D03*
X844498Y565748D03*
X837998Y565748D03*
X831498Y565748D03*
X824998Y565748D03*
X818498Y565748D03*
X811998Y565748D03*
X805498Y565748D03*
X798998Y565748D03*
X792498Y565748D03*
X785998Y565748D03*
X779498Y565748D03*
X772998Y565748D03*
X844498Y559248D03*
X837998Y559248D03*
X831498Y559248D03*
X824998Y559248D03*
X818498Y559248D03*
X811998Y559248D03*
X805498Y559248D03*
X798998Y559248D03*
X792498Y559248D03*
X785998Y559248D03*
X779498Y559248D03*
X772998Y559248D03*
X844498Y552748D03*
X837998Y552748D03*
X831498Y552748D03*
X824998Y552748D03*
X818498Y552748D03*
X811998Y552748D03*
X805498Y552748D03*
X798998Y552748D03*
X792498Y552748D03*
X785998Y552748D03*
X779498Y552748D03*
X772998Y552748D03*
X844498Y546248D03*
X837998Y546248D03*
X831498Y546248D03*
X824998Y546248D03*
X818498Y546248D03*
X811998Y546248D03*
X805498Y546248D03*
X798998Y546248D03*
X792498Y546248D03*
X785998Y546248D03*
X779498Y546248D03*
X772998Y546248D03*
D11*
X700528Y491988D02*
X700528Y485008D01*
X700528Y491988D02*
X707508Y491988D01*
X707508Y485008D01*
X700528Y485008D01*
X700528Y489808D02*
X707508Y489808D01*
X682988Y491988D02*
X682988Y485008D01*
X682988Y491988D02*
X689968Y491988D01*
X689968Y485008D01*
X682988Y485008D01*
X682988Y489808D02*
X689968Y489808D01*
D12*
X685248Y593498D03*
X685248Y603498D03*
D13*
X719248Y545998D03*
X719248Y570998D03*
D12*
X705248Y543498D03*
X705248Y553498D03*
X705248Y573498D03*
X705248Y563498D03*
X758748Y553498D03*
X758748Y563498D03*
X749248Y578498D03*
X739248Y578498D03*
X749248Y539498D03*
X739248Y539498D03*
D14*
X749248Y565248D03*
X749248Y551748D03*
X739248Y551748D03*
X739248Y565248D03*
D12*
X885248Y513498D03*
X885248Y523498D03*
X712448Y596898D03*
X722448Y596898D03*
X712448Y584198D03*
X722448Y584198D03*
D15*
X685248Y648498D03*
X872248Y485498D03*
D16*
X862748Y523498D03*
X857748Y523498D03*
X852748Y523498D03*
X847748Y523498D03*
D17*
X840248Y515998D03*
X840248Y510998D03*
X840248Y505998D03*
X840248Y500998D03*
D16*
X847748Y493498D03*
X852748Y493498D03*
X857748Y493498D03*
X862748Y493498D03*
D17*
X870248Y500848D03*
X870248Y505998D03*
X870248Y510998D03*
X870248Y515998D03*
D18*
X855248Y508498D03*
D12*
X780248Y488498D03*
X790248Y488498D03*
D11*
X809968Y491988D02*
X809968Y485008D01*
X802988Y485008D01*
X802988Y491988D01*
X809968Y491988D01*
X809968Y489808D02*
X802988Y489808D01*
X827508Y491988D02*
X827508Y485008D01*
X820528Y485008D01*
X820528Y491988D01*
X827508Y491988D01*
X827508Y489808D02*
X820528Y489808D01*
D12*
X885248Y503498D03*
X885248Y493498D03*
D19*
X732748Y633898D03*
X732748Y615898D03*
D20*
X692748Y685648D03*
X697748Y685648D03*
X702748Y685648D03*
X707748Y685648D03*
X712748Y685648D03*
X717748Y685648D03*
X722748Y685648D03*
X727748Y685648D03*
X732748Y685648D03*
X737748Y685648D03*
X742748Y685648D03*
X747748Y685648D03*
X772748Y685648D03*
X777748Y685648D03*
X782748Y685648D03*
X787748Y685648D03*
X792748Y685648D03*
X797748Y685648D03*
X802748Y685648D03*
X807748Y685648D03*
X812748Y685648D03*
X817748Y685648D03*
X822748Y685648D03*
X827748Y685648D03*
X832748Y685648D03*
X837748Y685648D03*
X842748Y685648D03*
X847748Y685648D03*
X852748Y685648D03*
X857748Y685648D03*
X862748Y685648D03*
X867748Y685648D03*
X872748Y685648D03*
X877748Y685648D03*
D21*
X766248Y488398D03*
X724248Y488398D03*
X745248Y501398D03*
D10*
X1082568Y630748D03*
X1082568Y624248D03*
X1076068Y630748D03*
X1076068Y624248D03*
X1082568Y617748D03*
X1082568Y611248D03*
X1076068Y617748D03*
X1076068Y611248D03*
X1082568Y604748D03*
X1082568Y598248D03*
X1076068Y604748D03*
X1076068Y598248D03*
X1082568Y591748D03*
X1082568Y585248D03*
X1076068Y591748D03*
X1076068Y585248D03*
X1082568Y578748D03*
X1076068Y578748D03*
X1082568Y572248D03*
X1082568Y565748D03*
X1076068Y572248D03*
X1076068Y565748D03*
X1082568Y559248D03*
X1082568Y552748D03*
X1076068Y559248D03*
X1076068Y552748D03*
X1082568Y546248D03*
X1076068Y546248D03*
X1069568Y630748D03*
X1063068Y630748D03*
X1056568Y630748D03*
X1050068Y630748D03*
X1043568Y630748D03*
X1037068Y630748D03*
X1030568Y630748D03*
X1024068Y630748D03*
X1017568Y630748D03*
X1011068Y630748D03*
X1004568Y630748D03*
X998068Y630748D03*
X1069568Y624248D03*
X1063068Y624248D03*
X1056568Y624248D03*
X1050068Y624248D03*
X1043568Y624248D03*
X1037068Y624248D03*
X1030568Y624248D03*
X1024068Y624248D03*
X1017568Y624248D03*
X1011068Y624248D03*
X1004568Y624248D03*
X998068Y624248D03*
X1069568Y617748D03*
X1063068Y617748D03*
X1056568Y617748D03*
X1050068Y617748D03*
X1043568Y617748D03*
X1037068Y617748D03*
X1030568Y617748D03*
X1024068Y617748D03*
X1017568Y617748D03*
X1011068Y617748D03*
X1004568Y617748D03*
X998068Y617748D03*
X1069568Y611248D03*
X1063068Y611248D03*
X1056568Y611248D03*
X1050068Y611248D03*
X1043568Y611248D03*
X1037068Y611248D03*
X1030568Y611248D03*
X1024068Y611248D03*
X1017568Y611248D03*
X1011068Y611248D03*
X1004568Y611248D03*
X998068Y611248D03*
X1069568Y604748D03*
X1063068Y604748D03*
X1056568Y604748D03*
X1050068Y604748D03*
X1043568Y604748D03*
X1037068Y604748D03*
X1030568Y604748D03*
X1024068Y604748D03*
X1017568Y604748D03*
X1011068Y604748D03*
X1004568Y604748D03*
X998068Y604748D03*
X1069568Y598248D03*
X1063068Y598248D03*
X1056568Y598248D03*
X1050068Y598248D03*
X1043568Y598248D03*
X1037068Y598248D03*
X1030568Y598248D03*
X1024068Y598248D03*
X1017568Y598248D03*
X1011068Y598248D03*
X1004568Y598248D03*
X998068Y598248D03*
X1069568Y591748D03*
X1063068Y591748D03*
X1056568Y591748D03*
X1050068Y591748D03*
X1043568Y591748D03*
X1037068Y591748D03*
X1030568Y591748D03*
X1024068Y591748D03*
X1017568Y591748D03*
X1011068Y591748D03*
X1004568Y591748D03*
X998068Y591748D03*
X1069568Y585248D03*
X1063068Y585248D03*
X1056568Y585248D03*
X1050068Y585248D03*
X1043568Y585248D03*
X1037068Y585248D03*
X1030568Y585248D03*
X1024068Y585248D03*
X1017568Y585248D03*
X1011068Y585248D03*
X1004568Y585248D03*
X998068Y585248D03*
X1069568Y578748D03*
X1063068Y578748D03*
X1056568Y578748D03*
X1050068Y578748D03*
X1043568Y578748D03*
X1037068Y578748D03*
X1030568Y578748D03*
X1024068Y578748D03*
X1017568Y578748D03*
X1011068Y578748D03*
X1004568Y578748D03*
X998068Y578748D03*
X1069568Y572248D03*
X1063068Y572248D03*
X1056568Y572248D03*
X1050068Y572248D03*
X1043568Y572248D03*
X1037068Y572248D03*
X1030568Y572248D03*
X1024068Y572248D03*
X1017568Y572248D03*
X1011068Y572248D03*
X1004568Y572248D03*
X998068Y572248D03*
X1069568Y565748D03*
X1063068Y565748D03*
X1056568Y565748D03*
X1050068Y565748D03*
X1043568Y565748D03*
X1037068Y565748D03*
X1030568Y565748D03*
X1024068Y565748D03*
X1017568Y565748D03*
X1011068Y565748D03*
X1004568Y565748D03*
X998068Y565748D03*
X1069568Y559248D03*
X1063068Y559248D03*
X1056568Y559248D03*
X1050068Y559248D03*
X1043568Y559248D03*
X1037068Y559248D03*
X1030568Y559248D03*
X1024068Y559248D03*
X1017568Y559248D03*
X1011068Y559248D03*
X1004568Y559248D03*
X998068Y559248D03*
X1069568Y552748D03*
X1063068Y552748D03*
X1056568Y552748D03*
X1050068Y552748D03*
X1043568Y552748D03*
X1037068Y552748D03*
X1030568Y552748D03*
X1024068Y552748D03*
X1017568Y552748D03*
X1011068Y552748D03*
X1004568Y552748D03*
X998068Y552748D03*
X1069568Y546248D03*
X1063068Y546248D03*
X1056568Y546248D03*
X1050068Y546248D03*
X1043568Y546248D03*
X1037068Y546248D03*
X1030568Y546248D03*
X1024068Y546248D03*
X1017568Y546248D03*
X1011068Y546248D03*
X1004568Y546248D03*
X998068Y546248D03*
D11*
X925598Y491988D02*
X925598Y485008D01*
X925598Y491988D02*
X932578Y491988D01*
X932578Y485008D01*
X925598Y485008D01*
X925598Y489808D02*
X932578Y489808D01*
X908058Y491988D02*
X908058Y485008D01*
X908058Y491988D02*
X915038Y491988D01*
X915038Y485008D01*
X908058Y485008D01*
X908058Y489808D02*
X915038Y489808D01*
D12*
X910318Y593498D03*
X910318Y603498D03*
D13*
X944318Y545998D03*
X944318Y570998D03*
D12*
X930318Y543498D03*
X930318Y553498D03*
X930318Y573498D03*
X930318Y563498D03*
X983818Y553498D03*
X983818Y563498D03*
X974318Y578498D03*
X964318Y578498D03*
X974318Y539498D03*
X964318Y539498D03*
D14*
X974318Y565248D03*
X974318Y551748D03*
X964318Y551748D03*
X964318Y565248D03*
D12*
X1110318Y513498D03*
X1110318Y523498D03*
X937518Y596898D03*
X947518Y596898D03*
X937518Y584198D03*
X947518Y584198D03*
D15*
X910318Y648498D03*
X1097318Y485498D03*
D16*
X1087818Y523498D03*
X1082818Y523498D03*
X1077818Y523498D03*
X1072818Y523498D03*
D17*
X1065318Y515998D03*
X1065318Y510998D03*
X1065318Y505998D03*
X1065318Y500998D03*
D16*
X1072818Y493498D03*
X1077818Y493498D03*
X1082818Y493498D03*
X1087818Y493498D03*
D17*
X1095318Y500848D03*
X1095318Y505998D03*
X1095318Y510998D03*
X1095318Y515998D03*
D18*
X1080318Y508498D03*
D12*
X1005318Y488498D03*
X1015318Y488498D03*
D11*
X1035038Y491988D02*
X1035038Y485008D01*
X1028058Y485008D01*
X1028058Y491988D01*
X1035038Y491988D01*
X1035038Y489808D02*
X1028058Y489808D01*
X1052578Y491988D02*
X1052578Y485008D01*
X1045598Y485008D01*
X1045598Y491988D01*
X1052578Y491988D01*
X1052578Y489808D02*
X1045598Y489808D01*
D12*
X1110318Y503498D03*
X1110318Y493498D03*
D19*
X957818Y633898D03*
X957818Y615898D03*
D20*
X917818Y685648D03*
X922818Y685648D03*
X927818Y685648D03*
X932818Y685648D03*
X937818Y685648D03*
X942818Y685648D03*
X947818Y685648D03*
X952818Y685648D03*
X957818Y685648D03*
X962818Y685648D03*
X967818Y685648D03*
X972818Y685648D03*
X997818Y685648D03*
X1002818Y685648D03*
X1007818Y685648D03*
X1012818Y685648D03*
X1017818Y685648D03*
X1022818Y685648D03*
X1027818Y685648D03*
X1032818Y685648D03*
X1037818Y685648D03*
X1042818Y685648D03*
X1047818Y685648D03*
X1052818Y685648D03*
X1057818Y685648D03*
X1062818Y685648D03*
X1067818Y685648D03*
X1072818Y685648D03*
X1077818Y685648D03*
X1082818Y685648D03*
X1087818Y685648D03*
X1092818Y685648D03*
X1097818Y685648D03*
X1102818Y685648D03*
D21*
X991318Y488398D03*
X949318Y488398D03*
X970318Y501398D03*
D10*
X1307663Y630748D03*
X1307663Y624248D03*
X1301163Y630748D03*
X1301163Y624248D03*
X1307663Y617748D03*
X1307663Y611248D03*
X1301163Y617748D03*
X1301163Y611248D03*
X1307663Y604748D03*
X1307663Y598248D03*
X1301163Y604748D03*
X1301163Y598248D03*
X1307663Y591748D03*
X1307663Y585248D03*
X1301163Y591748D03*
X1301163Y585248D03*
X1307663Y578748D03*
X1301163Y578748D03*
X1307663Y572248D03*
X1307663Y565748D03*
X1301163Y572248D03*
X1301163Y565748D03*
X1307663Y559248D03*
X1307663Y552748D03*
X1301163Y559248D03*
X1301163Y552748D03*
X1307663Y546248D03*
X1301163Y546248D03*
X1294663Y630748D03*
X1288163Y630748D03*
X1281663Y630748D03*
X1275163Y630748D03*
X1268663Y630748D03*
X1262163Y630748D03*
X1255663Y630748D03*
X1249163Y630748D03*
X1242663Y630748D03*
X1236163Y630748D03*
X1229663Y630748D03*
X1223163Y630748D03*
X1294663Y624248D03*
X1288163Y624248D03*
X1281663Y624248D03*
X1275163Y624248D03*
X1268663Y624248D03*
X1262163Y624248D03*
X1255663Y624248D03*
X1249163Y624248D03*
X1242663Y624248D03*
X1236163Y624248D03*
X1229663Y624248D03*
X1223163Y624248D03*
X1294663Y617748D03*
X1288163Y617748D03*
X1281663Y617748D03*
X1275163Y617748D03*
X1268663Y617748D03*
X1262163Y617748D03*
X1255663Y617748D03*
X1249163Y617748D03*
X1242663Y617748D03*
X1236163Y617748D03*
X1229663Y617748D03*
X1223163Y617748D03*
X1294663Y611248D03*
X1288163Y611248D03*
X1281663Y611248D03*
X1275163Y611248D03*
X1268663Y611248D03*
X1262163Y611248D03*
X1255663Y611248D03*
X1249163Y611248D03*
X1242663Y611248D03*
X1236163Y611248D03*
X1229663Y611248D03*
X1223163Y611248D03*
X1294663Y604748D03*
X1288163Y604748D03*
X1281663Y604748D03*
X1275163Y604748D03*
X1268663Y604748D03*
X1262163Y604748D03*
X1255663Y604748D03*
X1249163Y604748D03*
X1242663Y604748D03*
X1236163Y604748D03*
X1229663Y604748D03*
X1223163Y604748D03*
X1294663Y598248D03*
X1288163Y598248D03*
X1281663Y598248D03*
X1275163Y598248D03*
X1268663Y598248D03*
X1262163Y598248D03*
X1255663Y598248D03*
X1249163Y598248D03*
X1242663Y598248D03*
X1236163Y598248D03*
X1229663Y598248D03*
X1223163Y598248D03*
X1294663Y591748D03*
X1288163Y591748D03*
X1281663Y591748D03*
X1275163Y591748D03*
X1268663Y591748D03*
X1262163Y591748D03*
X1255663Y591748D03*
X1249163Y591748D03*
X1242663Y591748D03*
X1236163Y591748D03*
X1229663Y591748D03*
X1223163Y591748D03*
X1294663Y585248D03*
X1288163Y585248D03*
X1281663Y585248D03*
X1275163Y585248D03*
X1268663Y585248D03*
X1262163Y585248D03*
X1255663Y585248D03*
X1249163Y585248D03*
X1242663Y585248D03*
X1236163Y585248D03*
X1229663Y585248D03*
X1223163Y585248D03*
X1294663Y578748D03*
X1288163Y578748D03*
X1281663Y578748D03*
X1275163Y578748D03*
X1268663Y578748D03*
X1262163Y578748D03*
X1255663Y578748D03*
X1249163Y578748D03*
X1242663Y578748D03*
X1236163Y578748D03*
X1229663Y578748D03*
X1223163Y578748D03*
X1294663Y572248D03*
X1288163Y572248D03*
X1281663Y572248D03*
X1275163Y572248D03*
X1268663Y572248D03*
X1262163Y572248D03*
X1255663Y572248D03*
X1249163Y572248D03*
X1242663Y572248D03*
X1236163Y572248D03*
X1229663Y572248D03*
X1223163Y572248D03*
X1294663Y565748D03*
X1288163Y565748D03*
X1281663Y565748D03*
X1275163Y565748D03*
X1268663Y565748D03*
X1262163Y565748D03*
X1255663Y565748D03*
X1249163Y565748D03*
X1242663Y565748D03*
X1236163Y565748D03*
X1229663Y565748D03*
X1223163Y565748D03*
X1294663Y559248D03*
X1288163Y559248D03*
X1281663Y559248D03*
X1275163Y559248D03*
X1268663Y559248D03*
X1262163Y559248D03*
X1255663Y559248D03*
X1249163Y559248D03*
X1242663Y559248D03*
X1236163Y559248D03*
X1229663Y559248D03*
X1223163Y559248D03*
X1294663Y552748D03*
X1288163Y552748D03*
X1281663Y552748D03*
X1275163Y552748D03*
X1268663Y552748D03*
X1262163Y552748D03*
X1255663Y552748D03*
X1249163Y552748D03*
X1242663Y552748D03*
X1236163Y552748D03*
X1229663Y552748D03*
X1223163Y552748D03*
X1294663Y546248D03*
X1288163Y546248D03*
X1281663Y546248D03*
X1275163Y546248D03*
X1268663Y546248D03*
X1262163Y546248D03*
X1255663Y546248D03*
X1249163Y546248D03*
X1242663Y546248D03*
X1236163Y546248D03*
X1229663Y546248D03*
X1223163Y546248D03*
D11*
X1150693Y491988D02*
X1150693Y485008D01*
X1150693Y491988D02*
X1157673Y491988D01*
X1157673Y485008D01*
X1150693Y485008D01*
X1150693Y489808D02*
X1157673Y489808D01*
X1133153Y491988D02*
X1133153Y485008D01*
X1133153Y491988D02*
X1140133Y491988D01*
X1140133Y485008D01*
X1133153Y485008D01*
X1133153Y489808D02*
X1140133Y489808D01*
D12*
X1135413Y593498D03*
X1135413Y603498D03*
D13*
X1169413Y545998D03*
X1169413Y570998D03*
D12*
X1155413Y543498D03*
X1155413Y553498D03*
X1155413Y573498D03*
X1155413Y563498D03*
X1208913Y553498D03*
X1208913Y563498D03*
X1199413Y578498D03*
X1189413Y578498D03*
X1199413Y539498D03*
X1189413Y539498D03*
D14*
X1199413Y565248D03*
X1199413Y551748D03*
X1189413Y551748D03*
X1189413Y565248D03*
D12*
X1335413Y513498D03*
X1335413Y523498D03*
X1162613Y596898D03*
X1172613Y596898D03*
X1162613Y584198D03*
X1172613Y584198D03*
D15*
X1135413Y648498D03*
X1322413Y485498D03*
D16*
X1312913Y523498D03*
X1307913Y523498D03*
X1302913Y523498D03*
X1297913Y523498D03*
D17*
X1290413Y515998D03*
X1290413Y510998D03*
X1290413Y505998D03*
X1290413Y500998D03*
D16*
X1297913Y493498D03*
X1302913Y493498D03*
X1307913Y493498D03*
X1312913Y493498D03*
D17*
X1320413Y500848D03*
X1320413Y505998D03*
X1320413Y510998D03*
X1320413Y515998D03*
D18*
X1305413Y508498D03*
D12*
X1230413Y488498D03*
X1240413Y488498D03*
D11*
X1260133Y491988D02*
X1260133Y485008D01*
X1253153Y485008D01*
X1253153Y491988D01*
X1260133Y491988D01*
X1260133Y489808D02*
X1253153Y489808D01*
X1277673Y491988D02*
X1277673Y485008D01*
X1270693Y485008D01*
X1270693Y491988D01*
X1277673Y491988D01*
X1277673Y489808D02*
X1270693Y489808D01*
D12*
X1335413Y503498D03*
X1335413Y493498D03*
D19*
X1182913Y633898D03*
X1182913Y615898D03*
D20*
X1142913Y685648D03*
X1147913Y685648D03*
X1152913Y685648D03*
X1157913Y685648D03*
X1162913Y685648D03*
X1167913Y685648D03*
X1172913Y685648D03*
X1177913Y685648D03*
X1182913Y685648D03*
X1187913Y685648D03*
X1192913Y685648D03*
X1197913Y685648D03*
X1222913Y685648D03*
X1227913Y685648D03*
X1232913Y685648D03*
X1237913Y685648D03*
X1242913Y685648D03*
X1247913Y685648D03*
X1252913Y685648D03*
X1257913Y685648D03*
X1262913Y685648D03*
X1267913Y685648D03*
X1272913Y685648D03*
X1277913Y685648D03*
X1282913Y685648D03*
X1287913Y685648D03*
X1292913Y685648D03*
X1297913Y685648D03*
X1302913Y685648D03*
X1307913Y685648D03*
X1312913Y685648D03*
X1317913Y685648D03*
X1322913Y685648D03*
X1327913Y685648D03*
D21*
X1216413Y488398D03*
X1174413Y488398D03*
X1195413Y501398D03*
D10*
X1532732Y630748D03*
X1532732Y624248D03*
X1526232Y630748D03*
X1526232Y624248D03*
X1532732Y617748D03*
X1532732Y611248D03*
X1526232Y617748D03*
X1526232Y611248D03*
X1532732Y604748D03*
X1532732Y598248D03*
X1526232Y604748D03*
X1526232Y598248D03*
X1532732Y591748D03*
X1532732Y585248D03*
X1526232Y591748D03*
X1526232Y585248D03*
X1532732Y578748D03*
X1526232Y578748D03*
X1532732Y572248D03*
X1532732Y565748D03*
X1526232Y572248D03*
X1526232Y565748D03*
X1532732Y559248D03*
X1532732Y552748D03*
X1526232Y559248D03*
X1526232Y552748D03*
X1532732Y546248D03*
X1526232Y546248D03*
X1519732Y630748D03*
X1513232Y630748D03*
X1506732Y630748D03*
X1500232Y630748D03*
X1493732Y630748D03*
X1487232Y630748D03*
X1480732Y630748D03*
X1474232Y630748D03*
X1467732Y630748D03*
X1461232Y630748D03*
X1454732Y630748D03*
X1448232Y630748D03*
X1519732Y624248D03*
X1513232Y624248D03*
X1506732Y624248D03*
X1500232Y624248D03*
X1493732Y624248D03*
X1487232Y624248D03*
X1480732Y624248D03*
X1474232Y624248D03*
X1467732Y624248D03*
X1461232Y624248D03*
X1454732Y624248D03*
X1448232Y624248D03*
X1519732Y617748D03*
X1513232Y617748D03*
X1506732Y617748D03*
X1500232Y617748D03*
X1493732Y617748D03*
X1487232Y617748D03*
X1480732Y617748D03*
X1474232Y617748D03*
X1467732Y617748D03*
X1461232Y617748D03*
X1454732Y617748D03*
X1448232Y617748D03*
X1519732Y611248D03*
X1513232Y611248D03*
X1506732Y611248D03*
X1500232Y611248D03*
X1493732Y611248D03*
X1487232Y611248D03*
X1480732Y611248D03*
X1474232Y611248D03*
X1467732Y611248D03*
X1461232Y611248D03*
X1454732Y611248D03*
X1448232Y611248D03*
X1519732Y604748D03*
X1513232Y604748D03*
X1506732Y604748D03*
X1500232Y604748D03*
X1493732Y604748D03*
X1487232Y604748D03*
X1480732Y604748D03*
X1474232Y604748D03*
X1467732Y604748D03*
X1461232Y604748D03*
X1454732Y604748D03*
X1448232Y604748D03*
X1519732Y598248D03*
X1513232Y598248D03*
X1506732Y598248D03*
X1500232Y598248D03*
X1493732Y598248D03*
X1487232Y598248D03*
X1480732Y598248D03*
X1474232Y598248D03*
X1467732Y598248D03*
X1461232Y598248D03*
X1454732Y598248D03*
X1448232Y598248D03*
X1519732Y591748D03*
X1513232Y591748D03*
X1506732Y591748D03*
X1500232Y591748D03*
X1493732Y591748D03*
X1487232Y591748D03*
X1480732Y591748D03*
X1474232Y591748D03*
X1467732Y591748D03*
X1461232Y591748D03*
X1454732Y591748D03*
X1448232Y591748D03*
X1519732Y585248D03*
X1513232Y585248D03*
X1506732Y585248D03*
X1500232Y585248D03*
X1493732Y585248D03*
X1487232Y585248D03*
X1480732Y585248D03*
X1474232Y585248D03*
X1467732Y585248D03*
X1461232Y585248D03*
X1454732Y585248D03*
X1448232Y585248D03*
X1519732Y578748D03*
X1513232Y578748D03*
X1506732Y578748D03*
X1500232Y578748D03*
X1493732Y578748D03*
X1487232Y578748D03*
X1480732Y578748D03*
X1474232Y578748D03*
X1467732Y578748D03*
X1461232Y578748D03*
X1454732Y578748D03*
X1448232Y578748D03*
X1519732Y572248D03*
X1513232Y572248D03*
X1506732Y572248D03*
X1500232Y572248D03*
X1493732Y572248D03*
X1487232Y572248D03*
X1480732Y572248D03*
X1474232Y572248D03*
X1467732Y572248D03*
X1461232Y572248D03*
X1454732Y572248D03*
X1448232Y572248D03*
X1519732Y565748D03*
X1513232Y565748D03*
X1506732Y565748D03*
X1500232Y565748D03*
X1493732Y565748D03*
X1487232Y565748D03*
X1480732Y565748D03*
X1474232Y565748D03*
X1467732Y565748D03*
X1461232Y565748D03*
X1454732Y565748D03*
X1448232Y565748D03*
X1519732Y559248D03*
X1513232Y559248D03*
X1506732Y559248D03*
X1500232Y559248D03*
X1493732Y559248D03*
X1487232Y559248D03*
X1480732Y559248D03*
X1474232Y559248D03*
X1467732Y559248D03*
X1461232Y559248D03*
X1454732Y559248D03*
X1448232Y559248D03*
X1519732Y552748D03*
X1513232Y552748D03*
X1506732Y552748D03*
X1500232Y552748D03*
X1493732Y552748D03*
X1487232Y552748D03*
X1480732Y552748D03*
X1474232Y552748D03*
X1467732Y552748D03*
X1461232Y552748D03*
X1454732Y552748D03*
X1448232Y552748D03*
X1519732Y546248D03*
X1513232Y546248D03*
X1506732Y546248D03*
X1500232Y546248D03*
X1493732Y546248D03*
X1487232Y546248D03*
X1480732Y546248D03*
X1474232Y546248D03*
X1467732Y546248D03*
X1461232Y546248D03*
X1454732Y546248D03*
X1448232Y546248D03*
D11*
X1375762Y491988D02*
X1375762Y485008D01*
X1375762Y491988D02*
X1382742Y491988D01*
X1382742Y485008D01*
X1375762Y485008D01*
X1375762Y489808D02*
X1382742Y489808D01*
X1358222Y491988D02*
X1358222Y485008D01*
X1358222Y491988D02*
X1365202Y491988D01*
X1365202Y485008D01*
X1358222Y485008D01*
X1358222Y489808D02*
X1365202Y489808D01*
D12*
X1360482Y593498D03*
X1360482Y603498D03*
D13*
X1394482Y545998D03*
X1394482Y570998D03*
D12*
X1380482Y543498D03*
X1380482Y553498D03*
X1380482Y573498D03*
X1380482Y563498D03*
X1433982Y553498D03*
X1433982Y563498D03*
X1424482Y578498D03*
X1414482Y578498D03*
X1424482Y539498D03*
X1414482Y539498D03*
D14*
X1424482Y565248D03*
X1424482Y551748D03*
X1414482Y551748D03*
X1414482Y565248D03*
D12*
X1560482Y513498D03*
X1560482Y523498D03*
X1387682Y596898D03*
X1397682Y596898D03*
X1387682Y584198D03*
X1397682Y584198D03*
D15*
X1360482Y648498D03*
X1547482Y485498D03*
D16*
X1537982Y523498D03*
X1532982Y523498D03*
X1527982Y523498D03*
X1522982Y523498D03*
D17*
X1515482Y515998D03*
X1515482Y510998D03*
X1515482Y505998D03*
X1515482Y500998D03*
D16*
X1522982Y493498D03*
X1527982Y493498D03*
X1532982Y493498D03*
X1537982Y493498D03*
D17*
X1545482Y500848D03*
X1545482Y505998D03*
X1545482Y510998D03*
X1545482Y515998D03*
D18*
X1530482Y508498D03*
D12*
X1455482Y488498D03*
X1465482Y488498D03*
D11*
X1485202Y491988D02*
X1485202Y485008D01*
X1478222Y485008D01*
X1478222Y491988D01*
X1485202Y491988D01*
X1485202Y489808D02*
X1478222Y489808D01*
X1502742Y491988D02*
X1502742Y485008D01*
X1495762Y485008D01*
X1495762Y491988D01*
X1502742Y491988D01*
X1502742Y489808D02*
X1495762Y489808D01*
D12*
X1560482Y503498D03*
X1560482Y493498D03*
D19*
X1407982Y633898D03*
X1407982Y615898D03*
D20*
X1367982Y685648D03*
X1372982Y685648D03*
X1377982Y685648D03*
X1382982Y685648D03*
X1387982Y685648D03*
X1392982Y685648D03*
X1397982Y685648D03*
X1402982Y685648D03*
X1407982Y685648D03*
X1412982Y685648D03*
X1417982Y685648D03*
X1422982Y685648D03*
X1447982Y685648D03*
X1452982Y685648D03*
X1457982Y685648D03*
X1462982Y685648D03*
X1467982Y685648D03*
X1472982Y685648D03*
X1477982Y685648D03*
X1482982Y685648D03*
X1487982Y685648D03*
X1492982Y685648D03*
X1497982Y685648D03*
X1502982Y685648D03*
X1507982Y685648D03*
X1512982Y685648D03*
X1517982Y685648D03*
X1522982Y685648D03*
X1527982Y685648D03*
X1532982Y685648D03*
X1537982Y685648D03*
X1542982Y685648D03*
X1547982Y685648D03*
X1552982Y685648D03*
D21*
X1441482Y488398D03*
X1399482Y488398D03*
X1420482Y501398D03*
D10*
X1757801Y630748D03*
X1757801Y624248D03*
X1751301Y630748D03*
X1751301Y624248D03*
X1757801Y617748D03*
X1757801Y611248D03*
X1751301Y617748D03*
X1751301Y611248D03*
X1757801Y604748D03*
X1757801Y598248D03*
X1751301Y604748D03*
X1751301Y598248D03*
X1757801Y591748D03*
X1757801Y585248D03*
X1751301Y591748D03*
X1751301Y585248D03*
X1757801Y578748D03*
X1751301Y578748D03*
X1757801Y572248D03*
X1757801Y565748D03*
X1751301Y572248D03*
X1751301Y565748D03*
X1757801Y559248D03*
X1757801Y552748D03*
X1751301Y559248D03*
X1751301Y552748D03*
X1757801Y546248D03*
X1751301Y546248D03*
X1744801Y630748D03*
X1738301Y630748D03*
X1731801Y630748D03*
X1725301Y630748D03*
X1718801Y630748D03*
X1712301Y630748D03*
X1705801Y630748D03*
X1699301Y630748D03*
X1692801Y630748D03*
X1686301Y630748D03*
X1679801Y630748D03*
X1673301Y630748D03*
X1744801Y624248D03*
X1738301Y624248D03*
X1731801Y624248D03*
X1725301Y624248D03*
X1718801Y624248D03*
X1712301Y624248D03*
X1705801Y624248D03*
X1699301Y624248D03*
X1692801Y624248D03*
X1686301Y624248D03*
X1679801Y624248D03*
X1673301Y624248D03*
X1744801Y617748D03*
X1738301Y617748D03*
X1731801Y617748D03*
X1725301Y617748D03*
X1718801Y617748D03*
X1712301Y617748D03*
X1705801Y617748D03*
X1699301Y617748D03*
X1692801Y617748D03*
X1686301Y617748D03*
X1679801Y617748D03*
X1673301Y617748D03*
X1744801Y611248D03*
X1738301Y611248D03*
X1731801Y611248D03*
X1725301Y611248D03*
X1718801Y611248D03*
X1712301Y611248D03*
X1705801Y611248D03*
X1699301Y611248D03*
X1692801Y611248D03*
X1686301Y611248D03*
X1679801Y611248D03*
X1673301Y611248D03*
X1744801Y604748D03*
X1738301Y604748D03*
X1731801Y604748D03*
X1725301Y604748D03*
X1718801Y604748D03*
X1712301Y604748D03*
X1705801Y604748D03*
X1699301Y604748D03*
X1692801Y604748D03*
X1686301Y604748D03*
X1679801Y604748D03*
X1673301Y604748D03*
X1744801Y598248D03*
X1738301Y598248D03*
X1731801Y598248D03*
X1725301Y598248D03*
X1718801Y598248D03*
X1712301Y598248D03*
X1705801Y598248D03*
X1699301Y598248D03*
X1692801Y598248D03*
X1686301Y598248D03*
X1679801Y598248D03*
X1673301Y598248D03*
X1744801Y591748D03*
X1738301Y591748D03*
X1731801Y591748D03*
X1725301Y591748D03*
X1718801Y591748D03*
X1712301Y591748D03*
X1705801Y591748D03*
X1699301Y591748D03*
X1692801Y591748D03*
X1686301Y591748D03*
X1679801Y591748D03*
X1673301Y591748D03*
X1744801Y585248D03*
X1738301Y585248D03*
X1731801Y585248D03*
X1725301Y585248D03*
X1718801Y585248D03*
X1712301Y585248D03*
X1705801Y585248D03*
X1699301Y585248D03*
X1692801Y585248D03*
X1686301Y585248D03*
X1679801Y585248D03*
X1673301Y585248D03*
X1744801Y578748D03*
X1738301Y578748D03*
X1731801Y578748D03*
X1725301Y578748D03*
X1718801Y578748D03*
X1712301Y578748D03*
X1705801Y578748D03*
X1699301Y578748D03*
X1692801Y578748D03*
X1686301Y578748D03*
X1679801Y578748D03*
X1673301Y578748D03*
X1744801Y572248D03*
X1738301Y572248D03*
X1731801Y572248D03*
X1725301Y572248D03*
X1718801Y572248D03*
X1712301Y572248D03*
X1705801Y572248D03*
X1699301Y572248D03*
X1692801Y572248D03*
X1686301Y572248D03*
X1679801Y572248D03*
X1673301Y572248D03*
X1744801Y565748D03*
X1738301Y565748D03*
X1731801Y565748D03*
X1725301Y565748D03*
X1718801Y565748D03*
X1712301Y565748D03*
X1705801Y565748D03*
X1699301Y565748D03*
X1692801Y565748D03*
X1686301Y565748D03*
X1679801Y565748D03*
X1673301Y565748D03*
X1744801Y559248D03*
X1738301Y559248D03*
X1731801Y559248D03*
X1725301Y559248D03*
X1718801Y559248D03*
X1712301Y559248D03*
X1705801Y559248D03*
X1699301Y559248D03*
X1692801Y559248D03*
X1686301Y559248D03*
X1679801Y559248D03*
X1673301Y559248D03*
X1744801Y552748D03*
X1738301Y552748D03*
X1731801Y552748D03*
X1725301Y552748D03*
X1718801Y552748D03*
X1712301Y552748D03*
X1705801Y552748D03*
X1699301Y552748D03*
X1692801Y552748D03*
X1686301Y552748D03*
X1679801Y552748D03*
X1673301Y552748D03*
X1744801Y546248D03*
X1738301Y546248D03*
X1731801Y546248D03*
X1725301Y546248D03*
X1718801Y546248D03*
X1712301Y546248D03*
X1705801Y546248D03*
X1699301Y546248D03*
X1692801Y546248D03*
X1686301Y546248D03*
X1679801Y546248D03*
X1673301Y546248D03*
D11*
X1600831Y491988D02*
X1600831Y485008D01*
X1600831Y491988D02*
X1607811Y491988D01*
X1607811Y485008D01*
X1600831Y485008D01*
X1600831Y489808D02*
X1607811Y489808D01*
X1583291Y491988D02*
X1583291Y485008D01*
X1583291Y491988D02*
X1590271Y491988D01*
X1590271Y485008D01*
X1583291Y485008D01*
X1583291Y489808D02*
X1590271Y489808D01*
D12*
X1585551Y593498D03*
X1585551Y603498D03*
D13*
X1619551Y545998D03*
X1619551Y570998D03*
D12*
X1605551Y543498D03*
X1605551Y553498D03*
X1605551Y573498D03*
X1605551Y563498D03*
X1659051Y553498D03*
X1659051Y563498D03*
X1649551Y578498D03*
X1639551Y578498D03*
X1649551Y539498D03*
X1639551Y539498D03*
D14*
X1649551Y565248D03*
X1649551Y551748D03*
X1639551Y551748D03*
X1639551Y565248D03*
D12*
X1785551Y513498D03*
X1785551Y523498D03*
X1612751Y596898D03*
X1622751Y596898D03*
X1612751Y584198D03*
X1622751Y584198D03*
D15*
X1585551Y648498D03*
X1772551Y485498D03*
D16*
X1763051Y523498D03*
X1758051Y523498D03*
X1753051Y523498D03*
X1748051Y523498D03*
D17*
X1740551Y515998D03*
X1740551Y510998D03*
X1740551Y505998D03*
X1740551Y500998D03*
D16*
X1748051Y493498D03*
X1753051Y493498D03*
X1758051Y493498D03*
X1763051Y493498D03*
D17*
X1770551Y500848D03*
X1770551Y505998D03*
X1770551Y510998D03*
X1770551Y515998D03*
D18*
X1755551Y508498D03*
D12*
X1680551Y488498D03*
X1690551Y488498D03*
D11*
X1710271Y491988D02*
X1710271Y485008D01*
X1703291Y485008D01*
X1703291Y491988D01*
X1710271Y491988D01*
X1710271Y489808D02*
X1703291Y489808D01*
X1727811Y491988D02*
X1727811Y485008D01*
X1720831Y485008D01*
X1720831Y491988D01*
X1727811Y491988D01*
X1727811Y489808D02*
X1720831Y489808D01*
D12*
X1785551Y503498D03*
X1785551Y493498D03*
D19*
X1633051Y633898D03*
X1633051Y615898D03*
D20*
X1593051Y685648D03*
X1598051Y685648D03*
X1603051Y685648D03*
X1608051Y685648D03*
X1613051Y685648D03*
X1618051Y685648D03*
X1623051Y685648D03*
X1628051Y685648D03*
X1633051Y685648D03*
X1638051Y685648D03*
X1643051Y685648D03*
X1648051Y685648D03*
X1673051Y685648D03*
X1678051Y685648D03*
X1683051Y685648D03*
X1688051Y685648D03*
X1693051Y685648D03*
X1698051Y685648D03*
X1703051Y685648D03*
X1708051Y685648D03*
X1713051Y685648D03*
X1718051Y685648D03*
X1723051Y685648D03*
X1728051Y685648D03*
X1733051Y685648D03*
X1738051Y685648D03*
X1743051Y685648D03*
X1748051Y685648D03*
X1753051Y685648D03*
X1758051Y685648D03*
X1763051Y685648D03*
X1768051Y685648D03*
X1773051Y685648D03*
X1778051Y685648D03*
D21*
X1666551Y488398D03*
X1624551Y488398D03*
X1645551Y501398D03*
D22*
X-26238Y635000D03*
X1821815Y635000D03*
D23*
X-35293Y68580D02*
X-35290Y68802D01*
X-35282Y69024D01*
X-35268Y69246D01*
X-35249Y69468D01*
X-35225Y69688D01*
X-35195Y69909D01*
X-35160Y70128D01*
X-35119Y70347D01*
X-35073Y70564D01*
X-35022Y70780D01*
X-34965Y70995D01*
X-34903Y71209D01*
X-34836Y71420D01*
X-34764Y71631D01*
X-34686Y71839D01*
X-34604Y72045D01*
X-34516Y72249D01*
X-34424Y72452D01*
X-34326Y72651D01*
X-34224Y72848D01*
X-34117Y73043D01*
X-34005Y73235D01*
X-33888Y73424D01*
X-33767Y73611D01*
X-33641Y73794D01*
X-33511Y73974D01*
X-33376Y74151D01*
X-33238Y74324D01*
X-33095Y74494D01*
X-32947Y74661D01*
X-32796Y74824D01*
X-32641Y74983D01*
X-32482Y75138D01*
X-32319Y75289D01*
X-32152Y75437D01*
X-31982Y75580D01*
X-31809Y75718D01*
X-31632Y75853D01*
X-31452Y75983D01*
X-31269Y76109D01*
X-31082Y76230D01*
X-30893Y76347D01*
X-30701Y76459D01*
X-30506Y76566D01*
X-30309Y76668D01*
X-30110Y76766D01*
X-29907Y76858D01*
X-29703Y76946D01*
X-29497Y77028D01*
X-29289Y77106D01*
X-29078Y77178D01*
X-28867Y77245D01*
X-28653Y77307D01*
X-28438Y77364D01*
X-28222Y77415D01*
X-28005Y77461D01*
X-27786Y77502D01*
X-27567Y77537D01*
X-27346Y77567D01*
X-27126Y77591D01*
X-26904Y77610D01*
X-26682Y77624D01*
X-26460Y77632D01*
X-26238Y77635D01*
X-26016Y77632D01*
X-25794Y77624D01*
X-25572Y77610D01*
X-25350Y77591D01*
X-25130Y77567D01*
X-24909Y77537D01*
X-24690Y77502D01*
X-24471Y77461D01*
X-24254Y77415D01*
X-24038Y77364D01*
X-23823Y77307D01*
X-23609Y77245D01*
X-23398Y77178D01*
X-23187Y77106D01*
X-22979Y77028D01*
X-22773Y76946D01*
X-22569Y76858D01*
X-22366Y76766D01*
X-22167Y76668D01*
X-21970Y76566D01*
X-21775Y76459D01*
X-21583Y76347D01*
X-21394Y76230D01*
X-21207Y76109D01*
X-21024Y75983D01*
X-20844Y75853D01*
X-20667Y75718D01*
X-20494Y75580D01*
X-20324Y75437D01*
X-20157Y75289D01*
X-19994Y75138D01*
X-19835Y74983D01*
X-19680Y74824D01*
X-19529Y74661D01*
X-19381Y74494D01*
X-19238Y74324D01*
X-19100Y74151D01*
X-18965Y73974D01*
X-18835Y73794D01*
X-18709Y73611D01*
X-18588Y73424D01*
X-18471Y73235D01*
X-18359Y73043D01*
X-18252Y72848D01*
X-18150Y72651D01*
X-18052Y72452D01*
X-17960Y72249D01*
X-17872Y72045D01*
X-17790Y71839D01*
X-17712Y71631D01*
X-17640Y71420D01*
X-17573Y71209D01*
X-17511Y70995D01*
X-17454Y70780D01*
X-17403Y70564D01*
X-17357Y70347D01*
X-17316Y70128D01*
X-17281Y69909D01*
X-17251Y69688D01*
X-17227Y69468D01*
X-17208Y69246D01*
X-17194Y69024D01*
X-17186Y68802D01*
X-17183Y68580D01*
X-17186Y68358D01*
X-17194Y68136D01*
X-17208Y67914D01*
X-17227Y67692D01*
X-17251Y67472D01*
X-17281Y67251D01*
X-17316Y67032D01*
X-17357Y66813D01*
X-17403Y66596D01*
X-17454Y66380D01*
X-17511Y66165D01*
X-17573Y65951D01*
X-17640Y65740D01*
X-17712Y65529D01*
X-17790Y65321D01*
X-17872Y65115D01*
X-17960Y64911D01*
X-18052Y64708D01*
X-18150Y64509D01*
X-18252Y64312D01*
X-18359Y64117D01*
X-18471Y63925D01*
X-18588Y63736D01*
X-18709Y63549D01*
X-18835Y63366D01*
X-18965Y63186D01*
X-19100Y63009D01*
X-19238Y62836D01*
X-19381Y62666D01*
X-19529Y62499D01*
X-19680Y62336D01*
X-19835Y62177D01*
X-19994Y62022D01*
X-20157Y61871D01*
X-20324Y61723D01*
X-20494Y61580D01*
X-20667Y61442D01*
X-20844Y61307D01*
X-21024Y61177D01*
X-21207Y61051D01*
X-21394Y60930D01*
X-21583Y60813D01*
X-21775Y60701D01*
X-21970Y60594D01*
X-22167Y60492D01*
X-22366Y60394D01*
X-22569Y60302D01*
X-22773Y60214D01*
X-22979Y60132D01*
X-23187Y60054D01*
X-23398Y59982D01*
X-23609Y59915D01*
X-23823Y59853D01*
X-24038Y59796D01*
X-24254Y59745D01*
X-24471Y59699D01*
X-24690Y59658D01*
X-24909Y59623D01*
X-25130Y59593D01*
X-25350Y59569D01*
X-25572Y59550D01*
X-25794Y59536D01*
X-26016Y59528D01*
X-26238Y59525D01*
X-26460Y59528D01*
X-26682Y59536D01*
X-26904Y59550D01*
X-27126Y59569D01*
X-27346Y59593D01*
X-27567Y59623D01*
X-27786Y59658D01*
X-28005Y59699D01*
X-28222Y59745D01*
X-28438Y59796D01*
X-28653Y59853D01*
X-28867Y59915D01*
X-29078Y59982D01*
X-29289Y60054D01*
X-29497Y60132D01*
X-29703Y60214D01*
X-29907Y60302D01*
X-30110Y60394D01*
X-30309Y60492D01*
X-30506Y60594D01*
X-30701Y60701D01*
X-30893Y60813D01*
X-31082Y60930D01*
X-31269Y61051D01*
X-31452Y61177D01*
X-31632Y61307D01*
X-31809Y61442D01*
X-31982Y61580D01*
X-32152Y61723D01*
X-32319Y61871D01*
X-32482Y62022D01*
X-32641Y62177D01*
X-32796Y62336D01*
X-32947Y62499D01*
X-33095Y62666D01*
X-33238Y62836D01*
X-33376Y63009D01*
X-33511Y63186D01*
X-33641Y63366D01*
X-33767Y63549D01*
X-33888Y63736D01*
X-34005Y63925D01*
X-34117Y64117D01*
X-34224Y64312D01*
X-34326Y64509D01*
X-34424Y64708D01*
X-34516Y64911D01*
X-34604Y65115D01*
X-34686Y65321D01*
X-34764Y65529D01*
X-34836Y65740D01*
X-34903Y65951D01*
X-34965Y66165D01*
X-35022Y66380D01*
X-35073Y66596D01*
X-35119Y66813D01*
X-35160Y67032D01*
X-35195Y67251D01*
X-35225Y67472D01*
X-35249Y67692D01*
X-35268Y67914D01*
X-35282Y68136D01*
X-35290Y68358D01*
X-35293Y68580D01*
D24*
X-26238Y68580D03*
M02*
