G04 EAGLE Gerber RS-274X export*
G75*
%MOMM*%
%FSLAX34Y34*%
%LPD*%
%INSoldermask Top*%
%IPPOS*%
%AMOC8*
5,1,8,0,0,1.08239X$1,22.5*%
G01*
%ADD10C,0.437200*%
%ADD11C,0.505344*%
%ADD12R,0.803200X0.803200*%
%ADD13R,2.003200X1.203200*%
%ADD14R,0.453200X0.803200*%
%ADD15R,0.903200X0.953200*%
%ADD16C,0.838200*%
%ADD17R,0.493200X1.103200*%
%ADD18R,1.103200X0.493200*%
%ADD19R,1.803200X1.803200*%
%ADD20R,2.203200X1.003200*%
%ADD21R,0.553200X1.653200*%
%ADD22C,5.703200*%
%ADD23C,1.203200*%
%ADD24C,1.270000*%
%ADD25C,1.703200*%


D10*
X37761Y75751D03*
X37761Y82251D03*
X44261Y75751D03*
X44261Y82251D03*
X37761Y88751D03*
X37761Y95251D03*
X44261Y88751D03*
X44261Y95251D03*
X37761Y101751D03*
X37761Y108251D03*
X44261Y101751D03*
X44261Y108251D03*
X37761Y114751D03*
X37761Y121251D03*
X44261Y114751D03*
X44261Y121251D03*
X37761Y127751D03*
X44261Y127751D03*
X37761Y134251D03*
X37761Y140751D03*
X44261Y134251D03*
X44261Y140751D03*
X37761Y147251D03*
X37761Y153751D03*
X44261Y147251D03*
X44261Y153751D03*
X37761Y160251D03*
X44261Y160251D03*
X50761Y75751D03*
X57261Y75751D03*
X63761Y75751D03*
X70261Y75751D03*
X76761Y75751D03*
X83261Y75751D03*
X89761Y75751D03*
X96261Y75751D03*
X102761Y75751D03*
X109261Y75751D03*
X115761Y75751D03*
X122261Y75751D03*
X50761Y82251D03*
X57261Y82251D03*
X63761Y82251D03*
X70261Y82251D03*
X76761Y82251D03*
X83261Y82251D03*
X89761Y82251D03*
X96261Y82251D03*
X102761Y82251D03*
X109261Y82251D03*
X115761Y82251D03*
X122261Y82251D03*
X50761Y88751D03*
X57261Y88751D03*
X63761Y88751D03*
X70261Y88751D03*
X76761Y88751D03*
X83261Y88751D03*
X89761Y88751D03*
X96261Y88751D03*
X102761Y88751D03*
X109261Y88751D03*
X115761Y88751D03*
X122261Y88751D03*
X50761Y95251D03*
X57261Y95251D03*
X63761Y95251D03*
X70261Y95251D03*
X76761Y95251D03*
X83261Y95251D03*
X89761Y95251D03*
X96261Y95251D03*
X102761Y95251D03*
X109261Y95251D03*
X115761Y95251D03*
X122261Y95251D03*
X50761Y101751D03*
X57261Y101751D03*
X63761Y101751D03*
X70261Y101751D03*
X76761Y101751D03*
X83261Y101751D03*
X89761Y101751D03*
X96261Y101751D03*
X102761Y101751D03*
X109261Y101751D03*
X115761Y101751D03*
X122261Y101751D03*
X50761Y108251D03*
X57261Y108251D03*
X63761Y108251D03*
X70261Y108251D03*
X76761Y108251D03*
X83261Y108251D03*
X89761Y108251D03*
X96261Y108251D03*
X102761Y108251D03*
X109261Y108251D03*
X115761Y108251D03*
X122261Y108251D03*
X50761Y114751D03*
X57261Y114751D03*
X63761Y114751D03*
X70261Y114751D03*
X76761Y114751D03*
X83261Y114751D03*
X89761Y114751D03*
X96261Y114751D03*
X102761Y114751D03*
X109261Y114751D03*
X115761Y114751D03*
X122261Y114751D03*
X50761Y121251D03*
X57261Y121251D03*
X63761Y121251D03*
X70261Y121251D03*
X76761Y121251D03*
X83261Y121251D03*
X89761Y121251D03*
X96261Y121251D03*
X102761Y121251D03*
X109261Y121251D03*
X115761Y121251D03*
X122261Y121251D03*
X50761Y127751D03*
X57261Y127751D03*
X63761Y127751D03*
X70261Y127751D03*
X76761Y127751D03*
X83261Y127751D03*
X89761Y127751D03*
X96261Y127751D03*
X102761Y127751D03*
X109261Y127751D03*
X115761Y127751D03*
X122261Y127751D03*
X50761Y134251D03*
X57261Y134251D03*
X63761Y134251D03*
X70261Y134251D03*
X76761Y134251D03*
X83261Y134251D03*
X89761Y134251D03*
X96261Y134251D03*
X102761Y134251D03*
X109261Y134251D03*
X115761Y134251D03*
X122261Y134251D03*
X50761Y140751D03*
X57261Y140751D03*
X63761Y140751D03*
X70261Y140751D03*
X76761Y140751D03*
X83261Y140751D03*
X89761Y140751D03*
X96261Y140751D03*
X102761Y140751D03*
X109261Y140751D03*
X115761Y140751D03*
X122261Y140751D03*
X50761Y147251D03*
X57261Y147251D03*
X63761Y147251D03*
X70261Y147251D03*
X76761Y147251D03*
X83261Y147251D03*
X89761Y147251D03*
X96261Y147251D03*
X102761Y147251D03*
X109261Y147251D03*
X115761Y147251D03*
X122261Y147251D03*
X50761Y153751D03*
X57261Y153751D03*
X63761Y153751D03*
X70261Y153751D03*
X76761Y153751D03*
X83261Y153751D03*
X89761Y153751D03*
X96261Y153751D03*
X102761Y153751D03*
X109261Y153751D03*
X115761Y153751D03*
X122261Y153751D03*
X50761Y160251D03*
X57261Y160251D03*
X63761Y160251D03*
X70261Y160251D03*
X76761Y160251D03*
X83261Y160251D03*
X89761Y160251D03*
X96261Y160251D03*
X102761Y160251D03*
X109261Y160251D03*
X115761Y160251D03*
X122261Y160251D03*
D11*
X194731Y214511D02*
X194731Y221491D01*
X194731Y214511D02*
X187751Y214511D01*
X187751Y221491D01*
X194731Y221491D01*
X194731Y219311D02*
X187751Y219311D01*
X212271Y221491D02*
X212271Y214511D01*
X205291Y214511D01*
X205291Y221491D01*
X212271Y221491D01*
X212271Y219311D02*
X205291Y219311D01*
D12*
X210011Y113001D03*
X210011Y103001D03*
D13*
X176011Y160501D03*
X176011Y135501D03*
D14*
X156091Y93151D03*
X151091Y93151D03*
X146091Y93151D03*
X141091Y93151D03*
X146091Y66651D03*
X141091Y66651D03*
X151091Y66651D03*
X156091Y66651D03*
D12*
X190011Y163001D03*
X190011Y153001D03*
X190011Y133001D03*
X190011Y143001D03*
X138011Y153001D03*
X138011Y143001D03*
X146011Y128001D03*
X156011Y128001D03*
X146011Y167001D03*
X156011Y167001D03*
D15*
X146011Y141251D03*
X146011Y154751D03*
X156011Y154751D03*
X156011Y141251D03*
D12*
X10011Y193001D03*
X10011Y183001D03*
X182811Y109601D03*
X172811Y109601D03*
X182811Y122301D03*
X172811Y122301D03*
D16*
X210011Y58001D03*
X23011Y221001D03*
D17*
X32511Y183001D03*
X37511Y183001D03*
X42511Y183001D03*
X47511Y183001D03*
D18*
X55011Y190501D03*
X55011Y195501D03*
X55011Y200501D03*
X55011Y205501D03*
D17*
X47511Y213001D03*
X42511Y213001D03*
X37511Y213001D03*
X32511Y213001D03*
D18*
X25011Y205651D03*
X25011Y200501D03*
X25011Y195501D03*
X25011Y190501D03*
D19*
X40011Y198001D03*
D12*
X115011Y218001D03*
X105011Y218001D03*
D11*
X85291Y214511D02*
X85291Y221491D01*
X92271Y221491D01*
X92271Y214511D01*
X85291Y214511D01*
X85291Y219311D02*
X92271Y219311D01*
X67751Y221491D02*
X67751Y214511D01*
X67751Y221491D02*
X74731Y221491D01*
X74731Y214511D01*
X67751Y214511D01*
X67751Y219311D02*
X74731Y219311D01*
D12*
X10011Y203001D03*
X10011Y213001D03*
D20*
X175011Y72001D03*
X175011Y90001D03*
D21*
X202511Y20751D03*
X197511Y20751D03*
X192511Y20751D03*
X187511Y20751D03*
X182511Y20751D03*
X177511Y20751D03*
X172511Y20751D03*
X167511Y20751D03*
X162511Y20751D03*
X157511Y20751D03*
X152511Y20751D03*
X147511Y20751D03*
X122511Y20751D03*
X117511Y20751D03*
X112511Y20751D03*
X107511Y20751D03*
X102511Y20751D03*
X97511Y20751D03*
X92511Y20751D03*
X87511Y20751D03*
X82511Y20751D03*
X77511Y20751D03*
X72511Y20751D03*
X67511Y20751D03*
X62511Y20751D03*
X57511Y20751D03*
X52511Y20751D03*
X47511Y20751D03*
X42511Y20751D03*
X37511Y20751D03*
X32511Y20751D03*
X27511Y20751D03*
X22511Y20751D03*
X17511Y20751D03*
D22*
X150011Y228001D03*
D10*
X262830Y75751D03*
X262830Y82251D03*
X269330Y75751D03*
X269330Y82251D03*
X262830Y88751D03*
X262830Y95251D03*
X269330Y88751D03*
X269330Y95251D03*
X262830Y101751D03*
X262830Y108251D03*
X269330Y101751D03*
X269330Y108251D03*
X262830Y114751D03*
X262830Y121251D03*
X269330Y114751D03*
X269330Y121251D03*
X262830Y127751D03*
X269330Y127751D03*
X262830Y134251D03*
X262830Y140751D03*
X269330Y134251D03*
X269330Y140751D03*
X262830Y147251D03*
X262830Y153751D03*
X269330Y147251D03*
X269330Y153751D03*
X262830Y160251D03*
X269330Y160251D03*
X275830Y75751D03*
X282330Y75751D03*
X288830Y75751D03*
X295330Y75751D03*
X301830Y75751D03*
X308330Y75751D03*
X314830Y75751D03*
X321330Y75751D03*
X327830Y75751D03*
X334330Y75751D03*
X340830Y75751D03*
X347330Y75751D03*
X275830Y82251D03*
X282330Y82251D03*
X288830Y82251D03*
X295330Y82251D03*
X301830Y82251D03*
X308330Y82251D03*
X314830Y82251D03*
X321330Y82251D03*
X327830Y82251D03*
X334330Y82251D03*
X340830Y82251D03*
X347330Y82251D03*
X275830Y88751D03*
X282330Y88751D03*
X288830Y88751D03*
X295330Y88751D03*
X301830Y88751D03*
X308330Y88751D03*
X314830Y88751D03*
X321330Y88751D03*
X327830Y88751D03*
X334330Y88751D03*
X340830Y88751D03*
X347330Y88751D03*
X275830Y95251D03*
X282330Y95251D03*
X288830Y95251D03*
X295330Y95251D03*
X301830Y95251D03*
X308330Y95251D03*
X314830Y95251D03*
X321330Y95251D03*
X327830Y95251D03*
X334330Y95251D03*
X340830Y95251D03*
X347330Y95251D03*
X275830Y101751D03*
X282330Y101751D03*
X288830Y101751D03*
X295330Y101751D03*
X301830Y101751D03*
X308330Y101751D03*
X314830Y101751D03*
X321330Y101751D03*
X327830Y101751D03*
X334330Y101751D03*
X340830Y101751D03*
X347330Y101751D03*
X275830Y108251D03*
X282330Y108251D03*
X288830Y108251D03*
X295330Y108251D03*
X301830Y108251D03*
X308330Y108251D03*
X314830Y108251D03*
X321330Y108251D03*
X327830Y108251D03*
X334330Y108251D03*
X340830Y108251D03*
X347330Y108251D03*
X275830Y114751D03*
X282330Y114751D03*
X288830Y114751D03*
X295330Y114751D03*
X301830Y114751D03*
X308330Y114751D03*
X314830Y114751D03*
X321330Y114751D03*
X327830Y114751D03*
X334330Y114751D03*
X340830Y114751D03*
X347330Y114751D03*
X275830Y121251D03*
X282330Y121251D03*
X288830Y121251D03*
X295330Y121251D03*
X301830Y121251D03*
X308330Y121251D03*
X314830Y121251D03*
X321330Y121251D03*
X327830Y121251D03*
X334330Y121251D03*
X340830Y121251D03*
X347330Y121251D03*
X275830Y127751D03*
X282330Y127751D03*
X288830Y127751D03*
X295330Y127751D03*
X301830Y127751D03*
X308330Y127751D03*
X314830Y127751D03*
X321330Y127751D03*
X327830Y127751D03*
X334330Y127751D03*
X340830Y127751D03*
X347330Y127751D03*
X275830Y134251D03*
X282330Y134251D03*
X288830Y134251D03*
X295330Y134251D03*
X301830Y134251D03*
X308330Y134251D03*
X314830Y134251D03*
X321330Y134251D03*
X327830Y134251D03*
X334330Y134251D03*
X340830Y134251D03*
X347330Y134251D03*
X275830Y140751D03*
X282330Y140751D03*
X288830Y140751D03*
X295330Y140751D03*
X301830Y140751D03*
X308330Y140751D03*
X314830Y140751D03*
X321330Y140751D03*
X327830Y140751D03*
X334330Y140751D03*
X340830Y140751D03*
X347330Y140751D03*
X275830Y147251D03*
X282330Y147251D03*
X288830Y147251D03*
X295330Y147251D03*
X301830Y147251D03*
X308330Y147251D03*
X314830Y147251D03*
X321330Y147251D03*
X327830Y147251D03*
X334330Y147251D03*
X340830Y147251D03*
X347330Y147251D03*
X275830Y153751D03*
X282330Y153751D03*
X288830Y153751D03*
X295330Y153751D03*
X301830Y153751D03*
X308330Y153751D03*
X314830Y153751D03*
X321330Y153751D03*
X327830Y153751D03*
X334330Y153751D03*
X340830Y153751D03*
X347330Y153751D03*
X275830Y160251D03*
X282330Y160251D03*
X288830Y160251D03*
X295330Y160251D03*
X301830Y160251D03*
X308330Y160251D03*
X314830Y160251D03*
X321330Y160251D03*
X327830Y160251D03*
X334330Y160251D03*
X340830Y160251D03*
X347330Y160251D03*
D11*
X419800Y214511D02*
X419800Y221491D01*
X419800Y214511D02*
X412820Y214511D01*
X412820Y221491D01*
X419800Y221491D01*
X419800Y219311D02*
X412820Y219311D01*
X437340Y221491D02*
X437340Y214511D01*
X430360Y214511D01*
X430360Y221491D01*
X437340Y221491D01*
X437340Y219311D02*
X430360Y219311D01*
D12*
X435080Y113001D03*
X435080Y103001D03*
D13*
X401080Y160501D03*
X401080Y135501D03*
D14*
X381160Y93151D03*
X376160Y93151D03*
X371160Y93151D03*
X366160Y93151D03*
X371160Y66651D03*
X366160Y66651D03*
X376160Y66651D03*
X381160Y66651D03*
D12*
X415080Y163001D03*
X415080Y153001D03*
X415080Y133001D03*
X415080Y143001D03*
X363080Y153001D03*
X363080Y143001D03*
X371080Y128001D03*
X381080Y128001D03*
X371080Y167001D03*
X381080Y167001D03*
D15*
X371080Y141251D03*
X371080Y154751D03*
X381080Y154751D03*
X381080Y141251D03*
D12*
X235080Y193001D03*
X235080Y183001D03*
X407880Y109601D03*
X397880Y109601D03*
X407880Y122301D03*
X397880Y122301D03*
D16*
X435080Y58001D03*
X248080Y221001D03*
D17*
X257580Y183001D03*
X262580Y183001D03*
X267580Y183001D03*
X272580Y183001D03*
D18*
X280080Y190501D03*
X280080Y195501D03*
X280080Y200501D03*
X280080Y205501D03*
D17*
X272580Y213001D03*
X267580Y213001D03*
X262580Y213001D03*
X257580Y213001D03*
D18*
X250080Y205651D03*
X250080Y200501D03*
X250080Y195501D03*
X250080Y190501D03*
D19*
X265080Y198001D03*
D12*
X340080Y218001D03*
X330080Y218001D03*
D11*
X310360Y214511D02*
X310360Y221491D01*
X317340Y221491D01*
X317340Y214511D01*
X310360Y214511D01*
X310360Y219311D02*
X317340Y219311D01*
X292820Y221491D02*
X292820Y214511D01*
X292820Y221491D02*
X299800Y221491D01*
X299800Y214511D01*
X292820Y214511D01*
X292820Y219311D02*
X299800Y219311D01*
D12*
X235080Y203001D03*
X235080Y213001D03*
D20*
X400080Y72001D03*
X400080Y90001D03*
D21*
X427580Y20751D03*
X422580Y20751D03*
X417580Y20751D03*
X412580Y20751D03*
X407580Y20751D03*
X402580Y20751D03*
X397580Y20751D03*
X392580Y20751D03*
X387580Y20751D03*
X382580Y20751D03*
X377580Y20751D03*
X372580Y20751D03*
X347580Y20751D03*
X342580Y20751D03*
X337580Y20751D03*
X332580Y20751D03*
X327580Y20751D03*
X322580Y20751D03*
X317580Y20751D03*
X312580Y20751D03*
X307580Y20751D03*
X302580Y20751D03*
X297580Y20751D03*
X292580Y20751D03*
X287580Y20751D03*
X282580Y20751D03*
X277580Y20751D03*
X272580Y20751D03*
X267580Y20751D03*
X262580Y20751D03*
X257580Y20751D03*
X252580Y20751D03*
X247580Y20751D03*
X242580Y20751D03*
D22*
X375080Y228001D03*
D10*
X487925Y75751D03*
X487925Y82251D03*
X494425Y75751D03*
X494425Y82251D03*
X487925Y88751D03*
X487925Y95251D03*
X494425Y88751D03*
X494425Y95251D03*
X487925Y101751D03*
X487925Y108251D03*
X494425Y101751D03*
X494425Y108251D03*
X487925Y114751D03*
X487925Y121251D03*
X494425Y114751D03*
X494425Y121251D03*
X487925Y127751D03*
X494425Y127751D03*
X487925Y134251D03*
X487925Y140751D03*
X494425Y134251D03*
X494425Y140751D03*
X487925Y147251D03*
X487925Y153751D03*
X494425Y147251D03*
X494425Y153751D03*
X487925Y160251D03*
X494425Y160251D03*
X500925Y75751D03*
X507425Y75751D03*
X513925Y75751D03*
X520425Y75751D03*
X526925Y75751D03*
X533425Y75751D03*
X539925Y75751D03*
X546425Y75751D03*
X552925Y75751D03*
X559425Y75751D03*
X565925Y75751D03*
X572425Y75751D03*
X500925Y82251D03*
X507425Y82251D03*
X513925Y82251D03*
X520425Y82251D03*
X526925Y82251D03*
X533425Y82251D03*
X539925Y82251D03*
X546425Y82251D03*
X552925Y82251D03*
X559425Y82251D03*
X565925Y82251D03*
X572425Y82251D03*
X500925Y88751D03*
X507425Y88751D03*
X513925Y88751D03*
X520425Y88751D03*
X526925Y88751D03*
X533425Y88751D03*
X539925Y88751D03*
X546425Y88751D03*
X552925Y88751D03*
X559425Y88751D03*
X565925Y88751D03*
X572425Y88751D03*
X500925Y95251D03*
X507425Y95251D03*
X513925Y95251D03*
X520425Y95251D03*
X526925Y95251D03*
X533425Y95251D03*
X539925Y95251D03*
X546425Y95251D03*
X552925Y95251D03*
X559425Y95251D03*
X565925Y95251D03*
X572425Y95251D03*
X500925Y101751D03*
X507425Y101751D03*
X513925Y101751D03*
X520425Y101751D03*
X526925Y101751D03*
X533425Y101751D03*
X539925Y101751D03*
X546425Y101751D03*
X552925Y101751D03*
X559425Y101751D03*
X565925Y101751D03*
X572425Y101751D03*
X500925Y108251D03*
X507425Y108251D03*
X513925Y108251D03*
X520425Y108251D03*
X526925Y108251D03*
X533425Y108251D03*
X539925Y108251D03*
X546425Y108251D03*
X552925Y108251D03*
X559425Y108251D03*
X565925Y108251D03*
X572425Y108251D03*
X500925Y114751D03*
X507425Y114751D03*
X513925Y114751D03*
X520425Y114751D03*
X526925Y114751D03*
X533425Y114751D03*
X539925Y114751D03*
X546425Y114751D03*
X552925Y114751D03*
X559425Y114751D03*
X565925Y114751D03*
X572425Y114751D03*
X500925Y121251D03*
X507425Y121251D03*
X513925Y121251D03*
X520425Y121251D03*
X526925Y121251D03*
X533425Y121251D03*
X539925Y121251D03*
X546425Y121251D03*
X552925Y121251D03*
X559425Y121251D03*
X565925Y121251D03*
X572425Y121251D03*
X500925Y127751D03*
X507425Y127751D03*
X513925Y127751D03*
X520425Y127751D03*
X526925Y127751D03*
X533425Y127751D03*
X539925Y127751D03*
X546425Y127751D03*
X552925Y127751D03*
X559425Y127751D03*
X565925Y127751D03*
X572425Y127751D03*
X500925Y134251D03*
X507425Y134251D03*
X513925Y134251D03*
X520425Y134251D03*
X526925Y134251D03*
X533425Y134251D03*
X539925Y134251D03*
X546425Y134251D03*
X552925Y134251D03*
X559425Y134251D03*
X565925Y134251D03*
X572425Y134251D03*
X500925Y140751D03*
X507425Y140751D03*
X513925Y140751D03*
X520425Y140751D03*
X526925Y140751D03*
X533425Y140751D03*
X539925Y140751D03*
X546425Y140751D03*
X552925Y140751D03*
X559425Y140751D03*
X565925Y140751D03*
X572425Y140751D03*
X500925Y147251D03*
X507425Y147251D03*
X513925Y147251D03*
X520425Y147251D03*
X526925Y147251D03*
X533425Y147251D03*
X539925Y147251D03*
X546425Y147251D03*
X552925Y147251D03*
X559425Y147251D03*
X565925Y147251D03*
X572425Y147251D03*
X500925Y153751D03*
X507425Y153751D03*
X513925Y153751D03*
X520425Y153751D03*
X526925Y153751D03*
X533425Y153751D03*
X539925Y153751D03*
X546425Y153751D03*
X552925Y153751D03*
X559425Y153751D03*
X565925Y153751D03*
X572425Y153751D03*
X500925Y160251D03*
X507425Y160251D03*
X513925Y160251D03*
X520425Y160251D03*
X526925Y160251D03*
X533425Y160251D03*
X539925Y160251D03*
X546425Y160251D03*
X552925Y160251D03*
X559425Y160251D03*
X565925Y160251D03*
X572425Y160251D03*
D11*
X644895Y214511D02*
X644895Y221491D01*
X644895Y214511D02*
X637915Y214511D01*
X637915Y221491D01*
X644895Y221491D01*
X644895Y219311D02*
X637915Y219311D01*
X662435Y221491D02*
X662435Y214511D01*
X655455Y214511D01*
X655455Y221491D01*
X662435Y221491D01*
X662435Y219311D02*
X655455Y219311D01*
D12*
X660175Y113001D03*
X660175Y103001D03*
D13*
X626175Y160501D03*
X626175Y135501D03*
D14*
X606255Y93151D03*
X601255Y93151D03*
X596255Y93151D03*
X591255Y93151D03*
X596255Y66651D03*
X591255Y66651D03*
X601255Y66651D03*
X606255Y66651D03*
D12*
X640175Y163001D03*
X640175Y153001D03*
X640175Y133001D03*
X640175Y143001D03*
X588175Y153001D03*
X588175Y143001D03*
X596175Y128001D03*
X606175Y128001D03*
X596175Y167001D03*
X606175Y167001D03*
D15*
X596175Y141251D03*
X596175Y154751D03*
X606175Y154751D03*
X606175Y141251D03*
D12*
X460175Y193001D03*
X460175Y183001D03*
X632975Y109601D03*
X622975Y109601D03*
X632975Y122301D03*
X622975Y122301D03*
D16*
X660175Y58001D03*
X473175Y221001D03*
D17*
X482675Y183001D03*
X487675Y183001D03*
X492675Y183001D03*
X497675Y183001D03*
D18*
X505175Y190501D03*
X505175Y195501D03*
X505175Y200501D03*
X505175Y205501D03*
D17*
X497675Y213001D03*
X492675Y213001D03*
X487675Y213001D03*
X482675Y213001D03*
D18*
X475175Y205651D03*
X475175Y200501D03*
X475175Y195501D03*
X475175Y190501D03*
D19*
X490175Y198001D03*
D12*
X565175Y218001D03*
X555175Y218001D03*
D11*
X535455Y214511D02*
X535455Y221491D01*
X542435Y221491D01*
X542435Y214511D01*
X535455Y214511D01*
X535455Y219311D02*
X542435Y219311D01*
X517915Y221491D02*
X517915Y214511D01*
X517915Y221491D02*
X524895Y221491D01*
X524895Y214511D01*
X517915Y214511D01*
X517915Y219311D02*
X524895Y219311D01*
D12*
X460175Y203001D03*
X460175Y213001D03*
D20*
X625175Y72001D03*
X625175Y90001D03*
D21*
X652675Y20751D03*
X647675Y20751D03*
X642675Y20751D03*
X637675Y20751D03*
X632675Y20751D03*
X627675Y20751D03*
X622675Y20751D03*
X617675Y20751D03*
X612675Y20751D03*
X607675Y20751D03*
X602675Y20751D03*
X597675Y20751D03*
X572675Y20751D03*
X567675Y20751D03*
X562675Y20751D03*
X557675Y20751D03*
X552675Y20751D03*
X547675Y20751D03*
X542675Y20751D03*
X537675Y20751D03*
X532675Y20751D03*
X527675Y20751D03*
X522675Y20751D03*
X517675Y20751D03*
X512675Y20751D03*
X507675Y20751D03*
X502675Y20751D03*
X497675Y20751D03*
X492675Y20751D03*
X487675Y20751D03*
X482675Y20751D03*
X477675Y20751D03*
X472675Y20751D03*
X467675Y20751D03*
D22*
X600175Y228001D03*
D10*
X712994Y75751D03*
X712994Y82251D03*
X719494Y75751D03*
X719494Y82251D03*
X712994Y88751D03*
X712994Y95251D03*
X719494Y88751D03*
X719494Y95251D03*
X712994Y101751D03*
X712994Y108251D03*
X719494Y101751D03*
X719494Y108251D03*
X712994Y114751D03*
X712994Y121251D03*
X719494Y114751D03*
X719494Y121251D03*
X712994Y127751D03*
X719494Y127751D03*
X712994Y134251D03*
X712994Y140751D03*
X719494Y134251D03*
X719494Y140751D03*
X712994Y147251D03*
X712994Y153751D03*
X719494Y147251D03*
X719494Y153751D03*
X712994Y160251D03*
X719494Y160251D03*
X725994Y75751D03*
X732494Y75751D03*
X738994Y75751D03*
X745494Y75751D03*
X751994Y75751D03*
X758494Y75751D03*
X764994Y75751D03*
X771494Y75751D03*
X777994Y75751D03*
X784494Y75751D03*
X790994Y75751D03*
X797494Y75751D03*
X725994Y82251D03*
X732494Y82251D03*
X738994Y82251D03*
X745494Y82251D03*
X751994Y82251D03*
X758494Y82251D03*
X764994Y82251D03*
X771494Y82251D03*
X777994Y82251D03*
X784494Y82251D03*
X790994Y82251D03*
X797494Y82251D03*
X725994Y88751D03*
X732494Y88751D03*
X738994Y88751D03*
X745494Y88751D03*
X751994Y88751D03*
X758494Y88751D03*
X764994Y88751D03*
X771494Y88751D03*
X777994Y88751D03*
X784494Y88751D03*
X790994Y88751D03*
X797494Y88751D03*
X725994Y95251D03*
X732494Y95251D03*
X738994Y95251D03*
X745494Y95251D03*
X751994Y95251D03*
X758494Y95251D03*
X764994Y95251D03*
X771494Y95251D03*
X777994Y95251D03*
X784494Y95251D03*
X790994Y95251D03*
X797494Y95251D03*
X725994Y101751D03*
X732494Y101751D03*
X738994Y101751D03*
X745494Y101751D03*
X751994Y101751D03*
X758494Y101751D03*
X764994Y101751D03*
X771494Y101751D03*
X777994Y101751D03*
X784494Y101751D03*
X790994Y101751D03*
X797494Y101751D03*
X725994Y108251D03*
X732494Y108251D03*
X738994Y108251D03*
X745494Y108251D03*
X751994Y108251D03*
X758494Y108251D03*
X764994Y108251D03*
X771494Y108251D03*
X777994Y108251D03*
X784494Y108251D03*
X790994Y108251D03*
X797494Y108251D03*
X725994Y114751D03*
X732494Y114751D03*
X738994Y114751D03*
X745494Y114751D03*
X751994Y114751D03*
X758494Y114751D03*
X764994Y114751D03*
X771494Y114751D03*
X777994Y114751D03*
X784494Y114751D03*
X790994Y114751D03*
X797494Y114751D03*
X725994Y121251D03*
X732494Y121251D03*
X738994Y121251D03*
X745494Y121251D03*
X751994Y121251D03*
X758494Y121251D03*
X764994Y121251D03*
X771494Y121251D03*
X777994Y121251D03*
X784494Y121251D03*
X790994Y121251D03*
X797494Y121251D03*
X725994Y127751D03*
X732494Y127751D03*
X738994Y127751D03*
X745494Y127751D03*
X751994Y127751D03*
X758494Y127751D03*
X764994Y127751D03*
X771494Y127751D03*
X777994Y127751D03*
X784494Y127751D03*
X790994Y127751D03*
X797494Y127751D03*
X725994Y134251D03*
X732494Y134251D03*
X738994Y134251D03*
X745494Y134251D03*
X751994Y134251D03*
X758494Y134251D03*
X764994Y134251D03*
X771494Y134251D03*
X777994Y134251D03*
X784494Y134251D03*
X790994Y134251D03*
X797494Y134251D03*
X725994Y140751D03*
X732494Y140751D03*
X738994Y140751D03*
X745494Y140751D03*
X751994Y140751D03*
X758494Y140751D03*
X764994Y140751D03*
X771494Y140751D03*
X777994Y140751D03*
X784494Y140751D03*
X790994Y140751D03*
X797494Y140751D03*
X725994Y147251D03*
X732494Y147251D03*
X738994Y147251D03*
X745494Y147251D03*
X751994Y147251D03*
X758494Y147251D03*
X764994Y147251D03*
X771494Y147251D03*
X777994Y147251D03*
X784494Y147251D03*
X790994Y147251D03*
X797494Y147251D03*
X725994Y153751D03*
X732494Y153751D03*
X738994Y153751D03*
X745494Y153751D03*
X751994Y153751D03*
X758494Y153751D03*
X764994Y153751D03*
X771494Y153751D03*
X777994Y153751D03*
X784494Y153751D03*
X790994Y153751D03*
X797494Y153751D03*
X725994Y160251D03*
X732494Y160251D03*
X738994Y160251D03*
X745494Y160251D03*
X751994Y160251D03*
X758494Y160251D03*
X764994Y160251D03*
X771494Y160251D03*
X777994Y160251D03*
X784494Y160251D03*
X790994Y160251D03*
X797494Y160251D03*
D11*
X869964Y214511D02*
X869964Y221491D01*
X869964Y214511D02*
X862984Y214511D01*
X862984Y221491D01*
X869964Y221491D01*
X869964Y219311D02*
X862984Y219311D01*
X887504Y221491D02*
X887504Y214511D01*
X880524Y214511D01*
X880524Y221491D01*
X887504Y221491D01*
X887504Y219311D02*
X880524Y219311D01*
D12*
X885244Y113001D03*
X885244Y103001D03*
D13*
X851244Y160501D03*
X851244Y135501D03*
D14*
X831324Y93151D03*
X826324Y93151D03*
X821324Y93151D03*
X816324Y93151D03*
X821324Y66651D03*
X816324Y66651D03*
X826324Y66651D03*
X831324Y66651D03*
D12*
X865244Y163001D03*
X865244Y153001D03*
X865244Y133001D03*
X865244Y143001D03*
X813244Y153001D03*
X813244Y143001D03*
X821244Y128001D03*
X831244Y128001D03*
X821244Y167001D03*
X831244Y167001D03*
D15*
X821244Y141251D03*
X821244Y154751D03*
X831244Y154751D03*
X831244Y141251D03*
D12*
X685244Y193001D03*
X685244Y183001D03*
X858044Y109601D03*
X848044Y109601D03*
X858044Y122301D03*
X848044Y122301D03*
D16*
X885244Y58001D03*
X698244Y221001D03*
D17*
X707744Y183001D03*
X712744Y183001D03*
X717744Y183001D03*
X722744Y183001D03*
D18*
X730244Y190501D03*
X730244Y195501D03*
X730244Y200501D03*
X730244Y205501D03*
D17*
X722744Y213001D03*
X717744Y213001D03*
X712744Y213001D03*
X707744Y213001D03*
D18*
X700244Y205651D03*
X700244Y200501D03*
X700244Y195501D03*
X700244Y190501D03*
D19*
X715244Y198001D03*
D12*
X790244Y218001D03*
X780244Y218001D03*
D11*
X760524Y214511D02*
X760524Y221491D01*
X767504Y221491D01*
X767504Y214511D01*
X760524Y214511D01*
X760524Y219311D02*
X767504Y219311D01*
X742984Y221491D02*
X742984Y214511D01*
X742984Y221491D02*
X749964Y221491D01*
X749964Y214511D01*
X742984Y214511D01*
X742984Y219311D02*
X749964Y219311D01*
D12*
X685244Y203001D03*
X685244Y213001D03*
D20*
X850244Y72001D03*
X850244Y90001D03*
D21*
X877744Y20751D03*
X872744Y20751D03*
X867744Y20751D03*
X862744Y20751D03*
X857744Y20751D03*
X852744Y20751D03*
X847744Y20751D03*
X842744Y20751D03*
X837744Y20751D03*
X832744Y20751D03*
X827744Y20751D03*
X822744Y20751D03*
X797744Y20751D03*
X792744Y20751D03*
X787744Y20751D03*
X782744Y20751D03*
X777744Y20751D03*
X772744Y20751D03*
X767744Y20751D03*
X762744Y20751D03*
X757744Y20751D03*
X752744Y20751D03*
X747744Y20751D03*
X742744Y20751D03*
X737744Y20751D03*
X732744Y20751D03*
X727744Y20751D03*
X722744Y20751D03*
X717744Y20751D03*
X712744Y20751D03*
X707744Y20751D03*
X702744Y20751D03*
X697744Y20751D03*
X692744Y20751D03*
D22*
X825244Y228001D03*
D10*
X938089Y75751D03*
X938089Y82251D03*
X944589Y75751D03*
X944589Y82251D03*
X938089Y88751D03*
X938089Y95251D03*
X944589Y88751D03*
X944589Y95251D03*
X938089Y101751D03*
X938089Y108251D03*
X944589Y101751D03*
X944589Y108251D03*
X938089Y114751D03*
X938089Y121251D03*
X944589Y114751D03*
X944589Y121251D03*
X938089Y127751D03*
X944589Y127751D03*
X938089Y134251D03*
X938089Y140751D03*
X944589Y134251D03*
X944589Y140751D03*
X938089Y147251D03*
X938089Y153751D03*
X944589Y147251D03*
X944589Y153751D03*
X938089Y160251D03*
X944589Y160251D03*
X951089Y75751D03*
X957589Y75751D03*
X964089Y75751D03*
X970589Y75751D03*
X977089Y75751D03*
X983589Y75751D03*
X990089Y75751D03*
X996589Y75751D03*
X1003089Y75751D03*
X1009589Y75751D03*
X1016089Y75751D03*
X1022589Y75751D03*
X951089Y82251D03*
X957589Y82251D03*
X964089Y82251D03*
X970589Y82251D03*
X977089Y82251D03*
X983589Y82251D03*
X990089Y82251D03*
X996589Y82251D03*
X1003089Y82251D03*
X1009589Y82251D03*
X1016089Y82251D03*
X1022589Y82251D03*
X951089Y88751D03*
X957589Y88751D03*
X964089Y88751D03*
X970589Y88751D03*
X977089Y88751D03*
X983589Y88751D03*
X990089Y88751D03*
X996589Y88751D03*
X1003089Y88751D03*
X1009589Y88751D03*
X1016089Y88751D03*
X1022589Y88751D03*
X951089Y95251D03*
X957589Y95251D03*
X964089Y95251D03*
X970589Y95251D03*
X977089Y95251D03*
X983589Y95251D03*
X990089Y95251D03*
X996589Y95251D03*
X1003089Y95251D03*
X1009589Y95251D03*
X1016089Y95251D03*
X1022589Y95251D03*
X951089Y101751D03*
X957589Y101751D03*
X964089Y101751D03*
X970589Y101751D03*
X977089Y101751D03*
X983589Y101751D03*
X990089Y101751D03*
X996589Y101751D03*
X1003089Y101751D03*
X1009589Y101751D03*
X1016089Y101751D03*
X1022589Y101751D03*
X951089Y108251D03*
X957589Y108251D03*
X964089Y108251D03*
X970589Y108251D03*
X977089Y108251D03*
X983589Y108251D03*
X990089Y108251D03*
X996589Y108251D03*
X1003089Y108251D03*
X1009589Y108251D03*
X1016089Y108251D03*
X1022589Y108251D03*
X951089Y114751D03*
X957589Y114751D03*
X964089Y114751D03*
X970589Y114751D03*
X977089Y114751D03*
X983589Y114751D03*
X990089Y114751D03*
X996589Y114751D03*
X1003089Y114751D03*
X1009589Y114751D03*
X1016089Y114751D03*
X1022589Y114751D03*
X951089Y121251D03*
X957589Y121251D03*
X964089Y121251D03*
X970589Y121251D03*
X977089Y121251D03*
X983589Y121251D03*
X990089Y121251D03*
X996589Y121251D03*
X1003089Y121251D03*
X1009589Y121251D03*
X1016089Y121251D03*
X1022589Y121251D03*
X951089Y127751D03*
X957589Y127751D03*
X964089Y127751D03*
X970589Y127751D03*
X977089Y127751D03*
X983589Y127751D03*
X990089Y127751D03*
X996589Y127751D03*
X1003089Y127751D03*
X1009589Y127751D03*
X1016089Y127751D03*
X1022589Y127751D03*
X951089Y134251D03*
X957589Y134251D03*
X964089Y134251D03*
X970589Y134251D03*
X977089Y134251D03*
X983589Y134251D03*
X990089Y134251D03*
X996589Y134251D03*
X1003089Y134251D03*
X1009589Y134251D03*
X1016089Y134251D03*
X1022589Y134251D03*
X951089Y140751D03*
X957589Y140751D03*
X964089Y140751D03*
X970589Y140751D03*
X977089Y140751D03*
X983589Y140751D03*
X990089Y140751D03*
X996589Y140751D03*
X1003089Y140751D03*
X1009589Y140751D03*
X1016089Y140751D03*
X1022589Y140751D03*
X951089Y147251D03*
X957589Y147251D03*
X964089Y147251D03*
X970589Y147251D03*
X977089Y147251D03*
X983589Y147251D03*
X990089Y147251D03*
X996589Y147251D03*
X1003089Y147251D03*
X1009589Y147251D03*
X1016089Y147251D03*
X1022589Y147251D03*
X951089Y153751D03*
X957589Y153751D03*
X964089Y153751D03*
X970589Y153751D03*
X977089Y153751D03*
X983589Y153751D03*
X990089Y153751D03*
X996589Y153751D03*
X1003089Y153751D03*
X1009589Y153751D03*
X1016089Y153751D03*
X1022589Y153751D03*
X951089Y160251D03*
X957589Y160251D03*
X964089Y160251D03*
X970589Y160251D03*
X977089Y160251D03*
X983589Y160251D03*
X990089Y160251D03*
X996589Y160251D03*
X1003089Y160251D03*
X1009589Y160251D03*
X1016089Y160251D03*
X1022589Y160251D03*
D11*
X1095059Y214511D02*
X1095059Y221491D01*
X1095059Y214511D02*
X1088079Y214511D01*
X1088079Y221491D01*
X1095059Y221491D01*
X1095059Y219311D02*
X1088079Y219311D01*
X1112599Y221491D02*
X1112599Y214511D01*
X1105619Y214511D01*
X1105619Y221491D01*
X1112599Y221491D01*
X1112599Y219311D02*
X1105619Y219311D01*
D12*
X1110339Y113001D03*
X1110339Y103001D03*
D13*
X1076339Y160501D03*
X1076339Y135501D03*
D14*
X1056419Y93151D03*
X1051419Y93151D03*
X1046419Y93151D03*
X1041419Y93151D03*
X1046419Y66651D03*
X1041419Y66651D03*
X1051419Y66651D03*
X1056419Y66651D03*
D12*
X1090339Y163001D03*
X1090339Y153001D03*
X1090339Y133001D03*
X1090339Y143001D03*
X1038339Y153001D03*
X1038339Y143001D03*
X1046339Y128001D03*
X1056339Y128001D03*
X1046339Y167001D03*
X1056339Y167001D03*
D15*
X1046339Y141251D03*
X1046339Y154751D03*
X1056339Y154751D03*
X1056339Y141251D03*
D12*
X910339Y193001D03*
X910339Y183001D03*
X1083139Y109601D03*
X1073139Y109601D03*
X1083139Y122301D03*
X1073139Y122301D03*
D16*
X1110339Y58001D03*
X923339Y221001D03*
D17*
X932839Y183001D03*
X937839Y183001D03*
X942839Y183001D03*
X947839Y183001D03*
D18*
X955339Y190501D03*
X955339Y195501D03*
X955339Y200501D03*
X955339Y205501D03*
D17*
X947839Y213001D03*
X942839Y213001D03*
X937839Y213001D03*
X932839Y213001D03*
D18*
X925339Y205651D03*
X925339Y200501D03*
X925339Y195501D03*
X925339Y190501D03*
D19*
X940339Y198001D03*
D12*
X1015339Y218001D03*
X1005339Y218001D03*
D11*
X985619Y214511D02*
X985619Y221491D01*
X992599Y221491D01*
X992599Y214511D01*
X985619Y214511D01*
X985619Y219311D02*
X992599Y219311D01*
X968079Y221491D02*
X968079Y214511D01*
X968079Y221491D02*
X975059Y221491D01*
X975059Y214511D01*
X968079Y214511D01*
X968079Y219311D02*
X975059Y219311D01*
D12*
X910339Y203001D03*
X910339Y213001D03*
D20*
X1075339Y72001D03*
X1075339Y90001D03*
D21*
X1102839Y20751D03*
X1097839Y20751D03*
X1092839Y20751D03*
X1087839Y20751D03*
X1082839Y20751D03*
X1077839Y20751D03*
X1072839Y20751D03*
X1067839Y20751D03*
X1062839Y20751D03*
X1057839Y20751D03*
X1052839Y20751D03*
X1047839Y20751D03*
X1022839Y20751D03*
X1017839Y20751D03*
X1012839Y20751D03*
X1007839Y20751D03*
X1002839Y20751D03*
X997839Y20751D03*
X992839Y20751D03*
X987839Y20751D03*
X982839Y20751D03*
X977839Y20751D03*
X972839Y20751D03*
X967839Y20751D03*
X962839Y20751D03*
X957839Y20751D03*
X952839Y20751D03*
X947839Y20751D03*
X942839Y20751D03*
X937839Y20751D03*
X932839Y20751D03*
X927839Y20751D03*
X922839Y20751D03*
X917839Y20751D03*
D22*
X1050339Y228001D03*
D10*
X1163158Y75751D03*
X1163158Y82251D03*
X1169658Y75751D03*
X1169658Y82251D03*
X1163158Y88751D03*
X1163158Y95251D03*
X1169658Y88751D03*
X1169658Y95251D03*
X1163158Y101751D03*
X1163158Y108251D03*
X1169658Y101751D03*
X1169658Y108251D03*
X1163158Y114751D03*
X1163158Y121251D03*
X1169658Y114751D03*
X1169658Y121251D03*
X1163158Y127751D03*
X1169658Y127751D03*
X1163158Y134251D03*
X1163158Y140751D03*
X1169658Y134251D03*
X1169658Y140751D03*
X1163158Y147251D03*
X1163158Y153751D03*
X1169658Y147251D03*
X1169658Y153751D03*
X1163158Y160251D03*
X1169658Y160251D03*
X1176158Y75751D03*
X1182658Y75751D03*
X1189158Y75751D03*
X1195658Y75751D03*
X1202158Y75751D03*
X1208658Y75751D03*
X1215158Y75751D03*
X1221658Y75751D03*
X1228158Y75751D03*
X1234658Y75751D03*
X1241158Y75751D03*
X1247658Y75751D03*
X1176158Y82251D03*
X1182658Y82251D03*
X1189158Y82251D03*
X1195658Y82251D03*
X1202158Y82251D03*
X1208658Y82251D03*
X1215158Y82251D03*
X1221658Y82251D03*
X1228158Y82251D03*
X1234658Y82251D03*
X1241158Y82251D03*
X1247658Y82251D03*
X1176158Y88751D03*
X1182658Y88751D03*
X1189158Y88751D03*
X1195658Y88751D03*
X1202158Y88751D03*
X1208658Y88751D03*
X1215158Y88751D03*
X1221658Y88751D03*
X1228158Y88751D03*
X1234658Y88751D03*
X1241158Y88751D03*
X1247658Y88751D03*
X1176158Y95251D03*
X1182658Y95251D03*
X1189158Y95251D03*
X1195658Y95251D03*
X1202158Y95251D03*
X1208658Y95251D03*
X1215158Y95251D03*
X1221658Y95251D03*
X1228158Y95251D03*
X1234658Y95251D03*
X1241158Y95251D03*
X1247658Y95251D03*
X1176158Y101751D03*
X1182658Y101751D03*
X1189158Y101751D03*
X1195658Y101751D03*
X1202158Y101751D03*
X1208658Y101751D03*
X1215158Y101751D03*
X1221658Y101751D03*
X1228158Y101751D03*
X1234658Y101751D03*
X1241158Y101751D03*
X1247658Y101751D03*
X1176158Y108251D03*
X1182658Y108251D03*
X1189158Y108251D03*
X1195658Y108251D03*
X1202158Y108251D03*
X1208658Y108251D03*
X1215158Y108251D03*
X1221658Y108251D03*
X1228158Y108251D03*
X1234658Y108251D03*
X1241158Y108251D03*
X1247658Y108251D03*
X1176158Y114751D03*
X1182658Y114751D03*
X1189158Y114751D03*
X1195658Y114751D03*
X1202158Y114751D03*
X1208658Y114751D03*
X1215158Y114751D03*
X1221658Y114751D03*
X1228158Y114751D03*
X1234658Y114751D03*
X1241158Y114751D03*
X1247658Y114751D03*
X1176158Y121251D03*
X1182658Y121251D03*
X1189158Y121251D03*
X1195658Y121251D03*
X1202158Y121251D03*
X1208658Y121251D03*
X1215158Y121251D03*
X1221658Y121251D03*
X1228158Y121251D03*
X1234658Y121251D03*
X1241158Y121251D03*
X1247658Y121251D03*
X1176158Y127751D03*
X1182658Y127751D03*
X1189158Y127751D03*
X1195658Y127751D03*
X1202158Y127751D03*
X1208658Y127751D03*
X1215158Y127751D03*
X1221658Y127751D03*
X1228158Y127751D03*
X1234658Y127751D03*
X1241158Y127751D03*
X1247658Y127751D03*
X1176158Y134251D03*
X1182658Y134251D03*
X1189158Y134251D03*
X1195658Y134251D03*
X1202158Y134251D03*
X1208658Y134251D03*
X1215158Y134251D03*
X1221658Y134251D03*
X1228158Y134251D03*
X1234658Y134251D03*
X1241158Y134251D03*
X1247658Y134251D03*
X1176158Y140751D03*
X1182658Y140751D03*
X1189158Y140751D03*
X1195658Y140751D03*
X1202158Y140751D03*
X1208658Y140751D03*
X1215158Y140751D03*
X1221658Y140751D03*
X1228158Y140751D03*
X1234658Y140751D03*
X1241158Y140751D03*
X1247658Y140751D03*
X1176158Y147251D03*
X1182658Y147251D03*
X1189158Y147251D03*
X1195658Y147251D03*
X1202158Y147251D03*
X1208658Y147251D03*
X1215158Y147251D03*
X1221658Y147251D03*
X1228158Y147251D03*
X1234658Y147251D03*
X1241158Y147251D03*
X1247658Y147251D03*
X1176158Y153751D03*
X1182658Y153751D03*
X1189158Y153751D03*
X1195658Y153751D03*
X1202158Y153751D03*
X1208658Y153751D03*
X1215158Y153751D03*
X1221658Y153751D03*
X1228158Y153751D03*
X1234658Y153751D03*
X1241158Y153751D03*
X1247658Y153751D03*
X1176158Y160251D03*
X1182658Y160251D03*
X1189158Y160251D03*
X1195658Y160251D03*
X1202158Y160251D03*
X1208658Y160251D03*
X1215158Y160251D03*
X1221658Y160251D03*
X1228158Y160251D03*
X1234658Y160251D03*
X1241158Y160251D03*
X1247658Y160251D03*
D11*
X1320128Y214511D02*
X1320128Y221491D01*
X1320128Y214511D02*
X1313148Y214511D01*
X1313148Y221491D01*
X1320128Y221491D01*
X1320128Y219311D02*
X1313148Y219311D01*
X1337668Y221491D02*
X1337668Y214511D01*
X1330688Y214511D01*
X1330688Y221491D01*
X1337668Y221491D01*
X1337668Y219311D02*
X1330688Y219311D01*
D12*
X1335408Y113001D03*
X1335408Y103001D03*
D13*
X1301408Y160501D03*
X1301408Y135501D03*
D14*
X1281488Y93151D03*
X1276488Y93151D03*
X1271488Y93151D03*
X1266488Y93151D03*
X1271488Y66651D03*
X1266488Y66651D03*
X1276488Y66651D03*
X1281488Y66651D03*
D12*
X1315408Y163001D03*
X1315408Y153001D03*
X1315408Y133001D03*
X1315408Y143001D03*
X1263408Y153001D03*
X1263408Y143001D03*
X1271408Y128001D03*
X1281408Y128001D03*
X1271408Y167001D03*
X1281408Y167001D03*
D15*
X1271408Y141251D03*
X1271408Y154751D03*
X1281408Y154751D03*
X1281408Y141251D03*
D12*
X1135408Y193001D03*
X1135408Y183001D03*
X1308208Y109601D03*
X1298208Y109601D03*
X1308208Y122301D03*
X1298208Y122301D03*
D16*
X1335408Y58001D03*
X1148408Y221001D03*
D17*
X1157908Y183001D03*
X1162908Y183001D03*
X1167908Y183001D03*
X1172908Y183001D03*
D18*
X1180408Y190501D03*
X1180408Y195501D03*
X1180408Y200501D03*
X1180408Y205501D03*
D17*
X1172908Y213001D03*
X1167908Y213001D03*
X1162908Y213001D03*
X1157908Y213001D03*
D18*
X1150408Y205651D03*
X1150408Y200501D03*
X1150408Y195501D03*
X1150408Y190501D03*
D19*
X1165408Y198001D03*
D12*
X1240408Y218001D03*
X1230408Y218001D03*
D11*
X1210688Y214511D02*
X1210688Y221491D01*
X1217668Y221491D01*
X1217668Y214511D01*
X1210688Y214511D01*
X1210688Y219311D02*
X1217668Y219311D01*
X1193148Y221491D02*
X1193148Y214511D01*
X1193148Y221491D02*
X1200128Y221491D01*
X1200128Y214511D01*
X1193148Y214511D01*
X1193148Y219311D02*
X1200128Y219311D01*
D12*
X1135408Y203001D03*
X1135408Y213001D03*
D20*
X1300408Y72001D03*
X1300408Y90001D03*
D21*
X1327908Y20751D03*
X1322908Y20751D03*
X1317908Y20751D03*
X1312908Y20751D03*
X1307908Y20751D03*
X1302908Y20751D03*
X1297908Y20751D03*
X1292908Y20751D03*
X1287908Y20751D03*
X1282908Y20751D03*
X1277908Y20751D03*
X1272908Y20751D03*
X1247908Y20751D03*
X1242908Y20751D03*
X1237908Y20751D03*
X1232908Y20751D03*
X1227908Y20751D03*
X1222908Y20751D03*
X1217908Y20751D03*
X1212908Y20751D03*
X1207908Y20751D03*
X1202908Y20751D03*
X1197908Y20751D03*
X1192908Y20751D03*
X1187908Y20751D03*
X1182908Y20751D03*
X1177908Y20751D03*
X1172908Y20751D03*
X1167908Y20751D03*
X1162908Y20751D03*
X1157908Y20751D03*
X1152908Y20751D03*
X1147908Y20751D03*
X1142908Y20751D03*
D22*
X1275408Y228001D03*
D10*
X1388253Y75751D03*
X1388253Y82251D03*
X1394753Y75751D03*
X1394753Y82251D03*
X1388253Y88751D03*
X1388253Y95251D03*
X1394753Y88751D03*
X1394753Y95251D03*
X1388253Y101751D03*
X1388253Y108251D03*
X1394753Y101751D03*
X1394753Y108251D03*
X1388253Y114751D03*
X1388253Y121251D03*
X1394753Y114751D03*
X1394753Y121251D03*
X1388253Y127751D03*
X1394753Y127751D03*
X1388253Y134251D03*
X1388253Y140751D03*
X1394753Y134251D03*
X1394753Y140751D03*
X1388253Y147251D03*
X1388253Y153751D03*
X1394753Y147251D03*
X1394753Y153751D03*
X1388253Y160251D03*
X1394753Y160251D03*
X1401253Y75751D03*
X1407753Y75751D03*
X1414253Y75751D03*
X1420753Y75751D03*
X1427253Y75751D03*
X1433753Y75751D03*
X1440253Y75751D03*
X1446753Y75751D03*
X1453253Y75751D03*
X1459753Y75751D03*
X1466253Y75751D03*
X1472753Y75751D03*
X1401253Y82251D03*
X1407753Y82251D03*
X1414253Y82251D03*
X1420753Y82251D03*
X1427253Y82251D03*
X1433753Y82251D03*
X1440253Y82251D03*
X1446753Y82251D03*
X1453253Y82251D03*
X1459753Y82251D03*
X1466253Y82251D03*
X1472753Y82251D03*
X1401253Y88751D03*
X1407753Y88751D03*
X1414253Y88751D03*
X1420753Y88751D03*
X1427253Y88751D03*
X1433753Y88751D03*
X1440253Y88751D03*
X1446753Y88751D03*
X1453253Y88751D03*
X1459753Y88751D03*
X1466253Y88751D03*
X1472753Y88751D03*
X1401253Y95251D03*
X1407753Y95251D03*
X1414253Y95251D03*
X1420753Y95251D03*
X1427253Y95251D03*
X1433753Y95251D03*
X1440253Y95251D03*
X1446753Y95251D03*
X1453253Y95251D03*
X1459753Y95251D03*
X1466253Y95251D03*
X1472753Y95251D03*
X1401253Y101751D03*
X1407753Y101751D03*
X1414253Y101751D03*
X1420753Y101751D03*
X1427253Y101751D03*
X1433753Y101751D03*
X1440253Y101751D03*
X1446753Y101751D03*
X1453253Y101751D03*
X1459753Y101751D03*
X1466253Y101751D03*
X1472753Y101751D03*
X1401253Y108251D03*
X1407753Y108251D03*
X1414253Y108251D03*
X1420753Y108251D03*
X1427253Y108251D03*
X1433753Y108251D03*
X1440253Y108251D03*
X1446753Y108251D03*
X1453253Y108251D03*
X1459753Y108251D03*
X1466253Y108251D03*
X1472753Y108251D03*
X1401253Y114751D03*
X1407753Y114751D03*
X1414253Y114751D03*
X1420753Y114751D03*
X1427253Y114751D03*
X1433753Y114751D03*
X1440253Y114751D03*
X1446753Y114751D03*
X1453253Y114751D03*
X1459753Y114751D03*
X1466253Y114751D03*
X1472753Y114751D03*
X1401253Y121251D03*
X1407753Y121251D03*
X1414253Y121251D03*
X1420753Y121251D03*
X1427253Y121251D03*
X1433753Y121251D03*
X1440253Y121251D03*
X1446753Y121251D03*
X1453253Y121251D03*
X1459753Y121251D03*
X1466253Y121251D03*
X1472753Y121251D03*
X1401253Y127751D03*
X1407753Y127751D03*
X1414253Y127751D03*
X1420753Y127751D03*
X1427253Y127751D03*
X1433753Y127751D03*
X1440253Y127751D03*
X1446753Y127751D03*
X1453253Y127751D03*
X1459753Y127751D03*
X1466253Y127751D03*
X1472753Y127751D03*
X1401253Y134251D03*
X1407753Y134251D03*
X1414253Y134251D03*
X1420753Y134251D03*
X1427253Y134251D03*
X1433753Y134251D03*
X1440253Y134251D03*
X1446753Y134251D03*
X1453253Y134251D03*
X1459753Y134251D03*
X1466253Y134251D03*
X1472753Y134251D03*
X1401253Y140751D03*
X1407753Y140751D03*
X1414253Y140751D03*
X1420753Y140751D03*
X1427253Y140751D03*
X1433753Y140751D03*
X1440253Y140751D03*
X1446753Y140751D03*
X1453253Y140751D03*
X1459753Y140751D03*
X1466253Y140751D03*
X1472753Y140751D03*
X1401253Y147251D03*
X1407753Y147251D03*
X1414253Y147251D03*
X1420753Y147251D03*
X1427253Y147251D03*
X1433753Y147251D03*
X1440253Y147251D03*
X1446753Y147251D03*
X1453253Y147251D03*
X1459753Y147251D03*
X1466253Y147251D03*
X1472753Y147251D03*
X1401253Y153751D03*
X1407753Y153751D03*
X1414253Y153751D03*
X1420753Y153751D03*
X1427253Y153751D03*
X1433753Y153751D03*
X1440253Y153751D03*
X1446753Y153751D03*
X1453253Y153751D03*
X1459753Y153751D03*
X1466253Y153751D03*
X1472753Y153751D03*
X1401253Y160251D03*
X1407753Y160251D03*
X1414253Y160251D03*
X1420753Y160251D03*
X1427253Y160251D03*
X1433753Y160251D03*
X1440253Y160251D03*
X1446753Y160251D03*
X1453253Y160251D03*
X1459753Y160251D03*
X1466253Y160251D03*
X1472753Y160251D03*
D11*
X1545223Y214511D02*
X1545223Y221491D01*
X1545223Y214511D02*
X1538243Y214511D01*
X1538243Y221491D01*
X1545223Y221491D01*
X1545223Y219311D02*
X1538243Y219311D01*
X1562763Y221491D02*
X1562763Y214511D01*
X1555783Y214511D01*
X1555783Y221491D01*
X1562763Y221491D01*
X1562763Y219311D02*
X1555783Y219311D01*
D12*
X1560503Y113001D03*
X1560503Y103001D03*
D13*
X1526503Y160501D03*
X1526503Y135501D03*
D14*
X1506583Y93151D03*
X1501583Y93151D03*
X1496583Y93151D03*
X1491583Y93151D03*
X1496583Y66651D03*
X1491583Y66651D03*
X1501583Y66651D03*
X1506583Y66651D03*
D12*
X1540503Y163001D03*
X1540503Y153001D03*
X1540503Y133001D03*
X1540503Y143001D03*
X1488503Y153001D03*
X1488503Y143001D03*
X1496503Y128001D03*
X1506503Y128001D03*
X1496503Y167001D03*
X1506503Y167001D03*
D15*
X1496503Y141251D03*
X1496503Y154751D03*
X1506503Y154751D03*
X1506503Y141251D03*
D12*
X1360503Y193001D03*
X1360503Y183001D03*
X1533303Y109601D03*
X1523303Y109601D03*
X1533303Y122301D03*
X1523303Y122301D03*
D16*
X1560503Y58001D03*
X1373503Y221001D03*
D17*
X1383003Y183001D03*
X1388003Y183001D03*
X1393003Y183001D03*
X1398003Y183001D03*
D18*
X1405503Y190501D03*
X1405503Y195501D03*
X1405503Y200501D03*
X1405503Y205501D03*
D17*
X1398003Y213001D03*
X1393003Y213001D03*
X1388003Y213001D03*
X1383003Y213001D03*
D18*
X1375503Y205651D03*
X1375503Y200501D03*
X1375503Y195501D03*
X1375503Y190501D03*
D19*
X1390503Y198001D03*
D12*
X1465503Y218001D03*
X1455503Y218001D03*
D11*
X1435783Y214511D02*
X1435783Y221491D01*
X1442763Y221491D01*
X1442763Y214511D01*
X1435783Y214511D01*
X1435783Y219311D02*
X1442763Y219311D01*
X1418243Y221491D02*
X1418243Y214511D01*
X1418243Y221491D02*
X1425223Y221491D01*
X1425223Y214511D01*
X1418243Y214511D01*
X1418243Y219311D02*
X1425223Y219311D01*
D12*
X1360503Y203001D03*
X1360503Y213001D03*
D20*
X1525503Y72001D03*
X1525503Y90001D03*
D21*
X1553003Y20751D03*
X1548003Y20751D03*
X1543003Y20751D03*
X1538003Y20751D03*
X1533003Y20751D03*
X1528003Y20751D03*
X1523003Y20751D03*
X1518003Y20751D03*
X1513003Y20751D03*
X1508003Y20751D03*
X1503003Y20751D03*
X1498003Y20751D03*
X1473003Y20751D03*
X1468003Y20751D03*
X1463003Y20751D03*
X1458003Y20751D03*
X1453003Y20751D03*
X1448003Y20751D03*
X1443003Y20751D03*
X1438003Y20751D03*
X1433003Y20751D03*
X1428003Y20751D03*
X1423003Y20751D03*
X1418003Y20751D03*
X1413003Y20751D03*
X1408003Y20751D03*
X1403003Y20751D03*
X1398003Y20751D03*
X1393003Y20751D03*
X1388003Y20751D03*
X1383003Y20751D03*
X1378003Y20751D03*
X1373003Y20751D03*
X1368003Y20751D03*
D22*
X1500503Y228001D03*
D10*
X1613323Y75751D03*
X1613323Y82251D03*
X1619823Y75751D03*
X1619823Y82251D03*
X1613323Y88751D03*
X1613323Y95251D03*
X1619823Y88751D03*
X1619823Y95251D03*
X1613323Y101751D03*
X1613323Y108251D03*
X1619823Y101751D03*
X1619823Y108251D03*
X1613323Y114751D03*
X1613323Y121251D03*
X1619823Y114751D03*
X1619823Y121251D03*
X1613323Y127751D03*
X1619823Y127751D03*
X1613323Y134251D03*
X1613323Y140751D03*
X1619823Y134251D03*
X1619823Y140751D03*
X1613323Y147251D03*
X1613323Y153751D03*
X1619823Y147251D03*
X1619823Y153751D03*
X1613323Y160251D03*
X1619823Y160251D03*
X1626323Y75751D03*
X1632823Y75751D03*
X1639323Y75751D03*
X1645823Y75751D03*
X1652323Y75751D03*
X1658823Y75751D03*
X1665323Y75751D03*
X1671823Y75751D03*
X1678323Y75751D03*
X1684823Y75751D03*
X1691323Y75751D03*
X1697823Y75751D03*
X1626323Y82251D03*
X1632823Y82251D03*
X1639323Y82251D03*
X1645823Y82251D03*
X1652323Y82251D03*
X1658823Y82251D03*
X1665323Y82251D03*
X1671823Y82251D03*
X1678323Y82251D03*
X1684823Y82251D03*
X1691323Y82251D03*
X1697823Y82251D03*
X1626323Y88751D03*
X1632823Y88751D03*
X1639323Y88751D03*
X1645823Y88751D03*
X1652323Y88751D03*
X1658823Y88751D03*
X1665323Y88751D03*
X1671823Y88751D03*
X1678323Y88751D03*
X1684823Y88751D03*
X1691323Y88751D03*
X1697823Y88751D03*
X1626323Y95251D03*
X1632823Y95251D03*
X1639323Y95251D03*
X1645823Y95251D03*
X1652323Y95251D03*
X1658823Y95251D03*
X1665323Y95251D03*
X1671823Y95251D03*
X1678323Y95251D03*
X1684823Y95251D03*
X1691323Y95251D03*
X1697823Y95251D03*
X1626323Y101751D03*
X1632823Y101751D03*
X1639323Y101751D03*
X1645823Y101751D03*
X1652323Y101751D03*
X1658823Y101751D03*
X1665323Y101751D03*
X1671823Y101751D03*
X1678323Y101751D03*
X1684823Y101751D03*
X1691323Y101751D03*
X1697823Y101751D03*
X1626323Y108251D03*
X1632823Y108251D03*
X1639323Y108251D03*
X1645823Y108251D03*
X1652323Y108251D03*
X1658823Y108251D03*
X1665323Y108251D03*
X1671823Y108251D03*
X1678323Y108251D03*
X1684823Y108251D03*
X1691323Y108251D03*
X1697823Y108251D03*
X1626323Y114751D03*
X1632823Y114751D03*
X1639323Y114751D03*
X1645823Y114751D03*
X1652323Y114751D03*
X1658823Y114751D03*
X1665323Y114751D03*
X1671823Y114751D03*
X1678323Y114751D03*
X1684823Y114751D03*
X1691323Y114751D03*
X1697823Y114751D03*
X1626323Y121251D03*
X1632823Y121251D03*
X1639323Y121251D03*
X1645823Y121251D03*
X1652323Y121251D03*
X1658823Y121251D03*
X1665323Y121251D03*
X1671823Y121251D03*
X1678323Y121251D03*
X1684823Y121251D03*
X1691323Y121251D03*
X1697823Y121251D03*
X1626323Y127751D03*
X1632823Y127751D03*
X1639323Y127751D03*
X1645823Y127751D03*
X1652323Y127751D03*
X1658823Y127751D03*
X1665323Y127751D03*
X1671823Y127751D03*
X1678323Y127751D03*
X1684823Y127751D03*
X1691323Y127751D03*
X1697823Y127751D03*
X1626323Y134251D03*
X1632823Y134251D03*
X1639323Y134251D03*
X1645823Y134251D03*
X1652323Y134251D03*
X1658823Y134251D03*
X1665323Y134251D03*
X1671823Y134251D03*
X1678323Y134251D03*
X1684823Y134251D03*
X1691323Y134251D03*
X1697823Y134251D03*
X1626323Y140751D03*
X1632823Y140751D03*
X1639323Y140751D03*
X1645823Y140751D03*
X1652323Y140751D03*
X1658823Y140751D03*
X1665323Y140751D03*
X1671823Y140751D03*
X1678323Y140751D03*
X1684823Y140751D03*
X1691323Y140751D03*
X1697823Y140751D03*
X1626323Y147251D03*
X1632823Y147251D03*
X1639323Y147251D03*
X1645823Y147251D03*
X1652323Y147251D03*
X1658823Y147251D03*
X1665323Y147251D03*
X1671823Y147251D03*
X1678323Y147251D03*
X1684823Y147251D03*
X1691323Y147251D03*
X1697823Y147251D03*
X1626323Y153751D03*
X1632823Y153751D03*
X1639323Y153751D03*
X1645823Y153751D03*
X1652323Y153751D03*
X1658823Y153751D03*
X1665323Y153751D03*
X1671823Y153751D03*
X1678323Y153751D03*
X1684823Y153751D03*
X1691323Y153751D03*
X1697823Y153751D03*
X1626323Y160251D03*
X1632823Y160251D03*
X1639323Y160251D03*
X1645823Y160251D03*
X1652323Y160251D03*
X1658823Y160251D03*
X1665323Y160251D03*
X1671823Y160251D03*
X1678323Y160251D03*
X1684823Y160251D03*
X1691323Y160251D03*
X1697823Y160251D03*
D11*
X1770293Y214511D02*
X1770293Y221491D01*
X1770293Y214511D02*
X1763313Y214511D01*
X1763313Y221491D01*
X1770293Y221491D01*
X1770293Y219311D02*
X1763313Y219311D01*
X1787833Y221491D02*
X1787833Y214511D01*
X1780853Y214511D01*
X1780853Y221491D01*
X1787833Y221491D01*
X1787833Y219311D02*
X1780853Y219311D01*
D12*
X1785573Y113001D03*
X1785573Y103001D03*
D13*
X1751573Y160501D03*
X1751573Y135501D03*
D14*
X1731653Y93151D03*
X1726653Y93151D03*
X1721653Y93151D03*
X1716653Y93151D03*
X1721653Y66651D03*
X1716653Y66651D03*
X1726653Y66651D03*
X1731653Y66651D03*
D12*
X1765573Y163001D03*
X1765573Y153001D03*
X1765573Y133001D03*
X1765573Y143001D03*
X1713573Y153001D03*
X1713573Y143001D03*
X1721573Y128001D03*
X1731573Y128001D03*
X1721573Y167001D03*
X1731573Y167001D03*
D15*
X1721573Y141251D03*
X1721573Y154751D03*
X1731573Y154751D03*
X1731573Y141251D03*
D12*
X1585573Y193001D03*
X1585573Y183001D03*
X1758373Y109601D03*
X1748373Y109601D03*
X1758373Y122301D03*
X1748373Y122301D03*
D16*
X1785573Y58001D03*
X1598573Y221001D03*
D17*
X1608073Y183001D03*
X1613073Y183001D03*
X1618073Y183001D03*
X1623073Y183001D03*
D18*
X1630573Y190501D03*
X1630573Y195501D03*
X1630573Y200501D03*
X1630573Y205501D03*
D17*
X1623073Y213001D03*
X1618073Y213001D03*
X1613073Y213001D03*
X1608073Y213001D03*
D18*
X1600573Y205651D03*
X1600573Y200501D03*
X1600573Y195501D03*
X1600573Y190501D03*
D19*
X1615573Y198001D03*
D12*
X1690573Y218001D03*
X1680573Y218001D03*
D11*
X1660853Y214511D02*
X1660853Y221491D01*
X1667833Y221491D01*
X1667833Y214511D01*
X1660853Y214511D01*
X1660853Y219311D02*
X1667833Y219311D01*
X1643313Y221491D02*
X1643313Y214511D01*
X1643313Y221491D02*
X1650293Y221491D01*
X1650293Y214511D01*
X1643313Y214511D01*
X1643313Y219311D02*
X1650293Y219311D01*
D12*
X1585573Y203001D03*
X1585573Y213001D03*
D20*
X1750573Y72001D03*
X1750573Y90001D03*
D21*
X1778073Y20751D03*
X1773073Y20751D03*
X1768073Y20751D03*
X1763073Y20751D03*
X1758073Y20751D03*
X1753073Y20751D03*
X1748073Y20751D03*
X1743073Y20751D03*
X1738073Y20751D03*
X1733073Y20751D03*
X1728073Y20751D03*
X1723073Y20751D03*
X1698073Y20751D03*
X1693073Y20751D03*
X1688073Y20751D03*
X1683073Y20751D03*
X1678073Y20751D03*
X1673073Y20751D03*
X1668073Y20751D03*
X1663073Y20751D03*
X1658073Y20751D03*
X1653073Y20751D03*
X1648073Y20751D03*
X1643073Y20751D03*
X1638073Y20751D03*
X1633073Y20751D03*
X1628073Y20751D03*
X1623073Y20751D03*
X1618073Y20751D03*
X1613073Y20751D03*
X1608073Y20751D03*
X1603073Y20751D03*
X1598073Y20751D03*
X1593073Y20751D03*
D22*
X1725573Y228001D03*
D10*
X182229Y622749D03*
X182229Y616249D03*
X175729Y622749D03*
X175729Y616249D03*
X182229Y609749D03*
X182229Y603249D03*
X175729Y609749D03*
X175729Y603249D03*
X182229Y596749D03*
X182229Y590249D03*
X175729Y596749D03*
X175729Y590249D03*
X182229Y583749D03*
X182229Y577249D03*
X175729Y583749D03*
X175729Y577249D03*
X182229Y570749D03*
X175729Y570749D03*
X182229Y564249D03*
X182229Y557749D03*
X175729Y564249D03*
X175729Y557749D03*
X182229Y551249D03*
X182229Y544749D03*
X175729Y551249D03*
X175729Y544749D03*
X182229Y538249D03*
X175729Y538249D03*
X169229Y622749D03*
X162729Y622749D03*
X156229Y622749D03*
X149729Y622749D03*
X143229Y622749D03*
X136729Y622749D03*
X130229Y622749D03*
X123729Y622749D03*
X117229Y622749D03*
X110729Y622749D03*
X104229Y622749D03*
X97729Y622749D03*
X169229Y616249D03*
X162729Y616249D03*
X156229Y616249D03*
X149729Y616249D03*
X143229Y616249D03*
X136729Y616249D03*
X130229Y616249D03*
X123729Y616249D03*
X117229Y616249D03*
X110729Y616249D03*
X104229Y616249D03*
X97729Y616249D03*
X169229Y609749D03*
X162729Y609749D03*
X156229Y609749D03*
X149729Y609749D03*
X143229Y609749D03*
X136729Y609749D03*
X130229Y609749D03*
X123729Y609749D03*
X117229Y609749D03*
X110729Y609749D03*
X104229Y609749D03*
X97729Y609749D03*
X169229Y603249D03*
X162729Y603249D03*
X156229Y603249D03*
X149729Y603249D03*
X143229Y603249D03*
X136729Y603249D03*
X130229Y603249D03*
X123729Y603249D03*
X117229Y603249D03*
X110729Y603249D03*
X104229Y603249D03*
X97729Y603249D03*
X169229Y596749D03*
X162729Y596749D03*
X156229Y596749D03*
X149729Y596749D03*
X143229Y596749D03*
X136729Y596749D03*
X130229Y596749D03*
X123729Y596749D03*
X117229Y596749D03*
X110729Y596749D03*
X104229Y596749D03*
X97729Y596749D03*
X169229Y590249D03*
X162729Y590249D03*
X156229Y590249D03*
X149729Y590249D03*
X143229Y590249D03*
X136729Y590249D03*
X130229Y590249D03*
X123729Y590249D03*
X117229Y590249D03*
X110729Y590249D03*
X104229Y590249D03*
X97729Y590249D03*
X169229Y583749D03*
X162729Y583749D03*
X156229Y583749D03*
X149729Y583749D03*
X143229Y583749D03*
X136729Y583749D03*
X130229Y583749D03*
X123729Y583749D03*
X117229Y583749D03*
X110729Y583749D03*
X104229Y583749D03*
X97729Y583749D03*
X169229Y577249D03*
X162729Y577249D03*
X156229Y577249D03*
X149729Y577249D03*
X143229Y577249D03*
X136729Y577249D03*
X130229Y577249D03*
X123729Y577249D03*
X117229Y577249D03*
X110729Y577249D03*
X104229Y577249D03*
X97729Y577249D03*
X169229Y570749D03*
X162729Y570749D03*
X156229Y570749D03*
X149729Y570749D03*
X143229Y570749D03*
X136729Y570749D03*
X130229Y570749D03*
X123729Y570749D03*
X117229Y570749D03*
X110729Y570749D03*
X104229Y570749D03*
X97729Y570749D03*
X169229Y564249D03*
X162729Y564249D03*
X156229Y564249D03*
X149729Y564249D03*
X143229Y564249D03*
X136729Y564249D03*
X130229Y564249D03*
X123729Y564249D03*
X117229Y564249D03*
X110729Y564249D03*
X104229Y564249D03*
X97729Y564249D03*
X169229Y557749D03*
X162729Y557749D03*
X156229Y557749D03*
X149729Y557749D03*
X143229Y557749D03*
X136729Y557749D03*
X130229Y557749D03*
X123729Y557749D03*
X117229Y557749D03*
X110729Y557749D03*
X104229Y557749D03*
X97729Y557749D03*
X169229Y551249D03*
X162729Y551249D03*
X156229Y551249D03*
X149729Y551249D03*
X143229Y551249D03*
X136729Y551249D03*
X130229Y551249D03*
X123729Y551249D03*
X117229Y551249D03*
X110729Y551249D03*
X104229Y551249D03*
X97729Y551249D03*
X169229Y544749D03*
X162729Y544749D03*
X156229Y544749D03*
X149729Y544749D03*
X143229Y544749D03*
X136729Y544749D03*
X130229Y544749D03*
X123729Y544749D03*
X117229Y544749D03*
X110729Y544749D03*
X104229Y544749D03*
X97729Y544749D03*
X169229Y538249D03*
X162729Y538249D03*
X156229Y538249D03*
X149729Y538249D03*
X143229Y538249D03*
X136729Y538249D03*
X130229Y538249D03*
X123729Y538249D03*
X117229Y538249D03*
X110729Y538249D03*
X104229Y538249D03*
X97729Y538249D03*
D11*
X25259Y483989D02*
X25259Y477009D01*
X25259Y483989D02*
X32239Y483989D01*
X32239Y477009D01*
X25259Y477009D01*
X25259Y481809D02*
X32239Y481809D01*
X7719Y483989D02*
X7719Y477009D01*
X7719Y483989D02*
X14699Y483989D01*
X14699Y477009D01*
X7719Y477009D01*
X7719Y481809D02*
X14699Y481809D01*
D12*
X9979Y585499D03*
X9979Y595499D03*
D13*
X43979Y537999D03*
X43979Y562999D03*
D14*
X63899Y605349D03*
X68899Y605349D03*
X73899Y605349D03*
X78899Y605349D03*
X73899Y631849D03*
X78899Y631849D03*
X68899Y631849D03*
X63899Y631849D03*
D12*
X29979Y535499D03*
X29979Y545499D03*
X29979Y565499D03*
X29979Y555499D03*
X81979Y545499D03*
X81979Y555499D03*
X73979Y570499D03*
X63979Y570499D03*
X73979Y531499D03*
X63979Y531499D03*
D15*
X73979Y557249D03*
X73979Y543749D03*
X63979Y543749D03*
X63979Y557249D03*
D12*
X209979Y505499D03*
X209979Y515499D03*
X37179Y588899D03*
X47179Y588899D03*
X37179Y576199D03*
X47179Y576199D03*
D16*
X9979Y640499D03*
X196979Y477499D03*
D17*
X187479Y515499D03*
X182479Y515499D03*
X177479Y515499D03*
X172479Y515499D03*
D18*
X164979Y507999D03*
X164979Y502999D03*
X164979Y497999D03*
X164979Y492999D03*
D17*
X172479Y485499D03*
X177479Y485499D03*
X182479Y485499D03*
X187479Y485499D03*
D18*
X194979Y492849D03*
X194979Y497999D03*
X194979Y502999D03*
X194979Y507999D03*
D19*
X179979Y500499D03*
D12*
X104979Y480499D03*
X114979Y480499D03*
D11*
X134699Y483989D02*
X134699Y477009D01*
X127719Y477009D01*
X127719Y483989D01*
X134699Y483989D01*
X134699Y481809D02*
X127719Y481809D01*
X152239Y483989D02*
X152239Y477009D01*
X145259Y477009D01*
X145259Y483989D01*
X152239Y483989D01*
X152239Y481809D02*
X145259Y481809D01*
D12*
X209979Y495499D03*
X209979Y485499D03*
D20*
X44979Y626499D03*
X44979Y608499D03*
D21*
X17479Y677749D03*
X22479Y677749D03*
X27479Y677749D03*
X32479Y677749D03*
X37479Y677749D03*
X42479Y677749D03*
X47479Y677749D03*
X52479Y677749D03*
X57479Y677749D03*
X62479Y677749D03*
X67479Y677749D03*
X72479Y677749D03*
X97479Y677749D03*
X102479Y677749D03*
X107479Y677749D03*
X112479Y677749D03*
X117479Y677749D03*
X122479Y677749D03*
X127479Y677749D03*
X132479Y677749D03*
X137479Y677749D03*
X142479Y677749D03*
X147479Y677749D03*
X152479Y677749D03*
X157479Y677749D03*
X162479Y677749D03*
X167479Y677749D03*
X172479Y677749D03*
X177479Y677749D03*
X182479Y677749D03*
X187479Y677749D03*
X192479Y677749D03*
X197479Y677749D03*
X202479Y677749D03*
D22*
X69979Y470499D03*
D10*
X407324Y622749D03*
X407324Y616249D03*
X400824Y622749D03*
X400824Y616249D03*
X407324Y609749D03*
X407324Y603249D03*
X400824Y609749D03*
X400824Y603249D03*
X407324Y596749D03*
X407324Y590249D03*
X400824Y596749D03*
X400824Y590249D03*
X407324Y583749D03*
X407324Y577249D03*
X400824Y583749D03*
X400824Y577249D03*
X407324Y570749D03*
X400824Y570749D03*
X407324Y564249D03*
X407324Y557749D03*
X400824Y564249D03*
X400824Y557749D03*
X407324Y551249D03*
X407324Y544749D03*
X400824Y551249D03*
X400824Y544749D03*
X407324Y538249D03*
X400824Y538249D03*
X394324Y622749D03*
X387824Y622749D03*
X381324Y622749D03*
X374824Y622749D03*
X368324Y622749D03*
X361824Y622749D03*
X355324Y622749D03*
X348824Y622749D03*
X342324Y622749D03*
X335824Y622749D03*
X329324Y622749D03*
X322824Y622749D03*
X394324Y616249D03*
X387824Y616249D03*
X381324Y616249D03*
X374824Y616249D03*
X368324Y616249D03*
X361824Y616249D03*
X355324Y616249D03*
X348824Y616249D03*
X342324Y616249D03*
X335824Y616249D03*
X329324Y616249D03*
X322824Y616249D03*
X394324Y609749D03*
X387824Y609749D03*
X381324Y609749D03*
X374824Y609749D03*
X368324Y609749D03*
X361824Y609749D03*
X355324Y609749D03*
X348824Y609749D03*
X342324Y609749D03*
X335824Y609749D03*
X329324Y609749D03*
X322824Y609749D03*
X394324Y603249D03*
X387824Y603249D03*
X381324Y603249D03*
X374824Y603249D03*
X368324Y603249D03*
X361824Y603249D03*
X355324Y603249D03*
X348824Y603249D03*
X342324Y603249D03*
X335824Y603249D03*
X329324Y603249D03*
X322824Y603249D03*
X394324Y596749D03*
X387824Y596749D03*
X381324Y596749D03*
X374824Y596749D03*
X368324Y596749D03*
X361824Y596749D03*
X355324Y596749D03*
X348824Y596749D03*
X342324Y596749D03*
X335824Y596749D03*
X329324Y596749D03*
X322824Y596749D03*
X394324Y590249D03*
X387824Y590249D03*
X381324Y590249D03*
X374824Y590249D03*
X368324Y590249D03*
X361824Y590249D03*
X355324Y590249D03*
X348824Y590249D03*
X342324Y590249D03*
X335824Y590249D03*
X329324Y590249D03*
X322824Y590249D03*
X394324Y583749D03*
X387824Y583749D03*
X381324Y583749D03*
X374824Y583749D03*
X368324Y583749D03*
X361824Y583749D03*
X355324Y583749D03*
X348824Y583749D03*
X342324Y583749D03*
X335824Y583749D03*
X329324Y583749D03*
X322824Y583749D03*
X394324Y577249D03*
X387824Y577249D03*
X381324Y577249D03*
X374824Y577249D03*
X368324Y577249D03*
X361824Y577249D03*
X355324Y577249D03*
X348824Y577249D03*
X342324Y577249D03*
X335824Y577249D03*
X329324Y577249D03*
X322824Y577249D03*
X394324Y570749D03*
X387824Y570749D03*
X381324Y570749D03*
X374824Y570749D03*
X368324Y570749D03*
X361824Y570749D03*
X355324Y570749D03*
X348824Y570749D03*
X342324Y570749D03*
X335824Y570749D03*
X329324Y570749D03*
X322824Y570749D03*
X394324Y564249D03*
X387824Y564249D03*
X381324Y564249D03*
X374824Y564249D03*
X368324Y564249D03*
X361824Y564249D03*
X355324Y564249D03*
X348824Y564249D03*
X342324Y564249D03*
X335824Y564249D03*
X329324Y564249D03*
X322824Y564249D03*
X394324Y557749D03*
X387824Y557749D03*
X381324Y557749D03*
X374824Y557749D03*
X368324Y557749D03*
X361824Y557749D03*
X355324Y557749D03*
X348824Y557749D03*
X342324Y557749D03*
X335824Y557749D03*
X329324Y557749D03*
X322824Y557749D03*
X394324Y551249D03*
X387824Y551249D03*
X381324Y551249D03*
X374824Y551249D03*
X368324Y551249D03*
X361824Y551249D03*
X355324Y551249D03*
X348824Y551249D03*
X342324Y551249D03*
X335824Y551249D03*
X329324Y551249D03*
X322824Y551249D03*
X394324Y544749D03*
X387824Y544749D03*
X381324Y544749D03*
X374824Y544749D03*
X368324Y544749D03*
X361824Y544749D03*
X355324Y544749D03*
X348824Y544749D03*
X342324Y544749D03*
X335824Y544749D03*
X329324Y544749D03*
X322824Y544749D03*
X394324Y538249D03*
X387824Y538249D03*
X381324Y538249D03*
X374824Y538249D03*
X368324Y538249D03*
X361824Y538249D03*
X355324Y538249D03*
X348824Y538249D03*
X342324Y538249D03*
X335824Y538249D03*
X329324Y538249D03*
X322824Y538249D03*
D11*
X250354Y483989D02*
X250354Y477009D01*
X250354Y483989D02*
X257334Y483989D01*
X257334Y477009D01*
X250354Y477009D01*
X250354Y481809D02*
X257334Y481809D01*
X232814Y483989D02*
X232814Y477009D01*
X232814Y483989D02*
X239794Y483989D01*
X239794Y477009D01*
X232814Y477009D01*
X232814Y481809D02*
X239794Y481809D01*
D12*
X235074Y585499D03*
X235074Y595499D03*
D13*
X269074Y537999D03*
X269074Y562999D03*
D14*
X288994Y605349D03*
X293994Y605349D03*
X298994Y605349D03*
X303994Y605349D03*
X298994Y631849D03*
X303994Y631849D03*
X293994Y631849D03*
X288994Y631849D03*
D12*
X255074Y535499D03*
X255074Y545499D03*
X255074Y565499D03*
X255074Y555499D03*
X307074Y545499D03*
X307074Y555499D03*
X299074Y570499D03*
X289074Y570499D03*
X299074Y531499D03*
X289074Y531499D03*
D15*
X299074Y557249D03*
X299074Y543749D03*
X289074Y543749D03*
X289074Y557249D03*
D12*
X435074Y505499D03*
X435074Y515499D03*
X262274Y588899D03*
X272274Y588899D03*
X262274Y576199D03*
X272274Y576199D03*
D16*
X235074Y640499D03*
X422074Y477499D03*
D17*
X412574Y515499D03*
X407574Y515499D03*
X402574Y515499D03*
X397574Y515499D03*
D18*
X390074Y507999D03*
X390074Y502999D03*
X390074Y497999D03*
X390074Y492999D03*
D17*
X397574Y485499D03*
X402574Y485499D03*
X407574Y485499D03*
X412574Y485499D03*
D18*
X420074Y492849D03*
X420074Y497999D03*
X420074Y502999D03*
X420074Y507999D03*
D19*
X405074Y500499D03*
D12*
X330074Y480499D03*
X340074Y480499D03*
D11*
X359794Y483989D02*
X359794Y477009D01*
X352814Y477009D01*
X352814Y483989D01*
X359794Y483989D01*
X359794Y481809D02*
X352814Y481809D01*
X377334Y483989D02*
X377334Y477009D01*
X370354Y477009D01*
X370354Y483989D01*
X377334Y483989D01*
X377334Y481809D02*
X370354Y481809D01*
D12*
X435074Y495499D03*
X435074Y485499D03*
D20*
X270074Y626499D03*
X270074Y608499D03*
D21*
X242574Y677749D03*
X247574Y677749D03*
X252574Y677749D03*
X257574Y677749D03*
X262574Y677749D03*
X267574Y677749D03*
X272574Y677749D03*
X277574Y677749D03*
X282574Y677749D03*
X287574Y677749D03*
X292574Y677749D03*
X297574Y677749D03*
X322574Y677749D03*
X327574Y677749D03*
X332574Y677749D03*
X337574Y677749D03*
X342574Y677749D03*
X347574Y677749D03*
X352574Y677749D03*
X357574Y677749D03*
X362574Y677749D03*
X367574Y677749D03*
X372574Y677749D03*
X377574Y677749D03*
X382574Y677749D03*
X387574Y677749D03*
X392574Y677749D03*
X397574Y677749D03*
X402574Y677749D03*
X407574Y677749D03*
X412574Y677749D03*
X417574Y677749D03*
X422574Y677749D03*
X427574Y677749D03*
D22*
X295074Y470499D03*
D10*
X632393Y622749D03*
X632393Y616249D03*
X625893Y622749D03*
X625893Y616249D03*
X632393Y609749D03*
X632393Y603249D03*
X625893Y609749D03*
X625893Y603249D03*
X632393Y596749D03*
X632393Y590249D03*
X625893Y596749D03*
X625893Y590249D03*
X632393Y583749D03*
X632393Y577249D03*
X625893Y583749D03*
X625893Y577249D03*
X632393Y570749D03*
X625893Y570749D03*
X632393Y564249D03*
X632393Y557749D03*
X625893Y564249D03*
X625893Y557749D03*
X632393Y551249D03*
X632393Y544749D03*
X625893Y551249D03*
X625893Y544749D03*
X632393Y538249D03*
X625893Y538249D03*
X619393Y622749D03*
X612893Y622749D03*
X606393Y622749D03*
X599893Y622749D03*
X593393Y622749D03*
X586893Y622749D03*
X580393Y622749D03*
X573893Y622749D03*
X567393Y622749D03*
X560893Y622749D03*
X554393Y622749D03*
X547893Y622749D03*
X619393Y616249D03*
X612893Y616249D03*
X606393Y616249D03*
X599893Y616249D03*
X593393Y616249D03*
X586893Y616249D03*
X580393Y616249D03*
X573893Y616249D03*
X567393Y616249D03*
X560893Y616249D03*
X554393Y616249D03*
X547893Y616249D03*
X619393Y609749D03*
X612893Y609749D03*
X606393Y609749D03*
X599893Y609749D03*
X593393Y609749D03*
X586893Y609749D03*
X580393Y609749D03*
X573893Y609749D03*
X567393Y609749D03*
X560893Y609749D03*
X554393Y609749D03*
X547893Y609749D03*
X619393Y603249D03*
X612893Y603249D03*
X606393Y603249D03*
X599893Y603249D03*
X593393Y603249D03*
X586893Y603249D03*
X580393Y603249D03*
X573893Y603249D03*
X567393Y603249D03*
X560893Y603249D03*
X554393Y603249D03*
X547893Y603249D03*
X619393Y596749D03*
X612893Y596749D03*
X606393Y596749D03*
X599893Y596749D03*
X593393Y596749D03*
X586893Y596749D03*
X580393Y596749D03*
X573893Y596749D03*
X567393Y596749D03*
X560893Y596749D03*
X554393Y596749D03*
X547893Y596749D03*
X619393Y590249D03*
X612893Y590249D03*
X606393Y590249D03*
X599893Y590249D03*
X593393Y590249D03*
X586893Y590249D03*
X580393Y590249D03*
X573893Y590249D03*
X567393Y590249D03*
X560893Y590249D03*
X554393Y590249D03*
X547893Y590249D03*
X619393Y583749D03*
X612893Y583749D03*
X606393Y583749D03*
X599893Y583749D03*
X593393Y583749D03*
X586893Y583749D03*
X580393Y583749D03*
X573893Y583749D03*
X567393Y583749D03*
X560893Y583749D03*
X554393Y583749D03*
X547893Y583749D03*
X619393Y577249D03*
X612893Y577249D03*
X606393Y577249D03*
X599893Y577249D03*
X593393Y577249D03*
X586893Y577249D03*
X580393Y577249D03*
X573893Y577249D03*
X567393Y577249D03*
X560893Y577249D03*
X554393Y577249D03*
X547893Y577249D03*
X619393Y570749D03*
X612893Y570749D03*
X606393Y570749D03*
X599893Y570749D03*
X593393Y570749D03*
X586893Y570749D03*
X580393Y570749D03*
X573893Y570749D03*
X567393Y570749D03*
X560893Y570749D03*
X554393Y570749D03*
X547893Y570749D03*
X619393Y564249D03*
X612893Y564249D03*
X606393Y564249D03*
X599893Y564249D03*
X593393Y564249D03*
X586893Y564249D03*
X580393Y564249D03*
X573893Y564249D03*
X567393Y564249D03*
X560893Y564249D03*
X554393Y564249D03*
X547893Y564249D03*
X619393Y557749D03*
X612893Y557749D03*
X606393Y557749D03*
X599893Y557749D03*
X593393Y557749D03*
X586893Y557749D03*
X580393Y557749D03*
X573893Y557749D03*
X567393Y557749D03*
X560893Y557749D03*
X554393Y557749D03*
X547893Y557749D03*
X619393Y551249D03*
X612893Y551249D03*
X606393Y551249D03*
X599893Y551249D03*
X593393Y551249D03*
X586893Y551249D03*
X580393Y551249D03*
X573893Y551249D03*
X567393Y551249D03*
X560893Y551249D03*
X554393Y551249D03*
X547893Y551249D03*
X619393Y544749D03*
X612893Y544749D03*
X606393Y544749D03*
X599893Y544749D03*
X593393Y544749D03*
X586893Y544749D03*
X580393Y544749D03*
X573893Y544749D03*
X567393Y544749D03*
X560893Y544749D03*
X554393Y544749D03*
X547893Y544749D03*
X619393Y538249D03*
X612893Y538249D03*
X606393Y538249D03*
X599893Y538249D03*
X593393Y538249D03*
X586893Y538249D03*
X580393Y538249D03*
X573893Y538249D03*
X567393Y538249D03*
X560893Y538249D03*
X554393Y538249D03*
X547893Y538249D03*
D11*
X475423Y483989D02*
X475423Y477009D01*
X475423Y483989D02*
X482403Y483989D01*
X482403Y477009D01*
X475423Y477009D01*
X475423Y481809D02*
X482403Y481809D01*
X457883Y483989D02*
X457883Y477009D01*
X457883Y483989D02*
X464863Y483989D01*
X464863Y477009D01*
X457883Y477009D01*
X457883Y481809D02*
X464863Y481809D01*
D12*
X460143Y585499D03*
X460143Y595499D03*
D13*
X494143Y537999D03*
X494143Y562999D03*
D14*
X514063Y605349D03*
X519063Y605349D03*
X524063Y605349D03*
X529063Y605349D03*
X524063Y631849D03*
X529063Y631849D03*
X519063Y631849D03*
X514063Y631849D03*
D12*
X480143Y535499D03*
X480143Y545499D03*
X480143Y565499D03*
X480143Y555499D03*
X532143Y545499D03*
X532143Y555499D03*
X524143Y570499D03*
X514143Y570499D03*
X524143Y531499D03*
X514143Y531499D03*
D15*
X524143Y557249D03*
X524143Y543749D03*
X514143Y543749D03*
X514143Y557249D03*
D12*
X660143Y505499D03*
X660143Y515499D03*
X487343Y588899D03*
X497343Y588899D03*
X487343Y576199D03*
X497343Y576199D03*
D16*
X460143Y640499D03*
X647143Y477499D03*
D17*
X637643Y515499D03*
X632643Y515499D03*
X627643Y515499D03*
X622643Y515499D03*
D18*
X615143Y507999D03*
X615143Y502999D03*
X615143Y497999D03*
X615143Y492999D03*
D17*
X622643Y485499D03*
X627643Y485499D03*
X632643Y485499D03*
X637643Y485499D03*
D18*
X645143Y492849D03*
X645143Y497999D03*
X645143Y502999D03*
X645143Y507999D03*
D19*
X630143Y500499D03*
D12*
X555143Y480499D03*
X565143Y480499D03*
D11*
X584863Y483989D02*
X584863Y477009D01*
X577883Y477009D01*
X577883Y483989D01*
X584863Y483989D01*
X584863Y481809D02*
X577883Y481809D01*
X602403Y483989D02*
X602403Y477009D01*
X595423Y477009D01*
X595423Y483989D01*
X602403Y483989D01*
X602403Y481809D02*
X595423Y481809D01*
D12*
X660143Y495499D03*
X660143Y485499D03*
D20*
X495143Y626499D03*
X495143Y608499D03*
D21*
X467643Y677749D03*
X472643Y677749D03*
X477643Y677749D03*
X482643Y677749D03*
X487643Y677749D03*
X492643Y677749D03*
X497643Y677749D03*
X502643Y677749D03*
X507643Y677749D03*
X512643Y677749D03*
X517643Y677749D03*
X522643Y677749D03*
X547643Y677749D03*
X552643Y677749D03*
X557643Y677749D03*
X562643Y677749D03*
X567643Y677749D03*
X572643Y677749D03*
X577643Y677749D03*
X582643Y677749D03*
X587643Y677749D03*
X592643Y677749D03*
X597643Y677749D03*
X602643Y677749D03*
X607643Y677749D03*
X612643Y677749D03*
X617643Y677749D03*
X622643Y677749D03*
X627643Y677749D03*
X632643Y677749D03*
X637643Y677749D03*
X642643Y677749D03*
X647643Y677749D03*
X652643Y677749D03*
D22*
X520143Y470499D03*
D10*
X857488Y622749D03*
X857488Y616249D03*
X850988Y622749D03*
X850988Y616249D03*
X857488Y609749D03*
X857488Y603249D03*
X850988Y609749D03*
X850988Y603249D03*
X857488Y596749D03*
X857488Y590249D03*
X850988Y596749D03*
X850988Y590249D03*
X857488Y583749D03*
X857488Y577249D03*
X850988Y583749D03*
X850988Y577249D03*
X857488Y570749D03*
X850988Y570749D03*
X857488Y564249D03*
X857488Y557749D03*
X850988Y564249D03*
X850988Y557749D03*
X857488Y551249D03*
X857488Y544749D03*
X850988Y551249D03*
X850988Y544749D03*
X857488Y538249D03*
X850988Y538249D03*
X844488Y622749D03*
X837988Y622749D03*
X831488Y622749D03*
X824988Y622749D03*
X818488Y622749D03*
X811988Y622749D03*
X805488Y622749D03*
X798988Y622749D03*
X792488Y622749D03*
X785988Y622749D03*
X779488Y622749D03*
X772988Y622749D03*
X844488Y616249D03*
X837988Y616249D03*
X831488Y616249D03*
X824988Y616249D03*
X818488Y616249D03*
X811988Y616249D03*
X805488Y616249D03*
X798988Y616249D03*
X792488Y616249D03*
X785988Y616249D03*
X779488Y616249D03*
X772988Y616249D03*
X844488Y609749D03*
X837988Y609749D03*
X831488Y609749D03*
X824988Y609749D03*
X818488Y609749D03*
X811988Y609749D03*
X805488Y609749D03*
X798988Y609749D03*
X792488Y609749D03*
X785988Y609749D03*
X779488Y609749D03*
X772988Y609749D03*
X844488Y603249D03*
X837988Y603249D03*
X831488Y603249D03*
X824988Y603249D03*
X818488Y603249D03*
X811988Y603249D03*
X805488Y603249D03*
X798988Y603249D03*
X792488Y603249D03*
X785988Y603249D03*
X779488Y603249D03*
X772988Y603249D03*
X844488Y596749D03*
X837988Y596749D03*
X831488Y596749D03*
X824988Y596749D03*
X818488Y596749D03*
X811988Y596749D03*
X805488Y596749D03*
X798988Y596749D03*
X792488Y596749D03*
X785988Y596749D03*
X779488Y596749D03*
X772988Y596749D03*
X844488Y590249D03*
X837988Y590249D03*
X831488Y590249D03*
X824988Y590249D03*
X818488Y590249D03*
X811988Y590249D03*
X805488Y590249D03*
X798988Y590249D03*
X792488Y590249D03*
X785988Y590249D03*
X779488Y590249D03*
X772988Y590249D03*
X844488Y583749D03*
X837988Y583749D03*
X831488Y583749D03*
X824988Y583749D03*
X818488Y583749D03*
X811988Y583749D03*
X805488Y583749D03*
X798988Y583749D03*
X792488Y583749D03*
X785988Y583749D03*
X779488Y583749D03*
X772988Y583749D03*
X844488Y577249D03*
X837988Y577249D03*
X831488Y577249D03*
X824988Y577249D03*
X818488Y577249D03*
X811988Y577249D03*
X805488Y577249D03*
X798988Y577249D03*
X792488Y577249D03*
X785988Y577249D03*
X779488Y577249D03*
X772988Y577249D03*
X844488Y570749D03*
X837988Y570749D03*
X831488Y570749D03*
X824988Y570749D03*
X818488Y570749D03*
X811988Y570749D03*
X805488Y570749D03*
X798988Y570749D03*
X792488Y570749D03*
X785988Y570749D03*
X779488Y570749D03*
X772988Y570749D03*
X844488Y564249D03*
X837988Y564249D03*
X831488Y564249D03*
X824988Y564249D03*
X818488Y564249D03*
X811988Y564249D03*
X805488Y564249D03*
X798988Y564249D03*
X792488Y564249D03*
X785988Y564249D03*
X779488Y564249D03*
X772988Y564249D03*
X844488Y557749D03*
X837988Y557749D03*
X831488Y557749D03*
X824988Y557749D03*
X818488Y557749D03*
X811988Y557749D03*
X805488Y557749D03*
X798988Y557749D03*
X792488Y557749D03*
X785988Y557749D03*
X779488Y557749D03*
X772988Y557749D03*
X844488Y551249D03*
X837988Y551249D03*
X831488Y551249D03*
X824988Y551249D03*
X818488Y551249D03*
X811988Y551249D03*
X805488Y551249D03*
X798988Y551249D03*
X792488Y551249D03*
X785988Y551249D03*
X779488Y551249D03*
X772988Y551249D03*
X844488Y544749D03*
X837988Y544749D03*
X831488Y544749D03*
X824988Y544749D03*
X818488Y544749D03*
X811988Y544749D03*
X805488Y544749D03*
X798988Y544749D03*
X792488Y544749D03*
X785988Y544749D03*
X779488Y544749D03*
X772988Y544749D03*
X844488Y538249D03*
X837988Y538249D03*
X831488Y538249D03*
X824988Y538249D03*
X818488Y538249D03*
X811988Y538249D03*
X805488Y538249D03*
X798988Y538249D03*
X792488Y538249D03*
X785988Y538249D03*
X779488Y538249D03*
X772988Y538249D03*
D11*
X700518Y483989D02*
X700518Y477009D01*
X700518Y483989D02*
X707498Y483989D01*
X707498Y477009D01*
X700518Y477009D01*
X700518Y481809D02*
X707498Y481809D01*
X682978Y483989D02*
X682978Y477009D01*
X682978Y483989D02*
X689958Y483989D01*
X689958Y477009D01*
X682978Y477009D01*
X682978Y481809D02*
X689958Y481809D01*
D12*
X685238Y585499D03*
X685238Y595499D03*
D13*
X719238Y537999D03*
X719238Y562999D03*
D14*
X739158Y605349D03*
X744158Y605349D03*
X749158Y605349D03*
X754158Y605349D03*
X749158Y631849D03*
X754158Y631849D03*
X744158Y631849D03*
X739158Y631849D03*
D12*
X705238Y535499D03*
X705238Y545499D03*
X705238Y565499D03*
X705238Y555499D03*
X757238Y545499D03*
X757238Y555499D03*
X749238Y570499D03*
X739238Y570499D03*
X749238Y531499D03*
X739238Y531499D03*
D15*
X749238Y557249D03*
X749238Y543749D03*
X739238Y543749D03*
X739238Y557249D03*
D12*
X885238Y505499D03*
X885238Y515499D03*
X712438Y588899D03*
X722438Y588899D03*
X712438Y576199D03*
X722438Y576199D03*
D16*
X685238Y640499D03*
X872238Y477499D03*
D17*
X862738Y515499D03*
X857738Y515499D03*
X852738Y515499D03*
X847738Y515499D03*
D18*
X840238Y507999D03*
X840238Y502999D03*
X840238Y497999D03*
X840238Y492999D03*
D17*
X847738Y485499D03*
X852738Y485499D03*
X857738Y485499D03*
X862738Y485499D03*
D18*
X870238Y492849D03*
X870238Y497999D03*
X870238Y502999D03*
X870238Y507999D03*
D19*
X855238Y500499D03*
D12*
X780238Y480499D03*
X790238Y480499D03*
D11*
X809958Y483989D02*
X809958Y477009D01*
X802978Y477009D01*
X802978Y483989D01*
X809958Y483989D01*
X809958Y481809D02*
X802978Y481809D01*
X827498Y483989D02*
X827498Y477009D01*
X820518Y477009D01*
X820518Y483989D01*
X827498Y483989D01*
X827498Y481809D02*
X820518Y481809D01*
D12*
X885238Y495499D03*
X885238Y485499D03*
D20*
X720238Y626499D03*
X720238Y608499D03*
D21*
X692738Y677749D03*
X697738Y677749D03*
X702738Y677749D03*
X707738Y677749D03*
X712738Y677749D03*
X717738Y677749D03*
X722738Y677749D03*
X727738Y677749D03*
X732738Y677749D03*
X737738Y677749D03*
X742738Y677749D03*
X747738Y677749D03*
X772738Y677749D03*
X777738Y677749D03*
X782738Y677749D03*
X787738Y677749D03*
X792738Y677749D03*
X797738Y677749D03*
X802738Y677749D03*
X807738Y677749D03*
X812738Y677749D03*
X817738Y677749D03*
X822738Y677749D03*
X827738Y677749D03*
X832738Y677749D03*
X837738Y677749D03*
X842738Y677749D03*
X847738Y677749D03*
X852738Y677749D03*
X857738Y677749D03*
X862738Y677749D03*
X867738Y677749D03*
X872738Y677749D03*
X877738Y677749D03*
D22*
X745238Y470499D03*
D10*
X1082557Y622749D03*
X1082557Y616249D03*
X1076057Y622749D03*
X1076057Y616249D03*
X1082557Y609749D03*
X1082557Y603249D03*
X1076057Y609749D03*
X1076057Y603249D03*
X1082557Y596749D03*
X1082557Y590249D03*
X1076057Y596749D03*
X1076057Y590249D03*
X1082557Y583749D03*
X1082557Y577249D03*
X1076057Y583749D03*
X1076057Y577249D03*
X1082557Y570749D03*
X1076057Y570749D03*
X1082557Y564249D03*
X1082557Y557749D03*
X1076057Y564249D03*
X1076057Y557749D03*
X1082557Y551249D03*
X1082557Y544749D03*
X1076057Y551249D03*
X1076057Y544749D03*
X1082557Y538249D03*
X1076057Y538249D03*
X1069557Y622749D03*
X1063057Y622749D03*
X1056557Y622749D03*
X1050057Y622749D03*
X1043557Y622749D03*
X1037057Y622749D03*
X1030557Y622749D03*
X1024057Y622749D03*
X1017557Y622749D03*
X1011057Y622749D03*
X1004557Y622749D03*
X998057Y622749D03*
X1069557Y616249D03*
X1063057Y616249D03*
X1056557Y616249D03*
X1050057Y616249D03*
X1043557Y616249D03*
X1037057Y616249D03*
X1030557Y616249D03*
X1024057Y616249D03*
X1017557Y616249D03*
X1011057Y616249D03*
X1004557Y616249D03*
X998057Y616249D03*
X1069557Y609749D03*
X1063057Y609749D03*
X1056557Y609749D03*
X1050057Y609749D03*
X1043557Y609749D03*
X1037057Y609749D03*
X1030557Y609749D03*
X1024057Y609749D03*
X1017557Y609749D03*
X1011057Y609749D03*
X1004557Y609749D03*
X998057Y609749D03*
X1069557Y603249D03*
X1063057Y603249D03*
X1056557Y603249D03*
X1050057Y603249D03*
X1043557Y603249D03*
X1037057Y603249D03*
X1030557Y603249D03*
X1024057Y603249D03*
X1017557Y603249D03*
X1011057Y603249D03*
X1004557Y603249D03*
X998057Y603249D03*
X1069557Y596749D03*
X1063057Y596749D03*
X1056557Y596749D03*
X1050057Y596749D03*
X1043557Y596749D03*
X1037057Y596749D03*
X1030557Y596749D03*
X1024057Y596749D03*
X1017557Y596749D03*
X1011057Y596749D03*
X1004557Y596749D03*
X998057Y596749D03*
X1069557Y590249D03*
X1063057Y590249D03*
X1056557Y590249D03*
X1050057Y590249D03*
X1043557Y590249D03*
X1037057Y590249D03*
X1030557Y590249D03*
X1024057Y590249D03*
X1017557Y590249D03*
X1011057Y590249D03*
X1004557Y590249D03*
X998057Y590249D03*
X1069557Y583749D03*
X1063057Y583749D03*
X1056557Y583749D03*
X1050057Y583749D03*
X1043557Y583749D03*
X1037057Y583749D03*
X1030557Y583749D03*
X1024057Y583749D03*
X1017557Y583749D03*
X1011057Y583749D03*
X1004557Y583749D03*
X998057Y583749D03*
X1069557Y577249D03*
X1063057Y577249D03*
X1056557Y577249D03*
X1050057Y577249D03*
X1043557Y577249D03*
X1037057Y577249D03*
X1030557Y577249D03*
X1024057Y577249D03*
X1017557Y577249D03*
X1011057Y577249D03*
X1004557Y577249D03*
X998057Y577249D03*
X1069557Y570749D03*
X1063057Y570749D03*
X1056557Y570749D03*
X1050057Y570749D03*
X1043557Y570749D03*
X1037057Y570749D03*
X1030557Y570749D03*
X1024057Y570749D03*
X1017557Y570749D03*
X1011057Y570749D03*
X1004557Y570749D03*
X998057Y570749D03*
X1069557Y564249D03*
X1063057Y564249D03*
X1056557Y564249D03*
X1050057Y564249D03*
X1043557Y564249D03*
X1037057Y564249D03*
X1030557Y564249D03*
X1024057Y564249D03*
X1017557Y564249D03*
X1011057Y564249D03*
X1004557Y564249D03*
X998057Y564249D03*
X1069557Y557749D03*
X1063057Y557749D03*
X1056557Y557749D03*
X1050057Y557749D03*
X1043557Y557749D03*
X1037057Y557749D03*
X1030557Y557749D03*
X1024057Y557749D03*
X1017557Y557749D03*
X1011057Y557749D03*
X1004557Y557749D03*
X998057Y557749D03*
X1069557Y551249D03*
X1063057Y551249D03*
X1056557Y551249D03*
X1050057Y551249D03*
X1043557Y551249D03*
X1037057Y551249D03*
X1030557Y551249D03*
X1024057Y551249D03*
X1017557Y551249D03*
X1011057Y551249D03*
X1004557Y551249D03*
X998057Y551249D03*
X1069557Y544749D03*
X1063057Y544749D03*
X1056557Y544749D03*
X1050057Y544749D03*
X1043557Y544749D03*
X1037057Y544749D03*
X1030557Y544749D03*
X1024057Y544749D03*
X1017557Y544749D03*
X1011057Y544749D03*
X1004557Y544749D03*
X998057Y544749D03*
X1069557Y538249D03*
X1063057Y538249D03*
X1056557Y538249D03*
X1050057Y538249D03*
X1043557Y538249D03*
X1037057Y538249D03*
X1030557Y538249D03*
X1024057Y538249D03*
X1017557Y538249D03*
X1011057Y538249D03*
X1004557Y538249D03*
X998057Y538249D03*
D11*
X925587Y483989D02*
X925587Y477009D01*
X925587Y483989D02*
X932567Y483989D01*
X932567Y477009D01*
X925587Y477009D01*
X925587Y481809D02*
X932567Y481809D01*
X908047Y483989D02*
X908047Y477009D01*
X908047Y483989D02*
X915027Y483989D01*
X915027Y477009D01*
X908047Y477009D01*
X908047Y481809D02*
X915027Y481809D01*
D12*
X910307Y585499D03*
X910307Y595499D03*
D13*
X944307Y537999D03*
X944307Y562999D03*
D14*
X964227Y605349D03*
X969227Y605349D03*
X974227Y605349D03*
X979227Y605349D03*
X974227Y631849D03*
X979227Y631849D03*
X969227Y631849D03*
X964227Y631849D03*
D12*
X930307Y535499D03*
X930307Y545499D03*
X930307Y565499D03*
X930307Y555499D03*
X982307Y545499D03*
X982307Y555499D03*
X974307Y570499D03*
X964307Y570499D03*
X974307Y531499D03*
X964307Y531499D03*
D15*
X974307Y557249D03*
X974307Y543749D03*
X964307Y543749D03*
X964307Y557249D03*
D12*
X1110307Y505499D03*
X1110307Y515499D03*
X937507Y588899D03*
X947507Y588899D03*
X937507Y576199D03*
X947507Y576199D03*
D16*
X910307Y640499D03*
X1097307Y477499D03*
D17*
X1087807Y515499D03*
X1082807Y515499D03*
X1077807Y515499D03*
X1072807Y515499D03*
D18*
X1065307Y507999D03*
X1065307Y502999D03*
X1065307Y497999D03*
X1065307Y492999D03*
D17*
X1072807Y485499D03*
X1077807Y485499D03*
X1082807Y485499D03*
X1087807Y485499D03*
D18*
X1095307Y492849D03*
X1095307Y497999D03*
X1095307Y502999D03*
X1095307Y507999D03*
D19*
X1080307Y500499D03*
D12*
X1005307Y480499D03*
X1015307Y480499D03*
D11*
X1035027Y483989D02*
X1035027Y477009D01*
X1028047Y477009D01*
X1028047Y483989D01*
X1035027Y483989D01*
X1035027Y481809D02*
X1028047Y481809D01*
X1052567Y483989D02*
X1052567Y477009D01*
X1045587Y477009D01*
X1045587Y483989D01*
X1052567Y483989D01*
X1052567Y481809D02*
X1045587Y481809D01*
D12*
X1110307Y495499D03*
X1110307Y485499D03*
D20*
X945307Y626499D03*
X945307Y608499D03*
D21*
X917807Y677749D03*
X922807Y677749D03*
X927807Y677749D03*
X932807Y677749D03*
X937807Y677749D03*
X942807Y677749D03*
X947807Y677749D03*
X952807Y677749D03*
X957807Y677749D03*
X962807Y677749D03*
X967807Y677749D03*
X972807Y677749D03*
X997807Y677749D03*
X1002807Y677749D03*
X1007807Y677749D03*
X1012807Y677749D03*
X1017807Y677749D03*
X1022807Y677749D03*
X1027807Y677749D03*
X1032807Y677749D03*
X1037807Y677749D03*
X1042807Y677749D03*
X1047807Y677749D03*
X1052807Y677749D03*
X1057807Y677749D03*
X1062807Y677749D03*
X1067807Y677749D03*
X1072807Y677749D03*
X1077807Y677749D03*
X1082807Y677749D03*
X1087807Y677749D03*
X1092807Y677749D03*
X1097807Y677749D03*
X1102807Y677749D03*
D22*
X970307Y470499D03*
D10*
X1307652Y622749D03*
X1307652Y616249D03*
X1301152Y622749D03*
X1301152Y616249D03*
X1307652Y609749D03*
X1307652Y603249D03*
X1301152Y609749D03*
X1301152Y603249D03*
X1307652Y596749D03*
X1307652Y590249D03*
X1301152Y596749D03*
X1301152Y590249D03*
X1307652Y583749D03*
X1307652Y577249D03*
X1301152Y583749D03*
X1301152Y577249D03*
X1307652Y570749D03*
X1301152Y570749D03*
X1307652Y564249D03*
X1307652Y557749D03*
X1301152Y564249D03*
X1301152Y557749D03*
X1307652Y551249D03*
X1307652Y544749D03*
X1301152Y551249D03*
X1301152Y544749D03*
X1307652Y538249D03*
X1301152Y538249D03*
X1294652Y622749D03*
X1288152Y622749D03*
X1281652Y622749D03*
X1275152Y622749D03*
X1268652Y622749D03*
X1262152Y622749D03*
X1255652Y622749D03*
X1249152Y622749D03*
X1242652Y622749D03*
X1236152Y622749D03*
X1229652Y622749D03*
X1223152Y622749D03*
X1294652Y616249D03*
X1288152Y616249D03*
X1281652Y616249D03*
X1275152Y616249D03*
X1268652Y616249D03*
X1262152Y616249D03*
X1255652Y616249D03*
X1249152Y616249D03*
X1242652Y616249D03*
X1236152Y616249D03*
X1229652Y616249D03*
X1223152Y616249D03*
X1294652Y609749D03*
X1288152Y609749D03*
X1281652Y609749D03*
X1275152Y609749D03*
X1268652Y609749D03*
X1262152Y609749D03*
X1255652Y609749D03*
X1249152Y609749D03*
X1242652Y609749D03*
X1236152Y609749D03*
X1229652Y609749D03*
X1223152Y609749D03*
X1294652Y603249D03*
X1288152Y603249D03*
X1281652Y603249D03*
X1275152Y603249D03*
X1268652Y603249D03*
X1262152Y603249D03*
X1255652Y603249D03*
X1249152Y603249D03*
X1242652Y603249D03*
X1236152Y603249D03*
X1229652Y603249D03*
X1223152Y603249D03*
X1294652Y596749D03*
X1288152Y596749D03*
X1281652Y596749D03*
X1275152Y596749D03*
X1268652Y596749D03*
X1262152Y596749D03*
X1255652Y596749D03*
X1249152Y596749D03*
X1242652Y596749D03*
X1236152Y596749D03*
X1229652Y596749D03*
X1223152Y596749D03*
X1294652Y590249D03*
X1288152Y590249D03*
X1281652Y590249D03*
X1275152Y590249D03*
X1268652Y590249D03*
X1262152Y590249D03*
X1255652Y590249D03*
X1249152Y590249D03*
X1242652Y590249D03*
X1236152Y590249D03*
X1229652Y590249D03*
X1223152Y590249D03*
X1294652Y583749D03*
X1288152Y583749D03*
X1281652Y583749D03*
X1275152Y583749D03*
X1268652Y583749D03*
X1262152Y583749D03*
X1255652Y583749D03*
X1249152Y583749D03*
X1242652Y583749D03*
X1236152Y583749D03*
X1229652Y583749D03*
X1223152Y583749D03*
X1294652Y577249D03*
X1288152Y577249D03*
X1281652Y577249D03*
X1275152Y577249D03*
X1268652Y577249D03*
X1262152Y577249D03*
X1255652Y577249D03*
X1249152Y577249D03*
X1242652Y577249D03*
X1236152Y577249D03*
X1229652Y577249D03*
X1223152Y577249D03*
X1294652Y570749D03*
X1288152Y570749D03*
X1281652Y570749D03*
X1275152Y570749D03*
X1268652Y570749D03*
X1262152Y570749D03*
X1255652Y570749D03*
X1249152Y570749D03*
X1242652Y570749D03*
X1236152Y570749D03*
X1229652Y570749D03*
X1223152Y570749D03*
X1294652Y564249D03*
X1288152Y564249D03*
X1281652Y564249D03*
X1275152Y564249D03*
X1268652Y564249D03*
X1262152Y564249D03*
X1255652Y564249D03*
X1249152Y564249D03*
X1242652Y564249D03*
X1236152Y564249D03*
X1229652Y564249D03*
X1223152Y564249D03*
X1294652Y557749D03*
X1288152Y557749D03*
X1281652Y557749D03*
X1275152Y557749D03*
X1268652Y557749D03*
X1262152Y557749D03*
X1255652Y557749D03*
X1249152Y557749D03*
X1242652Y557749D03*
X1236152Y557749D03*
X1229652Y557749D03*
X1223152Y557749D03*
X1294652Y551249D03*
X1288152Y551249D03*
X1281652Y551249D03*
X1275152Y551249D03*
X1268652Y551249D03*
X1262152Y551249D03*
X1255652Y551249D03*
X1249152Y551249D03*
X1242652Y551249D03*
X1236152Y551249D03*
X1229652Y551249D03*
X1223152Y551249D03*
X1294652Y544749D03*
X1288152Y544749D03*
X1281652Y544749D03*
X1275152Y544749D03*
X1268652Y544749D03*
X1262152Y544749D03*
X1255652Y544749D03*
X1249152Y544749D03*
X1242652Y544749D03*
X1236152Y544749D03*
X1229652Y544749D03*
X1223152Y544749D03*
X1294652Y538249D03*
X1288152Y538249D03*
X1281652Y538249D03*
X1275152Y538249D03*
X1268652Y538249D03*
X1262152Y538249D03*
X1255652Y538249D03*
X1249152Y538249D03*
X1242652Y538249D03*
X1236152Y538249D03*
X1229652Y538249D03*
X1223152Y538249D03*
D11*
X1150682Y483989D02*
X1150682Y477009D01*
X1150682Y483989D02*
X1157662Y483989D01*
X1157662Y477009D01*
X1150682Y477009D01*
X1150682Y481809D02*
X1157662Y481809D01*
X1133142Y483989D02*
X1133142Y477009D01*
X1133142Y483989D02*
X1140122Y483989D01*
X1140122Y477009D01*
X1133142Y477009D01*
X1133142Y481809D02*
X1140122Y481809D01*
D12*
X1135402Y585499D03*
X1135402Y595499D03*
D13*
X1169402Y537999D03*
X1169402Y562999D03*
D14*
X1189322Y605349D03*
X1194322Y605349D03*
X1199322Y605349D03*
X1204322Y605349D03*
X1199322Y631849D03*
X1204322Y631849D03*
X1194322Y631849D03*
X1189322Y631849D03*
D12*
X1155402Y535499D03*
X1155402Y545499D03*
X1155402Y565499D03*
X1155402Y555499D03*
X1207402Y545499D03*
X1207402Y555499D03*
X1199402Y570499D03*
X1189402Y570499D03*
X1199402Y531499D03*
X1189402Y531499D03*
D15*
X1199402Y557249D03*
X1199402Y543749D03*
X1189402Y543749D03*
X1189402Y557249D03*
D12*
X1335402Y505499D03*
X1335402Y515499D03*
X1162602Y588899D03*
X1172602Y588899D03*
X1162602Y576199D03*
X1172602Y576199D03*
D16*
X1135402Y640499D03*
X1322402Y477499D03*
D17*
X1312902Y515499D03*
X1307902Y515499D03*
X1302902Y515499D03*
X1297902Y515499D03*
D18*
X1290402Y507999D03*
X1290402Y502999D03*
X1290402Y497999D03*
X1290402Y492999D03*
D17*
X1297902Y485499D03*
X1302902Y485499D03*
X1307902Y485499D03*
X1312902Y485499D03*
D18*
X1320402Y492849D03*
X1320402Y497999D03*
X1320402Y502999D03*
X1320402Y507999D03*
D19*
X1305402Y500499D03*
D12*
X1230402Y480499D03*
X1240402Y480499D03*
D11*
X1260122Y483989D02*
X1260122Y477009D01*
X1253142Y477009D01*
X1253142Y483989D01*
X1260122Y483989D01*
X1260122Y481809D02*
X1253142Y481809D01*
X1277662Y483989D02*
X1277662Y477009D01*
X1270682Y477009D01*
X1270682Y483989D01*
X1277662Y483989D01*
X1277662Y481809D02*
X1270682Y481809D01*
D12*
X1335402Y495499D03*
X1335402Y485499D03*
D20*
X1170402Y626499D03*
X1170402Y608499D03*
D21*
X1142902Y677749D03*
X1147902Y677749D03*
X1152902Y677749D03*
X1157902Y677749D03*
X1162902Y677749D03*
X1167902Y677749D03*
X1172902Y677749D03*
X1177902Y677749D03*
X1182902Y677749D03*
X1187902Y677749D03*
X1192902Y677749D03*
X1197902Y677749D03*
X1222902Y677749D03*
X1227902Y677749D03*
X1232902Y677749D03*
X1237902Y677749D03*
X1242902Y677749D03*
X1247902Y677749D03*
X1252902Y677749D03*
X1257902Y677749D03*
X1262902Y677749D03*
X1267902Y677749D03*
X1272902Y677749D03*
X1277902Y677749D03*
X1282902Y677749D03*
X1287902Y677749D03*
X1292902Y677749D03*
X1297902Y677749D03*
X1302902Y677749D03*
X1307902Y677749D03*
X1312902Y677749D03*
X1317902Y677749D03*
X1322902Y677749D03*
X1327902Y677749D03*
D22*
X1195402Y470499D03*
D10*
X1532721Y622749D03*
X1532721Y616249D03*
X1526221Y622749D03*
X1526221Y616249D03*
X1532721Y609749D03*
X1532721Y603249D03*
X1526221Y609749D03*
X1526221Y603249D03*
X1532721Y596749D03*
X1532721Y590249D03*
X1526221Y596749D03*
X1526221Y590249D03*
X1532721Y583749D03*
X1532721Y577249D03*
X1526221Y583749D03*
X1526221Y577249D03*
X1532721Y570749D03*
X1526221Y570749D03*
X1532721Y564249D03*
X1532721Y557749D03*
X1526221Y564249D03*
X1526221Y557749D03*
X1532721Y551249D03*
X1532721Y544749D03*
X1526221Y551249D03*
X1526221Y544749D03*
X1532721Y538249D03*
X1526221Y538249D03*
X1519721Y622749D03*
X1513221Y622749D03*
X1506721Y622749D03*
X1500221Y622749D03*
X1493721Y622749D03*
X1487221Y622749D03*
X1480721Y622749D03*
X1474221Y622749D03*
X1467721Y622749D03*
X1461221Y622749D03*
X1454721Y622749D03*
X1448221Y622749D03*
X1519721Y616249D03*
X1513221Y616249D03*
X1506721Y616249D03*
X1500221Y616249D03*
X1493721Y616249D03*
X1487221Y616249D03*
X1480721Y616249D03*
X1474221Y616249D03*
X1467721Y616249D03*
X1461221Y616249D03*
X1454721Y616249D03*
X1448221Y616249D03*
X1519721Y609749D03*
X1513221Y609749D03*
X1506721Y609749D03*
X1500221Y609749D03*
X1493721Y609749D03*
X1487221Y609749D03*
X1480721Y609749D03*
X1474221Y609749D03*
X1467721Y609749D03*
X1461221Y609749D03*
X1454721Y609749D03*
X1448221Y609749D03*
X1519721Y603249D03*
X1513221Y603249D03*
X1506721Y603249D03*
X1500221Y603249D03*
X1493721Y603249D03*
X1487221Y603249D03*
X1480721Y603249D03*
X1474221Y603249D03*
X1467721Y603249D03*
X1461221Y603249D03*
X1454721Y603249D03*
X1448221Y603249D03*
X1519721Y596749D03*
X1513221Y596749D03*
X1506721Y596749D03*
X1500221Y596749D03*
X1493721Y596749D03*
X1487221Y596749D03*
X1480721Y596749D03*
X1474221Y596749D03*
X1467721Y596749D03*
X1461221Y596749D03*
X1454721Y596749D03*
X1448221Y596749D03*
X1519721Y590249D03*
X1513221Y590249D03*
X1506721Y590249D03*
X1500221Y590249D03*
X1493721Y590249D03*
X1487221Y590249D03*
X1480721Y590249D03*
X1474221Y590249D03*
X1467721Y590249D03*
X1461221Y590249D03*
X1454721Y590249D03*
X1448221Y590249D03*
X1519721Y583749D03*
X1513221Y583749D03*
X1506721Y583749D03*
X1500221Y583749D03*
X1493721Y583749D03*
X1487221Y583749D03*
X1480721Y583749D03*
X1474221Y583749D03*
X1467721Y583749D03*
X1461221Y583749D03*
X1454721Y583749D03*
X1448221Y583749D03*
X1519721Y577249D03*
X1513221Y577249D03*
X1506721Y577249D03*
X1500221Y577249D03*
X1493721Y577249D03*
X1487221Y577249D03*
X1480721Y577249D03*
X1474221Y577249D03*
X1467721Y577249D03*
X1461221Y577249D03*
X1454721Y577249D03*
X1448221Y577249D03*
X1519721Y570749D03*
X1513221Y570749D03*
X1506721Y570749D03*
X1500221Y570749D03*
X1493721Y570749D03*
X1487221Y570749D03*
X1480721Y570749D03*
X1474221Y570749D03*
X1467721Y570749D03*
X1461221Y570749D03*
X1454721Y570749D03*
X1448221Y570749D03*
X1519721Y564249D03*
X1513221Y564249D03*
X1506721Y564249D03*
X1500221Y564249D03*
X1493721Y564249D03*
X1487221Y564249D03*
X1480721Y564249D03*
X1474221Y564249D03*
X1467721Y564249D03*
X1461221Y564249D03*
X1454721Y564249D03*
X1448221Y564249D03*
X1519721Y557749D03*
X1513221Y557749D03*
X1506721Y557749D03*
X1500221Y557749D03*
X1493721Y557749D03*
X1487221Y557749D03*
X1480721Y557749D03*
X1474221Y557749D03*
X1467721Y557749D03*
X1461221Y557749D03*
X1454721Y557749D03*
X1448221Y557749D03*
X1519721Y551249D03*
X1513221Y551249D03*
X1506721Y551249D03*
X1500221Y551249D03*
X1493721Y551249D03*
X1487221Y551249D03*
X1480721Y551249D03*
X1474221Y551249D03*
X1467721Y551249D03*
X1461221Y551249D03*
X1454721Y551249D03*
X1448221Y551249D03*
X1519721Y544749D03*
X1513221Y544749D03*
X1506721Y544749D03*
X1500221Y544749D03*
X1493721Y544749D03*
X1487221Y544749D03*
X1480721Y544749D03*
X1474221Y544749D03*
X1467721Y544749D03*
X1461221Y544749D03*
X1454721Y544749D03*
X1448221Y544749D03*
X1519721Y538249D03*
X1513221Y538249D03*
X1506721Y538249D03*
X1500221Y538249D03*
X1493721Y538249D03*
X1487221Y538249D03*
X1480721Y538249D03*
X1474221Y538249D03*
X1467721Y538249D03*
X1461221Y538249D03*
X1454721Y538249D03*
X1448221Y538249D03*
D11*
X1375751Y483989D02*
X1375751Y477009D01*
X1375751Y483989D02*
X1382731Y483989D01*
X1382731Y477009D01*
X1375751Y477009D01*
X1375751Y481809D02*
X1382731Y481809D01*
X1358211Y483989D02*
X1358211Y477009D01*
X1358211Y483989D02*
X1365191Y483989D01*
X1365191Y477009D01*
X1358211Y477009D01*
X1358211Y481809D02*
X1365191Y481809D01*
D12*
X1360471Y585499D03*
X1360471Y595499D03*
D13*
X1394471Y537999D03*
X1394471Y562999D03*
D14*
X1414391Y605349D03*
X1419391Y605349D03*
X1424391Y605349D03*
X1429391Y605349D03*
X1424391Y631849D03*
X1429391Y631849D03*
X1419391Y631849D03*
X1414391Y631849D03*
D12*
X1380471Y535499D03*
X1380471Y545499D03*
X1380471Y565499D03*
X1380471Y555499D03*
X1432471Y545499D03*
X1432471Y555499D03*
X1424471Y570499D03*
X1414471Y570499D03*
X1424471Y531499D03*
X1414471Y531499D03*
D15*
X1424471Y557249D03*
X1424471Y543749D03*
X1414471Y543749D03*
X1414471Y557249D03*
D12*
X1560471Y505499D03*
X1560471Y515499D03*
X1387671Y588899D03*
X1397671Y588899D03*
X1387671Y576199D03*
X1397671Y576199D03*
D16*
X1360471Y640499D03*
X1547471Y477499D03*
D17*
X1537971Y515499D03*
X1532971Y515499D03*
X1527971Y515499D03*
X1522971Y515499D03*
D18*
X1515471Y507999D03*
X1515471Y502999D03*
X1515471Y497999D03*
X1515471Y492999D03*
D17*
X1522971Y485499D03*
X1527971Y485499D03*
X1532971Y485499D03*
X1537971Y485499D03*
D18*
X1545471Y492849D03*
X1545471Y497999D03*
X1545471Y502999D03*
X1545471Y507999D03*
D19*
X1530471Y500499D03*
D12*
X1455471Y480499D03*
X1465471Y480499D03*
D11*
X1485191Y483989D02*
X1485191Y477009D01*
X1478211Y477009D01*
X1478211Y483989D01*
X1485191Y483989D01*
X1485191Y481809D02*
X1478211Y481809D01*
X1502731Y483989D02*
X1502731Y477009D01*
X1495751Y477009D01*
X1495751Y483989D01*
X1502731Y483989D01*
X1502731Y481809D02*
X1495751Y481809D01*
D12*
X1560471Y495499D03*
X1560471Y485499D03*
D20*
X1395471Y626499D03*
X1395471Y608499D03*
D21*
X1367971Y677749D03*
X1372971Y677749D03*
X1377971Y677749D03*
X1382971Y677749D03*
X1387971Y677749D03*
X1392971Y677749D03*
X1397971Y677749D03*
X1402971Y677749D03*
X1407971Y677749D03*
X1412971Y677749D03*
X1417971Y677749D03*
X1422971Y677749D03*
X1447971Y677749D03*
X1452971Y677749D03*
X1457971Y677749D03*
X1462971Y677749D03*
X1467971Y677749D03*
X1472971Y677749D03*
X1477971Y677749D03*
X1482971Y677749D03*
X1487971Y677749D03*
X1492971Y677749D03*
X1497971Y677749D03*
X1502971Y677749D03*
X1507971Y677749D03*
X1512971Y677749D03*
X1517971Y677749D03*
X1522971Y677749D03*
X1527971Y677749D03*
X1532971Y677749D03*
X1537971Y677749D03*
X1542971Y677749D03*
X1547971Y677749D03*
X1552971Y677749D03*
D22*
X1420471Y470499D03*
D10*
X1757791Y622749D03*
X1757791Y616249D03*
X1751291Y622749D03*
X1751291Y616249D03*
X1757791Y609749D03*
X1757791Y603249D03*
X1751291Y609749D03*
X1751291Y603249D03*
X1757791Y596749D03*
X1757791Y590249D03*
X1751291Y596749D03*
X1751291Y590249D03*
X1757791Y583749D03*
X1757791Y577249D03*
X1751291Y583749D03*
X1751291Y577249D03*
X1757791Y570749D03*
X1751291Y570749D03*
X1757791Y564249D03*
X1757791Y557749D03*
X1751291Y564249D03*
X1751291Y557749D03*
X1757791Y551249D03*
X1757791Y544749D03*
X1751291Y551249D03*
X1751291Y544749D03*
X1757791Y538249D03*
X1751291Y538249D03*
X1744791Y622749D03*
X1738291Y622749D03*
X1731791Y622749D03*
X1725291Y622749D03*
X1718791Y622749D03*
X1712291Y622749D03*
X1705791Y622749D03*
X1699291Y622749D03*
X1692791Y622749D03*
X1686291Y622749D03*
X1679791Y622749D03*
X1673291Y622749D03*
X1744791Y616249D03*
X1738291Y616249D03*
X1731791Y616249D03*
X1725291Y616249D03*
X1718791Y616249D03*
X1712291Y616249D03*
X1705791Y616249D03*
X1699291Y616249D03*
X1692791Y616249D03*
X1686291Y616249D03*
X1679791Y616249D03*
X1673291Y616249D03*
X1744791Y609749D03*
X1738291Y609749D03*
X1731791Y609749D03*
X1725291Y609749D03*
X1718791Y609749D03*
X1712291Y609749D03*
X1705791Y609749D03*
X1699291Y609749D03*
X1692791Y609749D03*
X1686291Y609749D03*
X1679791Y609749D03*
X1673291Y609749D03*
X1744791Y603249D03*
X1738291Y603249D03*
X1731791Y603249D03*
X1725291Y603249D03*
X1718791Y603249D03*
X1712291Y603249D03*
X1705791Y603249D03*
X1699291Y603249D03*
X1692791Y603249D03*
X1686291Y603249D03*
X1679791Y603249D03*
X1673291Y603249D03*
X1744791Y596749D03*
X1738291Y596749D03*
X1731791Y596749D03*
X1725291Y596749D03*
X1718791Y596749D03*
X1712291Y596749D03*
X1705791Y596749D03*
X1699291Y596749D03*
X1692791Y596749D03*
X1686291Y596749D03*
X1679791Y596749D03*
X1673291Y596749D03*
X1744791Y590249D03*
X1738291Y590249D03*
X1731791Y590249D03*
X1725291Y590249D03*
X1718791Y590249D03*
X1712291Y590249D03*
X1705791Y590249D03*
X1699291Y590249D03*
X1692791Y590249D03*
X1686291Y590249D03*
X1679791Y590249D03*
X1673291Y590249D03*
X1744791Y583749D03*
X1738291Y583749D03*
X1731791Y583749D03*
X1725291Y583749D03*
X1718791Y583749D03*
X1712291Y583749D03*
X1705791Y583749D03*
X1699291Y583749D03*
X1692791Y583749D03*
X1686291Y583749D03*
X1679791Y583749D03*
X1673291Y583749D03*
X1744791Y577249D03*
X1738291Y577249D03*
X1731791Y577249D03*
X1725291Y577249D03*
X1718791Y577249D03*
X1712291Y577249D03*
X1705791Y577249D03*
X1699291Y577249D03*
X1692791Y577249D03*
X1686291Y577249D03*
X1679791Y577249D03*
X1673291Y577249D03*
X1744791Y570749D03*
X1738291Y570749D03*
X1731791Y570749D03*
X1725291Y570749D03*
X1718791Y570749D03*
X1712291Y570749D03*
X1705791Y570749D03*
X1699291Y570749D03*
X1692791Y570749D03*
X1686291Y570749D03*
X1679791Y570749D03*
X1673291Y570749D03*
X1744791Y564249D03*
X1738291Y564249D03*
X1731791Y564249D03*
X1725291Y564249D03*
X1718791Y564249D03*
X1712291Y564249D03*
X1705791Y564249D03*
X1699291Y564249D03*
X1692791Y564249D03*
X1686291Y564249D03*
X1679791Y564249D03*
X1673291Y564249D03*
X1744791Y557749D03*
X1738291Y557749D03*
X1731791Y557749D03*
X1725291Y557749D03*
X1718791Y557749D03*
X1712291Y557749D03*
X1705791Y557749D03*
X1699291Y557749D03*
X1692791Y557749D03*
X1686291Y557749D03*
X1679791Y557749D03*
X1673291Y557749D03*
X1744791Y551249D03*
X1738291Y551249D03*
X1731791Y551249D03*
X1725291Y551249D03*
X1718791Y551249D03*
X1712291Y551249D03*
X1705791Y551249D03*
X1699291Y551249D03*
X1692791Y551249D03*
X1686291Y551249D03*
X1679791Y551249D03*
X1673291Y551249D03*
X1744791Y544749D03*
X1738291Y544749D03*
X1731791Y544749D03*
X1725291Y544749D03*
X1718791Y544749D03*
X1712291Y544749D03*
X1705791Y544749D03*
X1699291Y544749D03*
X1692791Y544749D03*
X1686291Y544749D03*
X1679791Y544749D03*
X1673291Y544749D03*
X1744791Y538249D03*
X1738291Y538249D03*
X1731791Y538249D03*
X1725291Y538249D03*
X1718791Y538249D03*
X1712291Y538249D03*
X1705791Y538249D03*
X1699291Y538249D03*
X1692791Y538249D03*
X1686291Y538249D03*
X1679791Y538249D03*
X1673291Y538249D03*
D11*
X1600821Y483989D02*
X1600821Y477009D01*
X1600821Y483989D02*
X1607801Y483989D01*
X1607801Y477009D01*
X1600821Y477009D01*
X1600821Y481809D02*
X1607801Y481809D01*
X1583281Y483989D02*
X1583281Y477009D01*
X1583281Y483989D02*
X1590261Y483989D01*
X1590261Y477009D01*
X1583281Y477009D01*
X1583281Y481809D02*
X1590261Y481809D01*
D12*
X1585541Y585499D03*
X1585541Y595499D03*
D13*
X1619541Y537999D03*
X1619541Y562999D03*
D14*
X1639461Y605349D03*
X1644461Y605349D03*
X1649461Y605349D03*
X1654461Y605349D03*
X1649461Y631849D03*
X1654461Y631849D03*
X1644461Y631849D03*
X1639461Y631849D03*
D12*
X1605541Y535499D03*
X1605541Y545499D03*
X1605541Y565499D03*
X1605541Y555499D03*
X1657541Y545499D03*
X1657541Y555499D03*
X1649541Y570499D03*
X1639541Y570499D03*
X1649541Y531499D03*
X1639541Y531499D03*
D15*
X1649541Y557249D03*
X1649541Y543749D03*
X1639541Y543749D03*
X1639541Y557249D03*
D12*
X1785541Y505499D03*
X1785541Y515499D03*
X1612741Y588899D03*
X1622741Y588899D03*
X1612741Y576199D03*
X1622741Y576199D03*
D16*
X1585541Y640499D03*
X1772541Y477499D03*
D17*
X1763041Y515499D03*
X1758041Y515499D03*
X1753041Y515499D03*
X1748041Y515499D03*
D18*
X1740541Y507999D03*
X1740541Y502999D03*
X1740541Y497999D03*
X1740541Y492999D03*
D17*
X1748041Y485499D03*
X1753041Y485499D03*
X1758041Y485499D03*
X1763041Y485499D03*
D18*
X1770541Y492849D03*
X1770541Y497999D03*
X1770541Y502999D03*
X1770541Y507999D03*
D19*
X1755541Y500499D03*
D12*
X1680541Y480499D03*
X1690541Y480499D03*
D11*
X1710261Y483989D02*
X1710261Y477009D01*
X1703281Y477009D01*
X1703281Y483989D01*
X1710261Y483989D01*
X1710261Y481809D02*
X1703281Y481809D01*
X1727801Y483989D02*
X1727801Y477009D01*
X1720821Y477009D01*
X1720821Y483989D01*
X1727801Y483989D01*
X1727801Y481809D02*
X1720821Y481809D01*
D12*
X1785541Y495499D03*
X1785541Y485499D03*
D20*
X1620541Y626499D03*
X1620541Y608499D03*
D21*
X1593041Y677749D03*
X1598041Y677749D03*
X1603041Y677749D03*
X1608041Y677749D03*
X1613041Y677749D03*
X1618041Y677749D03*
X1623041Y677749D03*
X1628041Y677749D03*
X1633041Y677749D03*
X1638041Y677749D03*
X1643041Y677749D03*
X1648041Y677749D03*
X1673041Y677749D03*
X1678041Y677749D03*
X1683041Y677749D03*
X1688041Y677749D03*
X1693041Y677749D03*
X1698041Y677749D03*
X1703041Y677749D03*
X1708041Y677749D03*
X1713041Y677749D03*
X1718041Y677749D03*
X1723041Y677749D03*
X1728041Y677749D03*
X1733041Y677749D03*
X1738041Y677749D03*
X1743041Y677749D03*
X1748041Y677749D03*
X1753041Y677749D03*
X1758041Y677749D03*
X1763041Y677749D03*
X1768041Y677749D03*
X1773041Y677749D03*
X1778041Y677749D03*
D22*
X1645541Y470499D03*
D23*
X-26238Y635000D03*
X1821815Y635000D03*
D24*
X-35293Y68580D02*
X-35290Y68802D01*
X-35282Y69024D01*
X-35268Y69246D01*
X-35249Y69468D01*
X-35225Y69688D01*
X-35195Y69909D01*
X-35160Y70128D01*
X-35119Y70347D01*
X-35073Y70564D01*
X-35022Y70780D01*
X-34965Y70995D01*
X-34903Y71209D01*
X-34836Y71420D01*
X-34764Y71631D01*
X-34686Y71839D01*
X-34604Y72045D01*
X-34516Y72249D01*
X-34424Y72452D01*
X-34326Y72651D01*
X-34224Y72848D01*
X-34117Y73043D01*
X-34005Y73235D01*
X-33888Y73424D01*
X-33767Y73611D01*
X-33641Y73794D01*
X-33511Y73974D01*
X-33376Y74151D01*
X-33238Y74324D01*
X-33095Y74494D01*
X-32947Y74661D01*
X-32796Y74824D01*
X-32641Y74983D01*
X-32482Y75138D01*
X-32319Y75289D01*
X-32152Y75437D01*
X-31982Y75580D01*
X-31809Y75718D01*
X-31632Y75853D01*
X-31452Y75983D01*
X-31269Y76109D01*
X-31082Y76230D01*
X-30893Y76347D01*
X-30701Y76459D01*
X-30506Y76566D01*
X-30309Y76668D01*
X-30110Y76766D01*
X-29907Y76858D01*
X-29703Y76946D01*
X-29497Y77028D01*
X-29289Y77106D01*
X-29078Y77178D01*
X-28867Y77245D01*
X-28653Y77307D01*
X-28438Y77364D01*
X-28222Y77415D01*
X-28005Y77461D01*
X-27786Y77502D01*
X-27567Y77537D01*
X-27346Y77567D01*
X-27126Y77591D01*
X-26904Y77610D01*
X-26682Y77624D01*
X-26460Y77632D01*
X-26238Y77635D01*
X-26016Y77632D01*
X-25794Y77624D01*
X-25572Y77610D01*
X-25350Y77591D01*
X-25130Y77567D01*
X-24909Y77537D01*
X-24690Y77502D01*
X-24471Y77461D01*
X-24254Y77415D01*
X-24038Y77364D01*
X-23823Y77307D01*
X-23609Y77245D01*
X-23398Y77178D01*
X-23187Y77106D01*
X-22979Y77028D01*
X-22773Y76946D01*
X-22569Y76858D01*
X-22366Y76766D01*
X-22167Y76668D01*
X-21970Y76566D01*
X-21775Y76459D01*
X-21583Y76347D01*
X-21394Y76230D01*
X-21207Y76109D01*
X-21024Y75983D01*
X-20844Y75853D01*
X-20667Y75718D01*
X-20494Y75580D01*
X-20324Y75437D01*
X-20157Y75289D01*
X-19994Y75138D01*
X-19835Y74983D01*
X-19680Y74824D01*
X-19529Y74661D01*
X-19381Y74494D01*
X-19238Y74324D01*
X-19100Y74151D01*
X-18965Y73974D01*
X-18835Y73794D01*
X-18709Y73611D01*
X-18588Y73424D01*
X-18471Y73235D01*
X-18359Y73043D01*
X-18252Y72848D01*
X-18150Y72651D01*
X-18052Y72452D01*
X-17960Y72249D01*
X-17872Y72045D01*
X-17790Y71839D01*
X-17712Y71631D01*
X-17640Y71420D01*
X-17573Y71209D01*
X-17511Y70995D01*
X-17454Y70780D01*
X-17403Y70564D01*
X-17357Y70347D01*
X-17316Y70128D01*
X-17281Y69909D01*
X-17251Y69688D01*
X-17227Y69468D01*
X-17208Y69246D01*
X-17194Y69024D01*
X-17186Y68802D01*
X-17183Y68580D01*
X-17186Y68358D01*
X-17194Y68136D01*
X-17208Y67914D01*
X-17227Y67692D01*
X-17251Y67472D01*
X-17281Y67251D01*
X-17316Y67032D01*
X-17357Y66813D01*
X-17403Y66596D01*
X-17454Y66380D01*
X-17511Y66165D01*
X-17573Y65951D01*
X-17640Y65740D01*
X-17712Y65529D01*
X-17790Y65321D01*
X-17872Y65115D01*
X-17960Y64911D01*
X-18052Y64708D01*
X-18150Y64509D01*
X-18252Y64312D01*
X-18359Y64117D01*
X-18471Y63925D01*
X-18588Y63736D01*
X-18709Y63549D01*
X-18835Y63366D01*
X-18965Y63186D01*
X-19100Y63009D01*
X-19238Y62836D01*
X-19381Y62666D01*
X-19529Y62499D01*
X-19680Y62336D01*
X-19835Y62177D01*
X-19994Y62022D01*
X-20157Y61871D01*
X-20324Y61723D01*
X-20494Y61580D01*
X-20667Y61442D01*
X-20844Y61307D01*
X-21024Y61177D01*
X-21207Y61051D01*
X-21394Y60930D01*
X-21583Y60813D01*
X-21775Y60701D01*
X-21970Y60594D01*
X-22167Y60492D01*
X-22366Y60394D01*
X-22569Y60302D01*
X-22773Y60214D01*
X-22979Y60132D01*
X-23187Y60054D01*
X-23398Y59982D01*
X-23609Y59915D01*
X-23823Y59853D01*
X-24038Y59796D01*
X-24254Y59745D01*
X-24471Y59699D01*
X-24690Y59658D01*
X-24909Y59623D01*
X-25130Y59593D01*
X-25350Y59569D01*
X-25572Y59550D01*
X-25794Y59536D01*
X-26016Y59528D01*
X-26238Y59525D01*
X-26460Y59528D01*
X-26682Y59536D01*
X-26904Y59550D01*
X-27126Y59569D01*
X-27346Y59593D01*
X-27567Y59623D01*
X-27786Y59658D01*
X-28005Y59699D01*
X-28222Y59745D01*
X-28438Y59796D01*
X-28653Y59853D01*
X-28867Y59915D01*
X-29078Y59982D01*
X-29289Y60054D01*
X-29497Y60132D01*
X-29703Y60214D01*
X-29907Y60302D01*
X-30110Y60394D01*
X-30309Y60492D01*
X-30506Y60594D01*
X-30701Y60701D01*
X-30893Y60813D01*
X-31082Y60930D01*
X-31269Y61051D01*
X-31452Y61177D01*
X-31632Y61307D01*
X-31809Y61442D01*
X-31982Y61580D01*
X-32152Y61723D01*
X-32319Y61871D01*
X-32482Y62022D01*
X-32641Y62177D01*
X-32796Y62336D01*
X-32947Y62499D01*
X-33095Y62666D01*
X-33238Y62836D01*
X-33376Y63009D01*
X-33511Y63186D01*
X-33641Y63366D01*
X-33767Y63549D01*
X-33888Y63736D01*
X-34005Y63925D01*
X-34117Y64117D01*
X-34224Y64312D01*
X-34326Y64509D01*
X-34424Y64708D01*
X-34516Y64911D01*
X-34604Y65115D01*
X-34686Y65321D01*
X-34764Y65529D01*
X-34836Y65740D01*
X-34903Y65951D01*
X-34965Y66165D01*
X-35022Y66380D01*
X-35073Y66596D01*
X-35119Y66813D01*
X-35160Y67032D01*
X-35195Y67251D01*
X-35225Y67472D01*
X-35249Y67692D01*
X-35268Y67914D01*
X-35282Y68136D01*
X-35290Y68358D01*
X-35293Y68580D01*
D25*
X-26238Y68580D03*
M02*
