G04 EAGLE Gerber RS-274X export*
G75*
%MOMM*%
%FSLAX34Y34*%
%LPD*%
%INSoldermask Bottom*%
%IPPOS*%
%AMOC8*
5,1,8,0,0,1.08239X$1,22.5*%
G01*
%ADD10R,0.711200X0.711200*%
%ADD11R,0.803200X0.803200*%
%ADD12R,0.603200X0.603200*%
%ADD13R,1.473200X0.863600*%
%ADD14C,0.838200*%
%ADD15R,1.003200X1.103200*%
%ADD16R,0.663200X0.853200*%
%ADD17R,1.053200X0.703200*%
%ADD18R,0.553200X2.153200*%
%ADD19C,0.555600*%
%ADD20C,1.203200*%
%ADD21C,1.270000*%
%ADD22C,1.703200*%

G36*
X1729493Y192633D02*
X1729493Y192633D01*
X1729503Y192636D01*
X1729529Y192638D01*
X1733363Y193472D01*
X1733371Y193477D01*
X1733397Y193482D01*
X1737073Y194853D01*
X1737081Y194859D01*
X1737105Y194868D01*
X1740549Y196748D01*
X1740556Y196755D01*
X1740579Y196768D01*
X1743720Y199119D01*
X1743726Y199127D01*
X1743747Y199142D01*
X1746521Y201917D01*
X1746526Y201925D01*
X1746545Y201944D01*
X1748896Y205085D01*
X1748899Y205094D01*
X1748915Y205115D01*
X1750796Y208558D01*
X1750798Y208568D01*
X1750810Y208591D01*
X1752182Y212267D01*
X1752182Y212277D01*
X1752192Y212301D01*
X1753026Y216135D01*
X1753025Y216145D01*
X1753031Y216170D01*
X1753311Y220084D01*
X1753305Y220109D01*
X1753309Y220135D01*
X1753291Y220176D01*
X1753281Y220220D01*
X1753263Y220239D01*
X1753252Y220263D01*
X1753214Y220288D01*
X1753183Y220320D01*
X1753157Y220325D01*
X1753136Y220340D01*
X1753062Y220351D01*
X1743062Y220351D01*
X1743055Y220349D01*
X1743048Y220350D01*
X1742989Y220329D01*
X1742928Y220312D01*
X1742923Y220306D01*
X1742916Y220304D01*
X1742878Y220254D01*
X1742836Y220206D01*
X1742835Y220199D01*
X1742830Y220194D01*
X1742814Y220121D01*
X1742600Y217403D01*
X1741968Y214771D01*
X1740932Y212270D01*
X1739518Y209962D01*
X1737760Y207904D01*
X1735701Y206146D01*
X1733393Y204732D01*
X1730893Y203696D01*
X1728260Y203064D01*
X1725562Y202852D01*
X1722864Y203064D01*
X1720231Y203696D01*
X1717731Y204732D01*
X1715423Y206146D01*
X1713364Y207904D01*
X1713311Y207967D01*
X1712885Y208465D01*
X1712885Y208466D01*
X1712672Y208715D01*
X1712459Y208964D01*
X1712246Y209213D01*
X1711821Y209712D01*
X1711820Y209712D01*
X1711608Y209961D01*
X1711606Y209962D01*
X1710192Y212270D01*
X1709156Y214771D01*
X1708524Y217403D01*
X1708310Y220121D01*
X1708308Y220128D01*
X1708309Y220135D01*
X1708283Y220193D01*
X1708261Y220252D01*
X1708255Y220256D01*
X1708252Y220263D01*
X1708199Y220298D01*
X1708149Y220335D01*
X1708142Y220336D01*
X1708136Y220340D01*
X1708062Y220351D01*
X1698062Y220351D01*
X1698037Y220344D01*
X1698011Y220346D01*
X1697971Y220324D01*
X1697928Y220312D01*
X1697911Y220292D01*
X1697888Y220280D01*
X1697866Y220240D01*
X1697836Y220206D01*
X1697832Y220181D01*
X1697819Y220158D01*
X1697813Y220084D01*
X1698093Y216170D01*
X1698097Y216161D01*
X1698098Y216135D01*
X1698932Y212301D01*
X1698937Y212292D01*
X1698942Y212267D01*
X1700314Y208591D01*
X1700319Y208583D01*
X1700328Y208558D01*
X1702209Y205115D01*
X1702216Y205108D01*
X1702228Y205085D01*
X1704579Y201944D01*
X1704587Y201938D01*
X1704603Y201917D01*
X1707377Y199142D01*
X1707386Y199138D01*
X1707404Y199119D01*
X1710545Y196768D01*
X1710554Y196764D01*
X1710575Y196748D01*
X1714019Y194868D01*
X1714028Y194866D01*
X1714051Y194853D01*
X1717727Y193482D01*
X1717737Y193481D01*
X1717761Y193472D01*
X1721595Y192638D01*
X1721605Y192639D01*
X1721631Y192633D01*
X1725544Y192353D01*
X1725554Y192355D01*
X1725580Y192353D01*
X1729493Y192633D01*
G37*
G36*
X829165Y192633D02*
X829165Y192633D01*
X829174Y192636D01*
X829200Y192638D01*
X833034Y193472D01*
X833043Y193477D01*
X833068Y193482D01*
X836745Y194853D01*
X836752Y194859D01*
X836777Y194868D01*
X840221Y196748D01*
X840227Y196755D01*
X840251Y196768D01*
X843392Y199119D01*
X843397Y199127D01*
X843419Y199142D01*
X846193Y201917D01*
X846198Y201925D01*
X846216Y201944D01*
X848568Y205085D01*
X848571Y205094D01*
X848587Y205115D01*
X850467Y208558D01*
X850469Y208568D01*
X850482Y208591D01*
X851853Y212267D01*
X851854Y212277D01*
X851863Y212301D01*
X852697Y216135D01*
X852697Y216145D01*
X852702Y216170D01*
X852982Y220084D01*
X852977Y220109D01*
X852981Y220135D01*
X852962Y220176D01*
X852953Y220220D01*
X852934Y220239D01*
X852924Y220263D01*
X852886Y220288D01*
X852854Y220320D01*
X852829Y220325D01*
X852807Y220340D01*
X852734Y220351D01*
X842734Y220351D01*
X842727Y220349D01*
X842720Y220350D01*
X842660Y220329D01*
X842599Y220312D01*
X842595Y220306D01*
X842588Y220304D01*
X842549Y220254D01*
X842507Y220206D01*
X842506Y220199D01*
X842502Y220194D01*
X842485Y220121D01*
X842271Y217403D01*
X841639Y214771D01*
X840603Y212270D01*
X839189Y209962D01*
X837431Y207904D01*
X835373Y206146D01*
X833065Y204732D01*
X830564Y203696D01*
X827932Y203064D01*
X825234Y202852D01*
X822535Y203064D01*
X819903Y203696D01*
X817402Y204732D01*
X815094Y206146D01*
X813036Y207904D01*
X812982Y207967D01*
X812557Y208465D01*
X812556Y208466D01*
X812344Y208715D01*
X812131Y208964D01*
X811918Y209213D01*
X811492Y209712D01*
X811279Y209961D01*
X811278Y209962D01*
X809864Y212270D01*
X808828Y214771D01*
X808196Y217403D01*
X807982Y220121D01*
X807980Y220128D01*
X807981Y220135D01*
X807955Y220193D01*
X807932Y220252D01*
X807927Y220256D01*
X807924Y220263D01*
X807871Y220298D01*
X807820Y220335D01*
X807813Y220336D01*
X807807Y220340D01*
X807734Y220351D01*
X797734Y220351D01*
X797709Y220344D01*
X797683Y220346D01*
X797643Y220324D01*
X797599Y220312D01*
X797582Y220292D01*
X797559Y220280D01*
X797537Y220240D01*
X797507Y220206D01*
X797504Y220181D01*
X797491Y220158D01*
X797485Y220084D01*
X797765Y216170D01*
X797768Y216161D01*
X797770Y216135D01*
X798604Y212301D01*
X798609Y212292D01*
X798614Y212267D01*
X799985Y208591D01*
X799991Y208583D01*
X800000Y208558D01*
X801880Y205115D01*
X801887Y205108D01*
X801900Y205085D01*
X804251Y201944D01*
X804259Y201938D01*
X804274Y201917D01*
X807049Y199142D01*
X807057Y199138D01*
X807076Y199119D01*
X810217Y196768D01*
X810226Y196764D01*
X810247Y196748D01*
X813690Y194868D01*
X813700Y194866D01*
X813723Y194853D01*
X817399Y193482D01*
X817409Y193481D01*
X817433Y193472D01*
X821267Y192638D01*
X821277Y192639D01*
X821302Y192633D01*
X825216Y192353D01*
X825225Y192355D01*
X825251Y192353D01*
X829165Y192633D01*
G37*
G36*
X153931Y192633D02*
X153931Y192633D01*
X153941Y192636D01*
X153967Y192638D01*
X157801Y193472D01*
X157809Y193477D01*
X157835Y193482D01*
X161511Y194853D01*
X161519Y194859D01*
X161543Y194868D01*
X164987Y196748D01*
X164994Y196755D01*
X165017Y196768D01*
X168158Y199119D01*
X168164Y199127D01*
X168185Y199142D01*
X170959Y201917D01*
X170964Y201925D01*
X170983Y201944D01*
X173334Y205085D01*
X173337Y205094D01*
X173353Y205115D01*
X175234Y208558D01*
X175236Y208568D01*
X175248Y208591D01*
X176620Y212267D01*
X176620Y212277D01*
X176630Y212301D01*
X177464Y216135D01*
X177463Y216145D01*
X177469Y216170D01*
X177749Y220084D01*
X177743Y220109D01*
X177747Y220135D01*
X177729Y220176D01*
X177719Y220220D01*
X177701Y220239D01*
X177690Y220263D01*
X177652Y220288D01*
X177621Y220320D01*
X177595Y220325D01*
X177574Y220340D01*
X177500Y220351D01*
X167500Y220351D01*
X167493Y220349D01*
X167486Y220350D01*
X167427Y220329D01*
X167366Y220312D01*
X167361Y220306D01*
X167354Y220304D01*
X167316Y220254D01*
X167274Y220206D01*
X167273Y220199D01*
X167268Y220194D01*
X167252Y220121D01*
X167038Y217403D01*
X166406Y214771D01*
X165370Y212270D01*
X163956Y209962D01*
X162198Y207904D01*
X160139Y206146D01*
X157831Y204732D01*
X155331Y203696D01*
X152698Y203064D01*
X150000Y202852D01*
X147302Y203064D01*
X144669Y203696D01*
X142169Y204732D01*
X139861Y206146D01*
X137802Y207904D01*
X137749Y207967D01*
X137323Y208465D01*
X137323Y208466D01*
X137110Y208715D01*
X136897Y208964D01*
X136684Y209213D01*
X136259Y209712D01*
X136258Y209712D01*
X136046Y209961D01*
X136044Y209962D01*
X134630Y212270D01*
X133594Y214771D01*
X132962Y217403D01*
X132748Y220121D01*
X132746Y220128D01*
X132747Y220135D01*
X132721Y220193D01*
X132699Y220252D01*
X132693Y220256D01*
X132690Y220263D01*
X132637Y220298D01*
X132587Y220335D01*
X132580Y220336D01*
X132574Y220340D01*
X132500Y220351D01*
X122500Y220351D01*
X122475Y220344D01*
X122449Y220346D01*
X122409Y220324D01*
X122366Y220312D01*
X122349Y220292D01*
X122326Y220280D01*
X122304Y220240D01*
X122274Y220206D01*
X122270Y220181D01*
X122257Y220158D01*
X122251Y220084D01*
X122531Y216170D01*
X122535Y216161D01*
X122536Y216135D01*
X123370Y212301D01*
X123375Y212292D01*
X123380Y212267D01*
X124752Y208591D01*
X124757Y208583D01*
X124766Y208558D01*
X126647Y205115D01*
X126654Y205108D01*
X126666Y205085D01*
X129017Y201944D01*
X129025Y201938D01*
X129041Y201917D01*
X131815Y199142D01*
X131824Y199138D01*
X131842Y199119D01*
X134983Y196768D01*
X134992Y196764D01*
X135013Y196748D01*
X138457Y194868D01*
X138466Y194866D01*
X138489Y194853D01*
X142165Y193482D01*
X142175Y193481D01*
X142199Y193472D01*
X146033Y192638D01*
X146043Y192639D01*
X146069Y192633D01*
X149982Y192353D01*
X149992Y192355D01*
X150018Y192353D01*
X153931Y192633D01*
G37*
G36*
X1279329Y192633D02*
X1279329Y192633D01*
X1279338Y192636D01*
X1279364Y192638D01*
X1283198Y193472D01*
X1283207Y193477D01*
X1283233Y193482D01*
X1286909Y194853D01*
X1286917Y194859D01*
X1286941Y194868D01*
X1290385Y196748D01*
X1290392Y196755D01*
X1290415Y196768D01*
X1293556Y199119D01*
X1293562Y199127D01*
X1293583Y199142D01*
X1296357Y201917D01*
X1296362Y201925D01*
X1296380Y201944D01*
X1298732Y205085D01*
X1298735Y205094D01*
X1298751Y205115D01*
X1300631Y208558D01*
X1300634Y208568D01*
X1300646Y208591D01*
X1302017Y212267D01*
X1302018Y212277D01*
X1302027Y212301D01*
X1302861Y216135D01*
X1302861Y216145D01*
X1302867Y216170D01*
X1303146Y220084D01*
X1303141Y220109D01*
X1303145Y220135D01*
X1303126Y220176D01*
X1303117Y220220D01*
X1303099Y220239D01*
X1303088Y220263D01*
X1303050Y220288D01*
X1303018Y220320D01*
X1302993Y220325D01*
X1302971Y220340D01*
X1302898Y220351D01*
X1292898Y220351D01*
X1292891Y220349D01*
X1292884Y220350D01*
X1292825Y220329D01*
X1292764Y220312D01*
X1292759Y220306D01*
X1292752Y220304D01*
X1292713Y220254D01*
X1292672Y220206D01*
X1292671Y220199D01*
X1292666Y220194D01*
X1292649Y220121D01*
X1292435Y217403D01*
X1291804Y214771D01*
X1290768Y212270D01*
X1289353Y209962D01*
X1287595Y207904D01*
X1285537Y206146D01*
X1283229Y204732D01*
X1280728Y203696D01*
X1278096Y203064D01*
X1275398Y202852D01*
X1272699Y203064D01*
X1270067Y203696D01*
X1267566Y204732D01*
X1265259Y206146D01*
X1263200Y207904D01*
X1263147Y207967D01*
X1263146Y207967D01*
X1262721Y208465D01*
X1262721Y208466D01*
X1262508Y208715D01*
X1262295Y208964D01*
X1262082Y209213D01*
X1261656Y209712D01*
X1261443Y209961D01*
X1261442Y209962D01*
X1260028Y212270D01*
X1258992Y214771D01*
X1258360Y217403D01*
X1258146Y220121D01*
X1258144Y220128D01*
X1258145Y220135D01*
X1258119Y220193D01*
X1258097Y220252D01*
X1258091Y220256D01*
X1258088Y220263D01*
X1258035Y220298D01*
X1257985Y220335D01*
X1257977Y220336D01*
X1257971Y220340D01*
X1257898Y220351D01*
X1247898Y220351D01*
X1247873Y220344D01*
X1247847Y220346D01*
X1247807Y220324D01*
X1247764Y220312D01*
X1247746Y220292D01*
X1247724Y220280D01*
X1247701Y220240D01*
X1247672Y220206D01*
X1247668Y220181D01*
X1247655Y220158D01*
X1247649Y220084D01*
X1247929Y216170D01*
X1247932Y216161D01*
X1247934Y216135D01*
X1248768Y212301D01*
X1248773Y212292D01*
X1248778Y212267D01*
X1250149Y208591D01*
X1250155Y208583D01*
X1250164Y208558D01*
X1252045Y205115D01*
X1252051Y205108D01*
X1252064Y205085D01*
X1254415Y201944D01*
X1254423Y201938D01*
X1254438Y201917D01*
X1257213Y199142D01*
X1257221Y199138D01*
X1257240Y199119D01*
X1260381Y196768D01*
X1260390Y196764D01*
X1260411Y196748D01*
X1263854Y194868D01*
X1263864Y194866D01*
X1263887Y194853D01*
X1267563Y193482D01*
X1267573Y193481D01*
X1267597Y193472D01*
X1271431Y192638D01*
X1271441Y192639D01*
X1271466Y192633D01*
X1275380Y192353D01*
X1275390Y192355D01*
X1275416Y192353D01*
X1279329Y192633D01*
G37*
G36*
X604096Y192633D02*
X604096Y192633D01*
X604105Y192636D01*
X604131Y192638D01*
X607965Y193472D01*
X607973Y193477D01*
X607999Y193482D01*
X611675Y194853D01*
X611683Y194859D01*
X611708Y194868D01*
X615151Y196748D01*
X615158Y196755D01*
X615181Y196768D01*
X618322Y199119D01*
X618328Y199127D01*
X618349Y199142D01*
X621124Y201917D01*
X621128Y201925D01*
X621147Y201944D01*
X623498Y205085D01*
X623502Y205094D01*
X623517Y205115D01*
X625398Y208558D01*
X625400Y208568D01*
X625413Y208591D01*
X626784Y212267D01*
X626784Y212277D01*
X626794Y212301D01*
X627628Y216135D01*
X627627Y216145D01*
X627633Y216170D01*
X627913Y220084D01*
X627907Y220109D01*
X627911Y220135D01*
X627893Y220176D01*
X627883Y220220D01*
X627865Y220239D01*
X627854Y220263D01*
X627817Y220288D01*
X627785Y220320D01*
X627759Y220325D01*
X627738Y220340D01*
X627664Y220351D01*
X617664Y220351D01*
X617657Y220349D01*
X617650Y220350D01*
X617591Y220329D01*
X617530Y220312D01*
X617525Y220306D01*
X617518Y220304D01*
X617480Y220254D01*
X617438Y220206D01*
X617437Y220199D01*
X617433Y220194D01*
X617416Y220121D01*
X617202Y217403D01*
X616570Y214771D01*
X615534Y212270D01*
X614120Y209962D01*
X612362Y207904D01*
X610304Y206146D01*
X607996Y204732D01*
X605495Y203696D01*
X602863Y203064D01*
X600164Y202852D01*
X597466Y203064D01*
X594834Y203696D01*
X592333Y204732D01*
X590025Y206146D01*
X587967Y207904D01*
X587913Y207967D01*
X587487Y208465D01*
X587487Y208466D01*
X587274Y208715D01*
X587061Y208964D01*
X586848Y209213D01*
X586423Y209712D01*
X586210Y209961D01*
X586209Y209962D01*
X584794Y212270D01*
X583759Y214771D01*
X583127Y217403D01*
X582913Y220121D01*
X582910Y220128D01*
X582911Y220135D01*
X582885Y220193D01*
X582863Y220252D01*
X582857Y220256D01*
X582854Y220263D01*
X582802Y220298D01*
X582751Y220335D01*
X582744Y220336D01*
X582738Y220340D01*
X582664Y220351D01*
X572664Y220351D01*
X572639Y220344D01*
X572613Y220346D01*
X572573Y220324D01*
X572530Y220312D01*
X572513Y220292D01*
X572490Y220280D01*
X572468Y220240D01*
X572438Y220206D01*
X572434Y220181D01*
X572421Y220158D01*
X572416Y220084D01*
X572695Y216170D01*
X572699Y216161D01*
X572701Y216135D01*
X573535Y212301D01*
X573539Y212292D01*
X573545Y212267D01*
X574916Y208591D01*
X574922Y208583D01*
X574931Y208558D01*
X576811Y205115D01*
X576818Y205108D01*
X576830Y205085D01*
X579182Y201944D01*
X579189Y201938D01*
X579205Y201917D01*
X581979Y199142D01*
X581988Y199138D01*
X582006Y199119D01*
X585147Y196768D01*
X585156Y196764D01*
X585177Y196748D01*
X588621Y194868D01*
X588630Y194866D01*
X588653Y194853D01*
X592329Y193482D01*
X592339Y193481D01*
X592364Y193472D01*
X596198Y192638D01*
X596207Y192639D01*
X596233Y192633D01*
X600146Y192353D01*
X600156Y192355D01*
X600182Y192353D01*
X604096Y192633D01*
G37*
G36*
X1504424Y192633D02*
X1504424Y192633D01*
X1504433Y192636D01*
X1504459Y192638D01*
X1508293Y193472D01*
X1508302Y193477D01*
X1508327Y193482D01*
X1512004Y194853D01*
X1512011Y194859D01*
X1512036Y194868D01*
X1515480Y196748D01*
X1515486Y196755D01*
X1515510Y196768D01*
X1518651Y199119D01*
X1518656Y199127D01*
X1518678Y199142D01*
X1521452Y201917D01*
X1521457Y201925D01*
X1521475Y201944D01*
X1523827Y205085D01*
X1523830Y205094D01*
X1523846Y205115D01*
X1525726Y208558D01*
X1525728Y208568D01*
X1525741Y208591D01*
X1527112Y212267D01*
X1527113Y212277D01*
X1527122Y212301D01*
X1527956Y216135D01*
X1527956Y216145D01*
X1527961Y216170D01*
X1528241Y220084D01*
X1528236Y220109D01*
X1528240Y220135D01*
X1528221Y220176D01*
X1528212Y220220D01*
X1528193Y220239D01*
X1528183Y220263D01*
X1528145Y220288D01*
X1528113Y220320D01*
X1528088Y220325D01*
X1528066Y220340D01*
X1527993Y220351D01*
X1517993Y220351D01*
X1517986Y220349D01*
X1517979Y220350D01*
X1517919Y220329D01*
X1517858Y220312D01*
X1517854Y220306D01*
X1517847Y220304D01*
X1517808Y220254D01*
X1517766Y220206D01*
X1517765Y220199D01*
X1517761Y220194D01*
X1517744Y220121D01*
X1517530Y217403D01*
X1516898Y214771D01*
X1515862Y212270D01*
X1514448Y209962D01*
X1512690Y207904D01*
X1510632Y206146D01*
X1508324Y204732D01*
X1505823Y203696D01*
X1503191Y203064D01*
X1500493Y202852D01*
X1497794Y203064D01*
X1495162Y203696D01*
X1492661Y204732D01*
X1490353Y206146D01*
X1488295Y207904D01*
X1488241Y207967D01*
X1487816Y208465D01*
X1487815Y208466D01*
X1487603Y208715D01*
X1487390Y208964D01*
X1487177Y209213D01*
X1486751Y209712D01*
X1486538Y209961D01*
X1486537Y209962D01*
X1485123Y212270D01*
X1484087Y214771D01*
X1483455Y217403D01*
X1483241Y220121D01*
X1483239Y220128D01*
X1483240Y220135D01*
X1483214Y220193D01*
X1483191Y220252D01*
X1483186Y220256D01*
X1483183Y220263D01*
X1483130Y220298D01*
X1483079Y220335D01*
X1483072Y220336D01*
X1483066Y220340D01*
X1482993Y220351D01*
X1472993Y220351D01*
X1472968Y220344D01*
X1472942Y220346D01*
X1472902Y220324D01*
X1472858Y220312D01*
X1472841Y220292D01*
X1472818Y220280D01*
X1472796Y220240D01*
X1472766Y220206D01*
X1472763Y220181D01*
X1472750Y220158D01*
X1472744Y220084D01*
X1473024Y216170D01*
X1473027Y216161D01*
X1473029Y216135D01*
X1473863Y212301D01*
X1473868Y212292D01*
X1473873Y212267D01*
X1475244Y208591D01*
X1475250Y208583D01*
X1475259Y208558D01*
X1477139Y205115D01*
X1477146Y205108D01*
X1477159Y205085D01*
X1479510Y201944D01*
X1479518Y201938D01*
X1479533Y201917D01*
X1482308Y199142D01*
X1482316Y199138D01*
X1482335Y199119D01*
X1485476Y196768D01*
X1485485Y196764D01*
X1485506Y196748D01*
X1488949Y194868D01*
X1488959Y194866D01*
X1488982Y194853D01*
X1492658Y193482D01*
X1492668Y193481D01*
X1492692Y193472D01*
X1496526Y192638D01*
X1496536Y192639D01*
X1496561Y192633D01*
X1500475Y192353D01*
X1500484Y192355D01*
X1500510Y192353D01*
X1504424Y192633D01*
G37*
G36*
X379001Y192633D02*
X379001Y192633D01*
X379010Y192636D01*
X379036Y192638D01*
X382870Y193472D01*
X382879Y193477D01*
X382904Y193482D01*
X386580Y194853D01*
X386588Y194859D01*
X386613Y194868D01*
X390056Y196748D01*
X390063Y196755D01*
X390086Y196768D01*
X393227Y199119D01*
X393233Y199127D01*
X393254Y199142D01*
X396029Y201917D01*
X396033Y201925D01*
X396052Y201944D01*
X398403Y205085D01*
X398407Y205094D01*
X398423Y205115D01*
X400303Y208558D01*
X400305Y208568D01*
X400318Y208591D01*
X401689Y212267D01*
X401690Y212277D01*
X401699Y212301D01*
X402533Y216135D01*
X402532Y216145D01*
X402538Y216170D01*
X402818Y220084D01*
X402813Y220109D01*
X402816Y220135D01*
X402798Y220176D01*
X402789Y220220D01*
X402770Y220239D01*
X402760Y220263D01*
X402722Y220288D01*
X402690Y220320D01*
X402665Y220325D01*
X402643Y220340D01*
X402569Y220351D01*
X392569Y220351D01*
X392562Y220349D01*
X392555Y220350D01*
X392496Y220329D01*
X392435Y220312D01*
X392430Y220306D01*
X392424Y220304D01*
X392385Y220254D01*
X392343Y220206D01*
X392342Y220199D01*
X392338Y220194D01*
X392321Y220121D01*
X392107Y217403D01*
X391475Y214771D01*
X390439Y212270D01*
X389025Y209962D01*
X387267Y207904D01*
X385209Y206146D01*
X382901Y204732D01*
X380400Y203696D01*
X377768Y203064D01*
X375069Y202852D01*
X372371Y203064D01*
X369739Y203696D01*
X367238Y204732D01*
X364930Y206146D01*
X362872Y207904D01*
X362818Y207967D01*
X362392Y208465D01*
X362392Y208466D01*
X362179Y208715D01*
X361967Y208964D01*
X361966Y208964D01*
X361754Y209213D01*
X361328Y209712D01*
X361115Y209961D01*
X361114Y209962D01*
X359700Y212270D01*
X358664Y214771D01*
X358032Y217403D01*
X357818Y220121D01*
X357815Y220128D01*
X357816Y220135D01*
X357791Y220193D01*
X357768Y220252D01*
X357763Y220256D01*
X357760Y220263D01*
X357707Y220298D01*
X357656Y220335D01*
X357649Y220336D01*
X357643Y220340D01*
X357569Y220351D01*
X347569Y220351D01*
X347544Y220344D01*
X347518Y220346D01*
X347479Y220324D01*
X347435Y220312D01*
X347418Y220292D01*
X347395Y220280D01*
X347373Y220240D01*
X347343Y220206D01*
X347339Y220181D01*
X347327Y220158D01*
X347321Y220084D01*
X347601Y216170D01*
X347604Y216161D01*
X347606Y216135D01*
X348440Y212301D01*
X348444Y212292D01*
X348450Y212267D01*
X349821Y208591D01*
X349827Y208583D01*
X349836Y208558D01*
X351716Y205115D01*
X351723Y205108D01*
X351735Y205085D01*
X354087Y201944D01*
X354095Y201938D01*
X354110Y201917D01*
X356885Y199142D01*
X356893Y199138D01*
X356911Y199119D01*
X360052Y196768D01*
X360062Y196764D01*
X360082Y196748D01*
X363526Y194868D01*
X363535Y194866D01*
X363558Y194853D01*
X367235Y193482D01*
X367244Y193481D01*
X367269Y193472D01*
X371103Y192638D01*
X371112Y192639D01*
X371138Y192633D01*
X375052Y192353D01*
X375061Y192355D01*
X375087Y192353D01*
X379001Y192633D01*
G37*
G36*
X1054260Y192633D02*
X1054260Y192633D01*
X1054269Y192636D01*
X1054295Y192638D01*
X1058129Y193472D01*
X1058138Y193477D01*
X1058163Y193482D01*
X1061839Y194853D01*
X1061847Y194859D01*
X1061872Y194868D01*
X1065315Y196748D01*
X1065322Y196755D01*
X1065345Y196768D01*
X1068486Y199119D01*
X1068492Y199127D01*
X1068513Y199142D01*
X1071288Y201917D01*
X1071292Y201925D01*
X1071311Y201944D01*
X1073662Y205085D01*
X1073666Y205094D01*
X1073682Y205115D01*
X1075562Y208558D01*
X1075564Y208568D01*
X1075577Y208591D01*
X1076948Y212267D01*
X1076949Y212277D01*
X1076958Y212301D01*
X1077792Y216135D01*
X1077791Y216145D01*
X1077797Y216170D01*
X1078077Y220084D01*
X1078072Y220109D01*
X1078075Y220135D01*
X1078057Y220176D01*
X1078048Y220220D01*
X1078029Y220239D01*
X1078019Y220263D01*
X1077981Y220288D01*
X1077949Y220320D01*
X1077924Y220325D01*
X1077902Y220340D01*
X1077828Y220351D01*
X1067828Y220351D01*
X1067821Y220349D01*
X1067814Y220350D01*
X1067755Y220329D01*
X1067694Y220312D01*
X1067689Y220306D01*
X1067683Y220304D01*
X1067644Y220254D01*
X1067602Y220206D01*
X1067601Y220199D01*
X1067597Y220194D01*
X1067580Y220121D01*
X1067366Y217403D01*
X1066734Y214771D01*
X1065698Y212270D01*
X1064284Y209962D01*
X1062526Y207904D01*
X1060468Y206146D01*
X1058160Y204732D01*
X1055659Y203696D01*
X1053027Y203064D01*
X1050328Y202852D01*
X1047630Y203064D01*
X1044998Y203696D01*
X1042497Y204732D01*
X1040189Y206146D01*
X1038131Y207904D01*
X1038077Y207967D01*
X1037651Y208465D01*
X1037651Y208466D01*
X1037438Y208715D01*
X1037226Y208964D01*
X1037225Y208964D01*
X1037013Y209213D01*
X1036587Y209712D01*
X1036374Y209961D01*
X1036373Y209962D01*
X1034959Y212270D01*
X1033923Y214771D01*
X1033291Y217403D01*
X1033077Y220121D01*
X1033074Y220128D01*
X1033075Y220135D01*
X1033050Y220193D01*
X1033027Y220252D01*
X1033022Y220256D01*
X1033019Y220263D01*
X1032966Y220298D01*
X1032915Y220335D01*
X1032908Y220336D01*
X1032902Y220340D01*
X1032828Y220351D01*
X1022828Y220351D01*
X1022803Y220344D01*
X1022777Y220346D01*
X1022738Y220324D01*
X1022694Y220312D01*
X1022677Y220292D01*
X1022654Y220280D01*
X1022632Y220240D01*
X1022602Y220206D01*
X1022598Y220181D01*
X1022586Y220158D01*
X1022580Y220084D01*
X1022860Y216170D01*
X1022863Y216161D01*
X1022865Y216135D01*
X1023699Y212301D01*
X1023703Y212292D01*
X1023709Y212267D01*
X1025080Y208591D01*
X1025086Y208583D01*
X1025095Y208558D01*
X1026975Y205115D01*
X1026982Y205108D01*
X1026994Y205085D01*
X1029346Y201944D01*
X1029354Y201938D01*
X1029369Y201917D01*
X1032144Y199142D01*
X1032152Y199138D01*
X1032170Y199119D01*
X1035311Y196768D01*
X1035321Y196764D01*
X1035341Y196748D01*
X1038785Y194868D01*
X1038794Y194866D01*
X1038817Y194853D01*
X1042494Y193482D01*
X1042503Y193481D01*
X1042528Y193472D01*
X1046362Y192638D01*
X1046371Y192639D01*
X1046397Y192633D01*
X1050311Y192353D01*
X1050320Y192355D01*
X1050346Y192353D01*
X1054260Y192633D01*
G37*
G36*
X1628058Y478151D02*
X1628058Y478151D01*
X1628065Y478150D01*
X1628125Y478171D01*
X1628186Y478188D01*
X1628190Y478194D01*
X1628197Y478196D01*
X1628236Y478246D01*
X1628278Y478294D01*
X1628279Y478301D01*
X1628283Y478306D01*
X1628300Y478379D01*
X1628514Y481097D01*
X1629146Y483729D01*
X1630182Y486230D01*
X1631596Y488538D01*
X1633354Y490596D01*
X1635412Y492354D01*
X1637720Y493768D01*
X1640221Y494804D01*
X1642853Y495436D01*
X1645551Y495648D01*
X1648250Y495436D01*
X1650882Y494804D01*
X1653383Y493768D01*
X1655691Y492354D01*
X1657749Y490596D01*
X1657873Y490451D01*
X1657873Y490450D01*
X1658086Y490201D01*
X1658512Y489703D01*
X1658725Y489454D01*
X1658725Y489453D01*
X1658938Y489204D01*
X1659150Y488955D01*
X1659151Y488955D01*
X1659363Y488706D01*
X1659507Y488538D01*
X1660921Y486230D01*
X1661957Y483729D01*
X1662589Y481097D01*
X1662803Y478379D01*
X1662806Y478372D01*
X1662804Y478365D01*
X1662830Y478307D01*
X1662853Y478248D01*
X1662858Y478244D01*
X1662861Y478237D01*
X1662914Y478202D01*
X1662965Y478165D01*
X1662972Y478164D01*
X1662978Y478160D01*
X1663051Y478149D01*
X1673051Y478149D01*
X1673076Y478156D01*
X1673102Y478154D01*
X1673142Y478176D01*
X1673186Y478188D01*
X1673203Y478208D01*
X1673226Y478220D01*
X1673248Y478260D01*
X1673278Y478294D01*
X1673281Y478319D01*
X1673294Y478342D01*
X1673300Y478416D01*
X1673020Y482330D01*
X1673017Y482339D01*
X1673015Y482365D01*
X1672181Y486199D01*
X1672176Y486208D01*
X1672171Y486233D01*
X1670800Y489909D01*
X1670794Y489917D01*
X1670785Y489942D01*
X1668905Y493385D01*
X1668898Y493392D01*
X1668885Y493415D01*
X1666534Y496556D01*
X1666526Y496562D01*
X1666511Y496583D01*
X1663736Y499358D01*
X1663728Y499362D01*
X1663709Y499381D01*
X1660568Y501732D01*
X1660559Y501736D01*
X1660538Y501752D01*
X1657095Y503632D01*
X1657085Y503634D01*
X1657062Y503647D01*
X1653386Y505018D01*
X1653377Y505019D01*
X1653352Y505028D01*
X1649518Y505862D01*
X1649508Y505861D01*
X1649483Y505867D01*
X1645569Y506147D01*
X1645560Y506145D01*
X1645534Y506147D01*
X1641620Y505867D01*
X1641611Y505864D01*
X1641585Y505862D01*
X1637751Y505028D01*
X1637742Y505023D01*
X1637717Y505018D01*
X1634040Y503647D01*
X1634033Y503641D01*
X1634008Y503632D01*
X1630564Y501752D01*
X1630558Y501745D01*
X1630534Y501732D01*
X1627393Y499381D01*
X1627388Y499373D01*
X1627367Y499358D01*
X1624592Y496583D01*
X1624587Y496575D01*
X1624569Y496556D01*
X1622217Y493415D01*
X1622214Y493406D01*
X1622198Y493385D01*
X1620318Y489942D01*
X1620316Y489932D01*
X1620303Y489909D01*
X1618932Y486233D01*
X1618931Y486224D01*
X1618922Y486199D01*
X1618088Y482365D01*
X1618088Y482355D01*
X1618083Y482330D01*
X1617803Y478416D01*
X1617808Y478391D01*
X1617804Y478365D01*
X1617823Y478324D01*
X1617832Y478280D01*
X1617851Y478261D01*
X1617861Y478237D01*
X1617899Y478212D01*
X1617931Y478180D01*
X1617956Y478175D01*
X1617978Y478160D01*
X1618051Y478149D01*
X1628051Y478149D01*
X1628058Y478151D01*
G37*
G36*
X1402989Y478151D02*
X1402989Y478151D01*
X1402996Y478150D01*
X1403055Y478171D01*
X1403116Y478188D01*
X1403121Y478194D01*
X1403128Y478196D01*
X1403167Y478246D01*
X1403208Y478294D01*
X1403209Y478301D01*
X1403214Y478306D01*
X1403230Y478379D01*
X1403444Y481097D01*
X1404076Y483729D01*
X1405112Y486230D01*
X1406526Y488538D01*
X1408284Y490596D01*
X1410343Y492354D01*
X1412651Y493768D01*
X1415151Y494804D01*
X1417784Y495436D01*
X1420482Y495648D01*
X1423180Y495436D01*
X1425813Y494804D01*
X1428313Y493768D01*
X1430621Y492354D01*
X1432680Y490596D01*
X1432804Y490451D01*
X1432804Y490450D01*
X1433017Y490201D01*
X1433442Y489703D01*
X1433443Y489703D01*
X1433655Y489454D01*
X1433655Y489453D01*
X1433868Y489204D01*
X1434081Y488955D01*
X1434294Y488706D01*
X1434438Y488538D01*
X1435852Y486230D01*
X1436888Y483729D01*
X1437520Y481097D01*
X1437734Y478379D01*
X1437736Y478372D01*
X1437735Y478365D01*
X1437761Y478307D01*
X1437783Y478248D01*
X1437789Y478244D01*
X1437792Y478237D01*
X1437845Y478202D01*
X1437895Y478165D01*
X1437903Y478164D01*
X1437909Y478160D01*
X1437982Y478149D01*
X1447982Y478149D01*
X1448007Y478156D01*
X1448033Y478154D01*
X1448073Y478176D01*
X1448116Y478188D01*
X1448133Y478208D01*
X1448156Y478220D01*
X1448178Y478260D01*
X1448208Y478294D01*
X1448212Y478319D01*
X1448225Y478342D01*
X1448231Y478416D01*
X1447951Y482330D01*
X1447947Y482339D01*
X1447946Y482365D01*
X1447112Y486199D01*
X1447107Y486208D01*
X1447102Y486233D01*
X1445730Y489909D01*
X1445725Y489917D01*
X1445716Y489942D01*
X1443835Y493385D01*
X1443828Y493392D01*
X1443816Y493415D01*
X1441465Y496556D01*
X1441457Y496562D01*
X1441441Y496583D01*
X1438667Y499358D01*
X1438658Y499362D01*
X1438640Y499381D01*
X1435499Y501732D01*
X1435490Y501736D01*
X1435469Y501752D01*
X1432025Y503632D01*
X1432016Y503634D01*
X1431993Y503647D01*
X1428317Y505018D01*
X1428307Y505019D01*
X1428283Y505028D01*
X1424449Y505862D01*
X1424439Y505861D01*
X1424413Y505867D01*
X1420500Y506147D01*
X1420490Y506145D01*
X1420464Y506147D01*
X1416551Y505867D01*
X1416541Y505864D01*
X1416515Y505862D01*
X1412681Y505028D01*
X1412673Y505023D01*
X1412647Y505018D01*
X1408971Y503647D01*
X1408963Y503641D01*
X1408939Y503632D01*
X1405495Y501752D01*
X1405488Y501745D01*
X1405465Y501732D01*
X1402324Y499381D01*
X1402318Y499373D01*
X1402297Y499358D01*
X1399523Y496583D01*
X1399518Y496575D01*
X1399499Y496556D01*
X1397148Y493415D01*
X1397145Y493406D01*
X1397129Y493385D01*
X1395248Y489942D01*
X1395246Y489932D01*
X1395234Y489909D01*
X1393862Y486233D01*
X1393862Y486224D01*
X1393852Y486199D01*
X1393018Y482365D01*
X1393019Y482355D01*
X1393013Y482330D01*
X1392733Y478416D01*
X1392739Y478391D01*
X1392735Y478365D01*
X1392753Y478324D01*
X1392763Y478280D01*
X1392781Y478261D01*
X1392792Y478237D01*
X1392830Y478212D01*
X1392861Y478180D01*
X1392887Y478175D01*
X1392909Y478160D01*
X1392982Y478149D01*
X1402982Y478149D01*
X1402989Y478151D01*
G37*
G36*
X502661Y478151D02*
X502661Y478151D01*
X502668Y478150D01*
X502727Y478171D01*
X502788Y478188D01*
X502793Y478194D01*
X502799Y478196D01*
X502838Y478246D01*
X502880Y478294D01*
X502881Y478301D01*
X502885Y478306D01*
X502902Y478379D01*
X503116Y481097D01*
X503748Y483729D01*
X504784Y486230D01*
X506198Y488538D01*
X507956Y490596D01*
X510014Y492354D01*
X512322Y493768D01*
X514823Y494804D01*
X517455Y495436D01*
X520154Y495648D01*
X522852Y495436D01*
X525484Y494804D01*
X527985Y493768D01*
X530293Y492354D01*
X532351Y490596D01*
X532475Y490451D01*
X532475Y490450D01*
X532688Y490201D01*
X533114Y489703D01*
X533327Y489454D01*
X533327Y489453D01*
X533540Y489204D01*
X533753Y488955D01*
X533966Y488706D01*
X534109Y488538D01*
X535523Y486230D01*
X536559Y483729D01*
X537191Y481097D01*
X537405Y478379D01*
X537408Y478372D01*
X537407Y478365D01*
X537432Y478307D01*
X537455Y478248D01*
X537461Y478244D01*
X537463Y478237D01*
X537516Y478202D01*
X537567Y478165D01*
X537574Y478164D01*
X537580Y478160D01*
X537654Y478149D01*
X547654Y478149D01*
X547679Y478156D01*
X547705Y478154D01*
X547744Y478176D01*
X547788Y478188D01*
X547805Y478208D01*
X547828Y478220D01*
X547850Y478260D01*
X547880Y478294D01*
X547884Y478319D01*
X547896Y478342D01*
X547902Y478416D01*
X547622Y482330D01*
X547619Y482339D01*
X547617Y482365D01*
X546783Y486199D01*
X546779Y486208D01*
X546773Y486233D01*
X545402Y489909D01*
X545396Y489917D01*
X545387Y489942D01*
X543507Y493385D01*
X543500Y493392D01*
X543488Y493415D01*
X541136Y496556D01*
X541129Y496562D01*
X541113Y496583D01*
X538339Y499358D01*
X538330Y499362D01*
X538312Y499381D01*
X535171Y501732D01*
X535162Y501736D01*
X535141Y501752D01*
X531697Y503632D01*
X531688Y503634D01*
X531665Y503647D01*
X527988Y505018D01*
X527979Y505019D01*
X527954Y505028D01*
X524120Y505862D01*
X524111Y505861D01*
X524085Y505867D01*
X520171Y506147D01*
X520162Y506145D01*
X520136Y506147D01*
X516222Y505867D01*
X516213Y505864D01*
X516187Y505862D01*
X512353Y505028D01*
X512344Y505023D01*
X512319Y505018D01*
X508643Y503647D01*
X508635Y503641D01*
X508610Y503632D01*
X505167Y501752D01*
X505160Y501745D01*
X505137Y501732D01*
X501996Y499381D01*
X501990Y499373D01*
X501969Y499358D01*
X499194Y496583D01*
X499190Y496575D01*
X499171Y496556D01*
X496820Y493415D01*
X496816Y493406D01*
X496800Y493385D01*
X494920Y489942D01*
X494918Y489932D01*
X494905Y489909D01*
X493534Y486233D01*
X493533Y486224D01*
X493524Y486199D01*
X492690Y482365D01*
X492691Y482355D01*
X492685Y482330D01*
X492405Y478416D01*
X492410Y478391D01*
X492407Y478365D01*
X492425Y478324D01*
X492435Y478280D01*
X492453Y478261D01*
X492463Y478237D01*
X492501Y478212D01*
X492533Y478180D01*
X492558Y478175D01*
X492580Y478160D01*
X492654Y478149D01*
X502654Y478149D01*
X502661Y478151D01*
G37*
G36*
X52496Y478151D02*
X52496Y478151D01*
X52503Y478150D01*
X52563Y478171D01*
X52624Y478188D01*
X52628Y478194D01*
X52635Y478196D01*
X52674Y478246D01*
X52716Y478294D01*
X52717Y478301D01*
X52721Y478306D01*
X52738Y478379D01*
X52952Y481097D01*
X53584Y483729D01*
X54620Y486230D01*
X56034Y488538D01*
X57792Y490596D01*
X59850Y492354D01*
X62158Y493768D01*
X64659Y494804D01*
X67291Y495436D01*
X69989Y495648D01*
X72688Y495436D01*
X75320Y494804D01*
X77821Y493768D01*
X80129Y492354D01*
X82187Y490596D01*
X82311Y490451D01*
X82311Y490450D01*
X82524Y490201D01*
X82950Y489703D01*
X83163Y489454D01*
X83163Y489453D01*
X83376Y489204D01*
X83588Y488955D01*
X83589Y488955D01*
X83801Y488706D01*
X83945Y488538D01*
X85359Y486230D01*
X86395Y483729D01*
X87027Y481097D01*
X87241Y478379D01*
X87244Y478372D01*
X87242Y478365D01*
X87268Y478307D01*
X87291Y478248D01*
X87296Y478244D01*
X87299Y478237D01*
X87352Y478202D01*
X87403Y478165D01*
X87410Y478164D01*
X87416Y478160D01*
X87489Y478149D01*
X97489Y478149D01*
X97514Y478156D01*
X97540Y478154D01*
X97580Y478176D01*
X97624Y478188D01*
X97641Y478208D01*
X97664Y478220D01*
X97686Y478260D01*
X97716Y478294D01*
X97719Y478319D01*
X97732Y478342D01*
X97738Y478416D01*
X97458Y482330D01*
X97455Y482339D01*
X97453Y482365D01*
X96619Y486199D01*
X96614Y486208D01*
X96609Y486233D01*
X95238Y489909D01*
X95232Y489917D01*
X95223Y489942D01*
X93343Y493385D01*
X93336Y493392D01*
X93323Y493415D01*
X90972Y496556D01*
X90964Y496562D01*
X90949Y496583D01*
X88174Y499358D01*
X88166Y499362D01*
X88147Y499381D01*
X85006Y501732D01*
X84997Y501736D01*
X84976Y501752D01*
X81533Y503632D01*
X81523Y503634D01*
X81500Y503647D01*
X77824Y505018D01*
X77815Y505019D01*
X77790Y505028D01*
X73956Y505862D01*
X73946Y505861D01*
X73921Y505867D01*
X70007Y506147D01*
X69998Y506145D01*
X69972Y506147D01*
X66058Y505867D01*
X66049Y505864D01*
X66023Y505862D01*
X62189Y505028D01*
X62180Y505023D01*
X62155Y505018D01*
X58478Y503647D01*
X58471Y503641D01*
X58446Y503632D01*
X55002Y501752D01*
X54996Y501745D01*
X54972Y501732D01*
X51831Y499381D01*
X51826Y499373D01*
X51805Y499358D01*
X49030Y496583D01*
X49025Y496575D01*
X49007Y496556D01*
X46655Y493415D01*
X46652Y493406D01*
X46636Y493385D01*
X44756Y489942D01*
X44754Y489932D01*
X44741Y489909D01*
X43370Y486233D01*
X43369Y486224D01*
X43360Y486199D01*
X42526Y482365D01*
X42526Y482355D01*
X42521Y482330D01*
X42241Y478416D01*
X42246Y478391D01*
X42242Y478365D01*
X42261Y478324D01*
X42270Y478280D01*
X42289Y478261D01*
X42299Y478237D01*
X42337Y478212D01*
X42369Y478180D01*
X42394Y478175D01*
X42416Y478160D01*
X42489Y478149D01*
X52489Y478149D01*
X52496Y478151D01*
G37*
G36*
X1177920Y478151D02*
X1177920Y478151D01*
X1177927Y478150D01*
X1177986Y478171D01*
X1178047Y478188D01*
X1178052Y478194D01*
X1178058Y478196D01*
X1178097Y478246D01*
X1178139Y478294D01*
X1178140Y478301D01*
X1178144Y478306D01*
X1178161Y478379D01*
X1178375Y481097D01*
X1179007Y483729D01*
X1180043Y486230D01*
X1181457Y488538D01*
X1183215Y490596D01*
X1185273Y492354D01*
X1187581Y493768D01*
X1190082Y494804D01*
X1192714Y495436D01*
X1195413Y495648D01*
X1198111Y495436D01*
X1200743Y494804D01*
X1203244Y493768D01*
X1205552Y492354D01*
X1207610Y490596D01*
X1207734Y490451D01*
X1207734Y490450D01*
X1207947Y490201D01*
X1208373Y489703D01*
X1208586Y489454D01*
X1208586Y489453D01*
X1208799Y489204D01*
X1209012Y488955D01*
X1209225Y488706D01*
X1209368Y488538D01*
X1210782Y486230D01*
X1211818Y483729D01*
X1212450Y481097D01*
X1212664Y478379D01*
X1212667Y478372D01*
X1212666Y478365D01*
X1212691Y478307D01*
X1212714Y478248D01*
X1212720Y478244D01*
X1212722Y478237D01*
X1212775Y478202D01*
X1212826Y478165D01*
X1212833Y478164D01*
X1212839Y478160D01*
X1212913Y478149D01*
X1222913Y478149D01*
X1222938Y478156D01*
X1222964Y478154D01*
X1223003Y478176D01*
X1223047Y478188D01*
X1223064Y478208D01*
X1223087Y478220D01*
X1223109Y478260D01*
X1223139Y478294D01*
X1223143Y478319D01*
X1223155Y478342D01*
X1223161Y478416D01*
X1222881Y482330D01*
X1222878Y482339D01*
X1222876Y482365D01*
X1222042Y486199D01*
X1222038Y486208D01*
X1222032Y486233D01*
X1220661Y489909D01*
X1220655Y489917D01*
X1220646Y489942D01*
X1218766Y493385D01*
X1218759Y493392D01*
X1218747Y493415D01*
X1216395Y496556D01*
X1216388Y496562D01*
X1216372Y496583D01*
X1213598Y499358D01*
X1213589Y499362D01*
X1213571Y499381D01*
X1210430Y501732D01*
X1210421Y501736D01*
X1210400Y501752D01*
X1206956Y503632D01*
X1206947Y503634D01*
X1206924Y503647D01*
X1203247Y505018D01*
X1203238Y505019D01*
X1203213Y505028D01*
X1199379Y505862D01*
X1199370Y505861D01*
X1199344Y505867D01*
X1195430Y506147D01*
X1195421Y506145D01*
X1195395Y506147D01*
X1191481Y505867D01*
X1191472Y505864D01*
X1191446Y505862D01*
X1187612Y505028D01*
X1187603Y505023D01*
X1187578Y505018D01*
X1183902Y503647D01*
X1183894Y503641D01*
X1183869Y503632D01*
X1180426Y501752D01*
X1180419Y501745D01*
X1180396Y501732D01*
X1177255Y499381D01*
X1177249Y499373D01*
X1177228Y499358D01*
X1174453Y496583D01*
X1174449Y496575D01*
X1174430Y496556D01*
X1172079Y493415D01*
X1172075Y493406D01*
X1172059Y493385D01*
X1170179Y489942D01*
X1170177Y489932D01*
X1170164Y489909D01*
X1168793Y486233D01*
X1168792Y486224D01*
X1168783Y486199D01*
X1167949Y482365D01*
X1167950Y482355D01*
X1167944Y482330D01*
X1167664Y478416D01*
X1167669Y478391D01*
X1167666Y478365D01*
X1167684Y478324D01*
X1167694Y478280D01*
X1167712Y478261D01*
X1167722Y478237D01*
X1167760Y478212D01*
X1167792Y478180D01*
X1167817Y478175D01*
X1167839Y478160D01*
X1167913Y478149D01*
X1177913Y478149D01*
X1177920Y478151D01*
G37*
G36*
X277591Y478151D02*
X277591Y478151D01*
X277598Y478150D01*
X277657Y478171D01*
X277718Y478188D01*
X277723Y478194D01*
X277730Y478196D01*
X277769Y478246D01*
X277810Y478294D01*
X277811Y478301D01*
X277816Y478306D01*
X277833Y478379D01*
X278047Y481097D01*
X278679Y483729D01*
X279714Y486230D01*
X281129Y488538D01*
X282887Y490596D01*
X284945Y492354D01*
X287253Y493768D01*
X289754Y494804D01*
X292386Y495436D01*
X295084Y495648D01*
X297783Y495436D01*
X300415Y494804D01*
X302916Y493768D01*
X305224Y492354D01*
X307282Y490596D01*
X307406Y490451D01*
X307406Y490450D01*
X307619Y490201D01*
X308045Y489703D01*
X308258Y489454D01*
X308258Y489453D01*
X308470Y489204D01*
X308683Y488955D01*
X308896Y488706D01*
X309040Y488538D01*
X310454Y486230D01*
X311490Y483729D01*
X312122Y481097D01*
X312336Y478379D01*
X312338Y478372D01*
X312337Y478365D01*
X312363Y478307D01*
X312385Y478248D01*
X312391Y478244D01*
X312394Y478237D01*
X312447Y478202D01*
X312497Y478165D01*
X312505Y478164D01*
X312511Y478160D01*
X312584Y478149D01*
X322584Y478149D01*
X322609Y478156D01*
X322635Y478154D01*
X322675Y478176D01*
X322718Y478188D01*
X322736Y478208D01*
X322758Y478220D01*
X322781Y478260D01*
X322810Y478294D01*
X322814Y478319D01*
X322827Y478342D01*
X322833Y478416D01*
X322553Y482330D01*
X322550Y482339D01*
X322548Y482365D01*
X321714Y486199D01*
X321709Y486208D01*
X321704Y486233D01*
X320333Y489909D01*
X320327Y489917D01*
X320318Y489942D01*
X318437Y493385D01*
X318431Y493392D01*
X318418Y493415D01*
X316067Y496556D01*
X316059Y496562D01*
X316044Y496583D01*
X313269Y499358D01*
X313261Y499362D01*
X313242Y499381D01*
X310101Y501732D01*
X310092Y501736D01*
X310071Y501752D01*
X306628Y503632D01*
X306618Y503634D01*
X306595Y503647D01*
X302919Y505018D01*
X302909Y505019D01*
X302885Y505028D01*
X299051Y505862D01*
X299041Y505861D01*
X299016Y505867D01*
X295102Y506147D01*
X295093Y506145D01*
X295066Y506147D01*
X291153Y505867D01*
X291144Y505864D01*
X291118Y505862D01*
X287284Y505028D01*
X287275Y505023D01*
X287249Y505018D01*
X283573Y503647D01*
X283565Y503641D01*
X283541Y503632D01*
X280097Y501752D01*
X280090Y501745D01*
X280067Y501732D01*
X276926Y499381D01*
X276920Y499373D01*
X276899Y499358D01*
X274125Y496583D01*
X274120Y496575D01*
X274102Y496556D01*
X271750Y493415D01*
X271747Y493406D01*
X271731Y493385D01*
X269851Y489942D01*
X269849Y489932D01*
X269836Y489909D01*
X268465Y486233D01*
X268464Y486224D01*
X268455Y486199D01*
X267621Y482365D01*
X267621Y482355D01*
X267615Y482330D01*
X267336Y478416D01*
X267341Y478391D01*
X267337Y478365D01*
X267356Y478324D01*
X267365Y478280D01*
X267383Y478261D01*
X267394Y478237D01*
X267432Y478212D01*
X267464Y478180D01*
X267489Y478175D01*
X267511Y478160D01*
X267584Y478149D01*
X277584Y478149D01*
X277591Y478151D01*
G37*
G36*
X952825Y478151D02*
X952825Y478151D01*
X952832Y478150D01*
X952891Y478171D01*
X952952Y478188D01*
X952957Y478194D01*
X952964Y478196D01*
X953002Y478246D01*
X953044Y478294D01*
X953045Y478301D01*
X953049Y478306D01*
X953066Y478379D01*
X953280Y481097D01*
X953912Y483729D01*
X954948Y486230D01*
X956362Y488538D01*
X958120Y490596D01*
X960179Y492354D01*
X962486Y493768D01*
X964987Y494804D01*
X967619Y495436D01*
X970318Y495648D01*
X973016Y495436D01*
X975648Y494804D01*
X978149Y493768D01*
X980457Y492354D01*
X982515Y490596D01*
X982640Y490451D01*
X982640Y490450D01*
X982852Y490201D01*
X982853Y490201D01*
X983278Y489703D01*
X983491Y489454D01*
X983491Y489453D01*
X983704Y489204D01*
X983917Y488955D01*
X984130Y488706D01*
X984273Y488538D01*
X985688Y486230D01*
X986724Y483729D01*
X987355Y481097D01*
X987569Y478379D01*
X987572Y478372D01*
X987571Y478365D01*
X987597Y478307D01*
X987619Y478248D01*
X987625Y478244D01*
X987628Y478237D01*
X987680Y478202D01*
X987731Y478165D01*
X987738Y478164D01*
X987744Y478160D01*
X987818Y478149D01*
X997818Y478149D01*
X997843Y478156D01*
X997869Y478154D01*
X997909Y478176D01*
X997952Y478188D01*
X997969Y478208D01*
X997992Y478220D01*
X998014Y478260D01*
X998044Y478294D01*
X998048Y478319D01*
X998061Y478342D01*
X998066Y478416D01*
X997787Y482330D01*
X997783Y482339D01*
X997781Y482365D01*
X996947Y486199D01*
X996943Y486208D01*
X996937Y486233D01*
X995566Y489909D01*
X995560Y489917D01*
X995551Y489942D01*
X993671Y493385D01*
X993664Y493392D01*
X993652Y493415D01*
X991300Y496556D01*
X991293Y496562D01*
X991277Y496583D01*
X988503Y499358D01*
X988494Y499362D01*
X988476Y499381D01*
X985335Y501732D01*
X985326Y501736D01*
X985305Y501752D01*
X981861Y503632D01*
X981852Y503634D01*
X981829Y503647D01*
X978153Y505018D01*
X978143Y505019D01*
X978118Y505028D01*
X974284Y505862D01*
X974275Y505861D01*
X974249Y505867D01*
X970336Y506147D01*
X970326Y506145D01*
X970300Y506147D01*
X966386Y505867D01*
X966377Y505864D01*
X966351Y505862D01*
X962517Y505028D01*
X962509Y505023D01*
X962483Y505018D01*
X958807Y503647D01*
X958799Y503641D01*
X958774Y503632D01*
X955331Y501752D01*
X955324Y501745D01*
X955301Y501732D01*
X952160Y499381D01*
X952154Y499373D01*
X952133Y499358D01*
X949358Y496583D01*
X949354Y496575D01*
X949335Y496556D01*
X946984Y493415D01*
X946980Y493406D01*
X946965Y493385D01*
X945084Y489942D01*
X945082Y489932D01*
X945069Y489909D01*
X943698Y486233D01*
X943698Y486224D01*
X943688Y486199D01*
X942854Y482365D01*
X942855Y482355D01*
X942849Y482330D01*
X942569Y478416D01*
X942575Y478391D01*
X942571Y478365D01*
X942589Y478324D01*
X942599Y478280D01*
X942617Y478261D01*
X942628Y478237D01*
X942665Y478212D01*
X942697Y478180D01*
X942723Y478175D01*
X942744Y478160D01*
X942818Y478149D01*
X952818Y478149D01*
X952825Y478151D01*
G37*
G36*
X727755Y478151D02*
X727755Y478151D01*
X727762Y478150D01*
X727822Y478171D01*
X727883Y478188D01*
X727887Y478194D01*
X727894Y478196D01*
X727933Y478246D01*
X727975Y478294D01*
X727976Y478301D01*
X727980Y478306D01*
X727997Y478379D01*
X728211Y481097D01*
X728843Y483729D01*
X729879Y486230D01*
X731293Y488538D01*
X733051Y490596D01*
X735109Y492354D01*
X737417Y493768D01*
X739918Y494804D01*
X742550Y495436D01*
X745248Y495648D01*
X747947Y495436D01*
X750579Y494804D01*
X753080Y493768D01*
X755388Y492354D01*
X757446Y490596D01*
X757570Y490451D01*
X757570Y490450D01*
X757783Y490201D01*
X758209Y489703D01*
X758422Y489454D01*
X758422Y489453D01*
X758635Y489204D01*
X758847Y488955D01*
X758848Y488955D01*
X759060Y488706D01*
X759204Y488538D01*
X760618Y486230D01*
X761654Y483729D01*
X762286Y481097D01*
X762500Y478379D01*
X762503Y478372D01*
X762501Y478365D01*
X762527Y478307D01*
X762550Y478248D01*
X762555Y478244D01*
X762558Y478237D01*
X762611Y478202D01*
X762662Y478165D01*
X762669Y478164D01*
X762675Y478160D01*
X762748Y478149D01*
X772748Y478149D01*
X772773Y478156D01*
X772799Y478154D01*
X772839Y478176D01*
X772883Y478188D01*
X772900Y478208D01*
X772923Y478220D01*
X772945Y478260D01*
X772975Y478294D01*
X772978Y478319D01*
X772991Y478342D01*
X772997Y478416D01*
X772717Y482330D01*
X772714Y482339D01*
X772712Y482365D01*
X771878Y486199D01*
X771873Y486208D01*
X771868Y486233D01*
X770497Y489909D01*
X770491Y489917D01*
X770482Y489942D01*
X768602Y493385D01*
X768595Y493392D01*
X768582Y493415D01*
X766231Y496556D01*
X766223Y496562D01*
X766208Y496583D01*
X763433Y499358D01*
X763425Y499362D01*
X763406Y499381D01*
X760265Y501732D01*
X760256Y501736D01*
X760235Y501752D01*
X756792Y503632D01*
X756782Y503634D01*
X756759Y503647D01*
X753083Y505018D01*
X753074Y505019D01*
X753049Y505028D01*
X749215Y505862D01*
X749205Y505861D01*
X749180Y505867D01*
X745266Y506147D01*
X745257Y506145D01*
X745231Y506147D01*
X741317Y505867D01*
X741308Y505864D01*
X741282Y505862D01*
X737448Y505028D01*
X737439Y505023D01*
X737414Y505018D01*
X733737Y503647D01*
X733730Y503641D01*
X733705Y503632D01*
X730261Y501752D01*
X730255Y501745D01*
X730231Y501732D01*
X727090Y499381D01*
X727085Y499373D01*
X727064Y499358D01*
X724289Y496583D01*
X724284Y496575D01*
X724266Y496556D01*
X721914Y493415D01*
X721911Y493406D01*
X721895Y493385D01*
X720015Y489942D01*
X720013Y489932D01*
X720000Y489909D01*
X718629Y486233D01*
X718628Y486224D01*
X718619Y486199D01*
X717785Y482365D01*
X717785Y482355D01*
X717780Y482330D01*
X717500Y478416D01*
X717505Y478391D01*
X717501Y478365D01*
X717520Y478324D01*
X717529Y478280D01*
X717548Y478261D01*
X717558Y478237D01*
X717596Y478212D01*
X717628Y478180D01*
X717653Y478175D01*
X717675Y478160D01*
X717748Y478149D01*
X727748Y478149D01*
X727755Y478151D01*
G37*
G36*
X500370Y600954D02*
X500370Y600954D01*
X500387Y600951D01*
X500436Y600973D01*
X500488Y600988D01*
X500499Y601001D01*
X500515Y601008D01*
X500544Y601053D01*
X500580Y601094D01*
X500582Y601111D01*
X500592Y601125D01*
X500603Y601198D01*
X500603Y636948D01*
X500586Y637006D01*
X500574Y637065D01*
X500565Y637076D01*
X500564Y637083D01*
X500556Y637089D01*
X500530Y637125D01*
X494030Y643625D01*
X493977Y643654D01*
X493927Y643687D01*
X493913Y643689D01*
X493907Y643692D01*
X493897Y643691D01*
X493854Y643698D01*
X489754Y643698D01*
X489737Y643693D01*
X489720Y643695D01*
X489671Y643674D01*
X489619Y643658D01*
X489608Y643646D01*
X489592Y643639D01*
X489563Y643594D01*
X489527Y643553D01*
X489525Y643536D01*
X489515Y643522D01*
X489504Y643448D01*
X489504Y601198D01*
X489509Y601182D01*
X489507Y601165D01*
X489528Y601116D01*
X489544Y601064D01*
X489556Y601053D01*
X489563Y601037D01*
X489608Y601008D01*
X489649Y600972D01*
X489666Y600970D01*
X489680Y600960D01*
X489754Y600949D01*
X500354Y600949D01*
X500370Y600954D01*
G37*
G36*
X50206Y600954D02*
X50206Y600954D01*
X50223Y600951D01*
X50272Y600973D01*
X50324Y600988D01*
X50335Y601001D01*
X50351Y601008D01*
X50380Y601053D01*
X50416Y601094D01*
X50418Y601111D01*
X50428Y601125D01*
X50439Y601198D01*
X50439Y636948D01*
X50422Y637006D01*
X50410Y637065D01*
X50401Y637076D01*
X50399Y637083D01*
X50392Y637089D01*
X50366Y637125D01*
X43866Y643625D01*
X43813Y643654D01*
X43763Y643687D01*
X43749Y643689D01*
X43743Y643692D01*
X43733Y643691D01*
X43689Y643698D01*
X39589Y643698D01*
X39573Y643693D01*
X39556Y643695D01*
X39507Y643674D01*
X39455Y643658D01*
X39444Y643646D01*
X39428Y643639D01*
X39399Y643594D01*
X39363Y643553D01*
X39361Y643536D01*
X39351Y643522D01*
X39340Y643448D01*
X39340Y601198D01*
X39345Y601182D01*
X39342Y601165D01*
X39364Y601116D01*
X39379Y601064D01*
X39392Y601053D01*
X39399Y601037D01*
X39444Y601008D01*
X39485Y600972D01*
X39502Y600970D01*
X39516Y600960D01*
X39589Y600949D01*
X50189Y600949D01*
X50206Y600954D01*
G37*
G36*
X725465Y600954D02*
X725465Y600954D01*
X725482Y600951D01*
X725531Y600973D01*
X725583Y600988D01*
X725594Y601001D01*
X725610Y601008D01*
X725639Y601053D01*
X725675Y601094D01*
X725677Y601111D01*
X725687Y601125D01*
X725698Y601198D01*
X725698Y636948D01*
X725681Y637006D01*
X725669Y637065D01*
X725660Y637076D01*
X725658Y637083D01*
X725651Y637089D01*
X725625Y637125D01*
X719125Y643625D01*
X719072Y643654D01*
X719022Y643687D01*
X719008Y643689D01*
X719002Y643692D01*
X718992Y643691D01*
X718948Y643698D01*
X714848Y643698D01*
X714832Y643693D01*
X714815Y643695D01*
X714766Y643674D01*
X714714Y643658D01*
X714703Y643646D01*
X714687Y643639D01*
X714658Y643594D01*
X714622Y643553D01*
X714620Y643536D01*
X714610Y643522D01*
X714599Y643448D01*
X714599Y601198D01*
X714604Y601182D01*
X714601Y601165D01*
X714623Y601116D01*
X714638Y601064D01*
X714651Y601053D01*
X714658Y601037D01*
X714703Y601008D01*
X714744Y600972D01*
X714761Y600970D01*
X714775Y600960D01*
X714848Y600949D01*
X725448Y600949D01*
X725465Y600954D01*
G37*
G36*
X1175629Y600954D02*
X1175629Y600954D01*
X1175646Y600951D01*
X1175695Y600973D01*
X1175747Y600988D01*
X1175758Y601001D01*
X1175774Y601008D01*
X1175803Y601053D01*
X1175839Y601094D01*
X1175841Y601111D01*
X1175851Y601125D01*
X1175862Y601198D01*
X1175862Y636948D01*
X1175845Y637006D01*
X1175833Y637065D01*
X1175824Y637076D01*
X1175823Y637083D01*
X1175815Y637089D01*
X1175789Y637125D01*
X1169289Y643625D01*
X1169236Y643654D01*
X1169186Y643687D01*
X1169172Y643689D01*
X1169166Y643692D01*
X1169156Y643691D01*
X1169113Y643698D01*
X1165013Y643698D01*
X1164996Y643693D01*
X1164979Y643695D01*
X1164930Y643674D01*
X1164878Y643658D01*
X1164867Y643646D01*
X1164851Y643639D01*
X1164822Y643594D01*
X1164786Y643553D01*
X1164784Y643536D01*
X1164774Y643522D01*
X1164763Y643448D01*
X1164763Y601198D01*
X1164768Y601182D01*
X1164766Y601165D01*
X1164787Y601116D01*
X1164803Y601064D01*
X1164815Y601053D01*
X1164822Y601037D01*
X1164867Y601008D01*
X1164908Y600972D01*
X1164925Y600970D01*
X1164939Y600960D01*
X1165013Y600949D01*
X1175613Y600949D01*
X1175629Y600954D01*
G37*
G36*
X1625768Y600954D02*
X1625768Y600954D01*
X1625785Y600951D01*
X1625834Y600973D01*
X1625886Y600988D01*
X1625897Y601001D01*
X1625913Y601008D01*
X1625942Y601053D01*
X1625978Y601094D01*
X1625980Y601111D01*
X1625990Y601125D01*
X1626001Y601198D01*
X1626001Y636948D01*
X1625984Y637006D01*
X1625972Y637065D01*
X1625963Y637076D01*
X1625961Y637083D01*
X1625954Y637089D01*
X1625928Y637125D01*
X1619428Y643625D01*
X1619375Y643654D01*
X1619325Y643687D01*
X1619311Y643689D01*
X1619305Y643692D01*
X1619295Y643691D01*
X1619251Y643698D01*
X1615151Y643698D01*
X1615135Y643693D01*
X1615118Y643695D01*
X1615069Y643674D01*
X1615017Y643658D01*
X1615006Y643646D01*
X1614990Y643639D01*
X1614961Y643594D01*
X1614925Y643553D01*
X1614923Y643536D01*
X1614913Y643522D01*
X1614902Y643448D01*
X1614902Y601198D01*
X1614907Y601182D01*
X1614904Y601165D01*
X1614926Y601116D01*
X1614941Y601064D01*
X1614954Y601053D01*
X1614961Y601037D01*
X1615006Y601008D01*
X1615047Y600972D01*
X1615064Y600970D01*
X1615078Y600960D01*
X1615151Y600949D01*
X1625751Y600949D01*
X1625768Y600954D01*
G37*
G36*
X1400698Y600954D02*
X1400698Y600954D01*
X1400715Y600951D01*
X1400765Y600973D01*
X1400816Y600988D01*
X1400827Y601001D01*
X1400843Y601008D01*
X1400873Y601053D01*
X1400908Y601094D01*
X1400911Y601111D01*
X1400920Y601125D01*
X1400931Y601198D01*
X1400931Y636948D01*
X1400914Y637006D01*
X1400902Y637065D01*
X1400894Y637076D01*
X1400892Y637083D01*
X1400884Y637089D01*
X1400858Y637125D01*
X1394358Y643625D01*
X1394306Y643654D01*
X1394256Y643687D01*
X1394241Y643689D01*
X1394236Y643692D01*
X1394225Y643691D01*
X1394182Y643698D01*
X1390082Y643698D01*
X1390066Y643693D01*
X1390049Y643695D01*
X1389999Y643674D01*
X1389948Y643658D01*
X1389937Y643646D01*
X1389921Y643639D01*
X1389891Y643594D01*
X1389856Y643553D01*
X1389853Y643536D01*
X1389844Y643522D01*
X1389833Y643448D01*
X1389833Y601198D01*
X1389838Y601182D01*
X1389835Y601165D01*
X1389857Y601116D01*
X1389872Y601064D01*
X1389885Y601053D01*
X1389892Y601037D01*
X1389937Y601008D01*
X1389977Y600972D01*
X1389994Y600970D01*
X1390009Y600960D01*
X1390082Y600949D01*
X1400682Y600949D01*
X1400698Y600954D01*
G37*
G36*
X950534Y600954D02*
X950534Y600954D01*
X950551Y600951D01*
X950600Y600973D01*
X950652Y600988D01*
X950663Y601001D01*
X950679Y601008D01*
X950709Y601053D01*
X950744Y601094D01*
X950747Y601111D01*
X950756Y601125D01*
X950767Y601198D01*
X950767Y636948D01*
X950750Y637006D01*
X950738Y637065D01*
X950730Y637076D01*
X950728Y637083D01*
X950720Y637089D01*
X950694Y637125D01*
X944194Y643625D01*
X944141Y643654D01*
X944091Y643687D01*
X944077Y643689D01*
X944071Y643692D01*
X944061Y643691D01*
X944018Y643698D01*
X939918Y643698D01*
X939901Y643693D01*
X939884Y643695D01*
X939835Y643674D01*
X939784Y643658D01*
X939772Y643646D01*
X939757Y643639D01*
X939727Y643594D01*
X939692Y643553D01*
X939689Y643536D01*
X939680Y643522D01*
X939669Y643448D01*
X939669Y601198D01*
X939673Y601182D01*
X939671Y601165D01*
X939693Y601116D01*
X939708Y601064D01*
X939721Y601053D01*
X939728Y601037D01*
X939773Y601008D01*
X939813Y600972D01*
X939830Y600970D01*
X939844Y600960D01*
X939918Y600949D01*
X950518Y600949D01*
X950534Y600954D01*
G37*
G36*
X1755978Y54807D02*
X1755978Y54807D01*
X1755995Y54805D01*
X1756045Y54826D01*
X1756096Y54842D01*
X1756107Y54854D01*
X1756123Y54861D01*
X1756153Y54906D01*
X1756188Y54947D01*
X1756191Y54964D01*
X1756200Y54978D01*
X1756211Y55052D01*
X1756211Y97302D01*
X1756206Y97318D01*
X1756209Y97335D01*
X1756187Y97384D01*
X1756172Y97436D01*
X1756159Y97447D01*
X1756152Y97463D01*
X1756107Y97492D01*
X1756067Y97528D01*
X1756050Y97530D01*
X1756036Y97540D01*
X1755962Y97551D01*
X1745362Y97551D01*
X1745346Y97546D01*
X1745329Y97549D01*
X1745279Y97527D01*
X1745228Y97512D01*
X1745217Y97499D01*
X1745201Y97492D01*
X1745171Y97447D01*
X1745136Y97406D01*
X1745133Y97389D01*
X1745124Y97375D01*
X1745113Y97302D01*
X1745113Y61552D01*
X1745130Y61494D01*
X1745142Y61435D01*
X1745150Y61424D01*
X1745152Y61417D01*
X1745160Y61411D01*
X1745186Y61375D01*
X1751686Y54875D01*
X1751738Y54846D01*
X1751789Y54813D01*
X1751803Y54811D01*
X1751808Y54808D01*
X1751819Y54809D01*
X1751862Y54802D01*
X1755962Y54802D01*
X1755978Y54807D01*
G37*
G36*
X275301Y600954D02*
X275301Y600954D01*
X275318Y600951D01*
X275367Y600973D01*
X275418Y600988D01*
X275430Y601001D01*
X275445Y601008D01*
X275475Y601053D01*
X275510Y601094D01*
X275513Y601111D01*
X275522Y601125D01*
X275533Y601198D01*
X275533Y636948D01*
X275517Y637006D01*
X275505Y637065D01*
X275496Y637076D01*
X275494Y637083D01*
X275486Y637089D01*
X275460Y637125D01*
X268960Y643625D01*
X268908Y643654D01*
X268858Y643687D01*
X268844Y643689D01*
X268838Y643692D01*
X268828Y643691D01*
X268784Y643698D01*
X264684Y643698D01*
X264668Y643693D01*
X264651Y643695D01*
X264602Y643674D01*
X264550Y643658D01*
X264539Y643646D01*
X264523Y643639D01*
X264493Y643594D01*
X264458Y643553D01*
X264455Y643536D01*
X264446Y643522D01*
X264435Y643448D01*
X264435Y601198D01*
X264440Y601182D01*
X264437Y601165D01*
X264459Y601116D01*
X264474Y601064D01*
X264487Y601053D01*
X264494Y601037D01*
X264539Y601008D01*
X264579Y600972D01*
X264596Y600970D01*
X264611Y600960D01*
X264684Y600949D01*
X275284Y600949D01*
X275301Y600954D01*
G37*
G36*
X630581Y54807D02*
X630581Y54807D01*
X630598Y54805D01*
X630647Y54826D01*
X630698Y54842D01*
X630710Y54854D01*
X630725Y54861D01*
X630755Y54906D01*
X630790Y54947D01*
X630793Y54964D01*
X630802Y54978D01*
X630813Y55052D01*
X630813Y97302D01*
X630809Y97318D01*
X630811Y97335D01*
X630789Y97384D01*
X630774Y97436D01*
X630761Y97447D01*
X630754Y97463D01*
X630709Y97492D01*
X630669Y97528D01*
X630652Y97530D01*
X630638Y97540D01*
X630564Y97551D01*
X619964Y97551D01*
X619948Y97546D01*
X619931Y97549D01*
X619882Y97527D01*
X619830Y97512D01*
X619819Y97499D01*
X619803Y97492D01*
X619773Y97447D01*
X619738Y97406D01*
X619735Y97389D01*
X619726Y97375D01*
X619715Y97302D01*
X619715Y61552D01*
X619732Y61494D01*
X619744Y61435D01*
X619752Y61424D01*
X619754Y61417D01*
X619762Y61411D01*
X619788Y61375D01*
X626288Y54875D01*
X626341Y54846D01*
X626391Y54813D01*
X626405Y54811D01*
X626411Y54808D01*
X626421Y54809D01*
X626464Y54802D01*
X630564Y54802D01*
X630581Y54807D01*
G37*
G36*
X1530909Y54807D02*
X1530909Y54807D01*
X1530926Y54805D01*
X1530975Y54826D01*
X1531027Y54842D01*
X1531038Y54854D01*
X1531054Y54861D01*
X1531083Y54906D01*
X1531119Y54947D01*
X1531121Y54964D01*
X1531131Y54978D01*
X1531142Y55052D01*
X1531142Y97302D01*
X1531137Y97318D01*
X1531140Y97335D01*
X1531118Y97384D01*
X1531103Y97436D01*
X1531090Y97447D01*
X1531083Y97463D01*
X1531038Y97492D01*
X1530997Y97528D01*
X1530980Y97530D01*
X1530966Y97540D01*
X1530893Y97551D01*
X1520293Y97551D01*
X1520276Y97546D01*
X1520259Y97549D01*
X1520210Y97527D01*
X1520158Y97512D01*
X1520147Y97499D01*
X1520131Y97492D01*
X1520102Y97447D01*
X1520066Y97406D01*
X1520064Y97389D01*
X1520054Y97375D01*
X1520043Y97302D01*
X1520043Y61552D01*
X1520060Y61494D01*
X1520072Y61435D01*
X1520081Y61424D01*
X1520083Y61417D01*
X1520090Y61411D01*
X1520116Y61375D01*
X1526616Y54875D01*
X1526669Y54846D01*
X1526719Y54813D01*
X1526733Y54811D01*
X1526739Y54808D01*
X1526749Y54809D01*
X1526793Y54802D01*
X1530893Y54802D01*
X1530909Y54807D01*
G37*
G36*
X855650Y54807D02*
X855650Y54807D01*
X855667Y54805D01*
X855716Y54826D01*
X855768Y54842D01*
X855779Y54854D01*
X855795Y54861D01*
X855824Y54906D01*
X855860Y54947D01*
X855862Y54964D01*
X855872Y54978D01*
X855883Y55052D01*
X855883Y97302D01*
X855878Y97318D01*
X855881Y97335D01*
X855859Y97384D01*
X855844Y97436D01*
X855831Y97447D01*
X855824Y97463D01*
X855779Y97492D01*
X855738Y97528D01*
X855721Y97530D01*
X855707Y97540D01*
X855634Y97551D01*
X845034Y97551D01*
X845017Y97546D01*
X845000Y97549D01*
X844951Y97527D01*
X844899Y97512D01*
X844888Y97499D01*
X844872Y97492D01*
X844843Y97447D01*
X844807Y97406D01*
X844805Y97389D01*
X844795Y97375D01*
X844784Y97302D01*
X844784Y61552D01*
X844801Y61494D01*
X844813Y61435D01*
X844822Y61424D01*
X844824Y61417D01*
X844831Y61411D01*
X844857Y61375D01*
X851357Y54875D01*
X851410Y54846D01*
X851460Y54813D01*
X851474Y54811D01*
X851480Y54808D01*
X851490Y54809D01*
X851534Y54802D01*
X855634Y54802D01*
X855650Y54807D01*
G37*
G36*
X1080745Y54807D02*
X1080745Y54807D01*
X1080762Y54805D01*
X1080811Y54826D01*
X1080863Y54842D01*
X1080874Y54854D01*
X1080890Y54861D01*
X1080919Y54906D01*
X1080955Y54947D01*
X1080957Y54964D01*
X1080967Y54978D01*
X1080978Y55052D01*
X1080978Y97302D01*
X1080973Y97318D01*
X1080975Y97335D01*
X1080954Y97384D01*
X1080938Y97436D01*
X1080926Y97447D01*
X1080919Y97463D01*
X1080874Y97492D01*
X1080833Y97528D01*
X1080816Y97530D01*
X1080802Y97540D01*
X1080728Y97551D01*
X1070128Y97551D01*
X1070112Y97546D01*
X1070095Y97549D01*
X1070046Y97527D01*
X1069994Y97512D01*
X1069983Y97499D01*
X1069967Y97492D01*
X1069938Y97447D01*
X1069902Y97406D01*
X1069900Y97389D01*
X1069890Y97375D01*
X1069879Y97302D01*
X1069879Y61552D01*
X1069896Y61494D01*
X1069908Y61435D01*
X1069917Y61424D01*
X1069918Y61417D01*
X1069926Y61411D01*
X1069952Y61375D01*
X1076452Y54875D01*
X1076505Y54846D01*
X1076555Y54813D01*
X1076569Y54811D01*
X1076575Y54808D01*
X1076585Y54809D01*
X1076628Y54802D01*
X1080728Y54802D01*
X1080745Y54807D01*
G37*
G36*
X180416Y54807D02*
X180416Y54807D01*
X180433Y54805D01*
X180483Y54826D01*
X180534Y54842D01*
X180545Y54854D01*
X180561Y54861D01*
X180591Y54906D01*
X180626Y54947D01*
X180629Y54964D01*
X180638Y54978D01*
X180649Y55052D01*
X180649Y97302D01*
X180644Y97318D01*
X180647Y97335D01*
X180625Y97384D01*
X180610Y97436D01*
X180597Y97447D01*
X180590Y97463D01*
X180545Y97492D01*
X180505Y97528D01*
X180488Y97530D01*
X180474Y97540D01*
X180400Y97551D01*
X169800Y97551D01*
X169784Y97546D01*
X169767Y97549D01*
X169717Y97527D01*
X169666Y97512D01*
X169655Y97499D01*
X169639Y97492D01*
X169609Y97447D01*
X169574Y97406D01*
X169571Y97389D01*
X169562Y97375D01*
X169551Y97302D01*
X169551Y61552D01*
X169568Y61494D01*
X169580Y61435D01*
X169588Y61424D01*
X169590Y61417D01*
X169598Y61411D01*
X169624Y61375D01*
X176124Y54875D01*
X176176Y54846D01*
X176227Y54813D01*
X176241Y54811D01*
X176246Y54808D01*
X176257Y54809D01*
X176300Y54802D01*
X180400Y54802D01*
X180416Y54807D01*
G37*
G36*
X1305814Y54807D02*
X1305814Y54807D01*
X1305831Y54805D01*
X1305880Y54826D01*
X1305932Y54842D01*
X1305943Y54854D01*
X1305959Y54861D01*
X1305989Y54906D01*
X1306024Y54947D01*
X1306027Y54964D01*
X1306036Y54978D01*
X1306047Y55052D01*
X1306047Y97302D01*
X1306042Y97318D01*
X1306045Y97335D01*
X1306023Y97384D01*
X1306008Y97436D01*
X1305995Y97447D01*
X1305988Y97463D01*
X1305943Y97492D01*
X1305903Y97528D01*
X1305886Y97530D01*
X1305871Y97540D01*
X1305798Y97551D01*
X1295198Y97551D01*
X1295181Y97546D01*
X1295164Y97549D01*
X1295115Y97527D01*
X1295064Y97512D01*
X1295052Y97499D01*
X1295037Y97492D01*
X1295007Y97447D01*
X1294972Y97406D01*
X1294969Y97389D01*
X1294960Y97375D01*
X1294949Y97302D01*
X1294949Y61552D01*
X1294965Y61494D01*
X1294977Y61435D01*
X1294986Y61424D01*
X1294988Y61417D01*
X1294996Y61411D01*
X1295022Y61375D01*
X1301522Y54875D01*
X1301574Y54846D01*
X1301624Y54813D01*
X1301638Y54811D01*
X1301644Y54808D01*
X1301654Y54809D01*
X1301698Y54802D01*
X1305798Y54802D01*
X1305814Y54807D01*
G37*
G36*
X405486Y54807D02*
X405486Y54807D01*
X405503Y54805D01*
X405552Y54826D01*
X405604Y54842D01*
X405615Y54854D01*
X405631Y54861D01*
X405660Y54906D01*
X405696Y54947D01*
X405698Y54964D01*
X405708Y54978D01*
X405719Y55052D01*
X405719Y97302D01*
X405714Y97318D01*
X405716Y97335D01*
X405695Y97384D01*
X405679Y97436D01*
X405667Y97447D01*
X405660Y97463D01*
X405615Y97492D01*
X405574Y97528D01*
X405557Y97530D01*
X405543Y97540D01*
X405469Y97551D01*
X394869Y97551D01*
X394853Y97546D01*
X394836Y97549D01*
X394787Y97527D01*
X394735Y97512D01*
X394724Y97499D01*
X394708Y97492D01*
X394679Y97447D01*
X394643Y97406D01*
X394641Y97389D01*
X394631Y97375D01*
X394620Y97302D01*
X394620Y61552D01*
X394637Y61494D01*
X394649Y61435D01*
X394658Y61424D01*
X394659Y61417D01*
X394667Y61411D01*
X394693Y61375D01*
X401193Y54875D01*
X401246Y54846D01*
X401296Y54813D01*
X401310Y54811D01*
X401316Y54808D01*
X401326Y54809D01*
X401369Y54802D01*
X405469Y54802D01*
X405486Y54807D01*
G37*
G36*
X1140747Y571431D02*
X1140747Y571431D01*
X1140813Y571433D01*
X1140857Y571450D01*
X1140903Y571459D01*
X1140960Y571492D01*
X1141021Y571517D01*
X1141056Y571549D01*
X1141097Y571573D01*
X1141138Y571624D01*
X1141187Y571668D01*
X1141208Y571711D01*
X1141238Y571747D01*
X1141259Y571809D01*
X1141289Y571868D01*
X1141297Y571922D01*
X1141310Y571960D01*
X1141309Y571999D01*
X1141317Y572053D01*
X1141317Y575863D01*
X1141305Y575928D01*
X1141303Y575994D01*
X1141286Y576038D01*
X1141277Y576084D01*
X1141244Y576141D01*
X1141219Y576202D01*
X1141187Y576237D01*
X1141163Y576277D01*
X1141112Y576319D01*
X1141068Y576367D01*
X1141026Y576389D01*
X1140989Y576419D01*
X1140927Y576440D01*
X1140868Y576470D01*
X1140814Y576478D01*
X1140776Y576491D01*
X1140737Y576490D01*
X1140683Y576498D01*
X1138143Y576498D01*
X1138078Y576486D01*
X1138012Y576484D01*
X1137968Y576466D01*
X1137922Y576458D01*
X1137865Y576424D01*
X1137804Y576400D01*
X1137769Y576368D01*
X1137729Y576344D01*
X1137687Y576293D01*
X1137639Y576248D01*
X1137617Y576206D01*
X1137587Y576170D01*
X1137566Y576107D01*
X1137536Y576049D01*
X1137528Y575994D01*
X1137515Y575957D01*
X1137515Y575953D01*
X1137516Y575917D01*
X1137508Y575863D01*
X1137508Y572053D01*
X1137520Y571989D01*
X1137522Y571923D01*
X1137540Y571879D01*
X1137548Y571833D01*
X1137582Y571776D01*
X1137606Y571715D01*
X1137638Y571680D01*
X1137662Y571639D01*
X1137713Y571598D01*
X1137758Y571549D01*
X1137800Y571528D01*
X1137836Y571498D01*
X1137899Y571477D01*
X1137957Y571447D01*
X1138012Y571439D01*
X1138049Y571426D01*
X1138088Y571427D01*
X1138143Y571419D01*
X1140683Y571419D01*
X1140747Y571431D01*
G37*
G36*
X1107663Y122014D02*
X1107663Y122014D01*
X1107729Y122016D01*
X1107773Y122034D01*
X1107819Y122042D01*
X1107876Y122076D01*
X1107937Y122100D01*
X1107972Y122132D01*
X1108012Y122156D01*
X1108054Y122207D01*
X1108102Y122252D01*
X1108124Y122294D01*
X1108154Y122330D01*
X1108175Y122393D01*
X1108205Y122451D01*
X1108213Y122506D01*
X1108226Y122543D01*
X1108225Y122582D01*
X1108233Y122637D01*
X1108233Y126447D01*
X1108221Y126511D01*
X1108219Y126577D01*
X1108201Y126621D01*
X1108193Y126667D01*
X1108159Y126724D01*
X1108135Y126785D01*
X1108103Y126820D01*
X1108079Y126861D01*
X1108028Y126902D01*
X1107983Y126951D01*
X1107941Y126972D01*
X1107905Y127002D01*
X1107842Y127023D01*
X1107784Y127053D01*
X1107729Y127061D01*
X1107692Y127074D01*
X1107653Y127073D01*
X1107598Y127081D01*
X1105058Y127081D01*
X1104994Y127069D01*
X1104928Y127067D01*
X1104884Y127050D01*
X1104838Y127041D01*
X1104781Y127008D01*
X1104720Y126983D01*
X1104685Y126951D01*
X1104644Y126927D01*
X1104603Y126876D01*
X1104554Y126832D01*
X1104533Y126790D01*
X1104503Y126753D01*
X1104482Y126691D01*
X1104452Y126632D01*
X1104444Y126578D01*
X1104431Y126540D01*
X1104431Y126536D01*
X1104432Y126500D01*
X1104424Y126447D01*
X1104424Y122637D01*
X1104436Y122572D01*
X1104438Y122506D01*
X1104455Y122462D01*
X1104464Y122416D01*
X1104497Y122359D01*
X1104522Y122298D01*
X1104554Y122263D01*
X1104578Y122223D01*
X1104629Y122181D01*
X1104673Y122133D01*
X1104716Y122111D01*
X1104752Y122081D01*
X1104814Y122060D01*
X1104873Y122030D01*
X1104927Y122022D01*
X1104965Y122009D01*
X1105004Y122010D01*
X1105058Y122002D01*
X1107598Y122002D01*
X1107663Y122014D01*
G37*
G36*
X657499Y122014D02*
X657499Y122014D01*
X657565Y122016D01*
X657608Y122034D01*
X657655Y122042D01*
X657712Y122076D01*
X657773Y122100D01*
X657808Y122132D01*
X657848Y122156D01*
X657890Y122207D01*
X657938Y122252D01*
X657960Y122294D01*
X657990Y122330D01*
X658011Y122393D01*
X658041Y122451D01*
X658049Y122506D01*
X658061Y122543D01*
X658060Y122582D01*
X658068Y122637D01*
X658068Y126447D01*
X658057Y126511D01*
X658055Y126577D01*
X658037Y126621D01*
X658029Y126667D01*
X657995Y126724D01*
X657971Y126785D01*
X657939Y126820D01*
X657915Y126861D01*
X657864Y126902D01*
X657819Y126951D01*
X657777Y126972D01*
X657740Y127002D01*
X657678Y127023D01*
X657620Y127053D01*
X657565Y127061D01*
X657528Y127074D01*
X657489Y127073D01*
X657434Y127081D01*
X654894Y127081D01*
X654829Y127069D01*
X654764Y127067D01*
X654720Y127050D01*
X654673Y127041D01*
X654617Y127008D01*
X654556Y126983D01*
X654521Y126951D01*
X654480Y126927D01*
X654439Y126876D01*
X654390Y126832D01*
X654369Y126790D01*
X654339Y126753D01*
X654318Y126691D01*
X654288Y126632D01*
X654280Y126578D01*
X654267Y126540D01*
X654267Y126536D01*
X654268Y126500D01*
X654260Y126447D01*
X654260Y122637D01*
X654272Y122572D01*
X654274Y122506D01*
X654291Y122462D01*
X654300Y122416D01*
X654333Y122359D01*
X654358Y122298D01*
X654390Y122263D01*
X654414Y122223D01*
X654465Y122181D01*
X654509Y122133D01*
X654551Y122111D01*
X654588Y122081D01*
X654650Y122060D01*
X654709Y122030D01*
X654763Y122022D01*
X654800Y122009D01*
X654840Y122010D01*
X654894Y122002D01*
X657434Y122002D01*
X657499Y122014D01*
G37*
G36*
X1590886Y571431D02*
X1590886Y571431D01*
X1590952Y571433D01*
X1590996Y571450D01*
X1591042Y571459D01*
X1591099Y571492D01*
X1591160Y571517D01*
X1591195Y571549D01*
X1591235Y571573D01*
X1591277Y571624D01*
X1591325Y571668D01*
X1591347Y571711D01*
X1591377Y571747D01*
X1591398Y571809D01*
X1591428Y571868D01*
X1591436Y571922D01*
X1591449Y571960D01*
X1591448Y571999D01*
X1591456Y572053D01*
X1591456Y575863D01*
X1591444Y575928D01*
X1591442Y575994D01*
X1591424Y576038D01*
X1591416Y576084D01*
X1591382Y576141D01*
X1591358Y576202D01*
X1591326Y576237D01*
X1591302Y576277D01*
X1591251Y576319D01*
X1591206Y576367D01*
X1591164Y576389D01*
X1591128Y576419D01*
X1591065Y576440D01*
X1591007Y576470D01*
X1590952Y576478D01*
X1590915Y576491D01*
X1590876Y576490D01*
X1590821Y576498D01*
X1588281Y576498D01*
X1588217Y576486D01*
X1588151Y576484D01*
X1588107Y576466D01*
X1588061Y576458D01*
X1588004Y576424D01*
X1587943Y576400D01*
X1587908Y576368D01*
X1587867Y576344D01*
X1587826Y576293D01*
X1587777Y576248D01*
X1587756Y576206D01*
X1587726Y576170D01*
X1587705Y576107D01*
X1587675Y576049D01*
X1587667Y575994D01*
X1587654Y575957D01*
X1587654Y575953D01*
X1587655Y575917D01*
X1587647Y575863D01*
X1587647Y572053D01*
X1587659Y571989D01*
X1587661Y571923D01*
X1587678Y571879D01*
X1587687Y571833D01*
X1587720Y571776D01*
X1587745Y571715D01*
X1587777Y571680D01*
X1587801Y571639D01*
X1587852Y571598D01*
X1587896Y571549D01*
X1587939Y571528D01*
X1587975Y571498D01*
X1588037Y571477D01*
X1588096Y571447D01*
X1588150Y571439D01*
X1588188Y571426D01*
X1588227Y571427D01*
X1588281Y571419D01*
X1590821Y571419D01*
X1590886Y571431D01*
G37*
G36*
X882568Y122014D02*
X882568Y122014D01*
X882634Y122016D01*
X882678Y122034D01*
X882724Y122042D01*
X882781Y122076D01*
X882842Y122100D01*
X882877Y122132D01*
X882918Y122156D01*
X882959Y122207D01*
X883008Y122252D01*
X883029Y122294D01*
X883059Y122330D01*
X883080Y122393D01*
X883110Y122451D01*
X883118Y122506D01*
X883131Y122543D01*
X883130Y122582D01*
X883138Y122637D01*
X883138Y126447D01*
X883126Y126511D01*
X883124Y126577D01*
X883107Y126621D01*
X883098Y126667D01*
X883065Y126724D01*
X883040Y126785D01*
X883008Y126820D01*
X882984Y126861D01*
X882933Y126902D01*
X882889Y126951D01*
X882847Y126972D01*
X882810Y127002D01*
X882748Y127023D01*
X882689Y127053D01*
X882635Y127061D01*
X882597Y127074D01*
X882558Y127073D01*
X882504Y127081D01*
X879964Y127081D01*
X879899Y127069D01*
X879833Y127067D01*
X879789Y127050D01*
X879743Y127041D01*
X879686Y127008D01*
X879625Y126983D01*
X879590Y126951D01*
X879550Y126927D01*
X879508Y126876D01*
X879460Y126832D01*
X879438Y126790D01*
X879408Y126753D01*
X879387Y126691D01*
X879357Y126632D01*
X879349Y126578D01*
X879336Y126540D01*
X879336Y126536D01*
X879337Y126500D01*
X879329Y126447D01*
X879329Y122637D01*
X879341Y122572D01*
X879343Y122506D01*
X879361Y122462D01*
X879369Y122416D01*
X879403Y122359D01*
X879427Y122298D01*
X879459Y122263D01*
X879483Y122223D01*
X879534Y122181D01*
X879579Y122133D01*
X879621Y122111D01*
X879657Y122081D01*
X879720Y122060D01*
X879778Y122030D01*
X879833Y122022D01*
X879870Y122009D01*
X879909Y122010D01*
X879964Y122002D01*
X882504Y122002D01*
X882568Y122014D01*
G37*
G36*
X207335Y122014D02*
X207335Y122014D01*
X207401Y122016D01*
X207444Y122034D01*
X207491Y122042D01*
X207548Y122076D01*
X207608Y122100D01*
X207643Y122132D01*
X207684Y122156D01*
X207726Y122207D01*
X207774Y122252D01*
X207796Y122294D01*
X207825Y122330D01*
X207846Y122393D01*
X207877Y122451D01*
X207885Y122506D01*
X207897Y122543D01*
X207896Y122582D01*
X207904Y122637D01*
X207904Y126447D01*
X207893Y126511D01*
X207891Y126577D01*
X207873Y126621D01*
X207865Y126667D01*
X207831Y126724D01*
X207806Y126785D01*
X207775Y126820D01*
X207750Y126861D01*
X207699Y126902D01*
X207655Y126951D01*
X207613Y126972D01*
X207576Y127002D01*
X207514Y127023D01*
X207455Y127053D01*
X207401Y127061D01*
X207364Y127074D01*
X207324Y127073D01*
X207270Y127081D01*
X204730Y127081D01*
X204665Y127069D01*
X204599Y127067D01*
X204556Y127050D01*
X204509Y127041D01*
X204452Y127008D01*
X204392Y126983D01*
X204357Y126951D01*
X204316Y126927D01*
X204275Y126876D01*
X204226Y126832D01*
X204204Y126790D01*
X204175Y126753D01*
X204154Y126691D01*
X204123Y126632D01*
X204115Y126578D01*
X204103Y126540D01*
X204103Y126536D01*
X204104Y126500D01*
X204096Y126447D01*
X204096Y122637D01*
X204107Y122572D01*
X204109Y122506D01*
X204127Y122462D01*
X204135Y122416D01*
X204169Y122359D01*
X204194Y122298D01*
X204225Y122263D01*
X204250Y122223D01*
X204301Y122181D01*
X204345Y122133D01*
X204387Y122111D01*
X204424Y122081D01*
X204486Y122060D01*
X204545Y122030D01*
X204599Y122022D01*
X204636Y122009D01*
X204676Y122010D01*
X204730Y122002D01*
X207270Y122002D01*
X207335Y122014D01*
G37*
G36*
X1557827Y122014D02*
X1557827Y122014D01*
X1557893Y122016D01*
X1557937Y122034D01*
X1557983Y122042D01*
X1558040Y122076D01*
X1558101Y122100D01*
X1558136Y122132D01*
X1558177Y122156D01*
X1558218Y122207D01*
X1558267Y122252D01*
X1558288Y122294D01*
X1558318Y122330D01*
X1558339Y122393D01*
X1558369Y122451D01*
X1558377Y122506D01*
X1558390Y122543D01*
X1558389Y122582D01*
X1558397Y122637D01*
X1558397Y126447D01*
X1558385Y126511D01*
X1558383Y126577D01*
X1558366Y126621D01*
X1558357Y126667D01*
X1558324Y126724D01*
X1558299Y126785D01*
X1558267Y126820D01*
X1558243Y126861D01*
X1558192Y126902D01*
X1558148Y126951D01*
X1558106Y126972D01*
X1558069Y127002D01*
X1558007Y127023D01*
X1557948Y127053D01*
X1557894Y127061D01*
X1557856Y127074D01*
X1557817Y127073D01*
X1557763Y127081D01*
X1555223Y127081D01*
X1555158Y127069D01*
X1555092Y127067D01*
X1555048Y127050D01*
X1555002Y127041D01*
X1554945Y127008D01*
X1554884Y126983D01*
X1554849Y126951D01*
X1554809Y126927D01*
X1554767Y126876D01*
X1554719Y126832D01*
X1554697Y126790D01*
X1554667Y126753D01*
X1554646Y126691D01*
X1554616Y126632D01*
X1554608Y126578D01*
X1554595Y126540D01*
X1554595Y126536D01*
X1554596Y126500D01*
X1554588Y126447D01*
X1554588Y122637D01*
X1554600Y122572D01*
X1554602Y122506D01*
X1554620Y122462D01*
X1554628Y122416D01*
X1554662Y122359D01*
X1554686Y122298D01*
X1554718Y122263D01*
X1554742Y122223D01*
X1554793Y122181D01*
X1554838Y122133D01*
X1554880Y122111D01*
X1554916Y122081D01*
X1554979Y122060D01*
X1555037Y122030D01*
X1555092Y122022D01*
X1555129Y122009D01*
X1555168Y122010D01*
X1555223Y122002D01*
X1557763Y122002D01*
X1557827Y122014D01*
G37*
G36*
X1332733Y122014D02*
X1332733Y122014D01*
X1332798Y122016D01*
X1332842Y122034D01*
X1332889Y122042D01*
X1332945Y122076D01*
X1333006Y122100D01*
X1333041Y122132D01*
X1333082Y122156D01*
X1333123Y122207D01*
X1333172Y122252D01*
X1333193Y122294D01*
X1333223Y122330D01*
X1333244Y122393D01*
X1333274Y122451D01*
X1333283Y122506D01*
X1333295Y122543D01*
X1333294Y122582D01*
X1333302Y122637D01*
X1333302Y126447D01*
X1333290Y126511D01*
X1333288Y126577D01*
X1333271Y126621D01*
X1333262Y126667D01*
X1333229Y126724D01*
X1333204Y126785D01*
X1333172Y126820D01*
X1333148Y126861D01*
X1333097Y126902D01*
X1333053Y126951D01*
X1333011Y126972D01*
X1332974Y127002D01*
X1332912Y127023D01*
X1332853Y127053D01*
X1332799Y127061D01*
X1332762Y127074D01*
X1332722Y127073D01*
X1332668Y127081D01*
X1330128Y127081D01*
X1330063Y127069D01*
X1329997Y127067D01*
X1329954Y127050D01*
X1329907Y127041D01*
X1329850Y127008D01*
X1329789Y126983D01*
X1329755Y126951D01*
X1329714Y126927D01*
X1329672Y126876D01*
X1329624Y126832D01*
X1329602Y126790D01*
X1329572Y126753D01*
X1329551Y126691D01*
X1329521Y126632D01*
X1329513Y126578D01*
X1329501Y126540D01*
X1329501Y126536D01*
X1329502Y126500D01*
X1329494Y126447D01*
X1329494Y122637D01*
X1329505Y122572D01*
X1329507Y122506D01*
X1329525Y122462D01*
X1329533Y122416D01*
X1329567Y122359D01*
X1329591Y122298D01*
X1329623Y122263D01*
X1329647Y122223D01*
X1329698Y122181D01*
X1329743Y122133D01*
X1329785Y122111D01*
X1329822Y122081D01*
X1329884Y122060D01*
X1329942Y122030D01*
X1329997Y122022D01*
X1330034Y122009D01*
X1330073Y122010D01*
X1330128Y122002D01*
X1332668Y122002D01*
X1332733Y122014D01*
G37*
G36*
X915653Y571431D02*
X915653Y571431D01*
X915718Y571433D01*
X915762Y571450D01*
X915809Y571459D01*
X915865Y571492D01*
X915926Y571517D01*
X915961Y571549D01*
X916002Y571573D01*
X916043Y571624D01*
X916092Y571668D01*
X916113Y571711D01*
X916143Y571747D01*
X916164Y571809D01*
X916194Y571868D01*
X916203Y571922D01*
X916215Y571960D01*
X916214Y571999D01*
X916222Y572053D01*
X916222Y575863D01*
X916210Y575928D01*
X916208Y575994D01*
X916191Y576038D01*
X916182Y576084D01*
X916149Y576141D01*
X916124Y576202D01*
X916092Y576237D01*
X916068Y576277D01*
X916017Y576319D01*
X915973Y576367D01*
X915931Y576389D01*
X915894Y576419D01*
X915832Y576440D01*
X915773Y576470D01*
X915719Y576478D01*
X915682Y576491D01*
X915642Y576490D01*
X915588Y576498D01*
X913048Y576498D01*
X912983Y576486D01*
X912917Y576484D01*
X912874Y576466D01*
X912827Y576458D01*
X912770Y576424D01*
X912709Y576400D01*
X912675Y576368D01*
X912634Y576344D01*
X912592Y576293D01*
X912544Y576248D01*
X912522Y576206D01*
X912492Y576170D01*
X912471Y576107D01*
X912441Y576049D01*
X912433Y575994D01*
X912421Y575957D01*
X912421Y575953D01*
X912422Y575917D01*
X912414Y575863D01*
X912414Y572053D01*
X912425Y571989D01*
X912427Y571923D01*
X912445Y571879D01*
X912453Y571833D01*
X912487Y571776D01*
X912511Y571715D01*
X912543Y571680D01*
X912567Y571639D01*
X912618Y571598D01*
X912663Y571549D01*
X912705Y571528D01*
X912742Y571498D01*
X912804Y571477D01*
X912862Y571447D01*
X912917Y571439D01*
X912954Y571426D01*
X912993Y571427D01*
X913048Y571419D01*
X915588Y571419D01*
X915653Y571431D01*
G37*
G36*
X15324Y571431D02*
X15324Y571431D01*
X15390Y571433D01*
X15434Y571450D01*
X15480Y571459D01*
X15537Y571492D01*
X15598Y571517D01*
X15633Y571549D01*
X15673Y571573D01*
X15715Y571624D01*
X15763Y571668D01*
X15785Y571711D01*
X15815Y571747D01*
X15836Y571809D01*
X15866Y571868D01*
X15874Y571922D01*
X15887Y571960D01*
X15886Y571999D01*
X15894Y572053D01*
X15894Y575863D01*
X15882Y575928D01*
X15880Y575994D01*
X15862Y576038D01*
X15854Y576084D01*
X15820Y576141D01*
X15796Y576202D01*
X15764Y576237D01*
X15740Y576277D01*
X15689Y576319D01*
X15644Y576367D01*
X15602Y576389D01*
X15566Y576419D01*
X15503Y576440D01*
X15445Y576470D01*
X15390Y576478D01*
X15353Y576491D01*
X15314Y576490D01*
X15259Y576498D01*
X12719Y576498D01*
X12655Y576486D01*
X12589Y576484D01*
X12545Y576466D01*
X12499Y576458D01*
X12442Y576424D01*
X12381Y576400D01*
X12346Y576368D01*
X12305Y576344D01*
X12264Y576293D01*
X12215Y576248D01*
X12194Y576206D01*
X12164Y576170D01*
X12143Y576107D01*
X12113Y576049D01*
X12105Y575994D01*
X12092Y575957D01*
X12092Y575953D01*
X12093Y575917D01*
X12085Y575863D01*
X12085Y572053D01*
X12097Y571989D01*
X12099Y571923D01*
X12116Y571879D01*
X12125Y571833D01*
X12158Y571776D01*
X12183Y571715D01*
X12215Y571680D01*
X12239Y571639D01*
X12290Y571598D01*
X12334Y571549D01*
X12377Y571528D01*
X12413Y571498D01*
X12475Y571477D01*
X12534Y571447D01*
X12588Y571439D01*
X12626Y571426D01*
X12665Y571427D01*
X12719Y571419D01*
X15259Y571419D01*
X15324Y571431D01*
G37*
G36*
X1365817Y571431D02*
X1365817Y571431D01*
X1365883Y571433D01*
X1365926Y571450D01*
X1365973Y571459D01*
X1366030Y571492D01*
X1366090Y571517D01*
X1366125Y571549D01*
X1366166Y571573D01*
X1366208Y571624D01*
X1366256Y571668D01*
X1366278Y571711D01*
X1366307Y571747D01*
X1366328Y571809D01*
X1366359Y571868D01*
X1366367Y571922D01*
X1366379Y571960D01*
X1366378Y571999D01*
X1366386Y572053D01*
X1366386Y575863D01*
X1366375Y575928D01*
X1366373Y575994D01*
X1366355Y576038D01*
X1366347Y576084D01*
X1366313Y576141D01*
X1366288Y576202D01*
X1366257Y576237D01*
X1366232Y576277D01*
X1366181Y576319D01*
X1366137Y576367D01*
X1366095Y576389D01*
X1366058Y576419D01*
X1365996Y576440D01*
X1365937Y576470D01*
X1365883Y576478D01*
X1365846Y576491D01*
X1365806Y576490D01*
X1365752Y576498D01*
X1363212Y576498D01*
X1363147Y576486D01*
X1363081Y576484D01*
X1363038Y576466D01*
X1362991Y576458D01*
X1362934Y576424D01*
X1362874Y576400D01*
X1362839Y576368D01*
X1362798Y576344D01*
X1362757Y576293D01*
X1362708Y576248D01*
X1362686Y576206D01*
X1362657Y576170D01*
X1362636Y576107D01*
X1362605Y576049D01*
X1362597Y575994D01*
X1362585Y575957D01*
X1362585Y575953D01*
X1362586Y575917D01*
X1362578Y575863D01*
X1362578Y572053D01*
X1362589Y571989D01*
X1362591Y571923D01*
X1362609Y571879D01*
X1362617Y571833D01*
X1362651Y571776D01*
X1362676Y571715D01*
X1362707Y571680D01*
X1362732Y571639D01*
X1362783Y571598D01*
X1362827Y571549D01*
X1362869Y571528D01*
X1362906Y571498D01*
X1362968Y571477D01*
X1363027Y571447D01*
X1363081Y571439D01*
X1363118Y571426D01*
X1363158Y571427D01*
X1363212Y571419D01*
X1365752Y571419D01*
X1365817Y571431D01*
G37*
G36*
X690583Y571431D02*
X690583Y571431D01*
X690649Y571433D01*
X690693Y571450D01*
X690739Y571459D01*
X690796Y571492D01*
X690857Y571517D01*
X690892Y571549D01*
X690932Y571573D01*
X690974Y571624D01*
X691022Y571668D01*
X691044Y571711D01*
X691074Y571747D01*
X691095Y571809D01*
X691125Y571868D01*
X691133Y571922D01*
X691146Y571960D01*
X691145Y571999D01*
X691153Y572053D01*
X691153Y575863D01*
X691141Y575928D01*
X691139Y575994D01*
X691121Y576038D01*
X691113Y576084D01*
X691079Y576141D01*
X691055Y576202D01*
X691023Y576237D01*
X690999Y576277D01*
X690948Y576319D01*
X690903Y576367D01*
X690861Y576389D01*
X690825Y576419D01*
X690762Y576440D01*
X690704Y576470D01*
X690649Y576478D01*
X690612Y576491D01*
X690573Y576490D01*
X690518Y576498D01*
X687978Y576498D01*
X687914Y576486D01*
X687848Y576484D01*
X687804Y576466D01*
X687758Y576458D01*
X687701Y576424D01*
X687640Y576400D01*
X687605Y576368D01*
X687564Y576344D01*
X687523Y576293D01*
X687474Y576248D01*
X687453Y576206D01*
X687423Y576170D01*
X687402Y576107D01*
X687372Y576049D01*
X687364Y575994D01*
X687351Y575957D01*
X687351Y575953D01*
X687352Y575917D01*
X687344Y575863D01*
X687344Y572053D01*
X687356Y571989D01*
X687358Y571923D01*
X687375Y571879D01*
X687384Y571833D01*
X687417Y571776D01*
X687442Y571715D01*
X687474Y571680D01*
X687498Y571639D01*
X687549Y571598D01*
X687593Y571549D01*
X687636Y571528D01*
X687672Y571498D01*
X687734Y571477D01*
X687793Y571447D01*
X687847Y571439D01*
X687885Y571426D01*
X687924Y571427D01*
X687978Y571419D01*
X690518Y571419D01*
X690583Y571431D01*
G37*
G36*
X240419Y571431D02*
X240419Y571431D01*
X240485Y571433D01*
X240528Y571450D01*
X240575Y571459D01*
X240632Y571492D01*
X240693Y571517D01*
X240728Y571549D01*
X240768Y571573D01*
X240810Y571624D01*
X240858Y571668D01*
X240880Y571711D01*
X240910Y571747D01*
X240931Y571809D01*
X240961Y571868D01*
X240969Y571922D01*
X240981Y571960D01*
X240980Y571999D01*
X240988Y572053D01*
X240988Y575863D01*
X240977Y575928D01*
X240975Y575994D01*
X240957Y576038D01*
X240949Y576084D01*
X240915Y576141D01*
X240891Y576202D01*
X240859Y576237D01*
X240835Y576277D01*
X240784Y576319D01*
X240739Y576367D01*
X240697Y576389D01*
X240660Y576419D01*
X240598Y576440D01*
X240540Y576470D01*
X240485Y576478D01*
X240448Y576491D01*
X240409Y576490D01*
X240354Y576498D01*
X237814Y576498D01*
X237749Y576486D01*
X237684Y576484D01*
X237640Y576466D01*
X237593Y576458D01*
X237537Y576424D01*
X237476Y576400D01*
X237441Y576368D01*
X237400Y576344D01*
X237359Y576293D01*
X237310Y576248D01*
X237289Y576206D01*
X237259Y576170D01*
X237238Y576107D01*
X237208Y576049D01*
X237200Y575994D01*
X237187Y575957D01*
X237187Y575953D01*
X237188Y575917D01*
X237180Y575863D01*
X237180Y572053D01*
X237192Y571989D01*
X237194Y571923D01*
X237211Y571879D01*
X237220Y571833D01*
X237253Y571776D01*
X237278Y571715D01*
X237310Y571680D01*
X237334Y571639D01*
X237385Y571598D01*
X237429Y571549D01*
X237471Y571528D01*
X237508Y571498D01*
X237570Y571477D01*
X237629Y571447D01*
X237683Y571439D01*
X237720Y571426D01*
X237760Y571427D01*
X237814Y571419D01*
X240354Y571419D01*
X240419Y571431D01*
G37*
G36*
X465488Y571431D02*
X465488Y571431D01*
X465554Y571433D01*
X465598Y571450D01*
X465644Y571459D01*
X465701Y571492D01*
X465762Y571517D01*
X465797Y571549D01*
X465838Y571573D01*
X465879Y571624D01*
X465928Y571668D01*
X465949Y571711D01*
X465979Y571747D01*
X466000Y571809D01*
X466030Y571868D01*
X466038Y571922D01*
X466051Y571960D01*
X466050Y571999D01*
X466058Y572053D01*
X466058Y575863D01*
X466046Y575928D01*
X466044Y575994D01*
X466027Y576038D01*
X466018Y576084D01*
X465985Y576141D01*
X465960Y576202D01*
X465928Y576237D01*
X465904Y576277D01*
X465853Y576319D01*
X465809Y576367D01*
X465767Y576389D01*
X465730Y576419D01*
X465668Y576440D01*
X465609Y576470D01*
X465555Y576478D01*
X465517Y576491D01*
X465478Y576490D01*
X465424Y576498D01*
X462884Y576498D01*
X462819Y576486D01*
X462753Y576484D01*
X462709Y576466D01*
X462663Y576458D01*
X462606Y576424D01*
X462545Y576400D01*
X462510Y576368D01*
X462470Y576344D01*
X462428Y576293D01*
X462380Y576248D01*
X462358Y576206D01*
X462328Y576170D01*
X462307Y576107D01*
X462277Y576049D01*
X462269Y575994D01*
X462256Y575957D01*
X462256Y575953D01*
X462257Y575917D01*
X462249Y575863D01*
X462249Y572053D01*
X462261Y571989D01*
X462263Y571923D01*
X462281Y571879D01*
X462289Y571833D01*
X462323Y571776D01*
X462347Y571715D01*
X462379Y571680D01*
X462403Y571639D01*
X462454Y571598D01*
X462499Y571549D01*
X462541Y571528D01*
X462577Y571498D01*
X462640Y571477D01*
X462698Y571447D01*
X462753Y571439D01*
X462790Y571426D01*
X462829Y571427D01*
X462884Y571419D01*
X465424Y571419D01*
X465488Y571431D01*
G37*
G36*
X1782897Y122014D02*
X1782897Y122014D01*
X1782963Y122016D01*
X1783006Y122034D01*
X1783053Y122042D01*
X1783110Y122076D01*
X1783170Y122100D01*
X1783205Y122132D01*
X1783246Y122156D01*
X1783288Y122207D01*
X1783336Y122252D01*
X1783358Y122294D01*
X1783387Y122330D01*
X1783408Y122393D01*
X1783439Y122451D01*
X1783447Y122506D01*
X1783459Y122543D01*
X1783458Y122582D01*
X1783466Y122637D01*
X1783466Y126447D01*
X1783455Y126511D01*
X1783453Y126577D01*
X1783435Y126621D01*
X1783427Y126667D01*
X1783393Y126724D01*
X1783368Y126785D01*
X1783337Y126820D01*
X1783312Y126861D01*
X1783261Y126902D01*
X1783217Y126951D01*
X1783175Y126972D01*
X1783138Y127002D01*
X1783076Y127023D01*
X1783017Y127053D01*
X1782963Y127061D01*
X1782926Y127074D01*
X1782886Y127073D01*
X1782832Y127081D01*
X1780292Y127081D01*
X1780227Y127069D01*
X1780161Y127067D01*
X1780118Y127050D01*
X1780071Y127041D01*
X1780014Y127008D01*
X1779954Y126983D01*
X1779919Y126951D01*
X1779878Y126927D01*
X1779837Y126876D01*
X1779788Y126832D01*
X1779766Y126790D01*
X1779737Y126753D01*
X1779716Y126691D01*
X1779685Y126632D01*
X1779677Y126578D01*
X1779665Y126540D01*
X1779665Y126536D01*
X1779666Y126500D01*
X1779658Y126447D01*
X1779658Y122637D01*
X1779669Y122572D01*
X1779671Y122506D01*
X1779689Y122462D01*
X1779697Y122416D01*
X1779731Y122359D01*
X1779756Y122298D01*
X1779787Y122263D01*
X1779812Y122223D01*
X1779863Y122181D01*
X1779907Y122133D01*
X1779949Y122111D01*
X1779986Y122081D01*
X1780048Y122060D01*
X1780107Y122030D01*
X1780161Y122022D01*
X1780198Y122009D01*
X1780238Y122010D01*
X1780292Y122002D01*
X1782832Y122002D01*
X1782897Y122014D01*
G37*
G36*
X432404Y122014D02*
X432404Y122014D01*
X432470Y122016D01*
X432514Y122034D01*
X432560Y122042D01*
X432617Y122076D01*
X432678Y122100D01*
X432713Y122132D01*
X432753Y122156D01*
X432795Y122207D01*
X432843Y122252D01*
X432865Y122294D01*
X432895Y122330D01*
X432916Y122393D01*
X432946Y122451D01*
X432954Y122506D01*
X432967Y122543D01*
X432966Y122582D01*
X432974Y122637D01*
X432974Y126447D01*
X432962Y126511D01*
X432960Y126577D01*
X432942Y126621D01*
X432934Y126667D01*
X432900Y126724D01*
X432876Y126785D01*
X432844Y126820D01*
X432820Y126861D01*
X432769Y126902D01*
X432724Y126951D01*
X432682Y126972D01*
X432646Y127002D01*
X432583Y127023D01*
X432525Y127053D01*
X432470Y127061D01*
X432433Y127074D01*
X432394Y127073D01*
X432339Y127081D01*
X429799Y127081D01*
X429735Y127069D01*
X429669Y127067D01*
X429625Y127050D01*
X429579Y127041D01*
X429522Y127008D01*
X429461Y126983D01*
X429426Y126951D01*
X429385Y126927D01*
X429344Y126876D01*
X429295Y126832D01*
X429274Y126790D01*
X429244Y126753D01*
X429223Y126691D01*
X429193Y126632D01*
X429185Y126578D01*
X429172Y126540D01*
X429172Y126536D01*
X429173Y126500D01*
X429165Y126447D01*
X429165Y122637D01*
X429177Y122572D01*
X429179Y122506D01*
X429196Y122462D01*
X429205Y122416D01*
X429238Y122359D01*
X429263Y122298D01*
X429295Y122263D01*
X429319Y122223D01*
X429370Y122181D01*
X429414Y122133D01*
X429457Y122111D01*
X429493Y122081D01*
X429555Y122060D01*
X429614Y122030D01*
X429668Y122022D01*
X429706Y122009D01*
X429745Y122010D01*
X429799Y122002D01*
X432339Y122002D01*
X432404Y122014D01*
G37*
D10*
X118000Y161002D03*
D11*
X93000Y128002D03*
X93000Y118002D03*
X80000Y128002D03*
X80000Y118002D03*
X80000Y93002D03*
X80000Y103002D03*
X130000Y143002D03*
X130000Y153002D03*
X93000Y93002D03*
X93000Y103002D03*
X113000Y72002D03*
X123000Y72002D03*
D12*
X106000Y141002D03*
X106000Y155002D03*
X67000Y141002D03*
X67000Y155002D03*
X93000Y155002D03*
X93000Y141002D03*
D11*
X87000Y60002D03*
X97000Y60002D03*
D13*
X206000Y119335D03*
X206000Y129749D03*
D11*
X106000Y93002D03*
X106000Y103002D03*
X130000Y103002D03*
X130000Y93002D03*
X118000Y103002D03*
X118000Y93002D03*
D10*
X138500Y82502D03*
D11*
X113000Y60002D03*
X123000Y60002D03*
X97000Y72002D03*
X87000Y72002D03*
X67000Y103002D03*
X67000Y93002D03*
X67000Y118002D03*
X67000Y128002D03*
X54000Y118002D03*
X54000Y128002D03*
X54000Y103002D03*
X54000Y93002D03*
X106000Y118002D03*
X106000Y128002D03*
X80000Y143002D03*
X80000Y153002D03*
X118000Y118002D03*
X118000Y128002D03*
D10*
X118100Y110002D03*
D11*
X118000Y143002D03*
X118000Y153002D03*
X130000Y128002D03*
X130000Y118002D03*
X152500Y118102D03*
X152500Y128102D03*
X143000Y128002D03*
X143000Y118002D03*
X162000Y118102D03*
X162000Y128102D03*
D10*
X118000Y135002D03*
X143000Y135002D03*
X143000Y110002D03*
D14*
X10000Y50002D03*
X210000Y210002D03*
D10*
X20000Y170002D03*
X20000Y210002D03*
X67000Y110002D03*
X80000Y135002D03*
X100000Y103002D03*
D15*
X34900Y129702D03*
X15900Y129702D03*
X25400Y150702D03*
D16*
X30400Y90602D03*
X20400Y90602D03*
X25400Y102102D03*
D11*
X20400Y114302D03*
X30400Y114302D03*
D17*
X147350Y57252D03*
X147350Y69952D03*
X147350Y82652D03*
X147350Y95352D03*
X202850Y82652D03*
X202850Y95352D03*
X202850Y69952D03*
X202850Y57252D03*
D18*
X200000Y15352D03*
X195000Y15352D03*
X190000Y15352D03*
X185000Y15352D03*
X180000Y15352D03*
X175000Y15352D03*
X170000Y15352D03*
X165000Y15352D03*
X160000Y15352D03*
X155000Y15352D03*
X150000Y15352D03*
X125000Y15352D03*
X120000Y15352D03*
X115000Y15352D03*
X110000Y15352D03*
X105000Y15352D03*
X100000Y15352D03*
X95000Y15352D03*
X90000Y15352D03*
X85000Y15352D03*
X80000Y15352D03*
X75000Y15352D03*
X70000Y15352D03*
X65000Y15352D03*
X60000Y15352D03*
X55000Y15352D03*
X50000Y15352D03*
X45000Y15352D03*
X40000Y15352D03*
X35000Y15352D03*
X30000Y15352D03*
X25000Y15352D03*
X20000Y15352D03*
D19*
X129000Y210102D03*
X171000Y210102D03*
X150000Y197102D03*
D11*
X213500Y58102D03*
X213500Y68102D03*
D10*
X343069Y161002D03*
D11*
X318069Y128002D03*
X318069Y118002D03*
X305069Y128002D03*
X305069Y118002D03*
X305069Y93002D03*
X305069Y103002D03*
X355069Y143002D03*
X355069Y153002D03*
X318069Y93002D03*
X318069Y103002D03*
X338069Y72002D03*
X348069Y72002D03*
D12*
X331069Y141002D03*
X331069Y155002D03*
X292069Y141002D03*
X292069Y155002D03*
X318069Y155002D03*
X318069Y141002D03*
D11*
X312069Y60002D03*
X322069Y60002D03*
D13*
X431069Y119335D03*
X431069Y129749D03*
D11*
X331069Y93002D03*
X331069Y103002D03*
X355069Y103002D03*
X355069Y93002D03*
X343069Y103002D03*
X343069Y93002D03*
D10*
X363569Y82502D03*
D11*
X338069Y60002D03*
X348069Y60002D03*
X322069Y72002D03*
X312069Y72002D03*
X292069Y103002D03*
X292069Y93002D03*
X292069Y118002D03*
X292069Y128002D03*
X279069Y118002D03*
X279069Y128002D03*
X279069Y103002D03*
X279069Y93002D03*
X331069Y118002D03*
X331069Y128002D03*
X305069Y143002D03*
X305069Y153002D03*
X343069Y118002D03*
X343069Y128002D03*
D10*
X343169Y110002D03*
D11*
X343069Y143002D03*
X343069Y153002D03*
X355069Y128002D03*
X355069Y118002D03*
X377569Y118102D03*
X377569Y128102D03*
X368069Y128002D03*
X368069Y118002D03*
X387069Y118102D03*
X387069Y128102D03*
D10*
X343069Y135002D03*
X368069Y135002D03*
X368069Y110002D03*
D14*
X235069Y50002D03*
X435069Y210002D03*
D10*
X245069Y170002D03*
X245069Y210002D03*
X292069Y110002D03*
X305069Y135002D03*
X325069Y103002D03*
D15*
X259969Y129702D03*
X240969Y129702D03*
X250469Y150702D03*
D16*
X255469Y90602D03*
X245469Y90602D03*
X250469Y102102D03*
D11*
X245469Y114302D03*
X255469Y114302D03*
D17*
X372419Y57252D03*
X372419Y69952D03*
X372419Y82652D03*
X372419Y95352D03*
X427919Y82652D03*
X427919Y95352D03*
X427919Y69952D03*
X427919Y57252D03*
D18*
X425069Y15352D03*
X420069Y15352D03*
X415069Y15352D03*
X410069Y15352D03*
X405069Y15352D03*
X400069Y15352D03*
X395069Y15352D03*
X390069Y15352D03*
X385069Y15352D03*
X380069Y15352D03*
X375069Y15352D03*
X350069Y15352D03*
X345069Y15352D03*
X340069Y15352D03*
X335069Y15352D03*
X330069Y15352D03*
X325069Y15352D03*
X320069Y15352D03*
X315069Y15352D03*
X310069Y15352D03*
X305069Y15352D03*
X300069Y15352D03*
X295069Y15352D03*
X290069Y15352D03*
X285069Y15352D03*
X280069Y15352D03*
X275069Y15352D03*
X270069Y15352D03*
X265069Y15352D03*
X260069Y15352D03*
X255069Y15352D03*
X250069Y15352D03*
X245069Y15352D03*
D19*
X354069Y210102D03*
X396069Y210102D03*
X375069Y197102D03*
D11*
X438569Y58102D03*
X438569Y68102D03*
D10*
X568164Y161002D03*
D11*
X543164Y128002D03*
X543164Y118002D03*
X530164Y128002D03*
X530164Y118002D03*
X530164Y93002D03*
X530164Y103002D03*
X580164Y143002D03*
X580164Y153002D03*
X543164Y93002D03*
X543164Y103002D03*
X563164Y72002D03*
X573164Y72002D03*
D12*
X556164Y141002D03*
X556164Y155002D03*
X517164Y141002D03*
X517164Y155002D03*
X543164Y155002D03*
X543164Y141002D03*
D11*
X537164Y60002D03*
X547164Y60002D03*
D13*
X656164Y119335D03*
X656164Y129749D03*
D11*
X556164Y93002D03*
X556164Y103002D03*
X580164Y103002D03*
X580164Y93002D03*
X568164Y103002D03*
X568164Y93002D03*
D10*
X588664Y82502D03*
D11*
X563164Y60002D03*
X573164Y60002D03*
X547164Y72002D03*
X537164Y72002D03*
X517164Y103002D03*
X517164Y93002D03*
X517164Y118002D03*
X517164Y128002D03*
X504164Y118002D03*
X504164Y128002D03*
X504164Y103002D03*
X504164Y93002D03*
X556164Y118002D03*
X556164Y128002D03*
X530164Y143002D03*
X530164Y153002D03*
X568164Y118002D03*
X568164Y128002D03*
D10*
X568264Y110002D03*
D11*
X568164Y143002D03*
X568164Y153002D03*
X580164Y128002D03*
X580164Y118002D03*
X602664Y118102D03*
X602664Y128102D03*
X593164Y128002D03*
X593164Y118002D03*
X612164Y118102D03*
X612164Y128102D03*
D10*
X568164Y135002D03*
X593164Y135002D03*
X593164Y110002D03*
D14*
X460164Y50002D03*
X660164Y210002D03*
D10*
X470164Y170002D03*
X470164Y210002D03*
X517164Y110002D03*
X530164Y135002D03*
X550164Y103002D03*
D15*
X485064Y129702D03*
X466064Y129702D03*
X475564Y150702D03*
D16*
X480564Y90602D03*
X470564Y90602D03*
X475564Y102102D03*
D11*
X470564Y114302D03*
X480564Y114302D03*
D17*
X597514Y57252D03*
X597514Y69952D03*
X597514Y82652D03*
X597514Y95352D03*
X653014Y82652D03*
X653014Y95352D03*
X653014Y69952D03*
X653014Y57252D03*
D18*
X650164Y15352D03*
X645164Y15352D03*
X640164Y15352D03*
X635164Y15352D03*
X630164Y15352D03*
X625164Y15352D03*
X620164Y15352D03*
X615164Y15352D03*
X610164Y15352D03*
X605164Y15352D03*
X600164Y15352D03*
X575164Y15352D03*
X570164Y15352D03*
X565164Y15352D03*
X560164Y15352D03*
X555164Y15352D03*
X550164Y15352D03*
X545164Y15352D03*
X540164Y15352D03*
X535164Y15352D03*
X530164Y15352D03*
X525164Y15352D03*
X520164Y15352D03*
X515164Y15352D03*
X510164Y15352D03*
X505164Y15352D03*
X500164Y15352D03*
X495164Y15352D03*
X490164Y15352D03*
X485164Y15352D03*
X480164Y15352D03*
X475164Y15352D03*
X470164Y15352D03*
D19*
X579164Y210102D03*
X621164Y210102D03*
X600164Y197102D03*
D11*
X663664Y58102D03*
X663664Y68102D03*
D10*
X793234Y161002D03*
D11*
X768234Y128002D03*
X768234Y118002D03*
X755234Y128002D03*
X755234Y118002D03*
X755234Y93002D03*
X755234Y103002D03*
X805234Y143002D03*
X805234Y153002D03*
X768234Y93002D03*
X768234Y103002D03*
X788234Y72002D03*
X798234Y72002D03*
D12*
X781234Y141002D03*
X781234Y155002D03*
X742234Y141002D03*
X742234Y155002D03*
X768234Y155002D03*
X768234Y141002D03*
D11*
X762234Y60002D03*
X772234Y60002D03*
D13*
X881234Y119335D03*
X881234Y129749D03*
D11*
X781234Y93002D03*
X781234Y103002D03*
X805234Y103002D03*
X805234Y93002D03*
X793234Y103002D03*
X793234Y93002D03*
D10*
X813734Y82502D03*
D11*
X788234Y60002D03*
X798234Y60002D03*
X772234Y72002D03*
X762234Y72002D03*
X742234Y103002D03*
X742234Y93002D03*
X742234Y118002D03*
X742234Y128002D03*
X729234Y118002D03*
X729234Y128002D03*
X729234Y103002D03*
X729234Y93002D03*
X781234Y118002D03*
X781234Y128002D03*
X755234Y143002D03*
X755234Y153002D03*
X793234Y118002D03*
X793234Y128002D03*
D10*
X793334Y110002D03*
D11*
X793234Y143002D03*
X793234Y153002D03*
X805234Y128002D03*
X805234Y118002D03*
X827734Y118102D03*
X827734Y128102D03*
X818234Y128002D03*
X818234Y118002D03*
X837234Y118102D03*
X837234Y128102D03*
D10*
X793234Y135002D03*
X818234Y135002D03*
X818234Y110002D03*
D14*
X685234Y50002D03*
X885234Y210002D03*
D10*
X695234Y170002D03*
X695234Y210002D03*
X742234Y110002D03*
X755234Y135002D03*
X775234Y103002D03*
D15*
X710134Y129702D03*
X691134Y129702D03*
X700634Y150702D03*
D16*
X705634Y90602D03*
X695634Y90602D03*
X700634Y102102D03*
D11*
X695634Y114302D03*
X705634Y114302D03*
D17*
X822584Y57252D03*
X822584Y69952D03*
X822584Y82652D03*
X822584Y95352D03*
X878084Y82652D03*
X878084Y95352D03*
X878084Y69952D03*
X878084Y57252D03*
D18*
X875234Y15352D03*
X870234Y15352D03*
X865234Y15352D03*
X860234Y15352D03*
X855234Y15352D03*
X850234Y15352D03*
X845234Y15352D03*
X840234Y15352D03*
X835234Y15352D03*
X830234Y15352D03*
X825234Y15352D03*
X800234Y15352D03*
X795234Y15352D03*
X790234Y15352D03*
X785234Y15352D03*
X780234Y15352D03*
X775234Y15352D03*
X770234Y15352D03*
X765234Y15352D03*
X760234Y15352D03*
X755234Y15352D03*
X750234Y15352D03*
X745234Y15352D03*
X740234Y15352D03*
X735234Y15352D03*
X730234Y15352D03*
X725234Y15352D03*
X720234Y15352D03*
X715234Y15352D03*
X710234Y15352D03*
X705234Y15352D03*
X700234Y15352D03*
X695234Y15352D03*
D19*
X804234Y210102D03*
X846234Y210102D03*
X825234Y197102D03*
D11*
X888734Y58102D03*
X888734Y68102D03*
D10*
X1018328Y161002D03*
D11*
X993328Y128002D03*
X993328Y118002D03*
X980328Y128002D03*
X980328Y118002D03*
X980328Y93002D03*
X980328Y103002D03*
X1030328Y143002D03*
X1030328Y153002D03*
X993328Y93002D03*
X993328Y103002D03*
X1013328Y72002D03*
X1023328Y72002D03*
D12*
X1006328Y141002D03*
X1006328Y155002D03*
X967328Y141002D03*
X967328Y155002D03*
X993328Y155002D03*
X993328Y141002D03*
D11*
X987328Y60002D03*
X997328Y60002D03*
D13*
X1106328Y119335D03*
X1106328Y129749D03*
D11*
X1006328Y93002D03*
X1006328Y103002D03*
X1030328Y103002D03*
X1030328Y93002D03*
X1018328Y103002D03*
X1018328Y93002D03*
D10*
X1038828Y82502D03*
D11*
X1013328Y60002D03*
X1023328Y60002D03*
X997328Y72002D03*
X987328Y72002D03*
X967328Y103002D03*
X967328Y93002D03*
X967328Y118002D03*
X967328Y128002D03*
X954328Y118002D03*
X954328Y128002D03*
X954328Y103002D03*
X954328Y93002D03*
X1006328Y118002D03*
X1006328Y128002D03*
X980328Y143002D03*
X980328Y153002D03*
X1018328Y118002D03*
X1018328Y128002D03*
D10*
X1018428Y110002D03*
D11*
X1018328Y143002D03*
X1018328Y153002D03*
X1030328Y128002D03*
X1030328Y118002D03*
X1052828Y118102D03*
X1052828Y128102D03*
X1043328Y128002D03*
X1043328Y118002D03*
X1062328Y118102D03*
X1062328Y128102D03*
D10*
X1018328Y135002D03*
X1043328Y135002D03*
X1043328Y110002D03*
D14*
X910328Y50002D03*
X1110328Y210002D03*
D10*
X920328Y170002D03*
X920328Y210002D03*
X967328Y110002D03*
X980328Y135002D03*
X1000328Y103002D03*
D15*
X935228Y129702D03*
X916228Y129702D03*
X925728Y150702D03*
D16*
X930728Y90602D03*
X920728Y90602D03*
X925728Y102102D03*
D11*
X920728Y114302D03*
X930728Y114302D03*
D17*
X1047678Y57252D03*
X1047678Y69952D03*
X1047678Y82652D03*
X1047678Y95352D03*
X1103178Y82652D03*
X1103178Y95352D03*
X1103178Y69952D03*
X1103178Y57252D03*
D18*
X1100328Y15352D03*
X1095328Y15352D03*
X1090328Y15352D03*
X1085328Y15352D03*
X1080328Y15352D03*
X1075328Y15352D03*
X1070328Y15352D03*
X1065328Y15352D03*
X1060328Y15352D03*
X1055328Y15352D03*
X1050328Y15352D03*
X1025328Y15352D03*
X1020328Y15352D03*
X1015328Y15352D03*
X1010328Y15352D03*
X1005328Y15352D03*
X1000328Y15352D03*
X995328Y15352D03*
X990328Y15352D03*
X985328Y15352D03*
X980328Y15352D03*
X975328Y15352D03*
X970328Y15352D03*
X965328Y15352D03*
X960328Y15352D03*
X955328Y15352D03*
X950328Y15352D03*
X945328Y15352D03*
X940328Y15352D03*
X935328Y15352D03*
X930328Y15352D03*
X925328Y15352D03*
X920328Y15352D03*
D19*
X1029328Y210102D03*
X1071328Y210102D03*
X1050328Y197102D03*
D11*
X1113828Y58102D03*
X1113828Y68102D03*
D10*
X1243398Y161002D03*
D11*
X1218398Y128002D03*
X1218398Y118002D03*
X1205398Y128002D03*
X1205398Y118002D03*
X1205398Y93002D03*
X1205398Y103002D03*
X1255398Y143002D03*
X1255398Y153002D03*
X1218398Y93002D03*
X1218398Y103002D03*
X1238398Y72002D03*
X1248398Y72002D03*
D12*
X1231398Y141002D03*
X1231398Y155002D03*
X1192398Y141002D03*
X1192398Y155002D03*
X1218398Y155002D03*
X1218398Y141002D03*
D11*
X1212398Y60002D03*
X1222398Y60002D03*
D13*
X1331398Y119335D03*
X1331398Y129749D03*
D11*
X1231398Y93002D03*
X1231398Y103002D03*
X1255398Y103002D03*
X1255398Y93002D03*
X1243398Y103002D03*
X1243398Y93002D03*
D10*
X1263898Y82502D03*
D11*
X1238398Y60002D03*
X1248398Y60002D03*
X1222398Y72002D03*
X1212398Y72002D03*
X1192398Y103002D03*
X1192398Y93002D03*
X1192398Y118002D03*
X1192398Y128002D03*
X1179398Y118002D03*
X1179398Y128002D03*
X1179398Y103002D03*
X1179398Y93002D03*
X1231398Y118002D03*
X1231398Y128002D03*
X1205398Y143002D03*
X1205398Y153002D03*
X1243398Y118002D03*
X1243398Y128002D03*
D10*
X1243498Y110002D03*
D11*
X1243398Y143002D03*
X1243398Y153002D03*
X1255398Y128002D03*
X1255398Y118002D03*
X1277898Y118102D03*
X1277898Y128102D03*
X1268398Y128002D03*
X1268398Y118002D03*
X1287398Y118102D03*
X1287398Y128102D03*
D10*
X1243398Y135002D03*
X1268398Y135002D03*
X1268398Y110002D03*
D14*
X1135398Y50002D03*
X1335398Y210002D03*
D10*
X1145398Y170002D03*
X1145398Y210002D03*
X1192398Y110002D03*
X1205398Y135002D03*
X1225398Y103002D03*
D15*
X1160298Y129702D03*
X1141298Y129702D03*
X1150798Y150702D03*
D16*
X1155798Y90602D03*
X1145798Y90602D03*
X1150798Y102102D03*
D11*
X1145798Y114302D03*
X1155798Y114302D03*
D17*
X1272748Y57252D03*
X1272748Y69952D03*
X1272748Y82652D03*
X1272748Y95352D03*
X1328248Y82652D03*
X1328248Y95352D03*
X1328248Y69952D03*
X1328248Y57252D03*
D18*
X1325398Y15352D03*
X1320398Y15352D03*
X1315398Y15352D03*
X1310398Y15352D03*
X1305398Y15352D03*
X1300398Y15352D03*
X1295398Y15352D03*
X1290398Y15352D03*
X1285398Y15352D03*
X1280398Y15352D03*
X1275398Y15352D03*
X1250398Y15352D03*
X1245398Y15352D03*
X1240398Y15352D03*
X1235398Y15352D03*
X1230398Y15352D03*
X1225398Y15352D03*
X1220398Y15352D03*
X1215398Y15352D03*
X1210398Y15352D03*
X1205398Y15352D03*
X1200398Y15352D03*
X1195398Y15352D03*
X1190398Y15352D03*
X1185398Y15352D03*
X1180398Y15352D03*
X1175398Y15352D03*
X1170398Y15352D03*
X1165398Y15352D03*
X1160398Y15352D03*
X1155398Y15352D03*
X1150398Y15352D03*
X1145398Y15352D03*
D19*
X1254398Y210102D03*
X1296398Y210102D03*
X1275398Y197102D03*
D11*
X1338898Y58102D03*
X1338898Y68102D03*
D10*
X1468493Y161002D03*
D11*
X1443493Y128002D03*
X1443493Y118002D03*
X1430493Y128002D03*
X1430493Y118002D03*
X1430493Y93002D03*
X1430493Y103002D03*
X1480493Y143002D03*
X1480493Y153002D03*
X1443493Y93002D03*
X1443493Y103002D03*
X1463493Y72002D03*
X1473493Y72002D03*
D12*
X1456493Y141002D03*
X1456493Y155002D03*
X1417493Y141002D03*
X1417493Y155002D03*
X1443493Y155002D03*
X1443493Y141002D03*
D11*
X1437493Y60002D03*
X1447493Y60002D03*
D13*
X1556493Y119335D03*
X1556493Y129749D03*
D11*
X1456493Y93002D03*
X1456493Y103002D03*
X1480493Y103002D03*
X1480493Y93002D03*
X1468493Y103002D03*
X1468493Y93002D03*
D10*
X1488993Y82502D03*
D11*
X1463493Y60002D03*
X1473493Y60002D03*
X1447493Y72002D03*
X1437493Y72002D03*
X1417493Y103002D03*
X1417493Y93002D03*
X1417493Y118002D03*
X1417493Y128002D03*
X1404493Y118002D03*
X1404493Y128002D03*
X1404493Y103002D03*
X1404493Y93002D03*
X1456493Y118002D03*
X1456493Y128002D03*
X1430493Y143002D03*
X1430493Y153002D03*
X1468493Y118002D03*
X1468493Y128002D03*
D10*
X1468593Y110002D03*
D11*
X1468493Y143002D03*
X1468493Y153002D03*
X1480493Y128002D03*
X1480493Y118002D03*
X1502993Y118102D03*
X1502993Y128102D03*
X1493493Y128002D03*
X1493493Y118002D03*
X1512493Y118102D03*
X1512493Y128102D03*
D10*
X1468493Y135002D03*
X1493493Y135002D03*
X1493493Y110002D03*
D14*
X1360493Y50002D03*
X1560493Y210002D03*
D10*
X1370493Y170002D03*
X1370493Y210002D03*
X1417493Y110002D03*
X1430493Y135002D03*
X1450493Y103002D03*
D15*
X1385393Y129702D03*
X1366393Y129702D03*
X1375893Y150702D03*
D16*
X1380893Y90602D03*
X1370893Y90602D03*
X1375893Y102102D03*
D11*
X1370893Y114302D03*
X1380893Y114302D03*
D17*
X1497843Y57252D03*
X1497843Y69952D03*
X1497843Y82652D03*
X1497843Y95352D03*
X1553343Y82652D03*
X1553343Y95352D03*
X1553343Y69952D03*
X1553343Y57252D03*
D18*
X1550493Y15352D03*
X1545493Y15352D03*
X1540493Y15352D03*
X1535493Y15352D03*
X1530493Y15352D03*
X1525493Y15352D03*
X1520493Y15352D03*
X1515493Y15352D03*
X1510493Y15352D03*
X1505493Y15352D03*
X1500493Y15352D03*
X1475493Y15352D03*
X1470493Y15352D03*
X1465493Y15352D03*
X1460493Y15352D03*
X1455493Y15352D03*
X1450493Y15352D03*
X1445493Y15352D03*
X1440493Y15352D03*
X1435493Y15352D03*
X1430493Y15352D03*
X1425493Y15352D03*
X1420493Y15352D03*
X1415493Y15352D03*
X1410493Y15352D03*
X1405493Y15352D03*
X1400493Y15352D03*
X1395493Y15352D03*
X1390493Y15352D03*
X1385493Y15352D03*
X1380493Y15352D03*
X1375493Y15352D03*
X1370493Y15352D03*
D19*
X1479493Y210102D03*
X1521493Y210102D03*
X1500493Y197102D03*
D11*
X1563993Y58102D03*
X1563993Y68102D03*
D10*
X1693562Y161002D03*
D11*
X1668562Y128002D03*
X1668562Y118002D03*
X1655562Y128002D03*
X1655562Y118002D03*
X1655562Y93002D03*
X1655562Y103002D03*
X1705562Y143002D03*
X1705562Y153002D03*
X1668562Y93002D03*
X1668562Y103002D03*
X1688562Y72002D03*
X1698562Y72002D03*
D12*
X1681562Y141002D03*
X1681562Y155002D03*
X1642562Y141002D03*
X1642562Y155002D03*
X1668562Y155002D03*
X1668562Y141002D03*
D11*
X1662562Y60002D03*
X1672562Y60002D03*
D13*
X1781562Y119335D03*
X1781562Y129749D03*
D11*
X1681562Y93002D03*
X1681562Y103002D03*
X1705562Y103002D03*
X1705562Y93002D03*
X1693562Y103002D03*
X1693562Y93002D03*
D10*
X1714062Y82502D03*
D11*
X1688562Y60002D03*
X1698562Y60002D03*
X1672562Y72002D03*
X1662562Y72002D03*
X1642562Y103002D03*
X1642562Y93002D03*
X1642562Y118002D03*
X1642562Y128002D03*
X1629562Y118002D03*
X1629562Y128002D03*
X1629562Y103002D03*
X1629562Y93002D03*
X1681562Y118002D03*
X1681562Y128002D03*
X1655562Y143002D03*
X1655562Y153002D03*
X1693562Y118002D03*
X1693562Y128002D03*
D10*
X1693662Y110002D03*
D11*
X1693562Y143002D03*
X1693562Y153002D03*
X1705562Y128002D03*
X1705562Y118002D03*
X1728062Y118102D03*
X1728062Y128102D03*
X1718562Y128002D03*
X1718562Y118002D03*
X1737562Y118102D03*
X1737562Y128102D03*
D10*
X1693562Y135002D03*
X1718562Y135002D03*
X1718562Y110002D03*
D14*
X1585562Y50002D03*
X1785562Y210002D03*
D10*
X1595562Y170002D03*
X1595562Y210002D03*
X1642562Y110002D03*
X1655562Y135002D03*
X1675562Y103002D03*
D15*
X1610462Y129702D03*
X1591462Y129702D03*
X1600962Y150702D03*
D16*
X1605962Y90602D03*
X1595962Y90602D03*
X1600962Y102102D03*
D11*
X1595962Y114302D03*
X1605962Y114302D03*
D17*
X1722912Y57252D03*
X1722912Y69952D03*
X1722912Y82652D03*
X1722912Y95352D03*
X1778412Y82652D03*
X1778412Y95352D03*
X1778412Y69952D03*
X1778412Y57252D03*
D18*
X1775562Y15352D03*
X1770562Y15352D03*
X1765562Y15352D03*
X1760562Y15352D03*
X1755562Y15352D03*
X1750562Y15352D03*
X1745562Y15352D03*
X1740562Y15352D03*
X1735562Y15352D03*
X1730562Y15352D03*
X1725562Y15352D03*
X1700562Y15352D03*
X1695562Y15352D03*
X1690562Y15352D03*
X1685562Y15352D03*
X1680562Y15352D03*
X1675562Y15352D03*
X1670562Y15352D03*
X1665562Y15352D03*
X1660562Y15352D03*
X1655562Y15352D03*
X1650562Y15352D03*
X1645562Y15352D03*
X1640562Y15352D03*
X1635562Y15352D03*
X1630562Y15352D03*
X1625562Y15352D03*
X1620562Y15352D03*
X1615562Y15352D03*
X1610562Y15352D03*
X1605562Y15352D03*
X1600562Y15352D03*
X1595562Y15352D03*
D19*
X1704562Y210102D03*
X1746562Y210102D03*
X1725562Y197102D03*
D11*
X1789062Y58102D03*
X1789062Y68102D03*
D10*
X101989Y537498D03*
D11*
X126989Y570498D03*
X126989Y580498D03*
X139989Y570498D03*
X139989Y580498D03*
X139989Y605498D03*
X139989Y595498D03*
X89989Y555498D03*
X89989Y545498D03*
X126989Y605498D03*
X126989Y595498D03*
X106989Y626498D03*
X96989Y626498D03*
D12*
X113989Y557498D03*
X113989Y543498D03*
X152989Y557498D03*
X152989Y543498D03*
X126989Y543498D03*
X126989Y557498D03*
D11*
X132989Y638498D03*
X122989Y638498D03*
D13*
X13989Y579165D03*
X13989Y568751D03*
D11*
X113989Y605498D03*
X113989Y595498D03*
X89989Y595498D03*
X89989Y605498D03*
X101989Y595498D03*
X101989Y605498D03*
D10*
X81489Y615998D03*
D11*
X106989Y638498D03*
X96989Y638498D03*
X122989Y626498D03*
X132989Y626498D03*
X152989Y595498D03*
X152989Y605498D03*
X152989Y580498D03*
X152989Y570498D03*
X165989Y580498D03*
X165989Y570498D03*
X165989Y595498D03*
X165989Y605498D03*
X113989Y580498D03*
X113989Y570498D03*
X139989Y555498D03*
X139989Y545498D03*
X101989Y580498D03*
X101989Y570498D03*
D10*
X101889Y588498D03*
D11*
X101989Y555498D03*
X101989Y545498D03*
X89989Y570498D03*
X89989Y580498D03*
X67489Y580398D03*
X67489Y570398D03*
X76989Y570498D03*
X76989Y580498D03*
X57989Y580398D03*
X57989Y570398D03*
D10*
X101989Y563498D03*
X76989Y563498D03*
X76989Y588498D03*
D14*
X209989Y648498D03*
X9989Y488498D03*
D10*
X199989Y528498D03*
X199989Y488498D03*
X152989Y588498D03*
X139989Y563498D03*
X119989Y595498D03*
D15*
X185089Y568798D03*
X204089Y568798D03*
X194589Y547798D03*
D16*
X189589Y607898D03*
X199589Y607898D03*
X194589Y596398D03*
D11*
X199589Y584198D03*
X189589Y584198D03*
D17*
X72639Y641248D03*
X72639Y628548D03*
X72639Y615848D03*
X72639Y603148D03*
X17139Y615848D03*
X17139Y603148D03*
X17139Y628548D03*
X17139Y641248D03*
D18*
X19989Y683148D03*
X24989Y683148D03*
X29989Y683148D03*
X34989Y683148D03*
X39989Y683148D03*
X44989Y683148D03*
X49989Y683148D03*
X54989Y683148D03*
X59989Y683148D03*
X64989Y683148D03*
X69989Y683148D03*
X94989Y683148D03*
X99989Y683148D03*
X104989Y683148D03*
X109989Y683148D03*
X114989Y683148D03*
X119989Y683148D03*
X124989Y683148D03*
X129989Y683148D03*
X134989Y683148D03*
X139989Y683148D03*
X144989Y683148D03*
X149989Y683148D03*
X154989Y683148D03*
X159989Y683148D03*
X164989Y683148D03*
X169989Y683148D03*
X174989Y683148D03*
X179989Y683148D03*
X184989Y683148D03*
X189989Y683148D03*
X194989Y683148D03*
X199989Y683148D03*
D19*
X90989Y488398D03*
X48989Y488398D03*
X69989Y501398D03*
D11*
X6489Y640398D03*
X6489Y630398D03*
D10*
X327084Y537498D03*
D11*
X352084Y570498D03*
X352084Y580498D03*
X365084Y570498D03*
X365084Y580498D03*
X365084Y605498D03*
X365084Y595498D03*
X315084Y555498D03*
X315084Y545498D03*
X352084Y605498D03*
X352084Y595498D03*
X332084Y626498D03*
X322084Y626498D03*
D12*
X339084Y557498D03*
X339084Y543498D03*
X378084Y557498D03*
X378084Y543498D03*
X352084Y543498D03*
X352084Y557498D03*
D11*
X358084Y638498D03*
X348084Y638498D03*
D13*
X239084Y579165D03*
X239084Y568751D03*
D11*
X339084Y605498D03*
X339084Y595498D03*
X315084Y595498D03*
X315084Y605498D03*
X327084Y595498D03*
X327084Y605498D03*
D10*
X306584Y615998D03*
D11*
X332084Y638498D03*
X322084Y638498D03*
X348084Y626498D03*
X358084Y626498D03*
X378084Y595498D03*
X378084Y605498D03*
X378084Y580498D03*
X378084Y570498D03*
X391084Y580498D03*
X391084Y570498D03*
X391084Y595498D03*
X391084Y605498D03*
X339084Y580498D03*
X339084Y570498D03*
X365084Y555498D03*
X365084Y545498D03*
X327084Y580498D03*
X327084Y570498D03*
D10*
X326984Y588498D03*
D11*
X327084Y555498D03*
X327084Y545498D03*
X315084Y570498D03*
X315084Y580498D03*
X292584Y580398D03*
X292584Y570398D03*
X302084Y570498D03*
X302084Y580498D03*
X283084Y580398D03*
X283084Y570398D03*
D10*
X327084Y563498D03*
X302084Y563498D03*
X302084Y588498D03*
D14*
X435084Y648498D03*
X235084Y488498D03*
D10*
X425084Y528498D03*
X425084Y488498D03*
X378084Y588498D03*
X365084Y563498D03*
X345084Y595498D03*
D15*
X410184Y568798D03*
X429184Y568798D03*
X419684Y547798D03*
D16*
X414684Y607898D03*
X424684Y607898D03*
X419684Y596398D03*
D11*
X424684Y584198D03*
X414684Y584198D03*
D17*
X297734Y641248D03*
X297734Y628548D03*
X297734Y615848D03*
X297734Y603148D03*
X242234Y615848D03*
X242234Y603148D03*
X242234Y628548D03*
X242234Y641248D03*
D18*
X245084Y683148D03*
X250084Y683148D03*
X255084Y683148D03*
X260084Y683148D03*
X265084Y683148D03*
X270084Y683148D03*
X275084Y683148D03*
X280084Y683148D03*
X285084Y683148D03*
X290084Y683148D03*
X295084Y683148D03*
X320084Y683148D03*
X325084Y683148D03*
X330084Y683148D03*
X335084Y683148D03*
X340084Y683148D03*
X345084Y683148D03*
X350084Y683148D03*
X355084Y683148D03*
X360084Y683148D03*
X365084Y683148D03*
X370084Y683148D03*
X375084Y683148D03*
X380084Y683148D03*
X385084Y683148D03*
X390084Y683148D03*
X395084Y683148D03*
X400084Y683148D03*
X405084Y683148D03*
X410084Y683148D03*
X415084Y683148D03*
X420084Y683148D03*
X425084Y683148D03*
D19*
X316084Y488398D03*
X274084Y488398D03*
X295084Y501398D03*
D11*
X231584Y640398D03*
X231584Y630398D03*
D10*
X552154Y537498D03*
D11*
X577154Y570498D03*
X577154Y580498D03*
X590154Y570498D03*
X590154Y580498D03*
X590154Y605498D03*
X590154Y595498D03*
X540154Y555498D03*
X540154Y545498D03*
X577154Y605498D03*
X577154Y595498D03*
X557154Y626498D03*
X547154Y626498D03*
D12*
X564154Y557498D03*
X564154Y543498D03*
X603154Y557498D03*
X603154Y543498D03*
X577154Y543498D03*
X577154Y557498D03*
D11*
X583154Y638498D03*
X573154Y638498D03*
D13*
X464154Y579165D03*
X464154Y568751D03*
D11*
X564154Y605498D03*
X564154Y595498D03*
X540154Y595498D03*
X540154Y605498D03*
X552154Y595498D03*
X552154Y605498D03*
D10*
X531654Y615998D03*
D11*
X557154Y638498D03*
X547154Y638498D03*
X573154Y626498D03*
X583154Y626498D03*
X603154Y595498D03*
X603154Y605498D03*
X603154Y580498D03*
X603154Y570498D03*
X616154Y580498D03*
X616154Y570498D03*
X616154Y595498D03*
X616154Y605498D03*
X564154Y580498D03*
X564154Y570498D03*
X590154Y555498D03*
X590154Y545498D03*
X552154Y580498D03*
X552154Y570498D03*
D10*
X552054Y588498D03*
D11*
X552154Y555498D03*
X552154Y545498D03*
X540154Y570498D03*
X540154Y580498D03*
X517654Y580398D03*
X517654Y570398D03*
X527154Y570498D03*
X527154Y580498D03*
X508154Y580398D03*
X508154Y570398D03*
D10*
X552154Y563498D03*
X527154Y563498D03*
X527154Y588498D03*
D14*
X660154Y648498D03*
X460154Y488498D03*
D10*
X650154Y528498D03*
X650154Y488498D03*
X603154Y588498D03*
X590154Y563498D03*
X570154Y595498D03*
D15*
X635254Y568798D03*
X654254Y568798D03*
X644754Y547798D03*
D16*
X639754Y607898D03*
X649754Y607898D03*
X644754Y596398D03*
D11*
X649754Y584198D03*
X639754Y584198D03*
D17*
X522804Y641248D03*
X522804Y628548D03*
X522804Y615848D03*
X522804Y603148D03*
X467304Y615848D03*
X467304Y603148D03*
X467304Y628548D03*
X467304Y641248D03*
D18*
X470154Y683148D03*
X475154Y683148D03*
X480154Y683148D03*
X485154Y683148D03*
X490154Y683148D03*
X495154Y683148D03*
X500154Y683148D03*
X505154Y683148D03*
X510154Y683148D03*
X515154Y683148D03*
X520154Y683148D03*
X545154Y683148D03*
X550154Y683148D03*
X555154Y683148D03*
X560154Y683148D03*
X565154Y683148D03*
X570154Y683148D03*
X575154Y683148D03*
X580154Y683148D03*
X585154Y683148D03*
X590154Y683148D03*
X595154Y683148D03*
X600154Y683148D03*
X605154Y683148D03*
X610154Y683148D03*
X615154Y683148D03*
X620154Y683148D03*
X625154Y683148D03*
X630154Y683148D03*
X635154Y683148D03*
X640154Y683148D03*
X645154Y683148D03*
X650154Y683148D03*
D19*
X541154Y488398D03*
X499154Y488398D03*
X520154Y501398D03*
D11*
X456654Y640398D03*
X456654Y630398D03*
D10*
X777248Y537498D03*
D11*
X802248Y570498D03*
X802248Y580498D03*
X815248Y570498D03*
X815248Y580498D03*
X815248Y605498D03*
X815248Y595498D03*
X765248Y555498D03*
X765248Y545498D03*
X802248Y605498D03*
X802248Y595498D03*
X782248Y626498D03*
X772248Y626498D03*
D12*
X789248Y557498D03*
X789248Y543498D03*
X828248Y557498D03*
X828248Y543498D03*
X802248Y543498D03*
X802248Y557498D03*
D11*
X808248Y638498D03*
X798248Y638498D03*
D13*
X689248Y579165D03*
X689248Y568751D03*
D11*
X789248Y605498D03*
X789248Y595498D03*
X765248Y595498D03*
X765248Y605498D03*
X777248Y595498D03*
X777248Y605498D03*
D10*
X756748Y615998D03*
D11*
X782248Y638498D03*
X772248Y638498D03*
X798248Y626498D03*
X808248Y626498D03*
X828248Y595498D03*
X828248Y605498D03*
X828248Y580498D03*
X828248Y570498D03*
X841248Y580498D03*
X841248Y570498D03*
X841248Y595498D03*
X841248Y605498D03*
X789248Y580498D03*
X789248Y570498D03*
X815248Y555498D03*
X815248Y545498D03*
X777248Y580498D03*
X777248Y570498D03*
D10*
X777148Y588498D03*
D11*
X777248Y555498D03*
X777248Y545498D03*
X765248Y570498D03*
X765248Y580498D03*
X742748Y580398D03*
X742748Y570398D03*
X752248Y570498D03*
X752248Y580498D03*
X733248Y580398D03*
X733248Y570398D03*
D10*
X777248Y563498D03*
X752248Y563498D03*
X752248Y588498D03*
D14*
X885248Y648498D03*
X685248Y488498D03*
D10*
X875248Y528498D03*
X875248Y488498D03*
X828248Y588498D03*
X815248Y563498D03*
X795248Y595498D03*
D15*
X860348Y568798D03*
X879348Y568798D03*
X869848Y547798D03*
D16*
X864848Y607898D03*
X874848Y607898D03*
X869848Y596398D03*
D11*
X874848Y584198D03*
X864848Y584198D03*
D17*
X747898Y641248D03*
X747898Y628548D03*
X747898Y615848D03*
X747898Y603148D03*
X692398Y615848D03*
X692398Y603148D03*
X692398Y628548D03*
X692398Y641248D03*
D18*
X695248Y683148D03*
X700248Y683148D03*
X705248Y683148D03*
X710248Y683148D03*
X715248Y683148D03*
X720248Y683148D03*
X725248Y683148D03*
X730248Y683148D03*
X735248Y683148D03*
X740248Y683148D03*
X745248Y683148D03*
X770248Y683148D03*
X775248Y683148D03*
X780248Y683148D03*
X785248Y683148D03*
X790248Y683148D03*
X795248Y683148D03*
X800248Y683148D03*
X805248Y683148D03*
X810248Y683148D03*
X815248Y683148D03*
X820248Y683148D03*
X825248Y683148D03*
X830248Y683148D03*
X835248Y683148D03*
X840248Y683148D03*
X845248Y683148D03*
X850248Y683148D03*
X855248Y683148D03*
X860248Y683148D03*
X865248Y683148D03*
X870248Y683148D03*
X875248Y683148D03*
D19*
X766248Y488398D03*
X724248Y488398D03*
X745248Y501398D03*
D11*
X681748Y640398D03*
X681748Y630398D03*
D10*
X1002318Y537498D03*
D11*
X1027318Y570498D03*
X1027318Y580498D03*
X1040318Y570498D03*
X1040318Y580498D03*
X1040318Y605498D03*
X1040318Y595498D03*
X990318Y555498D03*
X990318Y545498D03*
X1027318Y605498D03*
X1027318Y595498D03*
X1007318Y626498D03*
X997318Y626498D03*
D12*
X1014318Y557498D03*
X1014318Y543498D03*
X1053318Y557498D03*
X1053318Y543498D03*
X1027318Y543498D03*
X1027318Y557498D03*
D11*
X1033318Y638498D03*
X1023318Y638498D03*
D13*
X914318Y579165D03*
X914318Y568751D03*
D11*
X1014318Y605498D03*
X1014318Y595498D03*
X990318Y595498D03*
X990318Y605498D03*
X1002318Y595498D03*
X1002318Y605498D03*
D10*
X981818Y615998D03*
D11*
X1007318Y638498D03*
X997318Y638498D03*
X1023318Y626498D03*
X1033318Y626498D03*
X1053318Y595498D03*
X1053318Y605498D03*
X1053318Y580498D03*
X1053318Y570498D03*
X1066318Y580498D03*
X1066318Y570498D03*
X1066318Y595498D03*
X1066318Y605498D03*
X1014318Y580498D03*
X1014318Y570498D03*
X1040318Y555498D03*
X1040318Y545498D03*
X1002318Y580498D03*
X1002318Y570498D03*
D10*
X1002218Y588498D03*
D11*
X1002318Y555498D03*
X1002318Y545498D03*
X990318Y570498D03*
X990318Y580498D03*
X967818Y580398D03*
X967818Y570398D03*
X977318Y570498D03*
X977318Y580498D03*
X958318Y580398D03*
X958318Y570398D03*
D10*
X1002318Y563498D03*
X977318Y563498D03*
X977318Y588498D03*
D14*
X1110318Y648498D03*
X910318Y488498D03*
D10*
X1100318Y528498D03*
X1100318Y488498D03*
X1053318Y588498D03*
X1040318Y563498D03*
X1020318Y595498D03*
D15*
X1085418Y568798D03*
X1104418Y568798D03*
X1094918Y547798D03*
D16*
X1089918Y607898D03*
X1099918Y607898D03*
X1094918Y596398D03*
D11*
X1099918Y584198D03*
X1089918Y584198D03*
D17*
X972968Y641248D03*
X972968Y628548D03*
X972968Y615848D03*
X972968Y603148D03*
X917468Y615848D03*
X917468Y603148D03*
X917468Y628548D03*
X917468Y641248D03*
D18*
X920318Y683148D03*
X925318Y683148D03*
X930318Y683148D03*
X935318Y683148D03*
X940318Y683148D03*
X945318Y683148D03*
X950318Y683148D03*
X955318Y683148D03*
X960318Y683148D03*
X965318Y683148D03*
X970318Y683148D03*
X995318Y683148D03*
X1000318Y683148D03*
X1005318Y683148D03*
X1010318Y683148D03*
X1015318Y683148D03*
X1020318Y683148D03*
X1025318Y683148D03*
X1030318Y683148D03*
X1035318Y683148D03*
X1040318Y683148D03*
X1045318Y683148D03*
X1050318Y683148D03*
X1055318Y683148D03*
X1060318Y683148D03*
X1065318Y683148D03*
X1070318Y683148D03*
X1075318Y683148D03*
X1080318Y683148D03*
X1085318Y683148D03*
X1090318Y683148D03*
X1095318Y683148D03*
X1100318Y683148D03*
D19*
X991318Y488398D03*
X949318Y488398D03*
X970318Y501398D03*
D11*
X906818Y640398D03*
X906818Y630398D03*
D10*
X1227413Y537498D03*
D11*
X1252413Y570498D03*
X1252413Y580498D03*
X1265413Y570498D03*
X1265413Y580498D03*
X1265413Y605498D03*
X1265413Y595498D03*
X1215413Y555498D03*
X1215413Y545498D03*
X1252413Y605498D03*
X1252413Y595498D03*
X1232413Y626498D03*
X1222413Y626498D03*
D12*
X1239413Y557498D03*
X1239413Y543498D03*
X1278413Y557498D03*
X1278413Y543498D03*
X1252413Y543498D03*
X1252413Y557498D03*
D11*
X1258413Y638498D03*
X1248413Y638498D03*
D13*
X1139413Y579165D03*
X1139413Y568751D03*
D11*
X1239413Y605498D03*
X1239413Y595498D03*
X1215413Y595498D03*
X1215413Y605498D03*
X1227413Y595498D03*
X1227413Y605498D03*
D10*
X1206913Y615998D03*
D11*
X1232413Y638498D03*
X1222413Y638498D03*
X1248413Y626498D03*
X1258413Y626498D03*
X1278413Y595498D03*
X1278413Y605498D03*
X1278413Y580498D03*
X1278413Y570498D03*
X1291413Y580498D03*
X1291413Y570498D03*
X1291413Y595498D03*
X1291413Y605498D03*
X1239413Y580498D03*
X1239413Y570498D03*
X1265413Y555498D03*
X1265413Y545498D03*
X1227413Y580498D03*
X1227413Y570498D03*
D10*
X1227313Y588498D03*
D11*
X1227413Y555498D03*
X1227413Y545498D03*
X1215413Y570498D03*
X1215413Y580498D03*
X1192913Y580398D03*
X1192913Y570398D03*
X1202413Y570498D03*
X1202413Y580498D03*
X1183413Y580398D03*
X1183413Y570398D03*
D10*
X1227413Y563498D03*
X1202413Y563498D03*
X1202413Y588498D03*
D14*
X1335413Y648498D03*
X1135413Y488498D03*
D10*
X1325413Y528498D03*
X1325413Y488498D03*
X1278413Y588498D03*
X1265413Y563498D03*
X1245413Y595498D03*
D15*
X1310513Y568798D03*
X1329513Y568798D03*
X1320013Y547798D03*
D16*
X1315013Y607898D03*
X1325013Y607898D03*
X1320013Y596398D03*
D11*
X1325013Y584198D03*
X1315013Y584198D03*
D17*
X1198063Y641248D03*
X1198063Y628548D03*
X1198063Y615848D03*
X1198063Y603148D03*
X1142563Y615848D03*
X1142563Y603148D03*
X1142563Y628548D03*
X1142563Y641248D03*
D18*
X1145413Y683148D03*
X1150413Y683148D03*
X1155413Y683148D03*
X1160413Y683148D03*
X1165413Y683148D03*
X1170413Y683148D03*
X1175413Y683148D03*
X1180413Y683148D03*
X1185413Y683148D03*
X1190413Y683148D03*
X1195413Y683148D03*
X1220413Y683148D03*
X1225413Y683148D03*
X1230413Y683148D03*
X1235413Y683148D03*
X1240413Y683148D03*
X1245413Y683148D03*
X1250413Y683148D03*
X1255413Y683148D03*
X1260413Y683148D03*
X1265413Y683148D03*
X1270413Y683148D03*
X1275413Y683148D03*
X1280413Y683148D03*
X1285413Y683148D03*
X1290413Y683148D03*
X1295413Y683148D03*
X1300413Y683148D03*
X1305413Y683148D03*
X1310413Y683148D03*
X1315413Y683148D03*
X1320413Y683148D03*
X1325413Y683148D03*
D19*
X1216413Y488398D03*
X1174413Y488398D03*
X1195413Y501398D03*
D11*
X1131913Y640398D03*
X1131913Y630398D03*
D10*
X1452482Y537498D03*
D11*
X1477482Y570498D03*
X1477482Y580498D03*
X1490482Y570498D03*
X1490482Y580498D03*
X1490482Y605498D03*
X1490482Y595498D03*
X1440482Y555498D03*
X1440482Y545498D03*
X1477482Y605498D03*
X1477482Y595498D03*
X1457482Y626498D03*
X1447482Y626498D03*
D12*
X1464482Y557498D03*
X1464482Y543498D03*
X1503482Y557498D03*
X1503482Y543498D03*
X1477482Y543498D03*
X1477482Y557498D03*
D11*
X1483482Y638498D03*
X1473482Y638498D03*
D13*
X1364482Y579165D03*
X1364482Y568751D03*
D11*
X1464482Y605498D03*
X1464482Y595498D03*
X1440482Y595498D03*
X1440482Y605498D03*
X1452482Y595498D03*
X1452482Y605498D03*
D10*
X1431982Y615998D03*
D11*
X1457482Y638498D03*
X1447482Y638498D03*
X1473482Y626498D03*
X1483482Y626498D03*
X1503482Y595498D03*
X1503482Y605498D03*
X1503482Y580498D03*
X1503482Y570498D03*
X1516482Y580498D03*
X1516482Y570498D03*
X1516482Y595498D03*
X1516482Y605498D03*
X1464482Y580498D03*
X1464482Y570498D03*
X1490482Y555498D03*
X1490482Y545498D03*
X1452482Y580498D03*
X1452482Y570498D03*
D10*
X1452382Y588498D03*
D11*
X1452482Y555498D03*
X1452482Y545498D03*
X1440482Y570498D03*
X1440482Y580498D03*
X1417982Y580398D03*
X1417982Y570398D03*
X1427482Y570498D03*
X1427482Y580498D03*
X1408482Y580398D03*
X1408482Y570398D03*
D10*
X1452482Y563498D03*
X1427482Y563498D03*
X1427482Y588498D03*
D14*
X1560482Y648498D03*
X1360482Y488498D03*
D10*
X1550482Y528498D03*
X1550482Y488498D03*
X1503482Y588498D03*
X1490482Y563498D03*
X1470482Y595498D03*
D15*
X1535582Y568798D03*
X1554582Y568798D03*
X1545082Y547798D03*
D16*
X1540082Y607898D03*
X1550082Y607898D03*
X1545082Y596398D03*
D11*
X1550082Y584198D03*
X1540082Y584198D03*
D17*
X1423132Y641248D03*
X1423132Y628548D03*
X1423132Y615848D03*
X1423132Y603148D03*
X1367632Y615848D03*
X1367632Y603148D03*
X1367632Y628548D03*
X1367632Y641248D03*
D18*
X1370482Y683148D03*
X1375482Y683148D03*
X1380482Y683148D03*
X1385482Y683148D03*
X1390482Y683148D03*
X1395482Y683148D03*
X1400482Y683148D03*
X1405482Y683148D03*
X1410482Y683148D03*
X1415482Y683148D03*
X1420482Y683148D03*
X1445482Y683148D03*
X1450482Y683148D03*
X1455482Y683148D03*
X1460482Y683148D03*
X1465482Y683148D03*
X1470482Y683148D03*
X1475482Y683148D03*
X1480482Y683148D03*
X1485482Y683148D03*
X1490482Y683148D03*
X1495482Y683148D03*
X1500482Y683148D03*
X1505482Y683148D03*
X1510482Y683148D03*
X1515482Y683148D03*
X1520482Y683148D03*
X1525482Y683148D03*
X1530482Y683148D03*
X1535482Y683148D03*
X1540482Y683148D03*
X1545482Y683148D03*
X1550482Y683148D03*
D19*
X1441482Y488398D03*
X1399482Y488398D03*
X1420482Y501398D03*
D11*
X1356982Y640398D03*
X1356982Y630398D03*
D10*
X1677551Y537498D03*
D11*
X1702551Y570498D03*
X1702551Y580498D03*
X1715551Y570498D03*
X1715551Y580498D03*
X1715551Y605498D03*
X1715551Y595498D03*
X1665551Y555498D03*
X1665551Y545498D03*
X1702551Y605498D03*
X1702551Y595498D03*
X1682551Y626498D03*
X1672551Y626498D03*
D12*
X1689551Y557498D03*
X1689551Y543498D03*
X1728551Y557498D03*
X1728551Y543498D03*
X1702551Y543498D03*
X1702551Y557498D03*
D11*
X1708551Y638498D03*
X1698551Y638498D03*
D13*
X1589551Y579165D03*
X1589551Y568751D03*
D11*
X1689551Y605498D03*
X1689551Y595498D03*
X1665551Y595498D03*
X1665551Y605498D03*
X1677551Y595498D03*
X1677551Y605498D03*
D10*
X1657051Y615998D03*
D11*
X1682551Y638498D03*
X1672551Y638498D03*
X1698551Y626498D03*
X1708551Y626498D03*
X1728551Y595498D03*
X1728551Y605498D03*
X1728551Y580498D03*
X1728551Y570498D03*
X1741551Y580498D03*
X1741551Y570498D03*
X1741551Y595498D03*
X1741551Y605498D03*
X1689551Y580498D03*
X1689551Y570498D03*
X1715551Y555498D03*
X1715551Y545498D03*
X1677551Y580498D03*
X1677551Y570498D03*
D10*
X1677451Y588498D03*
D11*
X1677551Y555498D03*
X1677551Y545498D03*
X1665551Y570498D03*
X1665551Y580498D03*
X1643051Y580398D03*
X1643051Y570398D03*
X1652551Y570498D03*
X1652551Y580498D03*
X1633551Y580398D03*
X1633551Y570398D03*
D10*
X1677551Y563498D03*
X1652551Y563498D03*
X1652551Y588498D03*
D14*
X1785551Y648498D03*
X1585551Y488498D03*
D10*
X1775551Y528498D03*
X1775551Y488498D03*
X1728551Y588498D03*
X1715551Y563498D03*
X1695551Y595498D03*
D15*
X1760651Y568798D03*
X1779651Y568798D03*
X1770151Y547798D03*
D16*
X1765151Y607898D03*
X1775151Y607898D03*
X1770151Y596398D03*
D11*
X1775151Y584198D03*
X1765151Y584198D03*
D17*
X1648201Y641248D03*
X1648201Y628548D03*
X1648201Y615848D03*
X1648201Y603148D03*
X1592701Y615848D03*
X1592701Y603148D03*
X1592701Y628548D03*
X1592701Y641248D03*
D18*
X1595551Y683148D03*
X1600551Y683148D03*
X1605551Y683148D03*
X1610551Y683148D03*
X1615551Y683148D03*
X1620551Y683148D03*
X1625551Y683148D03*
X1630551Y683148D03*
X1635551Y683148D03*
X1640551Y683148D03*
X1645551Y683148D03*
X1670551Y683148D03*
X1675551Y683148D03*
X1680551Y683148D03*
X1685551Y683148D03*
X1690551Y683148D03*
X1695551Y683148D03*
X1700551Y683148D03*
X1705551Y683148D03*
X1710551Y683148D03*
X1715551Y683148D03*
X1720551Y683148D03*
X1725551Y683148D03*
X1730551Y683148D03*
X1735551Y683148D03*
X1740551Y683148D03*
X1745551Y683148D03*
X1750551Y683148D03*
X1755551Y683148D03*
X1760551Y683148D03*
X1765551Y683148D03*
X1770551Y683148D03*
X1775551Y683148D03*
D19*
X1666551Y488398D03*
X1624551Y488398D03*
X1645551Y501398D03*
D11*
X1582051Y640398D03*
X1582051Y630398D03*
D20*
X-26238Y635000D03*
X1821815Y635000D03*
D21*
X-35293Y68580D02*
X-35290Y68802D01*
X-35282Y69024D01*
X-35268Y69246D01*
X-35249Y69468D01*
X-35225Y69688D01*
X-35195Y69909D01*
X-35160Y70128D01*
X-35119Y70347D01*
X-35073Y70564D01*
X-35022Y70780D01*
X-34965Y70995D01*
X-34903Y71209D01*
X-34836Y71420D01*
X-34764Y71631D01*
X-34686Y71839D01*
X-34604Y72045D01*
X-34516Y72249D01*
X-34424Y72452D01*
X-34326Y72651D01*
X-34224Y72848D01*
X-34117Y73043D01*
X-34005Y73235D01*
X-33888Y73424D01*
X-33767Y73611D01*
X-33641Y73794D01*
X-33511Y73974D01*
X-33376Y74151D01*
X-33238Y74324D01*
X-33095Y74494D01*
X-32947Y74661D01*
X-32796Y74824D01*
X-32641Y74983D01*
X-32482Y75138D01*
X-32319Y75289D01*
X-32152Y75437D01*
X-31982Y75580D01*
X-31809Y75718D01*
X-31632Y75853D01*
X-31452Y75983D01*
X-31269Y76109D01*
X-31082Y76230D01*
X-30893Y76347D01*
X-30701Y76459D01*
X-30506Y76566D01*
X-30309Y76668D01*
X-30110Y76766D01*
X-29907Y76858D01*
X-29703Y76946D01*
X-29497Y77028D01*
X-29289Y77106D01*
X-29078Y77178D01*
X-28867Y77245D01*
X-28653Y77307D01*
X-28438Y77364D01*
X-28222Y77415D01*
X-28005Y77461D01*
X-27786Y77502D01*
X-27567Y77537D01*
X-27346Y77567D01*
X-27126Y77591D01*
X-26904Y77610D01*
X-26682Y77624D01*
X-26460Y77632D01*
X-26238Y77635D01*
X-26016Y77632D01*
X-25794Y77624D01*
X-25572Y77610D01*
X-25350Y77591D01*
X-25130Y77567D01*
X-24909Y77537D01*
X-24690Y77502D01*
X-24471Y77461D01*
X-24254Y77415D01*
X-24038Y77364D01*
X-23823Y77307D01*
X-23609Y77245D01*
X-23398Y77178D01*
X-23187Y77106D01*
X-22979Y77028D01*
X-22773Y76946D01*
X-22569Y76858D01*
X-22366Y76766D01*
X-22167Y76668D01*
X-21970Y76566D01*
X-21775Y76459D01*
X-21583Y76347D01*
X-21394Y76230D01*
X-21207Y76109D01*
X-21024Y75983D01*
X-20844Y75853D01*
X-20667Y75718D01*
X-20494Y75580D01*
X-20324Y75437D01*
X-20157Y75289D01*
X-19994Y75138D01*
X-19835Y74983D01*
X-19680Y74824D01*
X-19529Y74661D01*
X-19381Y74494D01*
X-19238Y74324D01*
X-19100Y74151D01*
X-18965Y73974D01*
X-18835Y73794D01*
X-18709Y73611D01*
X-18588Y73424D01*
X-18471Y73235D01*
X-18359Y73043D01*
X-18252Y72848D01*
X-18150Y72651D01*
X-18052Y72452D01*
X-17960Y72249D01*
X-17872Y72045D01*
X-17790Y71839D01*
X-17712Y71631D01*
X-17640Y71420D01*
X-17573Y71209D01*
X-17511Y70995D01*
X-17454Y70780D01*
X-17403Y70564D01*
X-17357Y70347D01*
X-17316Y70128D01*
X-17281Y69909D01*
X-17251Y69688D01*
X-17227Y69468D01*
X-17208Y69246D01*
X-17194Y69024D01*
X-17186Y68802D01*
X-17183Y68580D01*
X-17186Y68358D01*
X-17194Y68136D01*
X-17208Y67914D01*
X-17227Y67692D01*
X-17251Y67472D01*
X-17281Y67251D01*
X-17316Y67032D01*
X-17357Y66813D01*
X-17403Y66596D01*
X-17454Y66380D01*
X-17511Y66165D01*
X-17573Y65951D01*
X-17640Y65740D01*
X-17712Y65529D01*
X-17790Y65321D01*
X-17872Y65115D01*
X-17960Y64911D01*
X-18052Y64708D01*
X-18150Y64509D01*
X-18252Y64312D01*
X-18359Y64117D01*
X-18471Y63925D01*
X-18588Y63736D01*
X-18709Y63549D01*
X-18835Y63366D01*
X-18965Y63186D01*
X-19100Y63009D01*
X-19238Y62836D01*
X-19381Y62666D01*
X-19529Y62499D01*
X-19680Y62336D01*
X-19835Y62177D01*
X-19994Y62022D01*
X-20157Y61871D01*
X-20324Y61723D01*
X-20494Y61580D01*
X-20667Y61442D01*
X-20844Y61307D01*
X-21024Y61177D01*
X-21207Y61051D01*
X-21394Y60930D01*
X-21583Y60813D01*
X-21775Y60701D01*
X-21970Y60594D01*
X-22167Y60492D01*
X-22366Y60394D01*
X-22569Y60302D01*
X-22773Y60214D01*
X-22979Y60132D01*
X-23187Y60054D01*
X-23398Y59982D01*
X-23609Y59915D01*
X-23823Y59853D01*
X-24038Y59796D01*
X-24254Y59745D01*
X-24471Y59699D01*
X-24690Y59658D01*
X-24909Y59623D01*
X-25130Y59593D01*
X-25350Y59569D01*
X-25572Y59550D01*
X-25794Y59536D01*
X-26016Y59528D01*
X-26238Y59525D01*
X-26460Y59528D01*
X-26682Y59536D01*
X-26904Y59550D01*
X-27126Y59569D01*
X-27346Y59593D01*
X-27567Y59623D01*
X-27786Y59658D01*
X-28005Y59699D01*
X-28222Y59745D01*
X-28438Y59796D01*
X-28653Y59853D01*
X-28867Y59915D01*
X-29078Y59982D01*
X-29289Y60054D01*
X-29497Y60132D01*
X-29703Y60214D01*
X-29907Y60302D01*
X-30110Y60394D01*
X-30309Y60492D01*
X-30506Y60594D01*
X-30701Y60701D01*
X-30893Y60813D01*
X-31082Y60930D01*
X-31269Y61051D01*
X-31452Y61177D01*
X-31632Y61307D01*
X-31809Y61442D01*
X-31982Y61580D01*
X-32152Y61723D01*
X-32319Y61871D01*
X-32482Y62022D01*
X-32641Y62177D01*
X-32796Y62336D01*
X-32947Y62499D01*
X-33095Y62666D01*
X-33238Y62836D01*
X-33376Y63009D01*
X-33511Y63186D01*
X-33641Y63366D01*
X-33767Y63549D01*
X-33888Y63736D01*
X-34005Y63925D01*
X-34117Y64117D01*
X-34224Y64312D01*
X-34326Y64509D01*
X-34424Y64708D01*
X-34516Y64911D01*
X-34604Y65115D01*
X-34686Y65321D01*
X-34764Y65529D01*
X-34836Y65740D01*
X-34903Y65951D01*
X-34965Y66165D01*
X-35022Y66380D01*
X-35073Y66596D01*
X-35119Y66813D01*
X-35160Y67032D01*
X-35195Y67251D01*
X-35225Y67472D01*
X-35249Y67692D01*
X-35268Y67914D01*
X-35282Y68136D01*
X-35290Y68358D01*
X-35293Y68580D01*
D22*
X-26238Y68580D03*
M02*
