M48
;GenerationSoftware,Autodesk,EAGLE,9.6.0*%
;CreationDate,2020-04-01T16:44:02Z*%
FMAT,2
ICI,OFF
METRIC,TZ,000.000
T2C0.200
T1C3.500
%
G90
M71
T1
X164554Y47850
X15001Y22000
X37508Y22000
X60017Y22000
X82524Y22000
X105034Y22000
X127541Y22000
X150050Y22000
X172557Y22000
X6998Y47850
X29507Y47850
X52014Y47850
X74524Y47850
X97031Y47850
X119540Y47850
X142047Y47850
T2
X5761Y3590
X20301Y4500
X6051Y11650
X2981Y10780
X4980Y3219
X6051Y10300
X3161Y9750
X5478Y3227
X6051Y10900
X3443Y10258
X6076Y12365
X16242Y4250
X8620Y9191
X17999Y7222
X7421Y9388
X8961Y3100
X6651Y6450
X16282Y15419
X10701Y17219
X13716Y4123
X8591Y13600
X16511Y14532
X15311Y3119
X6761Y3250
X6686Y16281
X9601Y17200
X10382Y18181
X6992Y18310
X7215Y3342
X10001Y14250
X10061Y4050
X9320Y3831
X8051Y18810
X6051Y8340
X4764Y9003
X16803Y7420
X8601Y2690
X8158Y8680
X1401Y8650
X3501Y4850
X3982Y4919
X5372Y2759
X9246Y8265
X4724Y7136
X8651Y8350
X3016Y8400
X3301Y5600
X3701Y5300
X10981Y16010
X7801Y11000
X3307Y6523
X6097Y7112
X8601Y11000
X10601Y12900
X7701Y15750
X9401Y14700
X6151Y14550
X3401Y14900
X3601Y16600
X401Y19000
X601Y21200
X3401Y12200
X4701Y9700
X11957Y5473
X10657Y2823
X9607Y3473
X1457Y2523
X11607Y4173
X20484Y2950
X21407Y14623
X19707Y14023
X16357Y16123
X15557Y12023
X18851Y11900
X13657Y12473
X18707Y3123
X13507Y8573
X9851Y11000
X10557Y7715
X11344Y9385
X15807Y10873
X13057Y16223
X13757Y15323
X12507Y3573
X11901Y12850
X18001Y10800
X16051Y5400
X8771Y5610
X3101Y16600
X6301Y21000
X401Y19500
X1161Y11400
X20061Y3500
X1924Y2763
X10636Y17673
X10651Y11000
X19970Y11300
X9844Y8135
X4251Y16500
X8851Y18150
X18951Y7162
X11223Y10300
X18958Y10875
X9879Y10546
X3041Y9138
X11911Y10025
X10421Y5920
X7351Y10300
X7351Y11650
X17811Y3937
X4220Y21331
X9951Y11640
X11182Y12044
X13616Y10090
X11511Y3600
X13636Y10604
X11751Y2815
X11881Y14240
X12921Y12710
X13571Y11362
X5982Y17500
X2094Y20350
X6501Y19200
X6651Y17000
X1701Y18800
X801Y14000
X13147Y7142
X10601Y8400
X3201Y21200
X801Y14700
X11161Y10750
X11501Y17800
X1401Y21100
X14606Y3801
X11812Y19329
X1701Y18000
X14479Y3360
X12193Y19050
X11086Y11227
X19295Y11694
X7375Y2826
X7788Y17690
X9967Y17600
X8001Y2315
X8642Y17431
X6851Y3700
X2701Y13100
X2545Y12056
X6452Y4090
X5992Y2350
X5804Y16700
X11221Y16600
X8451Y4350
X8001Y7690
X19051Y10160
X8636Y9730
X7366Y12285
X8651Y12300
X9336Y9180
X12574Y14365
X30368Y2787
X30558Y17000
X31198Y12973
X39989Y13800
X32423Y13541
X39653Y16128
X38891Y3268
X31840Y13600
X39529Y14095
X37780Y4150
X32358Y12376
X39043Y13513
X33709Y14243
X33408Y4200
X33098Y4568
X32493Y12906
X28268Y3590
X42808Y4500
X28558Y11650
X25488Y10780
X27487Y3219
X28558Y10300
X25668Y9750
X27985Y3227
X28558Y10900
X25950Y10258
X28583Y12365
X38748Y4250
X31127Y9191
X40506Y7222
X29928Y9388
X31468Y3100
X29158Y6450
X38789Y15419
X33208Y17219
X36222Y4123
X31098Y13600
X39018Y14532
X37818Y3119
X29268Y3250
X29193Y16281
X32108Y17200
X32889Y18181
X29498Y18310
X29722Y3342
X32508Y14250
X32568Y4050
X31827Y3831
X30558Y18810
X28558Y8340
X27271Y9003
X39310Y7420
X31108Y2690
X30665Y8680
X23908Y8650
X26008Y4850
X26489Y4919
X27879Y2759
X31753Y8265
X27231Y7136
X31158Y8350
X25523Y8400
X25808Y5600
X26208Y5300
X33488Y16010
X30308Y11000
X25814Y6523
X28604Y7112
X31108Y11000
X33108Y12900
X30208Y15750
X31908Y14700
X28658Y14550
X25908Y14900
X26108Y16600
X22908Y19000
X23108Y21200
X25908Y12200
X27208Y9700
X34464Y5473
X33164Y2823
X32114Y3473
X23964Y2523
X34114Y4173
X42991Y2950
X43914Y14623
X42214Y14023
X38864Y16123
X38064Y12023
X41358Y11900
X36164Y12473
X41214Y3123
X36014Y8573
X32358Y11000
X33063Y7715
X33851Y9385
X38314Y10873
X35564Y16223
X36264Y15323
X35014Y3573
X34408Y12850
X40508Y10800
X38558Y5400
X31278Y5610
X25608Y16600
X28808Y21000
X22908Y19500
X23668Y11400
X42568Y3500
X24431Y2763
X33143Y17673
X33158Y11000
X42477Y11300
X32351Y8135
X26758Y16500
X31358Y18150
X41458Y7162
X33730Y10300
X41465Y10875
X32386Y10546
X25548Y9138
X34418Y10025
X32928Y5920
X29858Y10300
X29858Y11650
X40318Y3937
X26727Y21331
X32458Y11640
X33689Y12044
X36122Y10090
X34018Y3600
X36143Y10604
X34258Y2815
X34388Y14240
X35428Y12710
X36078Y11362
X28489Y17500
X24601Y20350
X29008Y19200
X29158Y17000
X24208Y18800
X23308Y14000
X35654Y7142
X33108Y8400
X25708Y21200
X23308Y14700
X33668Y10750
X34008Y17800
X23908Y21100
X37113Y3801
X34319Y19329
X24208Y18000
X36986Y3360
X34700Y19050
X33593Y11227
X41802Y11694
X29882Y2826
X30295Y17690
X32473Y17600
X30508Y2315
X31149Y17431
X29358Y3700
X25208Y13100
X25052Y12056
X28959Y4090
X28498Y2350
X28311Y16700
X33728Y16600
X30958Y4350
X30508Y7690
X41558Y10160
X31143Y9730
X29873Y12285
X31158Y12300
X31843Y9180
X35081Y14365
X52877Y2787
X53067Y17000
X53708Y12973
X62498Y13800
X54933Y13541
X62163Y16128
X61400Y3268
X54350Y13600
X62038Y14095
X60290Y4150
X54868Y12376
X61552Y13513
X56219Y14243
X55917Y4200
X55608Y4568
X55002Y12906
X50777Y3590
X65317Y4500
X51067Y11650
X47997Y10780
X49996Y3219
X51067Y10300
X48177Y9750
X50494Y3227
X51067Y10900
X48459Y10258
X51093Y12365
X61258Y4250
X53637Y9191
X63016Y7222
X52437Y9388
X53977Y3100
X51667Y6450
X61299Y15419
X55717Y17219
X58732Y4123
X53608Y13600
X61527Y14532
X60327Y3119
X51777Y3250
X51702Y16281
X54617Y17200
X55399Y18181
X52008Y18310
X52231Y3342
X55017Y14250
X55077Y4050
X54336Y3831
X53067Y18810
X51067Y8340
X49780Y9003
X61819Y7420
X53617Y2690
X53175Y8680
X46417Y8650
X48517Y4850
X48999Y4919
X50389Y2759
X54262Y8265
X49741Y7136
X53667Y8350
X48032Y8400
X48317Y5600
X48717Y5300
X55997Y16010
X52817Y11000
X48323Y6523
X51113Y7112
X53617Y11000
X55617Y12900
X52717Y15750
X54417Y14700
X51167Y14550
X48417Y14900
X48617Y16600
X45417Y19000
X45617Y21200
X48417Y12200
X49717Y9700
X56973Y5473
X55673Y2823
X54623Y3473
X46473Y2523
X56623Y4173
X65500Y2950
X66423Y14623
X64723Y14023
X61373Y16123
X60573Y12023
X63867Y11900
X58673Y12473
X63723Y3123
X58523Y8573
X54867Y11000
X55573Y7715
X56360Y9385
X60823Y10873
X58073Y16223
X58773Y15323
X57523Y3573
X56917Y12850
X63017Y10800
X61067Y5400
X53787Y5610
X48117Y16600
X51317Y21000
X45417Y19500
X46177Y11400
X65077Y3500
X46940Y2763
X55653Y17673
X55667Y11000
X64987Y11300
X54860Y8135
X49267Y16500
X53867Y18150
X63967Y7162
X56239Y10300
X63974Y10875
X54895Y10546
X48057Y9138
X56927Y10025
X55437Y5920
X52367Y10300
X52367Y11650
X62827Y3937
X49236Y21331
X54967Y11640
X56198Y12044
X58632Y10090
X56527Y3600
X58652Y10604
X56767Y2815
X56898Y14240
X57937Y12710
X58587Y11362
X50998Y17500
X47110Y20350
X51517Y19200
X51667Y17000
X46717Y18800
X45817Y14000
X58164Y7142
X55617Y8400
X48217Y21200
X45817Y14700
X56177Y10750
X56517Y17800
X46417Y21100
X59622Y3801
X56828Y19329
X46717Y18000
X59495Y3360
X57209Y19050
X56102Y11227
X64311Y11694
X52392Y2826
X52805Y17690
X54983Y17600
X53017Y2315
X53659Y17431
X51867Y3700
X47717Y13100
X47561Y12056
X51468Y4090
X51008Y2350
X50821Y16700
X56237Y16600
X53467Y4350
X53017Y7690
X64067Y10160
X53652Y9730
X52382Y12285
X53667Y12300
X54352Y9180
X57590Y14365
X75384Y2787
X75574Y17000
X76215Y12973
X85005Y13800
X77440Y13541
X84669Y16128
X83907Y3268
X76857Y13600
X84545Y14095
X82797Y4150
X77375Y12376
X84059Y13513
X78725Y14243
X78424Y4200
X78115Y4568
X77509Y12906
X73284Y3590
X87824Y4500
X73574Y11650
X70504Y10780
X72503Y3219
X73574Y10300
X70684Y9750
X73001Y3227
X73574Y10900
X70966Y10258
X73600Y12365
X83765Y4250
X76144Y9191
X85523Y7222
X74944Y9388
X76484Y3100
X74174Y6450
X83806Y15419
X78224Y17219
X81239Y4123
X76115Y13600
X84034Y14532
X82834Y3119
X74284Y3250
X74209Y16281
X77124Y17200
X77906Y18181
X74515Y18310
X74738Y3342
X77524Y14250
X77584Y4050
X76843Y3831
X75574Y18810
X73574Y8340
X72287Y9003
X84326Y7420
X76124Y2690
X75682Y8680
X68924Y8650
X71024Y4850
X71506Y4919
X72896Y2759
X76769Y8265
X72248Y7136
X76174Y8350
X70539Y8400
X70824Y5600
X71224Y5300
X78504Y16010
X75324Y11000
X70830Y6523
X73620Y7112
X76124Y11000
X78124Y12900
X75224Y15750
X76924Y14700
X73674Y14550
X70924Y14900
X71124Y16600
X67924Y19000
X68124Y21200
X70924Y12200
X72224Y9700
X79480Y5473
X78180Y2823
X77130Y3473
X68980Y2523
X79130Y4173
X88007Y2950
X88930Y14623
X87230Y14023
X83880Y16123
X83080Y12023
X86374Y11900
X81180Y12473
X86230Y3123
X81030Y8573
X77374Y11000
X78080Y7715
X78867Y9385
X83330Y10873
X80580Y16223
X81280Y15323
X80030Y3573
X79424Y12850
X85524Y10800
X83574Y5400
X76294Y5610
X70624Y16600
X73824Y21000
X67924Y19500
X68684Y11400
X87584Y3500
X69447Y2763
X78160Y17673
X78174Y11000
X87494Y11300
X77367Y8135
X71774Y16500
X76374Y18150
X86474Y7162
X78746Y10300
X86481Y10875
X77402Y10546
X70564Y9138
X79434Y10025
X77944Y5920
X74874Y10300
X74874Y11650
X85334Y3937
X71743Y21331
X77474Y11640
X78705Y12044
X81139Y10090
X79034Y3600
X81159Y10604
X79274Y2815
X79405Y14240
X80444Y12710
X81094Y11362
X73505Y17500
X69617Y20350
X74024Y19200
X74174Y17000
X69224Y18800
X68324Y14000
X80671Y7142
X78124Y8400
X70724Y21200
X68324Y14700
X78684Y10750
X79024Y17800
X68924Y21100
X82129Y3801
X79335Y19329
X69224Y18000
X82002Y3360
X79716Y19050
X78609Y11227
X86818Y11694
X74899Y2826
X75312Y17690
X77490Y17600
X75524Y2315
X76166Y17431
X74374Y3700
X70224Y13100
X70068Y12056
X73975Y4090
X73515Y2350
X73328Y16700
X78744Y16600
X75974Y4350
X75524Y7690
X86574Y10160
X76159Y9730
X74889Y12285
X76174Y12300
X76859Y9180
X80097Y14365
X97893Y2787
X98084Y17000
X98724Y12973
X107515Y13800
X99949Y13541
X107179Y16128
X106417Y3268
X99366Y13600
X107055Y14095
X105306Y4150
X99884Y12376
X106569Y13513
X101235Y14243
X100934Y4200
X100624Y4568
X100019Y12906
X95793Y3590
X110334Y4500
X96084Y11650
X93014Y10780
X95012Y3219
X96084Y10300
X93194Y9750
X95511Y3227
X96084Y10900
X93476Y10258
X96109Y12365
X106274Y4250
X98653Y9191
X108032Y7222
X97454Y9388
X98993Y3100
X96684Y6450
X106315Y15419
X100734Y17219
X103748Y4123
X98624Y13600
X106543Y14532
X105343Y3119
X96793Y3250
X96718Y16281
X99634Y17200
X100415Y18181
X97024Y18310
X97247Y3342
X100034Y14250
X100093Y4050
X99353Y3831
X98084Y18810
X96084Y8340
X94797Y9003
X106836Y7420
X98634Y2690
X98191Y8680
X91434Y8650
X93534Y4850
X94015Y4919
X95405Y2759
X99278Y8265
X94757Y7136
X98684Y8350
X93049Y8400
X93334Y5600
X93734Y5300
X101013Y16010
X97834Y11000
X93340Y6523
X96130Y7112
X98634Y11000
X100634Y12900
X97734Y15750
X99434Y14700
X96184Y14550
X93434Y14900
X93634Y16600
X90434Y19000
X90634Y21200
X93434Y12200
X94734Y9700
X101990Y5473
X100690Y2823
X99640Y3473
X91490Y2523
X101640Y4173
X110517Y2950
X111440Y14623
X109740Y14023
X106390Y16123
X105590Y12023
X108884Y11900
X103690Y12473
X108740Y3123
X103540Y8573
X99884Y11000
X100589Y7715
X101377Y9385
X105840Y10873
X103090Y16223
X103790Y15323
X102540Y3573
X101934Y12850
X108034Y10800
X106084Y5400
X98804Y5610
X93134Y16600
X96334Y21000
X90434Y19500
X91194Y11400
X110094Y3500
X91957Y2763
X100669Y17673
X100684Y11000
X110003Y11300
X99877Y8135
X94284Y16500
X98884Y18150
X108984Y7162
X101256Y10300
X108991Y10875
X99912Y10546
X93074Y9138
X101944Y10025
X100454Y5920
X97384Y10300
X97384Y11650
X107843Y3937
X94253Y21331
X99984Y11640
X101214Y12044
X103648Y10090
X101543Y3600
X103669Y10604
X101784Y2815
X101914Y14240
X102954Y12710
X103604Y11362
X96015Y17500
X92127Y20350
X96534Y19200
X96684Y17000
X91734Y18800
X90834Y14000
X103180Y7142
X100634Y8400
X93234Y21200
X90834Y14700
X101193Y10750
X101534Y17800
X91434Y21100
X104639Y3801
X101845Y19329
X91734Y18000
X104512Y3360
X102226Y19050
X101119Y11227
X109328Y11694
X97408Y2826
X97821Y17690
X99999Y17600
X98034Y2315
X98675Y17431
X96884Y3700
X92734Y13100
X92578Y12056
X96485Y4090
X96024Y2350
X95837Y16700
X101254Y16600
X98484Y4350
X98034Y7690
X109084Y10160
X98669Y9730
X97399Y12285
X98684Y12300
X99369Y9180
X102607Y14365
X120400Y2787
X120591Y17000
X121231Y12973
X130022Y13800
X122456Y13541
X129686Y16128
X128924Y3268
X121873Y13600
X129561Y14095
X127813Y4150
X122391Y12376
X129076Y13513
X123742Y14243
X123441Y4200
X123131Y4568
X122526Y12906
X118300Y3590
X132841Y4500
X118591Y11650
X115521Y10780
X117519Y3219
X118591Y10300
X115700Y9750
X118018Y3227
X118591Y10900
X115983Y10258
X118616Y12365
X128781Y4250
X121160Y9191
X130539Y7222
X119961Y9388
X121500Y3100
X119191Y6450
X128822Y15419
X123241Y17219
X126255Y4123
X121131Y13600
X129050Y14532
X127850Y3119
X119300Y3250
X119225Y16281
X122141Y17200
X122922Y18181
X119531Y18310
X119754Y3342
X122541Y14250
X122600Y4050
X121860Y3831
X120591Y18810
X118591Y8340
X117304Y9003
X129342Y7420
X121141Y2690
X120698Y8680
X113941Y8650
X116041Y4850
X116522Y4919
X117912Y2759
X121785Y8265
X117264Y7136
X121191Y8350
X115556Y8400
X115841Y5600
X116241Y5300
X123520Y16010
X120341Y11000
X115847Y6523
X118637Y7112
X121141Y11000
X123141Y12900
X120241Y15750
X121941Y14700
X118691Y14550
X115941Y14900
X116141Y16600
X112941Y19000
X113141Y21200
X115941Y12200
X117241Y9700
X124497Y5473
X123197Y2823
X122147Y3473
X113997Y2523
X124147Y4173
X133024Y2950
X133947Y14623
X132247Y14023
X128897Y16123
X128097Y12023
X131391Y11900
X126197Y12473
X131247Y3123
X126047Y8573
X122391Y11000
X123096Y7715
X123884Y9385
X128347Y10873
X125597Y16223
X126297Y15323
X125047Y3573
X124441Y12850
X130541Y10800
X128591Y5400
X121311Y5610
X115641Y16600
X118841Y21000
X112941Y19500
X113701Y11400
X132601Y3500
X114463Y2763
X123176Y17673
X123191Y11000
X132510Y11300
X122384Y8135
X116791Y16500
X121391Y18150
X131491Y7162
X123763Y10300
X131498Y10875
X122419Y10546
X115581Y9138
X124451Y10025
X122961Y5920
X119891Y10300
X119891Y11650
X130350Y3937
X116760Y21331
X122491Y11640
X123721Y12044
X126155Y10090
X124050Y3600
X126176Y10604
X124291Y2815
X124421Y14240
X125461Y12710
X126111Y11362
X118522Y17500
X114634Y20350
X119041Y19200
X119191Y17000
X114241Y18800
X113341Y14000
X125687Y7142
X123141Y8400
X115741Y21200
X113341Y14700
X123700Y10750
X124041Y17800
X113941Y21100
X127146Y3801
X124352Y19329
X114241Y18000
X127019Y3360
X124733Y19050
X123626Y11227
X131835Y11694
X119915Y2826
X120328Y17690
X122506Y17600
X120541Y2315
X121182Y17431
X119391Y3700
X115241Y13100
X115085Y12056
X118992Y4090
X118531Y2350
X118344Y16700
X123761Y16600
X120991Y4350
X120541Y7690
X131591Y10160
X121176Y9730
X119906Y12285
X121191Y12300
X121876Y9180
X125114Y14365
X142910Y2787
X143100Y17000
X143741Y12973
X152531Y13800
X144966Y13541
X152195Y16128
X151433Y3268
X144383Y13600
X152071Y14095
X150322Y4150
X144901Y12376
X151585Y13513
X146251Y14243
X145950Y4200
X145641Y4568
X145035Y12906
X140810Y3590
X155350Y4500
X141100Y11650
X138030Y10780
X140029Y3219
X141100Y10300
X138210Y9750
X140527Y3227
X141100Y10900
X138492Y10258
X141125Y12365
X151291Y4250
X143669Y9191
X153049Y7222
X142470Y9388
X144010Y3100
X141700Y6450
X151331Y15419
X145750Y17219
X148765Y4123
X143641Y13600
X151560Y14532
X150360Y3119
X141810Y3250
X141735Y16281
X144650Y17200
X145431Y18181
X142041Y18310
X142264Y3342
X145050Y14250
X145110Y4050
X144369Y3831
X143100Y18810
X141100Y8340
X139813Y9003
X151852Y7420
X143650Y2690
X143207Y8680
X136450Y8650
X138550Y4850
X139031Y4919
X140422Y2759
X144295Y8265
X139774Y7136
X143700Y8350
X138065Y8400
X138350Y5600
X138750Y5300
X146030Y16010
X142850Y11000
X138356Y6523
X141146Y7112
X143650Y11000
X145650Y12900
X142750Y15750
X144450Y14700
X141200Y14550
X138450Y14900
X138650Y16600
X135450Y19000
X135650Y21200
X138450Y12200
X139750Y9700
X147006Y5473
X145706Y2823
X144656Y3473
X136506Y2523
X146656Y4173
X155533Y2950
X156456Y14623
X154756Y14023
X151406Y16123
X150606Y12023
X153900Y11900
X148706Y12473
X153756Y3123
X148556Y8573
X144900Y11000
X145606Y7715
X146393Y9385
X150856Y10873
X148106Y16223
X148806Y15323
X147556Y3573
X146950Y12850
X153050Y10800
X151100Y5400
X143820Y5610
X138150Y16600
X141350Y21000
X135450Y19500
X136210Y11400
X155110Y3500
X136973Y2763
X145686Y17673
X145700Y11000
X155019Y11300
X144893Y8135
X139300Y16500
X143900Y18150
X154000Y7162
X146272Y10300
X154007Y10875
X144928Y10546
X138090Y9138
X146960Y10025
X145470Y5920
X142400Y10300
X142400Y11650
X152860Y3937
X139269Y21331
X145000Y11640
X146231Y12044
X148665Y10090
X146560Y3600
X148685Y10604
X146800Y2815
X146931Y14240
X147970Y12710
X148620Y11362
X141031Y17500
X137143Y20350
X141550Y19200
X141700Y17000
X136750Y18800
X135850Y14000
X148196Y7142
X145650Y8400
X138250Y21200
X135850Y14700
X146210Y10750
X146550Y17800
X136450Y21100
X149655Y3801
X146861Y19329
X136750Y18000
X149528Y3360
X147242Y19050
X146135Y11227
X154344Y11694
X142424Y2826
X142838Y17690
X145016Y17600
X143050Y2315
X143692Y17431
X141900Y3700
X137750Y13100
X137594Y12056
X141501Y4090
X141041Y2350
X140853Y16700
X146270Y16600
X143500Y4350
X143050Y7690
X154100Y10160
X143685Y9730
X142415Y12285
X143700Y12300
X144385Y9180
X147623Y14365
X165417Y2787
X165607Y17000
X166248Y12973
X175038Y13800
X167473Y13541
X174702Y16128
X173940Y3268
X166890Y13600
X174578Y14095
X172829Y4150
X167408Y12376
X174092Y13513
X168758Y14243
X168457Y4200
X168148Y4568
X167542Y12906
X163317Y3590
X177857Y4500
X163607Y11650
X160537Y10780
X162536Y3219
X163607Y10300
X160717Y9750
X163034Y3227
X163607Y10900
X160999Y10258
X163632Y12365
X173798Y4250
X166176Y9191
X175556Y7222
X164977Y9388
X166517Y3100
X164207Y6450
X173838Y15419
X168257Y17219
X171272Y4123
X166148Y13600
X174067Y14532
X172867Y3119
X164317Y3250
X164242Y16281
X167157Y17200
X167938Y18181
X164548Y18310
X164771Y3342
X167557Y14250
X167617Y4050
X166876Y3831
X165607Y18810
X163607Y8340
X162320Y9003
X174359Y7420
X166157Y2690
X165714Y8680
X158957Y8650
X161057Y4850
X161538Y4919
X162929Y2759
X166802Y8265
X162281Y7136
X166207Y8350
X160572Y8400
X160857Y5600
X161257Y5300
X168537Y16010
X165357Y11000
X160863Y6523
X163653Y7112
X166157Y11000
X168157Y12900
X165257Y15750
X166957Y14700
X163707Y14550
X160957Y14900
X161157Y16600
X157957Y19000
X158157Y21200
X160957Y12200
X162257Y9700
X169513Y5473
X168213Y2823
X167163Y3473
X159013Y2523
X169163Y4173
X178040Y2950
X178963Y14623
X177263Y14023
X173913Y16123
X173113Y12023
X176407Y11900
X171213Y12473
X176263Y3123
X171063Y8573
X167407Y11000
X168113Y7715
X168900Y9385
X173363Y10873
X170613Y16223
X171313Y15323
X170063Y3573
X169457Y12850
X175557Y10800
X173607Y5400
X166327Y5610
X160657Y16600
X163857Y21000
X157957Y19500
X158717Y11400
X177617Y3500
X159480Y2763
X168193Y17673
X168207Y11000
X177526Y11300
X167400Y8135
X161807Y16500
X166407Y18150
X176507Y7162
X168779Y10300
X176514Y10875
X167435Y10546
X160597Y9138
X169467Y10025
X167977Y5920
X164907Y10300
X164907Y11650
X175367Y3937
X161776Y21331
X167507Y11640
X168738Y12044
X171172Y10090
X169067Y3600
X171192Y10604
X169307Y2815
X169437Y14240
X170477Y12710
X171127Y11362
X163538Y17500
X159650Y20350
X164057Y19200
X164207Y17000
X159257Y18800
X158357Y14000
X170703Y7142
X168157Y8400
X160757Y21200
X158357Y14700
X168717Y10750
X169057Y17800
X158957Y21100
X172162Y3801
X169368Y19329
X159257Y18000
X172035Y3360
X169749Y19050
X168642Y11227
X176851Y11694
X164931Y2826
X165345Y17690
X167523Y17600
X165557Y2315
X166199Y17431
X164407Y3700
X160257Y13100
X160101Y12056
X164008Y4090
X163548Y2350
X163360Y16700
X168777Y16600
X166007Y4350
X165557Y7690
X176607Y10160
X166192Y9730
X164922Y12285
X166207Y12300
X166892Y9180
X170130Y14365
X14138Y67063
X13948Y52850
X13307Y56877
X4517Y56050
X12083Y56309
X4853Y53722
X5615Y66582
X12666Y56250
X4977Y55755
X6726Y65700
X12147Y57474
X5463Y56337
X10797Y55607
X11098Y65650
X11407Y65282
X12013Y56944
X16238Y66260
X1698Y65350
X15948Y58200
X19018Y59070
X17019Y66631
X15948Y59550
X18838Y60100
X16521Y66623
X15948Y58950
X18556Y59592
X15923Y57485
X5757Y65600
X13379Y60659
X4000Y62628
X14578Y60462
X13038Y66750
X15348Y63400
X5717Y54431
X11298Y52631
X8283Y65727
X13408Y56250
X5488Y55318
X6688Y66731
X15238Y66600
X15313Y53569
X12398Y52650
X11617Y51669
X15007Y51540
X14784Y66508
X11998Y55600
X11938Y65800
X12679Y66019
X13948Y51040
X15948Y61510
X17235Y60847
X5196Y62430
X13398Y67160
X13841Y61170
X20598Y61200
X18498Y65000
X18017Y64931
X16627Y67091
X12753Y61585
X17275Y62714
X13348Y61500
X18983Y61450
X18698Y64250
X18298Y64550
X11018Y53840
X14198Y58850
X18692Y63327
X15902Y62738
X13398Y58850
X11398Y56950
X14298Y54100
X12598Y55150
X15848Y55300
X18598Y54950
X18398Y53250
X21598Y50850
X21398Y48650
X18598Y57650
X17298Y60150
X10042Y64377
X11342Y67027
X12392Y66377
X20542Y67327
X10392Y65677
X1515Y66900
X592Y55227
X2292Y55827
X5642Y53727
X6442Y57827
X3148Y57950
X8342Y57377
X3292Y66727
X8492Y61277
X12148Y58850
X11442Y62135
X10655Y60465
X6192Y58977
X8942Y53627
X8242Y54527
X9492Y66277
X10098Y57000
X3998Y59050
X5948Y64450
X13228Y64240
X18898Y53250
X15698Y48850
X21598Y50350
X20838Y58450
X1938Y66350
X20075Y67087
X11363Y52177
X11348Y58850
X2029Y58550
X12155Y61715
X17748Y53350
X13148Y51700
X3048Y62688
X10776Y59550
X3041Y58975
X12120Y59304
X18958Y60712
X10088Y59825
X11578Y63930
X14648Y59550
X14648Y58200
X4188Y65913
X17779Y48519
X12048Y58210
X10817Y57806
X8383Y59760
X10488Y66250
X8363Y59246
X10248Y67035
X10118Y55610
X9078Y57140
X8428Y58488
X16017Y52350
X19905Y49500
X15498Y50650
X15348Y52850
X20298Y51050
X21198Y55850
X8852Y62708
X11398Y61450
X18798Y48650
X21198Y55150
X10838Y59100
X10498Y52050
X20598Y48750
X7393Y66049
X10187Y50521
X20298Y51850
X7520Y66490
X9806Y50800
X10913Y58623
X2704Y58156
X14624Y67024
X14211Y52160
X12032Y52250
X13998Y67535
X13357Y52419
X15148Y66150
X19298Y56750
X19454Y57794
X15547Y65760
X16007Y67500
X16195Y53150
X10778Y53250
X13548Y65500
X13998Y62160
X2948Y59690
X13363Y60120
X14633Y57565
X13348Y57550
X12663Y60670
X9425Y55485
X36648Y67063
X36457Y52850
X35817Y56877
X27026Y56050
X34592Y56309
X27362Y53722
X28124Y66582
X35175Y56250
X27487Y55755
X29235Y65700
X34657Y57474
X27972Y56337
X33306Y55607
X33607Y65650
X33917Y65282
X34523Y56944
X38748Y66260
X24207Y65350
X38457Y58200
X41528Y59070
X39529Y66631
X38457Y59550
X41348Y60100
X39030Y66623
X38457Y58950
X41065Y59592
X38432Y57485
X28267Y65600
X35888Y60659
X26509Y62628
X37087Y60462
X35548Y66750
X37857Y63400
X28226Y54431
X33807Y52631
X30793Y65727
X35917Y56250
X27998Y55318
X29198Y66731
X37748Y66600
X37823Y53569
X34907Y52650
X34126Y51669
X37517Y51540
X37294Y66508
X34507Y55600
X34448Y65800
X35188Y66019
X36457Y51040
X38457Y61510
X39745Y60847
X27706Y62430
X35907Y67160
X36350Y61170
X43107Y61200
X41007Y65000
X40526Y64931
X39136Y67091
X35263Y61585
X39784Y62714
X35857Y61500
X41492Y61450
X41207Y64250
X40807Y64550
X33528Y53840
X36707Y58850
X41201Y63327
X38411Y62738
X35907Y58850
X33907Y56950
X36807Y54100
X35107Y55150
X38357Y55300
X41107Y54950
X40907Y53250
X44107Y50850
X43907Y48650
X41107Y57650
X39807Y60150
X32551Y64377
X33851Y67027
X34901Y66377
X43051Y67327
X32901Y65677
X24024Y66900
X23101Y55227
X24801Y55827
X28151Y53727
X28951Y57827
X25657Y57950
X30851Y57377
X25801Y66727
X31001Y61277
X34657Y58850
X33952Y62135
X33164Y60465
X28701Y58977
X31451Y53627
X30751Y54527
X32001Y66277
X32607Y57000
X26507Y59050
X28457Y64450
X35738Y64240
X41407Y53250
X38207Y48850
X44107Y50350
X43347Y58450
X24447Y66350
X42585Y67087
X33872Y52177
X33857Y58850
X24538Y58550
X34664Y61715
X40257Y53350
X35657Y51700
X25557Y62688
X33285Y59550
X25550Y58975
X34630Y59304
X41467Y60712
X32597Y59825
X34087Y63930
X37157Y59550
X37157Y58200
X26698Y65913
X40288Y48519
X34558Y58210
X33327Y57806
X30893Y59760
X32998Y66250
X30872Y59246
X32757Y67035
X32627Y55610
X31587Y57140
X30937Y58488
X38526Y52350
X42414Y49500
X38007Y50650
X37857Y52850
X42807Y51050
X43707Y55850
X31361Y62708
X33907Y61450
X41307Y48650
X43707Y55150
X33348Y59100
X33007Y52050
X43107Y48750
X29902Y66049
X32696Y50521
X42807Y51850
X30029Y66490
X32315Y50800
X33422Y58623
X25213Y58156
X37133Y67024
X36720Y52160
X34542Y52250
X36507Y67535
X35866Y52419
X37657Y66150
X41807Y56750
X41963Y57794
X38057Y65760
X38517Y67500
X38704Y53150
X33287Y53250
X36057Y65500
X36507Y62160
X25457Y59690
X35872Y60120
X37142Y57565
X35857Y57550
X35172Y60670
X31934Y55485
X59155Y67063
X58964Y52850
X58324Y56877
X49533Y56050
X57099Y56309
X49869Y53722
X50631Y66582
X57682Y56250
X49994Y55755
X51742Y65700
X57164Y57474
X50479Y56337
X55813Y55607
X56114Y65650
X56424Y65282
X57030Y56944
X61255Y66260
X46714Y65350
X60964Y58200
X64034Y59070
X62036Y66631
X60964Y59550
X63855Y60100
X61537Y66623
X60964Y58950
X63572Y59592
X60939Y57485
X50774Y65600
X58395Y60659
X49016Y62628
X59594Y60462
X58055Y66750
X60364Y63400
X50733Y54431
X56314Y52631
X53300Y65727
X58424Y56250
X50505Y55318
X51705Y66731
X60255Y66600
X60330Y53569
X57414Y52650
X56633Y51669
X60024Y51540
X59801Y66508
X57014Y55600
X56955Y65800
X57695Y66019
X58964Y51040
X60964Y61510
X62251Y60847
X50213Y62430
X58414Y67160
X58857Y61170
X65614Y61200
X63514Y65000
X63033Y64931
X61643Y67091
X57770Y61585
X62291Y62714
X58364Y61500
X63999Y61450
X63714Y64250
X63314Y64550
X56035Y53840
X59214Y58850
X63708Y63327
X60918Y62738
X58414Y58850
X56414Y56950
X59314Y54100
X57614Y55150
X60864Y55300
X63614Y54950
X63414Y53250
X66614Y50850
X66414Y48650
X63614Y57650
X62314Y60150
X55058Y64377
X56358Y67027
X57408Y66377
X65558Y67327
X55408Y65677
X46531Y66900
X45608Y55227
X47308Y55827
X50658Y53727
X51458Y57827
X48164Y57950
X53358Y57377
X48308Y66727
X53508Y61277
X57164Y58850
X56459Y62135
X55671Y60465
X51208Y58977
X53958Y53627
X53258Y54527
X54508Y66277
X55114Y57000
X49014Y59050
X50964Y64450
X58244Y64240
X63914Y53250
X60714Y48850
X66614Y50350
X65854Y58450
X46954Y66350
X65092Y67087
X56379Y52177
X56364Y58850
X47045Y58550
X57171Y61715
X62764Y53350
X58164Y51700
X48064Y62688
X55792Y59550
X48057Y58975
X57136Y59304
X63974Y60712
X55104Y59825
X56594Y63930
X59664Y59550
X59664Y58200
X49205Y65913
X62795Y48519
X57064Y58210
X55834Y57806
X53400Y59760
X55505Y66250
X53379Y59246
X55264Y67035
X55134Y55610
X54094Y57140
X53444Y58488
X61033Y52350
X64921Y49500
X60514Y50650
X60364Y52850
X65314Y51050
X66214Y55850
X53868Y62708
X56414Y61450
X63814Y48650
X66214Y55150
X55855Y59100
X55514Y52050
X65614Y48750
X52409Y66049
X55203Y50521
X65314Y51850
X52536Y66490
X54822Y50800
X55929Y58623
X47720Y58156
X59640Y67024
X59227Y52160
X57049Y52250
X59014Y67535
X58373Y52419
X60164Y66150
X64314Y56750
X64470Y57794
X60563Y65760
X61024Y67500
X61211Y53150
X55794Y53250
X58564Y65500
X59014Y62160
X47964Y59690
X58379Y60120
X59649Y57565
X58364Y57550
X57679Y60670
X54441Y55485
X81664Y67063
X81474Y52850
X80833Y56877
X72043Y56050
X79608Y56309
X72379Y53722
X73141Y66582
X80191Y56250
X72503Y55755
X74252Y65700
X79673Y57474
X72989Y56337
X78323Y55607
X78624Y65650
X78933Y65282
X79539Y56944
X83764Y66260
X69224Y65350
X83474Y58200
X86544Y59070
X84545Y66631
X83474Y59550
X86364Y60100
X84047Y66623
X83474Y58950
X86082Y59592
X83449Y57485
X73283Y65600
X80905Y60659
X71525Y62628
X82104Y60462
X80564Y66750
X82874Y63400
X73243Y54431
X78824Y52631
X75809Y65727
X80933Y56250
X73014Y55318
X74214Y66731
X82764Y66600
X82839Y53569
X79924Y52650
X79143Y51669
X82533Y51540
X82310Y66508
X79524Y55600
X79464Y65800
X80205Y66019
X81474Y51040
X83474Y61510
X84761Y60847
X72722Y62430
X80924Y67160
X81367Y61170
X88124Y61200
X86024Y65000
X85543Y64931
X84152Y67091
X80279Y61585
X84800Y62714
X80874Y61500
X86509Y61450
X86224Y64250
X85824Y64550
X78544Y53840
X81724Y58850
X86218Y63327
X83428Y62738
X80924Y58850
X78924Y56950
X81824Y54100
X80124Y55150
X83374Y55300
X86124Y54950
X85924Y53250
X89124Y50850
X88924Y48650
X86124Y57650
X84824Y60150
X77568Y64377
X78868Y67027
X79918Y66377
X88068Y67327
X77918Y65677
X69041Y66900
X68118Y55227
X69818Y55827
X73168Y53727
X73968Y57827
X70674Y57950
X75868Y57377
X70818Y66727
X76018Y61277
X79674Y58850
X78968Y62135
X78181Y60465
X73718Y58977
X76468Y53627
X75768Y54527
X77018Y66277
X77624Y57000
X71524Y59050
X73474Y64450
X80754Y64240
X86424Y53250
X83224Y48850
X89124Y50350
X88364Y58450
X69464Y66350
X87601Y67087
X78888Y52177
X78874Y58850
X69555Y58550
X79681Y61715
X85274Y53350
X80674Y51700
X70574Y62688
X78302Y59550
X70567Y58975
X79646Y59304
X86484Y60712
X77614Y59825
X79104Y63930
X82174Y59550
X82174Y58200
X71714Y65913
X85305Y48519
X79574Y58210
X78343Y57806
X75909Y59760
X78014Y66250
X75889Y59246
X77774Y67035
X77644Y55610
X76604Y57140
X75954Y58488
X83543Y52350
X87431Y49500
X83024Y50650
X82874Y52850
X87824Y51050
X88724Y55850
X76378Y62708
X78924Y61450
X86324Y48650
X88724Y55150
X78364Y59100
X78024Y52050
X88124Y48750
X74919Y66049
X77713Y50521
X87824Y51850
X75046Y66490
X77332Y50800
X78439Y58623
X70230Y58156
X82150Y67024
X81736Y52160
X79558Y52250
X81524Y67535
X80882Y52419
X82674Y66150
X86824Y56750
X86980Y57794
X83073Y65760
X83533Y67500
X83721Y53150
X78304Y53250
X81074Y65500
X81524Y62160
X70474Y59690
X80889Y60120
X82159Y57565
X80874Y57550
X80189Y60670
X76951Y55485
X104171Y67063
X103981Y52850
X103340Y56877
X94550Y56050
X102115Y56309
X94886Y53722
X95648Y66582
X102698Y56250
X95010Y55755
X96759Y65700
X102180Y57474
X7861Y2787
X100830Y55607
X101131Y65650
X101440Y65282
X102046Y56944
X106271Y66260
X91731Y65350
X105981Y58200
X109051Y59070
X107052Y66631
X105981Y59550
X108871Y60100
X106554Y66623
X105981Y58950
X108589Y59592
X105956Y57485
X95790Y65600
X103412Y60659
X94032Y62628
X104611Y60462
X103071Y66750
X105381Y63400
X95750Y54431
X101331Y52631
X98316Y65727
X103440Y56250
X95521Y55318
X96721Y66731
X105271Y66600
X105346Y53569
X102431Y52650
X101650Y51669
X105040Y51540
X104817Y66508
X102031Y55600
X101971Y65800
X102712Y66019
X103981Y51040
X105981Y61510
X107268Y60847
X95229Y62430
X103431Y67160
X103874Y61170
X110631Y61200
X108531Y65000
X108050Y64931
X106659Y67091
X102786Y61585
X107307Y62714
X103381Y61500
X109016Y61450
X108731Y64250
X108331Y64550
X101051Y53840
X104231Y58850
X108725Y63327
X105935Y62738
X103431Y58850
X101431Y56950
X104331Y54100
X102631Y55150
X105881Y55300
X108631Y54950
X108431Y53250
X111631Y50850
X111431Y48650
X108631Y57650
X107331Y60150
X100075Y64377
X101375Y67027
X102425Y66377
X110575Y67327
X100425Y65677
X91548Y66900
X90625Y55227
X92325Y55827
X95675Y53727
X96475Y57827
X93181Y57950
X98375Y57377
X93325Y66727
X98525Y61277
X102181Y58850
X101475Y62135
X100688Y60465
X96225Y58977
X98975Y53627
X98275Y54527
X99525Y66277
X100131Y57000
X94031Y59050
X95981Y64450
X103261Y64240
X108931Y53250
X105731Y48850
X111631Y50350
X110871Y58450
X91971Y66350
X110108Y67087
X101395Y52177
X101381Y58850
X92062Y58550
X102188Y61715
X107781Y53350
X103181Y51700
X93081Y62688
X100809Y59550
X93074Y58975
X102153Y59304
X108991Y60712
X100121Y59825
X101611Y63930
X104681Y59550
X104681Y58200
X94221Y65913
X107812Y48519
X102081Y58210
X100850Y57806
X98416Y59760
X100521Y66250
X98396Y59246
X100281Y67035
X100151Y55610
X99111Y57140
X98461Y58488
X106050Y52350
X109938Y49500
X105531Y50650
X105381Y52850
X110331Y51050
X111231Y55850
X98885Y62708
X101431Y61450
X108831Y48650
X111231Y55150
X100871Y59100
X100531Y52050
X110631Y48750
X97426Y66049
X100220Y50521
X110331Y51850
X97553Y66490
X99839Y50800
X100946Y58623
X92737Y58156
X104657Y67024
X104243Y52160
X102065Y52250
X104031Y67535
X103389Y52419
X105181Y66150
X109331Y56750
X109487Y57794
X105580Y65760
X106040Y67500
X106228Y53150
X100811Y53250
X103581Y65500
X104031Y62160
X92981Y59690
X103396Y60120
X104666Y57565
X103381Y57550
X102696Y60670
X99458Y55485
X126681Y67063
X126490Y52850
X125850Y56877
X117059Y56050
X124625Y56309
X117395Y53722
X118157Y66582
X125208Y56250
X117520Y55755
X119268Y65700
X124690Y57474
X118005Y56337
X123339Y55607
X123640Y65650
X123950Y65282
X124556Y56944
X128781Y66260
X114240Y65350
X128490Y58200
X131560Y59070
X129562Y66631
X128490Y59550
X131381Y60100
X129063Y66623
X128490Y58950
X131098Y59592
X128465Y57485
X118300Y65600
X125921Y60659
X116542Y62628
X127120Y60462
X125581Y66750
X127890Y63400
X118259Y54431
X123840Y52631
X120826Y65727
X125950Y56250
X118031Y55318
X119231Y66731
X127781Y66600
X127856Y53569
X124940Y52650
X124159Y51669
X127550Y51540
X127327Y66508
X124540Y55600
X124481Y65800
X125221Y66019
X126490Y51040
X128490Y61510
X129777Y60847
X117739Y62430
X125940Y67160
X126383Y61170
X133140Y61200
X131040Y65000
X130559Y64931
X129169Y67091
X125296Y61585
X129817Y62714
X125890Y61500
X131525Y61450
X131240Y64250
X130840Y64550
X123561Y53840
X126740Y58850
X131234Y63327
X128444Y62738
X125940Y58850
X123940Y56950
X126840Y54100
X125140Y55150
X128390Y55300
X131140Y54950
X130940Y53250
X134140Y50850
X133940Y48650
X131140Y57650
X129840Y60150
X122584Y64377
X123884Y67027
X124934Y66377
X133084Y67327
X122934Y65677
X114057Y66900
X113134Y55227
X114834Y55827
X118184Y53727
X118984Y57827
X115690Y57950
X120884Y57377
X115834Y66727
X121034Y61277
X124690Y58850
X123985Y62135
X123197Y60465
X118734Y58977
X121484Y53627
X120784Y54527
X122034Y66277
X122640Y57000
X116540Y59050
X118490Y64450
X125770Y64240
X131440Y53250
X128240Y48850
X134140Y50350
X133380Y58450
X114480Y66350
X132618Y67087
X123905Y52177
X123890Y58850
X114571Y58550
X124697Y61715
X130290Y53350
X125690Y51700
X115590Y62688
X123318Y59550
X115583Y58975
X124662Y59304
X131500Y60712
X122630Y59825
X124120Y63930
X127190Y59550
X127190Y58200
X116731Y65913
X130321Y48519
X124590Y58210
X123360Y57806
X120926Y59760
X123031Y66250
X120905Y59246
X122790Y67035
X122660Y55610
X121620Y57140
X120970Y58488
X128559Y52350
X132447Y49500
X128040Y50650
X127890Y52850
X132840Y51050
X133740Y55850
X121394Y62708
X123940Y61450
X131340Y48650
X133740Y55150
X123381Y59100
X123040Y52050
X133140Y48750
X119935Y66049
X122729Y50521
X132840Y51850
X120062Y66490
X122348Y50800
X123455Y58623
X115246Y58156
X127166Y67024
X126753Y52160
X124575Y52250
X126540Y67535
X125899Y52419
X127690Y66150
X131840Y56750
X131996Y57794
X128089Y65760
X128550Y67500
X128737Y53150
X123320Y53250
X126090Y65500
X126540Y62160
X115490Y59690
X125905Y60120
X127175Y57565
X125890Y57550
X125205Y60670
X121967Y55485
X149188Y67063
X148997Y52850
X148357Y56877
X139566Y56050
X147132Y56309
X139902Y53722
X140664Y66582
X147715Y56250
X140026Y55755
X141775Y65700
X147197Y57474
X140512Y56337
X145846Y55607
X95496Y56337
X146457Y65282
X147062Y56944
X151288Y66260
X136747Y65350
X150997Y58200
X154067Y59070
X152069Y66631
X150997Y59550
X153888Y60100
X151570Y66623
X150997Y58950
X153605Y59592
X150972Y57485
X140807Y65600
X148428Y60659
X139049Y62628
X149627Y60462
X148088Y66750
X150397Y63400
X140766Y54431
X146347Y52631
X143333Y65727
X148457Y56250
X140538Y55318
X141738Y66731
X150288Y66600
X150363Y53569
X147447Y52650
X146666Y51669
X150057Y51540
X149834Y66508
X147047Y55600
X146988Y65800
X147728Y66019
X148997Y51040
X150997Y61510
X152284Y60847
X140245Y62430
X148447Y67160
X148890Y61170
X155647Y61200
X153547Y65000
X153066Y64931
X151676Y67091
X147803Y61585
X152324Y62714
X148397Y61500
X154032Y61450
X153747Y64250
X153347Y64550
X146068Y53840
X149247Y58850
X153741Y63327
X150951Y62738
X148447Y58850
X146447Y56950
X149347Y54100
X147647Y55150
X150897Y55300
X153647Y54950
X153447Y53250
X156647Y50850
X156447Y48650
X153647Y57650
X152347Y60150
X145091Y64377
X146391Y67027
X147441Y66377
X155591Y67327
X145441Y65677
X136564Y66900
X135641Y55227
X137341Y55827
X140691Y53727
X141491Y57827
X138197Y57950
X143391Y57377
X138341Y66727
X143541Y61277
X147197Y58850
X146492Y62135
X145704Y60465
X141241Y58977
X143991Y53627
X143291Y54527
X144541Y66277
X145147Y57000
X139047Y59050
X140997Y64450
X148277Y64240
X153947Y53250
X150747Y48850
X156647Y50350
X155887Y58450
X136987Y66350
X155124Y67087
X146412Y52177
X146397Y58850
X137078Y58550
X147204Y61715
X152797Y53350
X148197Y51700
X138097Y62688
X145825Y59550
X138090Y58975
X147169Y59304
X154007Y60712
X145137Y59825
X146627Y63930
X149697Y59550
X149697Y58200
X139238Y65913
X152828Y48519
X147097Y58210
X145867Y57806
X143433Y59760
X145538Y66250
X143412Y59246
X145297Y67035
X145167Y55610
X144127Y57140
X143477Y58488
X151066Y52350
X154954Y49500
X150547Y50650
X150397Y52850
X155347Y51050
X156247Y55850
X143901Y62708
X146447Y61450
X153847Y48650
X156247Y55150
X145888Y59100
X145547Y52050
X155647Y48750
X142442Y66049
X145236Y50521
X155347Y51850
X142569Y66490
X144855Y50800
X145962Y58623
X137753Y58156
X149673Y67024
X149260Y52160
X147082Y52250
X149047Y67535
X148406Y52419
X150197Y66150
X154347Y56750
X154503Y57794
X150596Y65760
X151057Y67500
X151244Y53150
X145827Y53250
X148597Y65500
X149047Y62160
X137997Y59690
X148412Y60120
X149682Y57565
X148397Y57550
X147712Y60670
X144474Y55485
X171695Y67063
X171504Y52850
X170864Y56877
X162073Y56050
X169639Y56309
X162409Y53722
X163171Y66582
X170222Y56250
X162533Y55755
X164282Y65700
X169704Y57474
X163019Y56337
X168353Y55607
X168654Y65650
X168964Y65282
X169569Y56944
X173795Y66260
X159254Y65350
X173504Y58200
X176574Y59070
X174576Y66631
X173504Y59550
X176394Y60100
X174077Y66623
X173504Y58950
X176112Y59592
X173479Y57485
X163314Y65600
X170935Y60659
X161556Y62628
X172134Y60462
X170595Y66750
X172904Y63400
X163273Y54431
X168854Y52631
X165840Y65727
X170964Y56250
X163045Y55318
X164245Y66731
X172795Y66600
X172870Y53569
X169954Y52650
X169173Y51669
X172564Y51540
X172341Y66508
X169554Y55600
X169495Y65800
X170235Y66019
X171504Y51040
X173504Y61510
X174791Y60847
X162752Y62430
X170954Y67160
X171397Y61170
X178154Y61200
X176054Y65000
X175573Y64931
X174183Y67091
X170310Y61585
X174831Y62714
X170904Y61500
X176539Y61450
X176254Y64250
X175854Y64550
X168575Y53840
X171754Y58850
X176248Y63327
X173458Y62738
X170954Y58850
X168954Y56950
X171854Y54100
X170154Y55150
X173404Y55300
X176154Y54950
X175954Y53250
X179154Y50850
X178954Y48650
X176154Y57650
X174854Y60150
X167598Y64377
X168898Y67027
X169948Y66377
X178098Y67327
X167948Y65677
X159071Y66900
X158148Y55227
X159848Y55827
X163198Y53727
X163998Y57827
X160704Y57950
X165898Y57377
X160848Y66727
X166048Y61277
X169704Y58850
X168999Y62135
X168211Y60465
X163748Y58977
X166498Y53627
X165798Y54527
X167048Y66277
X167654Y57000
X161554Y59050
X163504Y64450
X170784Y64240
X176454Y53250
X173254Y48850
X179154Y50350
X178394Y58450
X159494Y66350
X177631Y67087
X168919Y52177
X168904Y58850
X159585Y58550
X169711Y61715
X175304Y53350
X170704Y51700
X160604Y62688
X168332Y59550
X160597Y58975
X169676Y59304
X176514Y60712
X167644Y59825
X169134Y63930
X172204Y59550
X172204Y58200
X161745Y65913
X175335Y48519
X169604Y58210
X168374Y57806
X165940Y59760
X168045Y66250
X165919Y59246
X167804Y67035
X167674Y55610
X166634Y57140
X165984Y58488
X173573Y52350
X177461Y49500
X173054Y50650
X172904Y52850
X177854Y51050
X178754Y55850
X166408Y62708
X168954Y61450
X176354Y48650
X178754Y55150
X168395Y59100
X168054Y52050
X178154Y48750
X164949Y66049
X167743Y50521
X177854Y51850
X165076Y66490
X167362Y50800
X168469Y58623
X160260Y58156
X172180Y67024
X171767Y52160
X169589Y52250
X171554Y67535
X170913Y52419
X172704Y66150
X176854Y56750
X177010Y57794
X173103Y65760
X173564Y67500
X173751Y53150
X168334Y53250
X171104Y65500
X171554Y62160
X160504Y59690
X170919Y60120
X172189Y57565
X170904Y57550
X170219Y60670
X166981Y55485
X8051Y17000
X8692Y12973
X17482Y13800
X9916Y13541
X17146Y16128
X16384Y3268
X9333Y13600
X17022Y14095
X15273Y4150
X9852Y12376
X16536Y13513
X11202Y14243
X10901Y4200
X10592Y4568
X9986Y12906
X146147Y65650
M30