M48
;GenerationSoftware,Autodesk,EAGLE,9.6.0*%
;CreationDate,2020-03-27T21:00:36Z*%
FMAT,2
ICI,OFF
METRIC,TZ,000.000
T2C0.200
T1C3.500
%
G90
M71
T1
X164554Y47050
X15001Y22800
X37508Y22800
X60017Y22800
X82524Y22800
X105034Y22800
X127541Y22800
X150050Y22800
X172557Y22800
X6998Y47050
X29507Y47050
X52014Y47050
X74524Y47050
X97031Y47050
X119540Y47050
X142047Y47050
T2
X5761Y4391
X20301Y5300
X6051Y12450
X2981Y11580
X4980Y4019
X6051Y11100
X3161Y10550
X5478Y4027
X6051Y11700
X3443Y11058
X6076Y13166
X16242Y5050
X8620Y9991
X17999Y8022
X7421Y10188
X8961Y3900
X6651Y7250
X16282Y16219
X10701Y18019
X13716Y4924
X8591Y14400
X16511Y15332
X15311Y3919
X6761Y4050
X6686Y17081
X9601Y18000
X10382Y18981
X6992Y19110
X7215Y4142
X10001Y15050
X10061Y4850
X9320Y4631
X8051Y19610
X6051Y9140
X4764Y9803
X16803Y8220
X8601Y3491
X8158Y9480
X1401Y9450
X3501Y5650
X3982Y5719
X5372Y3559
X9246Y9065
X4724Y7936
X8651Y9150
X3016Y9200
X3301Y6400
X3701Y6100
X10981Y16810
X7801Y11800
X3307Y7323
X6097Y7912
X8601Y11800
X10601Y13700
X7701Y16550
X9401Y15500
X6151Y15350
X3401Y15700
X3601Y17400
X401Y19800
X601Y22000
X3401Y13000
X4701Y10500
X11957Y6273
X10657Y3623
X9607Y4273
X1457Y3323
X11607Y4973
X20484Y3750
X21407Y15423
X19707Y14823
X16357Y16923
X15557Y12823
X18851Y12700
X13657Y13273
X18707Y3923
X13207Y9273
X9851Y11800
X10557Y8515
X11344Y10185
X15807Y11673
X13057Y17023
X13757Y16123
X12507Y4373
X11901Y13650
X18001Y11600
X16051Y6200
X8771Y6410
X3101Y17400
X6301Y21800
X401Y20300
X1161Y12200
X20061Y4300
X1924Y3563
X10636Y18473
X10651Y11800
X19970Y12100
X9844Y8935
X4251Y17300
X8851Y18950
X18951Y7962
X11223Y11100
X18958Y11675
X9879Y11346
X3041Y9938
X11911Y10825
X10421Y6720
X7351Y11100
X7351Y12450
X17811Y4737
X4220Y22131
X9951Y12440
X11182Y12844
X13616Y10890
X11511Y4400
X13636Y11404
X11751Y3615
X11881Y15040
X12921Y13510
X13571Y12162
X5982Y18300
X2094Y21150
X6501Y20000
X6651Y17800
X1701Y19600
X801Y14800
X13147Y7942
X10601Y9200
X3201Y22000
X801Y15500
X11161Y11550
X11501Y18600
X1401Y21900
X14606Y4601
X11812Y20129
X1701Y18800
X14479Y4160
X12193Y19850
X11086Y12027
X19295Y12494
X7375Y3626
X7788Y18491
X9967Y18400
X8001Y3115
X8642Y18231
X6851Y4500
X2701Y13900
X2545Y12856
X6452Y4891
X5992Y3150
X5804Y17500
X11221Y17400
X8451Y5150
X8001Y8490
X19051Y10960
X8636Y10530
X7366Y13085
X8651Y13100
X9336Y9980
X12574Y15165
X30368Y3587
X30558Y17800
X31198Y13773
X39989Y14600
X32423Y14341
X39653Y16928
X38891Y4068
X31840Y14400
X39529Y14895
X37780Y4950
X32358Y13176
X39043Y14313
X33709Y15043
X33408Y5000
X33098Y5368
X32493Y13706
X28268Y4391
X42808Y5300
X28558Y12450
X25488Y11580
X27487Y4019
X28558Y11100
X25668Y10550
X27985Y4027
X28558Y11700
X25950Y11058
X28583Y13166
X38748Y5050
X31127Y9991
X40506Y8022
X29928Y10188
X31468Y3900
X29158Y7250
X38789Y16219
X33208Y18019
X36222Y4924
X31098Y14400
X39018Y15332
X37818Y3919
X29268Y4050
X29193Y17081
X32108Y18000
X32889Y18981
X29498Y19110
X29722Y4142
X32508Y15050
X32568Y4850
X31827Y4631
X30558Y19610
X28558Y9140
X27271Y9803
X39310Y8220
X31108Y3491
X30665Y9480
X23908Y9450
X26008Y5650
X26489Y5719
X27879Y3559
X31753Y9065
X27231Y7936
X31158Y9150
X25523Y9200
X25808Y6400
X26208Y6100
X33488Y16810
X30308Y11800
X25814Y7323
X28604Y7912
X31108Y11800
X33108Y13700
X30208Y16550
X31908Y15500
X28658Y15350
X25908Y15700
X26108Y17400
X22908Y19800
X23108Y22000
X25908Y13000
X27208Y10500
X34464Y6273
X33164Y3623
X32114Y4273
X23964Y3323
X34114Y4973
X42991Y3750
X43914Y15423
X42214Y14823
X38864Y16923
X38064Y12823
X41358Y12700
X36164Y13273
X41214Y3923
X35714Y9273
X32358Y11800
X33063Y8515
X33851Y10185
X38314Y11673
X35564Y17023
X36264Y16123
X35014Y4373
X34408Y13650
X40508Y11600
X38558Y6200
X31278Y6410
X25608Y17400
X28808Y21800
X22908Y20300
X23668Y12200
X42568Y4300
X24431Y3563
X33143Y18473
X33158Y11800
X42477Y12100
X32351Y8935
X26758Y17300
X31358Y18950
X41458Y7962
X33730Y11100
X41465Y11675
X32386Y11346
X25548Y9938
X34418Y10825
X32928Y6720
X29858Y11100
X29858Y12450
X40318Y4737
X26727Y22131
X32458Y12440
X33689Y12844
X36122Y10890
X34018Y4400
X36143Y11404
X34258Y3615
X34388Y15040
X35428Y13510
X36078Y12162
X28489Y18300
X24601Y21150
X29008Y20000
X29158Y17800
X24208Y19600
X23308Y14800
X35654Y7942
X33108Y9200
X25708Y22000
X23308Y15500
X33668Y11550
X34008Y18600
X23908Y21900
X37113Y4601
X34319Y20129
X24208Y18800
X36986Y4160
X34700Y19850
X33593Y12027
X41802Y12494
X29882Y3626
X30295Y18491
X32473Y18400
X30508Y3115
X31149Y18231
X29358Y4500
X25208Y13900
X25052Y12856
X28959Y4891
X28498Y3150
X28311Y17500
X33728Y17400
X30958Y5150
X30508Y8490
X41558Y10960
X31143Y10530
X29873Y13085
X31158Y13100
X31843Y9980
X35081Y15165
X52877Y3587
X53067Y17800
X53708Y13773
X62498Y14600
X54933Y14341
X62163Y16928
X61400Y4068
X54350Y14400
X62038Y14895
X60290Y4950
X54868Y13176
X61552Y14313
X56219Y15043
X55917Y5000
X55608Y5368
X55002Y13706
X50777Y4391
X65317Y5300
X51067Y12450
X47997Y11580
X49996Y4019
X51067Y11100
X48177Y10550
X50494Y4027
X51067Y11700
X48459Y11058
X51093Y13166
X61258Y5050
X53637Y9991
X63016Y8022
X52437Y10188
X53977Y3900
X51667Y7250
X61299Y16219
X55717Y18019
X58732Y4924
X53608Y14400
X61527Y15332
X60327Y3919
X51777Y4050
X51702Y17081
X54617Y18000
X55399Y18981
X52008Y19110
X52231Y4142
X55017Y15050
X55077Y4850
X54336Y4631
X53067Y19610
X51067Y9140
X49780Y9803
X61819Y8220
X53617Y3491
X53175Y9480
X46417Y9450
X48517Y5650
X48999Y5719
X50389Y3559
X54262Y9065
X49741Y7936
X53667Y9150
X48032Y9200
X48317Y6400
X48717Y6100
X55997Y16810
X52817Y11800
X48323Y7323
X51113Y7912
X53617Y11800
X55617Y13700
X52717Y16550
X54417Y15500
X51167Y15350
X48417Y15700
X48617Y17400
X45417Y19800
X45617Y22000
X48417Y13000
X49717Y10500
X56973Y6273
X55673Y3623
X54623Y4273
X46473Y3323
X56623Y4973
X65500Y3750
X66423Y15423
X64723Y14823
X61373Y16923
X60573Y12823
X63867Y12700
X58673Y13273
X63723Y3923
X58223Y9273
X54867Y11800
X55573Y8515
X56360Y10185
X60823Y11673
X58073Y17023
X58773Y16123
X57523Y4373
X56917Y13650
X63017Y11600
X61067Y6200
X53787Y6410
X48117Y17400
X51317Y21800
X45417Y20300
X46177Y12200
X65077Y4300
X46940Y3563
X55653Y18473
X55667Y11800
X64987Y12100
X54860Y8935
X49267Y17300
X53867Y18950
X63967Y7962
X56239Y11100
X63974Y11675
X54895Y11346
X48057Y9938
X56927Y10825
X55437Y6720
X52367Y11100
X52367Y12450
X62827Y4737
X49236Y22131
X54967Y12440
X56198Y12844
X58632Y10890
X56527Y4400
X58652Y11404
X56767Y3615
X56898Y15040
X57937Y13510
X58587Y12162
X50998Y18300
X47110Y21150
X51517Y20000
X51667Y17800
X46717Y19600
X45817Y14800
X58164Y7942
X55617Y9200
X48217Y22000
X45817Y15500
X56177Y11550
X56517Y18600
X46417Y21900
X59622Y4601
X56828Y20129
X46717Y18800
X59495Y4160
X57209Y19850
X56102Y12027
X64311Y12494
X52392Y3626
X52805Y18491
X54983Y18400
X53017Y3115
X53659Y18231
X51867Y4500
X47717Y13900
X47561Y12856
X51468Y4891
X51008Y3150
X50821Y17500
X56237Y17400
X53467Y5150
X53017Y8490
X64067Y10960
X53652Y10530
X52382Y13085
X53667Y13100
X54352Y9980
X57590Y15165
X75384Y3587
X75574Y17800
X76215Y13773
X85005Y14600
X77440Y14341
X84669Y16928
X83907Y4068
X76857Y14400
X84545Y14895
X82797Y4950
X77375Y13176
X84059Y14313
X78725Y15043
X78424Y5000
X78115Y5368
X77509Y13706
X73284Y4391
X87824Y5300
X73574Y12450
X70504Y11580
X72503Y4019
X73574Y11100
X70684Y10550
X73001Y4027
X73574Y11700
X70966Y11058
X73600Y13166
X83765Y5050
X76144Y9991
X85523Y8022
X74944Y10188
X76484Y3900
X74174Y7250
X83806Y16219
X78224Y18019
X81239Y4924
X76115Y14400
X84034Y15332
X82834Y3919
X74284Y4050
X74209Y17081
X77124Y18000
X77906Y18981
X74515Y19110
X74738Y4142
X77524Y15050
X77584Y4850
X76843Y4631
X75574Y19610
X73574Y9140
X72287Y9803
X84326Y8220
X76124Y3491
X75682Y9480
X68924Y9450
X71024Y5650
X71506Y5719
X72896Y3559
X76769Y9065
X72248Y7936
X76174Y9150
X70539Y9200
X70824Y6400
X71224Y6100
X78504Y16810
X75324Y11800
X70830Y7323
X73620Y7912
X76124Y11800
X78124Y13700
X75224Y16550
X76924Y15500
X73674Y15350
X70924Y15700
X71124Y17400
X67924Y19800
X68124Y22000
X70924Y13000
X72224Y10500
X79480Y6273
X78180Y3623
X77130Y4273
X68980Y3323
X79130Y4973
X88007Y3750
X88930Y15423
X87230Y14823
X83880Y16923
X83080Y12823
X86374Y12700
X81180Y13273
X86230Y3923
X80730Y9273
X77374Y11800
X78080Y8515
X78867Y10185
X83330Y11673
X80580Y17023
X81280Y16123
X80030Y4373
X79424Y13650
X85524Y11600
X83574Y6200
X76294Y6410
X70624Y17400
X73824Y21800
X67924Y20300
X68684Y12200
X87584Y4300
X69447Y3563
X78160Y18473
X78174Y11800
X87494Y12100
X77367Y8935
X71774Y17300
X76374Y18950
X86474Y7962
X78746Y11100
X86481Y11675
X77402Y11346
X70564Y9938
X79434Y10825
X77944Y6720
X74874Y11100
X74874Y12450
X85334Y4737
X71743Y22131
X77474Y12440
X78705Y12844
X81139Y10890
X79034Y4400
X81159Y11404
X79274Y3615
X79405Y15040
X80444Y13510
X81094Y12162
X73505Y18300
X69617Y21150
X74024Y20000
X74174Y17800
X69224Y19600
X68324Y14800
X80671Y7942
X78124Y9200
X70724Y22000
X68324Y15500
X78684Y11550
X79024Y18600
X68924Y21900
X82129Y4601
X79335Y20129
X69224Y18800
X82002Y4160
X79716Y19850
X78609Y12027
X86818Y12494
X74899Y3626
X75312Y18491
X77490Y18400
X75524Y3115
X76166Y18231
X74374Y4500
X70224Y13900
X70068Y12856
X73975Y4891
X73515Y3150
X73328Y17500
X78744Y17400
X75974Y5150
X75524Y8490
X86574Y10960
X76159Y10530
X74889Y13085
X76174Y13100
X76859Y9980
X80097Y15165
X97893Y3587
X98084Y17800
X98724Y13773
X107515Y14600
X99949Y14341
X107179Y16928
X106417Y4068
X99366Y14400
X107055Y14895
X105306Y4950
X99884Y13176
X106569Y14313
X101235Y15043
X100934Y5000
X100624Y5368
X100019Y13706
X95793Y4391
X110334Y5300
X96084Y12450
X93014Y11580
X95012Y4019
X96084Y11100
X93194Y10550
X95511Y4027
X96084Y11700
X93476Y11058
X96109Y13166
X106274Y5050
X98653Y9991
X108032Y8022
X97454Y10188
X98993Y3900
X96684Y7250
X106315Y16219
X100734Y18019
X103748Y4924
X98624Y14400
X106543Y15332
X105343Y3919
X96793Y4050
X96718Y17081
X99634Y18000
X100415Y18981
X97024Y19110
X97247Y4142
X100034Y15050
X100093Y4850
X99353Y4631
X98084Y19610
X96084Y9140
X94797Y9803
X106836Y8220
X98634Y3491
X98191Y9480
X91434Y9450
X93534Y5650
X94015Y5719
X95405Y3559
X99278Y9065
X94757Y7936
X98684Y9150
X93049Y9200
X93334Y6400
X93734Y6100
X101013Y16810
X97834Y11800
X93340Y7323
X96130Y7912
X98634Y11800
X100634Y13700
X97734Y16550
X99434Y15500
X96184Y15350
X93434Y15700
X93634Y17400
X90434Y19800
X90634Y22000
X93434Y13000
X94734Y10500
X101990Y6273
X100690Y3623
X99640Y4273
X91490Y3323
X101640Y4973
X110517Y3750
X111440Y15423
X109740Y14823
X106390Y16923
X105590Y12823
X108884Y12700
X103690Y13273
X108740Y3923
X103240Y9273
X99884Y11800
X100589Y8515
X101377Y10185
X105840Y11673
X103090Y17023
X103790Y16123
X102540Y4373
X101934Y13650
X108034Y11600
X106084Y6200
X98804Y6410
X93134Y17400
X96334Y21800
X90434Y20300
X91194Y12200
X110094Y4300
X91957Y3563
X100669Y18473
X100684Y11800
X110003Y12100
X99877Y8935
X94284Y17300
X98884Y18950
X108984Y7962
X101256Y11100
X108991Y11675
X99912Y11346
X93074Y9938
X101944Y10825
X100454Y6720
X97384Y11100
X97384Y12450
X107843Y4737
X94253Y22131
X99984Y12440
X101214Y12844
X103648Y10890
X101543Y4400
X103669Y11404
X101784Y3615
X101914Y15040
X102954Y13510
X103604Y12162
X96015Y18300
X92127Y21150
X96534Y20000
X96684Y17800
X91734Y19600
X90834Y14800
X103180Y7942
X100634Y9200
X93234Y22000
X90834Y15500
X101193Y11550
X101534Y18600
X91434Y21900
X104639Y4601
X101845Y20129
X91734Y18800
X104512Y4160
X102226Y19850
X101119Y12027
X109328Y12494
X97408Y3626
X97821Y18491
X99999Y18400
X98034Y3115
X98675Y18231
X96884Y4500
X92734Y13900
X92578Y12856
X96485Y4891
X96024Y3150
X95837Y17500
X101254Y17400
X98484Y5150
X98034Y8490
X109084Y10960
X98669Y10530
X97399Y13085
X98684Y13100
X99369Y9980
X102607Y15165
X120400Y3587
X120591Y17800
X121231Y13773
X130022Y14600
X122456Y14341
X129686Y16928
X128924Y4068
X121873Y14400
X129561Y14895
X127813Y4950
X122391Y13176
X129076Y14313
X123742Y15043
X123441Y5000
X123131Y5368
X122526Y13706
X118300Y4391
X132841Y5300
X118591Y12450
X115521Y11580
X117519Y4019
X118591Y11100
X115700Y10550
X118018Y4027
X118591Y11700
X115983Y11058
X118616Y13166
X128781Y5050
X121160Y9991
X130539Y8022
X119961Y10188
X121500Y3900
X119191Y7250
X128822Y16219
X123241Y18019
X126255Y4924
X121131Y14400
X129050Y15332
X127850Y3919
X119300Y4050
X119225Y17081
X122141Y18000
X122922Y18981
X119531Y19110
X119754Y4142
X122541Y15050
X122600Y4850
X121860Y4631
X120591Y19610
X118591Y9140
X117304Y9803
X129342Y8220
X121141Y3491
X120698Y9480
X113941Y9450
X116041Y5650
X116522Y5719
X117912Y3559
X121785Y9065
X117264Y7936
X121191Y9150
X115556Y9200
X115841Y6400
X116241Y6100
X123520Y16810
X120341Y11800
X115847Y7323
X118637Y7912
X121141Y11800
X123141Y13700
X120241Y16550
X121941Y15500
X118691Y15350
X115941Y15700
X116141Y17400
X112941Y19800
X113141Y22000
X115941Y13000
X117241Y10500
X124497Y6273
X123197Y3623
X122147Y4273
X113997Y3323
X124147Y4973
X133024Y3750
X133947Y15423
X132247Y14823
X128897Y16923
X128097Y12823
X131391Y12700
X126197Y13273
X131247Y3923
X125747Y9273
X122391Y11800
X123096Y8515
X123884Y10185
X128347Y11673
X125597Y17023
X126297Y16123
X125047Y4373
X124441Y13650
X130541Y11600
X128591Y6200
X121311Y6410
X115641Y17400
X118841Y21800
X112941Y20300
X113701Y12200
X132601Y4300
X114463Y3563
X123176Y18473
X123191Y11800
X132510Y12100
X122384Y8935
X116791Y17300
X121391Y18950
X131491Y7962
X123763Y11100
X131498Y11675
X122419Y11346
X115581Y9938
X124451Y10825
X122961Y6720
X119891Y11100
X119891Y12450
X130350Y4737
X116760Y22131
X122491Y12440
X123721Y12844
X126155Y10890
X124050Y4400
X126176Y11404
X124291Y3615
X124421Y15040
X125461Y13510
X126111Y12162
X118522Y18300
X114634Y21150
X119041Y20000
X119191Y17800
X114241Y19600
X113341Y14800
X125687Y7942
X123141Y9200
X115741Y22000
X113341Y15500
X123700Y11550
X124041Y18600
X113941Y21900
X127146Y4601
X124352Y20129
X114241Y18800
X127019Y4160
X124733Y19850
X123626Y12027
X131835Y12494
X119915Y3626
X120328Y18491
X122506Y18400
X120541Y3115
X121182Y18231
X119391Y4500
X115241Y13900
X115085Y12856
X118992Y4891
X118531Y3150
X118344Y17500
X123761Y17400
X120991Y5150
X120541Y8490
X131591Y10960
X121176Y10530
X119906Y13085
X121191Y13100
X121876Y9980
X125114Y15165
X142910Y3587
X143100Y17800
X143741Y13773
X152531Y14600
X144966Y14341
X152195Y16928
X151433Y4068
X144383Y14400
X152071Y14895
X150322Y4950
X144901Y13176
X151585Y14313
X146251Y15043
X145950Y5000
X145641Y5368
X145035Y13706
X140810Y4391
X155350Y5300
X141100Y12450
X138030Y11580
X140029Y4019
X141100Y11100
X138210Y10550
X140527Y4027
X141100Y11700
X138492Y11058
X141125Y13166
X151291Y5050
X143669Y9991
X153049Y8022
X142470Y10188
X144010Y3900
X141700Y7250
X151331Y16219
X145750Y18019
X148765Y4924
X143641Y14400
X151560Y15332
X150360Y3919
X141810Y4050
X141735Y17081
X144650Y18000
X145431Y18981
X142041Y19110
X142264Y4142
X145050Y15050
X145110Y4850
X144369Y4631
X143100Y19610
X141100Y9140
X139813Y9803
X151852Y8220
X143650Y3491
X143207Y9480
X136450Y9450
X138550Y5650
X139031Y5719
X140422Y3559
X144295Y9065
X139774Y7936
X143700Y9150
X138065Y9200
X138350Y6400
X138750Y6100
X146030Y16810
X142850Y11800
X138356Y7323
X141146Y7912
X143650Y11800
X145650Y13700
X142750Y16550
X144450Y15500
X141200Y15350
X138450Y15700
X138650Y17400
X135450Y19800
X135650Y22000
X138450Y13000
X139750Y10500
X147006Y6273
X145706Y3623
X144656Y4273
X136506Y3323
X146656Y4973
X155533Y3750
X156456Y15423
X154756Y14823
X151406Y16923
X150606Y12823
X153900Y12700
X148706Y13273
X153756Y3923
X148256Y9273
X144900Y11800
X145606Y8515
X146393Y10185
X150856Y11673
X148106Y17023
X148806Y16123
X147556Y4373
X146950Y13650
X153050Y11600
X151100Y6200
X143820Y6410
X138150Y17400
X141350Y21800
X135450Y20300
X136210Y12200
X155110Y4300
X136973Y3563
X145686Y18473
X145700Y11800
X155019Y12100
X144893Y8935
X139300Y17300
X143900Y18950
X154000Y7962
X146272Y11100
X154007Y11675
X144928Y11346
X138090Y9938
X146960Y10825
X145470Y6720
X142400Y11100
X142400Y12450
X152860Y4737
X139269Y22131
X145000Y12440
X146231Y12844
X148665Y10890
X146560Y4400
X148685Y11404
X146800Y3615
X146931Y15040
X147970Y13510
X148620Y12162
X141031Y18300
X137143Y21150
X141550Y20000
X141700Y17800
X136750Y19600
X135850Y14800
X148196Y7942
X145650Y9200
X138250Y22000
X135850Y15500
X146210Y11550
X146550Y18600
X136450Y21900
X149655Y4601
X146861Y20129
X136750Y18800
X149528Y4160
X147242Y19850
X146135Y12027
X154344Y12494
X142424Y3626
X142838Y18491
X145016Y18400
X143050Y3115
X143692Y18231
X141900Y4500
X137750Y13900
X137594Y12856
X141501Y4891
X141041Y3150
X140853Y17500
X146270Y17400
X143500Y5150
X143050Y8490
X154100Y10960
X143685Y10530
X142415Y13085
X143700Y13100
X144385Y9980
X147623Y15165
X165417Y3587
X165607Y17800
X166248Y13773
X175038Y14600
X167473Y14341
X174702Y16928
X173940Y4068
X166890Y14400
X174578Y14895
X172829Y4950
X167408Y13176
X174092Y14313
X168758Y15043
X168457Y5000
X168148Y5368
X167542Y13706
X163317Y4391
X177857Y5300
X163607Y12450
X160537Y11580
X162536Y4019
X163607Y11100
X160717Y10550
X163034Y4027
X163607Y11700
X160999Y11058
X163632Y13166
X173798Y5050
X166176Y9991
X175556Y8022
X164977Y10188
X166517Y3900
X164207Y7250
X173838Y16219
X168257Y18019
X171272Y4924
X166148Y14400
X174067Y15332
X172867Y3919
X164317Y4050
X164242Y17081
X167157Y18000
X167938Y18981
X164548Y19110
X164771Y4142
X167557Y15050
X167617Y4850
X166876Y4631
X165607Y19610
X163607Y9140
X162320Y9803
X174359Y8220
X166157Y3491
X165714Y9480
X158957Y9450
X161057Y5650
X161538Y5719
X162929Y3559
X166802Y9065
X162281Y7936
X166207Y9150
X160572Y9200
X160857Y6400
X161257Y6100
X168537Y16810
X165357Y11800
X160863Y7323
X163653Y7912
X166157Y11800
X168157Y13700
X165257Y16550
X166957Y15500
X163707Y15350
X160957Y15700
X161157Y17400
X157957Y19800
X158157Y22000
X160957Y13000
X162257Y10500
X169513Y6273
X168213Y3623
X167163Y4273
X159013Y3323
X169163Y4973
X178040Y3750
X178963Y15423
X177263Y14823
X173913Y16923
X173113Y12823
X176407Y12700
X171213Y13273
X176263Y3923
X170763Y9273
X167407Y11800
X168113Y8515
X168900Y10185
X173363Y11673
X170613Y17023
X171313Y16123
X170063Y4373
X169457Y13650
X175557Y11600
X173607Y6200
X166327Y6410
X160657Y17400
X163857Y21800
X157957Y20300
X158717Y12200
X177617Y4300
X159480Y3563
X168193Y18473
X168207Y11800
X177526Y12100
X167400Y8935
X161807Y17300
X166407Y18950
X176507Y7962
X168779Y11100
X176514Y11675
X167435Y11346
X160597Y9938
X169467Y10825
X167977Y6720
X164907Y11100
X164907Y12450
X175367Y4737
X161776Y22131
X167507Y12440
X168738Y12844
X171172Y10890
X169067Y4400
X171192Y11404
X169307Y3615
X169437Y15040
X170477Y13510
X171127Y12162
X163538Y18300
X159650Y21150
X164057Y20000
X164207Y17800
X159257Y19600
X158357Y14800
X170703Y7942
X168157Y9200
X160757Y22000
X158357Y15500
X168717Y11550
X169057Y18600
X158957Y21900
X172162Y4601
X169368Y20129
X159257Y18800
X172035Y4160
X169749Y19850
X168642Y12027
X176851Y12494
X164931Y3626
X165345Y18491
X167523Y18400
X165557Y3115
X166199Y18231
X164407Y4500
X160257Y13900
X160101Y12856
X164008Y4891
X163548Y3150
X163360Y17500
X168777Y17400
X166007Y5150
X165557Y8490
X176607Y10960
X166192Y10530
X164922Y13085
X166207Y13100
X166892Y9980
X170130Y15165
X14138Y66263
X13948Y52050
X13307Y56077
X4517Y55250
X12083Y55509
X4853Y52922
X5615Y65782
X12666Y55450
X4977Y54955
X6726Y64900
X12147Y56674
X5463Y55537
X10797Y54807
X11098Y64850
X11407Y64482
X12013Y56144
X16238Y65459
X1698Y64550
X15948Y57400
X19018Y58270
X17019Y65831
X15948Y58750
X18838Y59300
X16521Y65823
X15948Y58150
X18556Y58792
X15923Y56684
X5757Y64800
X13379Y59859
X4000Y61828
X14578Y59662
X13038Y65950
X15348Y62600
X5717Y53631
X11298Y51831
X8283Y64926
X13408Y55450
X5488Y54518
X6688Y65931
X15238Y65800
X15313Y52769
X12398Y51850
X11617Y50869
X15007Y50740
X14784Y65708
X11998Y54800
X11938Y65000
X12679Y65219
X13948Y50240
X15948Y60710
X17235Y60047
X5196Y61630
X13398Y66359
X13841Y60370
X20598Y60400
X18498Y64200
X18017Y64131
X16627Y66291
X12753Y60785
X17275Y61914
X13348Y60700
X18983Y60650
X18698Y63450
X18298Y63750
X11018Y53040
X14198Y58050
X18692Y62527
X15902Y61938
X13398Y58050
X11398Y56150
X14298Y53300
X12598Y54350
X15848Y54500
X18598Y54150
X18398Y52450
X21598Y50050
X21398Y47850
X18598Y56850
X17298Y59350
X10042Y63577
X11342Y66227
X12392Y65577
X20542Y66527
X10392Y64877
X1515Y66100
X592Y54427
X2292Y55027
X5642Y52927
X6442Y57027
X3148Y57150
X8342Y56577
X3292Y65927
X8792Y60577
X12148Y58050
X11442Y61335
X10655Y59665
X6192Y58177
X8942Y52827
X8242Y53727
X9492Y65477
X10098Y56200
X3998Y58250
X5948Y63650
X13228Y63440
X18898Y52450
X15698Y48050
X21598Y49550
X20838Y57650
X1938Y65550
X20075Y66287
X11363Y51377
X11348Y58050
X2029Y57750
X12155Y60915
X17748Y52550
X13148Y50900
X3048Y61888
X10776Y58750
X3041Y58175
X12120Y58504
X18958Y59912
X10088Y59025
X11578Y63130
X14648Y58750
X14648Y57400
X4188Y65113
X17779Y47719
X12048Y57410
X10817Y57006
X8383Y58960
X10488Y65450
X8363Y58446
X10248Y66235
X10118Y54810
X9078Y56340
X8428Y57688
X16017Y51550
X19905Y48700
X15498Y49850
X15348Y52050
X20298Y50250
X21198Y55050
X8852Y61908
X11398Y60650
X18798Y47850
X21198Y54350
X10838Y58300
X10498Y51250
X20598Y47950
X7393Y65249
X10187Y49721
X20298Y51050
X7520Y65690
X9806Y50000
X10913Y57823
X2704Y57356
X14624Y66224
X14211Y51359
X12032Y51450
X13998Y66735
X13357Y51619
X15148Y65350
X19298Y55950
X19454Y56994
X15547Y64959
X16007Y66700
X16195Y52350
X10778Y52450
X13548Y64700
X13998Y61360
X2948Y58890
X13363Y59320
X14633Y56765
X13348Y56750
X12663Y59870
X9425Y54685
X36648Y66263
X36457Y52050
X35817Y56077
X27026Y55250
X34592Y55509
X27362Y52922
X28124Y65782
X35175Y55450
X27487Y54955
X29235Y64900
X34657Y56674
X27972Y55537
X33306Y54807
X33607Y64850
X33917Y64482
X34523Y56144
X38748Y65459
X24207Y64550
X38457Y57400
X41528Y58270
X39529Y65831
X38457Y58750
X41348Y59300
X39030Y65823
X38457Y58150
X41065Y58792
X38432Y56684
X28267Y64800
X35888Y59859
X26509Y61828
X37087Y59662
X35548Y65950
X37857Y62600
X28226Y53631
X33807Y51831
X30793Y64926
X35917Y55450
X27998Y54518
X29198Y65931
X37748Y65800
X37823Y52769
X34907Y51850
X34126Y50869
X37517Y50740
X37294Y65708
X34507Y54800
X34448Y65000
X35188Y65219
X36457Y50240
X38457Y60710
X39745Y60047
X27706Y61630
X35907Y66359
X36350Y60370
X43107Y60400
X41007Y64200
X40526Y64131
X39136Y66291
X35263Y60785
X39784Y61914
X35857Y60700
X41492Y60650
X41207Y63450
X40807Y63750
X33528Y53040
X36707Y58050
X41201Y62527
X38411Y61938
X35907Y58050
X33907Y56150
X36807Y53300
X35107Y54350
X38357Y54500
X41107Y54150
X40907Y52450
X44107Y50050
X43907Y47850
X41107Y56850
X39807Y59350
X32551Y63577
X33851Y66227
X34901Y65577
X43051Y66527
X32901Y64877
X24024Y66100
X23101Y54427
X24801Y55027
X28151Y52927
X28951Y57027
X25657Y57150
X30851Y56577
X25801Y65927
X31301Y60577
X34657Y58050
X33952Y61335
X33164Y59665
X28701Y58177
X31451Y52827
X30751Y53727
X32001Y65477
X32607Y56200
X26507Y58250
X28457Y63650
X35738Y63440
X41407Y52450
X38207Y48050
X44107Y49550
X43347Y57650
X24447Y65550
X42585Y66287
X33872Y51377
X33857Y58050
X24538Y57750
X34664Y60915
X40257Y52550
X35657Y50900
X25557Y61888
X33285Y58750
X25550Y58175
X34630Y58504
X41467Y59912
X32597Y59025
X34087Y63130
X37157Y58750
X37157Y57400
X26698Y65113
X40288Y47719
X34558Y57410
X33327Y57006
X30893Y58960
X32998Y65450
X30872Y58446
X32757Y66235
X32627Y54810
X31587Y56340
X30937Y57688
X38526Y51550
X42414Y48700
X38007Y49850
X37857Y52050
X42807Y50250
X43707Y55050
X31361Y61908
X33907Y60650
X41307Y47850
X43707Y54350
X33348Y58300
X33007Y51250
X43107Y47950
X29902Y65249
X32696Y49721
X42807Y51050
X30029Y65690
X32315Y50000
X33422Y57823
X25213Y57356
X37133Y66224
X36720Y51359
X34542Y51450
X36507Y66735
X35866Y51619
X37657Y65350
X41807Y55950
X41963Y56994
X38057Y64959
X38517Y66700
X38704Y52350
X33287Y52450
X36057Y64700
X36507Y61360
X25457Y58890
X35872Y59320
X37142Y56765
X35857Y56750
X35172Y59870
X31934Y54685
X59155Y66263
X58964Y52050
X58324Y56077
X49533Y55250
X57099Y55509
X49869Y52922
X50631Y65782
X57682Y55450
X49994Y54955
X51742Y64900
X57164Y56674
X50479Y55537
X55813Y54807
X56114Y64850
X56424Y64482
X57030Y56144
X61255Y65459
X46714Y64550
X60964Y57400
X64034Y58270
X62036Y65831
X60964Y58750
X63855Y59300
X61537Y65823
X60964Y58150
X63572Y58792
X60939Y56684
X50774Y64800
X58395Y59859
X49016Y61828
X59594Y59662
X58055Y65950
X60364Y62600
X50733Y53631
X56314Y51831
X53300Y64926
X58424Y55450
X50505Y54518
X51705Y65931
X60255Y65800
X60330Y52769
X57414Y51850
X56633Y50869
X60024Y50740
X59801Y65708
X57014Y54800
X56955Y65000
X57695Y65219
X58964Y50240
X60964Y60710
X62251Y60047
X50213Y61630
X58414Y66359
X58857Y60370
X65614Y60400
X63514Y64200
X63033Y64131
X61643Y66291
X57770Y60785
X62291Y61914
X58364Y60700
X63999Y60650
X63714Y63450
X63314Y63750
X56035Y53040
X59214Y58050
X63708Y62527
X60918Y61938
X58414Y58050
X56414Y56150
X59314Y53300
X57614Y54350
X60864Y54500
X63614Y54150
X63414Y52450
X66614Y50050
X66414Y47850
X63614Y56850
X62314Y59350
X55058Y63577
X56358Y66227
X57408Y65577
X65558Y66527
X55408Y64877
X46531Y66100
X45608Y54427
X47308Y55027
X50658Y52927
X51458Y57027
X48164Y57150
X53358Y56577
X48308Y65927
X53808Y60577
X57164Y58050
X56459Y61335
X55671Y59665
X51208Y58177
X53958Y52827
X53258Y53727
X54508Y65477
X55114Y56200
X49014Y58250
X50964Y63650
X58244Y63440
X63914Y52450
X60714Y48050
X66614Y49550
X65854Y57650
X46954Y65550
X65092Y66287
X56379Y51377
X56364Y58050
X47045Y57750
X57171Y60915
X62764Y52550
X58164Y50900
X48064Y61888
X55792Y58750
X48057Y58175
X57136Y58504
X63974Y59912
X55104Y59025
X56594Y63130
X59664Y58750
X59664Y57400
X49205Y65113
X62795Y47719
X57064Y57410
X55834Y57006
X53400Y58960
X55505Y65450
X53379Y58446
X55264Y66235
X55134Y54810
X54094Y56340
X53444Y57688
X61033Y51550
X64921Y48700
X60514Y49850
X60364Y52050
X65314Y50250
X66214Y55050
X53868Y61908
X56414Y60650
X63814Y47850
X66214Y54350
X55855Y58300
X55514Y51250
X65614Y47950
X52409Y65249
X55203Y49721
X65314Y51050
X52536Y65690
X54822Y50000
X55929Y57823
X47720Y57356
X59640Y66224
X59227Y51359
X57049Y51450
X59014Y66735
X58373Y51619
X60164Y65350
X64314Y55950
X64470Y56994
X60563Y64959
X61024Y66700
X61211Y52350
X55794Y52450
X58564Y64700
X59014Y61360
X47964Y58890
X58379Y59320
X59649Y56765
X58364Y56750
X57679Y59870
X54441Y54685
X81664Y66263
X81474Y52050
X80833Y56077
X72043Y55250
X79608Y55509
X72379Y52922
X73141Y65782
X80191Y55450
X72503Y54955
X74252Y64900
X79673Y56674
X72989Y55537
X78323Y54807
X78624Y64850
X78933Y64482
X79539Y56144
X83764Y65459
X69224Y64550
X83474Y57400
X86544Y58270
X84545Y65831
X83474Y58750
X86364Y59300
X84047Y65823
X83474Y58150
X86082Y58792
X83449Y56684
X73283Y64800
X80905Y59859
X71525Y61828
X82104Y59662
X80564Y65950
X82874Y62600
X73243Y53631
X78824Y51831
X75809Y64926
X80933Y55450
X73014Y54518
X74214Y65931
X82764Y65800
X82839Y52769
X79924Y51850
X79143Y50869
X82533Y50740
X82310Y65708
X79524Y54800
X79464Y65000
X80205Y65219
X81474Y50240
X83474Y60710
X84761Y60047
X72722Y61630
X80924Y66359
X81367Y60370
X88124Y60400
X86024Y64200
X85543Y64131
X84152Y66291
X80279Y60785
X84800Y61914
X80874Y60700
X86509Y60650
X86224Y63450
X85824Y63750
X78544Y53040
X81724Y58050
X86218Y62527
X83428Y61938
X80924Y58050
X78924Y56150
X81824Y53300
X80124Y54350
X83374Y54500
X86124Y54150
X85924Y52450
X89124Y50050
X88924Y47850
X86124Y56850
X84824Y59350
X77568Y63577
X78868Y66227
X79918Y65577
X88068Y66527
X77918Y64877
X69041Y66100
X68118Y54427
X69818Y55027
X73168Y52927
X73968Y57027
X70674Y57150
X75868Y56577
X70818Y65927
X76318Y60577
X79674Y58050
X78968Y61335
X78181Y59665
X73718Y58177
X76468Y52827
X75768Y53727
X77018Y65477
X77624Y56200
X71524Y58250
X73474Y63650
X80754Y63440
X86424Y52450
X83224Y48050
X89124Y49550
X88364Y57650
X69464Y65550
X87601Y66287
X78888Y51377
X78874Y58050
X69555Y57750
X79681Y60915
X85274Y52550
X80674Y50900
X70574Y61888
X78302Y58750
X70567Y58175
X79646Y58504
X86484Y59912
X77614Y59025
X79104Y63130
X82174Y58750
X82174Y57400
X71714Y65113
X85305Y47719
X79574Y57410
X78343Y57006
X75909Y58960
X78014Y65450
X75889Y58446
X77774Y66235
X77644Y54810
X76604Y56340
X75954Y57688
X83543Y51550
X87431Y48700
X83024Y49850
X82874Y52050
X87824Y50250
X88724Y55050
X76378Y61908
X78924Y60650
X86324Y47850
X88724Y54350
X78364Y58300
X78024Y51250
X88124Y47950
X74919Y65249
X77713Y49721
X87824Y51050
X75046Y65690
X77332Y50000
X78439Y57823
X70230Y57356
X82150Y66224
X81736Y51359
X79558Y51450
X81524Y66735
X80882Y51619
X82674Y65350
X86824Y55950
X86980Y56994
X83073Y64959
X83533Y66700
X83721Y52350
X78304Y52450
X81074Y64700
X81524Y61360
X70474Y58890
X80889Y59320
X82159Y56765
X80874Y56750
X80189Y59870
X76951Y54685
X104171Y66263
X103981Y52050
X103340Y56077
X94550Y55250
X102115Y55509
X94886Y52922
X95648Y65782
X102698Y55450
X95010Y54955
X96759Y64900
X102180Y56674
X7861Y3587
X100830Y54807
X101131Y64850
X101440Y64482
X102046Y56144
X106271Y65459
X91731Y64550
X105981Y57400
X109051Y58270
X107052Y65831
X105981Y58750
X108871Y59300
X106554Y65823
X105981Y58150
X108589Y58792
X105956Y56684
X95790Y64800
X103412Y59859
X94032Y61828
X104611Y59662
X103071Y65950
X105381Y62600
X95750Y53631
X101331Y51831
X98316Y64926
X103440Y55450
X95521Y54518
X96721Y65931
X105271Y65800
X105346Y52769
X102431Y51850
X101650Y50869
X105040Y50740
X104817Y65708
X102031Y54800
X101971Y65000
X102712Y65219
X103981Y50240
X105981Y60710
X107268Y60047
X95229Y61630
X103431Y66359
X103874Y60370
X110631Y60400
X108531Y64200
X108050Y64131
X106659Y66291
X102786Y60785
X107307Y61914
X103381Y60700
X109016Y60650
X108731Y63450
X108331Y63750
X101051Y53040
X104231Y58050
X108725Y62527
X105935Y61938
X103431Y58050
X101431Y56150
X104331Y53300
X102631Y54350
X105881Y54500
X108631Y54150
X108431Y52450
X111631Y50050
X111431Y47850
X108631Y56850
X107331Y59350
X100075Y63577
X101375Y66227
X102425Y65577
X110575Y66527
X100425Y64877
X91548Y66100
X90625Y54427
X92325Y55027
X95675Y52927
X96475Y57027
X93181Y57150
X98375Y56577
X93325Y65927
X98825Y60577
X102181Y58050
X101475Y61335
X100688Y59665
X96225Y58177
X98975Y52827
X98275Y53727
X99525Y65477
X100131Y56200
X94031Y58250
X95981Y63650
X103261Y63440
X108931Y52450
X105731Y48050
X111631Y49550
X110871Y57650
X91971Y65550
X110108Y66287
X101395Y51377
X101381Y58050
X92062Y57750
X102188Y60915
X107781Y52550
X103181Y50900
X93081Y61888
X100809Y58750
X93074Y58175
X102153Y58504
X108991Y59912
X100121Y59025
X101611Y63130
X104681Y58750
X104681Y57400
X94221Y65113
X107812Y47719
X102081Y57410
X100850Y57006
X98416Y58960
X100521Y65450
X98396Y58446
X100281Y66235
X100151Y54810
X99111Y56340
X98461Y57688
X106050Y51550
X109938Y48700
X105531Y49850
X105381Y52050
X110331Y50250
X111231Y55050
X98885Y61908
X101431Y60650
X108831Y47850
X111231Y54350
X100871Y58300
X100531Y51250
X110631Y47950
X97426Y65249
X100220Y49721
X110331Y51050
X97553Y65690
X99839Y50000
X100946Y57823
X92737Y57356
X104657Y66224
X104243Y51359
X102065Y51450
X104031Y66735
X103389Y51619
X105181Y65350
X109331Y55950
X109487Y56994
X105580Y64959
X106040Y66700
X106228Y52350
X100811Y52450
X103581Y64700
X104031Y61360
X92981Y58890
X103396Y59320
X104666Y56765
X103381Y56750
X102696Y59870
X99458Y54685
X126681Y66263
X126490Y52050
X125850Y56077
X117059Y55250
X124625Y55509
X117395Y52922
X118157Y65782
X125208Y55450
X117520Y54955
X119268Y64900
X124690Y56674
X118005Y55537
X123339Y54807
X123640Y64850
X123950Y64482
X124556Y56144
X128781Y65459
X114240Y64550
X128490Y57400
X131560Y58270
X129562Y65831
X128490Y58750
X131381Y59300
X129063Y65823
X128490Y58150
X131098Y58792
X128465Y56684
X118300Y64800
X125921Y59859
X116542Y61828
X127120Y59662
X125581Y65950
X127890Y62600
X118259Y53631
X123840Y51831
X120826Y64926
X125950Y55450
X118031Y54518
X119231Y65931
X127781Y65800
X127856Y52769
X124940Y51850
X124159Y50869
X127550Y50740
X127327Y65708
X124540Y54800
X124481Y65000
X125221Y65219
X126490Y50240
X128490Y60710
X129777Y60047
X117739Y61630
X125940Y66359
X126383Y60370
X133140Y60400
X131040Y64200
X130559Y64131
X129169Y66291
X125296Y60785
X129817Y61914
X125890Y60700
X131525Y60650
X131240Y63450
X130840Y63750
X123561Y53040
X126740Y58050
X131234Y62527
X128444Y61938
X125940Y58050
X123940Y56150
X126840Y53300
X125140Y54350
X128390Y54500
X131140Y54150
X130940Y52450
X134140Y50050
X133940Y47850
X131140Y56850
X129840Y59350
X122584Y63577
X123884Y66227
X124934Y65577
X133084Y66527
X122934Y64877
X114057Y66100
X113134Y54427
X114834Y55027
X118184Y52927
X118984Y57027
X115690Y57150
X120884Y56577
X115834Y65927
X121334Y60577
X124690Y58050
X123985Y61335
X123197Y59665
X118734Y58177
X121484Y52827
X120784Y53727
X122034Y65477
X122640Y56200
X116540Y58250
X118490Y63650
X125770Y63440
X131440Y52450
X128240Y48050
X134140Y49550
X133380Y57650
X114480Y65550
X132618Y66287
X123905Y51377
X123890Y58050
X114571Y57750
X124697Y60915
X130290Y52550
X125690Y50900
X115590Y61888
X123318Y58750
X115583Y58175
X124662Y58504
X131500Y59912
X122630Y59025
X124120Y63130
X127190Y58750
X127190Y57400
X116731Y65113
X130321Y47719
X124590Y57410
X123360Y57006
X120926Y58960
X123031Y65450
X120905Y58446
X122790Y66235
X122660Y54810
X121620Y56340
X120970Y57688
X128559Y51550
X132447Y48700
X128040Y49850
X127890Y52050
X132840Y50250
X133740Y55050
X121394Y61908
X123940Y60650
X131340Y47850
X133740Y54350
X123381Y58300
X123040Y51250
X133140Y47950
X119935Y65249
X122729Y49721
X132840Y51050
X120062Y65690
X122348Y50000
X123455Y57823
X115246Y57356
X127166Y66224
X126753Y51359
X124575Y51450
X126540Y66735
X125899Y51619
X127690Y65350
X131840Y55950
X131996Y56994
X128089Y64959
X128550Y66700
X128737Y52350
X123320Y52450
X126090Y64700
X126540Y61360
X115490Y58890
X125905Y59320
X127175Y56765
X125890Y56750
X125205Y59870
X121967Y54685
X149188Y66263
X148997Y52050
X148357Y56077
X139566Y55250
X147132Y55509
X139902Y52922
X140664Y65782
X147715Y55450
X140026Y54955
X141775Y64900
X147197Y56674
X140512Y55537
X145846Y54807
X95496Y55537
X146457Y64482
X147062Y56144
X151288Y65459
X136747Y64550
X150997Y57400
X154067Y58270
X152069Y65831
X150997Y58750
X153888Y59300
X151570Y65823
X150997Y58150
X153605Y58792
X150972Y56684
X140807Y64800
X148428Y59859
X139049Y61828
X149627Y59662
X148088Y65950
X150397Y62600
X140766Y53631
X146347Y51831
X143333Y64926
X148457Y55450
X140538Y54518
X141738Y65931
X150288Y65800
X150363Y52769
X147447Y51850
X146666Y50869
X150057Y50740
X149834Y65708
X147047Y54800
X146988Y65000
X147728Y65219
X148997Y50240
X150997Y60710
X152284Y60047
X140245Y61630
X148447Y66359
X148890Y60370
X155647Y60400
X153547Y64200
X153066Y64131
X151676Y66291
X147803Y60785
X152324Y61914
X148397Y60700
X154032Y60650
X153747Y63450
X153347Y63750
X146068Y53040
X149247Y58050
X153741Y62527
X150951Y61938
X148447Y58050
X146447Y56150
X149347Y53300
X147647Y54350
X150897Y54500
X153647Y54150
X153447Y52450
X156647Y50050
X156447Y47850
X153647Y56850
X152347Y59350
X145091Y63577
X146391Y66227
X147441Y65577
X155591Y66527
X145441Y64877
X136564Y66100
X135641Y54427
X137341Y55027
X140691Y52927
X141491Y57027
X138197Y57150
X143391Y56577
X138341Y65927
X143841Y60577
X147197Y58050
X146492Y61335
X145704Y59665
X141241Y58177
X143991Y52827
X143291Y53727
X144541Y65477
X145147Y56200
X139047Y58250
X140997Y63650
X148277Y63440
X153947Y52450
X150747Y48050
X156647Y49550
X155887Y57650
X136987Y65550
X155124Y66287
X146412Y51377
X146397Y58050
X137078Y57750
X147204Y60915
X152797Y52550
X148197Y50900
X138097Y61888
X145825Y58750
X138090Y58175
X147169Y58504
X154007Y59912
X145137Y59025
X146627Y63130
X149697Y58750
X149697Y57400
X139238Y65113
X152828Y47719
X147097Y57410
X145867Y57006
X143433Y58960
X145538Y65450
X143412Y58446
X145297Y66235
X145167Y54810
X144127Y56340
X143477Y57688
X151066Y51550
X154954Y48700
X150547Y49850
X150397Y52050
X155347Y50250
X156247Y55050
X143901Y61908
X146447Y60650
X153847Y47850
X156247Y54350
X145888Y58300
X145547Y51250
X155647Y47950
X142442Y65249
X145236Y49721
X155347Y51050
X142569Y65690
X144855Y50000
X145962Y57823
X137753Y57356
X149673Y66224
X149260Y51359
X147082Y51450
X149047Y66735
X148406Y51619
X150197Y65350
X154347Y55950
X154503Y56994
X150596Y64959
X151057Y66700
X151244Y52350
X145827Y52450
X148597Y64700
X149047Y61360
X137997Y58890
X148412Y59320
X149682Y56765
X148397Y56750
X147712Y59870
X144474Y54685
X171695Y66263
X171504Y52050
X170864Y56077
X162073Y55250
X169639Y55509
X162409Y52922
X163171Y65782
X170222Y55450
X162533Y54955
X164282Y64900
X169704Y56674
X163019Y55537
X168353Y54807
X168654Y64850
X168964Y64482
X169569Y56144
X173795Y65459
X159254Y64550
X173504Y57400
X176574Y58270
X174576Y65831
X173504Y58750
X176394Y59300
X174077Y65823
X173504Y58150
X176112Y58792
X173479Y56684
X163314Y64800
X170935Y59859
X161556Y61828
X172134Y59662
X170595Y65950
X172904Y62600
X163273Y53631
X168854Y51831
X165840Y64926
X170964Y55450
X163045Y54518
X164245Y65931
X172795Y65800
X172870Y52769
X169954Y51850
X169173Y50869
X172564Y50740
X172341Y65708
X169554Y54800
X169495Y65000
X170235Y65219
X171504Y50240
X173504Y60710
X174791Y60047
X162752Y61630
X170954Y66359
X171397Y60370
X178154Y60400
X176054Y64200
X175573Y64131
X174183Y66291
X170310Y60785
X174831Y61914
X170904Y60700
X176539Y60650
X176254Y63450
X175854Y63750
X168575Y53040
X171754Y58050
X176248Y62527
X173458Y61938
X170954Y58050
X168954Y56150
X171854Y53300
X170154Y54350
X173404Y54500
X176154Y54150
X175954Y52450
X179154Y50050
X178954Y47850
X176154Y56850
X174854Y59350
X167598Y63577
X168898Y66227
X169948Y65577
X178098Y66527
X167948Y64877
X159071Y66100
X158148Y54427
X159848Y55027
X163198Y52927
X163998Y57027
X160704Y57150
X165898Y56577
X160848Y65927
X166348Y60577
X169704Y58050
X168999Y61335
X168211Y59665
X163748Y58177
X166498Y52827
X165798Y53727
X167048Y65477
X167654Y56200
X161554Y58250
X163504Y63650
X170784Y63440
X176454Y52450
X173254Y48050
X179154Y49550
X178394Y57650
X159494Y65550
X177631Y66287
X168919Y51377
X168904Y58050
X159585Y57750
X169711Y60915
X175304Y52550
X170704Y50900
X160604Y61888
X168332Y58750
X160597Y58175
X169676Y58504
X176514Y59912
X167644Y59025
X169134Y63130
X172204Y58750
X172204Y57400
X161745Y65113
X175335Y47719
X169604Y57410
X168374Y57006
X165940Y58960
X168045Y65450
X165919Y58446
X167804Y66235
X167674Y54810
X166634Y56340
X165984Y57688
X173573Y51550
X177461Y48700
X173054Y49850
X172904Y52050
X177854Y50250
X178754Y55050
X166408Y61908
X168954Y60650
X176354Y47850
X178754Y54350
X168395Y58300
X168054Y51250
X178154Y47950
X164949Y65249
X167743Y49721
X177854Y51050
X165076Y65690
X167362Y50000
X168469Y57823
X160260Y57356
X172180Y66224
X171767Y51359
X169589Y51450
X171554Y66735
X170913Y51619
X172704Y65350
X176854Y55950
X177010Y56994
X173103Y64959
X173564Y66700
X173751Y52350
X168334Y52450
X171104Y64700
X171554Y61360
X160504Y58890
X170919Y59320
X172189Y56765
X170904Y56750
X170219Y59870
X166981Y54685
X8051Y17800
X8692Y13773
X17482Y14600
X9916Y14341
X17146Y16928
X16384Y4068
X9333Y14400
X17022Y14895
X15273Y4950
X9852Y13176
X16536Y14313
X11202Y15043
X10901Y5000
X10592Y5368
X9986Y13706
X146147Y64850
M30