M48
;GenerationSoftware,Autodesk,EAGLE,9.5.2*%
;CreationDate,2020-08-29T20:28:11Z*%
FMAT,2
ICI,OFF
METRIC,TZ,000.000
T1C0.200
%
G90
M71
T1
X8310Y2787
X8050Y17000
X8650Y12873
X17781Y16650
X10015Y13591
X18095Y16978
X16683Y4368
X8647Y14300
X17421Y16945
X15087Y3876
X9900Y12326
X16787Y11960
X11201Y14243
X10900Y4950
X10390Y5068
X9985Y12906
X6110Y3941
X20300Y4500
X6050Y11650
X4979Y3219
X6050Y10300
X3460Y9750
X5477Y3427
X6050Y10900
X3442Y10358
X6075Y12366
X1278Y9700
X15590Y4350
X8669Y9091
X18864Y7472
X7370Y9038
X8460Y3700
X6650Y6450
X16081Y17619
X10700Y17219
X16579Y3081
X8590Y13600
X16610Y16482
X16236Y3560
X6910Y3250
X5835Y17581
X9600Y17200
X10381Y18181
X6990Y18310
X7364Y3342
X7483Y13659
X1709Y4911
X19010Y18650
X4763Y9003
X16675Y7420
X8007Y8430
X1550Y8600
X3500Y4850
X3981Y4919
X5371Y2859
X9295Y8415
X4750Y7110
X8650Y8350
X3015Y8400
X3319Y5554
X11280Y17010
X8000Y11000
X3306Y6523
X6050Y7060
X8600Y11000
X10600Y12900
X7700Y15950
X9950Y14300
X6050Y14900
X3400Y14700
X3600Y16600
X400Y19000
X600Y21200
X4700Y9700
X12656Y6573
X8956Y4473
X1456Y2523
X20483Y2950
X21206Y14623
X19706Y14023
X16310Y15449
X15156Y14023
X17677Y10750
X13633Y12496
X18706Y4173
X13106Y8473
X9300Y11000
X9955Y7815
X11343Y9310
X13206Y16223
X13756Y15323
X12656Y3723
X4760Y12880
X11206Y4123
X20356Y6323
X15729Y12626
X18733Y2900
X15206Y10373
X1660Y13700
X10635Y17673
X20101Y3210
X1800Y3110
X10000Y11010
X19969Y11300
X9943Y8335
X4250Y16500
X8850Y18150
X19426Y9535
X11222Y10350
X19007Y10775
X9978Y10346
X3067Y10019
X12700Y10010
X10420Y6320
X7350Y10300
X7350Y11750
X4219Y21331
X17936Y3937
X12125Y20460
X9950Y11640
X9316Y13576
X9350Y18181
X11230Y11630
X13614Y10240
X11760Y4250
X13635Y10754
X11950Y3765
X11980Y14240
X12920Y12710
X12681Y11108
X2093Y20350
X6400Y16360
X6373Y19327
X6550Y17100
X1700Y18800
X6109Y7747
X1143Y7403
X13744Y6012
X9950Y9050
X21255Y8310
X13688Y7749
X21255Y8840
X12563Y8369
X14500Y8960
X14056Y6606
X21250Y7710
X3200Y21327
X700Y15500
X11270Y11000
X11500Y17800
X3700Y21310
X11200Y20210
X2700Y20350
X1700Y18000
X10575Y11027
X19421Y11594
X7574Y2826
X7787Y18141
X9715Y17750
X8000Y2315
X8641Y17431
X6850Y4000
X2277Y13200
X2494Y12056
X4110Y13640
X5990Y2350
X5453Y16700
X11820Y17000
X8450Y4350
X8000Y7691
X19300Y10210
X8635Y9730
X7365Y12285
X8650Y12300
X9285Y9130
X12573Y14365
X3100Y16600
X6300Y21000
X400Y19500
X21600Y5010
X1802Y14863
X21621Y20110
X8670Y5410
X4760Y11050
X10571Y2839
X4110Y11000
X10110Y4000
X3360Y10850
X9610Y3000
X3360Y12050
X9452Y3454
X4060Y11650
X9249Y4024
X4760Y11650
X1137Y6900
X19376Y8887
X6050Y8960
X3743Y5731
X30308Y2787
X30049Y17000
X30649Y12873
X39780Y16650
X32014Y13591
X40094Y16978
X38682Y4368
X30646Y14300
X39420Y16945
X37086Y3876
X31899Y12326
X38786Y11960
X33200Y14243
X32899Y4950
X32389Y5068
X31984Y12906
X28108Y3941
X42299Y4500
X28049Y11650
X26977Y3219
X28049Y10300
X25459Y9750
X27476Y3427
X28049Y10900
X25441Y10358
X28074Y12366
X23277Y9700
X37589Y4350
X30668Y9091
X40863Y7472
X29369Y9038
X30458Y3700
X28649Y6450
X38080Y17619
X32699Y17219
X38578Y3081
X30589Y13600
X38608Y16482
X38235Y3560
X28908Y3250
X27833Y17581
X31599Y17200
X32380Y18181
X28989Y18310
X29362Y3342
X29482Y13659
X23708Y4911
X41009Y18650
X26762Y9003
X38674Y7420
X30006Y8430
X23549Y8600
X25499Y4850
X25980Y4919
X27370Y2859
X31293Y8415
X26749Y7110
X30649Y8350
X25014Y8400
X25318Y5554
X33278Y17010
X29999Y11000
X25305Y6523
X28049Y7060
X30599Y11000
X32599Y12900
X29699Y15950
X31949Y14300
X28049Y14900
X25399Y14700
X25599Y16600
X22399Y19000
X22599Y21200
X26699Y9700
X34655Y6573
X30955Y4473
X23455Y2523
X42482Y2950
X43205Y14623
X41705Y14023
X38309Y15449
X37155Y14023
X39676Y10750
X35632Y12496
X40705Y4173
X35105Y8473
X31299Y11000
X31954Y7815
X33342Y9310
X35205Y16223
X35755Y15323
X34655Y3723
X26759Y12880
X33205Y4123
X42355Y6323
X37728Y12626
X40732Y2900
X37205Y10373
X23659Y13700
X32634Y17673
X42100Y3210
X23799Y3110
X31999Y11010
X41968Y11300
X31942Y8335
X26249Y16500
X30849Y18150
X41425Y9535
X33221Y10350
X41006Y10775
X31977Y10346
X25066Y10019
X34699Y10010
X32419Y6320
X29349Y10300
X29349Y11750
X26218Y21331
X39935Y3937
X34124Y20460
X31949Y11640
X31315Y13576
X31349Y18181
X33229Y11630
X35613Y10240
X33758Y4250
X35634Y10754
X33949Y3765
X33979Y14240
X34919Y12710
X34680Y11108
X24092Y20350
X28399Y16360
X28372Y19327
X28549Y17100
X23699Y18800
X28108Y7747
X23142Y7403
X35743Y6012
X31949Y9050
X43254Y8310
X35687Y7749
X43254Y8840
X34562Y8369
X36499Y8960
X36055Y6606
X43249Y7710
X25199Y21327
X22699Y15500
X33269Y11000
X33499Y17800
X25699Y21310
X33199Y20210
X24699Y20350
X23699Y18000
X32574Y11027
X41420Y11594
X29573Y2826
X29786Y18141
X31714Y17750
X29999Y2315
X30640Y17431
X28849Y4000
X24276Y13200
X24493Y12056
X26109Y13640
X27989Y2350
X27452Y16700
X33819Y17000
X30449Y4350
X29999Y7691
X41299Y10210
X30634Y9730
X29364Y12285
X30649Y12300
X31284Y9130
X34572Y14365
X25099Y16600
X28299Y21000
X22399Y19500
X43599Y5010
X23801Y14863
X43620Y20110
X30669Y5410
X26759Y11050
X32570Y2839
X26109Y11000
X32108Y4000
X25359Y10850
X31609Y3000
X25359Y12050
X31451Y3454
X26059Y11650
X31248Y4024
X26759Y11650
X23136Y6900
X41375Y8887
X28049Y8960
X25742Y5731
X52310Y2787
X52050Y17000
X52651Y12873
X61781Y16650
X54016Y13591
X62095Y16978
X60683Y4368
X52648Y14300
X61421Y16945
X59087Y3876
X53901Y12326
X60788Y11960
X55201Y14243
X54900Y4950
X54391Y5068
X53985Y12906
X50110Y3941
X64300Y4500
X50050Y11650
X48979Y3219
X50050Y10300
X47460Y9750
X49477Y3427
X50050Y10900
X47442Y10358
X50076Y12366
X45279Y9700
X59591Y4350
X52670Y9091
X62865Y7472
X51370Y9038
X52460Y3700
X50650Y6450
X60082Y17619
X54700Y17219
X60579Y3081
X52591Y13600
X60610Y16482
X60237Y3560
X50910Y3250
X49835Y17581
X53600Y17200
X54382Y18181
X50991Y18310
X51364Y3342
X51484Y13659
X45709Y4911
X63010Y18650
X48763Y9003
X60675Y7420
X52008Y8430
X45550Y8600
X47500Y4850
X47982Y4919
X49372Y2859
X53295Y8415
X48750Y7110
X52650Y8350
X47015Y8400
X47319Y5554
X55280Y17010
X52000Y11000
X47306Y6523
X50050Y7060
X52600Y11000
X54600Y12900
X51700Y15950
X53950Y14300
X50050Y14900
X47400Y14700
X47600Y16600
X44400Y19000
X44600Y21200
X48700Y9700
X56656Y6573
X52956Y4473
X45456Y2523
X64483Y2950
X65206Y14623
X63706Y14023
X60310Y15449
X59156Y14023
X61677Y10750
X57633Y12496
X62706Y4173
X57106Y8473
X53300Y11000
X53956Y7815
X55343Y9310
X57206Y16223
X57756Y15323
X56656Y3723
X48760Y12880
X55206Y4123
X64356Y6323
X59729Y12626
X62733Y2900
X59206Y10373
X45660Y13700
X54636Y17673
X64101Y3210
X45800Y3110
X54000Y11010
X63970Y11300
X53943Y8335
X48250Y16500
X52850Y18150
X63427Y9535
X55222Y10350
X63007Y10775
X53978Y10346
X47067Y10019
X56700Y10010
X54420Y6320
X51350Y10300
X51350Y11750
X48219Y21331
X61936Y3937
X56125Y20460
X53950Y11640
X53316Y13576
X53350Y18181
X55230Y11630
X57615Y10240
X55760Y4250
X57635Y10754
X55950Y3765
X55981Y14240
X56920Y12710
X56681Y11108
X46093Y20350
X50400Y16360
X50373Y19327
X50550Y17100
X45700Y18800
X50109Y7747
X45143Y7403
X57744Y6012
X53950Y9050
X65255Y8310
X57689Y7749
X65255Y8840
X56564Y8369
X58500Y8960
X58056Y6606
X65250Y7710
X47200Y21327
X44700Y15500
X55270Y11000
X55500Y17800
X47700Y21310
X55200Y20210
X46700Y20350
X45700Y18000
X54575Y11027
X63421Y11594
X51575Y2826
X51788Y18141
X53716Y17750
X52000Y2315
X52642Y17431
X50850Y4000
X46277Y13200
X46494Y12056
X48110Y13640
X49991Y2350
X49454Y16700
X55820Y17000
X52450Y4350
X52000Y7691
X63300Y10210
X52635Y9730
X51365Y12285
X52650Y12300
X53285Y9130
X56573Y14365
X47100Y16600
X50300Y21000
X44400Y19500
X65600Y5010
X45803Y14863
X65621Y20110
X52670Y5410
X48760Y11050
X54572Y2839
X48110Y11000
X54110Y4000
X47360Y10850
X53610Y3000
X47360Y12050
X53453Y3454
X48060Y11650
X53250Y4024
X48760Y11650
X45138Y6900
X63377Y8887
X50050Y8960
X47743Y5731
X74309Y2787
X74049Y17000
X74650Y12873
X83780Y16650
X76015Y13591
X84094Y16978
X82682Y4368
X74647Y14300
X83420Y16945
X81086Y3876
X75900Y12326
X82787Y11960
X77200Y14243
X76899Y4950
X76390Y5068
X75984Y12906
X72109Y3941
X86299Y4500
X72049Y11650
X70978Y3219
X72049Y10300
X69459Y9750
X71476Y3427
X72049Y10900
X69441Y10358
X72074Y12366
X67278Y9700
X81590Y4350
X74668Y9091
X84864Y7472
X73369Y9038
X74459Y3700
X72649Y6450
X82080Y17619
X76699Y17219
X82578Y3081
X74590Y13600
X82609Y16482
X82236Y3560
X72909Y3250
X71834Y17581
X75599Y17200
X76380Y18181
X72990Y18310
X73363Y3342
X73483Y13659
X67708Y4911
X85009Y18650
X70762Y9003
X82674Y7420
X74006Y8430
X67549Y8600
X69499Y4850
X69980Y4919
X71371Y2859
X75294Y8415
X70749Y7110
X74649Y8350
X69014Y8400
X69318Y5554
X77279Y17010
X73999Y11000
X69305Y6523
X72049Y7060
X74599Y11000
X76599Y12900
X73699Y15950
X75949Y14300
X72049Y14900
X69399Y14700
X69599Y16600
X66399Y19000
X66599Y21200
X70699Y9700
X78655Y6573
X74955Y4473
X67455Y2523
X86482Y2950
X87205Y14623
X85705Y14023
X82309Y15449
X81155Y14023
X83676Y10750
X79632Y12496
X84705Y4173
X79105Y8473
X75299Y11000
X75955Y7815
X77342Y9310
X79205Y16223
X79755Y15323
X78655Y3723
X70759Y12880
X77205Y4123
X86355Y6323
X81728Y12626
X84732Y2900
X81205Y10373
X67659Y13700
X76635Y17673
X86100Y3210
X67799Y3110
X75999Y11010
X85968Y11300
X75942Y8335
X70249Y16500
X74849Y18150
X85426Y9535
X77221Y10350
X85006Y10775
X75977Y10346
X69066Y10019
X78699Y10010
X76419Y6320
X73349Y10300
X73349Y11750
X70218Y21331
X83935Y3937
X78124Y20460
X75949Y11640
X75315Y13576
X75349Y18181
X77229Y11630
X79614Y10240
X77759Y4250
X79634Y10754
X77949Y3765
X77980Y14240
X78919Y12710
X78680Y11108
X68092Y20350
X72399Y16360
X72372Y19327
X72549Y17100
X67699Y18800
X72108Y7747
X67142Y7403
X79743Y6012
X75949Y9050
X87254Y8310
X79688Y7749
X87254Y8840
X78563Y8369
X80499Y8960
X80055Y6606
X87249Y7710
X69199Y21327
X66699Y15500
X77269Y11000
X77499Y17800
X69699Y21310
X77199Y20210
X68699Y20350
X67699Y18000
X76574Y11027
X85420Y11594
X73573Y2826
X73787Y18141
X75715Y17750
X73999Y2315
X74641Y17431
X72849Y4000
X68276Y13200
X68493Y12056
X70109Y13640
X71990Y2350
X71452Y16700
X77819Y17000
X74449Y4350
X73999Y7691
X85299Y10210
X74634Y9730
X73364Y12285
X74649Y12300
X75284Y9130
X78572Y14365
X69099Y16600
X72299Y21000
X66399Y19500
X87599Y5010
X67802Y14863
X87620Y20110
X74669Y5410
X70759Y11050
X76571Y2839
X70109Y11000
X76109Y4000
X69359Y10850
X75609Y3000
X69359Y12050
X75452Y3454
X70059Y11650
X75249Y4024
X70759Y11650
X67137Y6900
X85376Y8887
X72049Y8960
X69742Y5731
X96310Y2787
X96051Y17000
X96651Y12873
X105782Y16650
X98016Y13591
X106096Y16978
X104684Y4368
X96648Y14300
X105421Y16945
X103088Y3876
X97901Y12326
X104788Y11960
X99202Y14243
X98901Y4950
X98391Y5068
X97986Y12906
X94110Y3941
X108301Y4500
X94051Y11650
X92979Y3219
X94051Y10300
X91460Y9750
X93478Y3427
X94051Y10900
X91443Y10358
X94076Y12366
X89279Y9700
X103591Y4350
X96670Y9091
X106865Y7472
X95371Y9038
X96460Y3700
X94651Y6450
X104082Y17619
X98701Y17219
X104579Y3081
X96591Y13600
X104610Y16482
X104237Y3560
X94910Y3250
X93835Y17581
X97601Y17200
X98382Y18181
X94991Y18310
X95364Y3342
X95484Y13659
X89709Y4911
X107011Y18650
X92764Y9003
X104675Y7420
X96008Y8430
X89551Y8600
X91501Y4850
X91982Y4919
X93372Y2859
X97295Y8415
X92751Y7110
X96651Y8350
X91016Y8400
X91320Y5554
X99280Y17010
X96001Y11000
X91307Y6523
X94051Y7060
X96601Y11000
X98601Y12900
X95701Y15950
X97951Y14300
X94051Y14900
X91401Y14700
X91601Y16600
X88401Y19000
X88601Y21200
X92701Y9700
X100657Y6573
X96957Y4473
X89457Y2523
X108484Y2950
X109207Y14623
X107707Y14023
X104311Y15449
X103157Y14023
X105678Y10750
X101634Y12496
X106707Y4173
X101107Y8473
X97301Y11000
X97956Y7815
X99344Y9310
X101207Y16223
X101757Y15323
X100657Y3723
X92761Y12880
X99207Y4123
X108357Y6323
X103730Y12626
X106734Y2900
X103207Y10373
X89661Y13700
X98636Y17673
X108102Y3210
X89801Y3110
X98001Y11010
X107970Y11300
X97944Y8335
X92251Y16500
X96851Y18150
X107427Y9535
X99223Y10350
X107008Y10775
X97979Y10346
X91068Y10019
X100701Y10010
X98421Y6320
X95351Y10300
X95351Y11750
X92220Y21331
X105937Y3937
X100126Y20460
X97951Y11640
X97317Y13576
X97351Y18181
X99231Y11630
X101615Y10240
X99760Y4250
X101636Y10754
X99951Y3765
X99981Y14240
X100921Y12710
X100682Y11108
X90094Y20350
X94401Y16360
X94374Y19327
X94551Y17100
X89701Y18800
X94110Y7747
X89144Y7403
X101745Y6012
X97951Y9050
X109256Y8310
X101689Y7749
X109256Y8840
X100564Y8369
X102501Y8960
X102057Y6606
X109251Y7710
X91201Y21327
X88701Y15500
X99271Y11000
X99501Y17800
X91701Y21310
X99201Y20210
X90701Y20350
X89701Y18000
X98576Y11027
X107422Y11594
X95575Y2826
X95788Y18141
X97716Y17750
X96001Y2315
X96642Y17431
X94851Y4000
X90278Y13200
X90495Y12056
X92111Y13640
X93991Y2350
X93454Y16700
X99821Y17000
X96451Y4350
X96001Y7691
X107301Y10210
X96636Y9730
X95366Y12285
X96651Y12300
X97286Y9130
X100574Y14365
X91101Y16600
X94301Y21000
X88401Y19500
X109601Y5010
X89803Y14863
X109621Y20110
X96671Y5410
X92761Y11050
X98572Y2839
X92111Y11000
X98110Y4000
X91361Y10850
X97611Y3000
X91361Y12050
X97453Y3454
X92061Y11650
X97250Y4024
X92761Y11650
X89138Y6900
X107377Y8887
X94051Y8960
X91744Y5731
X118309Y2787
X118050Y17000
X118650Y12873
X127781Y16650
X120015Y13591
X128095Y16978
X126683Y4368
X118647Y14300
X127420Y16945
X125087Y3876
X119900Y12326
X126787Y11960
X121201Y14243
X120900Y4950
X120390Y5068
X119984Y12906
X116109Y3941
X130300Y4500
X116050Y11650
X114978Y3219
X116050Y10300
X113459Y9750
X115477Y3427
X116050Y10900
X113442Y10358
X116075Y12366
X111278Y9700
X125590Y4350
X118669Y9091
X128864Y7472
X117370Y9038
X118459Y3700
X116650Y6450
X126081Y17619
X120700Y17219
X126578Y3081
X118590Y13600
X126609Y16482
X126236Y3560
X116909Y3250
X115834Y17581
X119600Y17200
X120381Y18181
X116990Y18310
X117363Y3342
X117483Y13659
X111708Y4911
X129010Y18650
X114763Y9003
X126674Y7420
X118007Y8430
X111550Y8600
X113500Y4850
X113981Y4919
X115371Y2859
X119294Y8415
X114750Y7110
X118650Y8350
X113015Y8400
X113319Y5554
X121279Y17010
X118000Y11000
X113306Y6523
X116050Y7060
X118600Y11000
X120600Y12900
X117700Y15950
X119950Y14300
X116050Y14900
X113400Y14700
X113600Y16600
X110400Y19000
X110600Y21200
X114700Y9700
X122656Y6573
X118956Y4473
X111456Y2523
X130483Y2950
X131206Y14623
X129706Y14023
X126310Y15449
X125156Y14023
X127677Y10750
X123633Y12496
X128706Y4173
X123106Y8473
X119300Y11000
X119955Y7815
X121343Y9310
X123206Y16223
X123756Y15323
X122656Y3723
X114760Y12880
X121206Y4123
X130356Y6323
X125729Y12626
X128733Y2900
X125206Y10373
X111660Y13700
X120635Y17673
X130101Y3210
X111800Y3110
X120000Y11010
X129969Y11300
X119943Y8335
X114250Y16500
X118850Y18150
X129426Y9535
X121222Y10350
X129007Y10775
X119978Y10346
X113067Y10019
X122700Y10010
X120420Y6320
X117350Y10300
X117350Y11750
X114219Y21331
X127936Y3937
X122125Y20460
X119950Y11640
X119316Y13576
X119350Y18181
X121230Y11630
X123614Y10240
X121759Y4250
X123635Y10754
X121950Y3765
X121980Y14240
X122920Y12710
X122681Y11108
X112093Y20350
X116400Y16360
X116373Y19327
X116550Y17100
X111700Y18800
X116108Y7747
X111143Y7403
X123744Y6012
X119950Y9050
X131255Y8310
X123688Y7749
X131255Y8840
X122563Y8369
X124500Y8960
X124056Y6606
X131250Y7710
X113200Y21327
X110700Y15500
X121270Y11000
X121500Y17800
X113700Y21310
X121200Y20210
X112700Y20350
X111700Y18000
X120575Y11027
X129421Y11594
X117574Y2826
X117787Y18141
X119715Y17750
X118000Y2315
X118641Y17431
X116850Y4000
X112277Y13200
X112494Y12056
X114110Y13640
X115990Y2350
X115453Y16700
X121820Y17000
X118450Y4350
X118000Y7691
X129300Y10210
X118635Y9730
X117365Y12285
X118650Y12300
X119285Y9130
X122573Y14365
X113100Y16600
X116300Y21000
X110400Y19500
X131600Y5010
X111802Y14863
X131620Y20110
X118670Y5410
X114760Y11050
X120571Y2839
X114110Y11000
X120109Y4000
X113360Y10850
X119610Y3000
X113360Y12050
X119452Y3454
X114060Y11650
X119249Y4024
X114760Y11650
X111137Y6900
X129376Y8887
X116050Y8960
X113743Y5731
X140311Y2787
X140051Y17000
X140652Y12873
X149782Y16650
X142017Y13591
X150096Y16978
X148684Y4368
X140649Y14300
X149422Y16945
X147088Y3876
X141902Y12326
X148788Y11960
X143202Y14243
X142901Y4950
X142392Y5068
X141986Y12906
X138111Y3941
X152301Y4500
X138051Y11650
X136980Y3219
X138051Y10300
X135461Y9750
X137478Y3427
X138051Y10900
X135443Y10358
X138076Y12366
X133279Y9700
X147592Y4350
X140670Y9091
X150866Y7472
X139371Y9038
X140461Y3700
X138651Y6450
X148082Y17619
X142701Y17219
X148580Y3081
X140592Y13600
X148611Y16482
X148238Y3560
X138911Y3250
X137836Y17581
X141601Y17200
X142382Y18181
X138992Y18310
X139365Y3342
X139484Y13659
X133710Y4911
X151011Y18650
X136764Y9003
X148676Y7420
X140008Y8430
X133551Y8600
X135501Y4850
X135982Y4919
X137373Y2859
X141296Y8415
X136751Y7110
X140651Y8350
X135016Y8400
X135320Y5554
X143281Y17010
X140001Y11000
X135307Y6523
X138051Y7060
X140601Y11000
X142601Y12900
X139701Y15950
X141951Y14300
X138051Y14900
X135401Y14700
X135601Y16600
X132401Y19000
X132601Y21200
X136701Y9700
X144657Y6573
X140957Y4473
X133457Y2523
X152484Y2950
X153207Y14623
X151707Y14023
X148311Y15449
X147157Y14023
X149678Y10750
X145634Y12496
X150707Y4173
X145107Y8473
X141301Y11000
X141957Y7815
X143344Y9310
X145207Y16223
X145757Y15323
X144657Y3723
X136761Y12880
X143207Y4123
X152357Y6323
X147730Y12626
X150734Y2900
X147207Y10373
X133661Y13700
X142637Y17673
X152102Y3210
X133801Y3110
X142001Y11010
X151970Y11300
X141944Y8335
X136251Y16500
X140851Y18150
X151427Y9535
X143223Y10350
X151008Y10775
X141979Y10346
X135068Y10019
X144701Y10010
X142421Y6320
X139351Y10300
X139351Y11750
X136220Y21331
X149937Y3937
X144126Y20460
X141951Y11640
X141317Y13576
X141351Y18181
X143231Y11630
X145616Y10240
X143761Y4250
X145636Y10754
X143951Y3765
X143981Y14240
X144921Y12710
X144682Y11108
X134094Y20350
X138401Y16360
X138374Y19327
X138551Y17100
X133701Y18800
X138110Y7747
X133144Y7403
X145745Y6012
X141951Y9050
X153256Y8310
X145690Y7749
X153256Y8840
X144564Y8369
X146501Y8960
X146057Y6606
X153251Y7710
X135201Y21327
X132701Y15500
X143271Y11000
X143501Y17800
X135701Y21310
X143201Y20210
X134701Y20350
X133701Y18000
X142576Y11027
X151422Y11594
X139575Y2826
X139789Y18141
X141717Y17750
X140001Y2315
X140643Y17431
X138851Y4000
X134278Y13200
X134495Y12056
X136111Y13640
X137992Y2350
X137454Y16700
X143821Y17000
X140451Y4350
X140001Y7691
X151301Y10210
X140636Y9730
X139366Y12285
X140651Y12300
X141286Y9130
X144574Y14365
X135101Y16600
X138301Y21000
X132401Y19500
X153601Y5010
X133804Y14863
X153622Y20110
X140671Y5410
X136761Y11050
X142573Y2839
X136111Y11000
X142111Y4000
X135361Y10850
X141611Y3000
X135361Y12050
X141454Y3454
X136061Y11650
X141250Y4024
X136761Y11650
X133138Y6900
X151377Y8887
X138051Y8960
X135744Y5731
X162310Y2787
X162050Y17000
X162651Y12873
X171781Y16650
X164016Y13591
X172095Y16978
X170683Y4368
X162648Y14300
X171421Y16945
X169087Y3876
X163901Y12326
X170787Y11960
X165201Y14243
X164900Y4950
X164391Y5068
X163985Y12906
X160110Y3941
X174300Y4500
X160050Y11650
X158979Y3219
X160050Y10300
X157460Y9750
X159477Y3427
X160050Y10900
X157442Y10358
X160075Y12366
X155278Y9700
X169591Y4350
X162669Y9091
X172865Y7472
X161370Y9038
X162460Y3700
X160650Y6450
X170081Y17619
X164700Y17219
X170579Y3081
X162591Y13600
X170610Y16482
X170237Y3560
X160910Y3250
X159835Y17581
X163600Y17200
X164381Y18181
X160991Y18310
X161364Y3342
X161483Y13659
X155709Y4911
X173010Y18650
X158763Y9003
X170675Y7420
X162007Y8430
X155550Y8600
X157500Y4850
X157981Y4919
X159372Y2859
X163295Y8415
X158750Y7110
X162650Y8350
X157015Y8400
X157319Y5554
X165280Y17010
X162000Y11000
X157306Y6523
X160050Y7060
X162600Y11000
X164600Y12900
X161700Y15950
X163950Y14300
X160050Y14900
X157400Y14700
X157600Y16600
X154400Y19000
X154600Y21200
X158700Y9700
X166656Y6573
X162956Y4473
X155456Y2523
X174483Y2950
X175206Y14623
X173706Y14023
X170310Y15449
X169156Y14023
X171677Y10750
X167633Y12496
X172706Y4173
X167106Y8473
X163300Y11000
X163956Y7815
X165343Y9310
X167206Y16223
X167756Y15323
X166656Y3723
X158760Y12880
X165206Y4123
X174356Y6323
X169729Y12626
X172733Y2900
X169206Y10373
X155660Y13700
X164636Y17673
X174101Y3210
X155800Y3110
X164000Y11010
X173969Y11300
X163943Y8335
X158250Y16500
X162850Y18150
X173426Y9535
X165222Y10350
X173007Y10775
X163978Y10346
X157067Y10019
X166700Y10010
X164420Y6320
X161350Y10300
X161350Y11750
X158219Y21331
X171936Y3937
X166125Y20460
X163950Y11640
X163316Y13576
X163350Y18181
X165230Y11630
X167615Y10240
X165760Y4250
X167635Y10754
X165950Y3765
X165980Y14240
X166920Y12710
X166681Y11108
X156093Y20350
X160400Y16360
X160373Y19327
X160550Y17100
X155700Y18800
X160109Y7747
X155143Y7403
X167744Y6012
X163950Y9050
X175255Y8310
X167689Y7749
X175255Y8840
X166563Y8369
X168500Y8960
X168056Y6606
X175250Y7710
X157200Y21327
X154700Y15500
X165270Y11000
X165500Y17800
X157700Y21310
X165200Y20210
X156700Y20350
X155700Y18000
X164575Y11027
X173421Y11594
X161574Y2826
X161788Y18141
X163716Y17750
X162000Y2315
X162642Y17431
X160850Y4000
X156277Y13200
X156494Y12056
X158110Y13640
X159991Y2350
X159453Y16700
X165820Y17000
X162450Y4350
X162000Y7691
X173300Y10210
X162635Y9730
X161365Y12285
X162650Y12300
X163285Y9130
X166573Y14365
X157100Y16600
X160300Y21000
X154400Y19500
X175600Y5010
X155803Y14863
X175621Y20110
X162670Y5410
X158760Y11050
X164572Y2839
X158110Y11000
X164110Y4000
X157360Y10850
X163610Y3000
X157360Y12050
X163453Y3454
X158060Y11650
X163249Y4024
X158760Y11650
X155137Y6900
X173376Y8887
X160050Y8960
X157743Y5731
X13689Y67063
X13949Y52850
X13348Y56977
X4218Y53200
X11984Y56259
X3904Y52872
X5316Y65482
X13352Y55550
X4578Y52905
X6912Y65974
X12098Y57524
X5212Y57890
X10798Y55607
X11099Y64900
X11608Y64782
X12014Y56944
X15889Y65909
X1699Y65350
X15949Y58200
X17020Y66631
X15949Y59550
X18539Y60100
X16522Y66423
X15949Y58950
X18557Y59492
X15924Y57484
X20721Y60150
X6408Y65500
X13330Y60759
X3135Y62378
X14629Y60812
X13539Y66150
X15349Y63400
X5918Y52231
X11299Y52631
X5420Y66769
X13409Y56250
X5389Y53368
X5762Y66290
X15089Y66600
X16164Y52269
X12399Y52650
X11618Y51669
X15008Y51540
X14635Y66508
X14516Y56191
X20290Y64939
X2989Y51200
X17236Y60847
X5324Y62430
X13992Y61420
X20449Y61250
X18499Y65000
X18018Y64931
X16628Y66991
X12704Y61435
X17249Y62740
X13349Y61500
X18984Y61450
X18680Y64296
X10719Y52840
X13999Y58850
X18693Y63327
X15949Y62790
X13399Y58850
X11399Y56950
X14299Y53900
X12049Y55550
X15949Y54950
X18599Y55150
X18399Y53250
X21599Y50850
X21399Y48650
X17299Y60150
X9343Y63277
X13043Y65377
X20543Y67327
X1516Y66900
X793Y55227
X2293Y55827
X5689Y54401
X6843Y55827
X4322Y59100
X8366Y57354
X3293Y65677
X8893Y61377
X12699Y58850
X12043Y62035
X10656Y60540
X8793Y53627
X8243Y54527
X9343Y66127
X17239Y56970
X10793Y65727
X1643Y63527
X6270Y57224
X3266Y66950
X6793Y59477
X20339Y56150
X11364Y52177
X1898Y66640
X20199Y66740
X11999Y58840
X2030Y58550
X12056Y61515
X17749Y53350
X13149Y51700
X2573Y60315
X10777Y59500
X2992Y59075
X12021Y59504
X18932Y59831
X9299Y59840
X11579Y63530
X14649Y59550
X14649Y58100
X17780Y48519
X4063Y65913
X9874Y49390
X12049Y58210
X12683Y56274
X12649Y51669
X10769Y58220
X8384Y59610
X10239Y65600
X8364Y59096
X10049Y66085
X10019Y55610
X9079Y57140
X9318Y58742
X19906Y49500
X15599Y53490
X15626Y50523
X15449Y52750
X20299Y51050
X15890Y62103
X20856Y62447
X8255Y63838
X12049Y60800
X744Y61540
X8310Y62101
X744Y61010
X9436Y61481
X7499Y60890
X7943Y63244
X749Y62140
X18799Y48523
X21299Y54350
X10729Y58850
X10499Y52050
X18299Y48540
X10799Y49640
X19299Y49500
X20299Y51850
X11424Y58823
X2578Y58256
X14425Y67024
X14212Y51709
X12283Y52100
X13999Y67535
X13358Y52419
X15149Y65850
X19722Y56650
X19505Y57794
X17889Y56210
X16008Y67500
X16546Y53150
X10179Y52850
X13549Y65500
X13999Y62159
X2699Y59640
X13364Y60120
X14634Y57565
X13349Y57550
X12714Y60720
X9426Y55485
X18899Y53250
X15699Y48850
X21599Y50350
X399Y64840
X20197Y54987
X378Y49740
X13329Y64440
X17239Y58800
X11428Y67011
X17889Y58850
X11889Y65850
X18639Y59000
X12389Y66850
X18639Y57800
X12547Y66396
X17939Y58200
X12750Y65826
X17239Y58200
X20862Y62950
X2623Y60963
X15949Y60890
X18256Y64119
X35691Y67063
X35950Y52850
X35350Y56977
X26219Y53200
X33985Y56259
X25905Y52872
X27317Y65482
X35353Y55550
X26580Y52905
X28914Y65974
X34100Y57524
X27213Y57890
X32799Y55607
X33100Y64900
X33610Y64782
X34016Y56944
X37891Y65909
X23700Y65350
X37950Y58200
X39022Y66631
X37950Y59550
X40541Y60100
X38523Y66423
X37950Y58950
X40559Y59492
X37925Y57484
X42722Y60150
X28410Y65500
X35331Y60759
X25136Y62378
X36630Y60812
X35541Y66150
X37350Y63400
X27919Y52231
X33300Y52631
X27422Y66769
X35410Y56250
X27391Y53368
X27764Y66290
X37091Y66600
X38166Y52269
X34400Y52650
X33619Y51669
X37010Y51540
X36637Y66508
X36517Y56191
X42292Y64939
X24990Y51200
X39238Y60847
X27326Y62430
X35993Y61420
X42450Y61250
X40500Y65000
X40019Y64931
X38629Y66991
X34706Y61435
X39250Y62740
X35350Y61500
X40985Y61450
X40681Y64296
X32721Y52840
X36000Y58850
X40694Y63327
X37950Y62790
X35400Y58850
X33400Y56950
X36300Y53900
X34050Y55550
X37950Y54950
X40600Y55150
X40400Y53250
X43600Y50850
X43400Y48650
X39300Y60150
X31344Y63277
X35044Y65377
X42544Y67327
X23517Y66900
X22794Y55227
X24294Y55827
X27690Y54401
X28844Y55827
X26323Y59100
X30367Y57354
X25294Y65677
X30894Y61377
X34700Y58850
X34045Y62035
X32658Y60540
X30794Y53627
X30244Y54527
X31344Y66127
X39240Y56970
X32794Y65727
X23644Y63527
X28271Y57224
X25267Y66950
X28794Y59477
X42340Y56150
X33365Y52177
X23900Y66640
X42200Y66740
X34000Y58840
X24031Y58550
X34058Y61515
X39750Y53350
X35150Y51700
X24574Y60315
X32778Y59500
X24993Y59075
X34023Y59504
X40933Y59831
X31300Y59840
X33580Y63530
X36650Y59550
X36650Y58100
X39782Y48519
X26064Y65913
X31875Y49390
X34051Y58210
X34685Y56274
X34650Y51669
X32770Y58220
X30386Y59610
X32241Y65600
X30366Y59096
X32050Y66085
X32020Y55610
X31080Y57140
X31319Y58742
X41908Y49500
X37600Y53490
X37627Y50523
X37450Y52750
X42300Y51050
X37892Y62103
X42858Y62447
X30256Y63838
X34050Y60800
X22746Y61540
X30312Y62101
X22746Y61010
X31437Y61481
X29500Y60890
X29944Y63244
X22750Y62140
X40800Y48523
X43300Y54350
X32730Y58850
X32500Y52050
X40300Y48540
X32800Y49640
X41300Y49500
X42300Y51850
X33426Y58823
X24579Y58256
X36426Y67024
X36213Y51709
X34285Y52100
X36000Y67535
X35359Y52419
X37150Y65850
X41723Y56650
X41507Y57794
X39890Y56210
X38010Y67500
X38547Y53150
X32180Y52850
X35550Y65500
X36000Y62159
X24700Y59640
X35365Y60120
X36635Y57565
X35350Y57550
X34715Y60720
X31428Y55485
X40900Y53250
X37700Y48850
X43600Y50350
X22400Y64840
X42198Y54987
X22380Y49740
X35331Y64440
X39240Y58800
X33429Y67011
X39890Y58850
X33891Y65850
X40640Y59000
X34390Y66850
X40640Y57800
X34548Y66396
X39940Y58200
X34751Y65826
X39240Y58200
X42863Y62950
X24624Y60963
X37950Y60890
X40258Y64119
X57690Y67063
X57949Y52850
X57349Y56977
X48218Y53200
X55984Y56259
X47904Y52872
X49316Y65482
X57352Y55550
X48579Y52905
X50913Y65974
X56099Y57524
X49212Y57890
X54798Y55607
X55099Y64900
X55609Y64782
X56015Y56944
X59890Y65909
X45699Y65350
X59949Y58200
X61021Y66631
X59949Y59550
X62540Y60100
X60522Y66423
X59949Y58950
X62557Y59492
X59924Y57484
X64721Y60150
X50409Y65500
X57330Y60759
X47135Y62378
X58629Y60812
X57540Y66150
X59349Y63400
X49918Y52231
X55299Y52631
X49421Y66769
X57409Y56250
X49390Y53368
X49763Y66290
X59090Y66600
X60165Y52269
X56399Y52650
X55618Y51669
X59009Y51540
X58636Y66508
X58516Y56191
X64291Y64939
X46989Y51200
X61237Y60847
X49325Y62430
X57992Y61420
X64449Y61250
X62499Y65000
X62018Y64931
X60628Y66991
X56705Y61435
X61249Y62740
X57349Y61500
X62984Y61450
X62680Y64296
X54720Y52840
X57999Y58850
X62693Y63327
X59949Y62790
X57399Y58850
X55399Y56950
X58299Y53900
X56049Y55550
X59949Y54950
X62599Y55150
X62399Y53250
X65599Y50850
X65399Y48650
X61299Y60150
X53343Y63277
X57043Y65377
X64543Y67327
X45516Y66900
X44793Y55227
X46293Y55827
X49689Y54401
X50843Y55827
X48322Y59100
X52366Y57354
X47293Y65677
X52893Y61377
X56699Y58850
X56044Y62035
X54656Y60540
X52793Y53627
X52243Y54527
X53343Y66127
X61239Y56970
X54793Y65727
X45643Y63527
X50270Y57224
X47266Y66950
X50793Y59477
X64339Y56150
X55364Y52177
X45898Y66640
X64199Y66740
X55999Y58840
X46030Y58550
X56056Y61515
X61749Y53350
X57149Y51700
X46573Y60315
X54777Y59500
X46992Y59075
X56022Y59504
X62932Y59831
X53299Y59840
X55579Y63530
X58649Y59550
X58649Y58100
X61780Y48519
X48063Y65913
X53874Y49390
X56050Y58210
X56684Y56274
X56649Y51669
X54769Y58220
X52385Y59610
X54240Y65600
X52364Y59096
X54049Y66085
X54019Y55610
X53079Y57140
X53318Y58742
X63906Y49500
X59599Y53490
X59626Y50523
X59449Y52750
X64299Y51050
X59891Y62103
X64856Y62447
X52255Y63838
X56049Y60800
X44745Y61540
X52311Y62101
X44745Y61010
X53436Y61481
X51499Y60890
X51943Y63244
X44749Y62140
X62799Y48523
X65299Y54350
X54729Y58850
X54499Y52050
X62299Y48540
X54799Y49640
X63299Y49500
X64299Y51850
X55424Y58823
X46578Y58256
X58425Y67024
X58212Y51709
X56284Y52100
X57999Y67535
X57358Y52419
X59149Y65850
X63722Y56650
X63505Y57794
X61889Y56210
X60009Y67500
X60546Y53150
X54179Y52850
X57549Y65500
X57999Y62159
X46699Y59640
X57364Y60120
X58634Y57565
X57349Y57550
X56714Y60720
X53426Y55485
X62899Y53250
X59699Y48850
X65599Y50350
X44399Y64840
X64197Y54987
X44379Y49740
X57330Y64440
X61239Y58800
X55428Y67011
X61889Y58850
X55890Y65850
X62639Y59000
X56389Y66850
X62639Y57800
X56547Y66396
X61939Y58200
X56750Y65826
X61239Y58200
X64862Y62950
X46623Y60963
X59949Y60890
X62256Y64119
X79691Y67063
X79951Y52850
X79350Y56977
X70220Y53200
X77986Y56259
X69906Y52872
X71318Y65482
X79353Y55550
X70580Y52905
X72914Y65974
X78100Y57524
X71214Y57890
X76800Y55607
X77101Y64900
X77610Y64782
X78016Y56944
X81891Y65909
X67701Y65350
X81951Y58200
X83022Y66631
X81951Y59550
X84541Y60100
X82524Y66423
X81951Y58950
X84559Y59492
X81926Y57484
X86723Y60150
X72410Y65500
X79332Y60759
X69137Y62378
X80631Y60812
X79541Y66150
X81351Y63400
X71920Y52231
X77301Y52631
X71422Y66769
X79410Y56250
X71391Y53368
X71764Y66290
X81091Y66600
X82166Y52269
X78401Y52650
X77620Y51669
X81010Y51540
X80637Y66508
X80518Y56191
X86292Y64939
X68991Y51200
X83238Y60847
X71326Y62430
X79994Y61420
X86451Y61250
X84501Y65000
X84020Y64931
X82629Y66991
X78706Y61435
X83251Y62740
X79351Y61500
X84986Y61450
X84682Y64296
X76721Y52840
X80001Y58850
X84695Y63327
X81951Y62790
X79401Y58850
X77401Y56950
X80301Y53900
X78051Y55550
X81951Y54950
X84601Y55150
X84401Y53250
X87601Y50850
X87401Y48650
X83301Y60150
X75345Y63277
X79045Y65377
X86545Y67327
X67518Y66900
X66795Y55227
X68295Y55827
X71691Y54401
X72845Y55827
X70324Y59100
X74368Y57354
X69295Y65677
X74895Y61377
X78701Y58850
X78045Y62035
X76658Y60540
X74795Y53627
X74245Y54527
X75345Y66127
X83241Y56970
X76795Y65727
X67645Y63527
X72272Y57224
X69268Y66950
X72795Y59477
X86341Y56150
X77365Y52177
X67900Y66640
X86201Y66740
X78001Y58840
X68032Y58550
X78058Y61515
X83751Y53350
X79151Y51700
X68575Y60315
X76779Y59500
X68994Y59075
X78023Y59504
X84934Y59831
X75301Y59840
X77581Y63530
X80651Y59550
X80651Y58100
X83782Y48519
X70065Y65913
X75876Y49390
X78051Y58210
X78685Y56274
X78651Y51669
X76771Y58220
X74386Y59610
X76241Y65600
X74366Y59096
X76051Y66085
X76021Y55610
X75081Y57140
X75320Y58742
X85908Y49500
X81601Y53490
X81628Y50523
X81451Y52750
X86301Y51050
X81892Y62103
X86858Y62447
X74257Y63838
X78051Y60800
X66746Y61540
X74312Y62101
X66746Y61010
X75438Y61481
X73501Y60890
X73945Y63244
X66751Y62140
X84801Y48523
X87301Y54350
X76731Y58850
X76501Y52050
X84301Y48540
X76801Y49640
X85301Y49500
X86301Y51850
X77426Y58823
X68580Y58256
X80427Y67024
X80213Y51709
X78285Y52100
X80001Y67535
X79360Y52419
X81151Y65850
X85724Y56650
X85507Y57794
X83891Y56210
X82010Y67500
X82548Y53150
X76181Y52850
X79551Y65500
X80001Y62159
X68701Y59640
X79366Y60120
X80636Y57565
X79351Y57550
X78716Y60720
X75428Y55485
X84901Y53250
X81701Y48850
X87601Y50350
X66401Y64840
X86198Y54987
X66380Y49740
X79331Y64440
X83241Y58800
X77429Y67011
X83891Y58850
X77891Y65850
X84641Y59000
X78391Y66850
X84641Y57800
X78548Y66396
X83941Y58200
X78752Y65826
X83241Y58200
X86864Y62950
X68625Y60963
X81951Y60890
X84258Y64119
X101690Y67063
X101950Y52850
X101349Y56977
X92219Y53200
X99984Y56259
X91905Y52872
X93317Y65482
X101352Y55550
X92579Y52905
X94913Y65974
X100099Y57524
X93213Y57890
X98799Y55607
X99100Y64900
X99609Y64782
X100015Y56944
X103890Y65909
X89700Y65350
X103950Y58200
X105021Y66631
X103950Y59550
X106540Y60100
X104523Y66423
X103950Y58950
X106558Y59492
X103925Y57484
X108722Y60150
X94409Y65500
X101331Y60759
X91135Y62378
X102630Y60812
X101540Y66150
X103350Y63400
X93919Y52231
X99300Y52631
X93421Y66769
X101409Y56250
X93390Y53368
X93763Y66290
X103090Y66600
X104165Y52269
X100400Y52650
X99619Y51669
X103009Y51540
X102636Y66508
X102517Y56191
X108291Y64939
X90990Y51200
X105237Y60847
X93325Y62430
X101993Y61420
X108450Y61250
X106500Y65000
X106019Y64931
X104628Y66991
X100705Y61435
X105250Y62740
X101350Y61500
X106985Y61450
X106681Y64296
X98720Y52840
X102000Y58850
X106694Y63327
X103950Y62790
X101400Y58850
X99400Y56950
X102300Y53900
X100050Y55550
X103950Y54950
X106600Y55150
X106400Y53250
X109600Y50850
X109400Y48650
X105300Y60150
X97344Y63277
X101044Y65377
X108544Y67327
X89517Y66900
X88794Y55227
X90294Y55827
X93690Y54401
X94844Y55827
X92323Y59100
X96367Y57354
X91294Y65677
X96894Y61377
X100700Y58850
X100044Y62035
X98657Y60540
X96794Y53627
X96244Y54527
X97344Y66127
X105240Y56970
X98794Y65727
X89644Y63527
X94271Y57224
X91267Y66950
X94794Y59477
X108340Y56150
X99364Y52177
X89899Y66640
X108200Y66740
X100000Y58840
X90031Y58550
X100057Y61515
X105750Y53350
X101150Y51700
X90574Y60315
X98778Y59500
X90993Y59075
X100022Y59504
X106933Y59831
X97300Y59840
X99580Y63530
X102650Y59550
X102650Y58100
X105781Y48519
X92064Y65913
X97875Y49390
X100050Y58210
X100684Y56274
X100650Y51669
X98770Y58220
X96385Y59610
X98240Y65600
X96365Y59096
X98050Y66085
X98020Y55610
X97080Y57140
X97319Y58742
X107907Y49500
X103600Y53490
X103627Y50523
X103450Y52750
X108300Y51050
X103891Y62103
X108857Y62447
X96256Y63838
X100050Y60800
X88745Y61540
X96311Y62101
X88745Y61010
X97437Y61481
X95500Y60890
X95944Y63244
X88750Y62140
X106800Y48523
X109300Y54350
X98730Y58850
X98500Y52050
X106300Y48540
X98800Y49640
X107300Y49500
X108300Y51850
X99425Y58823
X90579Y58256
X102426Y67024
X102212Y51709
X100284Y52100
X102000Y67535
X101358Y52419
X103150Y65850
X107723Y56650
X107506Y57794
X105890Y56210
X104009Y67500
X104547Y53150
X98180Y52850
X101550Y65500
X102000Y62159
X90700Y59640
X101365Y60120
X102635Y57565
X101350Y57550
X100715Y60720
X97427Y55485
X106900Y53250
X103700Y48850
X109600Y50350
X88400Y64840
X108197Y54987
X88379Y49740
X101330Y64440
X105240Y58800
X99428Y67011
X105890Y58850
X99890Y65850
X106640Y59000
X100390Y66850
X106640Y57800
X100547Y66396
X105940Y58200
X100751Y65826
X105240Y58200
X108863Y62950
X90624Y60963
X103950Y60890
X106257Y64119
X123692Y67063
X123951Y52850
X123351Y56977
X114220Y53200
X121986Y56259
X113906Y52872
X115318Y65482
X123354Y55550
X114581Y52905
X116915Y65974
X122101Y57524
X115214Y57890
X120800Y55607
X121101Y64900
X121611Y64782
X122017Y56944
X125892Y65909
X111701Y65350
X125951Y58200
X127023Y66631
X125951Y59550
X128542Y60100
X126524Y66423
X125951Y58950
X128559Y59492
X125926Y57484
X130723Y60150
X116411Y65500
X123332Y60759
X113137Y62378
X124631Y60812
X123542Y66150
X125351Y63400
X115920Y52231
X121301Y52631
X115423Y66769
X123411Y56250
X115392Y53368
X115765Y66290
X125092Y66600
X126167Y52269
X122401Y52650
X121620Y51669
X125011Y51540
X124638Y66508
X124518Y56191
X130293Y64939
X112991Y51200
X127238Y60847
X115327Y62430
X123994Y61420
X130451Y61250
X128501Y65000
X128020Y64931
X126630Y66991
X122707Y61435
X127251Y62740
X123351Y61500
X128986Y61450
X128682Y64296
X120722Y52840
X124001Y58850
X128695Y63327
X125951Y62790
X123401Y58850
X121401Y56950
X124301Y53900
X122051Y55550
X125951Y54950
X128601Y55150
X128401Y53250
X131601Y50850
X131401Y48650
X127301Y60150
X119345Y63277
X123045Y65377
X130545Y67327
X111518Y66900
X110795Y55227
X112295Y55827
X115691Y54401
X116845Y55827
X114324Y59100
X118368Y57354
X113295Y65677
X118895Y61377
X122701Y58850
X122046Y62035
X120658Y60540
X118795Y53627
X118245Y54527
X119345Y66127
X127241Y56970
X120795Y65727
X111645Y63527
X116272Y57224
X113268Y66950
X116795Y59477
X130341Y56150
X121366Y52177
X111900Y66640
X130201Y66740
X122001Y58840
X112032Y58550
X122058Y61515
X127751Y53350
X123151Y51700
X112575Y60315
X120779Y59500
X112994Y59075
X122023Y59504
X128934Y59831
X119301Y59840
X121581Y63530
X124651Y59550
X124651Y58100
X127782Y48519
X114065Y65913
X119876Y49390
X122051Y58210
X122685Y56274
X122651Y51669
X120771Y58220
X118387Y59610
X120242Y65600
X118366Y59096
X120051Y66085
X120021Y55610
X119081Y57140
X119320Y58742
X129908Y49500
X125601Y53490
X125628Y50523
X125451Y52750
X130301Y51050
X125893Y62103
X130858Y62447
X118257Y63838
X122051Y60800
X110746Y61540
X118313Y62101
X110746Y61010
X119438Y61481
X117501Y60890
X117945Y63244
X110751Y62140
X128801Y48523
X131301Y54350
X120731Y58850
X120501Y52050
X128301Y48540
X120801Y49640
X129301Y49500
X130301Y51850
X121426Y58823
X112580Y58256
X124427Y67024
X124214Y51709
X122286Y52100
X124001Y67535
X123360Y52419
X125151Y65850
X129724Y56650
X129507Y57794
X127891Y56210
X126011Y67500
X126548Y53150
X120181Y52850
X123551Y65500
X124001Y62159
X112701Y59640
X123366Y60120
X124636Y57565
X123351Y57550
X122716Y60720
X119428Y55485
X128901Y53250
X125701Y48850
X131601Y50350
X110401Y64840
X130199Y54987
X110381Y49740
X123331Y64440
X127241Y58800
X121430Y67011
X127891Y58850
X121892Y65850
X128641Y59000
X122391Y66850
X128641Y57800
X122549Y66396
X127941Y58200
X122752Y65826
X127241Y58200
X130864Y62950
X112625Y60963
X125951Y60890
X128258Y64119
X145691Y67063
X145950Y52850
X145350Y56977
X136219Y53200
X143985Y56259
X135905Y52872
X137317Y65482
X145353Y55550
X136580Y52905
X138913Y65974
X144100Y57524
X137213Y57890
X142799Y55607
X143100Y64900
X143610Y64782
X144016Y56944
X147891Y65909
X133700Y65350
X147950Y58200
X149022Y66631
X147950Y59550
X150541Y60100
X148523Y66423
X147950Y58950
X150558Y59492
X147925Y57484
X152722Y60150
X138410Y65500
X145331Y60759
X135136Y62378
X146630Y60812
X145541Y66150
X147350Y63400
X137919Y52231
X143300Y52631
X137422Y66769
X145410Y56250
X137391Y53368
X137764Y66290
X147091Y66600
X148166Y52269
X144400Y52650
X143619Y51669
X147010Y51540
X146637Y66508
X146517Y56191
X152292Y64939
X134990Y51200
X149237Y60847
X137326Y62430
X145993Y61420
X152450Y61250
X150500Y65000
X150019Y64931
X148629Y66991
X144706Y61435
X149250Y62740
X145350Y61500
X150985Y61450
X150681Y64296
X142721Y52840
X146000Y58850
X150694Y63327
X147950Y62790
X145400Y58850
X143400Y56950
X146300Y53900
X144050Y55550
X147950Y54950
X150600Y55150
X150400Y53250
X153600Y50850
X153400Y48650
X149300Y60150
X141344Y63277
X145044Y65377
X152544Y67327
X133517Y66900
X132794Y55227
X134294Y55827
X137690Y54401
X138844Y55827
X136323Y59100
X140367Y57354
X135294Y65677
X140894Y61377
X144700Y58850
X144045Y62035
X142657Y60540
X140794Y53627
X140244Y54527
X141344Y66127
X149240Y56970
X142794Y65727
X133644Y63527
X138271Y57224
X135267Y66950
X138794Y59477
X152340Y56150
X143365Y52177
X133899Y66640
X152200Y66740
X144000Y58840
X134031Y58550
X144057Y61515
X149750Y53350
X145150Y51700
X134574Y60315
X142778Y59500
X134993Y59075
X144022Y59504
X150933Y59831
X141300Y59840
X143580Y63530
X146650Y59550
X146650Y58100
X149781Y48519
X136064Y65913
X141875Y49390
X144050Y58210
X144684Y56274
X144650Y51669
X142770Y58220
X140386Y59610
X142241Y65600
X140365Y59096
X142050Y66085
X142020Y55610
X141080Y57140
X141319Y58742
X151907Y49500
X147600Y53490
X147627Y50523
X147450Y52750
X152300Y51050
X147892Y62103
X152857Y62447
X140256Y63838
X144050Y60800
X132745Y61540
X140312Y62101
X132745Y61010
X141437Y61481
X139500Y60890
X139944Y63244
X132750Y62140
X150800Y48523
X153300Y54350
X142730Y58850
X142500Y52050
X150300Y48540
X142800Y49640
X151300Y49500
X152300Y51850
X143425Y58823
X134579Y58256
X146426Y67024
X146213Y51709
X144285Y52100
X146000Y67535
X145359Y52419
X147150Y65850
X151723Y56650
X151506Y57794
X149890Y56210
X148010Y67500
X148547Y53150
X142180Y52850
X145550Y65500
X146000Y62159
X134700Y59640
X145365Y60120
X146635Y57565
X145350Y57550
X144715Y60720
X141427Y55485
X150900Y53250
X147700Y48850
X153600Y50350
X132400Y64840
X152198Y54987
X132380Y49740
X145330Y64440
X149240Y58800
X143429Y67011
X149890Y58850
X143891Y65850
X150640Y59000
X144390Y66850
X150640Y57800
X144548Y66396
X149940Y58200
X144751Y65826
X149240Y58200
X152863Y62950
X134624Y60963
X147950Y60890
X150257Y64119
X167690Y67063
X167949Y52850
X167349Y56977
X158218Y53200
X165984Y56259
X157904Y52872
X159316Y65482
X167352Y55550
X158578Y52905
X160912Y65974
X166099Y57524
X159212Y57890
X164798Y55607
X165099Y64900
X165609Y64782
X166014Y56944
X169890Y65909
X155699Y65350
X169949Y58200
X171021Y66631
X169949Y59550
X172540Y60100
X170522Y66423
X169949Y58950
X172557Y59492
X169924Y57484
X174721Y60150
X160409Y65500
X167330Y60759
X157135Y62378
X168629Y60812
X167540Y66150
X169349Y63400
X159918Y52231
X165299Y52631
X159421Y66769
X167409Y56250
X159390Y53368
X159763Y66290
X169090Y66600
X170165Y52269
X166399Y52650
X165618Y51669
X169009Y51540
X168636Y66508
X168516Y56191
X174291Y64939
X156989Y51200
X171236Y60847
X159324Y62430
X167992Y61420
X174449Y61250
X172499Y65000
X172018Y64931
X170628Y66991
X166705Y61435
X171249Y62740
X167349Y61500
X172984Y61450
X172680Y64296
X164720Y52840
X167999Y58850
X172693Y63327
X169949Y62790
X167399Y58850
X165399Y56950
X168299Y53900
X166049Y55550
X169949Y54950
X172599Y55150
X172399Y53250
X175599Y50850
X175399Y48650
X171299Y60150
X163343Y63277
X167043Y65377
X174543Y67327
X155516Y66900
X154793Y55227
X156293Y55827
X159689Y54401
X160843Y55827
X158322Y59100
X162366Y57354
X157293Y65677
X162893Y61377
X166699Y58850
X166044Y62035
X164656Y60540
X162793Y53627
X162243Y54527
X163343Y66127
X171239Y56970
X164793Y65727
X155643Y63527
X160270Y57224
X157266Y66950
X160793Y59477
X174339Y56150
X165364Y52177
X155898Y66640
X174199Y66740
X165999Y58840
X156030Y58550
X166056Y61515
X171749Y53350
X167149Y51700
X156573Y60315
X164777Y59500
X156992Y59075
X166021Y59504
X172932Y59831
X163299Y59840
X165579Y63530
X168649Y59550
X168649Y58100
X171780Y48519
X158063Y65913
X163874Y49390
X166049Y58210
X166683Y56274
X166649Y51669
X164769Y58220
X162385Y59610
X164240Y65600
X162364Y59096
X164049Y66085
X164019Y55610
X163079Y57140
X163318Y58742
X173906Y49500
X169599Y53490
X169626Y50523
X169449Y52750
X174299Y51050
X169890Y62103
X174856Y62447
X162255Y63838
X166049Y60800
X154744Y61540
X162311Y62101
X154744Y61010
X163436Y61481
X161499Y60890
X161943Y63244
X154749Y62140
X172799Y48523
X175299Y54350
X164729Y58850
X164499Y52050
X172299Y48540
X164799Y49640
X173299Y49500
X174299Y51850
X165424Y58823
X156578Y58256
X168425Y67024
X168212Y51709
X166284Y52100
X167999Y67535
X167358Y52419
X169149Y65850
X173722Y56650
X173505Y57794
X171889Y56210
X170009Y67500
X170546Y53150
X164179Y52850
X167549Y65500
X167999Y62159
X156699Y59640
X167364Y60120
X168634Y57565
X167349Y57550
X166714Y60720
X163426Y55485
X172899Y53250
X169699Y48850
X175599Y50350
X154399Y64840
X174197Y54987
X154379Y49740
X167329Y64440
X171239Y58800
X165428Y67011
X171889Y58850
X165890Y65850
X172639Y59000
X166389Y66850
X172639Y57800
X166547Y66396
X171939Y58200
X166750Y65826
X171239Y58200
X174862Y62950
X156623Y60963
X169949Y60890
X172256Y64119
X12900Y21010
X17100Y21010
X15000Y19710
X34899Y21010
X39099Y21010
X36999Y19710
X56900Y21010
X61100Y21010
X59000Y19710
X78899Y21010
X83099Y21010
X80999Y19710
X100901Y21010
X105101Y21010
X103001Y19710
X122900Y21010
X127100Y21010
X125000Y19710
X144901Y21010
X149101Y21010
X147001Y19710
X166900Y21010
X171100Y21010
X169000Y19710
X9099Y48840
X4899Y48840
X6999Y50140
X31100Y48840
X26900Y48840
X29000Y50140
X53099Y48840
X48899Y48840
X50999Y50140
X75101Y48840
X70901Y48840
X73001Y50140
X97100Y48840
X92900Y48840
X95000Y50140
X119101Y48840
X114901Y48840
X117001Y50140
X141100Y48840
X136900Y48840
X139000Y50140
X163099Y48840
X158899Y48840
X160999Y50140
M30