M48
;GenerationSoftware,Autodesk,EAGLE,9.5.2*%
;CreationDate,2020-03-24T20:09:08Z*%
FMAT,2
ICI,OFF
METRIC,TZ,000.000
T2C0.200
T1C3.500
%
G90
M71
T1
X164555Y47050
X15000Y22800
X37507Y22800
X60016Y22800
X82523Y22800
X105033Y22800
X127540Y22800
X150049Y22800
X172556Y22800
X6999Y47050
X29508Y47050
X52015Y47050
X74525Y47050
X97032Y47050
X119541Y47050
X142048Y47050
T2
X5760Y4391
X20300Y5300
X6050Y12450
X3280Y11930
X4979Y4019
X6050Y11100
X3160Y10350
X5477Y4027
X6050Y11700
X3442Y11058
X6075Y13166
X16240Y5050
X8619Y9991
X17998Y8022
X7420Y10188
X8960Y3900
X6650Y7250
X16281Y16219
X10700Y18019
X13714Y4924
X8590Y14400
X16510Y15332
X15310Y3919
X6760Y4050
X6685Y17081
X9600Y18000
X10381Y18981
X6990Y19110
X7214Y4142
X10000Y15050
X10060Y4850
X9319Y4631
X8050Y19610
X6050Y9140
X4763Y9803
X16802Y8220
X8600Y3491
X8157Y9480
X1400Y9450
X3500Y5650
X3981Y5719
X5371Y3559
X9245Y9065
X4723Y7936
X8650Y9150
X3015Y9200
X3300Y6400
X3700Y6100
X10980Y16810
X7800Y11800
X3306Y7323
X6096Y7912
X8600Y11800
X10600Y13700
X7700Y16550
X9400Y15500
X6150Y15350
X3400Y15700
X3600Y17400
X400Y19800
X600Y22000
X4100Y13700
X4700Y10500
X11956Y6273
X10656Y3623
X9606Y4273
X1456Y3323
X11606Y4973
X20483Y3750
X21406Y15423
X19706Y14823
X16356Y16923
X15556Y12823
X18850Y12700
X13656Y13273
X18706Y3923
X13206Y9273
X9850Y11800
X10555Y8515
X11343Y10185
X15806Y11673
X13056Y17023
X13756Y16123
X12506Y4373
X11900Y13650
X18000Y11600
X8635Y10530
X7365Y13085
X8650Y13100
X12560Y15020
X20058Y4185
X16050Y6200
X8770Y6410
X1947Y3483
X3100Y17400
X6300Y21800
X400Y20300
X9335Y9980
X10650Y11800
X19969Y12100
X9843Y8935
X4250Y17300
X8850Y18950
X18950Y7962
X11222Y11100
X18957Y11675
X20320Y10452
X9878Y11346
X11910Y10825
X10420Y6720
X7350Y11100
X7350Y12450
X17810Y4737
X4219Y22131
X9950Y12440
X11181Y12844
X13614Y10890
X11510Y4400
X13635Y11404
X11750Y3615
X11880Y15040
X12920Y13510
X13570Y12162
X5981Y18300
X2093Y21150
X6500Y20000
X6650Y17800
X1700Y19600
X2000Y14300
X13146Y7942
X10600Y9200
X3200Y22000
X1000Y15000
X11160Y11550
X11500Y18600
X1400Y21900
X14605Y4601
X11811Y20129
X1700Y18800
X14478Y4160
X12192Y19850
X11085Y12027
X19294Y12494
X7374Y3626
X7787Y18491
X9965Y18400
X8000Y3115
X8641Y18231
X6850Y4500
X2900Y14000
X2944Y12656
X6451Y4891
X5990Y3150
X5803Y17500
X11220Y17400
X8450Y5150
X8000Y8490
X19050Y10960
X30366Y3587
X30557Y17800
X31197Y13773
X39988Y14600
X32422Y14341
X39652Y16928
X38890Y4068
X31839Y14400
X39528Y14895
X37779Y4950
X32357Y13176
X39042Y14313
X33708Y15043
X33407Y5000
X33097Y5368
X32492Y13706
X28266Y4391
X42807Y5300
X28557Y12450
X25787Y11930
X27485Y4019
X28557Y11100
X25667Y10350
X27984Y4027
X28557Y11700
X25949Y11058
X28582Y13166
X38747Y5050
X31126Y9991
X40505Y8022
X29927Y10188
X31466Y3900
X29157Y7250
X38788Y16219
X33207Y18019
X36221Y4924
X31097Y14400
X39016Y15332
X37816Y3919
X29266Y4050
X29191Y17081
X32107Y18000
X32888Y18981
X29497Y19110
X29720Y4142
X32507Y15050
X32566Y4850
X31826Y4631
X30557Y19610
X28557Y9140
X27270Y9803
X39309Y8220
X31107Y3491
X30664Y9480
X23907Y9450
X26007Y5650
X26488Y5719
X27878Y3559
X31751Y9065
X27230Y7936
X31157Y9150
X25522Y9200
X25807Y6400
X26207Y6100
X33486Y16810
X30307Y11800
X25813Y7323
X28603Y7912
X31107Y11800
X33107Y13700
X30207Y16550
X31907Y15500
X28657Y15350
X25907Y15700
X26107Y17400
X22907Y19800
X23107Y22000
X26607Y13700
X27207Y10500
X34463Y6273
X33163Y3623
X32113Y4273
X23963Y3323
X34113Y4973
X42990Y3750
X43913Y15423
X42213Y14823
X38863Y16923
X38063Y12823
X41357Y12700
X36163Y13273
X41213Y3923
X35713Y9273
X32357Y11800
X33062Y8515
X33850Y10185
X38313Y11673
X35563Y17023
X36263Y16123
X35013Y4373
X34407Y13650
X40507Y11600
X31142Y10530
X29872Y13085
X31157Y13100
X35067Y15020
X42565Y4185
X38557Y6200
X31277Y6410
X24454Y3483
X25607Y17400
X28807Y21800
X22907Y20300
X31842Y9980
X33157Y11800
X42476Y12100
X32350Y8935
X26757Y17300
X31357Y18950
X41457Y7962
X33729Y11100
X41464Y11675
X42827Y10452
X32385Y11346
X34417Y10825
X32927Y6720
X29857Y11100
X29857Y12450
X40316Y4737
X26726Y22131
X32457Y12440
X33687Y12844
X36121Y10890
X34016Y4400
X36142Y11404
X34257Y3615
X34387Y15040
X35427Y13510
X36077Y12162
X28488Y18300
X24600Y21150
X29007Y20000
X29157Y17800
X24207Y19600
X24507Y14300
X35653Y7942
X33107Y9200
X25707Y22000
X23507Y15000
X33666Y11550
X34007Y18600
X23907Y21900
X37112Y4601
X34318Y20129
X24207Y18800
X36985Y4160
X34699Y19850
X33592Y12027
X41801Y12494
X29881Y3626
X30294Y18491
X32472Y18400
X30507Y3115
X31148Y18231
X29357Y4500
X25407Y14000
X25451Y12656
X28958Y4891
X28497Y3150
X28310Y17500
X33727Y17400
X30957Y5150
X30507Y8490
X41557Y10960
X52876Y3587
X53066Y17800
X53707Y13773
X62497Y14600
X54932Y14341
X62161Y16928
X61399Y4068
X54349Y14400
X62037Y14895
X60289Y4950
X54867Y13176
X61551Y14313
X56217Y15043
X55916Y5000
X55607Y5368
X55001Y13706
X50776Y4391
X65316Y5300
X51066Y12450
X48296Y11930
X49995Y4019
X51066Y11100
X48176Y10350
X50493Y4027
X51066Y11700
X48458Y11058
X51092Y13166
X61257Y5050
X53636Y9991
X63015Y8022
X52436Y10188
X53976Y3900
X51666Y7250
X61298Y16219
X55716Y18019
X58731Y4924
X53607Y14400
X61526Y15332
X60326Y3919
X51776Y4050
X51701Y17081
X54616Y18000
X55398Y18981
X52007Y19110
X52230Y4142
X55016Y15050
X55076Y4850
X54335Y4631
X53066Y19610
X51066Y9140
X49779Y9803
X61818Y8220
X53616Y3491
X53174Y9480
X46416Y9450
X48516Y5650
X48998Y5719
X50388Y3559
X54261Y9065
X49740Y7936
X53666Y9150
X48031Y9200
X48316Y6400
X48716Y6100
X55996Y16810
X52816Y11800
X48322Y7323
X51112Y7912
X53616Y11800
X55616Y13700
X52716Y16550
X54416Y15500
X51166Y15350
X48416Y15700
X48616Y17400
X45416Y19800
X45616Y22000
X49116Y13700
X49716Y10500
X56972Y6273
X55672Y3623
X54622Y4273
X46472Y3323
X56622Y4973
X65499Y3750
X66422Y15423
X64722Y14823
X61372Y16923
X60572Y12823
X63866Y12700
X58672Y13273
X63722Y3923
X58222Y9273
X54866Y11800
X55572Y8515
X56359Y10185
X60822Y11673
X58072Y17023
X58772Y16123
X57522Y4373
X56916Y13650
X63016Y11600
X53651Y10530
X52381Y13085
X53666Y13100
X57577Y15020
X65074Y4185
X61066Y6200
X53786Y6410
X46963Y3483
X48116Y17400
X51316Y21800
X45416Y20300
X54351Y9980
X55666Y11800
X64986Y12100
X54859Y8935
X49266Y17300
X53866Y18950
X63966Y7962
X56238Y11100
X63973Y11675
X65336Y10452
X54894Y11346
X56926Y10825
X55436Y6720
X52366Y11100
X52366Y12450
X62826Y4737
X49235Y22131
X54966Y12440
X56197Y12844
X58631Y10890
X56526Y4400
X58651Y11404
X56766Y3615
X56897Y15040
X57936Y13510
X58586Y12162
X50997Y18300
X47109Y21150
X51516Y20000
X51666Y17800
X46716Y19600
X47016Y14300
X58163Y7942
X55616Y9200
X48216Y22000
X46016Y15000
X56176Y11550
X56516Y18600
X46416Y21900
X59621Y4601
X56827Y20129
X46716Y18800
X59494Y4160
X57208Y19850
X56101Y12027
X64310Y12494
X52391Y3626
X52804Y18491
X54982Y18400
X53016Y3115
X53658Y18231
X51866Y4500
X47916Y14000
X47960Y12656
X51467Y4891
X51007Y3150
X50820Y17500
X56236Y17400
X53466Y5150
X53016Y8490
X64066Y10960
X75383Y3587
X75573Y17800
X76214Y13773
X85004Y14600
X77439Y14341
X84668Y16928
X83906Y4068
X76856Y14400
X84544Y14895
X82795Y4950
X77374Y13176
X84058Y14313
X78724Y15043
X78423Y5000
X78114Y5368
X77508Y13706
X73283Y4391
X87823Y5300
X73573Y12450
X70803Y11930
X72502Y4019
X73573Y11100
X70683Y10350
X73000Y4027
X73573Y11700
X70965Y11058
X73598Y13166
X83764Y5050
X76142Y9991
X85522Y8022
X74943Y10188
X76483Y3900
X74173Y7250
X83804Y16219
X78223Y18019
X81238Y4924
X76114Y14400
X84033Y15332
X82833Y3919
X74283Y4050
X74208Y17081
X77123Y18000
X77904Y18981
X74514Y19110
X74737Y4142
X77523Y15050
X77583Y4850
X76842Y4631
X75573Y19610
X73573Y9140
X72286Y9803
X84325Y8220
X76123Y3491
X75680Y9480
X68923Y9450
X71023Y5650
X71504Y5719
X72895Y3559
X76768Y9065
X72247Y7936
X76173Y9150
X70538Y9200
X70823Y6400
X71223Y6100
X78503Y16810
X75323Y11800
X70829Y7323
X73619Y7912
X76123Y11800
X78123Y13700
X75223Y16550
X76923Y15500
X73673Y15350
X70923Y15700
X71123Y17400
X67923Y19800
X68123Y22000
X71623Y13700
X72223Y10500
X79479Y6273
X78179Y3623
X77129Y4273
X68979Y3323
X79129Y4973
X88006Y3750
X88929Y15423
X87229Y14823
X83879Y16923
X83079Y12823
X86373Y12700
X81179Y13273
X86229Y3923
X80729Y9273
X77373Y11800
X78079Y8515
X78866Y10185
X83329Y11673
X80579Y17023
X81279Y16123
X80029Y4373
X79423Y13650
X85523Y11600
X76158Y10530
X74888Y13085
X76173Y13100
X80084Y15020
X87581Y4185
X83573Y6200
X76293Y6410
X69470Y3483
X70623Y17400
X73823Y21800
X67923Y20300
X76858Y9980
X78173Y11800
X87492Y12100
X77366Y8935
X71773Y17300
X76373Y18950
X86473Y7962
X78745Y11100
X86480Y11675
X87843Y10452
X77401Y11346
X79433Y10825
X77943Y6720
X74873Y11100
X74873Y12450
X85333Y4737
X71742Y22131
X77473Y12440
X78704Y12844
X81138Y10890
X79033Y4400
X81158Y11404
X79273Y3615
X79404Y15040
X80443Y13510
X81093Y12162
X73504Y18300
X69616Y21150
X74023Y20000
X74173Y17800
X69223Y19600
X69523Y14300
X80670Y7942
X78123Y9200
X70723Y22000
X68523Y15000
X78683Y11550
X79023Y18600
X68923Y21900
X82128Y4601
X79334Y20129
X69223Y18800
X82001Y4160
X79715Y19850
X78608Y12027
X86817Y12494
X74897Y3626
X75311Y18491
X77489Y18400
X75523Y3115
X76165Y18231
X74373Y4500
X70423Y14000
X70467Y12656
X73974Y4891
X73514Y3150
X73326Y17500
X78743Y17400
X75973Y5150
X75523Y8490
X86573Y10960
X97892Y3587
X98083Y17800
X98723Y13773
X107514Y14600
X99948Y14341
X107178Y16928
X106416Y4068
X99365Y14400
X107053Y14895
X105305Y4950
X99883Y13176
X106568Y14313
X101234Y15043
X100933Y5000
X100623Y5368
X100018Y13706
X95792Y4391
X110333Y5300
X96083Y12450
X93313Y11930
X95011Y4019
X96083Y11100
X93192Y10350
X95510Y4027
X96083Y11700
X93475Y11058
X96108Y13166
X106273Y5050
X98652Y9991
X108031Y8022
X97453Y10188
X98992Y3900
X96683Y7250
X106314Y16219
X100733Y18019
X103747Y4924
X98623Y14400
X106542Y15332
X105342Y3919
X96792Y4050
X96717Y17081
X99633Y18000
X100414Y18981
X97023Y19110
X97246Y4142
X100033Y15050
X100092Y4850
X99352Y4631
X98083Y19610
X96083Y9140
X94796Y9803
X106834Y8220
X98633Y3491
X98190Y9480
X91433Y9450
X93533Y5650
X94014Y5719
X95404Y3559
X99277Y9065
X94756Y7936
X98683Y9150
X93048Y9200
X93333Y6400
X93733Y6100
X101012Y16810
X97833Y11800
X93339Y7323
X96129Y7912
X98633Y11800
X100633Y13700
X97733Y16550
X99433Y15500
X96183Y15350
X93433Y15700
X93633Y17400
X90433Y19800
X90633Y22000
X94133Y13700
X94733Y10500
X101989Y6273
X100689Y3623
X99639Y4273
X91489Y3323
X101639Y4973
X110516Y3750
X111439Y15423
X109739Y14823
X106389Y16923
X105589Y12823
X108883Y12700
X103689Y13273
X108739Y3923
X103239Y9273
X99883Y11800
X100588Y8515
X101376Y10185
X105839Y11673
X103089Y17023
X103789Y16123
X102539Y4373
X101933Y13650
X108033Y11600
X98668Y10530
X97398Y13085
X98683Y13100
X102593Y15020
X110091Y4185
X106083Y6200
X98803Y6410
X91980Y3483
X93133Y17400
X96333Y21800
X90433Y20300
X99368Y9980
X100683Y11800
X110002Y12100
X99876Y8935
X94283Y17300
X98883Y18950
X108983Y7962
X101255Y11100
X108990Y11675
X110353Y10452
X99911Y11346
X101943Y10825
X100453Y6720
X97383Y11100
X97383Y12450
X107842Y4737
X94252Y22131
X99983Y12440
X101213Y12844
X103647Y10890
X101542Y4400
X103668Y11404
X101783Y3615
X101913Y15040
X102953Y13510
X103603Y12162
X96014Y18300
X92126Y21150
X96533Y20000
X96683Y17800
X91733Y19600
X92033Y14300
X103179Y7942
X100633Y9200
X93233Y22000
X91033Y15000
X101192Y11550
X101533Y18600
X91433Y21900
X104638Y4601
X101844Y20129
X91733Y18800
X104511Y4160
X102225Y19850
X101118Y12027
X109327Y12494
X97407Y3626
X97820Y18491
X99998Y18400
X98033Y3115
X98674Y18231
X96883Y4500
X92933Y14000
X92977Y12656
X96484Y4891
X96023Y3150
X95836Y17500
X101253Y17400
X98483Y5150
X98033Y8490
X109083Y10960
X120399Y3587
X120590Y17800
X121230Y13773
X130021Y14600
X122455Y14341
X129685Y16928
X128923Y4068
X121872Y14400
X129560Y14895
X127812Y4950
X122390Y13176
X129075Y14313
X123741Y15043
X123440Y5000
X123130Y5368
X122524Y13706
X118299Y4391
X132840Y5300
X118590Y12450
X115820Y11930
X117518Y4019
X118590Y11100
X115699Y10350
X118017Y4027
X118590Y11700
X115982Y11058
X118615Y13166
X128780Y5050
X121159Y9991
X130538Y8022
X119960Y10188
X121499Y3900
X119190Y7250
X128821Y16219
X123240Y18019
X126254Y4924
X121130Y14400
X129049Y15332
X127849Y3919
X119299Y4050
X119224Y17081
X122140Y18000
X122921Y18981
X119530Y19110
X119753Y4142
X122540Y15050
X122599Y4850
X121859Y4631
X120590Y19610
X118590Y9140
X117303Y9803
X129341Y8220
X121140Y3491
X120697Y9480
X113940Y9450
X116040Y5650
X116521Y5719
X117911Y3559
X121784Y9065
X117263Y7936
X121190Y9150
X115555Y9200
X115840Y6400
X116240Y6100
X123519Y16810
X120340Y11800
X115846Y7323
X118636Y7912
X121140Y11800
X123140Y13700
X120240Y16550
X121940Y15500
X118690Y15350
X115940Y15700
X116140Y17400
X112940Y19800
X113140Y22000
X116640Y13700
X117240Y10500
X124496Y6273
X123196Y3623
X122146Y4273
X113996Y3323
X124146Y4973
X133023Y3750
X133946Y15423
X132246Y14823
X128896Y16923
X128096Y12823
X131390Y12700
X126196Y13273
X131246Y3923
X125746Y9273
X122390Y11800
X123095Y8515
X123883Y10185
X128346Y11673
X125596Y17023
X126296Y16123
X125046Y4373
X124440Y13650
X130540Y11600
X121175Y10530
X119905Y13085
X121190Y13100
X125100Y15020
X132598Y4185
X128590Y6200
X121310Y6410
X114487Y3483
X115640Y17400
X118840Y21800
X112940Y20300
X121875Y9980
X123190Y11800
X132509Y12100
X122383Y8935
X116790Y17300
X121390Y18950
X131490Y7962
X123762Y11100
X131497Y11675
X132860Y10452
X122418Y11346
X124450Y10825
X122960Y6720
X119890Y11100
X119890Y12450
X130349Y4737
X116759Y22131
X122490Y12440
X123720Y12844
X126154Y10890
X124049Y4400
X126175Y11404
X124290Y3615
X124420Y15040
X125460Y13510
X126110Y12162
X118521Y18300
X114633Y21150
X119040Y20000
X119190Y17800
X114240Y19600
X114540Y14300
X125686Y7942
X123140Y9200
X115740Y22000
X113540Y15000
X123699Y11550
X124040Y18600
X113940Y21900
X127145Y4601
X124351Y20129
X114240Y18800
X127018Y4160
X124732Y19850
X123625Y12027
X131834Y12494
X119914Y3626
X120327Y18491
X122505Y18400
X120540Y3115
X121181Y18231
X119390Y4500
X115440Y14000
X115484Y12656
X118991Y4891
X118530Y3150
X118343Y17500
X123760Y17400
X120990Y5150
X120540Y8490
X131590Y10960
X142909Y3587
X143099Y17800
X143740Y13773
X152530Y14600
X144965Y14341
X152194Y16928
X151432Y4068
X144382Y14400
X152070Y14895
X150321Y4950
X144900Y13176
X151584Y14313
X146250Y15043
X145949Y5000
X145640Y5368
X145034Y13706
X140809Y4391
X155349Y5300
X141099Y12450
X138329Y11930
X140028Y4019
X141099Y11100
X138209Y10350
X140526Y4027
X141099Y11700
X138491Y11058
X141124Y13166
X151290Y5050
X143668Y9991
X153048Y8022
X142469Y10188
X144009Y3900
X141699Y7250
X151330Y16219
X145749Y18019
X148764Y4924
X143640Y14400
X151559Y15332
X150359Y3919
X141809Y4050
X141734Y17081
X144649Y18000
X145430Y18981
X142040Y19110
X142263Y4142
X145049Y15050
X145109Y4850
X144368Y4631
X143099Y19610
X141099Y9140
X139812Y9803
X151851Y8220
X143649Y3491
X143206Y9480
X136449Y9450
X138549Y5650
X139030Y5719
X140421Y3559
X144294Y9065
X139773Y7936
X143699Y9150
X138064Y9200
X138349Y6400
X138749Y6100
X146029Y16810
X142849Y11800
X138355Y7323
X141145Y7912
X143649Y11800
X145649Y13700
X142749Y16550
X144449Y15500
X141199Y15350
X138449Y15700
X138649Y17400
X135449Y19800
X135649Y22000
X139149Y13700
X139749Y10500
X147005Y6273
X145705Y3623
X144655Y4273
X136505Y3323
X146655Y4973
X155532Y3750
X156455Y15423
X154755Y14823
X151405Y16923
X150605Y12823
X153899Y12700
X148705Y13273
X153755Y3923
X148255Y9273
X144899Y11800
X145605Y8515
X146392Y10185
X150855Y11673
X148105Y17023
X148805Y16123
X147555Y4373
X146949Y13650
X153049Y11600
X143684Y10530
X142414Y13085
X143699Y13100
X147609Y15020
X155107Y4185
X151099Y6200
X143819Y6410
X136996Y3483
X138149Y17400
X141349Y21800
X135449Y20300
X144384Y9980
X145699Y11800
X155018Y12100
X144892Y8935
X139299Y17300
X143899Y18950
X153999Y7962
X146271Y11100
X154006Y11675
X155369Y10452
X144927Y11346
X146959Y10825
X145469Y6720
X142399Y11100
X142399Y12450
X152859Y4737
X139268Y22131
X144999Y12440
X146230Y12844
X148664Y10890
X146559Y4400
X148684Y11404
X146799Y3615
X146929Y15040
X147969Y13510
X148619Y12162
X141030Y18300
X137142Y21150
X141549Y20000
X141699Y17800
X136749Y19600
X137049Y14300
X148195Y7942
X145649Y9200
X138249Y22000
X136049Y15000
X146209Y11550
X146549Y18600
X136449Y21900
X149654Y4601
X146860Y20129
X136749Y18800
X149527Y4160
X147241Y19850
X146134Y12027
X154343Y12494
X142423Y3626
X142837Y18491
X145015Y18400
X143049Y3115
X143691Y18231
X141899Y4500
X137949Y14000
X137993Y12656
X141500Y4891
X141040Y3150
X140852Y17500
X146269Y17400
X143499Y5150
X143049Y8490
X154099Y10960
X165416Y3587
X165606Y17800
X166247Y13773
X175037Y14600
X167472Y14341
X174701Y16928
X173939Y4068
X166889Y14400
X174577Y14895
X172828Y4950
X167407Y13176
X174091Y14313
X168757Y15043
X168456Y5000
X168147Y5368
X167541Y13706
X163316Y4391
X177856Y5300
X163606Y12450
X160836Y11930
X162535Y4019
X163606Y11100
X160716Y10350
X163033Y4027
X163606Y11700
X160998Y11058
X163631Y13166
X173797Y5050
X166175Y9991
X175554Y8022
X164976Y10188
X166516Y3900
X164206Y7250
X173837Y16219
X168256Y18019
X171271Y4924
X166147Y14400
X174066Y15332
X172866Y3919
X164316Y4050
X164241Y17081
X167156Y18000
X167937Y18981
X164547Y19110
X164770Y4142
X167556Y15050
X167616Y4850
X166875Y4631
X165606Y19610
X163606Y9140
X162319Y9803
X174358Y8220
X166156Y3491
X165713Y9480
X158956Y9450
X161056Y5650
X161537Y5719
X162928Y3559
X166801Y9065
X162280Y7936
X166206Y9150
X160571Y9200
X160856Y6400
X161256Y6100
X168536Y16810
X165356Y11800
X160862Y7323
X163652Y7912
X166156Y11800
X168156Y13700
X165256Y16550
X166956Y15500
X163706Y15350
X160956Y15700
X161156Y17400
X157956Y19800
X158156Y22000
X161656Y13700
X162256Y10500
X169512Y6273
X168212Y3623
X167162Y4273
X159012Y3323
X169162Y4973
X178039Y3750
X178962Y15423
X177262Y14823
X173912Y16923
X173112Y12823
X176406Y12700
X171212Y13273
X176262Y3923
X170762Y9273
X167406Y11800
X168112Y8515
X168899Y10185
X173362Y11673
X170612Y17023
X171312Y16123
X170062Y4373
X169456Y13650
X175556Y11600
X166191Y10530
X164921Y13085
X166206Y13100
X170116Y15020
X177614Y4185
X173606Y6200
X166326Y6410
X159503Y3483
X160656Y17400
X163856Y21800
X157956Y20300
X166891Y9980
X168206Y11800
X177525Y12100
X167399Y8935
X161806Y17300
X166406Y18950
X176506Y7962
X168778Y11100
X176513Y11675
X177876Y10452
X167434Y11346
X169466Y10825
X167976Y6720
X164906Y11100
X164906Y12450
X175366Y4737
X161775Y22131
X167506Y12440
X168737Y12844
X171171Y10890
X169066Y4400
X171191Y11404
X169306Y3615
X169436Y15040
X170476Y13510
X171126Y12162
X163537Y18300
X159649Y21150
X164056Y20000
X164206Y17800
X159256Y19600
X159556Y14300
X170702Y7942
X168156Y9200
X160756Y22000
X158556Y15000
X168716Y11550
X169056Y18600
X158956Y21900
X172161Y4601
X169367Y20129
X159256Y18800
X172034Y4160
X169748Y19850
X168641Y12027
X176850Y12494
X164930Y3626
X165344Y18491
X167522Y18400
X165556Y3115
X166198Y18231
X164406Y4500
X160456Y14000
X160500Y12656
X164007Y4891
X163547Y3150
X163359Y17500
X168776Y17400
X166006Y5150
X165556Y8490
X176606Y10960
X14139Y66263
X13949Y52050
X13308Y56077
X4518Y55250
X12084Y55509
X4854Y52922
X5616Y65782
X12667Y55450
X4978Y54955
X6727Y64900
X12148Y56674
X5464Y55537
X10798Y54807
X11099Y64850
X11408Y64482
X12014Y56144
X16239Y65459
X1699Y64550
X15949Y57400
X18719Y57920
X17020Y65831
X15949Y58750
X18839Y59500
X16522Y65823
X15949Y58150
X18557Y58792
X15924Y56684
X5758Y64800
X13380Y59859
X4001Y61828
X14579Y59662
X13039Y65950
X15349Y62600
X5718Y53631
X11299Y51831
X8284Y64926
X13409Y55450
X5489Y54518
X6689Y65931
X15239Y65800
X15314Y52769
X12399Y51850
X11618Y50869
X15008Y50740
X14785Y65708
X11999Y54800
X11939Y65000
X12680Y65219
X13949Y50240
X15949Y60710
X17236Y60047
X5197Y61630
X13399Y66359
X13842Y60370
X20599Y60400
X18499Y64200
X18018Y64131
X16628Y66291
X12754Y60785
X17276Y61914
X13349Y60700
X18984Y60650
X18699Y63450
X18299Y63750
X11019Y53040
X14199Y58050
X18693Y62527
X15903Y61938
X13399Y58050
X11399Y56150
X14299Y53300
X12599Y54350
X15849Y54500
X18599Y54150
X18399Y52450
X21599Y50050
X21399Y47850
X17899Y56150
X17299Y59350
X10043Y63577
X11343Y66227
X12393Y65577
X20543Y66527
X10393Y64877
X1516Y66100
X593Y54427
X2293Y55027
X5643Y52927
X6443Y57027
X3149Y57150
X8343Y56577
X3293Y65927
X8793Y60577
X12149Y58050
X11443Y61335
X10656Y59665
X6193Y58177
X8943Y52827
X8243Y53727
X9493Y65477
X10099Y56200
X3999Y58250
X13364Y59320
X14634Y56765
X13349Y56750
X9439Y54830
X1941Y65665
X5949Y63650
X13229Y63440
X20052Y66367
X18899Y52450
X15699Y48050
X21599Y49550
X12664Y59870
X11349Y58050
X2030Y57750
X12156Y60915
X17749Y52550
X13149Y50900
X3049Y61888
X10777Y58750
X3042Y58175
X1679Y59398
X12121Y58504
X10089Y59025
X11579Y63130
X14649Y58750
X14649Y57400
X4189Y65113
X17780Y47719
X12049Y57410
X10818Y57006
X8384Y58960
X10489Y65450
X8364Y58446
X10249Y66235
X10119Y54810
X9079Y56340
X8429Y57688
X16018Y51550
X19906Y48700
X15499Y49850
X15349Y52050
X20299Y50250
X19999Y55550
X8853Y61908
X11399Y60650
X18799Y47850
X20999Y54850
X10839Y58300
X10499Y51250
X20599Y47950
X7394Y65249
X10188Y49721
X20299Y51050
X7521Y65690
X9807Y50000
X10914Y57823
X2705Y57356
X14625Y66224
X14212Y51359
X12033Y51450
X13999Y66735
X13358Y51619
X15149Y65350
X19099Y55850
X19055Y57194
X15548Y64959
X16008Y66700
X16196Y52350
X10779Y52450
X13549Y64700
X13999Y61360
X2949Y58890
X36649Y66263
X36458Y52050
X35818Y56077
X27027Y55250
X34593Y55509
X27363Y52922
X28125Y65782
X35176Y55450
X27488Y54955
X29236Y64900
X34658Y56674
X27974Y55537
X33307Y54807
X33608Y64850
X33918Y64482
X34524Y56144
X38749Y65459
X24208Y64550
X38458Y57400
X41229Y57920
X39530Y65831
X38458Y58750
X41349Y59500
X39031Y65823
X38458Y58150
X41067Y58792
X38433Y56684
X28268Y64800
X35889Y59859
X26510Y61828
X37088Y59662
X35549Y65950
X37858Y62600
X28227Y53631
X33808Y51831
X30794Y64926
X35918Y55450
X27999Y54518
X29199Y65931
X37749Y65800
X37824Y52769
X34908Y51850
X34127Y50869
X37518Y50740
X37295Y65708
X34508Y54800
X34449Y65000
X35190Y65219
X36458Y50240
X38458Y60710
X39746Y60047
X27707Y61630
X35908Y66359
X36351Y60370
X43108Y60400
X41008Y64200
X40527Y64131
X39137Y66291
X35264Y60785
X39785Y61914
X35858Y60700
X41493Y60650
X41208Y63450
X40808Y63750
X33529Y53040
X36708Y58050
X41202Y62527
X38412Y61938
X35908Y58050
X33908Y56150
X36808Y53300
X35108Y54350
X38358Y54500
X41108Y54150
X40908Y52450
X44108Y50050
X43908Y47850
X40408Y56150
X39808Y59350
X32552Y63577
X33852Y66227
X34902Y65577
X43052Y66527
X32902Y64877
X24025Y66100
X23102Y54427
X24802Y55027
X28152Y52927
X28952Y57027
X25658Y57150
X30852Y56577
X25802Y65927
X31302Y60577
X34658Y58050
X33953Y61335
X33166Y59665
X28702Y58177
X31452Y52827
X30752Y53727
X32002Y65477
X32608Y56200
X26508Y58250
X35873Y59320
X37143Y56765
X35858Y56750
X31948Y54830
X24450Y65665
X28458Y63650
X35739Y63440
X42562Y66367
X41408Y52450
X38208Y48050
X44108Y49550
X35173Y59870
X33858Y58050
X24539Y57750
X34666Y60915
X40258Y52550
X35658Y50900
X25558Y61888
X33286Y58750
X25551Y58175
X24188Y59398
X34631Y58504
X32598Y59025
X34088Y63130
X37158Y58750
X37158Y57400
X26699Y65113
X40290Y47719
X34559Y57410
X33328Y57006
X30894Y58960
X32999Y65450
X30874Y58446
X32758Y66235
X32628Y54810
X31588Y56340
X30938Y57688
X38528Y51550
X42416Y48700
X38008Y49850
X37858Y52050
X42808Y50250
X42508Y55550
X31362Y61908
X33908Y60650
X41308Y47850
X43508Y54850
X33349Y58300
X33008Y51250
X43108Y47950
X29903Y65249
X32697Y49721
X42808Y51050
X30030Y65690
X32316Y50000
X33424Y57823
X25214Y57356
X37134Y66224
X36721Y51359
X34543Y51450
X36508Y66735
X35867Y51619
X37658Y65350
X41608Y55850
X41565Y57194
X38058Y64959
X38518Y66700
X38705Y52350
X33288Y52450
X36058Y64700
X36508Y61360
X25458Y58890
X59156Y66263
X58965Y52050
X58325Y56077
X49534Y55250
X57100Y55509
X49870Y52922
X50632Y65782
X57683Y55450
X49995Y54955
X51743Y64900
X57165Y56674
X50480Y55537
X55814Y54807
X56115Y64850
X56425Y64482
X57031Y56144
X61256Y65459
X46715Y64550
X60965Y57400
X63736Y57920
X62037Y65831
X60965Y58750
X63856Y59500
X61538Y65823
X60965Y58150
X63573Y58792
X60940Y56684
X50775Y64800
X58396Y59859
X49017Y61828
X59595Y59662
X58056Y65950
X60365Y62600
X50734Y53631
X56315Y51831
X53301Y64926
X58425Y55450
X50506Y54518
X51706Y65931
X60256Y65800
X60331Y52769
X57415Y51850
X56634Y50869
X60025Y50740
X59802Y65708
X57015Y54800
X56956Y65000
X57696Y65219
X58965Y50240
X60965Y60710
X62253Y60047
X50214Y61630
X58415Y66359
X58858Y60370
X65615Y60400
X63515Y64200
X63034Y64131
X61644Y66291
X57771Y60785
X62292Y61914
X58365Y60700
X64000Y60650
X63715Y63450
X63315Y63750
X56036Y53040
X59215Y58050
X63709Y62527
X60919Y61938
X58415Y58050
X56415Y56150
X59315Y53300
X57615Y54350
X60865Y54500
X63615Y54150
X63415Y52450
X66615Y50050
X66415Y47850
X62915Y56150
X62315Y59350
X55059Y63577
X56359Y66227
X57409Y65577
X65559Y66527
X55409Y64877
X46532Y66100
X45609Y54427
X47309Y55027
X50659Y52927
X51459Y57027
X48165Y57150
X53359Y56577
X48309Y65927
X53809Y60577
X57165Y58050
X56460Y61335
X55672Y59665
X51209Y58177
X53959Y52827
X53259Y53727
X54509Y65477
X55115Y56200
X49015Y58250
X58380Y59320
X59650Y56765
X58365Y56750
X54455Y54830
X46957Y65665
X50965Y63650
X58246Y63440
X65069Y66367
X63915Y52450
X60715Y48050
X66615Y49550
X57680Y59870
X56365Y58050
X47046Y57750
X57172Y60915
X62765Y52550
X58165Y50900
X48065Y61888
X55793Y58750
X48058Y58175
X46695Y59398
X57138Y58504
X55105Y59025
X56595Y63130
X59665Y58750
X59665Y57400
X49206Y65113
X62796Y47719
X57066Y57410
X55835Y57006
X53401Y58960
X55506Y65450
X53380Y58446
X55265Y66235
X55135Y54810
X54095Y56340
X53445Y57688
X61034Y51550
X64922Y48700
X60515Y49850
X60365Y52050
X65315Y50250
X65015Y55550
X53869Y61908
X56415Y60650
X63815Y47850
X66015Y54850
X55856Y58300
X55515Y51250
X65615Y47950
X52410Y65249
X55204Y49721
X65315Y51050
X52537Y65690
X54823Y50000
X55930Y57823
X47721Y57356
X59641Y66224
X59228Y51359
X57050Y51450
X59015Y66735
X58374Y51619
X60165Y65350
X64115Y55850
X64071Y57194
X60565Y64959
X61025Y66700
X61212Y52350
X55795Y52450
X58565Y64700
X59015Y61360
X47965Y58890
X81665Y66263
X81475Y52050
X80834Y56077
X72044Y55250
X79610Y55509
X72380Y52922
X73142Y65782
X80192Y55450
X72504Y54955
X74253Y64900
X79674Y56674
X72990Y55537
X78324Y54807
X78625Y64850
X78934Y64482
X79540Y56144
X83765Y65459
X69225Y64550
X83475Y57400
X86245Y57920
X84546Y65831
X83475Y58750
X86365Y59500
X84048Y65823
X83475Y58150
X86083Y58792
X83450Y56684
X73284Y64800
X80906Y59859
X71527Y61828
X82105Y59662
X80565Y65950
X82875Y62600
X73244Y53631
X78825Y51831
X75810Y64926
X80934Y55450
X73015Y54518
X74215Y65931
X82765Y65800
X82840Y52769
X79925Y51850
X79144Y50869
X82534Y50740
X82311Y65708
X79525Y54800
X79465Y65000
X80206Y65219
X81475Y50240
X83475Y60710
X84762Y60047
X72723Y61630
X80925Y66359
X81368Y60370
X88125Y60400
X86025Y64200
X85544Y64131
X84153Y66291
X80280Y60785
X84802Y61914
X80875Y60700
X86510Y60650
X86225Y63450
X85825Y63750
X78545Y53040
X81725Y58050
X86219Y62527
X83429Y61938
X80925Y58050
X78925Y56150
X81825Y53300
X80125Y54350
X83375Y54500
X86125Y54150
X85925Y52450
X89125Y50050
X88925Y47850
X85425Y56150
X84825Y59350
X77569Y63577
X78869Y66227
X79919Y65577
X88069Y66527
X77919Y64877
X69042Y66100
X68119Y54427
X69819Y55027
X73169Y52927
X73969Y57027
X70675Y57150
X75869Y56577
X70819Y65927
X76319Y60577
X79675Y58050
X78969Y61335
X78182Y59665
X73719Y58177
X76469Y52827
X75769Y53727
X77019Y65477
X77625Y56200
X71525Y58250
X80890Y59320
X82160Y56765
X80875Y56750
X76965Y54830
X69467Y65665
X73475Y63650
X80755Y63440
X87578Y66367
X86425Y52450
X83225Y48050
X89125Y49550
X80190Y59870
X78875Y58050
X69556Y57750
X79682Y60915
X85275Y52550
X80675Y50900
X70575Y61888
X78303Y58750
X70568Y58175
X69205Y59398
X79647Y58504
X77615Y59025
X79105Y63130
X82175Y58750
X82175Y57400
X71715Y65113
X85306Y47719
X79575Y57410
X78344Y57006
X75910Y58960
X78015Y65450
X75890Y58446
X77775Y66235
X77645Y54810
X76605Y56340
X75955Y57688
X83544Y51550
X87432Y48700
X83025Y49850
X82875Y52050
X87825Y50250
X87525Y55550
X76379Y61908
X78925Y60650
X86325Y47850
X88525Y54850
X78365Y58300
X78025Y51250
X88125Y47950
X74920Y65249
X77714Y49721
X87825Y51050
X75047Y65690
X77333Y50000
X78440Y57823
X70231Y57356
X82151Y66224
X81737Y51359
X79559Y51450
X81525Y66735
X80884Y51619
X82675Y65350
X86625Y55850
X86581Y57194
X83074Y64959
X83534Y66700
X83722Y52350
X78305Y52450
X81075Y64700
X81525Y61360
X70475Y58890
X104172Y66263
X103982Y52050
X103341Y56077
X94551Y55250
X102116Y55509
X94887Y52922
X95649Y65782
X102699Y55450
X95011Y54955
X96760Y64900
X102181Y56674
X7860Y3587
X100831Y54807
X101132Y64850
X101441Y64482
X102047Y56144
X106272Y65459
X91732Y64550
X105982Y57400
X108752Y57920
X107053Y65831
X105982Y58750
X108872Y59500
X106555Y65823
X105982Y58150
X108590Y58792
X105957Y56684
X95791Y64800
X103413Y59859
X94033Y61828
X104612Y59662
X103072Y65950
X105382Y62600
X95751Y53631
X101332Y51831
X98317Y64926
X103441Y55450
X95522Y54518
X96722Y65931
X105272Y65800
X105347Y52769
X102432Y51850
X101651Y50869
X105041Y50740
X104818Y65708
X102032Y54800
X101972Y65000
X102713Y65219
X103982Y50240
X105982Y60710
X107269Y60047
X95230Y61630
X103432Y66359
X103875Y60370
X110632Y60400
X108532Y64200
X108051Y64131
X106660Y66291
X102787Y60785
X107308Y61914
X103382Y60700
X109017Y60650
X108732Y63450
X108332Y63750
X101052Y53040
X104232Y58050
X108726Y62527
X105936Y61938
X103432Y58050
X101432Y56150
X104332Y53300
X102632Y54350
X105882Y54500
X108632Y54150
X108432Y52450
X111632Y50050
X111432Y47850
X107932Y56150
X107332Y59350
X100076Y63577
X101376Y66227
X102426Y65577
X110576Y66527
X100426Y64877
X91549Y66100
X90626Y54427
X92326Y55027
X95676Y52927
X96476Y57027
X93182Y57150
X98376Y56577
X93326Y65927
X98826Y60577
X102182Y58050
X101476Y61335
X100689Y59665
X96226Y58177
X98976Y52827
X98276Y53727
X99526Y65477
X100132Y56200
X94032Y58250
X103397Y59320
X104667Y56765
X103382Y56750
X99472Y54830
X91974Y65665
X95982Y63650
X103262Y63440
X110085Y66367
X108932Y52450
X105732Y48050
X111632Y49550
X102697Y59870
X101382Y58050
X92063Y57750
X102189Y60915
X107782Y52550
X103182Y50900
X93082Y61888
X100810Y58750
X93075Y58175
X91712Y59398
X102154Y58504
X100122Y59025
X101612Y63130
X104682Y58750
X104682Y57400
X94222Y65113
X107813Y47719
X102082Y57410
X100851Y57006
X98417Y58960
X100522Y65450
X98397Y58446
X100282Y66235
X100152Y54810
X99112Y56340
X98462Y57688
X106051Y51550
X109939Y48700
X105532Y49850
X105382Y52050
X110332Y50250
X110032Y55550
X98886Y61908
X101432Y60650
X108832Y47850
X111032Y54850
X100872Y58300
X100532Y51250
X110632Y47950
X97427Y65249
X100221Y49721
X110332Y51050
X97554Y65690
X99840Y50000
X100947Y57823
X92738Y57356
X104658Y66224
X104244Y51359
X102066Y51450
X104032Y66735
X103390Y51619
X105182Y65350
X109132Y55850
X109088Y57194
X105581Y64959
X106041Y66700
X106229Y52350
X100812Y52450
X103582Y64700
X104032Y61360
X92982Y58890
X126682Y66263
X126491Y52050
X125851Y56077
X117060Y55250
X124626Y55509
X117396Y52922
X118158Y65782
X125209Y55450
X117521Y54955
X119269Y64900
X124691Y56674
X118006Y55537
X123340Y54807
X123641Y64850
X123951Y64482
X124557Y56144
X128782Y65459
X114241Y64550
X128491Y57400
X131261Y57920
X129563Y65831
X128491Y58750
X131382Y59500
X129064Y65823
X128491Y58150
X131099Y58792
X128466Y56684
X118301Y64800
X125922Y59859
X116543Y61828
X127121Y59662
X125582Y65950
X127891Y62600
X118260Y53631
X123841Y51831
X120827Y64926
X125951Y55450
X118032Y54518
X119232Y65931
X127782Y65800
X127857Y52769
X124941Y51850
X124160Y50869
X127551Y50740
X127328Y65708
X124541Y54800
X124482Y65000
X125222Y65219
X126491Y50240
X128491Y60710
X129778Y60047
X117740Y61630
X125941Y66359
X126384Y60370
X133141Y60400
X131041Y64200
X130560Y64131
X129170Y66291
X125297Y60785
X129818Y61914
X125891Y60700
X131526Y60650
X131241Y63450
X130841Y63750
X123562Y53040
X126741Y58050
X131235Y62527
X128445Y61938
X125941Y58050
X123941Y56150
X126841Y53300
X125141Y54350
X128391Y54500
X131141Y54150
X130941Y52450
X134141Y50050
X133941Y47850
X130441Y56150
X129841Y59350
X122585Y63577
X123885Y66227
X124935Y65577
X133085Y66527
X122935Y64877
X114058Y66100
X113135Y54427
X114835Y55027
X118185Y52927
X118985Y57027
X115691Y57150
X120885Y56577
X115835Y65927
X121335Y60577
X124691Y58050
X123986Y61335
X123198Y59665
X118735Y58177
X121485Y52827
X120785Y53727
X122035Y65477
X122641Y56200
X116541Y58250
X125906Y59320
X127176Y56765
X125891Y56750
X121981Y54830
X114483Y65665
X118491Y63650
X125771Y63440
X132594Y66367
X131441Y52450
X128241Y48050
X134141Y49550
X125206Y59870
X123891Y58050
X114572Y57750
X124698Y60915
X130291Y52550
X125691Y50900
X115591Y61888
X123319Y58750
X115584Y58175
X114221Y59398
X124663Y58504
X122631Y59025
X124121Y63130
X127191Y58750
X127191Y57400
X116732Y65113
X130322Y47719
X124591Y57410
X123361Y57006
X120927Y58960
X123032Y65450
X120906Y58446
X122791Y66235
X122661Y54810
X121621Y56340
X120971Y57688
X128560Y51550
X132448Y48700
X128041Y49850
X127891Y52050
X132841Y50250
X132541Y55550
X121395Y61908
X123941Y60650
X131341Y47850
X133541Y54850
X123382Y58300
X123041Y51250
X133141Y47950
X119936Y65249
X122730Y49721
X132841Y51050
X120063Y65690
X122349Y50000
X123456Y57823
X115247Y57356
X127167Y66224
X126754Y51359
X124576Y51450
X126541Y66735
X125900Y51619
X127691Y65350
X131641Y55850
X131597Y57194
X128090Y64959
X128551Y66700
X128738Y52350
X123321Y52450
X126091Y64700
X126541Y61360
X115491Y58890
X149189Y66263
X148998Y52050
X148358Y56077
X139567Y55250
X147133Y55509
X139903Y52922
X140665Y65782
X147716Y55450
X140028Y54955
X141776Y64900
X147198Y56674
X140513Y55537
X145847Y54807
X95497Y55537
X146458Y64482
X147064Y56144
X151289Y65459
X136748Y64550
X150998Y57400
X153768Y57920
X152070Y65831
X150998Y58750
X153889Y59500
X151571Y65823
X150998Y58150
X153606Y58792
X150973Y56684
X140808Y64800
X148429Y59859
X139050Y61828
X149628Y59662
X148089Y65950
X150398Y62600
X140767Y53631
X146348Y51831
X143334Y64926
X148458Y55450
X140539Y54518
X141739Y65931
X150289Y65800
X150364Y52769
X147448Y51850
X146667Y50869
X150058Y50740
X149835Y65708
X147048Y54800
X146989Y65000
X147729Y65219
X148998Y50240
X150998Y60710
X152285Y60047
X140247Y61630
X148448Y66359
X148891Y60370
X155648Y60400
X153548Y64200
X153067Y64131
X151677Y66291
X147804Y60785
X152325Y61914
X148398Y60700
X154033Y60650
X153748Y63450
X153348Y63750
X146069Y53040
X149248Y58050
X153742Y62527
X150952Y61938
X148448Y58050
X146448Y56150
X149348Y53300
X147648Y54350
X150898Y54500
X153648Y54150
X153448Y52450
X156648Y50050
X156448Y47850
X152948Y56150
X152348Y59350
X145092Y63577
X146392Y66227
X147442Y65577
X155592Y66527
X145442Y64877
X136565Y66100
X135642Y54427
X137342Y55027
X140692Y52927
X141492Y57027
X138198Y57150
X143392Y56577
X138342Y65927
X143842Y60577
X147198Y58050
X146493Y61335
X145705Y59665
X141242Y58177
X143992Y52827
X143292Y53727
X144542Y65477
X145148Y56200
X139048Y58250
X148413Y59320
X149683Y56765
X148398Y56750
X144488Y54830
X136990Y65665
X140998Y63650
X148278Y63440
X155101Y66367
X153948Y52450
X150748Y48050
X156648Y49550
X147713Y59870
X146398Y58050
X137079Y57750
X147205Y60915
X152798Y52550
X148198Y50900
X138098Y61888
X145826Y58750
X138091Y58175
X136728Y59398
X147170Y58504
X145138Y59025
X146628Y63130
X149698Y58750
X149698Y57400
X139239Y65113
X152829Y47719
X147098Y57410
X145868Y57006
X143434Y58960
X145539Y65450
X143413Y58446
X145298Y66235
X145168Y54810
X144128Y56340
X143478Y57688
X151067Y51550
X154955Y48700
X150548Y49850
X150398Y52050
X155348Y50250
X155048Y55550
X143902Y61908
X146448Y60650
X153848Y47850
X156048Y54850
X145889Y58300
X145548Y51250
X155648Y47950
X142443Y65249
X145237Y49721
X155348Y51050
X142570Y65690
X144856Y50000
X145963Y57823
X137754Y57356
X149674Y66224
X149261Y51359
X147083Y51450
X149048Y66735
X148407Y51619
X150198Y65350
X154148Y55850
X154104Y57194
X150597Y64959
X151058Y66700
X151245Y52350
X145828Y52450
X148598Y64700
X149048Y61360
X137998Y58890
X171696Y66263
X171505Y52050
X170865Y56077
X162074Y55250
X169640Y55509
X162410Y52922
X163172Y65782
X170223Y55450
X162534Y54955
X164283Y64900
X169705Y56674
X163020Y55537
X168354Y54807
X168655Y64850
X168965Y64482
X169570Y56144
X173796Y65459
X159255Y64550
X173505Y57400
X176275Y57920
X174577Y65831
X173505Y58750
X176396Y59500
X174078Y65823
X173505Y58150
X176113Y58792
X173480Y56684
X163315Y64800
X170936Y59859
X161557Y61828
X172135Y59662
X170596Y65950
X172905Y62600
X163274Y53631
X168855Y51831
X165841Y64926
X170965Y55450
X163046Y54518
X164246Y65931
X172796Y65800
X172871Y52769
X169955Y51850
X169174Y50869
X172565Y50740
X172342Y65708
X169555Y54800
X169496Y65000
X170236Y65219
X171505Y50240
X173505Y60710
X174792Y60047
X162753Y61630
X170955Y66359
X171398Y60370
X178155Y60400
X176055Y64200
X175574Y64131
X174184Y66291
X170311Y60785
X174832Y61914
X170905Y60700
X176540Y60650
X176255Y63450
X175855Y63750
X168576Y53040
X171755Y58050
X176249Y62527
X173459Y61938
X170955Y58050
X168955Y56150
X171855Y53300
X170155Y54350
X173405Y54500
X176155Y54150
X175955Y52450
X179155Y50050
X178955Y47850
X175455Y56150
X174855Y59350
X167599Y63577
X168899Y66227
X169949Y65577
X178099Y66527
X167949Y64877
X159072Y66100
X158149Y54427
X159849Y55027
X163199Y52927
X163999Y57027
X160705Y57150
X165899Y56577
X160849Y65927
X166349Y60577
X169705Y58050
X169000Y61335
X168212Y59665
X163749Y58177
X166499Y52827
X165799Y53727
X167049Y65477
X167655Y56200
X161555Y58250
X170920Y59320
X172190Y56765
X170905Y56750
X166995Y54830
X159497Y65665
X163505Y63650
X170785Y63440
X177608Y66367
X176455Y52450
X173255Y48050
X179155Y49550
X170220Y59870
X168905Y58050
X159586Y57750
X169712Y60915
X175305Y52550
X170705Y50900
X160605Y61888
X168333Y58750
X160598Y58175
X159235Y59398
X169677Y58504
X167645Y59025
X169135Y63130
X172205Y58750
X172205Y57400
X161746Y65113
X175336Y47719
X169605Y57410
X168375Y57006
X165941Y58960
X168046Y65450
X165920Y58446
X167805Y66235
X167675Y54810
X166635Y56340
X165985Y57688
X173574Y51550
X177462Y48700
X173055Y49850
X172905Y52050
X177855Y50250
X177555Y55550
X166409Y61908
X168955Y60650
X176355Y47850
X178555Y54850
X168396Y58300
X168055Y51250
X178155Y47950
X164950Y65249
X167744Y49721
X177855Y51050
X165077Y65690
X167363Y50000
X168470Y57823
X160261Y57356
X172181Y66224
X171768Y51359
X169590Y51450
X171555Y66735
X170914Y51619
X172705Y65350
X176655Y55850
X176611Y57194
X173104Y64959
X173565Y66700
X173752Y52350
X168335Y52450
X171105Y64700
X171555Y61360
X160505Y58890
X8050Y17800
X8690Y13773
X17481Y14600
X9915Y14341
X17145Y16928
X16383Y4068
X9332Y14400
X17021Y14895
X15272Y4950
X9850Y13176
X16535Y14313
X11201Y15043
X10900Y5000
X10590Y5368
X9985Y13706
X146148Y64850
M30