M48
;GenerationSoftware,Autodesk,EAGLE,9.5.2*%
;CreationDate,2020-02-20T22:29:17Z*%
FMAT,2
ICI,OFF
METRIC,TZ,000.000
T2C0.200
T1C3.500
%
G90
M71
T1
X142048Y47050
X15000Y22800
X37507Y22800
X60016Y22800
X82523Y22800
X105033Y22800
X127540Y22800
X150049Y22800
X6999Y47050
X29508Y47050
X52015Y47050
X74525Y47050
X97032Y47050
X119541Y47050
T2
X10590Y5368
X9935Y13656
X6210Y4491
X20000Y5300
X6093Y12428
X3430Y11930
X5329Y4319
X6025Y11100
X3410Y10350
X5727Y4027
X6000Y11800
X3442Y11058
X6025Y13166
X15940Y5050
X8619Y9991
X17848Y8022
X7407Y10200
X8910Y3900
X6700Y7100
X16281Y16219
X10600Y18019
X8540Y14400
X16410Y14532
X6810Y3800
X6685Y17081
X9600Y18000
X7212Y3588
X10281Y18981
X6990Y19110
X10000Y15100
X10060Y4600
X9119Y4681
X8100Y19510
X6050Y9140
X4763Y9753
X16802Y8220
X8600Y3491
X8057Y9430
X1700Y9400
X4000Y5400
X4381Y5819
X5321Y3809
X9345Y9165
X4773Y7986
X8620Y9120
X3465Y9200
X3900Y6300
X3700Y5800
X10930Y16810
X8000Y11800
X3556Y7023
X6096Y7912
X8636Y11849
X10600Y13700
X9300Y12500
X7800Y16500
X9400Y15600
X6100Y15500
X3400Y15700
X3600Y17400
X4000Y19800
X400Y19800
X600Y22000
X4200Y13700
X4700Y10500
X13056Y7423
X11956Y6123
X10856Y3823
X9556Y3923
X12456Y4123
X1556Y4323
X11556Y4923
X20356Y3623
X21056Y15623
X18356Y14723
X16356Y16923
X15556Y12823
X17856Y12223
X13656Y13123
X18756Y3623
X13256Y9123
X7300Y11800
X9900Y11800
X11255Y8565
X11843Y10085
X14956Y11723
X13056Y17023
X13756Y16123
X8635Y10530
X7365Y13085
X8620Y13085
X12460Y15070
X9893Y10030
X19500Y3400
X15900Y6100
X8620Y6410
X1820Y3810
X3100Y17400
X6300Y21800
X400Y20300
X10655Y11745
X19669Y12100
X9893Y8785
X4250Y17300
X8800Y18800
X19050Y7912
X11235Y11087
X17907Y11675
X9970Y11060
X11910Y10825
X10470Y6720
X7330Y11080
X7360Y12435
X17810Y4737
X4219Y22181
X9950Y12440
X11181Y12844
X13664Y10890
X11510Y4400
X13635Y11354
X11700Y3565
X11830Y15090
X12920Y13510
X13620Y11991
X5981Y18300
X1743Y20800
X6500Y20000
X6600Y17700
X1700Y19600
X2000Y14300
X3200Y22000
X1000Y15000
X11210Y11650
X11500Y18600
X1400Y21900
X14605Y5051
X11811Y20129
X1700Y18800
X14478Y4610
X12192Y19850
X11235Y12402
X19294Y12494
X7524Y4076
X7787Y18491
X9965Y18400
X8000Y3065
X8641Y18181
X7000Y4500
X2900Y14000
X2944Y12656
X6751Y4891
X5940Y3500
X5803Y17500
X11220Y17400
X8300Y5100
X8000Y8540
X19050Y10960
X30416Y3737
X30507Y18000
X31197Y13773
X39988Y14600
X32442Y14291
X39952Y15278
X38890Y5118
X31839Y14400
X39228Y14845
X38055Y4818
X32357Y13176
X38942Y13913
X33658Y14993
X33407Y5000
X33097Y5368
X32442Y13656
X28716Y4491
X42507Y5300
X28600Y12428
X25937Y11930
X27835Y4319
X28532Y11100
X25917Y10350
X28234Y4027
X28507Y11800
X25949Y11058
X28532Y13166
X38447Y5050
X31126Y9991
X40355Y8022
X29914Y10200
X31416Y3900
X29207Y7100
X38788Y16219
X33107Y18019
X31047Y14400
X38916Y14532
X29316Y3800
X29191Y17081
X32107Y18000
X29719Y3588
X32788Y18981
X29497Y19110
X32507Y15100
X32566Y4600
X31626Y4681
X30607Y19510
X28557Y9140
X27270Y9753
X39309Y8220
X31107Y3491
X30564Y9430
X24207Y9400
X26507Y5400
X26888Y5819
X27828Y3809
X31851Y9165
X27280Y7986
X31127Y9120
X25972Y9200
X26407Y6300
X26207Y5800
X33436Y16810
X30507Y11800
X26063Y7023
X28603Y7912
X31143Y11849
X33107Y13700
X31807Y12500
X30307Y16500
X31907Y15600
X28607Y15500
X25907Y15700
X26107Y17400
X26507Y19800
X22907Y19800
X23107Y22000
X26707Y13700
X27207Y10500
X35563Y7423
X34463Y6123
X33363Y3823
X32063Y3923
X34963Y4123
X24063Y4323
X34063Y4923
X42863Y3623
X43563Y15623
X40863Y14723
X38863Y16923
X38063Y12823
X40363Y12223
X36163Y13123
X41263Y3623
X35763Y9123
X29807Y11800
X32407Y11800
X33762Y8565
X34350Y10085
X37463Y11723
X35563Y17023
X36263Y16123
X31142Y10530
X29872Y13085
X31127Y13085
X34967Y15070
X32400Y10030
X42007Y3400
X38407Y6100
X31127Y6410
X24327Y3810
X25607Y17400
X28807Y21800
X22907Y20300
X33162Y11745
X42176Y12100
X32400Y8785
X26757Y17300
X31307Y18800
X41557Y7912
X33742Y11087
X40414Y11675
X32477Y11060
X34417Y10825
X32977Y6720
X29837Y11080
X29867Y12435
X40316Y4737
X26726Y22181
X32457Y12440
X33687Y12844
X36171Y10890
X34016Y4400
X36142Y11354
X34207Y3565
X34337Y15090
X35427Y13510
X36127Y11991
X28488Y18300
X24250Y20800
X29007Y20000
X29107Y17700
X24207Y19600
X24507Y14300
X25707Y22000
X23507Y15000
X33716Y11650
X34007Y18600
X23907Y21900
X37112Y5051
X34318Y20129
X24207Y18800
X36985Y4610
X34699Y19850
X33742Y12402
X41801Y12494
X30031Y4076
X30294Y18491
X32472Y18400
X30507Y3065
X31148Y18181
X29507Y4500
X25407Y14000
X25451Y12656
X29258Y4891
X28447Y3500
X28310Y17500
X33727Y17400
X30807Y5100
X30507Y8540
X41557Y10960
X52926Y3737
X53016Y18000
X53707Y13773
X62497Y14600
X54951Y14291
X62461Y15278
X61399Y5118
X54349Y14400
X61737Y14845
X60564Y4818
X54867Y13176
X61451Y13913
X56167Y14993
X55916Y5000
X55607Y5368
X54951Y13656
X51226Y4491
X65016Y5300
X51109Y12428
X48446Y11930
X50345Y4319
X51042Y11100
X48426Y10350
X50743Y4027
X51016Y11800
X48458Y11058
X51042Y13166
X60957Y5050
X53636Y9991
X62865Y8022
X52424Y10200
X53926Y3900
X51716Y7100
X61298Y16219
X55616Y18019
X53557Y14400
X61426Y14532
X51826Y3800
X51701Y17081
X54616Y18000
X52228Y3588
X55298Y18981
X52007Y19110
X55016Y15100
X55076Y4600
X54135Y4681
X53116Y19510
X51066Y9140
X49779Y9753
X61818Y8220
X53616Y3491
X53074Y9430
X46716Y9400
X49016Y5400
X49398Y5819
X50338Y3809
X54361Y9165
X49790Y7986
X53637Y9120
X48481Y9200
X48916Y6300
X48716Y5800
X55946Y16810
X53016Y11800
X48572Y7023
X51112Y7912
X53652Y11849
X55616Y13700
X54316Y12500
X52816Y16500
X54416Y15600
X51116Y15500
X48416Y15700
X48616Y17400
X49016Y19800
X45416Y19800
X45616Y22000
X49216Y13700
X49716Y10500
X58072Y7423
X56972Y6123
X55872Y3823
X54572Y3923
X57472Y4123
X46572Y4323
X56572Y4923
X65372Y3623
X66072Y15623
X63372Y14723
X61372Y16923
X60572Y12823
X62872Y12223
X58672Y13123
X63772Y3623
X58272Y9123
X52316Y11800
X54916Y11800
X56272Y8565
X56859Y10085
X59972Y11723
X58072Y17023
X58772Y16123
X53651Y10530
X52381Y13085
X53636Y13085
X57477Y15070
X54909Y10030
X64516Y3400
X60916Y6100
X53636Y6410
X46836Y3810
X48116Y17400
X51316Y21800
X45416Y20300
X55671Y11745
X64686Y12100
X54909Y8785
X49266Y17300
X53816Y18800
X64066Y7912
X56251Y11087
X62923Y11675
X54986Y11060
X56926Y10825
X55486Y6720
X52346Y11080
X52376Y12435
X62826Y4737
X49235Y22181
X54966Y12440
X56197Y12844
X58681Y10890
X56526Y4400
X58651Y11354
X56716Y3565
X56847Y15090
X57936Y13510
X58636Y11991
X50997Y18300
X46759Y20800
X51516Y20000
X51616Y17700
X46716Y19600
X47016Y14300
X48216Y22000
X46016Y15000
X56226Y11650
X56516Y18600
X46416Y21900
X59621Y5051
X56827Y20129
X46716Y18800
X59494Y4610
X57208Y19850
X56251Y12402
X64310Y12494
X52541Y4076
X52804Y18491
X54982Y18400
X53016Y3065
X53658Y18181
X52016Y4500
X47916Y14000
X47960Y12656
X51767Y4891
X50957Y3500
X50820Y17500
X56236Y17400
X53316Y5100
X53016Y8540
X64066Y10960
X75433Y3737
X75523Y18000
X76214Y13773
X85004Y14600
X77458Y14291
X84968Y15278
X83906Y5118
X76856Y14400
X84244Y14845
X83071Y4818
X77374Y13176
X83958Y13913
X78674Y14993
X78423Y5000
X78114Y5368
X77458Y13656
X73733Y4491
X87523Y5300
X73616Y12428
X70953Y11930
X72852Y4319
X73548Y11100
X70933Y10350
X73250Y4027
X73523Y11800
X70965Y11058
X73548Y13166
X83464Y5050
X76142Y9991
X85372Y8022
X74930Y10200
X76433Y3900
X74223Y7100
X83804Y16219
X78123Y18019
X76064Y14400
X83933Y14532
X74333Y3800
X74208Y17081
X77123Y18000
X74735Y3588
X77804Y18981
X74514Y19110
X77523Y15100
X77583Y4600
X76642Y4681
X75623Y19510
X73573Y9140
X72286Y9753
X84325Y8220
X76123Y3491
X75580Y9430
X69223Y9400
X71523Y5400
X71904Y5819
X72845Y3809
X76868Y9165
X72297Y7986
X76144Y9120
X70988Y9200
X71423Y6300
X71223Y5800
X78453Y16810
X75523Y11800
X71079Y7023
X73619Y7912
X76159Y11849
X78123Y13700
X76823Y12500
X75323Y16500
X76923Y15600
X73623Y15500
X70923Y15700
X71123Y17400
X71523Y19800
X67923Y19800
X68123Y22000
X71723Y13700
X72223Y10500
X80579Y7423
X79479Y6123
X78379Y3823
X77079Y3923
X79979Y4123
X69079Y4323
X79079Y4923
X87879Y3623
X88579Y15623
X85879Y14723
X83879Y16923
X83079Y12823
X85379Y12223
X81179Y13123
X86279Y3623
X80779Y9123
X74823Y11800
X77423Y11800
X78779Y8565
X79366Y10085
X82479Y11723
X80579Y17023
X81279Y16123
X76158Y10530
X74888Y13085
X76143Y13085
X79984Y15070
X77416Y10030
X87023Y3400
X83423Y6100
X76143Y6410
X69343Y3810
X70623Y17400
X73823Y21800
X67923Y20300
X78178Y11745
X87192Y12100
X77416Y8785
X71773Y17300
X76323Y18800
X86573Y7912
X78758Y11087
X85430Y11675
X77493Y11060
X79433Y10825
X77993Y6720
X74853Y11080
X74883Y12435
X85333Y4737
X71742Y22181
X77473Y12440
X78704Y12844
X81188Y10890
X79033Y4400
X81158Y11354
X79223Y3565
X79354Y15090
X80443Y13510
X81143Y11991
X73504Y18300
X69266Y20800
X74023Y20000
X74123Y17700
X69223Y19600
X69523Y14300
X70723Y22000
X68523Y15000
X78733Y11650
X79023Y18600
X68923Y21900
X82128Y5051
X79334Y20129
X69223Y18800
X82001Y4610
X79715Y19850
X78758Y12402
X86817Y12494
X75047Y4076
X75311Y18491
X77489Y18400
X75523Y3065
X76165Y18181
X74523Y4500
X70423Y14000
X70467Y12656
X74274Y4891
X73464Y3500
X73326Y17500
X78743Y17400
X75823Y5100
X75523Y8540
X86573Y10960
X97942Y3737
X98033Y18000
X98723Y13773
X107514Y14600
X99968Y14291
X107478Y15278
X106416Y5118
X99365Y14400
X106753Y14845
X105581Y4818
X99883Y13176
X106468Y13913
X101184Y14993
X100933Y5000
X100623Y5368
X99968Y13656
X96242Y4491
X110033Y5300
X96126Y12428
X93463Y11930
X95361Y4319
X96058Y11100
X93442Y10350
X95760Y4027
X96033Y11800
X93475Y11058
X96058Y13166
X105973Y5050
X98652Y9991
X107881Y8022
X97440Y10200
X98942Y3900
X96733Y7100
X106314Y16219
X100633Y18019
X98573Y14400
X106442Y14532
X96842Y3800
X96717Y17081
X99633Y18000
X97245Y3588
X100314Y18981
X97023Y19110
X100033Y15100
X100092Y4600
X99152Y4681
X98133Y19510
X96083Y9140
X94796Y9753
X106834Y8220
X98633Y3491
X98090Y9430
X91733Y9400
X94033Y5400
X94414Y5819
X95354Y3809
X99377Y9165
X94806Y7986
X98653Y9120
X93498Y9200
X93933Y6300
X93733Y5800
X100962Y16810
X98033Y11800
X93589Y7023
X96129Y7912
X98669Y11849
X100633Y13700
X99333Y12500
X97833Y16500
X99433Y15600
X96133Y15500
X93433Y15700
X93633Y17400
X94033Y19800
X90433Y19800
X90633Y22000
X94233Y13700
X94733Y10500
X103089Y7423
X101989Y6123
X100889Y3823
X99589Y3923
X102489Y4123
X91589Y4323
X101589Y4923
X110389Y3623
X111089Y15623
X108389Y14723
X106389Y16923
X105589Y12823
X107889Y12223
X103689Y13123
X108789Y3623
X103289Y9123
X97333Y11800
X99933Y11800
X101288Y8565
X101876Y10085
X104989Y11723
X103089Y17023
X103789Y16123
X98668Y10530
X97398Y13085
X98653Y13085
X102493Y15070
X99926Y10030
X109533Y3400
X105933Y6100
X98653Y6410
X91853Y3810
X93133Y17400
X96333Y21800
X90433Y20300
X100688Y11745
X109702Y12100
X99926Y8785
X94283Y17300
X98833Y18800
X109083Y7912
X101268Y11087
X107940Y11675
X100003Y11060
X101943Y10825
X100503Y6720
X97363Y11080
X97393Y12435
X107842Y4737
X94252Y22181
X99983Y12440
X101213Y12844
X103697Y10890
X101542Y4400
X103668Y11354
X101733Y3565
X101863Y15090
X102953Y13510
X103653Y11991
X96014Y18300
X91776Y20800
X96533Y20000
X96633Y17700
X91733Y19600
X92033Y14300
X93233Y22000
X91033Y15000
X101242Y11650
X101533Y18600
X91433Y21900
X104638Y5051
X101844Y20129
X91733Y18800
X104511Y4610
X102225Y19850
X101268Y12402
X109327Y12494
X97557Y4076
X97820Y18491
X99998Y18400
X98033Y3065
X98674Y18181
X97033Y4500
X92933Y14000
X92977Y12656
X96784Y4891
X95973Y3500
X95836Y17500
X101253Y17400
X98333Y5100
X98033Y8540
X109083Y10960
X120449Y3737
X120540Y18000
X121230Y13773
X130021Y14600
X122474Y14291
X129985Y15278
X128923Y5118
X121872Y14400
X129260Y14845
X128088Y4818
X122390Y13176
X128975Y13913
X123691Y14993
X123440Y5000
X123130Y5368
X122474Y13656
X118749Y4491
X132540Y5300
X118633Y12428
X115970Y11930
X117868Y4319
X118565Y11100
X115949Y10350
X118267Y4027
X118540Y11800
X115982Y11058
X118565Y13166
X128480Y5050
X121159Y9991
X130388Y8022
X119947Y10200
X121449Y3900
X119240Y7100
X128821Y16219
X123140Y18019
X121080Y14400
X128949Y14532
X119349Y3800
X119224Y17081
X122140Y18000
X119752Y3588
X122821Y18981
X119530Y19110
X122540Y15100
X122599Y4600
X121659Y4681
X120640Y19510
X118590Y9140
X117303Y9753
X129341Y8220
X121140Y3491
X120597Y9430
X114240Y9400
X116540Y5400
X116921Y5819
X117861Y3809
X121884Y9165
X117313Y7986
X121160Y9120
X116005Y9200
X116440Y6300
X116240Y5800
X123469Y16810
X120540Y11800
X116096Y7023
X118636Y7912
X121176Y11849
X123140Y13700
X121840Y12500
X120340Y16500
X121940Y15600
X118640Y15500
X115940Y15700
X116140Y17400
X116540Y19800
X112940Y19800
X113140Y22000
X116740Y13700
X117240Y10500
X125596Y7423
X124496Y6123
X123396Y3823
X122096Y3923
X124996Y4123
X114096Y4323
X124096Y4923
X132896Y3623
X133596Y15623
X130896Y14723
X128896Y16923
X128096Y12823
X130396Y12223
X126196Y13123
X131296Y3623
X125796Y9123
X119840Y11800
X122440Y11800
X123795Y8565
X124383Y10085
X127496Y11723
X125596Y17023
X126296Y16123
X121175Y10530
X119905Y13085
X121160Y13085
X125000Y15070
X122433Y10030
X132040Y3400
X128440Y6100
X121160Y6410
X114360Y3810
X115640Y17400
X118840Y21800
X112940Y20300
X123195Y11745
X132209Y12100
X122433Y8785
X116790Y17300
X121340Y18800
X131590Y7912
X123775Y11087
X130447Y11675
X122510Y11060
X124450Y10825
X123010Y6720
X119870Y11080
X119900Y12435
X130349Y4737
X116759Y22181
X122490Y12440
X123720Y12844
X126204Y10890
X124049Y4400
X126175Y11354
X124240Y3565
X124370Y15090
X125460Y13510
X126160Y11991
X118521Y18300
X114283Y20800
X119040Y20000
X119140Y17700
X114240Y19600
X114540Y14300
X115740Y22000
X113540Y15000
X123749Y11650
X124040Y18600
X113940Y21900
X127145Y5051
X124351Y20129
X114240Y18800
X127018Y4610
X124732Y19850
X123775Y12402
X131834Y12494
X120064Y4076
X120327Y18491
X122505Y18400
X120540Y3065
X121181Y18181
X119540Y4500
X115440Y14000
X115484Y12656
X119291Y4891
X118480Y3500
X118343Y17500
X123760Y17400
X120840Y5100
X120540Y8540
X131590Y10960
X142959Y3737
X143049Y18000
X143740Y13773
X152530Y14600
X144984Y14291
X152494Y15278
X151432Y5118
X144382Y14400
X151770Y14845
X150597Y4818
X144900Y13176
X151484Y13913
X146200Y14993
X145949Y5000
X145640Y5368
X144984Y13656
X141259Y4491
X155049Y5300
X141142Y12428
X138479Y11930
X140378Y4319
X141074Y11100
X138459Y10350
X140776Y4027
X141049Y11800
X138491Y11058
X141074Y13166
X150990Y5050
X143668Y9991
X152898Y8022
X142456Y10200
X143959Y3900
X141749Y7100
X151330Y16219
X145649Y18019
X143590Y14400
X151459Y14532
X141859Y3800
X141734Y17081
X144649Y18000
X142261Y3588
X145330Y18981
X142040Y19110
X145049Y15100
X145109Y4600
X144168Y4681
X143149Y19510
X141099Y9140
X139812Y9753
X151851Y8220
X143649Y3491
X143106Y9430
X136749Y9400
X139049Y5400
X139430Y5819
X140371Y3809
X144394Y9165
X139823Y7986
X143669Y9120
X138514Y9200
X138949Y6300
X138749Y5800
X145979Y16810
X143049Y11800
X138605Y7023
X141145Y7912
X143685Y11849
X145649Y13700
X144349Y12500
X142849Y16500
X144449Y15600
X141149Y15500
X138449Y15700
X138649Y17400
X139049Y19800
X135449Y19800
X135649Y22000
X139249Y13700
X139749Y10500
X148105Y7423
X147005Y6123
X145905Y3823
X144605Y3923
X147505Y4123
X136605Y4323
X146605Y4923
X155405Y3623
X156105Y15623
X153405Y14723
X151405Y16923
X150605Y12823
X152905Y12223
X148705Y13123
X153805Y3623
X148305Y9123
X142349Y11800
X144949Y11800
X146305Y8565
X146892Y10085
X150005Y11723
X148105Y17023
X148805Y16123
X143684Y10530
X142414Y13085
X143669Y13085
X147509Y15070
X144942Y10030
X154549Y3400
X150949Y6100
X143669Y6410
X136869Y3810
X138149Y17400
X141349Y21800
X135449Y20300
X145704Y11745
X154718Y12100
X144942Y8785
X139299Y17300
X143849Y18800
X154099Y7912
X146284Y11087
X152956Y11675
X145019Y11060
X146959Y10825
X145519Y6720
X142379Y11080
X142409Y12435
X152859Y4737
X139268Y22181
X144999Y12440
X146230Y12844
X148714Y10890
X146559Y4400
X148684Y11354
X146749Y3565
X146879Y15090
X147969Y13510
X148669Y11991
X141030Y18300
X136792Y20800
X141549Y20000
X141649Y17700
X136749Y19600
X137049Y14300
X138249Y22000
X136049Y15000
X146259Y11650
X146549Y18600
X136449Y21900
X149654Y5051
X146860Y20129
X136749Y18800
X149527Y4610
X147241Y19850
X146284Y12402
X154343Y12494
X142573Y4076
X142837Y18491
X145015Y18400
X143049Y3065
X143691Y18181
X142049Y4500
X137949Y14000
X137993Y12656
X141800Y4891
X140990Y3500
X140852Y17500
X146269Y17400
X143349Y5100
X143049Y8540
X154099Y10960
X14089Y66113
X13999Y51850
X13308Y56077
X4518Y55250
X12064Y55559
X4554Y54572
X5616Y64732
X12667Y55450
X5278Y55005
X6451Y65032
X12148Y56674
X5564Y55937
X10848Y54857
X11099Y64850
X11408Y64482
X12064Y56194
X15789Y65359
X1999Y64550
X15906Y57422
X18569Y57920
X16670Y65531
X15974Y58750
X18589Y59500
X16272Y65823
X15999Y58050
X18557Y58792
X15974Y56684
X6058Y64800
X13380Y59859
X4151Y61828
X14592Y59650
X13089Y65950
X15299Y62750
X5718Y53631
X11399Y51831
X13459Y55450
X5589Y55318
X15189Y66050
X15314Y52769
X12399Y51850
X14787Y66262
X11718Y50869
X15008Y50740
X11999Y54750
X11939Y65250
X12880Y65169
X13899Y50340
X15949Y60710
X17236Y60097
X5197Y61630
X13399Y66359
X13942Y60420
X20299Y60450
X17999Y64450
X17618Y64031
X16678Y66041
X12654Y60685
X17226Y61864
X13379Y60730
X18534Y60650
X18099Y63550
X18299Y64050
X11069Y53040
X13999Y58050
X18443Y62827
X15903Y61938
X13363Y58001
X11399Y56150
X12699Y57350
X14199Y53350
X12599Y54250
X15899Y54350
X18599Y54150
X18399Y52450
X17999Y50050
X21599Y50050
X21399Y47850
X17799Y56150
X17299Y59350
X8943Y62427
X10043Y63727
X11143Y66027
X12443Y65927
X9543Y65727
X20443Y65527
X10443Y64927
X1643Y66227
X943Y54227
X3643Y55127
X5643Y52927
X6443Y57027
X4143Y57627
X8343Y56727
X3243Y66227
X8743Y60727
X14699Y58050
X12099Y58050
X10743Y61285
X10156Y59765
X7043Y58127
X8943Y52827
X8243Y53727
X13364Y59320
X14634Y56765
X13379Y56765
X9539Y54780
X12106Y59820
X2499Y66450
X6099Y63750
X13379Y63440
X20179Y66040
X18899Y52450
X15699Y48050
X21599Y49550
X11344Y58105
X2330Y57750
X12106Y61065
X17749Y52550
X13199Y51050
X2949Y61938
X10764Y58763
X4092Y58175
X12029Y58790
X10089Y59025
X11529Y63130
X14669Y58770
X14639Y57415
X4189Y65113
X17780Y47669
X12049Y57410
X10818Y57006
X8334Y58960
X10489Y65450
X8364Y58496
X10299Y66285
X10169Y54760
X9079Y56340
X8379Y57859
X16018Y51550
X20256Y49050
X15499Y49850
X15399Y52150
X20299Y50250
X19999Y55550
X18799Y47850
X20999Y54850
X10789Y58200
X10499Y51250
X20599Y47950
X7394Y64799
X10188Y49721
X20299Y51050
X7521Y65240
X9807Y50000
X10764Y57448
X2705Y57356
X14475Y65774
X14212Y51359
X12033Y51450
X13999Y66785
X13358Y51669
X14999Y65350
X19099Y55850
X19055Y57194
X15248Y64959
X16058Y66350
X16196Y52350
X10779Y52450
X13699Y64750
X13999Y61310
X2949Y58890
X36599Y66113
X36508Y51850
X35818Y56077
X27027Y55250
X34574Y55559
X27063Y54572
X28125Y64732
X35176Y55450
X27788Y55005
X28960Y65032
X34658Y56674
X28074Y55937
X33357Y54857
X33608Y64850
X33918Y64482
X34574Y56194
X38299Y65359
X24508Y64550
X38416Y57422
X41079Y57920
X39180Y65531
X38483Y58750
X41099Y59500
X38781Y65823
X38508Y58050
X41067Y58792
X38483Y56684
X28568Y64800
X35889Y59859
X26660Y61828
X37101Y59650
X35599Y65950
X37808Y62750
X28227Y53631
X33908Y51831
X35968Y55450
X28099Y55318
X37699Y66050
X37824Y52769
X34908Y51850
X37296Y66262
X34227Y50869
X37518Y50740
X34508Y54750
X34449Y65250
X35390Y65169
X36408Y50340
X38458Y60710
X39746Y60097
X27707Y61630
X35908Y66359
X36451Y60420
X42808Y60450
X40508Y64450
X40127Y64031
X39187Y66041
X35164Y60685
X39735Y61864
X35888Y60730
X41043Y60650
X40608Y63550
X40808Y64050
X33579Y53040
X36508Y58050
X40952Y62827
X38412Y61938
X35872Y58001
X33908Y56150
X35208Y57350
X36708Y53350
X35108Y54250
X38408Y54350
X41108Y54150
X40908Y52450
X40508Y50050
X44108Y50050
X43908Y47850
X40308Y56150
X39808Y59350
X31452Y62427
X32552Y63727
X33652Y66027
X34952Y65927
X32052Y65727
X42952Y65527
X32952Y64927
X24152Y66227
X23452Y54227
X26152Y55127
X28152Y52927
X28952Y57027
X26652Y57627
X30852Y56727
X25752Y66227
X31252Y60727
X37208Y58050
X34608Y58050
X33253Y61285
X32666Y59765
X29552Y58127
X31452Y52827
X30752Y53727
X35873Y59320
X37143Y56765
X35888Y56765
X32048Y54780
X34616Y59820
X25008Y66450
X28608Y63750
X35889Y63440
X42689Y66040
X41408Y52450
X38208Y48050
X44108Y49550
X33854Y58105
X24839Y57750
X34616Y61065
X40258Y52550
X35708Y51050
X25458Y61938
X33274Y58763
X26601Y58175
X34539Y58790
X32598Y59025
X34038Y63130
X37178Y58770
X37148Y57415
X26699Y65113
X40290Y47669
X34559Y57410
X33328Y57006
X30844Y58960
X32999Y65450
X30874Y58496
X32808Y66285
X32678Y54760
X31588Y56340
X30888Y57859
X38528Y51550
X42766Y49050
X38008Y49850
X37908Y52150
X42808Y50250
X42508Y55550
X41308Y47850
X43508Y54850
X33299Y58200
X33008Y51250
X43108Y47950
X29903Y64799
X32697Y49721
X42808Y51050
X30030Y65240
X32316Y50000
X33274Y57448
X25214Y57356
X36984Y65774
X36721Y51359
X34543Y51450
X36508Y66785
X35867Y51669
X37508Y65350
X41608Y55850
X41565Y57194
X37758Y64959
X38568Y66350
X38705Y52350
X33288Y52450
X36208Y64750
X36508Y61310
X25458Y58890
X59106Y66113
X59015Y51850
X58325Y56077
X49534Y55250
X57081Y55559
X49570Y54572
X50632Y64732
X57683Y55450
X50295Y55005
X51467Y65032
X57165Y56674
X50580Y55937
X55864Y54857
X56115Y64850
X56425Y64482
X57081Y56194
X60806Y65359
X47015Y64550
X60922Y57422
X63586Y57920
X61687Y65531
X60990Y58750
X63606Y59500
X61288Y65823
X61015Y58050
X63573Y58792
X60990Y56684
X51075Y64800
X58396Y59859
X49167Y61828
X59608Y59650
X58106Y65950
X60315Y62750
X50734Y53631
X56415Y51831
X58475Y55450
X50606Y55318
X60206Y66050
X60331Y52769
X57415Y51850
X59803Y66262
X56734Y50869
X60025Y50740
X57015Y54750
X56956Y65250
X57896Y65169
X58915Y50340
X60965Y60710
X62253Y60097
X50214Y61630
X58415Y66359
X58958Y60420
X65315Y60450
X63015Y64450
X62634Y64031
X61694Y66041
X57671Y60685
X62242Y61864
X58395Y60730
X63550Y60650
X63115Y63550
X63315Y64050
X56086Y53040
X59015Y58050
X63459Y62827
X60919Y61938
X58379Y58001
X56415Y56150
X57715Y57350
X59215Y53350
X57615Y54250
X60915Y54350
X63615Y54150
X63415Y52450
X63015Y50050
X66615Y50050
X66415Y47850
X62815Y56150
X62315Y59350
X53959Y62427
X55059Y63727
X56159Y66027
X57459Y65927
X54559Y65727
X65459Y65527
X55459Y64927
X46659Y66227
X45959Y54227
X48659Y55127
X50659Y52927
X51459Y57027
X49159Y57627
X53359Y56727
X48259Y66227
X53759Y60727
X59715Y58050
X57115Y58050
X55760Y61285
X55172Y59765
X52059Y58127
X53959Y52827
X53259Y53727
X58380Y59320
X59650Y56765
X58395Y56765
X54555Y54780
X57122Y59820
X47515Y66450
X51115Y63750
X58396Y63440
X65196Y66040
X63915Y52450
X60715Y48050
X66615Y49550
X56361Y58105
X47346Y57750
X57122Y61065
X62765Y52550
X58215Y51050
X47965Y61938
X55780Y58763
X49108Y58175
X57046Y58790
X55105Y59025
X56545Y63130
X59685Y58770
X59655Y57415
X49206Y65113
X62796Y47669
X57066Y57410
X55835Y57006
X53351Y58960
X55506Y65450
X53380Y58496
X55315Y66285
X55185Y54760
X54095Y56340
X53395Y57859
X61034Y51550
X65272Y49050
X60515Y49850
X60415Y52150
X65315Y50250
X65015Y55550
X63815Y47850
X66015Y54850
X55806Y58200
X55515Y51250
X65615Y47950
X52410Y64799
X55204Y49721
X65315Y51050
X52537Y65240
X54823Y50000
X55780Y57448
X47721Y57356
X59491Y65774
X59228Y51359
X57050Y51450
X59015Y66785
X58374Y51669
X60015Y65350
X64115Y55850
X64071Y57194
X60265Y64959
X61075Y66350
X61212Y52350
X55795Y52450
X58715Y64750
X59015Y61310
X47965Y58890
X81615Y66113
X81525Y51850
X80834Y56077
X72044Y55250
X79590Y55559
X72080Y54572
X73142Y64732
X80192Y55450
X72804Y55005
X73977Y65032
X79674Y56674
X73090Y55937
X78374Y54857
X78625Y64850
X78934Y64482
X79590Y56194
X83315Y65359
X69525Y64550
X83432Y57422
X86095Y57920
X84196Y65531
X83500Y58750
X86115Y59500
X83798Y65823
X83525Y58050
X86083Y58792
X83500Y56684
X73584Y64800
X80906Y59859
X71677Y61828
X82118Y59650
X80615Y65950
X82825Y62750
X73244Y53631
X78925Y51831
X80984Y55450
X73115Y55318
X82715Y66050
X82840Y52769
X79925Y51850
X82313Y66262
X79244Y50869
X82534Y50740
X79525Y54750
X79465Y65250
X80406Y65169
X81425Y50340
X83475Y60710
X84762Y60097
X72723Y61630
X80925Y66359
X81468Y60420
X87825Y60450
X85525Y64450
X85144Y64031
X84203Y66041
X80180Y60685
X84752Y61864
X80905Y60730
X86060Y60650
X85625Y63550
X85825Y64050
X78595Y53040
X81525Y58050
X85969Y62827
X83429Y61938
X80889Y58001
X78925Y56150
X80225Y57350
X81725Y53350
X80125Y54250
X83425Y54350
X86125Y54150
X85925Y52450
X85525Y50050
X89125Y50050
X88925Y47850
X85325Y56150
X84825Y59350
X76469Y62427
X77569Y63727
X78669Y66027
X79969Y65927
X77069Y65727
X87969Y65527
X77969Y64927
X69169Y66227
X68469Y54227
X71169Y55127
X73169Y52927
X73969Y57027
X71669Y57627
X75869Y56727
X70769Y66227
X76269Y60727
X7910Y3737
X79625Y58050
X78269Y61285
X77682Y59765
X74569Y58127
X76469Y52827
X75769Y53727
X80890Y59320
X82160Y56765
X80905Y56765
X77065Y54780
X79632Y59820
X70025Y66450
X73625Y63750
X80905Y63440
X87705Y66040
X86425Y52450
X83225Y48050
X89125Y49550
X78870Y58105
X69856Y57750
X79632Y61065
X85275Y52550
X80725Y51050
X70475Y61938
X78290Y58763
X71618Y58175
X79555Y58790
X77615Y59025
X79055Y63130
X82195Y58770
X82165Y57415
X71715Y65113
X85306Y47669
X79575Y57410
X78344Y57006
X75860Y58960
X78015Y65450
X75890Y58496
X77825Y66285
X77695Y54760
X76605Y56340
X75905Y57859
X83544Y51550
X87782Y49050
X83025Y49850
X82925Y52150
X87825Y50250
X87525Y55550
X86325Y47850
X88525Y54850
X78315Y58200
X78025Y51250
X88125Y47950
X74920Y64799
X77714Y49721
X87825Y51050
X75047Y65240
X77333Y50000
X78290Y57448
X70231Y57356
X82001Y65774
X81737Y51359
X79559Y51450
X81525Y66785
X80884Y51669
X82525Y65350
X86625Y55850
X86581Y57194
X82774Y64959
X83584Y66350
X83722Y52350
X78305Y52450
X81225Y64750
X81525Y61310
X70475Y58890
X104122Y66113
X104032Y51850
X103341Y56077
X94551Y55250
X102097Y55559
X94587Y54572
X95649Y64732
X102699Y55450
X95311Y55005
X96484Y65032
X102181Y56674
X95597Y55937
X100881Y54857
X101132Y64850
X101441Y64482
X102097Y56194
X105822Y65359
X92032Y64550
X105939Y57422
X108602Y57920
X106703Y65531
X106007Y58750
X108622Y59500
X106305Y65823
X106032Y58050
X108590Y58792
X106007Y56684
X96091Y64800
X103413Y59859
X94183Y61828
X104625Y59650
X103122Y65950
X105332Y62750
X95751Y53631
X101432Y51831
X103491Y55450
X95622Y55318
X105222Y66050
X105347Y52769
X102432Y51850
X104820Y66262
X101751Y50869
X105041Y50740
X102032Y54750
X101972Y65250
X102913Y65169
X103932Y50340
X105982Y60710
X107269Y60097
X95230Y61630
X103432Y66359
X103975Y60420
X110332Y60450
X108032Y64450
X107651Y64031
X106710Y66041
X102687Y60685
X107258Y61864
X103412Y60730
X108567Y60650
X108132Y63550
X108332Y64050
X101102Y53040
X104032Y58050
X108476Y62827
X105936Y61938
X103396Y58001
X101432Y56150
X102732Y57350
X104232Y53350
X102632Y54250
X105932Y54350
X108632Y54150
X108432Y52450
X108032Y50050
X111632Y50050
X111432Y47850
X107832Y56150
X107332Y59350
X98976Y62427
X100076Y63727
X101176Y66027
X102476Y65927
X99576Y65727
X110476Y65527
X100476Y64927
X91676Y66227
X90976Y54227
X93676Y55127
X95676Y52927
X96476Y57027
X94176Y57627
X98376Y56727
X93276Y66227
X98776Y60727
X104732Y58050
X102132Y58050
X100776Y61285
X100189Y59765
X97076Y58127
X98976Y52827
X98276Y53727
X103397Y59320
X104667Y56765
X103412Y56765
X99572Y54780
X102139Y59820
X92532Y66450
X96132Y63750
X103412Y63440
X110212Y66040
X108932Y52450
X105732Y48050
X111632Y49550
X101377Y58105
X92363Y57750
X102139Y61065
X107782Y52550
X103232Y51050
X92982Y61938
X100797Y58763
X94125Y58175
X102062Y58790
X100122Y59025
X101562Y63130
X104702Y58770
X104672Y57415
X94222Y65113
X107813Y47669
X102082Y57410
X100851Y57006
X98367Y58960
X100522Y65450
X98397Y58496
X100332Y66285
X100202Y54760
X99112Y56340
X98412Y57859
X106051Y51550
X110289Y49050
X105532Y49850
X105432Y52150
X110332Y50250
X110032Y55550
X108832Y47850
X111032Y54850
X100822Y58200
X100532Y51250
X110632Y47950
X97427Y64799
X100221Y49721
X110332Y51050
X97554Y65240
X99840Y50000
X100797Y57448
X92738Y57356
X104508Y65774
X104244Y51359
X102066Y51450
X104032Y66785
X103390Y51669
X105032Y65350
X109132Y55850
X109088Y57194
X105281Y64959
X106091Y66350
X106229Y52350
X100812Y52450
X103732Y64750
X104032Y61310
X92982Y58890
X126632Y66113
X126541Y51850
X125851Y56077
X117060Y55250
X124607Y55559
X117096Y54572
X118158Y64732
X125209Y55450
X117821Y55005
X118993Y65032
X124691Y56674
X118106Y55937
X123390Y54857
X123641Y64850
X123951Y64482
X124607Y56194
X128332Y65359
X114541Y64550
X128448Y57422
X131111Y57920
X129213Y65531
X128516Y58750
X131132Y59500
X128814Y65823
X128541Y58050
X131099Y58792
X128516Y56684
X118601Y64800
X125922Y59859
X116693Y61828
X127134Y59650
X125632Y65950
X127841Y62750
X118260Y53631
X123941Y51831
X126001Y55450
X118132Y55318
X127732Y66050
X127857Y52769
X124941Y51850
X127329Y66262
X124260Y50869
X127551Y50740
X124541Y54750
X124482Y65250
X125422Y65169
X126441Y50340
X128491Y60710
X129778Y60097
X117740Y61630
X125941Y66359
X126484Y60420
X132841Y60450
X130541Y64450
X82225Y58050
X129220Y66041
X125197Y60685
X129768Y61864
X125921Y60730
X131076Y60650
X130641Y63550
X130841Y64050
X123612Y53040
X126541Y58050
X130985Y62827
X128445Y61938
X125905Y58001
X123941Y56150
X125241Y57350
X126741Y53350
X125141Y54250
X128441Y54350
X131141Y54150
X130941Y52450
X130541Y50050
X134141Y50050
X133941Y47850
X130341Y56150
X129841Y59350
X121485Y62427
X122585Y63727
X123685Y66027
X124985Y65927
X122085Y65727
X132985Y65527
X122985Y64927
X114185Y66227
X113485Y54227
X116185Y55127
X118185Y52927
X118985Y57027
X116685Y57627
X120885Y56727
X115785Y66227
X121285Y60727
X127241Y58050
X124641Y58050
X123286Y61285
X122698Y59765
X119585Y58127
X121485Y52827
X120785Y53727
X125906Y59320
X127176Y56765
X125921Y56765
X122081Y54780
X124648Y59820
X115041Y66450
X118641Y63750
X125921Y63440
X132721Y66040
X131441Y52450
X128241Y48050
X134141Y49550
X123886Y58105
X114872Y57750
X124648Y61065
X130291Y52550
X125741Y51050
X115491Y61938
X123306Y58763
X116634Y58175
X124571Y58790
X122631Y59025
X124071Y63130
X127211Y58770
X127181Y57415
X116732Y65113
X130322Y47669
X124591Y57410
X123361Y57006
X120877Y58960
X123032Y65450
X120906Y58496
X122841Y66285
X122711Y54760
X121621Y56340
X120921Y57859
X128560Y51550
X132798Y49050
X128041Y49850
X127941Y52150
X132841Y50250
X132541Y55550
X131341Y47850
X133541Y54850
X123332Y58200
X123041Y51250
X133141Y47950
X119936Y64799
X122730Y49721
X132841Y51050
X120063Y65240
X122349Y50000
X123306Y57448
X115247Y57356
X127017Y65774
X126754Y51359
X124576Y51450
X126541Y66785
X125900Y51669
X127541Y65350
X131641Y55850
X131597Y57194
X127790Y64959
X128601Y66350
X128738Y52350
X123321Y52450
X126241Y64750
X126541Y61310
X115491Y58890
X149139Y66113
X149048Y51850
X148358Y56077
X139567Y55250
X147114Y55559
X139603Y54572
X140665Y64732
X147716Y55450
X140328Y55005
X141500Y65032
X147198Y56674
X140613Y55937
X145897Y54857
X146148Y64850
X146458Y64482
X147114Y56194
X150839Y65359
X137048Y64550
X150955Y57422
X153618Y57920
X151720Y65531
X151023Y58750
X153639Y59500
X151321Y65823
X151048Y58050
X153606Y58792
X151023Y56684
X141108Y64800
X148429Y59859
X139200Y61828
X149641Y59650
X148139Y65950
X150348Y62750
X140767Y53631
X146448Y51831
X148508Y55450
X140639Y55318
X150239Y66050
X150364Y52769
X147448Y51850
X149836Y66262
X146767Y50869
X150058Y50740
X147048Y54750
X146989Y65250
X147929Y65169
X148948Y50340
X150998Y60710
X152285Y60097
X140247Y61630
X148448Y66359
X148991Y60420
X155348Y60450
X153048Y64450
X152667Y64031
X151727Y66041
X147704Y60685
X152275Y61864
X148428Y60730
X153583Y60650
X153148Y63550
X153348Y64050
X146119Y53040
X149048Y58050
X153492Y62827
X150952Y61938
X148412Y58001
X146448Y56150
X147748Y57350
X149248Y53350
X147648Y54250
X150948Y54350
X153648Y54150
X153448Y52450
X153048Y50050
X156648Y50050
X156448Y47850
X152848Y56150
X152348Y59350
X143992Y62427
X145092Y63727
X146192Y66027
X147492Y65927
X144592Y65727
X155492Y65527
X145492Y64927
X136692Y66227
X135992Y54227
X138692Y55127
X140692Y52927
X141492Y57027
X139192Y57627
X143392Y56727
X138292Y66227
X143792Y60727
X149748Y58050
X147148Y58050
X145793Y61285
X145205Y59765
X142092Y58127
X143992Y52827
X143292Y53727
X148413Y59320
X149683Y56765
X148428Y56765
X144588Y54780
X147155Y59820
X137548Y66450
X141148Y63750
X148428Y63440
X155228Y66040
X153948Y52450
X150748Y48050
X156648Y49550
X146393Y58105
X137379Y57750
X147155Y61065
X152798Y52550
X148248Y51050
X137998Y61938
X145813Y58763
X139141Y58175
X147078Y58790
X145138Y59025
X146578Y63130
X149718Y58770
X149688Y57415
X139239Y65113
X152829Y47669
X147098Y57410
X145868Y57006
X143384Y58960
X145539Y65450
X143413Y58496
X145348Y66285
X145218Y54760
X144128Y56340
X143428Y57859
X151067Y51550
X155305Y49050
X150548Y49850
X150448Y52150
X155348Y50250
X155048Y55550
X153848Y47850
X156048Y54850
X145839Y58200
X145548Y51250
X155648Y47950
X142443Y64799
X145237Y49721
X155348Y51050
X142570Y65240
X144856Y50000
X145813Y57448
X137754Y57356
X149524Y65774
X149261Y51359
X147083Y51450
X149048Y66785
X148407Y51669
X150048Y65350
X154148Y55850
X154104Y57194
X150297Y64959
X151108Y66350
X151245Y52350
X145828Y52450
X148748Y64750
X149048Y61310
X137998Y58890
X8000Y18000
X8690Y13773
X17481Y14600
X9935Y14291
X17445Y15278
X16383Y5118
X9332Y14400
X16721Y14845
X15548Y4818
X9850Y13176
X16435Y13913
X11151Y14993
X10900Y5000
X130160Y64031
M30